G04 EAGLE Gerber RS-274X export*
G75*
%MOMM*%
%FSLAX34Y34*%
%LPD*%
%INTop Copper*%
%IPPOS*%
%AMOC8*
5,1,8,0,0,1.08239X$1,22.5*%
G01*
G04 Define Apertures*
%ADD10R,1.164600X1.815300*%
%ADD11R,1.188700X1.795500*%
%ADD12R,0.700000X0.500000*%
%ADD13C,1.343400*%
%ADD14R,0.897900X1.860300*%
%ADD15R,3.189100X1.860300*%
%ADD16C,0.264000*%
%ADD17R,3.100000X3.100000*%
%ADD18R,1.408000X1.408000*%
%ADD19C,1.408000*%
%ADD20C,1.148000*%
%ADD21R,0.798700X0.973900*%
%ADD22R,0.597100X1.186400*%
%ADD23R,1.815300X1.164600*%
%ADD24C,0.152400*%
%ADD25C,0.756400*%
D10*
X103654Y342900D03*
X74146Y342900D03*
X23346Y342900D03*
X52854Y342900D03*
X149785Y152400D03*
X179293Y152400D03*
D11*
X149700Y635399D03*
X149700Y609201D03*
D10*
X250772Y152400D03*
X280280Y152400D03*
X354120Y152400D03*
X383628Y152400D03*
D11*
X149700Y406799D03*
X149700Y380601D03*
D10*
X446333Y152400D03*
X475841Y152400D03*
D12*
X93400Y190500D03*
X84400Y190500D03*
X240400Y546100D03*
X231400Y546100D03*
X240400Y317500D03*
X231400Y317500D03*
D13*
X304800Y292100D03*
X330200Y292100D03*
X355600Y292100D03*
X381000Y292100D03*
X406400Y292100D03*
X431800Y292100D03*
X457200Y292100D03*
X482600Y292100D03*
X482600Y368300D03*
X457200Y368300D03*
X431800Y368300D03*
X406400Y368300D03*
X381000Y368300D03*
X355600Y368300D03*
X330200Y368300D03*
X304800Y368300D03*
D14*
X86500Y297450D03*
X63500Y297450D03*
X40500Y297450D03*
D15*
X63500Y235950D03*
D16*
X195961Y639800D02*
X201693Y639800D01*
X201693Y634800D02*
X195961Y634800D01*
X195961Y629800D02*
X201693Y629800D01*
X201693Y624800D02*
X195961Y624800D01*
X195961Y619800D02*
X201693Y619800D01*
X201693Y614800D02*
X195961Y614800D01*
X195961Y609800D02*
X201693Y609800D01*
X201693Y604800D02*
X195961Y604800D01*
X205700Y600793D02*
X205700Y595061D01*
X210700Y595061D02*
X210700Y600793D01*
X215700Y600793D02*
X215700Y595061D01*
X220700Y595061D02*
X220700Y600793D01*
X225700Y600793D02*
X225700Y595061D01*
X230700Y595061D02*
X230700Y600793D01*
X235700Y600793D02*
X235700Y595061D01*
X240700Y595061D02*
X240700Y600793D01*
X244707Y604800D02*
X250439Y604800D01*
X250439Y609800D02*
X244707Y609800D01*
X244707Y614800D02*
X250439Y614800D01*
X250439Y619800D02*
X244707Y619800D01*
X244707Y624800D02*
X250439Y624800D01*
X250439Y629800D02*
X244707Y629800D01*
X244707Y634800D02*
X250439Y634800D01*
X250439Y639800D02*
X244707Y639800D01*
X240700Y643807D02*
X240700Y649539D01*
X235700Y649539D02*
X235700Y643807D01*
X230700Y643807D02*
X230700Y649539D01*
X225700Y649539D02*
X225700Y643807D01*
X220700Y643807D02*
X220700Y649539D01*
X215700Y649539D02*
X215700Y643807D01*
X210700Y643807D02*
X210700Y649539D01*
X205700Y649539D02*
X205700Y643807D01*
D17*
X223200Y622300D03*
D13*
X304800Y635000D03*
X330200Y635000D03*
X355600Y635000D03*
X381000Y635000D03*
X406400Y635000D03*
X431800Y635000D03*
X457200Y635000D03*
X482600Y635000D03*
X482600Y711200D03*
X457200Y711200D03*
X431800Y711200D03*
X406400Y711200D03*
X381000Y711200D03*
X355600Y711200D03*
X330200Y711200D03*
X304800Y711200D03*
X304800Y520700D03*
X330200Y520700D03*
X355600Y520700D03*
X381000Y520700D03*
X406400Y520700D03*
X431800Y520700D03*
X457200Y520700D03*
X482600Y520700D03*
X482600Y596900D03*
X457200Y596900D03*
X431800Y596900D03*
X406400Y596900D03*
X381000Y596900D03*
X355600Y596900D03*
X330200Y596900D03*
X304800Y596900D03*
D16*
X201693Y411200D02*
X195961Y411200D01*
X195961Y406200D02*
X201693Y406200D01*
X201693Y401200D02*
X195961Y401200D01*
X195961Y396200D02*
X201693Y396200D01*
X201693Y391200D02*
X195961Y391200D01*
X195961Y386200D02*
X201693Y386200D01*
X201693Y381200D02*
X195961Y381200D01*
X195961Y376200D02*
X201693Y376200D01*
X205700Y372193D02*
X205700Y366461D01*
X210700Y366461D02*
X210700Y372193D01*
X215700Y372193D02*
X215700Y366461D01*
X220700Y366461D02*
X220700Y372193D01*
X225700Y372193D02*
X225700Y366461D01*
X230700Y366461D02*
X230700Y372193D01*
X235700Y372193D02*
X235700Y366461D01*
X240700Y366461D02*
X240700Y372193D01*
X244707Y376200D02*
X250439Y376200D01*
X250439Y381200D02*
X244707Y381200D01*
X244707Y386200D02*
X250439Y386200D01*
X250439Y391200D02*
X244707Y391200D01*
X244707Y396200D02*
X250439Y396200D01*
X250439Y401200D02*
X244707Y401200D01*
X244707Y406200D02*
X250439Y406200D01*
X250439Y411200D02*
X244707Y411200D01*
X240700Y415207D02*
X240700Y420939D01*
X235700Y420939D02*
X235700Y415207D01*
X230700Y415207D02*
X230700Y420939D01*
X225700Y420939D02*
X225700Y415207D01*
X220700Y415207D02*
X220700Y420939D01*
X215700Y420939D02*
X215700Y415207D01*
X210700Y415207D02*
X210700Y420939D01*
X205700Y420939D02*
X205700Y415207D01*
D17*
X223200Y393700D03*
D13*
X304800Y406400D03*
X330200Y406400D03*
X355600Y406400D03*
X381000Y406400D03*
X406400Y406400D03*
X431800Y406400D03*
X457200Y406400D03*
X482600Y406400D03*
X482600Y482600D03*
X457200Y482600D03*
X431800Y482600D03*
X406400Y482600D03*
X381000Y482600D03*
X355600Y482600D03*
X330200Y482600D03*
X304800Y482600D03*
D18*
X546100Y702400D03*
D19*
X546100Y727400D03*
D18*
X546100Y621457D03*
D19*
X546100Y646457D03*
D18*
X546100Y540514D03*
D19*
X546100Y565514D03*
D18*
X546100Y459571D03*
D19*
X546100Y484571D03*
D18*
X546100Y378629D03*
D19*
X546100Y403629D03*
D18*
X546100Y297686D03*
D19*
X546100Y322686D03*
D18*
X546100Y216743D03*
D19*
X546100Y241743D03*
D18*
X546100Y135800D03*
D19*
X546100Y160800D03*
D20*
X190300Y771100D03*
X165300Y771100D03*
X140300Y771100D03*
X290200Y771100D03*
X265200Y771100D03*
X240200Y771100D03*
X390100Y771100D03*
X365100Y771100D03*
X340100Y771100D03*
X490000Y771100D03*
X465000Y771100D03*
X440000Y771100D03*
X139700Y88200D03*
X164700Y88200D03*
X189700Y88200D03*
X239800Y88200D03*
X264800Y88200D03*
X289800Y88200D03*
X339900Y88200D03*
X364900Y88200D03*
X389900Y88200D03*
X440000Y88200D03*
X465000Y88200D03*
X490000Y88200D03*
D18*
X88900Y495300D03*
D19*
X88900Y470300D03*
D21*
X46252Y190500D03*
X29948Y190500D03*
X218652Y546100D03*
X202348Y546100D03*
X215048Y698500D03*
X231352Y698500D03*
X273678Y241300D03*
X257374Y241300D03*
X172691Y241300D03*
X156387Y241300D03*
X377026Y241300D03*
X360722Y241300D03*
X215048Y469900D03*
X231352Y469900D03*
X218652Y317500D03*
X202348Y317500D03*
X469239Y241300D03*
X452935Y241300D03*
D20*
X88900Y698500D03*
X88900Y673500D03*
X88900Y648500D03*
X88900Y623500D03*
D18*
X88900Y571500D03*
D19*
X88900Y546500D03*
D22*
X172139Y212644D03*
X162639Y212644D03*
X153139Y212644D03*
X153139Y187356D03*
X172139Y187356D03*
X273126Y212644D03*
X263626Y212644D03*
X254126Y212644D03*
X254126Y187356D03*
X273126Y187356D03*
X376474Y212644D03*
X366974Y212644D03*
X357474Y212644D03*
X357474Y187356D03*
X376474Y187356D03*
X468687Y212644D03*
X459187Y212644D03*
X449687Y212644D03*
X449687Y187356D03*
X468687Y187356D03*
D23*
X150000Y574754D03*
X150000Y545246D03*
X150000Y494754D03*
X150000Y465246D03*
D24*
X376250Y186250D02*
X353750Y163750D01*
X353750Y152500D01*
X376250Y186250D02*
X376474Y187356D01*
X354120Y152400D02*
X353750Y152500D01*
X467500Y152500D02*
X467500Y186250D01*
X467500Y152500D02*
X447500Y152500D01*
X467500Y186250D02*
X468687Y187356D01*
X447500Y152500D02*
X446333Y152400D01*
X411250Y152500D02*
X377500Y186250D01*
X411250Y152500D02*
X446250Y152500D01*
X377500Y186250D02*
X376474Y187356D01*
X446250Y152500D02*
X446333Y152400D01*
X261250Y175000D02*
X250000Y163750D01*
X261250Y175000D02*
X272500Y186250D01*
X250000Y163750D02*
X250000Y152500D01*
X272500Y186250D02*
X273126Y187356D01*
X250772Y152400D02*
X250000Y152500D01*
X171250Y186250D02*
X147500Y162500D01*
X147500Y152500D01*
X148750Y152500D01*
X171250Y186250D02*
X172139Y187356D01*
X149785Y152400D02*
X148750Y152500D01*
X140000Y152500D02*
X140000Y88750D01*
X140000Y152500D02*
X147500Y152500D01*
X140000Y88750D02*
X139700Y88200D01*
X147500Y152500D02*
X149785Y152400D01*
X227500Y186250D02*
X250000Y163750D01*
X227500Y186250D02*
X172500Y186250D01*
X172139Y187356D01*
X342500Y175000D02*
X353750Y163750D01*
X342500Y175000D02*
X261250Y175000D01*
X256250Y380000D02*
X248750Y380000D01*
X256250Y380000D02*
X267500Y368750D01*
X303750Y368750D01*
X248750Y380000D02*
X247573Y381200D01*
X303750Y368750D02*
X304800Y368300D01*
X240000Y87500D02*
X247500Y80000D01*
X331250Y80000D01*
X338750Y87500D01*
X240000Y87500D02*
X239800Y88200D01*
X338750Y87500D02*
X339900Y88200D01*
X432500Y80000D02*
X440000Y87500D01*
X432500Y80000D02*
X331250Y80000D01*
X440000Y87500D02*
X440000Y88200D01*
X147500Y80000D02*
X140000Y87500D01*
X147500Y80000D02*
X247500Y80000D01*
X140000Y87500D02*
X139700Y88200D01*
X232500Y470000D02*
X245000Y482500D01*
X303750Y482500D01*
X232500Y470000D02*
X231352Y469900D01*
X303750Y482500D02*
X304800Y482600D01*
X292500Y608750D02*
X248750Y608750D01*
X292500Y608750D02*
X303750Y597500D01*
X248750Y608750D02*
X247573Y609800D01*
X303750Y597500D02*
X304800Y596900D01*
X232500Y698750D02*
X243750Y710000D01*
X303750Y710000D01*
X232500Y698750D02*
X231352Y698500D01*
X303750Y710000D02*
X304800Y711200D01*
X382500Y762500D02*
X390000Y770000D01*
X382500Y762500D02*
X298750Y762500D01*
X291250Y770000D01*
X390000Y770000D02*
X390100Y771100D01*
X291250Y770000D02*
X290200Y771100D01*
X482500Y762500D02*
X490000Y770000D01*
X482500Y762500D02*
X382500Y762500D01*
X490000Y770000D02*
X490000Y771100D01*
X185000Y625000D02*
X160000Y625000D01*
X185000Y625000D02*
X198750Y625000D01*
X160000Y625000D02*
X150000Y635000D01*
X198750Y625000D02*
X198827Y624800D01*
X150000Y635000D02*
X149700Y635399D01*
X192500Y615000D02*
X198750Y615000D01*
X192500Y615000D02*
X191250Y616250D01*
X181250Y616250D01*
X178750Y613750D01*
X198750Y615000D02*
X198827Y614800D01*
X185000Y625000D02*
X185000Y626250D01*
X182500Y385000D02*
X198750Y385000D01*
X183750Y396250D02*
X182500Y397500D01*
X183750Y396250D02*
X198750Y396250D01*
X198827Y386200D02*
X198750Y385000D01*
X198827Y396200D02*
X198750Y396250D01*
X182500Y397500D02*
X180000Y400000D01*
X156250Y400000D01*
X150000Y406250D01*
X149700Y406799D01*
X30000Y296250D02*
X30000Y191250D01*
X30000Y296250D02*
X40000Y296250D01*
X30000Y191250D02*
X29948Y190500D01*
X40000Y296250D02*
X40500Y297450D01*
X23750Y296250D02*
X23750Y342500D01*
X23750Y296250D02*
X30000Y296250D01*
X23750Y342500D02*
X23346Y342900D01*
X110000Y367500D02*
X148750Y406250D01*
X110000Y367500D02*
X47500Y367500D01*
X23750Y343750D01*
X148750Y406250D02*
X149700Y406799D01*
X23750Y343750D02*
X23346Y342900D01*
X231250Y698750D02*
X223750Y706250D01*
X187500Y706250D01*
X231250Y698750D02*
X231352Y698500D01*
X110000Y182500D02*
X140000Y152500D01*
X110000Y182500D02*
X37500Y182500D01*
X30000Y190000D01*
X29948Y190500D01*
D25*
X178750Y613750D03*
X185000Y626250D03*
X182500Y385000D03*
X182500Y397500D03*
X187500Y706250D03*
D24*
X198750Y391250D02*
X160000Y391250D01*
X150000Y381250D01*
X198750Y391250D02*
X198827Y391200D01*
X150000Y381250D02*
X149700Y380601D01*
X73750Y342500D02*
X63750Y342500D01*
X53750Y342500D01*
X52854Y342900D01*
X73750Y342500D02*
X74146Y342900D01*
X63750Y342500D02*
X63750Y297500D01*
X63500Y297450D01*
X132500Y363750D02*
X148750Y380000D01*
X132500Y363750D02*
X95000Y363750D01*
X75000Y343750D01*
X148750Y380000D02*
X149700Y380601D01*
X75000Y343750D02*
X74146Y342900D01*
X92500Y235000D02*
X92500Y203750D01*
X92500Y191250D01*
X92500Y235000D02*
X63750Y235000D01*
X92500Y191250D02*
X93400Y190500D01*
X63750Y235000D02*
X63500Y235950D01*
X162500Y212500D02*
X162500Y203750D01*
X92500Y203750D01*
X162500Y212500D02*
X162639Y212644D01*
X262500Y212500D02*
X262500Y201250D01*
X192500Y201250D02*
X165000Y201250D01*
X192500Y201250D02*
X262500Y201250D01*
X165000Y201250D02*
X162500Y203750D01*
X262500Y212500D02*
X263626Y212644D01*
X63750Y236250D02*
X63750Y296250D01*
X63500Y297450D01*
X63750Y236250D02*
X63500Y235950D01*
X240000Y307500D02*
X240000Y317500D01*
X240000Y307500D02*
X211250Y307500D01*
X240000Y317500D02*
X240400Y317500D01*
X180000Y151250D02*
X180000Y88750D01*
X188750Y88750D01*
X180000Y151250D02*
X179293Y152400D01*
X188750Y88750D02*
X189700Y88200D01*
X281250Y88750D02*
X281250Y96250D01*
X281250Y151250D01*
X281250Y88750D02*
X288750Y88750D01*
X281250Y151250D02*
X280280Y152400D01*
X288750Y88750D02*
X289800Y88200D01*
X383750Y88750D02*
X383750Y96250D01*
X383750Y151250D01*
X383750Y88750D02*
X388750Y88750D01*
X383750Y151250D02*
X383628Y152400D01*
X388750Y88750D02*
X389900Y88200D01*
X476250Y88750D02*
X476250Y96250D01*
X476250Y151250D01*
X476250Y88750D02*
X490000Y88750D01*
X476250Y151250D02*
X475841Y152400D01*
X490000Y88750D02*
X490000Y88200D01*
X397500Y96250D02*
X390000Y88750D01*
X397500Y96250D02*
X476250Y96250D01*
X390000Y88750D02*
X389900Y88200D01*
X297500Y96250D02*
X290000Y88750D01*
X297500Y96250D02*
X383750Y96250D01*
X290000Y88750D02*
X289800Y88200D01*
X197500Y96250D02*
X190000Y88750D01*
X197500Y96250D02*
X281250Y96250D01*
X190000Y88750D02*
X189700Y88200D01*
X198750Y401250D02*
X197500Y402500D01*
X186250Y402500D01*
X185000Y403750D01*
X171250Y403750D01*
X121250Y453750D01*
X92500Y453750D01*
X198750Y401250D02*
X198827Y401200D01*
X127500Y471250D02*
X150000Y493750D01*
X127500Y471250D02*
X90000Y471250D01*
X150000Y493750D02*
X150000Y494754D01*
X90000Y471250D02*
X88900Y470300D01*
X160000Y620000D02*
X198750Y620000D01*
X160000Y620000D02*
X150000Y610000D01*
X198750Y620000D02*
X198827Y619800D01*
X150000Y610000D02*
X149700Y609201D01*
X190000Y630000D02*
X198750Y630000D01*
X190000Y630000D02*
X172500Y647500D01*
X142500Y647500D01*
X141250Y646250D01*
X141250Y610000D01*
X148750Y610000D01*
X198827Y629800D02*
X198750Y630000D01*
X149700Y609201D02*
X148750Y610000D01*
X150000Y608750D02*
X150000Y575000D01*
X150000Y574754D01*
X150000Y608750D02*
X149700Y609201D01*
X141250Y771250D02*
X150000Y780000D01*
X231250Y780000D01*
X240000Y771250D01*
X141250Y771250D02*
X140300Y771100D01*
X240000Y771250D02*
X240200Y771100D01*
X331250Y780000D02*
X340000Y771250D01*
X331250Y780000D02*
X231250Y780000D01*
X340000Y771250D02*
X340100Y771100D01*
X142500Y650000D02*
X142500Y647500D01*
X381250Y711250D02*
X406250Y711250D01*
X381250Y711250D02*
X381000Y711200D01*
X406250Y711250D02*
X406400Y711200D01*
X406250Y597500D02*
X381250Y597500D01*
X381000Y596900D01*
X406250Y597500D02*
X406400Y596900D01*
X370000Y625000D02*
X248750Y625000D01*
X370000Y625000D02*
X380000Y635000D01*
X248750Y625000D02*
X247573Y624800D01*
X380000Y635000D02*
X381000Y635000D01*
X381250Y635000D02*
X406250Y635000D01*
X406400Y635000D01*
X381250Y635000D02*
X381000Y635000D01*
X381250Y482500D02*
X406250Y482500D01*
X381250Y482500D02*
X381000Y482600D01*
X406250Y482500D02*
X406400Y482600D01*
X252500Y533750D02*
X241250Y545000D01*
X252500Y533750D02*
X330000Y533750D01*
X346250Y517500D01*
X346250Y511250D01*
X371250Y511250D01*
X380000Y520000D01*
X241250Y545000D02*
X240400Y546100D01*
X380000Y520000D02*
X381000Y520700D01*
X381250Y521250D02*
X406250Y521250D01*
X406400Y520700D01*
X381250Y521250D02*
X381000Y520700D01*
X297500Y395000D02*
X248750Y395000D01*
X297500Y395000D02*
X305000Y387500D01*
X361250Y387500D01*
X380000Y406250D01*
X248750Y395000D02*
X247573Y396200D01*
X380000Y406250D02*
X381000Y406400D01*
X381250Y406250D02*
X406250Y406250D01*
X406400Y406400D01*
X381250Y406250D02*
X381000Y406400D01*
X367500Y212500D02*
X367500Y203750D01*
X406250Y203750D02*
X453750Y203750D01*
X406250Y203750D02*
X367500Y203750D01*
X453750Y203750D02*
X458750Y208750D01*
X458750Y212500D01*
X367500Y212500D02*
X366974Y212644D01*
X458750Y212500D02*
X459187Y212644D01*
X406250Y292500D02*
X381250Y292500D01*
X381000Y292100D01*
X406250Y292500D02*
X406400Y292100D01*
X406250Y368750D02*
X381250Y368750D01*
X381000Y368300D01*
X406250Y368750D02*
X406400Y368300D01*
X406250Y221250D02*
X406250Y203750D01*
X341250Y771250D02*
X350000Y780000D01*
X431250Y780000D01*
X440000Y771250D01*
X341250Y771250D02*
X340100Y771100D01*
X440000Y771250D02*
X440000Y771100D01*
D25*
X211250Y307500D03*
X192500Y201250D03*
X92500Y453750D03*
X142500Y650000D03*
X406250Y221250D03*
D24*
X83750Y191250D02*
X47500Y191250D01*
X83750Y191250D02*
X84400Y190500D01*
X47500Y191250D02*
X46252Y190500D01*
X182500Y241250D02*
X256250Y241250D01*
X162500Y195000D02*
X155000Y187500D01*
X153750Y187500D01*
X256250Y241250D02*
X257374Y241300D01*
X153750Y187500D02*
X153139Y187356D01*
X478750Y301250D02*
X492500Y301250D01*
X478750Y301250D02*
X466250Y288750D01*
X466250Y255000D01*
X270000Y255000D01*
X257500Y242500D01*
X257374Y241300D01*
D25*
X182500Y241250D03*
X162500Y195000D03*
X492500Y301250D03*
D24*
X215000Y698750D02*
X90000Y698750D01*
X215000Y698750D02*
X215048Y698500D01*
X90000Y698750D02*
X88900Y698500D01*
X221250Y422500D02*
X221250Y418750D01*
X221250Y422500D02*
X225000Y426250D01*
X225000Y433750D01*
X225000Y456250D02*
X225000Y458750D01*
X215000Y468750D01*
X221250Y418750D02*
X220700Y418073D01*
X215000Y468750D02*
X215048Y469900D01*
X221250Y647500D02*
X221250Y656250D01*
X221250Y647500D02*
X220700Y646673D01*
X216250Y687500D02*
X216250Y697500D01*
X216250Y687500D02*
X221250Y687500D01*
X216250Y697500D02*
X215048Y698500D01*
D25*
X225000Y433750D03*
X225000Y456250D03*
X221250Y656250D03*
X221250Y687500D03*
D24*
X241250Y660000D02*
X241250Y647500D01*
X241250Y660000D02*
X343750Y660000D01*
X346250Y657500D01*
X241250Y647500D02*
X240700Y646673D01*
D25*
X346250Y657500D03*
D24*
X236250Y652500D02*
X236250Y647500D01*
X236250Y652500D02*
X237500Y653750D01*
X237500Y661250D01*
X240000Y663750D01*
X387500Y663750D01*
X236250Y647500D02*
X235700Y646673D01*
D25*
X387500Y663750D03*
D24*
X265000Y640000D02*
X248750Y640000D01*
X247573Y639800D01*
D25*
X265000Y640000D03*
D24*
X267500Y633750D02*
X248750Y633750D01*
X267500Y633750D02*
X275000Y641250D01*
X271250Y733750D02*
X242500Y762500D01*
X173750Y762500D01*
X166250Y770000D01*
X247573Y634800D02*
X248750Y633750D01*
X166250Y770000D02*
X165300Y771100D01*
D25*
X275000Y641250D03*
X271250Y733750D03*
D24*
X273750Y630000D02*
X248750Y630000D01*
X273750Y630000D02*
X281250Y637500D01*
X281250Y653750D01*
X253750Y653750D01*
X180000Y221250D02*
X172500Y213750D01*
X247573Y629800D02*
X248750Y630000D01*
X172500Y213750D02*
X172139Y212644D01*
D25*
X253750Y653750D03*
X180000Y221250D03*
D24*
X248750Y613750D02*
X326250Y613750D01*
X346250Y593750D01*
X346250Y576250D01*
X387500Y576250D01*
X345000Y212500D02*
X356250Y201250D01*
X345000Y212500D02*
X273750Y212500D01*
X248750Y613750D02*
X247573Y614800D01*
X273126Y212644D02*
X273750Y212500D01*
D25*
X387500Y576250D03*
X356250Y201250D03*
D24*
X231250Y353750D02*
X231250Y368750D01*
X231250Y353750D02*
X232500Y353750D01*
X231250Y507500D02*
X213750Y525000D01*
X111250Y525000D01*
X90000Y546250D01*
X230700Y369327D02*
X231250Y368750D01*
X90000Y546250D02*
X88900Y546500D01*
D25*
X232500Y353750D03*
X231250Y507500D03*
D24*
X236250Y368750D02*
X236250Y358750D01*
X266250Y358750D01*
X268750Y356250D01*
X306250Y356250D01*
X320000Y370000D01*
X320000Y381250D01*
X326250Y381250D01*
X258750Y585000D02*
X256250Y587500D01*
X242500Y587500D01*
X236250Y593750D01*
X236250Y597500D01*
X235700Y369327D02*
X236250Y368750D01*
X236250Y597500D02*
X235700Y597927D01*
X137500Y575000D02*
X90000Y622500D01*
X137500Y575000D02*
X137500Y560000D01*
X226250Y560000D01*
X228750Y562500D01*
X281250Y562500D01*
X283750Y560000D01*
X90000Y622500D02*
X88900Y623500D01*
D25*
X326250Y381250D03*
X258750Y585000D03*
X283750Y560000D03*
D24*
X241250Y368750D02*
X241250Y362500D01*
X271250Y362500D01*
X276250Y581250D02*
X266250Y591250D01*
X250000Y591250D01*
X243750Y597500D01*
X241250Y597500D01*
X240700Y369327D02*
X241250Y368750D01*
X241250Y597500D02*
X240700Y597927D01*
X88750Y640000D02*
X88750Y647500D01*
X88750Y640000D02*
X75000Y626250D01*
X75000Y460000D01*
X126250Y460000D01*
X152500Y486250D01*
X275000Y486250D01*
X277500Y488750D01*
X88750Y647500D02*
X88900Y648500D01*
D25*
X271250Y362500D03*
X276250Y581250D03*
X277500Y488750D03*
D24*
X247500Y375000D02*
X247500Y368750D01*
X252500Y597500D02*
X252500Y603750D01*
X248750Y603750D01*
X247573Y376200D02*
X247500Y375000D01*
X248750Y603750D02*
X247573Y604800D01*
X208750Y672500D02*
X90000Y672500D01*
X208750Y672500D02*
X212500Y668750D01*
X235000Y668750D01*
X240000Y673750D01*
X285000Y673750D01*
X90000Y672500D02*
X88900Y673500D01*
D25*
X247500Y368750D03*
X252500Y597500D03*
X285000Y673750D03*
D24*
X221250Y597500D02*
X221250Y586250D01*
X222500Y585000D01*
X222500Y576250D01*
X205000Y576250D01*
X201250Y572500D01*
X201250Y563750D01*
X223750Y563750D01*
X226250Y566250D01*
X307500Y566250D01*
X310000Y563750D01*
X221250Y597500D02*
X220700Y597927D01*
D25*
X310000Y563750D03*
D24*
X198750Y610000D02*
X188750Y610000D01*
X260000Y695000D02*
X253750Y701250D01*
X260000Y695000D02*
X451250Y695000D01*
X198827Y609800D02*
X198750Y610000D01*
D25*
X188750Y610000D03*
X253750Y701250D03*
X451250Y695000D03*
D24*
X231250Y546250D02*
X218750Y546250D01*
X231250Y546250D02*
X231400Y546100D01*
X218750Y546250D02*
X218652Y546100D01*
X198750Y603750D02*
X176250Y603750D01*
X172500Y678750D02*
X175000Y681250D01*
X278750Y681250D01*
X281250Y683750D01*
X407500Y683750D01*
X456250Y635000D01*
X198827Y604800D02*
X198750Y603750D01*
X456250Y635000D02*
X457200Y635000D01*
D25*
X176250Y603750D03*
X172500Y678750D03*
D24*
X215000Y665000D02*
X215000Y647500D01*
X215000Y665000D02*
X236250Y665000D01*
X238750Y667500D01*
X321250Y667500D01*
X323750Y670000D01*
X215700Y646673D02*
X215000Y647500D01*
D25*
X323750Y670000D03*
D24*
X210000Y658750D02*
X210000Y647500D01*
X210000Y658750D02*
X208750Y658750D01*
X215000Y675000D02*
X217500Y677500D01*
X280000Y677500D01*
X282500Y680000D01*
X305000Y680000D01*
X311250Y673750D01*
X210700Y646673D02*
X210000Y647500D01*
D25*
X208750Y658750D03*
X215000Y675000D03*
X311250Y673750D03*
D24*
X205000Y653750D02*
X205000Y647500D01*
X205000Y653750D02*
X202500Y656250D01*
X202500Y666250D01*
X241250Y690000D02*
X243750Y687500D01*
X428750Y687500D01*
X205700Y646673D02*
X205000Y647500D01*
D25*
X202500Y666250D03*
X241250Y690000D03*
X428750Y687500D03*
D24*
X198750Y635000D02*
X195000Y635000D01*
X173750Y656250D01*
X110000Y656250D01*
X78750Y625000D01*
X78750Y505000D01*
X203750Y505000D01*
X216250Y492500D01*
X272500Y492500D01*
X275000Y495000D01*
X431250Y495000D01*
X456250Y520000D01*
X198827Y634800D02*
X198750Y635000D01*
X456250Y520000D02*
X457200Y520700D01*
X216250Y582500D02*
X216250Y597500D01*
X218750Y535000D02*
X223750Y530000D01*
X321250Y530000D01*
X330000Y521250D01*
X216250Y597500D02*
X215700Y597927D01*
X330000Y521250D02*
X330200Y520700D01*
D25*
X216250Y582500D03*
X218750Y535000D03*
D24*
X231250Y647500D02*
X231250Y656250D01*
X231250Y556250D02*
X228750Y553750D01*
X210000Y553750D01*
X202500Y546250D01*
X230700Y646673D02*
X231250Y647500D01*
X202500Y546250D02*
X202348Y546100D01*
D25*
X231250Y656250D03*
X231250Y556250D03*
D24*
X226250Y575000D02*
X226250Y597500D01*
X226250Y575000D02*
X298750Y575000D01*
X300000Y576250D01*
X226250Y597500D02*
X225700Y597927D01*
D25*
X300000Y576250D03*
D24*
X198750Y640000D02*
X198750Y647500D01*
X197500Y647500D01*
X207500Y570000D02*
X452500Y570000D01*
X478750Y596250D01*
X482500Y596250D01*
X198827Y639800D02*
X198750Y640000D01*
X482500Y596250D02*
X482600Y596900D01*
D25*
X197500Y647500D03*
X207500Y570000D03*
D24*
X203750Y596250D02*
X205000Y597500D01*
X203750Y596250D02*
X161250Y596250D01*
X162500Y705000D02*
X185000Y727500D01*
X303750Y727500D01*
X205700Y597927D02*
X205000Y597500D01*
D25*
X161250Y596250D03*
X162500Y705000D03*
X303750Y727500D03*
D24*
X210000Y597500D02*
X210000Y590000D01*
X176250Y590000D01*
X177500Y705000D02*
X193750Y721250D01*
X333750Y721250D01*
X346250Y708750D01*
X346250Y701250D01*
X473750Y701250D01*
X482500Y710000D01*
X210700Y597927D02*
X210000Y597500D01*
X482500Y710000D02*
X482600Y711200D01*
D25*
X176250Y590000D03*
X177500Y705000D03*
D24*
X356250Y521250D02*
X365000Y530000D01*
X486250Y530000D01*
X541250Y475000D01*
X551250Y475000D01*
X560000Y483750D01*
X560000Y701250D01*
X546250Y701250D01*
X356250Y521250D02*
X355600Y520700D01*
X546250Y701250D02*
X546100Y702400D01*
X456250Y621250D02*
X432500Y597500D01*
X456250Y621250D02*
X545000Y621250D01*
X432500Y597500D02*
X431800Y596900D01*
X545000Y621250D02*
X546100Y621457D01*
X383750Y625000D02*
X356250Y597500D01*
X383750Y625000D02*
X523750Y625000D01*
X545000Y646250D01*
X356250Y597500D02*
X355600Y596900D01*
X545000Y646250D02*
X546100Y646457D01*
X393750Y541250D02*
X371250Y563750D01*
X393750Y541250D02*
X545000Y541250D01*
X546100Y540514D01*
D25*
X371250Y563750D03*
D24*
X466250Y575000D02*
X475000Y566250D01*
X545000Y566250D01*
X546100Y565514D01*
D25*
X466250Y575000D03*
D24*
X356250Y711250D02*
X366250Y721250D01*
X486250Y721250D01*
X556250Y651250D01*
X556250Y485000D01*
X546250Y485000D01*
X356250Y711250D02*
X355600Y711200D01*
X546250Y485000D02*
X546100Y484571D01*
X170000Y228750D02*
X157500Y241250D01*
X170000Y228750D02*
X181250Y228750D01*
X202500Y207500D01*
X232500Y207500D01*
X245000Y195000D02*
X252500Y187500D01*
X253750Y187500D01*
X157500Y241250D02*
X156387Y241300D01*
X253750Y187500D02*
X254126Y187356D01*
X426250Y196250D02*
X428750Y193750D01*
X426250Y196250D02*
X372500Y196250D01*
X363750Y187500D01*
X363750Y178750D01*
X295000Y178750D01*
X277500Y196250D01*
X263750Y196250D01*
X255000Y187500D01*
X254126Y187356D01*
D25*
X232500Y207500D03*
X245000Y195000D03*
X428750Y193750D03*
D24*
X231250Y317500D02*
X218750Y317500D01*
X231250Y317500D02*
X231400Y317500D01*
X218750Y317500D02*
X218652Y317500D01*
X231250Y418750D02*
X231250Y427500D01*
X232500Y427500D01*
X226250Y327500D02*
X223750Y325000D01*
X210000Y325000D01*
X202500Y317500D01*
X230700Y418073D02*
X231250Y418750D01*
X202500Y317500D02*
X202348Y317500D01*
D25*
X232500Y427500D03*
X226250Y327500D03*
D24*
X355000Y323750D02*
X355000Y292500D01*
X355000Y323750D02*
X352500Y326250D01*
X352500Y355000D01*
X522500Y355000D01*
X545000Y377500D01*
X355600Y292100D02*
X355000Y292500D01*
X545000Y377500D02*
X546100Y378629D01*
X447500Y307500D02*
X432500Y292500D01*
X447500Y307500D02*
X528750Y307500D01*
X432500Y292500D02*
X431800Y292100D01*
D25*
X528750Y307500D03*
D24*
X442500Y313750D02*
X438750Y317500D01*
X442500Y313750D02*
X531250Y313750D01*
X546250Y298750D01*
X546100Y297686D01*
D25*
X438750Y317500D03*
D24*
X363750Y323750D02*
X358750Y328750D01*
X363750Y323750D02*
X545000Y323750D01*
X546100Y322686D01*
D25*
X358750Y328750D03*
D24*
X356250Y407500D02*
X365000Y416250D01*
X487500Y416250D01*
X501250Y402500D01*
X356250Y407500D02*
X355600Y406400D01*
D25*
X501250Y402500D03*
D24*
X448750Y390000D02*
X432500Y406250D01*
X448750Y390000D02*
X535000Y390000D01*
X432500Y406250D02*
X431800Y406400D01*
D25*
X535000Y390000D03*
D24*
X432500Y483750D02*
X445000Y496250D01*
X493750Y496250D01*
X536250Y453750D01*
X536250Y423750D01*
X545000Y423750D01*
X563750Y405000D01*
X563750Y136250D01*
X546250Y136250D01*
X431800Y482600D02*
X432500Y483750D01*
X546250Y136250D02*
X546100Y135800D01*
X543750Y420000D02*
X360000Y420000D01*
X543750Y420000D02*
X560000Y403750D01*
X560000Y161250D01*
X546250Y161250D01*
X546100Y160800D01*
D25*
X360000Y420000D03*
D24*
X272500Y241250D02*
X252500Y221250D01*
X252500Y213750D01*
X253750Y213750D01*
X272500Y241250D02*
X273678Y241300D01*
X253750Y213750D02*
X254126Y212644D01*
X370000Y248750D02*
X376250Y242500D01*
X370000Y248750D02*
X355000Y248750D01*
X353750Y247500D01*
X353750Y241250D02*
X353750Y213750D01*
X353750Y241250D02*
X353750Y247500D01*
X353750Y213750D02*
X356250Y213750D01*
X377026Y241300D02*
X376250Y242500D01*
X356250Y213750D02*
X357474Y212644D01*
X460000Y251250D02*
X468750Y242500D01*
X460000Y251250D02*
X386250Y251250D01*
X385000Y250000D02*
X377500Y242500D01*
X385000Y250000D02*
X386250Y251250D01*
X468750Y242500D02*
X469239Y241300D01*
X377500Y242500D02*
X377026Y241300D01*
X442500Y220000D02*
X448750Y213750D01*
X442500Y220000D02*
X416250Y220000D01*
X386250Y250000D01*
X385000Y250000D01*
X448750Y213750D02*
X449687Y212644D01*
X353750Y241250D02*
X273750Y241250D01*
X273678Y241300D01*
X172500Y242500D02*
X166250Y248750D01*
X151250Y248750D01*
X150000Y247500D01*
X150000Y213750D01*
X152500Y213750D01*
X172691Y241300D02*
X172500Y242500D01*
X152500Y213750D02*
X153139Y212644D01*
X102500Y297500D02*
X102500Y342500D01*
X102500Y297500D02*
X87500Y297500D01*
X102500Y342500D02*
X103654Y342900D01*
X87500Y297500D02*
X86500Y297450D01*
X102500Y297500D02*
X151250Y248750D01*
X98750Y343750D02*
X98750Y357500D01*
X98750Y343750D02*
X102500Y343750D01*
X103654Y342900D01*
X245000Y228750D02*
X252500Y221250D01*
X245000Y228750D02*
X186250Y228750D01*
X173750Y241250D01*
X172691Y241300D01*
D25*
X98750Y357500D03*
D24*
X248750Y400000D02*
X297500Y400000D01*
X303750Y393750D01*
X343750Y393750D01*
X371250Y225000D02*
X371250Y221250D01*
X376250Y216250D01*
X376250Y213750D01*
X248750Y400000D02*
X247573Y401200D01*
X376250Y213750D02*
X376474Y212644D01*
D25*
X343750Y393750D03*
X371250Y225000D03*
D24*
X260000Y385000D02*
X248750Y385000D01*
X265000Y270000D02*
X273750Y261250D01*
X383750Y261250D01*
X400000Y245000D02*
X421250Y223750D01*
X461250Y223750D01*
X467500Y217500D01*
X467500Y213750D01*
X248750Y385000D02*
X247573Y386200D01*
X467500Y213750D02*
X468687Y212644D01*
D25*
X260000Y385000D03*
X265000Y270000D03*
X383750Y261250D03*
X400000Y245000D03*
D24*
X248750Y406250D02*
X250000Y407500D01*
X287500Y407500D01*
X292500Y412500D01*
X248750Y406250D02*
X247573Y406200D01*
D25*
X292500Y412500D03*
D24*
X251250Y413750D02*
X248750Y411250D01*
X251250Y413750D02*
X282500Y413750D01*
X248750Y411250D02*
X247573Y411200D01*
D25*
X282500Y413750D03*
D24*
X242500Y420000D02*
X241250Y418750D01*
X242500Y420000D02*
X311250Y420000D01*
X241250Y418750D02*
X240700Y418073D01*
D25*
X311250Y420000D03*
D24*
X236250Y418750D02*
X236250Y422500D01*
X240000Y426250D01*
X400000Y426250D01*
X236250Y418750D02*
X235700Y418073D01*
D25*
X400000Y426250D03*
D24*
X221250Y368750D02*
X221250Y341250D01*
X301250Y341250D01*
X320000Y360000D01*
X221250Y368750D02*
X220700Y369327D01*
D25*
X320000Y360000D03*
D24*
X226250Y368750D02*
X226250Y347500D01*
X298750Y347500D01*
X226250Y368750D02*
X225700Y369327D01*
D25*
X298750Y347500D03*
D24*
X198750Y380000D02*
X186250Y380000D01*
X185000Y378750D01*
X175000Y378750D01*
X176250Y443750D02*
X182500Y450000D01*
X300000Y450000D01*
X318750Y468750D01*
X482500Y468750D01*
X492500Y478750D01*
X492500Y492500D01*
X466250Y492500D01*
X457500Y483750D01*
X198827Y381200D02*
X198750Y380000D01*
X457200Y482600D02*
X457500Y483750D01*
D25*
X175000Y378750D03*
X176250Y443750D03*
D24*
X196250Y375000D02*
X198750Y375000D01*
X196250Y375000D02*
X192500Y371250D01*
X192500Y301250D01*
X276250Y301250D01*
X282500Y313750D02*
X302500Y333750D01*
X308750Y333750D01*
X346250Y371250D01*
X346250Y383750D01*
X451250Y383750D01*
X198827Y376200D02*
X198750Y375000D01*
D25*
X276250Y301250D03*
X282500Y313750D03*
X451250Y383750D03*
D24*
X216250Y418750D02*
X216250Y427500D01*
X217500Y427500D01*
X218750Y498750D02*
X221250Y501250D01*
X325000Y501250D01*
X216250Y418750D02*
X215700Y418073D01*
D25*
X217500Y427500D03*
X218750Y498750D03*
X325000Y501250D03*
D24*
X210000Y427500D02*
X210000Y418750D01*
X210000Y427500D02*
X207500Y427500D01*
X215000Y340000D02*
X217500Y337500D01*
X306250Y337500D01*
X330000Y361250D01*
X330000Y367500D01*
X210700Y418073D02*
X210000Y418750D01*
X330200Y368300D02*
X330000Y367500D01*
D25*
X207500Y427500D03*
X215000Y340000D03*
D24*
X205000Y418750D02*
X200000Y423750D01*
X170000Y423750D01*
X168750Y320000D02*
X212500Y276250D01*
X455000Y276250D01*
X205700Y418073D02*
X205000Y418750D01*
D25*
X170000Y423750D03*
X168750Y320000D03*
X455000Y276250D03*
D24*
X198750Y411250D02*
X192500Y417500D01*
X257500Y282500D02*
X333750Y282500D01*
X346250Y295000D01*
X346250Y358750D01*
X473750Y358750D01*
X482500Y367500D01*
X198827Y411200D02*
X198750Y411250D01*
X482600Y368300D02*
X482500Y367500D01*
D25*
X192500Y417500D03*
X257500Y282500D03*
D24*
X198750Y406250D02*
X197500Y407500D01*
X177500Y407500D01*
X163750Y421250D01*
X163750Y437500D01*
X220000Y437500D01*
X222500Y440000D01*
X411250Y440000D01*
X198827Y406200D02*
X198750Y406250D01*
D25*
X411250Y440000D03*
D24*
X215000Y368750D02*
X215000Y346250D01*
X212500Y346250D01*
X208750Y342500D01*
X208750Y333750D01*
X253750Y333750D01*
X286250Y301250D01*
X321250Y301250D01*
X330000Y292500D01*
X215700Y369327D02*
X215000Y368750D01*
X330000Y292500D02*
X330200Y292100D01*
X210000Y351250D02*
X210000Y368750D01*
X210000Y351250D02*
X208750Y351250D01*
X265000Y472500D02*
X472500Y472500D01*
X482500Y482500D01*
X210700Y369327D02*
X210000Y368750D01*
X482500Y482500D02*
X482600Y482600D01*
D25*
X208750Y351250D03*
X265000Y472500D03*
D24*
X205000Y368750D02*
X198750Y368750D01*
X201250Y443750D02*
X203750Y446250D01*
X305000Y446250D01*
X205700Y369327D02*
X205000Y368750D01*
D25*
X198750Y368750D03*
X201250Y443750D03*
X305000Y446250D03*
D24*
X231250Y581250D02*
X231250Y597500D01*
X231250Y581250D02*
X237500Y581250D01*
X231250Y597500D02*
X230700Y597927D01*
D25*
X237500Y581250D03*
D24*
X453750Y241250D02*
X461250Y233750D01*
X475000Y233750D01*
X482500Y241250D01*
X482500Y291250D01*
X453750Y241250D02*
X452935Y241300D01*
X482500Y291250D02*
X482600Y292100D01*
X370000Y200000D02*
X357500Y187500D01*
X370000Y200000D02*
X468750Y200000D01*
X475000Y206250D01*
X475000Y233750D01*
X357500Y187500D02*
X357474Y187356D01*
X371250Y231250D02*
X361250Y241250D01*
X371250Y231250D02*
X383750Y231250D01*
X400000Y190000D02*
X402500Y187500D01*
X448750Y187500D01*
X361250Y241250D02*
X360722Y241300D01*
X448750Y187500D02*
X449687Y187356D01*
X493750Y396250D02*
X483750Y406250D01*
X493750Y396250D02*
X540000Y396250D01*
X547500Y388750D01*
X553750Y388750D01*
X556250Y386250D01*
X556250Y196250D01*
X458750Y196250D01*
X450000Y187500D01*
X482600Y406400D02*
X483750Y406250D01*
X450000Y187500D02*
X449687Y187356D01*
D25*
X383750Y231250D03*
X400000Y190000D03*
D24*
X346250Y618750D02*
X248750Y618750D01*
X317500Y520000D02*
X308750Y511250D01*
X236250Y511250D01*
X218750Y528750D01*
X166250Y528750D01*
X150000Y545000D01*
X247573Y619800D02*
X248750Y618750D01*
X150000Y545246D02*
X150000Y545000D01*
D25*
X346250Y618750D03*
X317500Y520000D03*
D24*
X267500Y391250D02*
X248750Y391250D01*
X267500Y391250D02*
X270000Y388750D01*
X257500Y456250D02*
X251250Y462500D01*
X226250Y462500D01*
X222500Y466250D01*
X222500Y477500D01*
X161250Y477500D01*
X150000Y466250D01*
X247573Y391200D02*
X248750Y391250D01*
X150000Y465246D02*
X150000Y466250D01*
D25*
X270000Y388750D03*
X257500Y456250D03*
M02*
