G04 EAGLE Gerber RS-274X export*
G75*
%MOMM*%
%FSLAX34Y34*%
%LPD*%
%INSoldermask Bottom*%
%IPPOS*%
%AMOC8*
5,1,8,0,0,1.08239X$1,22.5*%
G01*
G04 Define Apertures*
%ADD10C,5.203200*%
%ADD11C,1.546600*%
%ADD12R,1.611200X1.611200*%
%ADD13C,1.611200*%
%ADD14C,1.351200*%
%ADD15C,0.959600*%
D10*
X60000Y790000D03*
X580000Y800000D03*
X60000Y70000D03*
X580000Y60000D03*
D11*
X304800Y292100D03*
X330200Y292100D03*
X355600Y292100D03*
X381000Y292100D03*
X406400Y292100D03*
X431800Y292100D03*
X457200Y292100D03*
X482600Y292100D03*
X482600Y368300D03*
X457200Y368300D03*
X431800Y368300D03*
X406400Y368300D03*
X381000Y368300D03*
X355600Y368300D03*
X330200Y368300D03*
X304800Y368300D03*
X304800Y635000D03*
X330200Y635000D03*
X355600Y635000D03*
X381000Y635000D03*
X406400Y635000D03*
X431800Y635000D03*
X457200Y635000D03*
X482600Y635000D03*
X482600Y711200D03*
X457200Y711200D03*
X431800Y711200D03*
X406400Y711200D03*
X381000Y711200D03*
X355600Y711200D03*
X330200Y711200D03*
X304800Y711200D03*
X304800Y520700D03*
X330200Y520700D03*
X355600Y520700D03*
X381000Y520700D03*
X406400Y520700D03*
X431800Y520700D03*
X457200Y520700D03*
X482600Y520700D03*
X482600Y596900D03*
X457200Y596900D03*
X431800Y596900D03*
X406400Y596900D03*
X381000Y596900D03*
X355600Y596900D03*
X330200Y596900D03*
X304800Y596900D03*
X304800Y406400D03*
X330200Y406400D03*
X355600Y406400D03*
X381000Y406400D03*
X406400Y406400D03*
X431800Y406400D03*
X457200Y406400D03*
X482600Y406400D03*
X482600Y482600D03*
X457200Y482600D03*
X431800Y482600D03*
X406400Y482600D03*
X381000Y482600D03*
X355600Y482600D03*
X330200Y482600D03*
X304800Y482600D03*
D12*
X546100Y702400D03*
D13*
X546100Y727400D03*
D12*
X546100Y621457D03*
D13*
X546100Y646457D03*
D12*
X546100Y540514D03*
D13*
X546100Y565514D03*
D12*
X546100Y459571D03*
D13*
X546100Y484571D03*
D12*
X546100Y378629D03*
D13*
X546100Y403629D03*
D12*
X546100Y297686D03*
D13*
X546100Y322686D03*
D12*
X546100Y216743D03*
D13*
X546100Y241743D03*
D12*
X546100Y135800D03*
D13*
X546100Y160800D03*
D14*
X190300Y771100D03*
X165300Y771100D03*
X140300Y771100D03*
X290200Y771100D03*
X265200Y771100D03*
X240200Y771100D03*
X390100Y771100D03*
X365100Y771100D03*
X340100Y771100D03*
X490000Y771100D03*
X465000Y771100D03*
X440000Y771100D03*
X139700Y88200D03*
X164700Y88200D03*
X189700Y88200D03*
X239800Y88200D03*
X264800Y88200D03*
X289800Y88200D03*
X339900Y88200D03*
X364900Y88200D03*
X389900Y88200D03*
X440000Y88200D03*
X465000Y88200D03*
X490000Y88200D03*
D12*
X88900Y495300D03*
D13*
X88900Y470300D03*
D14*
X88900Y698500D03*
X88900Y673500D03*
X88900Y648500D03*
X88900Y623500D03*
D12*
X88900Y571500D03*
D13*
X88900Y546500D03*
D15*
X178750Y613750D03*
X185000Y626250D03*
X182500Y385000D03*
X182500Y397500D03*
X187500Y706250D03*
X211250Y307500D03*
X192500Y201250D03*
X92500Y453750D03*
X142500Y650000D03*
X406250Y221250D03*
X182500Y241250D03*
X162500Y195000D03*
X492500Y301250D03*
X225000Y433750D03*
X225000Y456250D03*
X221250Y656250D03*
X221250Y687500D03*
X346250Y657500D03*
X387500Y663750D03*
X265000Y640000D03*
X275000Y641250D03*
X271250Y733750D03*
X253750Y653750D03*
X180000Y221250D03*
X387500Y576250D03*
X356250Y201250D03*
X232500Y353750D03*
X231250Y507500D03*
X326250Y381250D03*
X258750Y585000D03*
X283750Y560000D03*
X271250Y362500D03*
X276250Y581250D03*
X277500Y488750D03*
X247500Y368750D03*
X252500Y597500D03*
X285000Y673750D03*
X310000Y563750D03*
X188750Y610000D03*
X253750Y701250D03*
X451250Y695000D03*
X176250Y603750D03*
X172500Y678750D03*
X323750Y670000D03*
X208750Y658750D03*
X215000Y675000D03*
X311250Y673750D03*
X202500Y666250D03*
X241250Y690000D03*
X428750Y687500D03*
X216250Y582500D03*
X218750Y535000D03*
X231250Y656250D03*
X231250Y556250D03*
X300000Y576250D03*
X197500Y647500D03*
X207500Y570000D03*
X161250Y596250D03*
X162500Y705000D03*
X303750Y727500D03*
X176250Y590000D03*
X177500Y705000D03*
X371250Y563750D03*
X466250Y575000D03*
X232500Y207500D03*
X245000Y195000D03*
X428750Y193750D03*
X232500Y427500D03*
X226250Y327500D03*
X528750Y307500D03*
X438750Y317500D03*
X358750Y328750D03*
X501250Y402500D03*
X535000Y390000D03*
X360000Y420000D03*
X98750Y357500D03*
X343750Y393750D03*
X371250Y225000D03*
X260000Y385000D03*
X265000Y270000D03*
X383750Y261250D03*
X400000Y245000D03*
X292500Y412500D03*
X282500Y413750D03*
X311250Y420000D03*
X400000Y426250D03*
X320000Y360000D03*
X298750Y347500D03*
X175000Y378750D03*
X176250Y443750D03*
X276250Y301250D03*
X282500Y313750D03*
X451250Y383750D03*
X217500Y427500D03*
X218750Y498750D03*
X325000Y501250D03*
X207500Y427500D03*
X215000Y340000D03*
X170000Y423750D03*
X168750Y320000D03*
X455000Y276250D03*
X192500Y417500D03*
X257500Y282500D03*
X411250Y440000D03*
X208750Y351250D03*
X265000Y472500D03*
X198750Y368750D03*
X201250Y443750D03*
X305000Y446250D03*
X237500Y581250D03*
X383750Y231250D03*
X400000Y190000D03*
X346250Y618750D03*
X317500Y520000D03*
X270000Y388750D03*
X257500Y456250D03*
M02*
