M48
;GenerationSoftware,Autodesk,EAGLE,9.7.0*%
;CreationDate,2024-05-21T01:27:45Z*%
FMAT,2
ICI,OFF
METRIC,TZ,000.000
T5C0.350
T4C0.640
T3C0.743
T2C0.900
T1C2.000
%
G90
M71
T1
X58000Y75500
X3500Y74000
X3500Y5000
X58000Y3500
T2
X53780Y34310
X53780Y45240
X53780Y42740
X53780Y53670
X53780Y51170
X53780Y62100
X53780Y59600
X53780Y70530
X53780Y68030
X9361Y46859
X9361Y36350
X9361Y38850
X53780Y11520
X53780Y9020
X53780Y19950
X53780Y17450
X53780Y28380
X9361Y44359
X53780Y25880
X53780Y36810
T3
X38270Y41823
X40810Y41823
X43350Y41823
X45890Y41823
X45890Y38217
X43350Y38217
X40810Y38217
X38270Y38217
X35730Y38217
X33190Y38217
X30650Y38217
X28110Y38217
X28110Y30597
X30650Y30597
X33190Y30597
X35730Y30597
X38270Y30597
X40810Y30597
X43350Y30597
X45890Y30597
X45890Y26990
X43350Y26990
X40810Y26990
X38270Y26990
X35730Y26990
X33190Y26990
X30650Y26990
X28110Y26990
X28110Y19370
X30650Y19370
X33190Y19370
X35730Y19370
X38270Y19370
X40810Y19370
X43350Y19370
X45890Y19370
X45890Y60670
X43350Y60670
X40810Y60670
X38270Y60670
X35730Y60670
X33190Y60670
X30650Y60670
X28110Y60670
X28110Y53050
X30650Y53050
X33190Y53050
X35730Y53050
X38270Y53050
X40810Y53050
X43350Y53050
X45890Y53050
X45890Y49443
X43350Y49443
X40810Y49443
X38270Y49443
X35730Y49443
X33190Y49443
X30650Y49443
X28110Y49443
X28110Y41823
X30650Y41823
X33190Y41823
X35730Y41823
T4
X14100Y69750
X8890Y9250
X11390Y9250
X13890Y9250
X19320Y9250
X21820Y9250
X24320Y9250
X29750Y9250
X32250Y9250
X34750Y9250
X40180Y9250
X45180Y9250
X45390Y69750
X42890Y69750
X40390Y69750
X34960Y69750
X32460Y69750
X29960Y69750
X24530Y69750
X22030Y69750
X19530Y69750
X11600Y69750
X9100Y69750
X9361Y59860
X9361Y57360
X9361Y54860
X9361Y52360
X42680Y9250
T5
X18000Y58000
X43000Y63500
X40000Y45000
X17500Y49500
X21500Y39500
X20000Y53000
X21000Y57000
X42000Y57000
X34500Y26500
X36500Y22000
X29000Y64000
X27000Y16500
X16000Y16500
X16500Y31000
X24000Y56000
X17500Y33500
X15000Y32500
X14000Y18500
X13500Y26000
X13000Y21500
X18000Y25000
X34500Y64000
X31500Y35000
X24500Y34000
X20000Y36000
X4000Y33500
X11500Y44500
X13500Y28000
X10500Y50000
X17000Y51500
X16000Y34500
X13000Y31500
X28000Y54500
X33500Y9000
X25000Y25500
X25000Y55000
X11000Y56500
X22000Y20000
X20000Y30500
X20500Y39500
X12500Y43500
X21500Y25000
X22000Y45500
X14500Y55000
X23000Y23500
X42000Y56000
X23000Y46500
X25000Y48500
X34500Y30500
X47500Y29000
X10500Y28000
X20000Y45500
X19000Y59000
X45500Y58500
X29500Y60000
X15500Y55000
M30