M48
;GenerationSoftware,Autodesk,EAGLE,9.7.0*%
;CreationDate,2024-05-26T10:21:32Z*%
FMAT,2
ICI,OFF
METRIC,TZ,000.000
T5C0.350
T4C0.640
T3C0.743
T2C0.900
T1C5.000
%
G90
M71
T1
X6000Y79000
X58000Y6000
X6000Y7000
X58000Y80000
T2
X54610Y16080
X54610Y13580
X54610Y24174
X54610Y21674
X54610Y32269
X54610Y29769
X54610Y40363
X54610Y37863
X54610Y48457
X54610Y45957
X54610Y56551
X54610Y54051
X54610Y64646
X54610Y62146
X54610Y72740
X54610Y70240
X8890Y54650
X8890Y57150
X8890Y47030
X8890Y49530
T3
X38100Y52070
X40640Y52070
X43180Y52070
X45720Y52070
X48260Y52070
X48260Y59690
X45720Y59690
X43180Y59690
X40640Y59690
X38100Y59690
X35560Y59690
X33020Y59690
X30480Y59690
X30480Y40640
X33020Y40640
X35560Y40640
X38100Y40640
X40640Y40640
X45720Y40640
X48260Y40640
X48260Y48260
X45720Y48260
X43180Y48260
X40640Y48260
X38100Y48260
X35560Y48260
X33020Y48260
X30480Y48260
X43180Y40640
X45720Y71120
X30480Y29210
X33020Y29210
X35560Y29210
X38100Y29210
X40640Y29210
X43180Y29210
X45720Y29210
X48260Y29210
X48260Y36830
X45720Y36830
X43180Y36830
X40640Y36830
X38100Y36830
X35560Y36830
X33020Y36830
X30480Y36830
X30480Y63500
X33020Y63500
X35560Y63500
X38100Y63500
X40640Y63500
X43180Y63500
X45720Y63500
X48260Y63500
X48260Y71120
X43180Y71120
X40640Y71120
X38100Y71120
X35560Y71120
X33020Y71120
X30480Y71120
X30480Y52070
X33020Y52070
X35560Y52070
T4
X14030Y77110
X16470Y8820
X19030Y77110
X16530Y77110
X29020Y77110
X26520Y77110
X24020Y77110
X39010Y77110
X36510Y77110
X34010Y77110
X49000Y77110
X46500Y77110
X44000Y77110
X13970Y8820
X18970Y8820
X23980Y8820
X26480Y8820
X28980Y8820
X33990Y8820
X36490Y8820
X38990Y8820
X44000Y8820
X46500Y8820
X49000Y8820
X8890Y69850
X8890Y67350
X8890Y64850
X8890Y62350
T5
X32625Y38125
X28375Y56000
X27125Y36250
X27625Y58125
X27750Y48875
X24750Y36875
X25250Y59750
X28500Y67375
X31000Y56375
X18875Y61000
X25375Y70125
X45125Y69500
X17625Y60375
X17250Y67875
X32375Y67000
X20875Y65875
X21500Y67500
X31125Y67375
X20250Y66625
X24125Y69000
X42875Y68750
X21625Y58250
X21875Y53500
X23125Y65625
X23125Y55625
X30000Y57625
X19750Y64750
X20750Y57000
X16125Y59625
X16250Y70500
X30375Y72750
X17625Y59000
X17750Y70500
X37125Y56375
X46625Y57500
X23250Y20750
X24500Y19500
X42875Y19375
X23250Y42750
X22625Y32750
X52875Y30750
X43875Y31750
X35875Y32875
X50125Y40250
X38750Y66375
X36000Y42000
X9875Y35750
X34375Y39375
X37125Y22500
X26000Y38500
X26500Y27000
X38375Y26125
X40000Y24500
X29250Y41250
X28250Y41375
X31125Y42000
X40000Y42625
X32000Y36000
X17500Y37875
X17625Y44375
X27625Y30125
X28250Y31375
X45125Y38375
X29875Y34750
X27000Y38875
X31750Y52000
X25750Y45625
X34625Y61875
X40000Y19000
X38375Y23125
X23750Y58125
X30500Y44625
X20125Y44375
X19875Y36875
X26500Y47250
X20875Y35125
X41125Y44000
X25750Y28250
X19250Y41750
X17875Y61375
X16875Y32000
X17000Y42375
X21500Y34000
X20750Y42750
X18500Y62625
X18250Y38500
X25875Y58500
X18250Y39750
X18750Y70625
X21125Y30750
X19250Y20125
X9250Y45375
X14250Y65000
X40625Y22125
X18250Y24125
X16250Y19500
X49250Y30125
X53500Y39000
X22500Y43375
X22500Y45625
X22125Y65625
X22125Y68750
X34625Y65750
X26500Y64000
X27500Y64125
X27125Y73375
X25375Y65375
X18000Y22125
X32500Y50125
X21875Y49875
X38750Y57625
X35625Y20125
X23250Y35375
X23125Y50750
X21750Y42750
X45500Y27625
M30