G04 EAGLE Gerber RS-274X export*
G75*
%MOMM*%
%FSLAX34Y34*%
%LPD*%
%INSoldermask Bottom*%
%IPPOS*%
%AMOC8*
5,1,8,0,0,1.08239X$1,22.5*%
G01*
G04 Define Apertures*
%ADD10C,3.203200*%
%ADD11C,1.727200*%
%ADD12C,1.546600*%
%ADD13C,0.959600*%
D10*
X50000Y50000D03*
X50000Y450000D03*
X950000Y50000D03*
X950000Y450000D03*
D11*
X55720Y242400D02*
X40480Y242400D01*
X40480Y267800D02*
X55720Y267800D01*
X55720Y293200D02*
X40480Y293200D01*
X40480Y318600D02*
X55720Y318600D01*
X217300Y444280D02*
X217300Y459520D01*
X242700Y459520D02*
X242700Y444280D01*
X297300Y444280D02*
X297300Y459520D01*
X322700Y459520D02*
X322700Y444280D01*
X168580Y55720D02*
X168580Y40480D01*
X143180Y40480D02*
X143180Y55720D01*
X117780Y55720D02*
X117780Y40480D01*
X55720Y371000D02*
X40480Y371000D01*
X40480Y396400D02*
X55720Y396400D01*
D12*
X102350Y327470D03*
X127750Y327470D03*
X153150Y327470D03*
X178550Y327470D03*
X203950Y327470D03*
X229350Y327470D03*
X254750Y327470D03*
X280150Y327470D03*
X280150Y403670D03*
X254750Y403670D03*
X229350Y403670D03*
X203950Y403670D03*
X178550Y403670D03*
X153150Y403670D03*
X127750Y403670D03*
X102350Y403670D03*
D11*
X269554Y55720D02*
X269554Y40480D01*
X244154Y40480D02*
X244154Y55720D01*
X218754Y55720D02*
X218754Y40480D01*
X55720Y111900D02*
X40480Y111900D01*
X40480Y137300D02*
X55720Y137300D01*
X55720Y162700D02*
X40480Y162700D01*
X40480Y188100D02*
X55720Y188100D01*
X370529Y55720D02*
X370529Y40480D01*
X345129Y40480D02*
X345129Y55720D01*
X319729Y55720D02*
X319729Y40480D01*
X377300Y444280D02*
X377300Y459520D01*
X402700Y459520D02*
X402700Y444280D01*
X457300Y444280D02*
X457300Y459520D01*
X482700Y459520D02*
X482700Y444280D01*
D12*
X332631Y327470D03*
X358031Y327470D03*
X383431Y327470D03*
X408831Y327470D03*
X434231Y327470D03*
X459631Y327470D03*
X485031Y327470D03*
X510431Y327470D03*
X510431Y403670D03*
X485031Y403670D03*
X459631Y403670D03*
X434231Y403670D03*
X408831Y403670D03*
X383431Y403670D03*
X358031Y403670D03*
X332631Y403670D03*
D11*
X471503Y55720D02*
X471503Y40480D01*
X446103Y40480D02*
X446103Y55720D01*
X420703Y55720D02*
X420703Y40480D01*
X572477Y40480D02*
X572477Y55720D01*
X547077Y55720D02*
X547077Y40480D01*
X521677Y40480D02*
X521677Y55720D01*
X537300Y444280D02*
X537300Y459520D01*
X562700Y459520D02*
X562700Y444280D01*
X617300Y444280D02*
X617300Y459520D01*
X642700Y459520D02*
X642700Y444280D01*
D12*
X562912Y327470D03*
X588312Y327470D03*
X613712Y327470D03*
X639112Y327470D03*
X664512Y327470D03*
X689912Y327470D03*
X715312Y327470D03*
X740712Y327470D03*
X740712Y403670D03*
X715312Y403670D03*
X689912Y403670D03*
X664512Y403670D03*
X639112Y403670D03*
X613712Y403670D03*
X588312Y403670D03*
X562912Y403670D03*
D11*
X673451Y55720D02*
X673451Y40480D01*
X648051Y40480D02*
X648051Y55720D01*
X622651Y55720D02*
X622651Y40480D01*
X774426Y40480D02*
X774426Y55720D01*
X749026Y55720D02*
X749026Y40480D01*
X723626Y40480D02*
X723626Y55720D01*
X697300Y444280D02*
X697300Y459520D01*
X722700Y459520D02*
X722700Y444280D01*
X777300Y444280D02*
X777300Y459520D01*
X802700Y459520D02*
X802700Y444280D01*
D12*
X793193Y327470D03*
X818593Y327470D03*
X843993Y327470D03*
X869393Y327470D03*
X894793Y327470D03*
X920193Y327470D03*
X945593Y327470D03*
X970993Y327470D03*
X970993Y403670D03*
X945593Y403670D03*
X920193Y403670D03*
X894793Y403670D03*
X869393Y403670D03*
X843993Y403670D03*
X818593Y403670D03*
X793193Y403670D03*
D11*
X875400Y55720D02*
X875400Y40480D01*
X850000Y40480D02*
X850000Y55720D01*
X824600Y55720D02*
X824600Y40480D01*
D13*
X153924Y144780D03*
X484632Y86868D03*
X742188Y152400D03*
X106680Y222504D03*
X225552Y271272D03*
X877824Y131064D03*
X923544Y237744D03*
X615696Y176784D03*
X676656Y237744D03*
X460248Y205740D03*
X80772Y327660D03*
X274320Y149352D03*
X466344Y140208D03*
X708660Y143256D03*
X961644Y143256D03*
X297180Y51816D03*
X716280Y192024D03*
X926592Y193548D03*
X269748Y166116D03*
X481584Y182880D03*
X152400Y470916D03*
X208788Y294132D03*
X726948Y108204D03*
X649224Y108204D03*
X251460Y141732D03*
X483108Y150876D03*
X697992Y150876D03*
X905256Y182880D03*
X298704Y36576D03*
X707136Y36576D03*
X257556Y182880D03*
X170688Y187452D03*
X182880Y166116D03*
X248412Y77724D03*
X487680Y195072D03*
X518160Y164592D03*
X495300Y111252D03*
X384048Y155448D03*
X722376Y140208D03*
X582168Y103632D03*
X611124Y132588D03*
X694944Y202692D03*
X675132Y222504D03*
X662940Y237744D03*
X937260Y150876D03*
X22860Y100584D03*
X946404Y141732D03*
X844296Y150876D03*
X132588Y115824D03*
X670560Y278892D03*
X220980Y150876D03*
X220980Y211836D03*
X429768Y150876D03*
X408432Y262128D03*
X419100Y163068D03*
X461772Y220980D03*
M02*
