G04 EAGLE Gerber RS-274X export*
G75*
%MOMM*%
%FSLAX34Y34*%
%LPD*%
%INBottom Copper*%
%IPPOS*%
%AMOC8*
5,1,8,0,0,1.08239X$1,22.5*%
G01*
G04 Define Apertures*
%ADD10C,1.343400*%
%ADD11R,1.408000X1.408000*%
%ADD12C,1.408000*%
%ADD13C,1.148000*%
%ADD14C,0.152400*%
%ADD15C,0.756400*%
D10*
X304800Y292100D03*
X330200Y292100D03*
X355600Y292100D03*
X381000Y292100D03*
X406400Y292100D03*
X431800Y292100D03*
X457200Y292100D03*
X482600Y292100D03*
X482600Y368300D03*
X457200Y368300D03*
X431800Y368300D03*
X406400Y368300D03*
X381000Y368300D03*
X355600Y368300D03*
X330200Y368300D03*
X304800Y368300D03*
X304800Y635000D03*
X330200Y635000D03*
X355600Y635000D03*
X381000Y635000D03*
X406400Y635000D03*
X431800Y635000D03*
X457200Y635000D03*
X482600Y635000D03*
X482600Y711200D03*
X457200Y711200D03*
X431800Y711200D03*
X406400Y711200D03*
X381000Y711200D03*
X355600Y711200D03*
X330200Y711200D03*
X304800Y711200D03*
X304800Y520700D03*
X330200Y520700D03*
X355600Y520700D03*
X381000Y520700D03*
X406400Y520700D03*
X431800Y520700D03*
X457200Y520700D03*
X482600Y520700D03*
X482600Y596900D03*
X457200Y596900D03*
X431800Y596900D03*
X406400Y596900D03*
X381000Y596900D03*
X355600Y596900D03*
X330200Y596900D03*
X304800Y596900D03*
X304800Y406400D03*
X330200Y406400D03*
X355600Y406400D03*
X381000Y406400D03*
X406400Y406400D03*
X431800Y406400D03*
X457200Y406400D03*
X482600Y406400D03*
X482600Y482600D03*
X457200Y482600D03*
X431800Y482600D03*
X406400Y482600D03*
X381000Y482600D03*
X355600Y482600D03*
X330200Y482600D03*
X304800Y482600D03*
D11*
X546100Y702400D03*
D12*
X546100Y727400D03*
D11*
X546100Y621457D03*
D12*
X546100Y646457D03*
D11*
X546100Y540514D03*
D12*
X546100Y565514D03*
D11*
X546100Y459571D03*
D12*
X546100Y484571D03*
D11*
X546100Y378629D03*
D12*
X546100Y403629D03*
D11*
X546100Y297686D03*
D12*
X546100Y322686D03*
D11*
X546100Y216743D03*
D12*
X546100Y241743D03*
D11*
X546100Y135800D03*
D12*
X546100Y160800D03*
D13*
X190300Y771100D03*
X165300Y771100D03*
X140300Y771100D03*
X290200Y771100D03*
X265200Y771100D03*
X240200Y771100D03*
X390100Y771100D03*
X365100Y771100D03*
X340100Y771100D03*
X490000Y771100D03*
X465000Y771100D03*
X440000Y771100D03*
X139700Y88200D03*
X164700Y88200D03*
X189700Y88200D03*
X239800Y88200D03*
X264800Y88200D03*
X289800Y88200D03*
X339900Y88200D03*
X364900Y88200D03*
X389900Y88200D03*
X440000Y88200D03*
X465000Y88200D03*
X490000Y88200D03*
D11*
X88900Y495300D03*
D12*
X88900Y470300D03*
D13*
X88900Y698500D03*
X88900Y673500D03*
X88900Y648500D03*
X88900Y623500D03*
D11*
X88900Y571500D03*
D12*
X88900Y546500D03*
D14*
X305000Y367500D02*
X310000Y362500D01*
X310000Y326250D01*
X340000Y296250D01*
X340000Y88750D01*
X305000Y367500D02*
X304800Y368300D01*
X340000Y88750D02*
X339900Y88200D01*
X297500Y763750D02*
X291250Y770000D01*
X297500Y763750D02*
X297500Y717500D01*
X303750Y711250D01*
X291250Y770000D02*
X290200Y771100D01*
X303750Y711250D02*
X304800Y711200D01*
X295000Y606250D02*
X303750Y597500D01*
X295000Y606250D02*
X295000Y701250D01*
X303750Y710000D01*
X303750Y597500D02*
X304800Y596900D01*
X303750Y710000D02*
X304800Y711200D01*
X293750Y493750D02*
X303750Y483750D01*
X293750Y493750D02*
X293750Y586250D01*
X303750Y596250D01*
X303750Y483750D02*
X304800Y482600D01*
X303750Y596250D02*
X304800Y596900D01*
X187500Y622500D02*
X178750Y613750D01*
X187500Y706250D02*
X187500Y767500D01*
X187500Y706250D02*
X187500Y626250D01*
X187500Y622500D01*
X187500Y767500D02*
X190000Y770000D01*
X190300Y771100D01*
X187500Y626250D02*
X185000Y626250D01*
X182500Y397500D02*
X182500Y385000D01*
X182500Y610000D02*
X178750Y613750D01*
X182500Y610000D02*
X182500Y397500D01*
D15*
X178750Y613750D03*
X185000Y626250D03*
X182500Y385000D03*
X182500Y397500D03*
X187500Y706250D03*
D14*
X211250Y307500D02*
X192500Y288750D01*
X192500Y201250D02*
X192500Y91250D01*
X192500Y201250D02*
X192500Y288750D01*
X192500Y91250D02*
X190000Y88750D01*
X189700Y88200D01*
X92500Y453750D02*
X90000Y456250D01*
X90000Y470000D01*
X88900Y470300D01*
X142500Y650000D02*
X141250Y651250D01*
X141250Y770000D01*
X140300Y771100D01*
X78750Y481250D02*
X88750Y471250D01*
X78750Y481250D02*
X78750Y522500D01*
X142500Y586250D01*
X142500Y650000D01*
X88750Y471250D02*
X88900Y470300D01*
X407500Y737500D02*
X440000Y770000D01*
X407500Y737500D02*
X407500Y711250D01*
X440000Y770000D02*
X440000Y771100D01*
X407500Y711250D02*
X406400Y711200D01*
X381250Y635000D02*
X381250Y597500D01*
X381000Y596900D01*
X381250Y635000D02*
X381000Y635000D01*
X381250Y635000D02*
X381250Y710000D01*
X381000Y711200D01*
X381250Y635000D02*
X381000Y635000D01*
X381250Y520000D02*
X381250Y483750D01*
X381000Y482600D01*
X381250Y520000D02*
X381000Y520700D01*
X381250Y367500D02*
X381250Y292500D01*
X381000Y292100D01*
X381250Y367500D02*
X381000Y368300D01*
X406250Y291250D02*
X406250Y221250D01*
X406250Y291250D02*
X406400Y292100D01*
X406250Y368750D02*
X406250Y406250D01*
X406400Y406400D01*
X406250Y368750D02*
X406400Y368300D01*
X381250Y407500D02*
X381250Y482500D01*
X381000Y482600D01*
X381250Y407500D02*
X381000Y406400D01*
X381250Y521250D02*
X381250Y596250D01*
X381000Y596900D01*
X381250Y521250D02*
X381000Y520700D01*
X406250Y105000D02*
X390000Y88750D01*
X406250Y105000D02*
X406250Y221250D01*
X390000Y88750D02*
X389900Y88200D01*
D15*
X211250Y307500D03*
X192500Y201250D03*
X92500Y453750D03*
X142500Y650000D03*
X406250Y221250D03*
D14*
X182500Y241250D02*
X162500Y221250D01*
X162500Y195000D01*
X483750Y520000D02*
X492500Y511250D01*
X492500Y301250D01*
X483750Y520000D02*
X482600Y520700D01*
D15*
X182500Y241250D03*
X162500Y195000D03*
X492500Y301250D03*
D14*
X225000Y433750D02*
X225000Y456250D01*
X225000Y652500D02*
X221250Y656250D01*
X225000Y652500D02*
X225000Y456250D01*
X221250Y656250D02*
X221250Y687500D01*
D15*
X225000Y433750D03*
X225000Y456250D03*
X221250Y656250D03*
X221250Y687500D03*
D14*
X346250Y657500D02*
X365000Y676250D01*
X365000Y770000D01*
X365100Y771100D01*
D15*
X346250Y657500D03*
D14*
X387500Y663750D02*
X418750Y695000D01*
X418750Y723750D01*
X465000Y770000D01*
X465000Y771100D01*
D15*
X387500Y663750D03*
D14*
X265000Y640000D02*
X265000Y770000D01*
X265200Y771100D01*
D15*
X265000Y640000D03*
D14*
X271250Y645000D02*
X275000Y641250D01*
X271250Y645000D02*
X271250Y733750D01*
D15*
X275000Y641250D03*
X271250Y733750D03*
D14*
X247500Y660000D02*
X253750Y653750D01*
X247500Y660000D02*
X247500Y692500D01*
X242500Y697500D01*
X196250Y697500D01*
X196250Y657500D01*
X210000Y643750D01*
X210000Y576250D01*
X213750Y572500D01*
X213750Y538750D01*
X186250Y511250D01*
X186250Y402500D01*
X188750Y400000D01*
X188750Y230000D01*
X180000Y221250D01*
D15*
X253750Y653750D03*
X180000Y221250D03*
D14*
X391250Y572500D02*
X387500Y576250D01*
X391250Y572500D02*
X391250Y277500D01*
X377500Y263750D01*
X377500Y222500D01*
X356250Y201250D01*
D15*
X387500Y576250D03*
X356250Y201250D03*
D14*
X232500Y353750D02*
X238750Y360000D01*
X238750Y500000D01*
X231250Y507500D01*
D15*
X232500Y353750D03*
X231250Y507500D03*
D14*
X337500Y392500D02*
X326250Y381250D01*
X337500Y392500D02*
X337500Y400000D01*
X343750Y406250D01*
X343750Y491250D01*
X327500Y507500D01*
X315000Y507500D01*
X315000Y480000D01*
X307500Y472500D01*
X283750Y472500D01*
X283750Y560000D02*
X283750Y582500D01*
X283750Y560000D02*
X283750Y472500D01*
X283750Y582500D02*
X278750Y587500D01*
X258750Y587500D01*
X258750Y585000D01*
D15*
X326250Y381250D03*
X258750Y585000D03*
X283750Y560000D03*
D14*
X276250Y367500D02*
X271250Y362500D01*
X276250Y488750D02*
X276250Y581250D01*
X276250Y488750D02*
X276250Y367500D01*
X276250Y488750D02*
X277500Y488750D01*
D15*
X271250Y362500D03*
X276250Y581250D03*
X277500Y488750D03*
D14*
X247500Y555000D02*
X247500Y368750D01*
X247500Y555000D02*
X252500Y560000D01*
X252500Y597500D01*
X281250Y670000D02*
X285000Y673750D01*
X281250Y670000D02*
X281250Y626250D01*
X252500Y597500D01*
D15*
X247500Y368750D03*
X252500Y597500D03*
X285000Y673750D03*
D14*
X340000Y593750D02*
X310000Y563750D01*
X340000Y593750D02*
X340000Y701250D01*
X331250Y710000D01*
X330200Y711200D01*
D15*
X310000Y563750D03*
D14*
X191250Y612500D02*
X188750Y610000D01*
X191250Y612500D02*
X191250Y697500D01*
X195000Y701250D01*
X253750Y701250D01*
X451250Y695000D02*
X456250Y700000D01*
X456250Y710000D01*
X457200Y711200D01*
D15*
X188750Y610000D03*
X253750Y701250D03*
X451250Y695000D03*
D14*
X176250Y603750D02*
X172500Y607500D01*
X172500Y678750D01*
D15*
X176250Y603750D03*
X172500Y678750D03*
D14*
X323750Y670000D02*
X330000Y663750D01*
X330000Y635000D01*
X330200Y635000D01*
D15*
X323750Y670000D03*
D14*
X215000Y665000D02*
X208750Y658750D01*
X215000Y665000D02*
X215000Y675000D01*
X311250Y673750D02*
X320000Y665000D01*
X320000Y607500D01*
X330000Y597500D01*
X330200Y596900D01*
D15*
X208750Y658750D03*
X215000Y675000D03*
X311250Y673750D03*
D14*
X208750Y672500D02*
X202500Y666250D01*
X208750Y672500D02*
X208750Y683750D01*
X218750Y693750D01*
X241250Y693750D01*
X241250Y690000D01*
X428750Y687500D02*
X447500Y668750D01*
X447500Y606250D01*
X456250Y597500D01*
X457200Y596900D01*
D15*
X202500Y666250D03*
X241250Y690000D03*
X428750Y687500D03*
D14*
X218750Y580000D02*
X216250Y582500D01*
X218750Y580000D02*
X218750Y535000D01*
D15*
X216250Y582500D03*
X218750Y535000D03*
D14*
X231250Y556250D02*
X231250Y656250D01*
D15*
X231250Y656250D03*
X231250Y556250D03*
D14*
X300000Y576250D02*
X303750Y572500D01*
X303750Y521250D01*
X304800Y520700D01*
D15*
X300000Y576250D03*
D14*
X206250Y638750D02*
X197500Y647500D01*
X206250Y638750D02*
X206250Y571250D01*
X207500Y570000D01*
D15*
X197500Y647500D03*
X207500Y570000D03*
D14*
X162500Y597500D02*
X161250Y596250D01*
X162500Y597500D02*
X162500Y705000D01*
X303750Y727500D02*
X315000Y716250D01*
X315000Y686250D01*
X305000Y676250D01*
X305000Y635000D01*
X304800Y635000D01*
D15*
X161250Y596250D03*
X162500Y705000D03*
X303750Y727500D03*
D14*
X166250Y600000D02*
X176250Y590000D01*
X166250Y600000D02*
X166250Y693750D01*
X177500Y705000D01*
D15*
X176250Y590000D03*
X177500Y705000D03*
D14*
X422500Y530000D02*
X431250Y521250D01*
X422500Y530000D02*
X422500Y715000D01*
X433750Y726250D01*
X545000Y726250D01*
X431250Y521250D02*
X431800Y520700D01*
X545000Y726250D02*
X546100Y727400D01*
X371250Y620000D02*
X356250Y635000D01*
X371250Y620000D02*
X371250Y563750D01*
X356250Y635000D02*
X355600Y635000D01*
D15*
X371250Y563750D03*
D14*
X432500Y635000D02*
X443750Y623750D01*
X443750Y597500D01*
X466250Y575000D01*
X432500Y635000D02*
X431800Y635000D01*
D15*
X466250Y575000D03*
D14*
X445000Y697500D02*
X432500Y710000D01*
X445000Y697500D02*
X445000Y686250D01*
X536250Y595000D01*
X536250Y468750D01*
X545000Y460000D01*
X432500Y710000D02*
X431800Y711200D01*
X545000Y460000D02*
X546100Y459571D01*
X245000Y195000D02*
X232500Y207500D01*
X472500Y625000D02*
X482500Y635000D01*
X472500Y625000D02*
X472500Y237500D01*
X428750Y193750D01*
X482500Y635000D02*
X482600Y635000D01*
D15*
X232500Y207500D03*
X245000Y195000D03*
X428750Y193750D03*
D14*
X226250Y421250D02*
X232500Y427500D01*
X226250Y421250D02*
X226250Y327500D01*
D15*
X232500Y427500D03*
X226250Y327500D03*
D14*
X528750Y307500D02*
X528750Y392500D01*
X538750Y402500D01*
X545000Y402500D01*
X546100Y403629D01*
D15*
X528750Y307500D03*
D14*
X438750Y361250D02*
X432500Y367500D01*
X438750Y361250D02*
X438750Y317500D01*
X432500Y367500D02*
X431800Y368300D01*
D15*
X438750Y317500D03*
D14*
X358750Y365000D02*
X356250Y367500D01*
X358750Y365000D02*
X358750Y328750D01*
X356250Y367500D02*
X355600Y368300D01*
D15*
X358750Y328750D03*
D14*
X501250Y402500D02*
X522500Y381250D01*
X522500Y240000D01*
X545000Y217500D01*
X546100Y216743D01*
D15*
X501250Y402500D03*
D14*
X535000Y390000D02*
X536250Y388750D01*
X536250Y251250D01*
X545000Y242500D01*
X546100Y241743D01*
D15*
X535000Y390000D03*
D14*
X360000Y478750D02*
X356250Y482500D01*
X360000Y478750D02*
X360000Y420000D01*
X356250Y482500D02*
X355600Y482600D01*
D15*
X360000Y420000D03*
D14*
X98750Y486250D02*
X90000Y495000D01*
X98750Y486250D02*
X98750Y357500D01*
X90000Y495000D02*
X88900Y495300D01*
D15*
X98750Y357500D03*
D14*
X343750Y393750D02*
X371250Y366250D01*
X371250Y225000D01*
D15*
X343750Y393750D03*
X371250Y225000D03*
D14*
X265000Y380000D02*
X260000Y385000D01*
X265000Y380000D02*
X265000Y270000D01*
X383750Y261250D02*
X400000Y245000D01*
D15*
X260000Y385000D03*
X265000Y270000D03*
X383750Y261250D03*
X400000Y245000D03*
D14*
X292500Y103750D02*
X292500Y412500D01*
X292500Y103750D02*
X268750Y80000D01*
X165000Y80000D01*
X165000Y87500D01*
X164700Y88200D01*
D15*
X292500Y412500D03*
D14*
X288750Y407500D02*
X282500Y413750D01*
X288750Y407500D02*
X288750Y112500D01*
X265000Y88750D01*
X264800Y88200D01*
D15*
X282500Y413750D03*
D14*
X311250Y420000D02*
X315000Y416250D01*
X315000Y363750D01*
X313750Y362500D01*
X313750Y327500D01*
X343750Y297500D01*
X343750Y108750D01*
X363750Y88750D01*
X364900Y88200D01*
D15*
X311250Y420000D03*
D14*
X400000Y426250D02*
X422500Y403750D01*
X422500Y131250D01*
X465000Y88750D01*
X465000Y88200D01*
D15*
X400000Y426250D03*
D14*
X320000Y472500D02*
X320000Y360000D01*
X320000Y472500D02*
X330000Y482500D01*
X330200Y482600D01*
D15*
X320000Y360000D03*
D14*
X303750Y342500D02*
X298750Y347500D01*
X303750Y342500D02*
X303750Y292500D01*
X304800Y292100D01*
D15*
X298750Y347500D03*
D14*
X176250Y380000D02*
X175000Y378750D01*
X176250Y380000D02*
X176250Y443750D01*
D15*
X175000Y378750D03*
X176250Y443750D03*
D14*
X282500Y307500D02*
X276250Y301250D01*
X282500Y307500D02*
X282500Y313750D01*
X451250Y383750D02*
X456250Y388750D01*
X456250Y406250D01*
X457200Y406400D01*
D15*
X276250Y301250D03*
X282500Y313750D03*
X451250Y383750D03*
D14*
X218750Y428750D02*
X217500Y427500D01*
X218750Y428750D02*
X218750Y498750D01*
X325000Y501250D02*
X340000Y486250D01*
X340000Y416250D01*
X331250Y407500D01*
X330200Y406400D01*
D15*
X217500Y427500D03*
X218750Y498750D03*
X325000Y501250D03*
D14*
X215000Y420000D02*
X207500Y427500D01*
X215000Y420000D02*
X215000Y340000D01*
D15*
X207500Y427500D03*
X215000Y340000D03*
D14*
X168750Y422500D02*
X170000Y423750D01*
X168750Y422500D02*
X168750Y320000D01*
X455000Y276250D02*
X466250Y287500D01*
X466250Y358750D01*
X457500Y367500D01*
X457200Y368300D01*
D15*
X170000Y423750D03*
X168750Y320000D03*
X455000Y276250D03*
D14*
X192500Y347500D02*
X192500Y417500D01*
X192500Y347500D02*
X257500Y282500D01*
D15*
X192500Y417500D03*
X257500Y282500D03*
D14*
X411250Y440000D02*
X445000Y406250D01*
X445000Y303750D01*
X456250Y292500D01*
X457200Y292100D01*
D15*
X411250Y440000D03*
D14*
X208750Y351250D02*
X208750Y336250D01*
X223750Y321250D01*
X253750Y321250D01*
X253750Y451250D01*
X251250Y453750D01*
X251250Y458750D01*
X265000Y472500D01*
D15*
X208750Y351250D03*
X265000Y472500D03*
D14*
X201250Y371250D02*
X198750Y368750D01*
X201250Y371250D02*
X201250Y443750D01*
X305000Y446250D02*
X305000Y407500D01*
X304800Y406400D01*
D15*
X198750Y368750D03*
X201250Y443750D03*
X305000Y446250D03*
D14*
X237500Y581250D02*
X237500Y621250D01*
X260000Y643750D01*
X260000Y713750D01*
X193750Y780000D01*
X97500Y780000D01*
X97500Y580000D01*
X90000Y572500D01*
X88900Y571500D01*
D15*
X237500Y581250D03*
D14*
X383750Y231250D02*
X400000Y215000D01*
X400000Y190000D01*
D15*
X383750Y231250D03*
X400000Y190000D03*
D14*
X343750Y616250D02*
X346250Y618750D01*
X343750Y616250D02*
X343750Y547500D01*
X317500Y521250D01*
X317500Y520000D01*
D15*
X346250Y618750D03*
X317500Y520000D03*
D14*
X257500Y401250D02*
X270000Y388750D01*
X257500Y401250D02*
X257500Y456250D01*
D15*
X270000Y388750D03*
X257500Y456250D03*
M02*
