G04 EAGLE Gerber RS-274X export*
G75*
%MOMM*%
%FSLAX34Y34*%
%LPD*%
%INSilkscreen Bottom*%
%IPPOS*%
%AMOC8*
5,1,8,0,0,1.08239X$1,22.5*%
G01*
G04 Define Apertures*
G36*
X275635Y740000D02*
X272838Y740000D01*
X267747Y757286D01*
X270188Y757286D01*
X272669Y748359D01*
X273342Y745905D01*
X273635Y744791D01*
X274175Y742490D01*
X274286Y742061D01*
X274752Y744091D01*
X275365Y746527D01*
X278371Y757286D01*
X280616Y757286D01*
X282976Y748873D01*
X283663Y746371D01*
X284020Y745005D01*
X284384Y743472D01*
X284701Y742061D01*
X285189Y744214D01*
X285719Y746306D01*
X288823Y757286D01*
X291265Y757286D01*
X286173Y740000D01*
X283376Y740000D01*
X280975Y748741D01*
X280319Y751165D01*
X280027Y752293D01*
X279487Y754673D01*
X278990Y752418D01*
X278793Y751597D01*
X278629Y750980D01*
X275635Y740000D01*
G37*
G36*
X324948Y740000D02*
X322150Y740000D01*
X317059Y757286D01*
X319501Y757286D01*
X321982Y748359D01*
X322654Y745905D01*
X322948Y744791D01*
X323488Y742490D01*
X323598Y742061D01*
X324064Y744091D01*
X324678Y746527D01*
X327683Y757286D01*
X329928Y757286D01*
X332289Y748873D01*
X332975Y746371D01*
X333333Y745005D01*
X333696Y743472D01*
X334014Y742061D01*
X334501Y744214D01*
X335032Y746306D01*
X338136Y757286D01*
X340577Y757286D01*
X335486Y740000D01*
X332689Y740000D01*
X330287Y748741D01*
X329632Y751165D01*
X329340Y752293D01*
X328800Y754673D01*
X328303Y752418D01*
X328105Y751597D01*
X327941Y750980D01*
X324948Y740000D01*
G37*
G36*
X374260Y740000D02*
X371463Y740000D01*
X366372Y757286D01*
X368813Y757286D01*
X371294Y748359D01*
X371967Y745905D01*
X372260Y744791D01*
X372800Y742490D01*
X372911Y742061D01*
X373377Y744091D01*
X373990Y746527D01*
X376996Y757286D01*
X379241Y757286D01*
X381601Y748873D01*
X382288Y746371D01*
X382645Y745005D01*
X383009Y743472D01*
X383326Y742061D01*
X383814Y744214D01*
X384344Y746306D01*
X387448Y757286D01*
X389890Y757286D01*
X384798Y740000D01*
X382001Y740000D01*
X379600Y748741D01*
X378944Y751165D01*
X378652Y752293D01*
X378112Y754673D01*
X377615Y752418D01*
X377418Y751597D01*
X377254Y750980D01*
X374260Y740000D01*
G37*
G36*
X263515Y739755D02*
X263121Y739765D01*
X262742Y739794D01*
X262378Y739844D01*
X262029Y739913D01*
X261695Y740001D01*
X261377Y740110D01*
X261073Y740238D01*
X260785Y740386D01*
X260509Y740558D01*
X260241Y740758D01*
X259982Y740985D01*
X259732Y741241D01*
X259490Y741524D01*
X259257Y741834D01*
X259032Y742173D01*
X258816Y742539D01*
X258743Y742539D01*
X258717Y742207D01*
X258675Y741898D01*
X258619Y741612D01*
X258548Y741348D01*
X258461Y741107D01*
X258360Y740889D01*
X258243Y740694D01*
X258111Y740521D01*
X257961Y740370D01*
X257790Y740240D01*
X257598Y740129D01*
X257385Y740038D01*
X257152Y739968D01*
X256897Y739918D01*
X256622Y739887D01*
X256326Y739877D01*
X255892Y739890D01*
X255464Y739926D01*
X255040Y739988D01*
X254620Y740074D01*
X254620Y741448D01*
X255004Y741383D01*
X255344Y741362D01*
X255518Y741370D01*
X255677Y741393D01*
X255822Y741432D01*
X255952Y741486D01*
X256067Y741556D01*
X256168Y741641D01*
X256254Y741742D01*
X256326Y741859D01*
X256438Y742137D01*
X256519Y742477D01*
X256567Y742876D01*
X256583Y743337D01*
X256583Y749054D01*
X256603Y749581D01*
X256662Y750076D01*
X256761Y750538D01*
X256899Y750969D01*
X257077Y751368D01*
X257294Y751735D01*
X257551Y752070D01*
X257847Y752372D01*
X258182Y752641D01*
X258556Y752874D01*
X258969Y753071D01*
X259420Y753233D01*
X259910Y753358D01*
X260439Y753448D01*
X261007Y753501D01*
X261613Y753519D01*
X262192Y753505D01*
X262738Y753463D01*
X263251Y753393D01*
X263731Y753296D01*
X264179Y753170D01*
X264593Y753016D01*
X264975Y752834D01*
X265324Y752624D01*
X265641Y752386D01*
X265924Y752120D01*
X266175Y751826D01*
X266393Y751504D01*
X266578Y751155D01*
X266731Y750777D01*
X266851Y750371D01*
X266938Y749937D01*
X264631Y749729D01*
X264589Y749995D01*
X264530Y750243D01*
X264454Y750472D01*
X264361Y750682D01*
X264252Y750874D01*
X264125Y751047D01*
X263982Y751201D01*
X263822Y751336D01*
X263640Y751454D01*
X263434Y751556D01*
X263202Y751642D01*
X262944Y751713D01*
X262662Y751768D01*
X262354Y751807D01*
X262021Y751831D01*
X261662Y751839D01*
X261307Y751828D01*
X260975Y751795D01*
X260669Y751740D01*
X260386Y751664D01*
X260129Y751566D01*
X259896Y751445D01*
X259687Y751303D01*
X259503Y751139D01*
X259342Y750950D01*
X259203Y750732D01*
X259084Y750486D01*
X258988Y750210D01*
X258913Y749906D01*
X258859Y749573D01*
X258827Y749211D01*
X258816Y748821D01*
X258816Y748097D01*
X261797Y748048D01*
X262526Y748013D01*
X263202Y747947D01*
X263827Y747848D01*
X264400Y747717D01*
X264920Y747553D01*
X265389Y747358D01*
X265806Y747130D01*
X266171Y746870D01*
X266489Y746579D01*
X266764Y746258D01*
X266997Y745907D01*
X267188Y745527D01*
X267336Y745116D01*
X267442Y744676D01*
X267505Y744205D01*
X267526Y743705D01*
X267511Y743257D01*
X267464Y742834D01*
X267385Y742435D01*
X267275Y742061D01*
X267133Y741711D01*
X266961Y741386D01*
X266756Y741086D01*
X266520Y740810D01*
X266253Y740562D01*
X265955Y740348D01*
X265626Y740167D01*
X265266Y740018D01*
X264875Y739903D01*
X264453Y739821D01*
X263999Y739771D01*
X263515Y739755D01*
G37*
%LPC*%
G36*
X263012Y741411D02*
X263274Y741420D01*
X263521Y741448D01*
X263752Y741494D01*
X263967Y741558D01*
X264167Y741641D01*
X264352Y741742D01*
X264521Y741862D01*
X264674Y742000D01*
X264811Y742155D01*
X264929Y742325D01*
X265029Y742510D01*
X265111Y742711D01*
X265175Y742927D01*
X265220Y743159D01*
X265248Y743406D01*
X265257Y743668D01*
X265250Y743911D01*
X265230Y744141D01*
X265196Y744360D01*
X265150Y744567D01*
X265089Y744762D01*
X265015Y744945D01*
X264928Y745116D01*
X264827Y745275D01*
X264589Y745562D01*
X264305Y745809D01*
X263973Y746016D01*
X263595Y746183D01*
X263382Y746252D01*
X263146Y746313D01*
X262602Y746410D01*
X261965Y746473D01*
X261233Y746502D01*
X258816Y746551D01*
X258816Y745459D01*
X258825Y745206D01*
X258850Y744954D01*
X258893Y744703D01*
X258953Y744455D01*
X259029Y744208D01*
X259123Y743963D01*
X259234Y743720D01*
X259362Y743478D01*
X259505Y743244D01*
X259660Y743022D01*
X259828Y742814D01*
X260008Y742618D01*
X260200Y742435D01*
X260405Y742265D01*
X260623Y742107D01*
X260853Y741963D01*
X261093Y741834D01*
X261342Y741721D01*
X261599Y741626D01*
X261865Y741549D01*
X262139Y741488D01*
X262421Y741445D01*
X262712Y741419D01*
X263012Y741411D01*
G37*
%LPD*%
G36*
X312827Y739755D02*
X312433Y739765D01*
X312054Y739794D01*
X311690Y739844D01*
X311341Y739913D01*
X311008Y740001D01*
X310689Y740110D01*
X310386Y740238D01*
X310098Y740386D01*
X309821Y740558D01*
X309554Y740758D01*
X309295Y740985D01*
X309044Y741241D01*
X308802Y741524D01*
X308569Y741834D01*
X308345Y742173D01*
X308129Y742539D01*
X308055Y742539D01*
X308029Y742207D01*
X307988Y741898D01*
X307932Y741612D01*
X307860Y741348D01*
X307774Y741107D01*
X307672Y740889D01*
X307555Y740694D01*
X307423Y740521D01*
X307273Y740370D01*
X307102Y740240D01*
X306911Y740129D01*
X306698Y740038D01*
X306464Y739968D01*
X306210Y739918D01*
X305934Y739887D01*
X305638Y739877D01*
X305205Y739890D01*
X304776Y739926D01*
X304352Y739988D01*
X303933Y740074D01*
X303933Y741448D01*
X304316Y741383D01*
X304657Y741362D01*
X304830Y741370D01*
X304990Y741393D01*
X305134Y741432D01*
X305264Y741486D01*
X305379Y741556D01*
X305480Y741641D01*
X305567Y741742D01*
X305638Y741859D01*
X305751Y742137D01*
X305831Y742477D01*
X305880Y742876D01*
X305896Y743337D01*
X305896Y749054D01*
X305916Y749581D01*
X305975Y750076D01*
X306074Y750538D01*
X306212Y750969D01*
X306389Y751368D01*
X306607Y751735D01*
X306863Y752070D01*
X307159Y752372D01*
X307495Y752641D01*
X307869Y752874D01*
X308281Y753071D01*
X308733Y753233D01*
X309223Y753358D01*
X309752Y753448D01*
X310319Y753501D01*
X310926Y753519D01*
X311504Y753505D01*
X312050Y753463D01*
X312563Y753393D01*
X313044Y753296D01*
X313491Y753170D01*
X313906Y753016D01*
X314288Y752834D01*
X314637Y752624D01*
X314953Y752386D01*
X315237Y752120D01*
X315488Y751826D01*
X315706Y751504D01*
X315891Y751155D01*
X316043Y750777D01*
X316163Y750371D01*
X316250Y749937D01*
X313944Y749729D01*
X313902Y749995D01*
X313842Y750243D01*
X313767Y750472D01*
X313674Y750682D01*
X313564Y750874D01*
X313438Y751047D01*
X313294Y751201D01*
X313134Y751336D01*
X312953Y751454D01*
X312746Y751556D01*
X312514Y751642D01*
X312257Y751713D01*
X311974Y751768D01*
X311666Y751807D01*
X311333Y751831D01*
X310975Y751839D01*
X310619Y751828D01*
X310288Y751795D01*
X309981Y751740D01*
X309699Y751664D01*
X309441Y751566D01*
X309208Y751445D01*
X309000Y751303D01*
X308816Y751139D01*
X308655Y750950D01*
X308515Y750732D01*
X308397Y750486D01*
X308300Y750210D01*
X308225Y749906D01*
X308172Y749573D01*
X308139Y749211D01*
X308129Y748821D01*
X308129Y748097D01*
X311110Y748048D01*
X311838Y748013D01*
X312515Y747947D01*
X313139Y747848D01*
X313712Y747717D01*
X314233Y747553D01*
X314702Y747358D01*
X315118Y747130D01*
X315483Y746870D01*
X315801Y746579D01*
X316076Y746258D01*
X316309Y745907D01*
X316500Y745527D01*
X316648Y745116D01*
X316754Y744676D01*
X316818Y744205D01*
X316839Y743705D01*
X316823Y743257D01*
X316776Y742834D01*
X316697Y742435D01*
X316587Y742061D01*
X316446Y741711D01*
X316273Y741386D01*
X316069Y741086D01*
X315833Y740810D01*
X315566Y740562D01*
X315268Y740348D01*
X314939Y740167D01*
X314579Y740018D01*
X314187Y739903D01*
X313765Y739821D01*
X313312Y739771D01*
X312827Y739755D01*
G37*
%LPC*%
G36*
X312324Y741411D02*
X312586Y741420D01*
X312833Y741448D01*
X313064Y741494D01*
X313280Y741558D01*
X313480Y741641D01*
X313664Y741742D01*
X313833Y741862D01*
X313987Y742000D01*
X314123Y742155D01*
X314242Y742325D01*
X314342Y742510D01*
X314424Y742711D01*
X314487Y742927D01*
X314533Y743159D01*
X314560Y743406D01*
X314569Y743668D01*
X314563Y743911D01*
X314543Y744141D01*
X314509Y744360D01*
X314462Y744567D01*
X314402Y744762D01*
X314328Y744945D01*
X314241Y745116D01*
X314140Y745275D01*
X313902Y745562D01*
X313617Y745809D01*
X313285Y746016D01*
X312907Y746183D01*
X312694Y746252D01*
X312458Y746313D01*
X311915Y746410D01*
X311277Y746473D01*
X310545Y746502D01*
X308129Y746551D01*
X308129Y745459D01*
X308137Y745206D01*
X308163Y744954D01*
X308205Y744703D01*
X308265Y744455D01*
X308342Y744208D01*
X308436Y743963D01*
X308547Y743720D01*
X308675Y743478D01*
X308817Y743244D01*
X308972Y743022D01*
X309140Y742814D01*
X309320Y742618D01*
X309513Y742435D01*
X309718Y742265D01*
X309935Y742107D01*
X310165Y741963D01*
X310406Y741834D01*
X310654Y741721D01*
X310912Y741626D01*
X311177Y741549D01*
X311451Y741488D01*
X311734Y741445D01*
X312025Y741419D01*
X312324Y741411D01*
G37*
%LPD*%
G36*
X362140Y739755D02*
X361746Y739765D01*
X361367Y739794D01*
X361003Y739844D01*
X360654Y739913D01*
X360320Y740001D01*
X360002Y740110D01*
X359698Y740238D01*
X359410Y740386D01*
X359134Y740558D01*
X358866Y740758D01*
X358607Y740985D01*
X358357Y741241D01*
X358115Y741524D01*
X357882Y741834D01*
X357657Y742173D01*
X357441Y742539D01*
X357368Y742539D01*
X357342Y742207D01*
X357300Y741898D01*
X357244Y741612D01*
X357173Y741348D01*
X357086Y741107D01*
X356985Y740889D01*
X356868Y740694D01*
X356736Y740521D01*
X356586Y740370D01*
X356415Y740240D01*
X356223Y740129D01*
X356010Y740038D01*
X355777Y739968D01*
X355522Y739918D01*
X355247Y739887D01*
X354951Y739877D01*
X354517Y739890D01*
X354089Y739926D01*
X353665Y739988D01*
X353245Y740074D01*
X353245Y741448D01*
X353629Y741383D01*
X353969Y741362D01*
X354143Y741370D01*
X354302Y741393D01*
X354447Y741432D01*
X354577Y741486D01*
X354692Y741556D01*
X354793Y741641D01*
X354879Y741742D01*
X354951Y741859D01*
X355063Y742137D01*
X355144Y742477D01*
X355192Y742876D01*
X355208Y743337D01*
X355208Y749054D01*
X355228Y749581D01*
X355287Y750076D01*
X355386Y750538D01*
X355524Y750969D01*
X355702Y751368D01*
X355919Y751735D01*
X356176Y752070D01*
X356472Y752372D01*
X356807Y752641D01*
X357181Y752874D01*
X357594Y753071D01*
X358045Y753233D01*
X358535Y753358D01*
X359064Y753448D01*
X359632Y753501D01*
X360238Y753519D01*
X360817Y753505D01*
X361363Y753463D01*
X361876Y753393D01*
X362356Y753296D01*
X362804Y753170D01*
X363218Y753016D01*
X363600Y752834D01*
X363949Y752624D01*
X364266Y752386D01*
X364549Y752120D01*
X364800Y751826D01*
X365018Y751504D01*
X365203Y751155D01*
X365356Y750777D01*
X365476Y750371D01*
X365563Y749937D01*
X363256Y749729D01*
X363214Y749995D01*
X363155Y750243D01*
X363079Y750472D01*
X362986Y750682D01*
X362877Y750874D01*
X362750Y751047D01*
X362607Y751201D01*
X362447Y751336D01*
X362265Y751454D01*
X362059Y751556D01*
X361827Y751642D01*
X361569Y751713D01*
X361287Y751768D01*
X360979Y751807D01*
X360646Y751831D01*
X360287Y751839D01*
X359932Y751828D01*
X359600Y751795D01*
X359294Y751740D01*
X359011Y751664D01*
X358754Y751566D01*
X358521Y751445D01*
X358312Y751303D01*
X358128Y751139D01*
X357967Y750950D01*
X357828Y750732D01*
X357709Y750486D01*
X357613Y750210D01*
X357538Y749906D01*
X357484Y749573D01*
X357452Y749211D01*
X357441Y748821D01*
X357441Y748097D01*
X360422Y748048D01*
X361151Y748013D01*
X361827Y747947D01*
X362452Y747848D01*
X363025Y747717D01*
X363545Y747553D01*
X364014Y747358D01*
X364431Y747130D01*
X364796Y746870D01*
X365114Y746579D01*
X365389Y746258D01*
X365622Y745907D01*
X365813Y745527D01*
X365961Y745116D01*
X366067Y744676D01*
X366130Y744205D01*
X366151Y743705D01*
X366136Y743257D01*
X366089Y742834D01*
X366010Y742435D01*
X365900Y742061D01*
X365758Y741711D01*
X365586Y741386D01*
X365381Y741086D01*
X365145Y740810D01*
X364878Y740562D01*
X364580Y740348D01*
X364251Y740167D01*
X363891Y740018D01*
X363500Y739903D01*
X363078Y739821D01*
X362624Y739771D01*
X362140Y739755D01*
G37*
%LPC*%
G36*
X361637Y741411D02*
X361899Y741420D01*
X362146Y741448D01*
X362377Y741494D01*
X362592Y741558D01*
X362792Y741641D01*
X362977Y741742D01*
X363146Y741862D01*
X363299Y742000D01*
X363436Y742155D01*
X363554Y742325D01*
X363654Y742510D01*
X363736Y742711D01*
X363800Y742927D01*
X363845Y743159D01*
X363873Y743406D01*
X363882Y743668D01*
X363875Y743911D01*
X363855Y744141D01*
X363821Y744360D01*
X363775Y744567D01*
X363714Y744762D01*
X363640Y744945D01*
X363553Y745116D01*
X363452Y745275D01*
X363214Y745562D01*
X362930Y745809D01*
X362598Y746016D01*
X362220Y746183D01*
X362007Y746252D01*
X361771Y746313D01*
X361227Y746410D01*
X360590Y746473D01*
X359858Y746502D01*
X357441Y746551D01*
X357441Y745459D01*
X357450Y745206D01*
X357475Y744954D01*
X357518Y744703D01*
X357578Y744455D01*
X357654Y744208D01*
X357748Y743963D01*
X357859Y743720D01*
X357987Y743478D01*
X358130Y743244D01*
X358285Y743022D01*
X358453Y742814D01*
X358633Y742618D01*
X358825Y742435D01*
X359030Y742265D01*
X359248Y742107D01*
X359478Y741963D01*
X359718Y741834D01*
X359967Y741721D01*
X360224Y741626D01*
X360490Y741549D01*
X360764Y741488D01*
X361046Y741445D01*
X361337Y741419D01*
X361637Y741411D01*
G37*
%LPD*%
G36*
X252282Y734786D02*
X252012Y734794D01*
X251750Y734818D01*
X251495Y734858D01*
X251247Y734913D01*
X251006Y734985D01*
X250772Y735072D01*
X250545Y735176D01*
X250325Y735295D01*
X250111Y735431D01*
X249902Y735583D01*
X249499Y735936D01*
X249114Y736356D01*
X248749Y736841D01*
X248386Y737427D01*
X248009Y738149D01*
X247619Y739007D01*
X247215Y740000D01*
X242112Y753274D01*
X244443Y753274D01*
X247350Y744821D01*
X248209Y742405D01*
X248353Y742865D01*
X248712Y743926D01*
X249264Y745527D01*
X249411Y745938D01*
X252208Y753274D01*
X254564Y753274D01*
X249301Y740061D01*
X249509Y739534D01*
X249663Y739167D01*
X249823Y738824D01*
X249990Y738504D01*
X250164Y738208D01*
X250345Y737936D01*
X250532Y737687D01*
X250726Y737462D01*
X250926Y737261D01*
X251134Y737084D01*
X251348Y736930D01*
X251568Y736800D01*
X251796Y736693D01*
X252030Y736610D01*
X252271Y736551D01*
X252518Y736515D01*
X252773Y736504D01*
X253312Y736522D01*
X253803Y736577D01*
X253803Y734921D01*
X253478Y734862D01*
X253116Y734820D01*
X252717Y734795D01*
X252282Y734786D01*
G37*
G36*
X301594Y734786D02*
X301325Y734794D01*
X301063Y734818D01*
X300807Y734858D01*
X300559Y734913D01*
X300318Y734985D01*
X300084Y735072D01*
X299857Y735176D01*
X299638Y735295D01*
X299424Y735431D01*
X299215Y735583D01*
X298811Y735936D01*
X298426Y736356D01*
X298061Y736841D01*
X297698Y737427D01*
X297322Y738149D01*
X296932Y739007D01*
X296528Y740000D01*
X291424Y753274D01*
X293755Y753274D01*
X296663Y744821D01*
X297521Y742405D01*
X297665Y742865D01*
X298024Y743926D01*
X298576Y745527D01*
X298724Y745938D01*
X301521Y753274D01*
X303876Y753274D01*
X298613Y740061D01*
X298822Y739534D01*
X298975Y739167D01*
X299136Y738824D01*
X299303Y738504D01*
X299477Y738208D01*
X299657Y737936D01*
X299844Y737687D01*
X300038Y737462D01*
X300239Y737261D01*
X300446Y737084D01*
X300660Y736930D01*
X300881Y736800D01*
X301108Y736693D01*
X301342Y736610D01*
X301583Y736551D01*
X301831Y736515D01*
X302085Y736504D01*
X302625Y736522D01*
X303116Y736577D01*
X303116Y734921D01*
X302790Y734862D01*
X302429Y734820D01*
X302030Y734795D01*
X301594Y734786D01*
G37*
G36*
X350907Y734786D02*
X350637Y734794D01*
X350375Y734818D01*
X350120Y734858D01*
X349872Y734913D01*
X349631Y734985D01*
X349397Y735072D01*
X349170Y735176D01*
X348950Y735295D01*
X348736Y735431D01*
X348527Y735583D01*
X348124Y735936D01*
X347739Y736356D01*
X347374Y736841D01*
X347011Y737427D01*
X346634Y738149D01*
X346244Y739007D01*
X345840Y740000D01*
X340737Y753274D01*
X343068Y753274D01*
X345975Y744821D01*
X346834Y742405D01*
X346978Y742865D01*
X347337Y743926D01*
X347889Y745527D01*
X348036Y745938D01*
X350833Y753274D01*
X353189Y753274D01*
X347926Y740061D01*
X348134Y739534D01*
X348288Y739167D01*
X348448Y738824D01*
X348615Y738504D01*
X348789Y738208D01*
X348970Y737936D01*
X349157Y737687D01*
X349351Y737462D01*
X349551Y737261D01*
X349759Y737084D01*
X349973Y736930D01*
X350193Y736800D01*
X350421Y736693D01*
X350655Y736610D01*
X350896Y736551D01*
X351143Y736515D01*
X351398Y736504D01*
X351937Y736522D01*
X352428Y736577D01*
X352428Y734921D01*
X352103Y734862D01*
X351741Y734820D01*
X351342Y734795D01*
X350907Y734786D01*
G37*
G36*
X486311Y790000D02*
X478366Y790000D01*
X477609Y790020D01*
X476874Y790082D01*
X476161Y790184D01*
X475472Y790328D01*
X474805Y790512D01*
X474160Y790738D01*
X473538Y791004D01*
X472939Y791312D01*
X472368Y791658D01*
X471830Y792039D01*
X471326Y792457D01*
X470855Y792911D01*
X470417Y793402D01*
X470013Y793928D01*
X469643Y794490D01*
X469306Y795088D01*
X469005Y795717D01*
X468745Y796372D01*
X468525Y797052D01*
X468345Y797758D01*
X468204Y798490D01*
X468104Y799248D01*
X468044Y800031D01*
X468024Y800839D01*
X468036Y801454D01*
X468070Y802051D01*
X468127Y802630D01*
X468208Y803192D01*
X468311Y803735D01*
X468437Y804261D01*
X468586Y804769D01*
X468757Y805258D01*
X468952Y805731D01*
X469170Y806185D01*
X469410Y806621D01*
X469674Y807040D01*
X469960Y807440D01*
X470269Y807823D01*
X470601Y808188D01*
X470956Y808536D01*
X471333Y808863D01*
X471728Y809170D01*
X472143Y809455D01*
X472577Y809719D01*
X473030Y809963D01*
X473502Y810185D01*
X473994Y810385D01*
X474505Y810565D01*
X475035Y810724D01*
X475585Y810861D01*
X476153Y810977D01*
X476741Y811073D01*
X477349Y811147D01*
X477975Y811199D01*
X478621Y811231D01*
X479286Y811242D01*
X486311Y811242D01*
X486311Y790000D01*
G37*
%LPC*%
G36*
X483432Y792307D02*
X483432Y808935D01*
X479346Y808935D01*
X478841Y808927D01*
X478351Y808903D01*
X477876Y808862D01*
X477417Y808806D01*
X476972Y808733D01*
X476543Y808644D01*
X476129Y808538D01*
X475730Y808417D01*
X475346Y808279D01*
X474977Y808125D01*
X474623Y807955D01*
X474285Y807769D01*
X473962Y807567D01*
X473653Y807348D01*
X473360Y807113D01*
X473082Y806862D01*
X472820Y806596D01*
X472575Y806315D01*
X472347Y806019D01*
X472136Y805708D01*
X471941Y805383D01*
X471764Y805044D01*
X471603Y804689D01*
X471460Y804320D01*
X471333Y803936D01*
X471223Y803538D01*
X471130Y803125D01*
X471054Y802697D01*
X470995Y802255D01*
X470953Y801798D01*
X470927Y801326D01*
X470919Y800839D01*
X470934Y800194D01*
X470978Y799571D01*
X471052Y798970D01*
X471156Y798390D01*
X471290Y797831D01*
X471453Y797295D01*
X471646Y796780D01*
X471869Y796287D01*
X472119Y795818D01*
X472395Y795378D01*
X472696Y794966D01*
X473024Y794583D01*
X473377Y794228D01*
X473755Y793901D01*
X474160Y793602D01*
X474590Y793332D01*
X475041Y793091D01*
X475511Y792883D01*
X475998Y792707D01*
X476502Y792563D01*
X477025Y792451D01*
X477565Y792371D01*
X478122Y792323D01*
X478698Y792307D01*
X483432Y792307D01*
G37*
%LPD*%
G36*
X521407Y789699D02*
X520976Y789705D01*
X520558Y789724D01*
X520153Y789756D01*
X519760Y789801D01*
X519380Y789859D01*
X519013Y789930D01*
X518658Y790013D01*
X518316Y790109D01*
X517987Y790218D01*
X517671Y790340D01*
X517367Y790475D01*
X517076Y790623D01*
X516798Y790783D01*
X516533Y790957D01*
X516280Y791143D01*
X516040Y791342D01*
X515814Y791552D01*
X515602Y791773D01*
X515405Y792004D01*
X515222Y792244D01*
X515054Y792495D01*
X514901Y792756D01*
X514762Y793028D01*
X514638Y793309D01*
X514528Y793601D01*
X514433Y793902D01*
X514353Y794214D01*
X514287Y794536D01*
X514236Y794868D01*
X514200Y795210D01*
X514178Y795562D01*
X514171Y795925D01*
X514188Y796438D01*
X514241Y796929D01*
X514330Y797398D01*
X514453Y797845D01*
X514612Y798270D01*
X514807Y798674D01*
X515036Y799055D01*
X515301Y799415D01*
X515359Y799479D01*
X515598Y799747D01*
X515923Y800046D01*
X516276Y800311D01*
X516658Y800544D01*
X517068Y800743D01*
X517506Y800909D01*
X517972Y801041D01*
X518467Y801141D01*
X518467Y801201D01*
X518041Y801304D01*
X517639Y801438D01*
X517259Y801603D01*
X516903Y801800D01*
X516570Y802029D01*
X516290Y802264D01*
X516259Y802290D01*
X515972Y802581D01*
X515708Y802905D01*
X515472Y803251D01*
X515266Y803612D01*
X515093Y803988D01*
X514951Y804378D01*
X514840Y804783D01*
X514761Y805203D01*
X514714Y805637D01*
X514698Y806086D01*
X514705Y806396D01*
X514727Y806699D01*
X514762Y806993D01*
X514812Y807280D01*
X514876Y807558D01*
X514954Y807828D01*
X515046Y808090D01*
X515152Y808343D01*
X515273Y808589D01*
X515408Y808826D01*
X515720Y809277D01*
X516089Y809695D01*
X516515Y810081D01*
X516990Y810427D01*
X517506Y810727D01*
X518063Y810981D01*
X518661Y811189D01*
X519301Y811350D01*
X519982Y811466D01*
X520704Y811535D01*
X521467Y811558D01*
X522213Y811535D01*
X522920Y811464D01*
X523588Y811346D01*
X524217Y811181D01*
X524807Y810969D01*
X525358Y810710D01*
X525871Y810404D01*
X526344Y810051D01*
X526770Y809659D01*
X527139Y809239D01*
X527451Y808791D01*
X527586Y808556D01*
X527707Y808313D01*
X527813Y808064D01*
X527905Y807807D01*
X527983Y807543D01*
X528047Y807272D01*
X528097Y806994D01*
X528132Y806708D01*
X528154Y806416D01*
X528161Y806116D01*
X528145Y805667D01*
X528098Y805233D01*
X528020Y804814D01*
X527910Y804409D01*
X527769Y804018D01*
X527597Y803643D01*
X527393Y803281D01*
X527158Y802935D01*
X526896Y802611D01*
X526611Y802316D01*
X526304Y802051D01*
X525973Y801816D01*
X525619Y801610D01*
X525243Y801434D01*
X524844Y801288D01*
X524422Y801171D01*
X524422Y801111D01*
X524875Y801018D01*
X525308Y800890D01*
X525719Y800728D01*
X526111Y800530D01*
X526481Y800298D01*
X526830Y800031D01*
X527159Y799729D01*
X527467Y799392D01*
X527746Y799028D01*
X527988Y798642D01*
X528193Y798236D01*
X528361Y797809D01*
X528491Y797362D01*
X528584Y796893D01*
X528640Y796404D01*
X528658Y795895D01*
X528651Y795529D01*
X528628Y795173D01*
X528591Y794829D01*
X528538Y794494D01*
X528471Y794171D01*
X528388Y793858D01*
X528290Y793556D01*
X528178Y793264D01*
X528050Y792983D01*
X527907Y792712D01*
X527750Y792452D01*
X527577Y792203D01*
X527389Y791964D01*
X527187Y791736D01*
X526969Y791519D01*
X526736Y791312D01*
X526490Y791116D01*
X526232Y790934D01*
X525963Y790763D01*
X525682Y790606D01*
X525390Y790461D01*
X525086Y790329D01*
X524770Y790209D01*
X524443Y790102D01*
X524104Y790007D01*
X523753Y789925D01*
X523391Y789856D01*
X523018Y789799D01*
X522632Y789755D01*
X522235Y789724D01*
X521827Y789705D01*
X521407Y789699D01*
G37*
%LPC*%
G36*
X521377Y791734D02*
X521919Y791751D01*
X522426Y791802D01*
X522898Y791888D01*
X523336Y792008D01*
X523738Y792162D01*
X524105Y792351D01*
X524438Y792573D01*
X524735Y792830D01*
X524997Y793122D01*
X525225Y793447D01*
X525417Y793807D01*
X525574Y794201D01*
X525697Y794630D01*
X525784Y795093D01*
X525837Y795589D01*
X525854Y796121D01*
X525836Y796579D01*
X525782Y797013D01*
X525691Y797421D01*
X525564Y797804D01*
X525401Y798161D01*
X525201Y798494D01*
X524965Y798801D01*
X524693Y799083D01*
X524389Y799336D01*
X524056Y799555D01*
X523696Y799740D01*
X523306Y799892D01*
X522889Y800009D01*
X522443Y800094D01*
X521969Y800144D01*
X521467Y800161D01*
X520951Y800145D01*
X520464Y800098D01*
X520007Y800020D01*
X519579Y799910D01*
X519181Y799769D01*
X518813Y799597D01*
X518474Y799393D01*
X518166Y799158D01*
X517890Y798893D01*
X517651Y798596D01*
X517449Y798270D01*
X517284Y797913D01*
X517155Y797525D01*
X517063Y797108D01*
X517008Y796660D01*
X516990Y796181D01*
X517007Y795620D01*
X517058Y795099D01*
X517142Y794617D01*
X517261Y794174D01*
X517414Y793771D01*
X517600Y793407D01*
X517821Y793082D01*
X518075Y792797D01*
X518364Y792547D01*
X518689Y792332D01*
X519048Y792149D01*
X519443Y791999D01*
X519874Y791883D01*
X520339Y791800D01*
X520840Y791750D01*
X521377Y791734D01*
G37*
G36*
X521437Y802196D02*
X521895Y802211D01*
X522326Y802256D01*
X522731Y802331D01*
X523109Y802436D01*
X523460Y802570D01*
X523785Y802735D01*
X524083Y802929D01*
X524354Y803154D01*
X524596Y803406D01*
X524806Y803686D01*
X524983Y803993D01*
X525129Y804328D01*
X525242Y804689D01*
X525322Y805077D01*
X525371Y805493D01*
X525387Y805935D01*
X525371Y806370D01*
X525324Y806776D01*
X525246Y807155D01*
X525136Y807507D01*
X524995Y807830D01*
X524823Y808126D01*
X524619Y808394D01*
X524384Y808634D01*
X524119Y808846D01*
X523826Y809029D01*
X523504Y809185D01*
X523154Y809312D01*
X522775Y809411D01*
X522367Y809482D01*
X521932Y809524D01*
X521467Y809538D01*
X520989Y809524D01*
X520541Y809482D01*
X520125Y809411D01*
X519739Y809313D01*
X519384Y809186D01*
X519060Y809031D01*
X518767Y808848D01*
X518505Y808637D01*
X518273Y808398D01*
X518073Y808131D01*
X517903Y807835D01*
X517764Y807511D01*
X517656Y807159D01*
X517579Y806779D01*
X517533Y806371D01*
X517517Y805935D01*
X517533Y805458D01*
X517580Y805016D01*
X517658Y804608D01*
X517768Y804233D01*
X517909Y803893D01*
X518081Y803587D01*
X518285Y803316D01*
X518520Y803078D01*
X518785Y802871D01*
X519078Y802692D01*
X519400Y802541D01*
X519750Y802417D01*
X520129Y802320D01*
X520537Y802251D01*
X520973Y802210D01*
X521437Y802196D01*
G37*
%LPD*%
G36*
X190813Y789699D02*
X190444Y789707D01*
X190086Y789732D01*
X189741Y789774D01*
X189407Y789832D01*
X189084Y789907D01*
X188774Y789999D01*
X188475Y790107D01*
X188188Y790232D01*
X187913Y790373D01*
X187649Y790532D01*
X187397Y790707D01*
X187157Y790898D01*
X186928Y791107D01*
X186711Y791332D01*
X186506Y791573D01*
X186313Y791832D01*
X186131Y792107D01*
X185961Y792398D01*
X185803Y792707D01*
X185657Y793032D01*
X185522Y793373D01*
X185399Y793732D01*
X185287Y794107D01*
X185188Y794498D01*
X185100Y794907D01*
X185024Y795331D01*
X184959Y795773D01*
X184907Y796231D01*
X184866Y796706D01*
X184836Y797198D01*
X184819Y797706D01*
X184813Y798231D01*
X184836Y799253D01*
X184864Y799739D01*
X184904Y800208D01*
X184955Y800661D01*
X185017Y801096D01*
X185091Y801515D01*
X185177Y801917D01*
X185273Y802303D01*
X185381Y802672D01*
X185500Y803024D01*
X185631Y803359D01*
X185773Y803678D01*
X185927Y803979D01*
X186091Y804265D01*
X186268Y804533D01*
X186456Y804785D01*
X186657Y805021D01*
X186871Y805240D01*
X187097Y805443D01*
X187337Y805630D01*
X187589Y805801D01*
X187854Y805955D01*
X188131Y806093D01*
X188422Y806215D01*
X188725Y806321D01*
X189041Y806410D01*
X189370Y806483D01*
X189712Y806540D01*
X190066Y806581D01*
X190433Y806605D01*
X190813Y806613D01*
X191263Y806603D01*
X191695Y806571D01*
X192109Y806518D01*
X192503Y806444D01*
X192879Y806348D01*
X193237Y806232D01*
X193576Y806094D01*
X193896Y805935D01*
X194199Y805751D01*
X194487Y805540D01*
X194760Y805301D01*
X195017Y805034D01*
X195259Y804740D01*
X195486Y804417D01*
X195697Y804067D01*
X195893Y803689D01*
X195954Y803689D01*
X195909Y804929D01*
X195893Y805995D01*
X195893Y812372D01*
X198607Y812372D01*
X198607Y793362D01*
X198613Y792196D01*
X198630Y791248D01*
X198658Y790515D01*
X198698Y790000D01*
X196074Y790000D01*
X196037Y790352D01*
X195984Y791108D01*
X195939Y791943D01*
X195924Y792533D01*
X195893Y792533D01*
X195694Y792172D01*
X195480Y791838D01*
X195252Y791529D01*
X195010Y791246D01*
X194753Y790988D01*
X194482Y790756D01*
X194196Y790550D01*
X193896Y790369D01*
X193579Y790212D01*
X193242Y790076D01*
X192886Y789961D01*
X192511Y789866D01*
X192116Y789793D01*
X191701Y789740D01*
X191267Y789709D01*
X190813Y789699D01*
G37*
%LPC*%
G36*
X191537Y791704D02*
X191820Y791710D01*
X192093Y791727D01*
X192610Y791799D01*
X193086Y791919D01*
X193523Y792086D01*
X193919Y792301D01*
X194276Y792564D01*
X194592Y792875D01*
X194868Y793234D01*
X195109Y793643D01*
X195317Y794104D01*
X195493Y794618D01*
X195637Y795184D01*
X195749Y795803D01*
X195829Y796475D01*
X195877Y797199D01*
X195893Y797975D01*
X195877Y798798D01*
X195828Y799564D01*
X195746Y800272D01*
X195632Y800922D01*
X195484Y801515D01*
X195304Y802051D01*
X195091Y802529D01*
X194846Y802950D01*
X194564Y803317D01*
X194244Y803636D01*
X193885Y803905D01*
X193487Y804126D01*
X193050Y804297D01*
X192817Y804365D01*
X192574Y804420D01*
X192322Y804463D01*
X192060Y804493D01*
X191788Y804512D01*
X191506Y804518D01*
X191015Y804495D01*
X190559Y804426D01*
X190139Y804310D01*
X189754Y804149D01*
X189404Y803941D01*
X189090Y803687D01*
X188810Y803387D01*
X188567Y803040D01*
X188355Y802641D01*
X188171Y802180D01*
X188015Y801659D01*
X187888Y801077D01*
X187789Y800434D01*
X187719Y799730D01*
X187676Y798966D01*
X187662Y798141D01*
X187676Y797319D01*
X187719Y796556D01*
X187790Y795852D01*
X187890Y795207D01*
X188018Y794621D01*
X188175Y794094D01*
X188360Y793627D01*
X188574Y793219D01*
X188820Y792864D01*
X189101Y792556D01*
X189418Y792295D01*
X189771Y792082D01*
X190159Y791917D01*
X190583Y791798D01*
X191042Y791727D01*
X191537Y791704D01*
G37*
%LPD*%
G36*
X264232Y789699D02*
X263790Y789707D01*
X263362Y789731D01*
X262947Y789772D01*
X262545Y789829D01*
X262156Y789903D01*
X261781Y789993D01*
X261419Y790100D01*
X261070Y790222D01*
X260735Y790362D01*
X260413Y790517D01*
X260104Y790689D01*
X259808Y790877D01*
X259526Y791082D01*
X259258Y791303D01*
X259002Y791540D01*
X258760Y791794D01*
X258532Y792064D01*
X258318Y792352D01*
X258119Y792657D01*
X257935Y792978D01*
X257766Y793317D01*
X257611Y793673D01*
X257472Y794046D01*
X257346Y794436D01*
X257236Y794843D01*
X257140Y795267D01*
X257059Y795709D01*
X256993Y796167D01*
X256942Y796642D01*
X256905Y797135D01*
X256883Y797644D01*
X256875Y798171D01*
X256882Y798703D01*
X256903Y799217D01*
X256937Y799714D01*
X256986Y800193D01*
X257048Y800654D01*
X257123Y801097D01*
X257213Y801523D01*
X257316Y801931D01*
X257433Y802321D01*
X257564Y802693D01*
X257709Y803048D01*
X257868Y803385D01*
X258040Y803704D01*
X258226Y804006D01*
X258426Y804289D01*
X258639Y804556D01*
X258867Y804805D01*
X259111Y805038D01*
X259370Y805255D01*
X259645Y805456D01*
X259934Y805641D01*
X260240Y805810D01*
X260561Y805962D01*
X260897Y806099D01*
X261248Y806220D01*
X261615Y806324D01*
X261998Y806412D01*
X262396Y806485D01*
X262809Y806541D01*
X263238Y806581D01*
X263682Y806605D01*
X264142Y806613D01*
X264592Y806605D01*
X265027Y806580D01*
X265448Y806539D01*
X265855Y806481D01*
X266248Y806407D01*
X266627Y806317D01*
X266991Y806209D01*
X267341Y806086D01*
X267676Y805946D01*
X267998Y805789D01*
X268305Y805616D01*
X268597Y805426D01*
X268876Y805220D01*
X269140Y804997D01*
X269390Y804758D01*
X269626Y804503D01*
X269847Y804231D01*
X270054Y803942D01*
X270247Y803637D01*
X270425Y803316D01*
X270590Y802978D01*
X270739Y802623D01*
X270875Y802252D01*
X270997Y801865D01*
X271104Y801461D01*
X271196Y801040D01*
X271275Y800603D01*
X271339Y800150D01*
X271389Y799680D01*
X271425Y799193D01*
X271446Y798690D01*
X271454Y798171D01*
X271446Y797664D01*
X271425Y797172D01*
X271389Y796696D01*
X271340Y796234D01*
X271275Y795788D01*
X271197Y795357D01*
X271104Y794941D01*
X270997Y794540D01*
X270876Y794154D01*
X270741Y793783D01*
X270591Y793428D01*
X270427Y793087D01*
X270249Y792762D01*
X270057Y792452D01*
X269850Y792157D01*
X269629Y791877D01*
X269395Y791613D01*
X269146Y791366D01*
X268884Y791137D01*
X268608Y790924D01*
X268318Y790728D01*
X268015Y790549D01*
X267698Y790388D01*
X267368Y790243D01*
X267024Y790115D01*
X266666Y790005D01*
X266295Y789911D01*
X265909Y789835D01*
X265511Y789775D01*
X265098Y789733D01*
X264672Y789707D01*
X264232Y789699D01*
G37*
%LPC*%
G36*
X264262Y791704D02*
X264539Y791710D01*
X264805Y791729D01*
X265063Y791761D01*
X265311Y791805D01*
X265549Y791862D01*
X265779Y791931D01*
X266209Y792109D01*
X266602Y792337D01*
X266958Y792615D01*
X267276Y792944D01*
X267556Y793324D01*
X267802Y793754D01*
X268015Y794235D01*
X268195Y794765D01*
X268342Y795346D01*
X268457Y795977D01*
X268539Y796658D01*
X268588Y797390D01*
X268604Y798171D01*
X268588Y798973D01*
X268538Y799720D01*
X268455Y800412D01*
X268339Y801049D01*
X268189Y801631D01*
X268006Y802158D01*
X267790Y802630D01*
X267541Y803048D01*
X267255Y803414D01*
X266928Y803731D01*
X266559Y803999D01*
X266149Y804218D01*
X265698Y804389D01*
X265456Y804456D01*
X265205Y804511D01*
X264943Y804553D01*
X264671Y804584D01*
X264389Y804602D01*
X264097Y804608D01*
X263806Y804602D01*
X263526Y804584D01*
X263257Y804555D01*
X262998Y804513D01*
X262513Y804393D01*
X262071Y804226D01*
X261671Y804011D01*
X261314Y803748D01*
X260999Y803437D01*
X260727Y803078D01*
X260492Y802667D01*
X260289Y802198D01*
X260116Y801671D01*
X259975Y801086D01*
X259866Y800444D01*
X259787Y799744D01*
X259740Y798986D01*
X259725Y798171D01*
X259741Y797366D01*
X259790Y796615D01*
X259872Y795920D01*
X259987Y795280D01*
X260134Y794695D01*
X260314Y794166D01*
X260527Y793691D01*
X260772Y793271D01*
X261056Y792904D01*
X261383Y792585D01*
X261754Y792316D01*
X261956Y792200D01*
X262169Y792096D01*
X262392Y792004D01*
X262627Y791924D01*
X262872Y791857D01*
X263128Y791802D01*
X263396Y791759D01*
X263674Y791728D01*
X263963Y791710D01*
X264262Y791704D01*
G37*
%LPD*%
G36*
X317389Y789699D02*
X316947Y789707D01*
X316518Y789731D01*
X316103Y789772D01*
X315701Y789829D01*
X315312Y789903D01*
X314937Y789993D01*
X314575Y790100D01*
X314226Y790222D01*
X313891Y790362D01*
X313569Y790517D01*
X313260Y790689D01*
X312965Y790877D01*
X312683Y791082D01*
X312414Y791303D01*
X312158Y791540D01*
X311916Y791794D01*
X311688Y792064D01*
X311474Y792352D01*
X311276Y792657D01*
X311092Y792978D01*
X310922Y793317D01*
X310768Y793673D01*
X310628Y794046D01*
X310503Y794436D01*
X310392Y794843D01*
X310297Y795267D01*
X310216Y795709D01*
X310149Y796167D01*
X310098Y796642D01*
X310061Y797135D01*
X310039Y797644D01*
X310032Y798171D01*
X310038Y798703D01*
X310059Y799217D01*
X310094Y799714D01*
X310142Y800193D01*
X310204Y800654D01*
X310280Y801097D01*
X310369Y801523D01*
X310473Y801931D01*
X310590Y802321D01*
X310721Y802693D01*
X310865Y803048D01*
X311024Y803385D01*
X311196Y803704D01*
X311382Y804006D01*
X311582Y804289D01*
X311795Y804556D01*
X312024Y804805D01*
X312267Y805038D01*
X312526Y805255D01*
X312801Y805456D01*
X313091Y805641D01*
X313396Y805810D01*
X313717Y805962D01*
X314053Y806099D01*
X314405Y806220D01*
X314772Y806324D01*
X315154Y806412D01*
X315552Y806485D01*
X315965Y806541D01*
X316394Y806581D01*
X316838Y806605D01*
X317298Y806613D01*
X317748Y806605D01*
X318183Y806580D01*
X318605Y806539D01*
X319012Y806481D01*
X319404Y806407D01*
X319783Y806317D01*
X320147Y806209D01*
X320497Y806086D01*
X320833Y805946D01*
X321154Y805789D01*
X321461Y805616D01*
X321754Y805426D01*
X322032Y805220D01*
X322296Y804997D01*
X322546Y804758D01*
X322782Y804503D01*
X323003Y804231D01*
X323210Y803942D01*
X323403Y803637D01*
X323582Y803316D01*
X323746Y802978D01*
X323896Y802623D01*
X324031Y802252D01*
X324153Y801865D01*
X324260Y801461D01*
X324353Y801040D01*
X324431Y800603D01*
X324496Y800150D01*
X324546Y799680D01*
X324581Y799193D01*
X324603Y798690D01*
X324610Y798171D01*
X324603Y797664D01*
X324581Y797172D01*
X324546Y796696D01*
X324496Y796234D01*
X324432Y795788D01*
X324353Y795357D01*
X324261Y794941D01*
X324154Y794540D01*
X324033Y794154D01*
X323897Y793783D01*
X323748Y793428D01*
X323584Y793087D01*
X323406Y792762D01*
X323213Y792452D01*
X323007Y792157D01*
X322786Y791877D01*
X322551Y791613D01*
X322302Y791366D01*
X322040Y791137D01*
X321764Y790924D01*
X321475Y790728D01*
X321172Y790549D01*
X320855Y790388D01*
X320524Y790243D01*
X320180Y790115D01*
X319822Y790005D01*
X319451Y789911D01*
X319066Y789835D01*
X318667Y789775D01*
X318254Y789733D01*
X317828Y789707D01*
X317389Y789699D01*
G37*
%LPC*%
G36*
X317419Y791704D02*
X317695Y791710D01*
X317962Y791729D01*
X318219Y791761D01*
X318467Y791805D01*
X318706Y791862D01*
X318935Y791931D01*
X319365Y792109D01*
X319758Y792337D01*
X320114Y792615D01*
X320432Y792944D01*
X320713Y793324D01*
X320958Y793754D01*
X321171Y794235D01*
X321351Y794765D01*
X321499Y795346D01*
X321613Y795977D01*
X321695Y796658D01*
X321744Y797390D01*
X321760Y798171D01*
X321744Y798973D01*
X321694Y799720D01*
X321611Y800412D01*
X321495Y801049D01*
X321345Y801631D01*
X321163Y802158D01*
X320947Y802630D01*
X320698Y803048D01*
X320411Y803414D01*
X320084Y803731D01*
X319715Y803999D01*
X319305Y804218D01*
X318854Y804389D01*
X318613Y804456D01*
X318361Y804511D01*
X318100Y804553D01*
X317828Y804584D01*
X317545Y804602D01*
X317253Y804608D01*
X316962Y804602D01*
X316682Y804584D01*
X316413Y804555D01*
X316155Y804513D01*
X315670Y804393D01*
X315227Y804226D01*
X314827Y804011D01*
X314470Y803748D01*
X314155Y803437D01*
X313883Y803078D01*
X313648Y802667D01*
X313445Y802198D01*
X313273Y801671D01*
X313132Y801086D01*
X313022Y800444D01*
X312944Y799744D01*
X312897Y798986D01*
X312881Y798171D01*
X312897Y797366D01*
X312946Y796615D01*
X313028Y795920D01*
X313143Y795280D01*
X313290Y794695D01*
X313470Y794166D01*
X313683Y793691D01*
X313929Y793271D01*
X314212Y792904D01*
X314540Y792585D01*
X314911Y792316D01*
X315112Y792200D01*
X315325Y792096D01*
X315549Y792004D01*
X315783Y791924D01*
X316028Y791857D01*
X316285Y791802D01*
X316552Y791759D01*
X316830Y791728D01*
X317119Y791710D01*
X317419Y791704D01*
G37*
%LPD*%
G36*
X375701Y789699D02*
X375259Y789707D01*
X374831Y789731D01*
X374415Y789772D01*
X374013Y789829D01*
X373625Y789903D01*
X373250Y789993D01*
X372888Y790100D01*
X372539Y790222D01*
X372204Y790362D01*
X371881Y790517D01*
X371573Y790689D01*
X371277Y790877D01*
X370995Y791082D01*
X370726Y791303D01*
X370471Y791540D01*
X370229Y791794D01*
X370000Y792064D01*
X369787Y792352D01*
X369588Y792657D01*
X369404Y792978D01*
X369235Y793317D01*
X369080Y793673D01*
X368940Y794046D01*
X368815Y794436D01*
X368705Y794843D01*
X368609Y795267D01*
X368528Y795709D01*
X368462Y796167D01*
X368410Y796642D01*
X368374Y797135D01*
X368351Y797644D01*
X368344Y798171D01*
X368351Y798703D01*
X368372Y799217D01*
X368406Y799714D01*
X368454Y800193D01*
X368516Y800654D01*
X368592Y801097D01*
X368682Y801523D01*
X368785Y801931D01*
X368902Y802321D01*
X369033Y802693D01*
X369178Y803048D01*
X369336Y803385D01*
X369509Y803704D01*
X369695Y804006D01*
X369894Y804289D01*
X370108Y804556D01*
X370336Y804805D01*
X370580Y805038D01*
X370839Y805255D01*
X371113Y805456D01*
X371403Y805641D01*
X371709Y805810D01*
X372029Y805962D01*
X372366Y806099D01*
X372717Y806220D01*
X373084Y806324D01*
X373467Y806412D01*
X373865Y806485D01*
X374278Y806541D01*
X374707Y806581D01*
X375151Y806605D01*
X375611Y806613D01*
X376060Y806605D01*
X376496Y806580D01*
X376917Y806539D01*
X377324Y806481D01*
X377717Y806407D01*
X378095Y806317D01*
X378460Y806209D01*
X378809Y806086D01*
X379145Y805946D01*
X379466Y805789D01*
X379773Y805616D01*
X380066Y805426D01*
X380345Y805220D01*
X380609Y804997D01*
X380859Y804758D01*
X381094Y804503D01*
X381316Y804231D01*
X381523Y803942D01*
X381716Y803637D01*
X381894Y803316D01*
X382058Y802978D01*
X382208Y802623D01*
X382344Y802252D01*
X382465Y801865D01*
X382572Y801461D01*
X382665Y801040D01*
X382744Y800603D01*
X382808Y800150D01*
X382858Y799680D01*
X382894Y799193D01*
X382915Y798690D01*
X382922Y798171D01*
X382915Y797664D01*
X382894Y797172D01*
X382858Y796696D01*
X382808Y796234D01*
X382744Y795788D01*
X382666Y795357D01*
X382573Y794941D01*
X382466Y794540D01*
X382345Y794154D01*
X382210Y793783D01*
X382060Y793428D01*
X381896Y793087D01*
X381718Y792762D01*
X381526Y792452D01*
X381319Y792157D01*
X381098Y791877D01*
X380863Y791613D01*
X380615Y791366D01*
X380353Y791137D01*
X380077Y790924D01*
X379787Y790728D01*
X379484Y790549D01*
X379167Y790388D01*
X378837Y790243D01*
X378493Y790115D01*
X378135Y790005D01*
X377763Y789911D01*
X377378Y789835D01*
X376979Y789775D01*
X376567Y789733D01*
X376141Y789707D01*
X375701Y789699D01*
G37*
%LPC*%
G36*
X375731Y791704D02*
X376007Y791710D01*
X376274Y791729D01*
X376531Y791761D01*
X376779Y791805D01*
X377018Y791862D01*
X377247Y791931D01*
X377678Y792109D01*
X378071Y792337D01*
X378426Y792615D01*
X378745Y792944D01*
X379025Y793324D01*
X379271Y793754D01*
X379484Y794235D01*
X379664Y794765D01*
X379811Y795346D01*
X379926Y795977D01*
X380007Y796658D01*
X380057Y797390D01*
X380073Y798171D01*
X380056Y798973D01*
X380007Y799720D01*
X379924Y800412D01*
X379807Y801049D01*
X379658Y801631D01*
X379475Y802158D01*
X379259Y802630D01*
X379010Y803048D01*
X378724Y803414D01*
X378396Y803731D01*
X378028Y803999D01*
X377618Y804218D01*
X377166Y804389D01*
X376925Y804456D01*
X376674Y804511D01*
X376412Y804553D01*
X376140Y804584D01*
X375858Y804602D01*
X375565Y804608D01*
X375275Y804602D01*
X374995Y804584D01*
X374726Y804555D01*
X374467Y804513D01*
X373982Y804393D01*
X373540Y804226D01*
X373140Y804011D01*
X372782Y803748D01*
X372468Y803437D01*
X372196Y803078D01*
X371961Y802667D01*
X371757Y802198D01*
X371585Y801671D01*
X371444Y801086D01*
X371334Y800444D01*
X371256Y799744D01*
X371209Y798986D01*
X371193Y798171D01*
X371210Y797366D01*
X371259Y796615D01*
X371341Y795920D01*
X371455Y795280D01*
X371603Y794695D01*
X371783Y794166D01*
X371996Y793691D01*
X372241Y793271D01*
X372525Y792904D01*
X372852Y792585D01*
X373223Y792316D01*
X373425Y792200D01*
X373638Y792096D01*
X373861Y792004D01*
X374096Y791924D01*
X374341Y791857D01*
X374597Y791802D01*
X374864Y791759D01*
X375142Y791728D01*
X375431Y791710D01*
X375731Y791704D01*
G37*
%LPD*%
G36*
X401420Y789699D02*
X400978Y789707D01*
X400549Y789731D01*
X400134Y789772D01*
X399732Y789829D01*
X399344Y789903D01*
X398968Y789993D01*
X398606Y790100D01*
X398258Y790222D01*
X397922Y790362D01*
X397600Y790517D01*
X397291Y790689D01*
X396996Y790877D01*
X396714Y791082D01*
X396445Y791303D01*
X396190Y791540D01*
X395947Y791794D01*
X395719Y792064D01*
X395506Y792352D01*
X395307Y792657D01*
X395123Y792978D01*
X394954Y793317D01*
X394799Y793673D01*
X394659Y794046D01*
X394534Y794436D01*
X394424Y794843D01*
X394328Y795267D01*
X394247Y795709D01*
X394181Y796167D01*
X394129Y796642D01*
X394092Y797135D01*
X394070Y797644D01*
X394063Y798171D01*
X394070Y798703D01*
X394090Y799217D01*
X394125Y799714D01*
X394173Y800193D01*
X394235Y800654D01*
X394311Y801097D01*
X394400Y801523D01*
X394504Y801931D01*
X394621Y802321D01*
X394752Y802693D01*
X394897Y803048D01*
X395055Y803385D01*
X395227Y803704D01*
X395413Y804006D01*
X395613Y804289D01*
X395827Y804556D01*
X396055Y804805D01*
X396299Y805038D01*
X396558Y805255D01*
X396832Y805456D01*
X397122Y805641D01*
X397427Y805810D01*
X397748Y805962D01*
X398084Y806099D01*
X398436Y806220D01*
X398803Y806324D01*
X399185Y806412D01*
X399583Y806485D01*
X399997Y806541D01*
X400425Y806581D01*
X400870Y806605D01*
X401329Y806613D01*
X401779Y806605D01*
X402215Y806580D01*
X402636Y806539D01*
X403043Y806481D01*
X403436Y806407D01*
X403814Y806317D01*
X404178Y806209D01*
X404528Y806086D01*
X404864Y805946D01*
X405185Y805789D01*
X405492Y805616D01*
X405785Y805426D01*
X406063Y805220D01*
X406328Y804997D01*
X406577Y804758D01*
X406813Y804503D01*
X407034Y804231D01*
X407242Y803942D01*
X407434Y803637D01*
X407613Y803316D01*
X407777Y802978D01*
X407927Y802623D01*
X408063Y802252D01*
X408184Y801865D01*
X408291Y801461D01*
X408384Y801040D01*
X408463Y800603D01*
X408527Y800150D01*
X408577Y799680D01*
X408612Y799193D01*
X408634Y798690D01*
X408641Y798171D01*
X408634Y797664D01*
X408613Y797172D01*
X408577Y796696D01*
X408527Y796234D01*
X408463Y795788D01*
X408385Y795357D01*
X408292Y794941D01*
X408185Y794540D01*
X408064Y794154D01*
X407928Y793783D01*
X407779Y793428D01*
X407615Y793087D01*
X407437Y792762D01*
X407244Y792452D01*
X407038Y792157D01*
X406817Y791877D01*
X406582Y791613D01*
X406334Y791366D01*
X406071Y791137D01*
X405795Y790924D01*
X405506Y790728D01*
X405203Y790549D01*
X404886Y790388D01*
X404556Y790243D01*
X404211Y790115D01*
X403854Y790005D01*
X403482Y789911D01*
X403097Y789835D01*
X402698Y789775D01*
X402286Y789733D01*
X401860Y789707D01*
X401420Y789699D01*
G37*
%LPC*%
G36*
X401450Y791704D02*
X401726Y791710D01*
X401993Y791729D01*
X402250Y791761D01*
X402498Y791805D01*
X402737Y791862D01*
X402966Y791931D01*
X403397Y792109D01*
X403790Y792337D01*
X404145Y792615D01*
X404463Y792944D01*
X404744Y793324D01*
X404990Y793754D01*
X405202Y794235D01*
X405382Y794765D01*
X405530Y795346D01*
X405644Y795977D01*
X405726Y796658D01*
X405775Y797390D01*
X405792Y798171D01*
X405775Y798973D01*
X405725Y799720D01*
X405642Y800412D01*
X405526Y801049D01*
X405377Y801631D01*
X405194Y802158D01*
X404978Y802630D01*
X404729Y803048D01*
X404443Y803414D01*
X404115Y803731D01*
X403746Y803999D01*
X403336Y804218D01*
X402885Y804389D01*
X402644Y804456D01*
X402393Y804511D01*
X402131Y804553D01*
X401859Y804584D01*
X401577Y804602D01*
X401284Y804608D01*
X400994Y804602D01*
X400714Y804584D01*
X400444Y804555D01*
X400186Y804513D01*
X399701Y804393D01*
X399258Y804226D01*
X398858Y804011D01*
X398501Y803748D01*
X398187Y803437D01*
X397915Y803078D01*
X397680Y802667D01*
X397476Y802198D01*
X397304Y801671D01*
X397163Y801086D01*
X397053Y800444D01*
X396975Y799744D01*
X396928Y798986D01*
X396912Y798171D01*
X396929Y797366D01*
X396978Y796615D01*
X397059Y795920D01*
X397174Y795280D01*
X397321Y794695D01*
X397502Y794166D01*
X397714Y793691D01*
X397960Y793271D01*
X398244Y792904D01*
X398571Y792585D01*
X398942Y792316D01*
X399144Y792200D01*
X399356Y792096D01*
X399580Y792004D01*
X399814Y791924D01*
X400060Y791857D01*
X400316Y791802D01*
X400583Y791759D01*
X400861Y791728D01*
X401150Y791710D01*
X401450Y791704D01*
G37*
%LPD*%
G36*
X154375Y790000D02*
X151782Y790000D01*
X151782Y811242D01*
X155476Y811242D01*
X161024Y796513D01*
X161222Y795968D01*
X161544Y794967D01*
X161862Y793895D01*
X162049Y793136D01*
X162186Y793729D01*
X162418Y794606D01*
X162703Y795591D01*
X162999Y796513D01*
X168652Y811242D01*
X172436Y811242D01*
X172436Y790000D01*
X169873Y790000D01*
X169873Y804171D01*
X169934Y807020D01*
X169979Y808694D01*
X169481Y807036D01*
X168637Y804473D01*
X163074Y790000D01*
X161054Y790000D01*
X155566Y804473D01*
X155263Y805307D01*
X154941Y806289D01*
X154600Y807418D01*
X154240Y808694D01*
X154299Y807597D01*
X154341Y806478D01*
X154367Y805336D01*
X154375Y804171D01*
X154375Y790000D01*
G37*
G36*
X415063Y790000D02*
X412470Y790000D01*
X412470Y811242D01*
X416163Y811242D01*
X421711Y796513D01*
X421909Y795968D01*
X422231Y794967D01*
X422550Y793895D01*
X422736Y793136D01*
X422874Y793729D01*
X423106Y794606D01*
X423390Y795591D01*
X423686Y796513D01*
X429340Y811242D01*
X433124Y811242D01*
X433124Y790000D01*
X430561Y790000D01*
X430561Y804171D01*
X430621Y807020D01*
X430666Y808694D01*
X430169Y807036D01*
X429324Y804473D01*
X423762Y790000D01*
X421741Y790000D01*
X416254Y804473D01*
X415950Y805307D01*
X415628Y806289D01*
X415287Y807418D01*
X414927Y808694D01*
X414987Y807597D01*
X415029Y806478D01*
X415054Y805336D01*
X415063Y804171D01*
X415063Y790000D01*
G37*
G36*
X223256Y790000D02*
X220377Y790000D01*
X220377Y811242D01*
X223256Y811242D01*
X223256Y802257D01*
X234744Y802257D01*
X234744Y811242D01*
X237624Y811242D01*
X237624Y790000D01*
X234744Y790000D01*
X234744Y799844D01*
X223256Y799844D01*
X223256Y790000D01*
G37*
G36*
X336294Y789699D02*
X335522Y789721D01*
X334774Y789788D01*
X334049Y789900D01*
X333349Y790057D01*
X332672Y790258D01*
X332019Y790504D01*
X331389Y790795D01*
X330784Y791131D01*
X330207Y791509D01*
X329663Y791929D01*
X329152Y792389D01*
X328675Y792891D01*
X328231Y793433D01*
X327820Y794017D01*
X327442Y794641D01*
X327098Y795307D01*
X329450Y796483D01*
X329739Y795948D01*
X330046Y795447D01*
X330370Y794981D01*
X330711Y794550D01*
X331070Y794153D01*
X331446Y793791D01*
X331839Y793463D01*
X332250Y793170D01*
X332678Y792911D01*
X333123Y792687D01*
X333586Y792497D01*
X334066Y792341D01*
X334563Y792221D01*
X335077Y792134D01*
X335609Y792083D01*
X336158Y792065D01*
X336588Y792075D01*
X337006Y792102D01*
X337414Y792149D01*
X337809Y792214D01*
X338194Y792297D01*
X338568Y792399D01*
X338930Y792520D01*
X339281Y792659D01*
X339620Y792817D01*
X339949Y792993D01*
X340266Y793188D01*
X340572Y793401D01*
X340867Y793633D01*
X341150Y793883D01*
X341423Y794152D01*
X341683Y794440D01*
X341931Y794743D01*
X342162Y795057D01*
X342378Y795384D01*
X342577Y795723D01*
X342761Y796073D01*
X342928Y796436D01*
X343080Y796810D01*
X343216Y797197D01*
X343335Y797595D01*
X343439Y798006D01*
X343527Y798428D01*
X343599Y798862D01*
X343654Y799308D01*
X343694Y799767D01*
X343718Y800237D01*
X343726Y800719D01*
X343719Y801206D01*
X343696Y801680D01*
X343657Y802141D01*
X343604Y802589D01*
X343535Y803023D01*
X343451Y803445D01*
X343351Y803853D01*
X343236Y804248D01*
X343106Y804631D01*
X342961Y804999D01*
X342800Y805355D01*
X342624Y805698D01*
X342432Y806028D01*
X342226Y806344D01*
X342004Y806647D01*
X341766Y806938D01*
X341515Y807212D01*
X341252Y807469D01*
X340976Y807709D01*
X340688Y807930D01*
X340388Y808134D01*
X340076Y808320D01*
X339751Y808489D01*
X339415Y808639D01*
X339065Y808772D01*
X338704Y808887D01*
X338331Y808985D01*
X337945Y809065D01*
X337547Y809127D01*
X337136Y809171D01*
X336714Y809198D01*
X336279Y809206D01*
X335727Y809191D01*
X335194Y809145D01*
X334680Y809069D01*
X334185Y808961D01*
X333709Y808824D01*
X333253Y808655D01*
X332815Y808456D01*
X332397Y808227D01*
X332002Y807968D01*
X331635Y807682D01*
X331296Y807369D01*
X330985Y807028D01*
X330703Y806660D01*
X330448Y806265D01*
X330221Y805842D01*
X330022Y805392D01*
X327294Y806297D01*
X327580Y806929D01*
X327904Y807521D01*
X328266Y808073D01*
X328666Y808585D01*
X329103Y809056D01*
X329578Y809488D01*
X330090Y809880D01*
X330641Y810232D01*
X331227Y810543D01*
X331848Y810812D01*
X332505Y811040D01*
X333196Y811227D01*
X333922Y811372D01*
X334683Y811475D01*
X335478Y811537D01*
X336309Y811558D01*
X336908Y811547D01*
X337490Y811513D01*
X338055Y811457D01*
X338604Y811378D01*
X339137Y811277D01*
X339653Y811153D01*
X340153Y811007D01*
X340636Y810838D01*
X341102Y810647D01*
X341553Y810433D01*
X341986Y810197D01*
X342403Y809939D01*
X342804Y809657D01*
X343188Y809354D01*
X343556Y809027D01*
X343907Y808679D01*
X344239Y808310D01*
X344550Y807925D01*
X344840Y807522D01*
X345108Y807101D01*
X345354Y806664D01*
X345579Y806210D01*
X345783Y805738D01*
X345965Y805249D01*
X346126Y804743D01*
X346265Y804220D01*
X346383Y803679D01*
X346479Y803121D01*
X346554Y802547D01*
X346608Y801955D01*
X346640Y801345D01*
X346651Y800719D01*
X346632Y799885D01*
X346574Y799080D01*
X346478Y798303D01*
X346344Y797555D01*
X346171Y796835D01*
X345960Y796144D01*
X345710Y795481D01*
X345422Y794847D01*
X345098Y794245D01*
X344738Y793678D01*
X344344Y793148D01*
X343915Y792653D01*
X343451Y792194D01*
X342952Y791771D01*
X342418Y791384D01*
X341849Y791033D01*
X341250Y790720D01*
X340623Y790449D01*
X339969Y790220D01*
X339288Y790032D01*
X338580Y789886D01*
X337845Y789782D01*
X337083Y789719D01*
X336294Y789699D01*
G37*
G36*
X454606Y789699D02*
X453834Y789721D01*
X453086Y789788D01*
X452362Y789900D01*
X451661Y790057D01*
X450984Y790258D01*
X450331Y790504D01*
X449702Y790795D01*
X449096Y791131D01*
X448519Y791509D01*
X447975Y791929D01*
X447465Y792389D01*
X446988Y792891D01*
X446543Y793433D01*
X446132Y794017D01*
X445755Y794641D01*
X445410Y795307D01*
X447762Y796483D01*
X448051Y795948D01*
X448358Y795447D01*
X448682Y794981D01*
X449024Y794550D01*
X449382Y794153D01*
X449758Y793791D01*
X450152Y793463D01*
X450562Y793170D01*
X450990Y792911D01*
X451436Y792687D01*
X451898Y792497D01*
X452378Y792341D01*
X452875Y792221D01*
X453390Y792134D01*
X453922Y792083D01*
X454471Y792065D01*
X454900Y792075D01*
X455319Y792102D01*
X455726Y792149D01*
X456122Y792214D01*
X456507Y792297D01*
X456880Y792399D01*
X457242Y792520D01*
X457593Y792659D01*
X457933Y792817D01*
X458261Y792993D01*
X458579Y793188D01*
X458885Y793401D01*
X459179Y793633D01*
X459463Y793883D01*
X459735Y794152D01*
X459996Y794440D01*
X460243Y794743D01*
X460475Y795057D01*
X460690Y795384D01*
X460890Y795723D01*
X461073Y796073D01*
X461241Y796436D01*
X461392Y796810D01*
X461528Y797197D01*
X461648Y797595D01*
X461751Y798006D01*
X461839Y798428D01*
X461911Y798862D01*
X461967Y799308D01*
X462007Y799767D01*
X462031Y800237D01*
X462039Y800719D01*
X462031Y801206D01*
X462008Y801680D01*
X461970Y802141D01*
X461916Y802589D01*
X461847Y803023D01*
X461763Y803445D01*
X461664Y803853D01*
X461549Y804248D01*
X461419Y804631D01*
X461273Y804999D01*
X461112Y805355D01*
X460936Y805698D01*
X460745Y806028D01*
X460538Y806344D01*
X460316Y806647D01*
X460079Y806938D01*
X459828Y807212D01*
X459564Y807469D01*
X459289Y807709D01*
X459001Y807930D01*
X458701Y808134D01*
X458389Y808320D01*
X458064Y808489D01*
X457727Y808639D01*
X457378Y808772D01*
X457017Y808887D01*
X456643Y808985D01*
X456257Y809065D01*
X455859Y809127D01*
X455449Y809171D01*
X455026Y809198D01*
X454591Y809206D01*
X454039Y809191D01*
X453506Y809145D01*
X452992Y809069D01*
X452498Y808961D01*
X452022Y808824D01*
X451565Y808655D01*
X451128Y808456D01*
X450709Y808227D01*
X450314Y807968D01*
X449948Y807682D01*
X449609Y807369D01*
X449298Y807028D01*
X449015Y806660D01*
X448760Y806265D01*
X448534Y805842D01*
X448335Y805392D01*
X445606Y806297D01*
X445893Y806929D01*
X446217Y807521D01*
X446579Y808073D01*
X446978Y808585D01*
X447415Y809056D01*
X447890Y809488D01*
X448403Y809880D01*
X448953Y810232D01*
X449540Y810543D01*
X450161Y810812D01*
X450817Y811040D01*
X451508Y811227D01*
X452234Y811372D01*
X452995Y811475D01*
X453791Y811537D01*
X454621Y811558D01*
X455220Y811547D01*
X455802Y811513D01*
X456368Y811457D01*
X456917Y811378D01*
X457449Y811277D01*
X457965Y811153D01*
X458465Y811007D01*
X458948Y810838D01*
X459415Y810647D01*
X459865Y810433D01*
X460299Y810197D01*
X460716Y809939D01*
X461117Y809657D01*
X461501Y809354D01*
X461868Y809027D01*
X462220Y808679D01*
X462552Y808310D01*
X462863Y807925D01*
X463152Y807522D01*
X463420Y807101D01*
X463667Y806664D01*
X463892Y806210D01*
X464095Y805738D01*
X464277Y805249D01*
X464438Y804743D01*
X464578Y804220D01*
X464695Y803679D01*
X464792Y803121D01*
X464867Y802547D01*
X464921Y801955D01*
X464953Y801345D01*
X464963Y800719D01*
X464944Y799885D01*
X464887Y799080D01*
X464791Y798303D01*
X464656Y797555D01*
X464483Y796835D01*
X464272Y796144D01*
X464023Y795481D01*
X463735Y794847D01*
X463410Y794245D01*
X463051Y793678D01*
X462656Y793148D01*
X462227Y792653D01*
X461763Y792194D01*
X461264Y791771D01*
X460730Y791384D01*
X460162Y791033D01*
X459562Y790720D01*
X458935Y790449D01*
X458282Y790220D01*
X457601Y790032D01*
X456893Y789886D01*
X456158Y789782D01*
X455396Y789719D01*
X454606Y789699D01*
G37*
G36*
X108079Y789699D02*
X107652Y789705D01*
X107237Y789724D01*
X106835Y789755D01*
X106445Y789799D01*
X106068Y789856D01*
X105703Y789925D01*
X105351Y790007D01*
X105011Y790102D01*
X104684Y790209D01*
X104369Y790329D01*
X104067Y790461D01*
X103777Y790606D01*
X103500Y790763D01*
X103235Y790934D01*
X102982Y791116D01*
X102743Y791312D01*
X102516Y791518D01*
X102304Y791736D01*
X102107Y791963D01*
X101925Y792201D01*
X101757Y792449D01*
X101603Y792708D01*
X101465Y792977D01*
X101340Y793256D01*
X101231Y793546D01*
X101136Y793846D01*
X101056Y794157D01*
X100990Y794477D01*
X100939Y794809D01*
X100902Y795150D01*
X100880Y795502D01*
X100873Y795864D01*
X100894Y796362D01*
X100956Y796839D01*
X101060Y797293D01*
X101205Y797726D01*
X101391Y798138D01*
X101619Y798527D01*
X101889Y798895D01*
X102200Y799241D01*
X102548Y799560D01*
X102929Y799844D01*
X103343Y800095D01*
X103790Y800312D01*
X104270Y800495D01*
X104783Y800643D01*
X105329Y800758D01*
X105908Y800839D01*
X105908Y800900D01*
X105382Y801026D01*
X104888Y801177D01*
X104425Y801354D01*
X103996Y801557D01*
X103598Y801786D01*
X103233Y802040D01*
X102900Y802320D01*
X102599Y802626D01*
X102333Y802956D01*
X102101Y803310D01*
X101906Y803688D01*
X101746Y804090D01*
X101621Y804516D01*
X101532Y804965D01*
X101479Y805438D01*
X101461Y805935D01*
X101468Y806262D01*
X101489Y806580D01*
X101523Y806889D01*
X101572Y807189D01*
X101634Y807479D01*
X101710Y807761D01*
X101800Y808033D01*
X101904Y808296D01*
X102022Y808550D01*
X102153Y808795D01*
X102298Y809031D01*
X102457Y809258D01*
X102817Y809684D01*
X103232Y810073D01*
X103698Y810421D01*
X104207Y810723D01*
X104761Y810978D01*
X105360Y811187D01*
X106003Y811349D01*
X106691Y811465D01*
X107423Y811535D01*
X108200Y811558D01*
X108914Y811535D01*
X109596Y811467D01*
X110244Y811353D01*
X110859Y811193D01*
X111441Y810987D01*
X111989Y810736D01*
X112504Y810439D01*
X112986Y810096D01*
X113428Y809712D01*
X113820Y809293D01*
X114163Y808838D01*
X114458Y808347D01*
X114704Y807820D01*
X114902Y807258D01*
X115050Y806660D01*
X115106Y806347D01*
X115150Y806025D01*
X112421Y805814D01*
X112361Y806221D01*
X112273Y806604D01*
X112155Y806963D01*
X112008Y807299D01*
X111833Y807612D01*
X111628Y807900D01*
X111395Y808166D01*
X111132Y808407D01*
X110844Y808623D01*
X110535Y808810D01*
X110205Y808968D01*
X109853Y809097D01*
X109479Y809198D01*
X109084Y809270D01*
X108668Y809313D01*
X108230Y809327D01*
X107752Y809312D01*
X107303Y809265D01*
X106886Y809188D01*
X106498Y809080D01*
X106141Y808941D01*
X105815Y808772D01*
X105518Y808571D01*
X105253Y808340D01*
X105018Y808082D01*
X104814Y807801D01*
X104642Y807498D01*
X104501Y807173D01*
X104391Y806826D01*
X104313Y806456D01*
X104266Y806063D01*
X104250Y805649D01*
X104269Y805231D01*
X104327Y804836D01*
X104423Y804465D01*
X104557Y804116D01*
X104730Y803792D01*
X104941Y803490D01*
X105191Y803212D01*
X105479Y802958D01*
X105802Y802730D01*
X106156Y802532D01*
X106541Y802365D01*
X106958Y802228D01*
X107406Y802122D01*
X107886Y802046D01*
X108396Y802000D01*
X108939Y801985D01*
X110416Y801985D01*
X110416Y799633D01*
X108878Y799633D01*
X108267Y799618D01*
X107693Y799573D01*
X107157Y799497D01*
X106657Y799390D01*
X106194Y799254D01*
X105768Y799086D01*
X105379Y798889D01*
X105026Y798661D01*
X104714Y798406D01*
X104443Y798127D01*
X104213Y797825D01*
X104026Y797498D01*
X103880Y797148D01*
X103776Y796774D01*
X103713Y796376D01*
X103692Y795955D01*
X103711Y795473D01*
X103765Y795021D01*
X103857Y794600D01*
X103984Y794210D01*
X104149Y793850D01*
X104349Y793521D01*
X104587Y793223D01*
X104861Y792955D01*
X105167Y792718D01*
X105500Y792513D01*
X105861Y792339D01*
X106250Y792197D01*
X106666Y792087D01*
X107109Y792008D01*
X107581Y791961D01*
X108079Y791945D01*
X108576Y791959D01*
X109045Y792004D01*
X109487Y792077D01*
X109901Y792180D01*
X110287Y792313D01*
X110645Y792475D01*
X110976Y792666D01*
X111279Y792887D01*
X111555Y793137D01*
X111802Y793417D01*
X112022Y793726D01*
X112215Y794065D01*
X112379Y794433D01*
X112517Y794830D01*
X112626Y795257D01*
X112708Y795714D01*
X115512Y795457D01*
X115460Y795107D01*
X115397Y794767D01*
X115321Y794438D01*
X115233Y794120D01*
X115133Y793813D01*
X115021Y793517D01*
X114896Y793231D01*
X114760Y792957D01*
X114450Y792440D01*
X114091Y791968D01*
X113684Y791539D01*
X113228Y791153D01*
X112727Y790812D01*
X112185Y790517D01*
X111603Y790267D01*
X110980Y790062D01*
X110316Y789903D01*
X109611Y789789D01*
X108865Y789721D01*
X108079Y789699D01*
G37*
G36*
X136948Y790000D02*
X133767Y790000D01*
X140732Y799302D01*
X134114Y806312D01*
X137295Y806312D01*
X144456Y798397D01*
X144456Y812372D01*
X147170Y812372D01*
X147170Y790000D01*
X144456Y790000D01*
X144456Y795804D01*
X142466Y797447D01*
X136948Y790000D01*
G37*
G36*
X296313Y790000D02*
X293584Y790000D01*
X293584Y800870D01*
X293603Y801611D01*
X293662Y802298D01*
X293759Y802931D01*
X293895Y803510D01*
X294070Y804034D01*
X294283Y804503D01*
X294536Y804918D01*
X294828Y805279D01*
X295161Y805592D01*
X295539Y805863D01*
X295963Y806092D01*
X296431Y806280D01*
X296945Y806426D01*
X297503Y806530D01*
X298106Y806593D01*
X298755Y806613D01*
X299202Y806602D01*
X299630Y806570D01*
X300039Y806515D01*
X300430Y806438D01*
X300802Y806340D01*
X301156Y806219D01*
X301491Y806077D01*
X301808Y805912D01*
X302110Y805722D01*
X302404Y805500D01*
X302688Y805248D01*
X302963Y804965D01*
X303229Y804650D01*
X303485Y804305D01*
X303733Y803930D01*
X303971Y803523D01*
X304016Y803523D01*
X304069Y805144D01*
X304107Y805905D01*
X304137Y806312D01*
X306700Y806312D01*
X306660Y805857D01*
X306632Y805125D01*
X306615Y804116D01*
X306609Y802829D01*
X306609Y790000D01*
X303896Y790000D01*
X303896Y799452D01*
X303878Y800032D01*
X303825Y800578D01*
X303737Y801093D01*
X303613Y801574D01*
X303454Y802024D01*
X303260Y802440D01*
X303030Y802824D01*
X302765Y803176D01*
X302469Y803491D01*
X302148Y803763D01*
X301800Y803994D01*
X301427Y804182D01*
X301028Y804329D01*
X300603Y804434D01*
X300151Y804497D01*
X299674Y804518D01*
X299349Y804512D01*
X299044Y804493D01*
X298759Y804463D01*
X298495Y804420D01*
X298251Y804365D01*
X298027Y804297D01*
X297823Y804218D01*
X297639Y804126D01*
X297472Y804020D01*
X297316Y803899D01*
X297172Y803762D01*
X297040Y803610D01*
X296920Y803442D01*
X296811Y803258D01*
X296714Y803059D01*
X296629Y802844D01*
X296555Y802611D01*
X296491Y802355D01*
X296436Y802076D01*
X296392Y801774D01*
X296332Y801103D01*
X296313Y800342D01*
X296313Y790000D01*
G37*
G36*
X210668Y789699D02*
X210221Y789709D01*
X209793Y789742D01*
X209383Y789797D01*
X208992Y789874D01*
X208620Y789972D01*
X208266Y790093D01*
X207931Y790235D01*
X207615Y790400D01*
X207312Y790590D01*
X207019Y790812D01*
X206735Y791064D01*
X206460Y791347D01*
X206194Y791662D01*
X205937Y792006D01*
X205690Y792382D01*
X205452Y792789D01*
X205406Y792789D01*
X205354Y791168D01*
X205316Y790407D01*
X205286Y790000D01*
X202723Y790000D01*
X202762Y790455D01*
X202791Y791187D01*
X202808Y792196D01*
X202813Y793482D01*
X202813Y806312D01*
X205527Y806312D01*
X205527Y796859D01*
X205545Y796280D01*
X205598Y795733D01*
X205686Y795219D01*
X205810Y794738D01*
X205969Y794288D01*
X206163Y793872D01*
X206393Y793487D01*
X206658Y793136D01*
X206953Y792821D01*
X207275Y792549D01*
X207622Y792318D01*
X207996Y792129D01*
X208395Y791983D01*
X208820Y791878D01*
X209271Y791815D01*
X209748Y791794D01*
X210073Y791800D01*
X210378Y791819D01*
X210663Y791849D01*
X210928Y791892D01*
X211172Y791947D01*
X211396Y792014D01*
X211600Y792094D01*
X211783Y792186D01*
X211951Y792292D01*
X212107Y792413D01*
X212250Y792550D01*
X212383Y792702D01*
X212503Y792870D01*
X212612Y793054D01*
X212708Y793253D01*
X212793Y793467D01*
X212868Y793701D01*
X212932Y793957D01*
X212986Y794236D01*
X213031Y794538D01*
X213090Y795209D01*
X213110Y795970D01*
X213110Y806312D01*
X215839Y806312D01*
X215839Y795442D01*
X215819Y794701D01*
X215761Y794013D01*
X215664Y793381D01*
X215528Y792802D01*
X215353Y792278D01*
X215139Y791809D01*
X214886Y791393D01*
X214595Y791033D01*
X214262Y790720D01*
X213883Y790449D01*
X213460Y790220D01*
X212991Y790032D01*
X212478Y789886D01*
X211920Y789782D01*
X211316Y789719D01*
X210668Y789699D01*
G37*
G36*
X500768Y790000D02*
X497738Y790000D01*
X503617Y798412D01*
X498085Y806312D01*
X501115Y806312D01*
X505155Y799965D01*
X509226Y806312D01*
X512226Y806312D01*
X506693Y798382D01*
X512497Y790000D01*
X509572Y790000D01*
X505155Y796694D01*
X500768Y790000D01*
G37*
G36*
X285986Y789759D02*
X285288Y789781D01*
X284599Y789849D01*
X283916Y789962D01*
X283242Y790121D01*
X283242Y792126D01*
X283724Y792033D01*
X284146Y791967D01*
X284508Y791928D01*
X284810Y791915D01*
X285038Y791922D01*
X285249Y791944D01*
X285443Y791981D01*
X285618Y792033D01*
X285776Y792100D01*
X285916Y792182D01*
X286039Y792278D01*
X286144Y792389D01*
X286234Y792519D01*
X286312Y792671D01*
X286378Y792844D01*
X286432Y793040D01*
X286474Y793257D01*
X286504Y793496D01*
X286522Y793757D01*
X286528Y794040D01*
X286528Y804337D01*
X283513Y804337D01*
X283513Y806312D01*
X286528Y806312D01*
X286528Y809960D01*
X288337Y809960D01*
X289136Y806312D01*
X291126Y806312D01*
X291126Y804337D01*
X289242Y804337D01*
X289242Y793452D01*
X289229Y793005D01*
X289191Y792587D01*
X289127Y792197D01*
X289038Y791836D01*
X288924Y791505D01*
X288784Y791202D01*
X288619Y790927D01*
X288428Y790682D01*
X288212Y790466D01*
X287970Y790278D01*
X287703Y790119D01*
X287410Y789990D01*
X287092Y789889D01*
X286749Y789817D01*
X286380Y789773D01*
X285986Y789759D01*
G37*
G36*
X387173Y789759D02*
X386476Y789781D01*
X385786Y789849D01*
X385104Y789962D01*
X384429Y790121D01*
X384429Y792126D01*
X384912Y792033D01*
X385334Y791967D01*
X385696Y791928D01*
X385997Y791915D01*
X386226Y791922D01*
X386437Y791944D01*
X386630Y791981D01*
X386806Y792033D01*
X386964Y792100D01*
X387104Y792182D01*
X387226Y792278D01*
X387331Y792389D01*
X387422Y792519D01*
X387500Y792671D01*
X387566Y792844D01*
X387620Y793040D01*
X387662Y793257D01*
X387692Y793496D01*
X387710Y793757D01*
X387716Y794040D01*
X387716Y804337D01*
X384701Y804337D01*
X384701Y806312D01*
X387716Y806312D01*
X387716Y809960D01*
X389525Y809960D01*
X390324Y806312D01*
X392314Y806312D01*
X392314Y804337D01*
X390429Y804337D01*
X390429Y793452D01*
X390417Y793005D01*
X390379Y792587D01*
X390315Y792197D01*
X390226Y791836D01*
X390111Y791505D01*
X389972Y791202D01*
X389806Y790927D01*
X389615Y790682D01*
X389399Y790466D01*
X389157Y790278D01*
X388890Y790119D01*
X388598Y789990D01*
X388280Y789889D01*
X387936Y789817D01*
X387567Y789773D01*
X387173Y789759D01*
G37*
G36*
X253513Y790000D02*
X250800Y790000D01*
X250800Y812372D01*
X253513Y812372D01*
X253513Y790000D01*
G37*
G36*
X280891Y790000D02*
X278177Y790000D01*
X278177Y798503D01*
X278163Y799161D01*
X278121Y799781D01*
X278052Y800361D01*
X277955Y800902D01*
X277829Y801403D01*
X277677Y801865D01*
X277496Y802288D01*
X277287Y802671D01*
X277053Y803012D01*
X276793Y803308D01*
X276508Y803558D01*
X276198Y803762D01*
X275864Y803921D01*
X275504Y804035D01*
X275119Y804103D01*
X274710Y804126D01*
X274280Y804116D01*
X273895Y804088D01*
X273556Y804041D01*
X273262Y803975D01*
X273262Y806463D01*
X273540Y806529D01*
X273816Y806576D01*
X274090Y806604D01*
X274363Y806613D01*
X274736Y806601D01*
X275088Y806565D01*
X275419Y806505D01*
X275727Y806421D01*
X276014Y806313D01*
X276279Y806181D01*
X276523Y806025D01*
X276745Y805845D01*
X276953Y805632D01*
X277155Y805377D01*
X277350Y805081D01*
X277540Y804744D01*
X277723Y804365D01*
X277901Y803945D01*
X278072Y803483D01*
X278237Y802980D01*
X278298Y802980D01*
X278328Y804092D01*
X278418Y806312D01*
X280981Y806312D01*
X280913Y804322D01*
X280891Y802513D01*
X280891Y790000D01*
G37*
G36*
X364922Y790000D02*
X362208Y790000D01*
X362208Y798503D01*
X362194Y799161D01*
X362153Y799781D01*
X362083Y800361D01*
X361986Y800902D01*
X361861Y801403D01*
X361708Y801865D01*
X361527Y802288D01*
X361319Y802671D01*
X361084Y803012D01*
X360824Y803308D01*
X360539Y803558D01*
X360229Y803762D01*
X359895Y803921D01*
X359535Y804035D01*
X359150Y804103D01*
X358741Y804126D01*
X358311Y804116D01*
X357927Y804088D01*
X357587Y804041D01*
X357293Y803975D01*
X357293Y806463D01*
X357571Y806529D01*
X357848Y806576D01*
X358122Y806604D01*
X358394Y806613D01*
X358768Y806601D01*
X359120Y806565D01*
X359450Y806505D01*
X359758Y806421D01*
X360045Y806313D01*
X360311Y806181D01*
X360554Y806025D01*
X360776Y805845D01*
X360984Y805632D01*
X361186Y805377D01*
X361382Y805081D01*
X361571Y804744D01*
X361755Y804365D01*
X361932Y803945D01*
X362103Y803483D01*
X362268Y802980D01*
X362329Y802980D01*
X362359Y804092D01*
X362449Y806312D01*
X365012Y806312D01*
X364944Y804322D01*
X364922Y802513D01*
X364922Y790000D01*
G37*
G36*
X130993Y790000D02*
X128054Y790000D01*
X128054Y793302D01*
X130993Y793302D01*
X130993Y790000D01*
G37*
G36*
X33935Y491975D02*
X33579Y491981D01*
X33233Y491999D01*
X32898Y492030D01*
X32572Y492073D01*
X32255Y492128D01*
X31949Y492195D01*
X31366Y492367D01*
X30822Y492588D01*
X30317Y492858D01*
X29852Y493177D01*
X29426Y493545D01*
X29045Y493956D01*
X28715Y494403D01*
X28435Y494887D01*
X28207Y495407D01*
X28112Y495680D01*
X28029Y495963D01*
X27959Y496255D01*
X27902Y496556D01*
X27858Y496866D01*
X27826Y497185D01*
X27807Y497514D01*
X27801Y497851D01*
X27824Y498438D01*
X27895Y498997D01*
X28014Y499527D01*
X28179Y500029D01*
X28392Y500502D01*
X28653Y500947D01*
X28961Y501364D01*
X29316Y501752D01*
X29711Y502103D01*
X30138Y502407D01*
X30598Y502664D01*
X31090Y502875D01*
X31614Y503039D01*
X32171Y503155D01*
X32761Y503226D01*
X33382Y503249D01*
X33905Y503232D01*
X34406Y503180D01*
X34885Y503094D01*
X35342Y502973D01*
X35778Y502818D01*
X36191Y502628D01*
X36583Y502404D01*
X36952Y502145D01*
X36621Y507629D01*
X28806Y507629D01*
X28806Y509506D01*
X38633Y509506D01*
X39210Y500207D01*
X37051Y500207D01*
X36664Y500519D01*
X36278Y500783D01*
X35891Y500998D01*
X35505Y501163D01*
X35111Y501287D01*
X34701Y501375D01*
X34277Y501428D01*
X33836Y501446D01*
X33418Y501430D01*
X33022Y501383D01*
X32647Y501304D01*
X32295Y501194D01*
X31965Y501053D01*
X31657Y500880D01*
X31371Y500675D01*
X31107Y500440D01*
X30870Y500178D01*
X30664Y499898D01*
X30490Y499597D01*
X30348Y499277D01*
X30237Y498938D01*
X30158Y498579D01*
X30110Y498200D01*
X30095Y497802D01*
X30110Y497345D01*
X30158Y496914D01*
X30236Y496507D01*
X30346Y496126D01*
X30488Y495770D01*
X30661Y495438D01*
X30865Y495132D01*
X31101Y494852D01*
X31364Y494600D01*
X31652Y494382D01*
X31964Y494197D01*
X32300Y494046D01*
X32660Y493929D01*
X33044Y493845D01*
X33453Y493795D01*
X33885Y493778D01*
X34239Y493788D01*
X34575Y493818D01*
X34894Y493868D01*
X35196Y493938D01*
X35481Y494028D01*
X35748Y494139D01*
X35998Y494269D01*
X36232Y494419D01*
X36448Y494589D01*
X36647Y494780D01*
X36829Y494990D01*
X36993Y495220D01*
X37141Y495471D01*
X37271Y495741D01*
X37384Y496032D01*
X37480Y496342D01*
X39713Y496084D01*
X39598Y495599D01*
X39448Y495144D01*
X39265Y494718D01*
X39047Y494321D01*
X38796Y493954D01*
X38510Y493616D01*
X38190Y493308D01*
X37836Y493030D01*
X37450Y492782D01*
X37035Y492568D01*
X36591Y492387D01*
X36118Y492238D01*
X35616Y492123D01*
X35085Y492041D01*
X34524Y491991D01*
X33935Y491975D01*
G37*
G36*
X47682Y491975D02*
X46997Y491995D01*
X46353Y492057D01*
X45749Y492159D01*
X45186Y492303D01*
X44663Y492487D01*
X44181Y492713D01*
X43740Y492980D01*
X43340Y493287D01*
X42983Y493632D01*
X42674Y494011D01*
X42413Y494424D01*
X42199Y494870D01*
X42032Y495350D01*
X41913Y495864D01*
X41842Y496411D01*
X41824Y496697D01*
X41818Y496992D01*
X41835Y497398D01*
X41886Y497785D01*
X41970Y498155D01*
X42088Y498507D01*
X42240Y498842D01*
X42426Y499159D01*
X42645Y499459D01*
X42898Y499740D01*
X43181Y499999D01*
X43491Y500231D01*
X43828Y500435D01*
X44192Y500611D01*
X44583Y500760D01*
X45000Y500881D01*
X45445Y500975D01*
X45916Y501041D01*
X45916Y501090D01*
X45487Y501192D01*
X45085Y501316D01*
X44709Y501460D01*
X44359Y501625D01*
X44036Y501811D01*
X43739Y502018D01*
X43468Y502246D01*
X43223Y502495D01*
X43006Y502763D01*
X42818Y503052D01*
X42659Y503359D01*
X42528Y503686D01*
X42427Y504032D01*
X42355Y504398D01*
X42311Y504783D01*
X42297Y505187D01*
X42319Y505712D01*
X42387Y506208D01*
X42499Y506673D01*
X42657Y507109D01*
X42860Y507515D01*
X43108Y507891D01*
X43400Y508238D01*
X43738Y508555D01*
X44117Y508838D01*
X44531Y509084D01*
X44982Y509291D01*
X45470Y509461D01*
X45993Y509593D01*
X46553Y509688D01*
X47149Y509744D01*
X47781Y509763D01*
X48362Y509745D01*
X48917Y509689D01*
X49444Y509596D01*
X49944Y509466D01*
X50418Y509298D01*
X50864Y509094D01*
X51283Y508852D01*
X51676Y508573D01*
X52035Y508261D01*
X52354Y507920D01*
X52633Y507550D01*
X52873Y507150D01*
X53074Y506722D01*
X53234Y506264D01*
X53355Y505777D01*
X53436Y505261D01*
X51216Y505089D01*
X51167Y505420D01*
X51095Y505732D01*
X50999Y506024D01*
X50880Y506298D01*
X50737Y506552D01*
X50570Y506787D01*
X50380Y507003D01*
X50167Y507199D01*
X49933Y507375D01*
X49681Y507527D01*
X49412Y507655D01*
X49125Y507761D01*
X48822Y507842D01*
X48500Y507901D01*
X48161Y507936D01*
X47805Y507948D01*
X47416Y507935D01*
X47051Y507897D01*
X46711Y507835D01*
X46396Y507747D01*
X46105Y507634D01*
X45840Y507496D01*
X45599Y507332D01*
X45382Y507144D01*
X45191Y506934D01*
X45025Y506706D01*
X44885Y506459D01*
X44770Y506195D01*
X44681Y505912D01*
X44617Y505611D01*
X44579Y505292D01*
X44566Y504954D01*
X44582Y504614D01*
X44629Y504293D01*
X44707Y503991D01*
X44816Y503708D01*
X44957Y503443D01*
X45129Y503198D01*
X45332Y502972D01*
X45566Y502764D01*
X45829Y502579D01*
X46117Y502418D01*
X46431Y502282D01*
X46770Y502171D01*
X47135Y502084D01*
X47525Y502023D01*
X47941Y501985D01*
X48382Y501973D01*
X49584Y501973D01*
X49584Y500059D01*
X48333Y500059D01*
X47836Y500047D01*
X47368Y500010D01*
X46932Y499948D01*
X46525Y499861D01*
X46148Y499750D01*
X45801Y499614D01*
X45485Y499453D01*
X45198Y499268D01*
X44944Y499061D01*
X44723Y498834D01*
X44537Y498587D01*
X44384Y498322D01*
X44265Y498037D01*
X44180Y497733D01*
X44129Y497409D01*
X44112Y497066D01*
X44127Y496673D01*
X44172Y496306D01*
X44246Y495963D01*
X44350Y495646D01*
X44484Y495353D01*
X44647Y495085D01*
X44840Y494842D01*
X45063Y494625D01*
X45312Y494432D01*
X45583Y494265D01*
X45877Y494124D01*
X46193Y494008D01*
X46532Y493918D01*
X46893Y493854D01*
X47277Y493815D01*
X47682Y493803D01*
X48087Y493815D01*
X48469Y493851D01*
X48828Y493910D01*
X49165Y493994D01*
X49479Y494102D01*
X49771Y494234D01*
X50040Y494390D01*
X50286Y494569D01*
X50510Y494773D01*
X50712Y495001D01*
X50891Y495252D01*
X51048Y495528D01*
X51182Y495827D01*
X51293Y496151D01*
X51382Y496498D01*
X51449Y496870D01*
X53731Y496661D01*
X53637Y496099D01*
X53504Y495573D01*
X53331Y495082D01*
X53119Y494626D01*
X52867Y494206D01*
X52575Y493821D01*
X52243Y493472D01*
X51872Y493159D01*
X51464Y492881D01*
X51024Y492641D01*
X50550Y492437D01*
X50043Y492271D01*
X49502Y492141D01*
X48929Y492049D01*
X48322Y491993D01*
X47682Y491975D01*
G37*
G36*
X19585Y492220D02*
X17156Y492220D01*
X10102Y509506D01*
X12568Y509506D01*
X17328Y497336D01*
X18359Y494281D01*
X19389Y497336D01*
X24174Y509506D01*
X26640Y509506D01*
X19585Y492220D01*
G37*
G36*
X72553Y492220D02*
X70247Y492220D01*
X70239Y492816D01*
X70213Y493406D01*
X70170Y493992D01*
X70111Y494572D01*
X70034Y495148D01*
X69940Y495719D01*
X69829Y496284D01*
X69701Y496845D01*
X69556Y497404D01*
X69394Y497965D01*
X69215Y498528D01*
X69019Y499093D01*
X68805Y499660D01*
X68575Y500229D01*
X68063Y501372D01*
X67766Y501973D01*
X67420Y502629D01*
X66582Y504105D01*
X65549Y505800D01*
X64322Y507715D01*
X64322Y509506D01*
X75743Y509506D01*
X75743Y507629D01*
X66456Y507629D01*
X67249Y506453D01*
X67982Y505312D01*
X68657Y504206D01*
X69273Y503134D01*
X69830Y502097D01*
X70329Y501095D01*
X70768Y500127D01*
X71149Y499194D01*
X71478Y498284D01*
X71763Y497385D01*
X72005Y496497D01*
X72202Y495620D01*
X72356Y494753D01*
X72466Y493898D01*
X72531Y493054D01*
X72553Y492220D01*
G37*
G36*
X61946Y497912D02*
X55812Y497912D01*
X55812Y499875D01*
X61946Y499875D01*
X61946Y497912D01*
G37*
G36*
X26095Y462220D02*
X19630Y462220D01*
X19014Y462237D01*
X18415Y462287D01*
X17836Y462370D01*
X17275Y462487D01*
X16732Y462637D01*
X16207Y462820D01*
X15701Y463037D01*
X15213Y463287D01*
X14749Y463569D01*
X14311Y463880D01*
X13901Y464220D01*
X13517Y464589D01*
X13161Y464988D01*
X12833Y465416D01*
X12531Y465874D01*
X12257Y466360D01*
X12012Y466872D01*
X11801Y467405D01*
X11621Y467959D01*
X11475Y468533D01*
X11361Y469129D01*
X11279Y469745D01*
X11230Y470383D01*
X11214Y471041D01*
X11223Y471541D01*
X11251Y472027D01*
X11298Y472498D01*
X11363Y472955D01*
X11447Y473397D01*
X11550Y473825D01*
X11671Y474238D01*
X11811Y474637D01*
X11969Y475021D01*
X12146Y475391D01*
X12342Y475746D01*
X12556Y476086D01*
X12789Y476412D01*
X13041Y476724D01*
X13311Y477021D01*
X13600Y477304D01*
X13906Y477570D01*
X14228Y477820D01*
X14566Y478052D01*
X14919Y478267D01*
X15287Y478465D01*
X15672Y478646D01*
X16072Y478809D01*
X16488Y478955D01*
X16919Y479084D01*
X17366Y479196D01*
X17829Y479291D01*
X18308Y479368D01*
X18802Y479428D01*
X19312Y479471D01*
X19837Y479497D01*
X20378Y479506D01*
X26095Y479506D01*
X26095Y462220D01*
G37*
%LPC*%
G36*
X23752Y464097D02*
X23752Y477629D01*
X20427Y477629D01*
X20016Y477622D01*
X19618Y477602D01*
X19231Y477569D01*
X18857Y477523D01*
X18496Y477464D01*
X18146Y477391D01*
X17809Y477306D01*
X17485Y477207D01*
X17172Y477095D01*
X16872Y476970D01*
X16584Y476831D01*
X16309Y476680D01*
X16046Y476515D01*
X15795Y476337D01*
X15556Y476146D01*
X15330Y475942D01*
X15117Y475725D01*
X14917Y475496D01*
X14732Y475256D01*
X14560Y475003D01*
X14402Y474738D01*
X14257Y474462D01*
X14127Y474173D01*
X14010Y473873D01*
X13907Y473561D01*
X13817Y473237D01*
X13741Y472900D01*
X13680Y472552D01*
X13631Y472192D01*
X13597Y471820D01*
X13576Y471437D01*
X13570Y471041D01*
X13582Y470516D01*
X13618Y470009D01*
X13678Y469519D01*
X13763Y469047D01*
X13871Y468593D01*
X14004Y468156D01*
X14161Y467737D01*
X14342Y467336D01*
X14546Y466955D01*
X14771Y466597D01*
X15016Y466262D01*
X15282Y465949D01*
X15570Y465660D01*
X15878Y465394D01*
X16207Y465151D01*
X16557Y464931D01*
X16924Y464736D01*
X17306Y464566D01*
X17703Y464423D01*
X18113Y464306D01*
X18538Y464214D01*
X18978Y464149D01*
X19432Y464110D01*
X19900Y464097D01*
X23752Y464097D01*
G37*
%LPD*%
G36*
X33038Y462220D02*
X30217Y462220D01*
X30217Y479506D01*
X32327Y479506D01*
X32327Y468170D01*
X32318Y467547D01*
X32290Y466759D01*
X32180Y464686D01*
X41528Y479506D01*
X44251Y479506D01*
X44251Y462220D01*
X42166Y462220D01*
X42166Y473703D01*
X42227Y475752D01*
X42289Y476942D01*
X33038Y462220D01*
G37*
G36*
X55870Y461975D02*
X55292Y461987D01*
X54725Y462023D01*
X54169Y462082D01*
X53623Y462166D01*
X53088Y462274D01*
X52563Y462406D01*
X52049Y462562D01*
X51545Y462741D01*
X51057Y462943D01*
X50587Y463164D01*
X50137Y463405D01*
X49707Y463666D01*
X49295Y463947D01*
X48903Y464247D01*
X48531Y464567D01*
X48178Y464907D01*
X48178Y470869D01*
X55502Y470869D01*
X55502Y468906D01*
X50337Y468906D01*
X50337Y465790D01*
X50573Y465575D01*
X50826Y465371D01*
X51096Y465179D01*
X51384Y464999D01*
X51690Y464830D01*
X52013Y464672D01*
X52353Y464526D01*
X52711Y464391D01*
X53081Y464271D01*
X53458Y464166D01*
X53842Y464077D01*
X54234Y464005D01*
X54632Y463949D01*
X55038Y463908D01*
X55450Y463884D01*
X55870Y463876D01*
X56236Y463884D01*
X56592Y463906D01*
X56938Y463943D01*
X57274Y463995D01*
X57600Y464061D01*
X57915Y464143D01*
X58221Y464239D01*
X58517Y464350D01*
X58802Y464476D01*
X59078Y464617D01*
X59343Y464772D01*
X59599Y464942D01*
X59844Y465127D01*
X60079Y465327D01*
X60304Y465542D01*
X60519Y465772D01*
X60723Y466014D01*
X60913Y466267D01*
X61091Y466531D01*
X61255Y466806D01*
X61406Y467091D01*
X61544Y467387D01*
X61668Y467694D01*
X61780Y468012D01*
X61878Y468341D01*
X61964Y468680D01*
X62036Y469030D01*
X62095Y469391D01*
X62141Y469763D01*
X62174Y470145D01*
X62194Y470539D01*
X62200Y470943D01*
X62194Y471348D01*
X62175Y471741D01*
X62145Y472124D01*
X62101Y472494D01*
X62046Y472853D01*
X61978Y473201D01*
X61897Y473537D01*
X61805Y473861D01*
X61699Y474174D01*
X61582Y474475D01*
X61452Y474765D01*
X61310Y475043D01*
X61155Y475309D01*
X60989Y475564D01*
X60809Y475808D01*
X60618Y476040D01*
X60414Y476259D01*
X60200Y476464D01*
X59975Y476655D01*
X59738Y476832D01*
X59491Y476994D01*
X59232Y477143D01*
X58963Y477277D01*
X58682Y477397D01*
X58391Y477503D01*
X58088Y477595D01*
X57775Y477673D01*
X57450Y477736D01*
X57115Y477786D01*
X56768Y477821D01*
X56410Y477842D01*
X56042Y477850D01*
X55570Y477839D01*
X55118Y477807D01*
X54686Y477755D01*
X54273Y477681D01*
X53881Y477586D01*
X53508Y477470D01*
X53155Y477333D01*
X52821Y477175D01*
X52506Y476994D01*
X52209Y476788D01*
X51929Y476557D01*
X51666Y476301D01*
X51421Y476020D01*
X51194Y475714D01*
X50984Y475383D01*
X50791Y475028D01*
X48558Y475690D01*
X48813Y476206D01*
X49094Y476685D01*
X49401Y477127D01*
X49733Y477534D01*
X50091Y477903D01*
X50474Y478237D01*
X50883Y478534D01*
X51318Y478794D01*
X51783Y479021D01*
X52281Y479218D01*
X52814Y479385D01*
X53379Y479521D01*
X53979Y479627D01*
X54612Y479703D01*
X55279Y479748D01*
X55980Y479763D01*
X56484Y479754D01*
X56973Y479727D01*
X57448Y479682D01*
X57909Y479619D01*
X58355Y479538D01*
X58787Y479439D01*
X59205Y479322D01*
X59609Y479187D01*
X59998Y479034D01*
X60373Y478862D01*
X60734Y478673D01*
X61080Y478466D01*
X61412Y478241D01*
X61730Y477998D01*
X62034Y477736D01*
X62323Y477457D01*
X62596Y477161D01*
X62852Y476851D01*
X63090Y476525D01*
X63310Y476185D01*
X63513Y475830D01*
X63698Y475460D01*
X63866Y475075D01*
X64016Y474675D01*
X64148Y474261D01*
X64263Y473831D01*
X64360Y473387D01*
X64439Y472928D01*
X64501Y472454D01*
X64545Y471965D01*
X64571Y471461D01*
X64580Y470943D01*
X64564Y470267D01*
X64515Y469613D01*
X64434Y468982D01*
X64321Y468374D01*
X64175Y467788D01*
X63997Y467224D01*
X63786Y466683D01*
X63544Y466164D01*
X63270Y465671D01*
X62967Y465208D01*
X62636Y464775D01*
X62275Y464372D01*
X61886Y463998D01*
X61468Y463653D01*
X61020Y463339D01*
X60544Y463054D01*
X60042Y462801D01*
X59516Y462582D01*
X58967Y462396D01*
X58394Y462245D01*
X57798Y462126D01*
X57179Y462042D01*
X56536Y461992D01*
X55870Y461975D01*
G37*
G36*
X46223Y571975D02*
X45397Y571995D01*
X44619Y572057D01*
X43889Y572159D01*
X43206Y572303D01*
X42571Y572487D01*
X41984Y572713D01*
X41445Y572980D01*
X40953Y573287D01*
X40515Y573632D01*
X40135Y574011D01*
X39967Y574213D01*
X39813Y574424D01*
X39675Y574643D01*
X39550Y574870D01*
X39441Y575106D01*
X39346Y575350D01*
X39265Y575603D01*
X39199Y575864D01*
X39148Y576133D01*
X39112Y576411D01*
X39090Y576697D01*
X39083Y576992D01*
X39099Y577449D01*
X39148Y577876D01*
X39231Y578271D01*
X39346Y578636D01*
X39491Y578974D01*
X39661Y579289D01*
X39856Y579582D01*
X40076Y579851D01*
X40320Y580098D01*
X40584Y580326D01*
X40869Y580534D01*
X41174Y580722D01*
X41829Y581055D01*
X42530Y581341D01*
X43271Y581587D01*
X44045Y581795D01*
X45634Y582169D01*
X46725Y582423D01*
X47618Y582656D01*
X48314Y582868D01*
X48811Y583059D01*
X49186Y583250D01*
X49515Y583461D01*
X49797Y583691D01*
X50032Y583942D01*
X50217Y584220D01*
X50290Y584372D01*
X50349Y584533D01*
X50396Y584702D01*
X50429Y584879D01*
X50448Y585066D01*
X50455Y585261D01*
X50438Y585591D01*
X50387Y585900D01*
X50302Y586187D01*
X50182Y586454D01*
X50029Y586700D01*
X49841Y586924D01*
X49619Y587127D01*
X49363Y587310D01*
X49075Y587471D01*
X48756Y587610D01*
X48406Y587728D01*
X48026Y587825D01*
X47615Y587900D01*
X47173Y587954D01*
X46701Y587986D01*
X46198Y587997D01*
X45739Y587987D01*
X45305Y587958D01*
X44897Y587910D01*
X44514Y587842D01*
X44158Y587755D01*
X43826Y587648D01*
X43521Y587522D01*
X43241Y587377D01*
X42985Y587211D01*
X42751Y587020D01*
X42538Y586806D01*
X42346Y586569D01*
X42176Y586308D01*
X42027Y586023D01*
X41900Y585715D01*
X41794Y585384D01*
X39487Y585788D01*
X39658Y586312D01*
X39859Y586795D01*
X40088Y587239D01*
X40346Y587642D01*
X40634Y588007D01*
X40950Y588331D01*
X41296Y588616D01*
X41671Y588862D01*
X42082Y589073D01*
X42537Y589256D01*
X43035Y589411D01*
X43576Y589538D01*
X44160Y589637D01*
X44788Y589707D01*
X45459Y589749D01*
X46173Y589763D01*
X46942Y589745D01*
X47664Y589688D01*
X48341Y589594D01*
X48972Y589463D01*
X49557Y589294D01*
X50097Y589087D01*
X50590Y588843D01*
X51038Y588561D01*
X51436Y588245D01*
X51781Y587896D01*
X52073Y587516D01*
X52312Y587104D01*
X52498Y586660D01*
X52571Y586427D01*
X52631Y586185D01*
X52677Y585935D01*
X52710Y585677D01*
X52730Y585412D01*
X52737Y585138D01*
X52717Y584667D01*
X52656Y584224D01*
X52554Y583809D01*
X52412Y583421D01*
X52231Y583058D01*
X52015Y582720D01*
X51762Y582405D01*
X51473Y582114D01*
X51139Y581842D01*
X50748Y581582D01*
X50301Y581336D01*
X49799Y581102D01*
X49206Y580875D01*
X48491Y580648D01*
X47651Y580421D01*
X46689Y580194D01*
X44542Y579691D01*
X44074Y579568D01*
X43640Y579431D01*
X43240Y579280D01*
X42873Y579115D01*
X42543Y578931D01*
X42252Y578725D01*
X42000Y578496D01*
X41788Y578244D01*
X41619Y577960D01*
X41498Y577636D01*
X41456Y577460D01*
X41425Y577273D01*
X41407Y577076D01*
X41401Y576870D01*
X41420Y576504D01*
X41478Y576161D01*
X41575Y575841D01*
X41709Y575543D01*
X41883Y575269D01*
X42095Y575017D01*
X42345Y574788D01*
X42634Y574582D01*
X42959Y574399D01*
X43315Y574241D01*
X43705Y574107D01*
X44126Y573997D01*
X44580Y573912D01*
X45067Y573851D01*
X45585Y573815D01*
X46137Y573803D01*
X46671Y573814D01*
X47177Y573848D01*
X47654Y573905D01*
X48103Y573985D01*
X48522Y574088D01*
X48913Y574213D01*
X49275Y574361D01*
X49609Y574533D01*
X49914Y574728D01*
X50191Y574949D01*
X50441Y575196D01*
X50664Y575470D01*
X50858Y575768D01*
X51026Y576093D01*
X51165Y576444D01*
X51277Y576821D01*
X53547Y576367D01*
X53400Y575835D01*
X53212Y575337D01*
X52983Y574874D01*
X52712Y574445D01*
X52399Y574051D01*
X52045Y573690D01*
X51650Y573364D01*
X51213Y573073D01*
X50734Y572815D01*
X50214Y572592D01*
X49653Y572404D01*
X49050Y572249D01*
X48405Y572129D01*
X47719Y572043D01*
X46992Y571992D01*
X46223Y571975D01*
G37*
G36*
X62973Y571975D02*
X62147Y571995D01*
X61369Y572057D01*
X60639Y572159D01*
X59956Y572303D01*
X59321Y572487D01*
X58734Y572713D01*
X58195Y572980D01*
X57703Y573287D01*
X57265Y573632D01*
X56885Y574011D01*
X56717Y574213D01*
X56563Y574424D01*
X56425Y574643D01*
X56300Y574870D01*
X56191Y575106D01*
X56096Y575350D01*
X56015Y575603D01*
X55949Y575864D01*
X55898Y576133D01*
X55862Y576411D01*
X55840Y576697D01*
X55833Y576992D01*
X55849Y577449D01*
X55898Y577876D01*
X55981Y578271D01*
X56096Y578636D01*
X56241Y578974D01*
X56411Y579289D01*
X56606Y579582D01*
X56826Y579851D01*
X57070Y580098D01*
X57334Y580326D01*
X57619Y580534D01*
X57924Y580722D01*
X58579Y581055D01*
X59280Y581341D01*
X60021Y581587D01*
X60795Y581795D01*
X62384Y582169D01*
X63475Y582423D01*
X64368Y582656D01*
X65064Y582868D01*
X65561Y583059D01*
X65936Y583250D01*
X66265Y583461D01*
X66547Y583691D01*
X66782Y583942D01*
X66967Y584220D01*
X67040Y584372D01*
X67099Y584533D01*
X67146Y584702D01*
X67179Y584879D01*
X67198Y585066D01*
X67205Y585261D01*
X67188Y585591D01*
X67137Y585900D01*
X67052Y586187D01*
X66932Y586454D01*
X66779Y586700D01*
X66591Y586924D01*
X66369Y587127D01*
X66113Y587310D01*
X65825Y587471D01*
X65506Y587610D01*
X65156Y587728D01*
X64776Y587825D01*
X64365Y587900D01*
X63923Y587954D01*
X63451Y587986D01*
X62948Y587997D01*
X62489Y587987D01*
X62055Y587958D01*
X61647Y587910D01*
X61264Y587842D01*
X60908Y587755D01*
X60576Y587648D01*
X60271Y587522D01*
X59991Y587377D01*
X59735Y587211D01*
X59501Y587020D01*
X59288Y586806D01*
X59096Y586569D01*
X58926Y586308D01*
X58777Y586023D01*
X58650Y585715D01*
X58544Y585384D01*
X56237Y585788D01*
X56408Y586312D01*
X56609Y586795D01*
X56838Y587239D01*
X57096Y587642D01*
X57384Y588007D01*
X57700Y588331D01*
X58046Y588616D01*
X58421Y588862D01*
X58832Y589073D01*
X59287Y589256D01*
X59785Y589411D01*
X60326Y589538D01*
X60910Y589637D01*
X61538Y589707D01*
X62209Y589749D01*
X62923Y589763D01*
X63692Y589745D01*
X64414Y589688D01*
X65091Y589594D01*
X65722Y589463D01*
X66307Y589294D01*
X66847Y589087D01*
X67340Y588843D01*
X67788Y588561D01*
X68186Y588245D01*
X68531Y587896D01*
X68823Y587516D01*
X69062Y587104D01*
X69248Y586660D01*
X69321Y586427D01*
X69381Y586185D01*
X69427Y585935D01*
X69460Y585677D01*
X69480Y585412D01*
X69487Y585138D01*
X69467Y584667D01*
X69406Y584224D01*
X69304Y583809D01*
X69162Y583421D01*
X68981Y583058D01*
X68765Y582720D01*
X68512Y582405D01*
X68223Y582114D01*
X67889Y581842D01*
X67498Y581582D01*
X67051Y581336D01*
X66549Y581102D01*
X65956Y580875D01*
X65241Y580648D01*
X64401Y580421D01*
X63439Y580194D01*
X61292Y579691D01*
X60824Y579568D01*
X60390Y579431D01*
X59990Y579280D01*
X59623Y579115D01*
X59293Y578931D01*
X59002Y578725D01*
X58750Y578496D01*
X58538Y578244D01*
X58369Y577960D01*
X58248Y577636D01*
X58206Y577460D01*
X58175Y577273D01*
X58157Y577076D01*
X58151Y576870D01*
X58170Y576504D01*
X58228Y576161D01*
X58325Y575841D01*
X58459Y575543D01*
X58633Y575269D01*
X58845Y575017D01*
X59095Y574788D01*
X59384Y574582D01*
X59709Y574399D01*
X60065Y574241D01*
X60455Y574107D01*
X60876Y573997D01*
X61330Y573912D01*
X61817Y573851D01*
X62335Y573815D01*
X62887Y573803D01*
X63421Y573814D01*
X63927Y573848D01*
X64404Y573905D01*
X64853Y573985D01*
X65272Y574088D01*
X65663Y574213D01*
X66025Y574361D01*
X66359Y574533D01*
X66664Y574728D01*
X66941Y574949D01*
X67191Y575196D01*
X67414Y575470D01*
X67608Y575768D01*
X67776Y576093D01*
X67915Y576444D01*
X68027Y576821D01*
X70297Y576367D01*
X70150Y575835D01*
X69962Y575337D01*
X69733Y574874D01*
X69462Y574445D01*
X69149Y574051D01*
X68795Y573690D01*
X68400Y573364D01*
X67963Y573073D01*
X67484Y572815D01*
X66964Y572592D01*
X66403Y572404D01*
X65800Y572249D01*
X65155Y572129D01*
X64469Y572043D01*
X63742Y571992D01*
X62973Y571975D01*
G37*
G36*
X22055Y572220D02*
X11222Y572220D01*
X11222Y574097D01*
X15430Y574097D01*
X15430Y589506D01*
X17467Y589506D01*
X21552Y586696D01*
X21552Y584611D01*
X17651Y587396D01*
X17651Y574097D01*
X22055Y574097D01*
X22055Y572220D01*
G37*
G36*
X38318Y567227D02*
X23682Y567227D01*
X23682Y568822D01*
X38318Y568822D01*
X38318Y567227D01*
G37*
G36*
X46223Y531975D02*
X45397Y531995D01*
X44619Y532057D01*
X43889Y532159D01*
X43206Y532303D01*
X42571Y532487D01*
X41984Y532713D01*
X41445Y532980D01*
X40953Y533287D01*
X40515Y533632D01*
X40135Y534011D01*
X39967Y534213D01*
X39813Y534424D01*
X39675Y534643D01*
X39550Y534870D01*
X39441Y535106D01*
X39346Y535350D01*
X39265Y535603D01*
X39199Y535864D01*
X39148Y536133D01*
X39112Y536411D01*
X39090Y536697D01*
X39083Y536992D01*
X39099Y537449D01*
X39148Y537876D01*
X39231Y538271D01*
X39346Y538636D01*
X39491Y538974D01*
X39661Y539289D01*
X39856Y539582D01*
X40076Y539851D01*
X40320Y540098D01*
X40584Y540326D01*
X40869Y540534D01*
X41174Y540722D01*
X41829Y541055D01*
X42530Y541341D01*
X43271Y541587D01*
X44045Y541795D01*
X45634Y542169D01*
X46725Y542423D01*
X47618Y542656D01*
X48314Y542868D01*
X48811Y543059D01*
X49186Y543250D01*
X49515Y543461D01*
X49797Y543691D01*
X50032Y543942D01*
X50217Y544220D01*
X50290Y544372D01*
X50349Y544533D01*
X50396Y544702D01*
X50429Y544879D01*
X50448Y545066D01*
X50455Y545261D01*
X50438Y545591D01*
X50387Y545900D01*
X50302Y546187D01*
X50182Y546454D01*
X50029Y546700D01*
X49841Y546924D01*
X49619Y547127D01*
X49363Y547310D01*
X49075Y547471D01*
X48756Y547610D01*
X48406Y547728D01*
X48026Y547825D01*
X47615Y547900D01*
X47173Y547954D01*
X46701Y547986D01*
X46198Y547997D01*
X45739Y547987D01*
X45305Y547958D01*
X44897Y547910D01*
X44514Y547842D01*
X44158Y547755D01*
X43826Y547648D01*
X43521Y547522D01*
X43241Y547377D01*
X42985Y547211D01*
X42751Y547020D01*
X42538Y546806D01*
X42346Y546569D01*
X42176Y546308D01*
X42027Y546023D01*
X41900Y545715D01*
X41794Y545384D01*
X39487Y545788D01*
X39658Y546312D01*
X39859Y546795D01*
X40088Y547239D01*
X40346Y547642D01*
X40634Y548007D01*
X40950Y548331D01*
X41296Y548616D01*
X41671Y548862D01*
X42082Y549073D01*
X42537Y549256D01*
X43035Y549411D01*
X43576Y549538D01*
X44160Y549637D01*
X44788Y549707D01*
X45459Y549749D01*
X46173Y549763D01*
X46942Y549745D01*
X47664Y549688D01*
X48341Y549594D01*
X48972Y549463D01*
X49557Y549294D01*
X50097Y549087D01*
X50590Y548843D01*
X51038Y548561D01*
X51436Y548245D01*
X51781Y547896D01*
X52073Y547516D01*
X52312Y547104D01*
X52498Y546660D01*
X52571Y546427D01*
X52631Y546185D01*
X52677Y545935D01*
X52710Y545677D01*
X52730Y545412D01*
X52737Y545138D01*
X52717Y544667D01*
X52656Y544224D01*
X52554Y543809D01*
X52412Y543421D01*
X52231Y543058D01*
X52015Y542720D01*
X51762Y542405D01*
X51473Y542114D01*
X51139Y541842D01*
X50748Y541582D01*
X50301Y541336D01*
X49799Y541102D01*
X49206Y540875D01*
X48491Y540648D01*
X47651Y540421D01*
X46689Y540194D01*
X44542Y539691D01*
X44074Y539568D01*
X43640Y539431D01*
X43240Y539280D01*
X42873Y539115D01*
X42543Y538931D01*
X42252Y538725D01*
X42000Y538496D01*
X41788Y538244D01*
X41619Y537960D01*
X41498Y537636D01*
X41456Y537460D01*
X41425Y537273D01*
X41407Y537076D01*
X41401Y536870D01*
X41420Y536504D01*
X41478Y536161D01*
X41575Y535841D01*
X41709Y535543D01*
X41883Y535269D01*
X42095Y535017D01*
X42345Y534788D01*
X42634Y534582D01*
X42959Y534399D01*
X43315Y534241D01*
X43705Y534107D01*
X44126Y533997D01*
X44580Y533912D01*
X45067Y533851D01*
X45585Y533815D01*
X46137Y533803D01*
X46671Y533814D01*
X47177Y533848D01*
X47654Y533905D01*
X48103Y533985D01*
X48522Y534088D01*
X48913Y534213D01*
X49275Y534361D01*
X49609Y534533D01*
X49914Y534728D01*
X50191Y534949D01*
X50441Y535196D01*
X50664Y535470D01*
X50858Y535768D01*
X51026Y536093D01*
X51165Y536444D01*
X51277Y536821D01*
X53547Y536367D01*
X53400Y535835D01*
X53212Y535337D01*
X52983Y534874D01*
X52712Y534445D01*
X52399Y534051D01*
X52045Y533690D01*
X51650Y533364D01*
X51213Y533073D01*
X50734Y532815D01*
X50214Y532592D01*
X49653Y532404D01*
X49050Y532249D01*
X48405Y532129D01*
X47719Y532043D01*
X46992Y531992D01*
X46223Y531975D01*
G37*
G36*
X62973Y531975D02*
X62147Y531995D01*
X61369Y532057D01*
X60639Y532159D01*
X59956Y532303D01*
X59321Y532487D01*
X58734Y532713D01*
X58195Y532980D01*
X57703Y533287D01*
X57265Y533632D01*
X56885Y534011D01*
X56717Y534213D01*
X56563Y534424D01*
X56425Y534643D01*
X56300Y534870D01*
X56191Y535106D01*
X56096Y535350D01*
X56015Y535603D01*
X55949Y535864D01*
X55898Y536133D01*
X55862Y536411D01*
X55840Y536697D01*
X55833Y536992D01*
X55849Y537449D01*
X55898Y537876D01*
X55981Y538271D01*
X56096Y538636D01*
X56241Y538974D01*
X56411Y539289D01*
X56606Y539582D01*
X56826Y539851D01*
X57070Y540098D01*
X57334Y540326D01*
X57619Y540534D01*
X57924Y540722D01*
X58579Y541055D01*
X59280Y541341D01*
X60021Y541587D01*
X60795Y541795D01*
X62384Y542169D01*
X63475Y542423D01*
X64368Y542656D01*
X65064Y542868D01*
X65561Y543059D01*
X65936Y543250D01*
X66265Y543461D01*
X66547Y543691D01*
X66782Y543942D01*
X66967Y544220D01*
X67040Y544372D01*
X67099Y544533D01*
X67146Y544702D01*
X67179Y544879D01*
X67198Y545066D01*
X67205Y545261D01*
X67188Y545591D01*
X67137Y545900D01*
X67052Y546187D01*
X66932Y546454D01*
X66779Y546700D01*
X66591Y546924D01*
X66369Y547127D01*
X66113Y547310D01*
X65825Y547471D01*
X65506Y547610D01*
X65156Y547728D01*
X64776Y547825D01*
X64365Y547900D01*
X63923Y547954D01*
X63451Y547986D01*
X62948Y547997D01*
X62489Y547987D01*
X62055Y547958D01*
X61647Y547910D01*
X61264Y547842D01*
X60908Y547755D01*
X60576Y547648D01*
X60271Y547522D01*
X59991Y547377D01*
X59735Y547211D01*
X59501Y547020D01*
X59288Y546806D01*
X59096Y546569D01*
X58926Y546308D01*
X58777Y546023D01*
X58650Y545715D01*
X58544Y545384D01*
X56237Y545788D01*
X56408Y546312D01*
X56609Y546795D01*
X56838Y547239D01*
X57096Y547642D01*
X57384Y548007D01*
X57700Y548331D01*
X58046Y548616D01*
X58421Y548862D01*
X58832Y549073D01*
X59287Y549256D01*
X59785Y549411D01*
X60326Y549538D01*
X60910Y549637D01*
X61538Y549707D01*
X62209Y549749D01*
X62923Y549763D01*
X63692Y549745D01*
X64414Y549688D01*
X65091Y549594D01*
X65722Y549463D01*
X66307Y549294D01*
X66847Y549087D01*
X67340Y548843D01*
X67788Y548561D01*
X68186Y548245D01*
X68531Y547896D01*
X68823Y547516D01*
X69062Y547104D01*
X69248Y546660D01*
X69321Y546427D01*
X69381Y546185D01*
X69427Y545935D01*
X69460Y545677D01*
X69480Y545412D01*
X69487Y545138D01*
X69467Y544667D01*
X69406Y544224D01*
X69304Y543809D01*
X69162Y543421D01*
X68981Y543058D01*
X68765Y542720D01*
X68512Y542405D01*
X68223Y542114D01*
X67889Y541842D01*
X67498Y541582D01*
X67051Y541336D01*
X66549Y541102D01*
X65956Y540875D01*
X65241Y540648D01*
X64401Y540421D01*
X63439Y540194D01*
X61292Y539691D01*
X60824Y539568D01*
X60390Y539431D01*
X59990Y539280D01*
X59623Y539115D01*
X59293Y538931D01*
X59002Y538725D01*
X58750Y538496D01*
X58538Y538244D01*
X58369Y537960D01*
X58248Y537636D01*
X58206Y537460D01*
X58175Y537273D01*
X58157Y537076D01*
X58151Y536870D01*
X58170Y536504D01*
X58228Y536161D01*
X58325Y535841D01*
X58459Y535543D01*
X58633Y535269D01*
X58845Y535017D01*
X59095Y534788D01*
X59384Y534582D01*
X59709Y534399D01*
X60065Y534241D01*
X60455Y534107D01*
X60876Y533997D01*
X61330Y533912D01*
X61817Y533851D01*
X62335Y533815D01*
X62887Y533803D01*
X63421Y533814D01*
X63927Y533848D01*
X64404Y533905D01*
X64853Y533985D01*
X65272Y534088D01*
X65663Y534213D01*
X66025Y534361D01*
X66359Y534533D01*
X66664Y534728D01*
X66941Y534949D01*
X67191Y535196D01*
X67414Y535470D01*
X67608Y535768D01*
X67776Y536093D01*
X67915Y536444D01*
X68027Y536821D01*
X70297Y536367D01*
X70150Y535835D01*
X69962Y535337D01*
X69733Y534874D01*
X69462Y534445D01*
X69149Y534051D01*
X68795Y533690D01*
X68400Y533364D01*
X67963Y533073D01*
X67484Y532815D01*
X66964Y532592D01*
X66403Y532404D01*
X65800Y532249D01*
X65155Y532129D01*
X64469Y532043D01*
X63742Y531992D01*
X62973Y531975D01*
G37*
G36*
X22705Y532220D02*
X11259Y532220D01*
X11259Y534097D01*
X20276Y534097D01*
X20063Y534531D01*
X19792Y534973D01*
X19462Y535423D01*
X19074Y535882D01*
X18621Y536359D01*
X18095Y536865D01*
X17498Y537399D01*
X16829Y537961D01*
X15650Y538936D01*
X14679Y539774D01*
X13914Y540476D01*
X13357Y541041D01*
X12931Y541538D01*
X12561Y542034D01*
X12247Y542531D01*
X11989Y543028D01*
X11788Y543526D01*
X11644Y544025D01*
X11594Y544275D01*
X11558Y544526D01*
X11536Y544777D01*
X11529Y545028D01*
X11551Y545579D01*
X11617Y546098D01*
X11726Y546584D01*
X11880Y547038D01*
X12078Y547460D01*
X12319Y547849D01*
X12604Y548206D01*
X12934Y548530D01*
X13304Y548819D01*
X13712Y549070D01*
X14157Y549282D01*
X14640Y549455D01*
X15162Y549590D01*
X15720Y549686D01*
X16317Y549744D01*
X16951Y549763D01*
X17533Y549744D01*
X18087Y549687D01*
X18615Y549591D01*
X19115Y549457D01*
X19589Y549284D01*
X20035Y549073D01*
X20454Y548824D01*
X20847Y548537D01*
X21205Y548217D01*
X21525Y547870D01*
X21804Y547497D01*
X22044Y547098D01*
X22244Y546672D01*
X22405Y546220D01*
X22526Y545742D01*
X22607Y545236D01*
X20350Y545028D01*
X20298Y545365D01*
X20223Y545682D01*
X20124Y545980D01*
X20002Y546259D01*
X19856Y546519D01*
X19686Y546759D01*
X19493Y546980D01*
X19276Y547181D01*
X19040Y547361D01*
X18788Y547516D01*
X18521Y547648D01*
X18238Y547756D01*
X17940Y547840D01*
X17626Y547900D01*
X17296Y547936D01*
X16951Y547948D01*
X16590Y547935D01*
X16250Y547899D01*
X15930Y547837D01*
X15630Y547751D01*
X15350Y547641D01*
X15091Y547506D01*
X14851Y547347D01*
X14633Y547163D01*
X14437Y546956D01*
X14268Y546730D01*
X14124Y546484D01*
X14007Y546218D01*
X13916Y545932D01*
X13851Y545626D01*
X13812Y545300D01*
X13799Y544954D01*
X13806Y544694D01*
X13829Y544441D01*
X13867Y544194D01*
X13920Y543954D01*
X13988Y543722D01*
X14071Y543496D01*
X14170Y543277D01*
X14283Y543065D01*
X14544Y542652D01*
X14843Y542249D01*
X15179Y541855D01*
X15553Y541470D01*
X16386Y540710D01*
X17313Y539949D01*
X18293Y539156D01*
X19282Y538299D01*
X19773Y537841D01*
X20253Y537357D01*
X20721Y536847D01*
X21178Y536311D01*
X21611Y535741D01*
X22010Y535129D01*
X22375Y534475D01*
X22705Y533778D01*
X22705Y532220D01*
G37*
G36*
X38318Y527227D02*
X23682Y527227D01*
X23682Y528822D01*
X38318Y528822D01*
X38318Y527227D01*
G37*
G36*
X43497Y601975D02*
X42848Y601992D01*
X42222Y602043D01*
X41617Y602128D01*
X41034Y602248D01*
X40473Y602401D01*
X39934Y602589D01*
X39416Y602811D01*
X38921Y603066D01*
X38450Y603354D01*
X38008Y603671D01*
X37594Y604018D01*
X37208Y604395D01*
X36850Y604800D01*
X36521Y605236D01*
X36219Y605700D01*
X35946Y606195D01*
X35703Y606715D01*
X35492Y607255D01*
X35314Y607817D01*
X35168Y608400D01*
X35055Y609004D01*
X34974Y609629D01*
X34925Y610275D01*
X34909Y610943D01*
X34925Y611612D01*
X34973Y612259D01*
X35053Y612883D01*
X35165Y613485D01*
X35309Y614064D01*
X35485Y614621D01*
X35694Y615155D01*
X35934Y615666D01*
X36204Y616151D01*
X36503Y616606D01*
X36830Y617032D01*
X37187Y617428D01*
X37571Y617794D01*
X37984Y618131D01*
X38426Y618437D01*
X38896Y618714D01*
X39392Y618960D01*
X39909Y619173D01*
X40448Y619354D01*
X41010Y619501D01*
X41592Y619616D01*
X42197Y619698D01*
X42824Y619747D01*
X43472Y619763D01*
X43971Y619754D01*
X44457Y619727D01*
X44928Y619681D01*
X45385Y619617D01*
X45829Y619535D01*
X46259Y619435D01*
X46674Y619316D01*
X47076Y619179D01*
X47464Y619024D01*
X47838Y618850D01*
X48198Y618659D01*
X48544Y618449D01*
X48877Y618221D01*
X49195Y617974D01*
X49500Y617709D01*
X49790Y617426D01*
X50065Y617127D01*
X50322Y616814D01*
X50562Y616486D01*
X50783Y616145D01*
X50987Y615789D01*
X51173Y615419D01*
X51342Y615035D01*
X51493Y614637D01*
X51626Y614225D01*
X51741Y613798D01*
X51838Y613358D01*
X51918Y612903D01*
X51980Y612434D01*
X52025Y611951D01*
X52051Y611454D01*
X52060Y610943D01*
X52044Y610272D01*
X51996Y609623D01*
X51917Y608996D01*
X51805Y608389D01*
X51662Y607804D01*
X51487Y607240D01*
X51280Y606698D01*
X51042Y606176D01*
X50773Y605681D01*
X50476Y605215D01*
X50150Y604780D01*
X49795Y604375D01*
X49412Y603999D01*
X49000Y603654D01*
X48560Y603339D01*
X48091Y603054D01*
X47597Y602801D01*
X47080Y602582D01*
X46539Y602396D01*
X45977Y602245D01*
X45391Y602126D01*
X44782Y602042D01*
X44151Y601992D01*
X43497Y601975D01*
G37*
%LPC*%
G36*
X43497Y603876D02*
X43855Y603884D01*
X44204Y603906D01*
X44543Y603943D01*
X44871Y603995D01*
X45190Y604062D01*
X45499Y604144D01*
X45798Y604241D01*
X46087Y604353D01*
X46366Y604480D01*
X46635Y604621D01*
X46895Y604778D01*
X47144Y604949D01*
X47383Y605136D01*
X47613Y605337D01*
X47833Y605553D01*
X48042Y605784D01*
X48241Y606028D01*
X48426Y606282D01*
X48599Y606546D01*
X48759Y606822D01*
X48906Y607107D01*
X49040Y607404D01*
X49162Y607710D01*
X49271Y608027D01*
X49367Y608355D01*
X49450Y608693D01*
X49520Y609042D01*
X49578Y609401D01*
X49622Y609771D01*
X49654Y610151D01*
X49674Y610541D01*
X49680Y610943D01*
X49674Y611346D01*
X49655Y611739D01*
X49623Y612120D01*
X49579Y612489D01*
X49522Y612847D01*
X49452Y613194D01*
X49370Y613529D01*
X49275Y613853D01*
X49168Y614166D01*
X49047Y614467D01*
X48915Y614756D01*
X48769Y615035D01*
X48611Y615302D01*
X48440Y615557D01*
X48257Y615801D01*
X48061Y616034D01*
X47853Y616254D01*
X47635Y616459D01*
X47406Y616651D01*
X47167Y616828D01*
X46917Y616991D01*
X46656Y617140D01*
X46385Y617275D01*
X46104Y617396D01*
X45812Y617502D01*
X45509Y617594D01*
X45196Y617672D01*
X44872Y617736D01*
X44538Y617786D01*
X44194Y617821D01*
X43838Y617842D01*
X43472Y617850D01*
X43110Y617842D01*
X42757Y617821D01*
X42415Y617785D01*
X42083Y617735D01*
X41762Y617670D01*
X41451Y617591D01*
X41151Y617497D01*
X40861Y617389D01*
X40581Y617267D01*
X40312Y617131D01*
X40053Y616980D01*
X39805Y616814D01*
X39567Y616635D01*
X39339Y616441D01*
X39122Y616232D01*
X38915Y616009D01*
X38719Y615774D01*
X38537Y615528D01*
X38367Y615270D01*
X38209Y615003D01*
X38064Y614724D01*
X37932Y614434D01*
X37812Y614134D01*
X37705Y613823D01*
X37610Y613500D01*
X37528Y613168D01*
X37459Y612824D01*
X37402Y612469D01*
X37358Y612104D01*
X37327Y611728D01*
X37308Y611340D01*
X37302Y610943D01*
X37308Y610527D01*
X37327Y610123D01*
X37358Y609731D01*
X37402Y609351D01*
X37458Y608983D01*
X37527Y608627D01*
X37608Y608283D01*
X37702Y607951D01*
X37808Y607630D01*
X37927Y607322D01*
X38058Y607026D01*
X38202Y606741D01*
X38358Y606469D01*
X38527Y606208D01*
X38709Y605959D01*
X38903Y605723D01*
X39108Y605499D01*
X39325Y605290D01*
X39552Y605095D01*
X39790Y604915D01*
X40039Y604749D01*
X40299Y604597D01*
X40570Y604460D01*
X40852Y604338D01*
X41144Y604230D01*
X41448Y604136D01*
X41762Y604056D01*
X42087Y603992D01*
X42423Y603941D01*
X42770Y603905D01*
X43128Y603883D01*
X43497Y603876D01*
G37*
%LPD*%
G36*
X57429Y602220D02*
X55319Y602220D01*
X55319Y619506D01*
X58325Y619506D01*
X62840Y607520D01*
X63001Y607077D01*
X63263Y606262D01*
X63522Y605390D01*
X63674Y604772D01*
X63786Y605255D01*
X63974Y605968D01*
X64206Y606770D01*
X64447Y607520D01*
X69047Y619506D01*
X72126Y619506D01*
X72126Y602220D01*
X70041Y602220D01*
X70041Y613752D01*
X70090Y616071D01*
X70127Y617432D01*
X69722Y616083D01*
X69035Y613997D01*
X64508Y602220D01*
X62864Y602220D01*
X58399Y613997D01*
X58152Y614677D01*
X57889Y615476D01*
X57612Y616394D01*
X57319Y617432D01*
X57367Y616540D01*
X57402Y615629D01*
X57422Y614700D01*
X57429Y613752D01*
X57429Y602220D01*
G37*
G36*
X25254Y601975D02*
X24428Y601995D01*
X23650Y602057D01*
X22920Y602159D01*
X22237Y602303D01*
X21603Y602487D01*
X21016Y602713D01*
X20476Y602980D01*
X19985Y603287D01*
X19546Y603632D01*
X19166Y604011D01*
X18998Y604213D01*
X18845Y604424D01*
X18706Y604643D01*
X18582Y604870D01*
X18472Y605106D01*
X18377Y605350D01*
X18297Y605603D01*
X18231Y605864D01*
X18180Y606133D01*
X18143Y606411D01*
X18121Y606697D01*
X18114Y606992D01*
X18130Y607449D01*
X18180Y607876D01*
X18262Y608271D01*
X18378Y608636D01*
X18522Y608974D01*
X18692Y609289D01*
X18887Y609582D01*
X19108Y609851D01*
X19351Y610098D01*
X19615Y610326D01*
X19900Y610534D01*
X20206Y610722D01*
X20860Y611055D01*
X21561Y611341D01*
X22302Y611587D01*
X23076Y611795D01*
X24665Y612169D01*
X25756Y612423D01*
X26649Y612656D01*
X27345Y612868D01*
X27842Y613059D01*
X28218Y613250D01*
X28546Y613461D01*
X28828Y613691D01*
X29063Y613942D01*
X29248Y614220D01*
X29321Y614372D01*
X29380Y614533D01*
X29427Y614702D01*
X29460Y614879D01*
X29480Y615066D01*
X29486Y615261D01*
X29469Y615591D01*
X29418Y615900D01*
X29333Y616187D01*
X29213Y616454D01*
X29060Y616700D01*
X28872Y616924D01*
X28650Y617127D01*
X28394Y617310D01*
X28106Y617471D01*
X27787Y617610D01*
X27438Y617728D01*
X27057Y617825D01*
X26646Y617900D01*
X26205Y617954D01*
X25732Y617986D01*
X25229Y617997D01*
X24770Y617987D01*
X24336Y617958D01*
X23928Y617910D01*
X23545Y617842D01*
X23189Y617755D01*
X22858Y617648D01*
X22552Y617522D01*
X22273Y617377D01*
X22017Y617211D01*
X21782Y617020D01*
X21569Y616806D01*
X21377Y616569D01*
X21207Y616308D01*
X21058Y616023D01*
X20931Y615715D01*
X20825Y615384D01*
X18519Y615788D01*
X18690Y616312D01*
X18890Y616795D01*
X19119Y617239D01*
X19377Y617642D01*
X19665Y618007D01*
X19982Y618331D01*
X20327Y618616D01*
X20702Y618862D01*
X21114Y619073D01*
X21568Y619256D01*
X22066Y619411D01*
X22607Y619538D01*
X23191Y619637D01*
X23819Y619707D01*
X24490Y619749D01*
X25205Y619763D01*
X25973Y619745D01*
X26696Y619688D01*
X27372Y619594D01*
X28003Y619463D01*
X28589Y619294D01*
X29128Y619087D01*
X29621Y618843D01*
X30069Y618561D01*
X30467Y618245D01*
X30812Y617896D01*
X31104Y617516D01*
X31343Y617104D01*
X31529Y616660D01*
X31602Y616427D01*
X31662Y616185D01*
X31708Y615935D01*
X31742Y615677D01*
X31762Y615412D01*
X31768Y615138D01*
X31748Y614667D01*
X31687Y614224D01*
X31585Y613809D01*
X31443Y613421D01*
X31262Y613058D01*
X31046Y612720D01*
X30793Y612405D01*
X30505Y612114D01*
X30170Y611842D01*
X29779Y611582D01*
X29333Y611336D01*
X28830Y611102D01*
X28238Y610875D01*
X27522Y610648D01*
X26683Y610421D01*
X25720Y610194D01*
X23573Y609691D01*
X23105Y609568D01*
X22671Y609431D01*
X22271Y609280D01*
X21905Y609115D01*
X21575Y608931D01*
X21284Y608725D01*
X21032Y608496D01*
X20819Y608244D01*
X20650Y607960D01*
X20529Y607636D01*
X20487Y607460D01*
X20457Y607273D01*
X20439Y607076D01*
X20432Y606870D01*
X20452Y606504D01*
X20510Y606161D01*
X20606Y605841D01*
X20741Y605543D01*
X20914Y605269D01*
X21126Y605017D01*
X21376Y604788D01*
X21665Y604582D01*
X21990Y604399D01*
X22347Y604241D01*
X22736Y604107D01*
X23158Y603997D01*
X23612Y603912D01*
X24098Y603851D01*
X24617Y603815D01*
X25168Y603803D01*
X25703Y603814D01*
X26208Y603848D01*
X26686Y603905D01*
X27134Y603985D01*
X27554Y604088D01*
X27944Y604213D01*
X28306Y604361D01*
X28640Y604533D01*
X28945Y604728D01*
X29223Y604949D01*
X29472Y605196D01*
X29695Y605470D01*
X29890Y605768D01*
X30057Y606093D01*
X30196Y606444D01*
X30308Y606821D01*
X32578Y606367D01*
X32431Y605835D01*
X32243Y605337D01*
X32014Y604874D01*
X31743Y604445D01*
X31430Y604051D01*
X31076Y603690D01*
X30681Y603364D01*
X30244Y603073D01*
X29765Y602815D01*
X29245Y602592D01*
X28684Y602404D01*
X28081Y602249D01*
X27436Y602129D01*
X26750Y602043D01*
X26023Y601992D01*
X25254Y601975D01*
G37*
G36*
X14650Y602220D02*
X12307Y602220D01*
X12307Y619506D01*
X14650Y619506D01*
X14650Y602220D01*
G37*
G36*
X19778Y631975D02*
X19130Y631992D01*
X18503Y632043D01*
X17898Y632128D01*
X17315Y632248D01*
X16754Y632401D01*
X16215Y632589D01*
X15698Y632811D01*
X15202Y633066D01*
X14732Y633354D01*
X14289Y633671D01*
X13875Y634018D01*
X13489Y634395D01*
X13131Y634800D01*
X12802Y635236D01*
X12500Y635700D01*
X12227Y636195D01*
X11984Y636715D01*
X11774Y637255D01*
X11595Y637817D01*
X11450Y638400D01*
X11336Y639004D01*
X11255Y639629D01*
X11207Y640275D01*
X11191Y640943D01*
X11207Y641612D01*
X11255Y642259D01*
X11335Y642883D01*
X11447Y643485D01*
X11591Y644064D01*
X11767Y644621D01*
X11975Y645155D01*
X12215Y645666D01*
X12485Y646151D01*
X12784Y646606D01*
X13112Y647032D01*
X13468Y647428D01*
X13852Y647794D01*
X14266Y648131D01*
X14707Y648437D01*
X15178Y648714D01*
X15673Y648960D01*
X16191Y649173D01*
X16730Y649354D01*
X17291Y649501D01*
X17874Y649616D01*
X18479Y649698D01*
X19105Y649747D01*
X19754Y649763D01*
X20253Y649754D01*
X20738Y649727D01*
X21209Y649681D01*
X21667Y649617D01*
X22110Y649535D01*
X22540Y649435D01*
X22956Y649316D01*
X23357Y649179D01*
X23745Y649024D01*
X24119Y648850D01*
X24479Y648659D01*
X24826Y648449D01*
X25158Y648221D01*
X25476Y647974D01*
X25781Y647709D01*
X26072Y647426D01*
X26347Y647127D01*
X26604Y646814D01*
X26843Y646486D01*
X27065Y646145D01*
X27269Y645789D01*
X27455Y645419D01*
X27623Y645035D01*
X27774Y644637D01*
X27907Y644225D01*
X28022Y643798D01*
X28120Y643358D01*
X28199Y642903D01*
X28261Y642434D01*
X28306Y641951D01*
X28332Y641454D01*
X28341Y640943D01*
X28325Y640272D01*
X28278Y639623D01*
X28198Y638996D01*
X28087Y638389D01*
X27944Y637804D01*
X27769Y637240D01*
X27562Y636698D01*
X27323Y636176D01*
X27054Y635681D01*
X26757Y635215D01*
X26431Y634780D01*
X26076Y634375D01*
X25693Y633999D01*
X25282Y633654D01*
X24841Y633339D01*
X24373Y633054D01*
X23878Y632801D01*
X23361Y632582D01*
X22821Y632396D01*
X22258Y632245D01*
X21672Y632126D01*
X21064Y632042D01*
X20432Y631992D01*
X19778Y631975D01*
G37*
%LPC*%
G36*
X19778Y633876D02*
X20137Y633884D01*
X20485Y633906D01*
X20824Y633943D01*
X21153Y633995D01*
X21471Y634062D01*
X21780Y634144D01*
X22079Y634241D01*
X22368Y634353D01*
X22647Y634480D01*
X22917Y634621D01*
X23176Y634778D01*
X23425Y634949D01*
X23665Y635136D01*
X23894Y635337D01*
X24114Y635553D01*
X24323Y635784D01*
X24522Y636028D01*
X24707Y636282D01*
X24880Y636546D01*
X25040Y636822D01*
X25187Y637107D01*
X25322Y637404D01*
X25443Y637710D01*
X25552Y638027D01*
X25648Y638355D01*
X25731Y638693D01*
X25801Y639042D01*
X25859Y639401D01*
X25904Y639771D01*
X25936Y640151D01*
X25955Y640541D01*
X25961Y640943D01*
X25955Y641346D01*
X25936Y641739D01*
X25904Y642120D01*
X25860Y642489D01*
X25803Y642847D01*
X25734Y643194D01*
X25651Y643529D01*
X25556Y643853D01*
X25449Y644166D01*
X25329Y644467D01*
X25196Y644756D01*
X25050Y645035D01*
X24892Y645302D01*
X24721Y645557D01*
X24538Y645801D01*
X24342Y646034D01*
X24134Y646254D01*
X23916Y646459D01*
X23687Y646651D01*
X23448Y646828D01*
X23198Y646991D01*
X22938Y647140D01*
X22667Y647275D01*
X22385Y647396D01*
X22093Y647502D01*
X21791Y647594D01*
X21477Y647672D01*
X21154Y647736D01*
X20820Y647786D01*
X20475Y647821D01*
X20119Y647842D01*
X19754Y647850D01*
X19391Y647842D01*
X19038Y647821D01*
X18696Y647785D01*
X18365Y647735D01*
X18043Y647670D01*
X17733Y647591D01*
X17432Y647497D01*
X17142Y647389D01*
X16862Y647267D01*
X16593Y647131D01*
X16334Y646980D01*
X16086Y646814D01*
X15848Y646635D01*
X15620Y646441D01*
X15403Y646232D01*
X15196Y646009D01*
X15001Y645774D01*
X14818Y645528D01*
X14648Y645270D01*
X14490Y645003D01*
X14345Y644724D01*
X14213Y644434D01*
X14093Y644134D01*
X13986Y643823D01*
X13892Y643500D01*
X13810Y643168D01*
X13740Y642824D01*
X13684Y642469D01*
X13640Y642104D01*
X13608Y641728D01*
X13589Y641340D01*
X13583Y640943D01*
X13589Y640527D01*
X13608Y640123D01*
X13639Y639731D01*
X13683Y639351D01*
X13739Y638983D01*
X13808Y638627D01*
X13889Y638283D01*
X13983Y637951D01*
X14089Y637630D01*
X14208Y637322D01*
X14340Y637026D01*
X14483Y636741D01*
X14640Y636469D01*
X14809Y636208D01*
X14990Y635959D01*
X15184Y635723D01*
X15389Y635499D01*
X15606Y635290D01*
X15833Y635095D01*
X16071Y634915D01*
X16320Y634749D01*
X16580Y634597D01*
X16851Y634460D01*
X17133Y634338D01*
X17425Y634230D01*
X17729Y634136D01*
X18043Y634056D01*
X18368Y633992D01*
X18705Y633941D01*
X19052Y633905D01*
X19409Y633883D01*
X19778Y633876D01*
G37*
%LPD*%
G36*
X57429Y632220D02*
X55319Y632220D01*
X55319Y649506D01*
X58325Y649506D01*
X62840Y637520D01*
X63001Y637077D01*
X63263Y636262D01*
X63522Y635390D01*
X63674Y634772D01*
X63786Y635255D01*
X63974Y635968D01*
X64206Y636770D01*
X64447Y637520D01*
X69047Y649506D01*
X72126Y649506D01*
X72126Y632220D01*
X70041Y632220D01*
X70041Y643752D01*
X70090Y646071D01*
X70127Y647432D01*
X69722Y646083D01*
X69035Y643997D01*
X64508Y632220D01*
X62864Y632220D01*
X58399Y643997D01*
X58152Y644677D01*
X57889Y645476D01*
X57612Y646394D01*
X57319Y647432D01*
X57367Y646540D01*
X57402Y645629D01*
X57422Y644700D01*
X57429Y643752D01*
X57429Y632220D01*
G37*
G36*
X37816Y631975D02*
X36991Y631995D01*
X36213Y632057D01*
X35482Y632159D01*
X34800Y632303D01*
X34165Y632487D01*
X33578Y632713D01*
X33039Y632980D01*
X32547Y633287D01*
X32109Y633632D01*
X31729Y634011D01*
X31561Y634213D01*
X31407Y634424D01*
X31268Y634643D01*
X31144Y634870D01*
X31034Y635106D01*
X30939Y635350D01*
X30859Y635603D01*
X30793Y635864D01*
X30742Y636133D01*
X30706Y636411D01*
X30684Y636697D01*
X30676Y636992D01*
X30693Y637449D01*
X30742Y637876D01*
X30825Y638271D01*
X30940Y638636D01*
X31085Y638974D01*
X31254Y639289D01*
X31450Y639582D01*
X31670Y639851D01*
X31913Y640098D01*
X32178Y640326D01*
X32462Y640534D01*
X32768Y640722D01*
X33423Y641055D01*
X34124Y641341D01*
X34864Y641587D01*
X35639Y641795D01*
X37227Y642169D01*
X38319Y642423D01*
X39212Y642656D01*
X39907Y642868D01*
X40405Y643059D01*
X40780Y643250D01*
X41109Y643461D01*
X41391Y643691D01*
X41626Y643942D01*
X41811Y644220D01*
X41883Y644372D01*
X41943Y644533D01*
X41989Y644702D01*
X42022Y644879D01*
X42042Y645066D01*
X42049Y645261D01*
X42032Y645591D01*
X41981Y645900D01*
X41895Y646187D01*
X41776Y646454D01*
X41622Y646700D01*
X41435Y646924D01*
X41213Y647127D01*
X40957Y647310D01*
X40669Y647471D01*
X40350Y647610D01*
X40000Y647728D01*
X39620Y647825D01*
X39209Y647900D01*
X38767Y647954D01*
X38295Y647986D01*
X37792Y647997D01*
X37332Y647987D01*
X36899Y647958D01*
X36490Y647910D01*
X36108Y647842D01*
X35751Y647755D01*
X35420Y647648D01*
X35115Y647522D01*
X34835Y647377D01*
X34579Y647211D01*
X34344Y647020D01*
X34131Y646806D01*
X33940Y646569D01*
X33769Y646308D01*
X33621Y646023D01*
X33493Y645715D01*
X33388Y645384D01*
X31081Y645788D01*
X31252Y646312D01*
X31452Y646795D01*
X31682Y647239D01*
X31940Y647642D01*
X32227Y648007D01*
X32544Y648331D01*
X32890Y648616D01*
X33265Y648862D01*
X33676Y649073D01*
X34131Y649256D01*
X34628Y649411D01*
X35169Y649538D01*
X35754Y649637D01*
X36382Y649707D01*
X37053Y649749D01*
X37767Y649763D01*
X38536Y649745D01*
X39258Y649688D01*
X39935Y649594D01*
X40566Y649463D01*
X41151Y649294D01*
X41690Y649087D01*
X42184Y648843D01*
X42632Y648561D01*
X43030Y648245D01*
X43375Y647896D01*
X43667Y647516D01*
X43906Y647104D01*
X44092Y646660D01*
X44165Y646427D01*
X44224Y646185D01*
X44271Y645935D01*
X44304Y645677D01*
X44324Y645412D01*
X44331Y645138D01*
X44310Y644667D01*
X44249Y644224D01*
X44148Y643809D01*
X44006Y643421D01*
X43825Y643058D01*
X43608Y642720D01*
X43356Y642405D01*
X43067Y642114D01*
X42732Y641842D01*
X42342Y641582D01*
X41895Y641336D01*
X41392Y641102D01*
X40800Y640875D01*
X40084Y640648D01*
X39245Y640421D01*
X38283Y640194D01*
X36136Y639691D01*
X35668Y639568D01*
X35234Y639431D01*
X34834Y639280D01*
X34467Y639115D01*
X34137Y638931D01*
X33846Y638725D01*
X33594Y638496D01*
X33381Y638244D01*
X33212Y637960D01*
X33092Y637636D01*
X33049Y637460D01*
X33019Y637273D01*
X33001Y637076D01*
X32995Y636870D01*
X33014Y636504D01*
X33072Y636161D01*
X33168Y635841D01*
X33303Y635543D01*
X33477Y635269D01*
X33688Y635017D01*
X33939Y634788D01*
X34228Y634582D01*
X34552Y634399D01*
X34909Y634241D01*
X35298Y634107D01*
X35720Y633997D01*
X36174Y633912D01*
X36660Y633851D01*
X37179Y633815D01*
X37730Y633803D01*
X38265Y633814D01*
X38771Y633848D01*
X39248Y633905D01*
X39696Y633985D01*
X40116Y634088D01*
X40507Y634213D01*
X40869Y634361D01*
X41202Y634533D01*
X41507Y634728D01*
X41785Y634949D01*
X42035Y635196D01*
X42257Y635470D01*
X42452Y635768D01*
X42619Y636093D01*
X42759Y636444D01*
X42871Y636821D01*
X45140Y636367D01*
X44994Y635835D01*
X44806Y635337D01*
X44576Y634874D01*
X44305Y634445D01*
X43993Y634051D01*
X43639Y633690D01*
X43243Y633364D01*
X42806Y633073D01*
X42328Y632815D01*
X41808Y632592D01*
X41246Y632404D01*
X40643Y632249D01*
X39999Y632129D01*
X39313Y632043D01*
X38585Y631992D01*
X37816Y631975D01*
G37*
G36*
X50931Y632220D02*
X48588Y632220D01*
X48588Y649506D01*
X50931Y649506D01*
X50931Y632220D01*
G37*
G36*
X53191Y671975D02*
X52366Y671995D01*
X51588Y672057D01*
X50857Y672159D01*
X50175Y672303D01*
X49540Y672487D01*
X48953Y672713D01*
X48414Y672980D01*
X47922Y673287D01*
X47484Y673632D01*
X47104Y674011D01*
X46936Y674213D01*
X46782Y674424D01*
X46643Y674643D01*
X46519Y674870D01*
X46409Y675106D01*
X46314Y675350D01*
X46234Y675603D01*
X46168Y675864D01*
X46117Y676133D01*
X46081Y676411D01*
X46059Y676697D01*
X46051Y676992D01*
X46068Y677449D01*
X46117Y677876D01*
X46200Y678271D01*
X46315Y678636D01*
X46460Y678974D01*
X46629Y679289D01*
X46825Y679582D01*
X47045Y679851D01*
X47288Y680098D01*
X47553Y680326D01*
X47837Y680534D01*
X48143Y680722D01*
X48798Y681055D01*
X49499Y681341D01*
X50239Y681587D01*
X51014Y681795D01*
X52602Y682169D01*
X53694Y682423D01*
X54587Y682656D01*
X55282Y682868D01*
X55780Y683059D01*
X56155Y683250D01*
X56484Y683461D01*
X56766Y683691D01*
X57001Y683942D01*
X57186Y684220D01*
X57258Y684372D01*
X57318Y684533D01*
X57364Y684702D01*
X57397Y684879D01*
X57417Y685066D01*
X57424Y685261D01*
X57407Y685591D01*
X57356Y685900D01*
X57270Y686187D01*
X57151Y686454D01*
X56997Y686700D01*
X56810Y686924D01*
X56588Y687127D01*
X56332Y687310D01*
X56044Y687471D01*
X55725Y687610D01*
X55375Y687728D01*
X54995Y687825D01*
X54584Y687900D01*
X54142Y687954D01*
X53670Y687986D01*
X53167Y687997D01*
X52707Y687987D01*
X52274Y687958D01*
X51865Y687910D01*
X51483Y687842D01*
X51126Y687755D01*
X50795Y687648D01*
X50490Y687522D01*
X50210Y687377D01*
X49954Y687211D01*
X49719Y687020D01*
X49506Y686806D01*
X49315Y686569D01*
X49144Y686308D01*
X48996Y686023D01*
X48868Y685715D01*
X48763Y685384D01*
X46456Y685788D01*
X46627Y686312D01*
X46827Y686795D01*
X47057Y687239D01*
X47315Y687642D01*
X47602Y688007D01*
X47919Y688331D01*
X48265Y688616D01*
X48640Y688862D01*
X49051Y689073D01*
X49506Y689256D01*
X50003Y689411D01*
X50544Y689538D01*
X51129Y689637D01*
X51757Y689707D01*
X52428Y689749D01*
X53142Y689763D01*
X53911Y689745D01*
X54633Y689688D01*
X55310Y689594D01*
X55941Y689463D01*
X56526Y689294D01*
X57065Y689087D01*
X57559Y688843D01*
X58007Y688561D01*
X58405Y688245D01*
X58750Y687896D01*
X59042Y687516D01*
X59281Y687104D01*
X59467Y686660D01*
X59540Y686427D01*
X59599Y686185D01*
X59646Y685935D01*
X59679Y685677D01*
X59699Y685412D01*
X59706Y685138D01*
X59685Y684667D01*
X59624Y684224D01*
X59523Y683809D01*
X59381Y683421D01*
X59200Y683058D01*
X58983Y682720D01*
X58731Y682405D01*
X58442Y682114D01*
X58107Y681842D01*
X57717Y681582D01*
X57270Y681336D01*
X56767Y681102D01*
X56175Y680875D01*
X55459Y680648D01*
X54620Y680421D01*
X53658Y680194D01*
X51511Y679691D01*
X51043Y679568D01*
X50609Y679431D01*
X50209Y679280D01*
X49842Y679115D01*
X49512Y678931D01*
X49221Y678725D01*
X48969Y678496D01*
X48756Y678244D01*
X48587Y677960D01*
X48467Y677636D01*
X48424Y677460D01*
X48394Y677273D01*
X48376Y677076D01*
X48370Y676870D01*
X48389Y676504D01*
X48447Y676161D01*
X48543Y675841D01*
X48678Y675543D01*
X48852Y675269D01*
X49063Y675017D01*
X49314Y674788D01*
X49603Y674582D01*
X49927Y674399D01*
X50284Y674241D01*
X50673Y674107D01*
X51095Y673997D01*
X51549Y673912D01*
X52035Y673851D01*
X52554Y673815D01*
X53105Y673803D01*
X53640Y673814D01*
X54146Y673848D01*
X54623Y673905D01*
X55071Y673985D01*
X55491Y674088D01*
X55882Y674213D01*
X56244Y674361D01*
X56577Y674533D01*
X56882Y674728D01*
X57160Y674949D01*
X57410Y675196D01*
X57632Y675470D01*
X57827Y675768D01*
X57994Y676093D01*
X58134Y676444D01*
X58246Y676821D01*
X60515Y676367D01*
X60369Y675835D01*
X60181Y675337D01*
X59951Y674874D01*
X59680Y674445D01*
X59368Y674051D01*
X59014Y673690D01*
X58618Y673364D01*
X58181Y673073D01*
X57703Y672815D01*
X57183Y672592D01*
X56621Y672404D01*
X56018Y672249D01*
X55374Y672129D01*
X54688Y672043D01*
X53960Y671992D01*
X53191Y671975D01*
G37*
G36*
X13182Y672220D02*
X10274Y672220D01*
X18616Y681998D01*
X11255Y689506D01*
X14016Y689506D01*
X22346Y680844D01*
X22346Y689506D01*
X24689Y689506D01*
X24689Y672220D01*
X22346Y672220D01*
X22346Y678845D01*
X20088Y680562D01*
X13182Y672220D01*
G37*
G36*
X35202Y671975D02*
X34574Y671993D01*
X33965Y672048D01*
X33376Y672139D01*
X32805Y672266D01*
X32255Y672430D01*
X31723Y672630D01*
X31211Y672867D01*
X30718Y673140D01*
X30249Y673448D01*
X29806Y673790D01*
X29391Y674164D01*
X29002Y674572D01*
X28641Y675014D01*
X28306Y675489D01*
X27999Y675997D01*
X27719Y676538D01*
X29633Y677495D01*
X29868Y677060D01*
X30118Y676653D01*
X30381Y676274D01*
X30659Y675923D01*
X30951Y675600D01*
X31257Y675305D01*
X31577Y675038D01*
X31911Y674799D01*
X32260Y674589D01*
X32622Y674406D01*
X32998Y674252D01*
X33389Y674125D01*
X33793Y674027D01*
X34212Y673957D01*
X34645Y673915D01*
X35092Y673901D01*
X35441Y673908D01*
X35782Y673931D01*
X36113Y673969D01*
X36436Y674021D01*
X36749Y674089D01*
X37053Y674172D01*
X37347Y674271D01*
X37633Y674384D01*
X37909Y674512D01*
X38177Y674655D01*
X38435Y674814D01*
X38684Y674988D01*
X38924Y675176D01*
X39154Y675380D01*
X39376Y675599D01*
X39588Y675833D01*
X39978Y676335D01*
X40153Y676601D01*
X40315Y676877D01*
X40465Y677162D01*
X40601Y677457D01*
X40724Y677762D01*
X40835Y678076D01*
X40932Y678401D01*
X41017Y678735D01*
X41088Y679078D01*
X41147Y679432D01*
X41192Y679795D01*
X41224Y680168D01*
X41244Y680550D01*
X41250Y680943D01*
X41244Y681339D01*
X41225Y681725D01*
X41194Y682100D01*
X41151Y682464D01*
X41095Y682818D01*
X41026Y683161D01*
X40945Y683493D01*
X40852Y683815D01*
X40746Y684126D01*
X40627Y684426D01*
X40497Y684716D01*
X40353Y684995D01*
X40198Y685263D01*
X40029Y685520D01*
X39656Y686003D01*
X39451Y686227D01*
X39237Y686436D01*
X39013Y686631D01*
X38778Y686811D01*
X38534Y686977D01*
X38280Y687128D01*
X38016Y687265D01*
X37742Y687388D01*
X37458Y687496D01*
X37164Y687590D01*
X36860Y687669D01*
X36546Y687734D01*
X36222Y687785D01*
X35888Y687821D01*
X35544Y687842D01*
X35190Y687850D01*
X34741Y687837D01*
X34307Y687800D01*
X33889Y687737D01*
X33486Y687650D01*
X33099Y687538D01*
X32728Y687401D01*
X32371Y687239D01*
X32031Y687052D01*
X31710Y686842D01*
X31411Y686609D01*
X31135Y686354D01*
X30882Y686077D01*
X30652Y685777D01*
X30445Y685456D01*
X30260Y685112D01*
X30099Y684746D01*
X27878Y685482D01*
X28111Y685996D01*
X28375Y686478D01*
X28669Y686927D01*
X28995Y687343D01*
X29350Y687727D01*
X29737Y688079D01*
X30154Y688398D01*
X30602Y688684D01*
X31079Y688937D01*
X31585Y689156D01*
X32119Y689342D01*
X32681Y689493D01*
X33272Y689612D01*
X33891Y689696D01*
X34539Y689746D01*
X35215Y689763D01*
X35702Y689754D01*
X36175Y689727D01*
X36635Y689681D01*
X37082Y689617D01*
X37516Y689535D01*
X37936Y689434D01*
X38342Y689315D01*
X38735Y689178D01*
X39115Y689022D01*
X39481Y688848D01*
X39834Y688656D01*
X40174Y688445D01*
X40500Y688216D01*
X40813Y687969D01*
X41112Y687704D01*
X41398Y687420D01*
X41668Y687120D01*
X41921Y686806D01*
X42156Y686478D01*
X42374Y686137D01*
X42575Y685781D01*
X42758Y685411D01*
X42924Y685027D01*
X43072Y684629D01*
X43203Y684217D01*
X43316Y683791D01*
X43412Y683352D01*
X43491Y682898D01*
X43552Y682430D01*
X43596Y681948D01*
X43622Y681452D01*
X43630Y680943D01*
X43615Y680264D01*
X43568Y679609D01*
X43490Y678977D01*
X43380Y678368D01*
X43240Y677782D01*
X43068Y677220D01*
X42865Y676680D01*
X42631Y676164D01*
X42366Y675674D01*
X42074Y675213D01*
X41753Y674782D01*
X41404Y674379D01*
X41026Y674006D01*
X40620Y673661D01*
X40186Y673346D01*
X39723Y673060D01*
X39235Y672806D01*
X38725Y672585D01*
X38193Y672399D01*
X37639Y672246D01*
X37063Y672127D01*
X36465Y672043D01*
X35844Y671992D01*
X35202Y671975D01*
G37*
G36*
X45970Y702220D02*
X43271Y702220D01*
X46089Y706497D01*
X48178Y709667D01*
X47698Y709768D01*
X47244Y709899D01*
X46817Y710061D01*
X46416Y710253D01*
X46198Y710382D01*
X46042Y710475D01*
X45695Y710727D01*
X45375Y711010D01*
X45081Y711323D01*
X44817Y711661D01*
X44589Y712018D01*
X44397Y712394D01*
X44239Y712789D01*
X44116Y713203D01*
X44028Y713637D01*
X43976Y714090D01*
X43958Y714562D01*
X43964Y714849D01*
X43983Y715128D01*
X44014Y715400D01*
X44057Y715663D01*
X44181Y716166D01*
X44355Y716637D01*
X44579Y717075D01*
X44852Y717482D01*
X45174Y717857D01*
X45547Y718199D01*
X45965Y718505D01*
X46424Y718771D01*
X46925Y718995D01*
X47468Y719179D01*
X48053Y719322D01*
X48679Y719424D01*
X49346Y719485D01*
X50055Y719506D01*
X58189Y719506D01*
X58189Y702220D01*
X55846Y702220D01*
X55846Y709397D01*
X50460Y709397D01*
X45970Y702220D01*
G37*
%LPC*%
G36*
X55846Y711249D02*
X55846Y717629D01*
X50288Y717629D01*
X49821Y717616D01*
X49382Y717579D01*
X48971Y717517D01*
X48588Y717431D01*
X48233Y717320D01*
X47906Y717184D01*
X47608Y717023D01*
X47338Y716837D01*
X47098Y716628D01*
X46890Y716397D01*
X46714Y716143D01*
X46570Y715867D01*
X46458Y715568D01*
X46378Y715247D01*
X46330Y714903D01*
X46314Y714537D01*
X46329Y714158D01*
X46377Y713801D01*
X46456Y713466D01*
X46567Y713152D01*
X46709Y712860D01*
X46883Y712590D01*
X47088Y712341D01*
X47326Y712114D01*
X47592Y711911D01*
X47884Y711736D01*
X48203Y711587D01*
X48548Y711466D01*
X48919Y711371D01*
X49317Y711303D01*
X49740Y711263D01*
X50190Y711249D01*
X55846Y711249D01*
G37*
%LPD*%
G36*
X33629Y701975D02*
X32803Y701995D01*
X32025Y702057D01*
X31295Y702159D01*
X30612Y702303D01*
X29978Y702487D01*
X29391Y702713D01*
X28851Y702980D01*
X28360Y703287D01*
X27921Y703632D01*
X27541Y704011D01*
X27373Y704213D01*
X27220Y704424D01*
X27081Y704643D01*
X26957Y704870D01*
X26847Y705106D01*
X26752Y705350D01*
X26672Y705603D01*
X26606Y705864D01*
X26555Y706133D01*
X26518Y706411D01*
X26496Y706697D01*
X26489Y706992D01*
X26505Y707449D01*
X26555Y707876D01*
X26637Y708271D01*
X26753Y708636D01*
X26897Y708974D01*
X27067Y709289D01*
X27262Y709582D01*
X27483Y709851D01*
X27726Y710098D01*
X27990Y710326D01*
X28275Y710534D01*
X28581Y710722D01*
X29235Y711055D01*
X29936Y711341D01*
X30677Y711587D01*
X31451Y711795D01*
X33040Y712169D01*
X34131Y712423D01*
X35024Y712656D01*
X35720Y712868D01*
X36217Y713059D01*
X36593Y713250D01*
X36921Y713461D01*
X37203Y713691D01*
X37438Y713942D01*
X37623Y714220D01*
X37696Y714372D01*
X37755Y714533D01*
X37802Y714702D01*
X37835Y714879D01*
X37855Y715066D01*
X37861Y715261D01*
X37844Y715591D01*
X37793Y715900D01*
X37708Y716187D01*
X37588Y716454D01*
X37435Y716700D01*
X37247Y716924D01*
X37025Y717127D01*
X36769Y717310D01*
X36481Y717471D01*
X36162Y717610D01*
X35813Y717728D01*
X35432Y717825D01*
X35021Y717900D01*
X34580Y717954D01*
X34107Y717986D01*
X33604Y717997D01*
X33145Y717987D01*
X32711Y717958D01*
X32303Y717910D01*
X31920Y717842D01*
X31564Y717755D01*
X31233Y717648D01*
X30927Y717522D01*
X30648Y717377D01*
X30392Y717211D01*
X30157Y717020D01*
X29944Y716806D01*
X29752Y716569D01*
X29582Y716308D01*
X29433Y716023D01*
X29306Y715715D01*
X29200Y715384D01*
X26894Y715788D01*
X27065Y716312D01*
X27265Y716795D01*
X27494Y717239D01*
X27752Y717642D01*
X28040Y718007D01*
X28357Y718331D01*
X28702Y718616D01*
X29077Y718862D01*
X29489Y719073D01*
X29943Y719256D01*
X30441Y719411D01*
X30982Y719538D01*
X31566Y719637D01*
X32194Y719707D01*
X32865Y719749D01*
X33580Y719763D01*
X34348Y719745D01*
X35071Y719688D01*
X35747Y719594D01*
X36378Y719463D01*
X36964Y719294D01*
X37503Y719087D01*
X37996Y718843D01*
X38444Y718561D01*
X38842Y718245D01*
X39187Y717896D01*
X39479Y717516D01*
X39718Y717104D01*
X39904Y716660D01*
X39977Y716427D01*
X40037Y716185D01*
X40083Y715935D01*
X40117Y715677D01*
X40137Y715412D01*
X40143Y715138D01*
X40123Y714667D01*
X40062Y714224D01*
X39960Y713809D01*
X39818Y713421D01*
X39637Y713058D01*
X39421Y712720D01*
X39168Y712405D01*
X38880Y712114D01*
X38545Y711842D01*
X38154Y711582D01*
X37708Y711336D01*
X37205Y711102D01*
X36613Y710875D01*
X35897Y710648D01*
X35058Y710421D01*
X34095Y710194D01*
X31948Y709691D01*
X31480Y709568D01*
X31046Y709431D01*
X30646Y709280D01*
X30280Y709115D01*
X29950Y708931D01*
X29659Y708725D01*
X29407Y708496D01*
X29194Y708244D01*
X29025Y707960D01*
X28904Y707636D01*
X28862Y707460D01*
X28832Y707273D01*
X28814Y707076D01*
X28807Y706870D01*
X28827Y706504D01*
X28885Y706161D01*
X28981Y705841D01*
X29116Y705543D01*
X29289Y705269D01*
X29501Y705017D01*
X29751Y704788D01*
X30040Y704582D01*
X30365Y704399D01*
X30722Y704241D01*
X31111Y704107D01*
X31533Y703997D01*
X31987Y703912D01*
X32473Y703851D01*
X32992Y703815D01*
X33543Y703803D01*
X34078Y703814D01*
X34583Y703848D01*
X35061Y703905D01*
X35509Y703985D01*
X35929Y704088D01*
X36319Y704213D01*
X36681Y704361D01*
X37015Y704533D01*
X37320Y704728D01*
X37598Y704949D01*
X37847Y705196D01*
X38070Y705470D01*
X38265Y705768D01*
X38432Y706093D01*
X38571Y706444D01*
X38683Y706821D01*
X40953Y706367D01*
X40806Y705835D01*
X40618Y705337D01*
X40389Y704874D01*
X40118Y704445D01*
X39805Y704051D01*
X39451Y703690D01*
X39056Y703364D01*
X38619Y703073D01*
X38140Y702815D01*
X37620Y702592D01*
X37059Y702404D01*
X36456Y702249D01*
X35811Y702129D01*
X35125Y702043D01*
X34398Y701992D01*
X33629Y701975D01*
G37*
G36*
X18842Y702220D02*
X16511Y702220D01*
X16511Y717592D01*
X10573Y717592D01*
X10573Y719506D01*
X24779Y719506D01*
X24779Y717592D01*
X18842Y717592D01*
X18842Y702220D01*
G37*
G36*
X539256Y87023D02*
X538872Y87036D01*
X538512Y87073D01*
X538177Y87136D01*
X537868Y87223D01*
X537583Y87335D01*
X537322Y87473D01*
X537087Y87635D01*
X536876Y87822D01*
X536690Y88034D01*
X536529Y88271D01*
X536393Y88533D01*
X536281Y88820D01*
X536195Y89132D01*
X536133Y89469D01*
X536095Y89830D01*
X536083Y90217D01*
X536083Y96009D01*
X536072Y96997D01*
X536041Y97578D01*
X537239Y97578D01*
X537267Y97412D01*
X537295Y97011D01*
X537323Y96282D01*
X537337Y96282D01*
X537515Y96603D01*
X537726Y96884D01*
X537972Y97126D01*
X538251Y97329D01*
X538560Y97490D01*
X538896Y97605D01*
X539259Y97674D01*
X539648Y97697D01*
X539995Y97682D01*
X540320Y97637D01*
X540622Y97563D01*
X540901Y97458D01*
X541157Y97324D01*
X541390Y97159D01*
X541600Y96965D01*
X541788Y96741D01*
X541953Y96486D01*
X542096Y96197D01*
X542217Y95876D01*
X542315Y95522D01*
X542392Y95134D01*
X542447Y94714D01*
X542480Y94261D01*
X542491Y93775D01*
X542481Y93296D01*
X542451Y92850D01*
X542399Y92437D01*
X542328Y92057D01*
X542236Y91711D01*
X542123Y91397D01*
X541990Y91116D01*
X541837Y90868D01*
X541661Y90652D01*
X541463Y90464D01*
X541242Y90305D01*
X540997Y90175D01*
X540729Y90074D01*
X540439Y90002D01*
X540125Y89958D01*
X539788Y89944D01*
X539384Y89967D01*
X539007Y90036D01*
X538656Y90151D01*
X538331Y90312D01*
X538321Y90319D01*
X538036Y90518D01*
X537774Y90770D01*
X537546Y91066D01*
X537351Y91408D01*
X537337Y91408D01*
X537337Y90189D01*
X537344Y89922D01*
X537366Y89672D01*
X537403Y89439D01*
X537454Y89224D01*
X537521Y89026D01*
X537602Y88845D01*
X537697Y88681D01*
X537808Y88534D01*
X537933Y88405D01*
X538073Y88293D01*
X538227Y88198D01*
X538396Y88121D01*
X538580Y88061D01*
X538779Y88017D01*
X538981Y87993D01*
X538993Y87992D01*
X539221Y87983D01*
X539554Y88001D01*
X539854Y88054D01*
X540120Y88142D01*
X540352Y88267D01*
X540548Y88424D01*
X540706Y88611D01*
X540827Y88828D01*
X540909Y89076D01*
X542176Y88893D01*
X542116Y88676D01*
X542038Y88471D01*
X541945Y88279D01*
X541835Y88099D01*
X541708Y87933D01*
X541566Y87779D01*
X541406Y87638D01*
X541231Y87510D01*
X541039Y87396D01*
X540832Y87297D01*
X540608Y87214D01*
X540369Y87145D01*
X540115Y87092D01*
X539844Y87054D01*
X539558Y87031D01*
X539256Y87023D01*
G37*
%LPC*%
G36*
X539361Y90875D02*
X539602Y90886D01*
X539825Y90918D01*
X540029Y90971D01*
X540215Y91045D01*
X540383Y91141D01*
X540532Y91258D01*
X540663Y91396D01*
X540776Y91555D01*
X540872Y91738D01*
X540956Y91949D01*
X541027Y92187D01*
X541085Y92453D01*
X541131Y92746D01*
X541163Y93066D01*
X541182Y93414D01*
X541189Y93789D01*
X541182Y94168D01*
X541161Y94519D01*
X541127Y94844D01*
X541078Y95141D01*
X541016Y95411D01*
X540941Y95654D01*
X540851Y95870D01*
X540748Y96058D01*
X540629Y96222D01*
X540494Y96365D01*
X540343Y96485D01*
X540175Y96584D01*
X539991Y96660D01*
X539790Y96715D01*
X539573Y96748D01*
X539340Y96759D01*
X539057Y96737D01*
X538789Y96670D01*
X538537Y96560D01*
X538300Y96405D01*
X538083Y96208D01*
X537893Y95972D01*
X537728Y95697D01*
X537589Y95382D01*
X537478Y95032D01*
X537400Y94650D01*
X537352Y94235D01*
X537337Y93789D01*
X537352Y93353D01*
X537400Y92948D01*
X537478Y92574D01*
X537589Y92231D01*
X537728Y91922D01*
X537893Y91652D01*
X537969Y91561D01*
X538085Y91420D01*
X538303Y91226D01*
X538543Y91072D01*
X538799Y90963D01*
X539071Y90897D01*
X539361Y90875D01*
G37*
%LPD*%
G36*
X591596Y87023D02*
X590335Y87023D01*
X590335Y89986D01*
X590342Y90851D01*
X590363Y91177D01*
X590328Y91177D01*
X590160Y90868D01*
X589955Y90601D01*
X589715Y90374D01*
X589439Y90189D01*
X589127Y90045D01*
X588779Y89942D01*
X588395Y89881D01*
X587975Y89860D01*
X587638Y89875D01*
X587322Y89922D01*
X587028Y89999D01*
X586756Y90108D01*
X586505Y90247D01*
X586276Y90417D01*
X586070Y90619D01*
X585884Y90851D01*
X585721Y91114D01*
X585580Y91408D01*
X585460Y91734D01*
X585362Y92090D01*
X585286Y92477D01*
X585231Y92895D01*
X585198Y93344D01*
X585188Y93824D01*
X585198Y94310D01*
X585231Y94762D01*
X585285Y95181D01*
X585361Y95566D01*
X585458Y95918D01*
X585578Y96236D01*
X585718Y96521D01*
X585881Y96773D01*
X586065Y96993D01*
X586272Y97183D01*
X586500Y97345D01*
X586751Y97477D01*
X587024Y97579D01*
X587319Y97653D01*
X587636Y97697D01*
X587975Y97711D01*
X588405Y97691D01*
X588791Y97630D01*
X589133Y97528D01*
X589432Y97385D01*
X589695Y97199D01*
X589931Y96966D01*
X590140Y96686D01*
X590321Y96359D01*
X590349Y96359D01*
X590367Y96850D01*
X590398Y97378D01*
X590419Y97578D01*
X591638Y97578D01*
X591607Y97002D01*
X591596Y96030D01*
X591596Y87023D01*
G37*
%LPC*%
G36*
X588311Y90791D02*
X588570Y90802D01*
X588810Y90836D01*
X589031Y90891D01*
X589234Y90968D01*
X589418Y91068D01*
X589584Y91189D01*
X589731Y91333D01*
X589859Y91499D01*
X589971Y91688D01*
X590067Y91902D01*
X590149Y92140D01*
X590216Y92402D01*
X590268Y92689D01*
X590306Y93001D01*
X590328Y93337D01*
X590335Y93698D01*
X590322Y94209D01*
X590280Y94669D01*
X590211Y95079D01*
X590115Y95438D01*
X589992Y95751D01*
X589843Y96019D01*
X589670Y96243D01*
X589470Y96422D01*
X589238Y96560D01*
X588965Y96659D01*
X588652Y96718D01*
X588297Y96738D01*
X588072Y96727D01*
X587863Y96695D01*
X587670Y96642D01*
X587492Y96568D01*
X587330Y96472D01*
X587184Y96355D01*
X587053Y96217D01*
X586938Y96058D01*
X586838Y95874D01*
X586752Y95662D01*
X586678Y95422D01*
X586618Y95153D01*
X586571Y94856D01*
X586538Y94531D01*
X586518Y94178D01*
X586511Y93796D01*
X586518Y93404D01*
X586538Y93042D01*
X586572Y92709D01*
X586619Y92405D01*
X586680Y92130D01*
X586754Y91885D01*
X586841Y91668D01*
X586942Y91481D01*
X587058Y91320D01*
X587189Y91179D01*
X587336Y91061D01*
X587500Y90964D01*
X587679Y90888D01*
X587874Y90835D01*
X588085Y90802D01*
X588311Y90791D01*
G37*
%LPD*%
G36*
X554444Y89860D02*
X554106Y89875D01*
X553790Y89922D01*
X553496Y89999D01*
X553224Y90108D01*
X552974Y90247D01*
X552745Y90417D01*
X552538Y90619D01*
X552353Y90851D01*
X552190Y91114D01*
X552048Y91408D01*
X551929Y91734D01*
X551831Y92090D01*
X551754Y92477D01*
X551700Y92895D01*
X551667Y93344D01*
X551656Y93824D01*
X551667Y94299D01*
X551699Y94742D01*
X551751Y95155D01*
X551825Y95536D01*
X551920Y95887D01*
X552036Y96206D01*
X552174Y96494D01*
X552332Y96752D01*
X552513Y96978D01*
X552718Y97175D01*
X552946Y97341D01*
X553198Y97477D01*
X553474Y97582D01*
X553773Y97658D01*
X554097Y97703D01*
X554444Y97718D01*
X554854Y97698D01*
X555229Y97639D01*
X555570Y97541D01*
X555876Y97403D01*
X556151Y97220D01*
X556397Y96985D01*
X556615Y96698D01*
X556804Y96359D01*
X556832Y96359D01*
X556804Y97431D01*
X556804Y100394D01*
X558065Y100394D01*
X558065Y91562D01*
X558075Y90580D01*
X558107Y90000D01*
X556888Y90000D01*
X556846Y90515D01*
X556818Y91177D01*
X556804Y91177D01*
X556612Y90854D01*
X556393Y90579D01*
X556148Y90351D01*
X555876Y90172D01*
X555573Y90035D01*
X555233Y89938D01*
X554856Y89879D01*
X554444Y89860D01*
G37*
%LPC*%
G36*
X554780Y90791D02*
X555039Y90803D01*
X555279Y90836D01*
X555500Y90891D01*
X555703Y90969D01*
X555887Y91069D01*
X556052Y91191D01*
X556199Y91336D01*
X556328Y91502D01*
X556439Y91692D01*
X556536Y91907D01*
X556618Y92145D01*
X556685Y92408D01*
X556737Y92696D01*
X556774Y93008D01*
X556797Y93344D01*
X556804Y93705D01*
X556796Y94087D01*
X556774Y94443D01*
X556736Y94772D01*
X556682Y95074D01*
X556614Y95350D01*
X556530Y95599D01*
X556431Y95821D01*
X556317Y96016D01*
X556187Y96187D01*
X556038Y96335D01*
X555871Y96460D01*
X555686Y96563D01*
X555483Y96642D01*
X555262Y96699D01*
X555023Y96733D01*
X554766Y96745D01*
X554538Y96734D01*
X554326Y96702D01*
X554131Y96648D01*
X553952Y96573D01*
X553789Y96477D01*
X553643Y96359D01*
X553514Y96219D01*
X553400Y96058D01*
X553302Y95873D01*
X553216Y95659D01*
X553144Y95416D01*
X553085Y95146D01*
X553039Y94847D01*
X553006Y94521D01*
X552987Y94165D01*
X552980Y93782D01*
X552987Y93400D01*
X553006Y93046D01*
X553040Y92719D01*
X553086Y92419D01*
X553146Y92147D01*
X553218Y91902D01*
X553304Y91685D01*
X553404Y91495D01*
X553518Y91330D01*
X553649Y91187D01*
X553796Y91066D01*
X553960Y90967D01*
X554140Y90890D01*
X554337Y90835D01*
X554550Y90802D01*
X554780Y90791D01*
G37*
%LPD*%
G36*
X594744Y90000D02*
X593497Y90000D01*
X593497Y95050D01*
X593505Y95393D01*
X593530Y95711D01*
X593570Y96004D01*
X593628Y96272D01*
X593701Y96515D01*
X593791Y96733D01*
X593897Y96927D01*
X594019Y97095D01*
X594159Y97241D01*
X594319Y97368D01*
X594498Y97475D01*
X594697Y97562D01*
X594916Y97631D01*
X595154Y97679D01*
X595412Y97708D01*
X595689Y97718D01*
X596070Y97697D01*
X596422Y97634D01*
X596744Y97529D01*
X597037Y97382D01*
X597306Y97187D01*
X597553Y96939D01*
X597780Y96637D01*
X597987Y96282D01*
X598008Y96282D01*
X598125Y96632D01*
X598280Y96930D01*
X598473Y97178D01*
X598704Y97375D01*
X598977Y97525D01*
X599295Y97632D01*
X599658Y97697D01*
X600067Y97718D01*
X600430Y97698D01*
X600765Y97639D01*
X601071Y97541D01*
X601348Y97403D01*
X601604Y97215D01*
X601844Y96965D01*
X602069Y96654D01*
X602280Y96282D01*
X602301Y96282D01*
X602325Y97035D01*
X602343Y97389D01*
X602357Y97578D01*
X603548Y97578D01*
X603529Y97367D01*
X603516Y97027D01*
X603505Y95960D01*
X603505Y90000D01*
X602252Y90000D01*
X602252Y94391D01*
X602244Y94664D01*
X602222Y94920D01*
X602186Y95161D01*
X602135Y95386D01*
X602069Y95595D01*
X601988Y95789D01*
X601893Y95966D01*
X601783Y96128D01*
X601660Y96273D01*
X601527Y96398D01*
X601383Y96504D01*
X601229Y96591D01*
X601065Y96658D01*
X600890Y96706D01*
X600704Y96735D01*
X600508Y96745D01*
X600319Y96738D01*
X600146Y96718D01*
X599988Y96686D01*
X599844Y96640D01*
X599716Y96580D01*
X599603Y96508D01*
X599505Y96423D01*
X599422Y96324D01*
X599352Y96209D01*
X599291Y96072D01*
X599239Y95914D01*
X599196Y95734D01*
X599140Y95312D01*
X599121Y94805D01*
X599121Y90000D01*
X597874Y90000D01*
X597874Y94391D01*
X597867Y94665D01*
X597846Y94923D01*
X597810Y95165D01*
X597760Y95390D01*
X597695Y95600D01*
X597616Y95793D01*
X597523Y95971D01*
X597416Y96132D01*
X597295Y96275D01*
X597163Y96400D01*
X597020Y96505D01*
X596865Y96591D01*
X596699Y96658D01*
X596521Y96706D01*
X596331Y96735D01*
X596131Y96745D01*
X595942Y96738D01*
X595769Y96718D01*
X595610Y96686D01*
X595467Y96640D01*
X595339Y96580D01*
X595226Y96508D01*
X595128Y96423D01*
X595045Y96324D01*
X594974Y96209D01*
X594913Y96072D01*
X594861Y95914D01*
X594819Y95734D01*
X594763Y95312D01*
X594744Y94805D01*
X594744Y90000D01*
G37*
G36*
X625167Y89860D02*
X624696Y89872D01*
X624252Y89907D01*
X623835Y89965D01*
X623445Y90047D01*
X623083Y90153D01*
X622748Y90281D01*
X622440Y90434D01*
X622159Y90609D01*
X621909Y90806D01*
X621692Y91023D01*
X621508Y91258D01*
X621358Y91513D01*
X621241Y91787D01*
X621158Y92080D01*
X621108Y92393D01*
X621091Y92724D01*
X621101Y92985D01*
X621129Y93229D01*
X621176Y93455D01*
X621242Y93663D01*
X621324Y93856D01*
X621421Y94036D01*
X621533Y94203D01*
X621659Y94356D01*
X621948Y94628D01*
X622285Y94854D01*
X622659Y95044D01*
X623059Y95207D01*
X623482Y95347D01*
X623924Y95466D01*
X624831Y95680D01*
X625454Y95825D01*
X625964Y95958D01*
X626361Y96079D01*
X626645Y96188D01*
X626859Y96297D01*
X627047Y96417D01*
X627208Y96549D01*
X627342Y96692D01*
X627448Y96851D01*
X627523Y97029D01*
X627569Y97227D01*
X627584Y97445D01*
X627574Y97633D01*
X627545Y97810D01*
X627496Y97974D01*
X627428Y98126D01*
X627340Y98266D01*
X627233Y98394D01*
X627106Y98511D01*
X626960Y98615D01*
X626796Y98707D01*
X626614Y98786D01*
X626414Y98854D01*
X626197Y98909D01*
X625962Y98952D01*
X625710Y98982D01*
X625441Y99001D01*
X625153Y99007D01*
X624643Y98985D01*
X624192Y98918D01*
X623988Y98869D01*
X623799Y98808D01*
X623625Y98736D01*
X623466Y98653D01*
X623319Y98558D01*
X623185Y98449D01*
X623064Y98327D01*
X622954Y98192D01*
X622857Y98043D01*
X622772Y97880D01*
X622699Y97704D01*
X622639Y97515D01*
X621322Y97746D01*
X621420Y98045D01*
X621534Y98321D01*
X621665Y98574D01*
X621813Y98805D01*
X621977Y99013D01*
X622158Y99198D01*
X622355Y99361D01*
X622569Y99501D01*
X622804Y99621D01*
X623063Y99726D01*
X623347Y99814D01*
X623656Y99887D01*
X623990Y99943D01*
X624348Y99983D01*
X624732Y100007D01*
X625139Y100015D01*
X625578Y100005D01*
X625991Y99973D01*
X626377Y99919D01*
X626737Y99844D01*
X627071Y99747D01*
X627379Y99629D01*
X627661Y99490D01*
X627916Y99329D01*
X628144Y99148D01*
X628341Y98950D01*
X628508Y98733D01*
X628644Y98497D01*
X628750Y98244D01*
X628826Y97972D01*
X628871Y97683D01*
X628886Y97375D01*
X628875Y97106D01*
X628840Y96853D01*
X628782Y96616D01*
X628701Y96394D01*
X628598Y96188D01*
X628474Y95994D01*
X628330Y95815D01*
X628165Y95649D01*
X627974Y95493D01*
X627751Y95345D01*
X627496Y95204D01*
X627209Y95071D01*
X626871Y94941D01*
X626462Y94812D01*
X625983Y94682D01*
X625434Y94552D01*
X624208Y94265D01*
X623693Y94116D01*
X623255Y93936D01*
X623067Y93832D01*
X622901Y93714D01*
X622757Y93583D01*
X622636Y93439D01*
X622539Y93277D01*
X622470Y93092D01*
X622429Y92885D01*
X622415Y92654D01*
X622426Y92446D01*
X622459Y92250D01*
X622514Y92067D01*
X622591Y91897D01*
X622690Y91740D01*
X622811Y91597D01*
X622954Y91466D01*
X623119Y91348D01*
X623304Y91244D01*
X623508Y91154D01*
X623730Y91077D01*
X623971Y91015D01*
X624230Y90966D01*
X624508Y90931D01*
X624804Y90910D01*
X625118Y90903D01*
X625424Y90910D01*
X625712Y90930D01*
X625985Y90962D01*
X626241Y91008D01*
X626480Y91066D01*
X626703Y91138D01*
X626910Y91223D01*
X627100Y91320D01*
X627275Y91432D01*
X627433Y91558D01*
X627576Y91699D01*
X627703Y91855D01*
X627814Y92026D01*
X627909Y92211D01*
X627989Y92411D01*
X628053Y92626D01*
X629349Y92367D01*
X629265Y92064D01*
X629158Y91780D01*
X629027Y91515D01*
X628872Y91270D01*
X628694Y91045D01*
X628491Y90839D01*
X628266Y90653D01*
X628016Y90487D01*
X627743Y90340D01*
X627446Y90213D01*
X627126Y90105D01*
X626781Y90017D01*
X626413Y89948D01*
X626022Y89899D01*
X625606Y89870D01*
X625167Y89860D01*
G37*
G36*
X614659Y90000D02*
X613392Y90000D01*
X613392Y95050D01*
X613401Y95397D01*
X613428Y95719D01*
X613474Y96015D01*
X613538Y96285D01*
X613620Y96529D01*
X613721Y96747D01*
X613839Y96939D01*
X613977Y97105D01*
X614133Y97249D01*
X614309Y97373D01*
X614506Y97479D01*
X614723Y97565D01*
X614961Y97632D01*
X615218Y97680D01*
X615496Y97709D01*
X615794Y97718D01*
X616213Y97697D01*
X616593Y97631D01*
X616936Y97523D01*
X617240Y97371D01*
X617515Y97173D01*
X617770Y96926D01*
X618004Y96629D01*
X618217Y96282D01*
X618238Y96282D01*
X618207Y96808D01*
X618182Y97690D01*
X618182Y100394D01*
X619443Y100394D01*
X619443Y90000D01*
X618182Y90000D01*
X618182Y94468D01*
X618174Y94723D01*
X618149Y94963D01*
X618107Y95191D01*
X618048Y95405D01*
X617973Y95606D01*
X617881Y95793D01*
X617772Y95968D01*
X617647Y96128D01*
X617507Y96273D01*
X617357Y96398D01*
X617195Y96504D01*
X617022Y96591D01*
X616839Y96658D01*
X616644Y96706D01*
X616438Y96735D01*
X616221Y96745D01*
X615940Y96733D01*
X615691Y96699D01*
X615474Y96642D01*
X615290Y96563D01*
X615133Y96459D01*
X615001Y96329D01*
X614892Y96173D01*
X614806Y95992D01*
X614742Y95772D01*
X614696Y95501D01*
X614669Y95178D01*
X614659Y94805D01*
X614659Y90000D01*
G37*
G36*
X547729Y89860D02*
X547322Y89880D01*
X546950Y89941D01*
X546613Y90043D01*
X546310Y90186D01*
X546034Y90377D01*
X545774Y90626D01*
X545531Y90932D01*
X545305Y91296D01*
X545284Y91296D01*
X545260Y90543D01*
X545242Y90189D01*
X545228Y90000D01*
X544038Y90000D01*
X544056Y90211D01*
X544069Y90552D01*
X544080Y91618D01*
X544080Y97578D01*
X545340Y97578D01*
X545340Y93187D01*
X545349Y92918D01*
X545373Y92664D01*
X545414Y92425D01*
X545472Y92201D01*
X545546Y91992D01*
X545636Y91799D01*
X545743Y91620D01*
X545866Y91457D01*
X546003Y91311D01*
X546152Y91184D01*
X546314Y91077D01*
X546487Y90989D01*
X546673Y90921D01*
X546870Y90872D01*
X547080Y90843D01*
X547301Y90833D01*
X547594Y90845D01*
X547850Y90879D01*
X548067Y90936D01*
X548247Y91016D01*
X548397Y91121D01*
X548525Y91255D01*
X548632Y91419D01*
X548716Y91611D01*
X548781Y91838D01*
X548827Y92108D01*
X548854Y92420D01*
X548863Y92773D01*
X548863Y97578D01*
X550131Y97578D01*
X550131Y92528D01*
X550122Y92184D01*
X550095Y91865D01*
X550050Y91571D01*
X549987Y91302D01*
X549905Y91058D01*
X549806Y90840D01*
X549689Y90647D01*
X549553Y90480D01*
X549398Y90334D01*
X549223Y90209D01*
X549026Y90102D01*
X548808Y90015D01*
X548570Y89947D01*
X548310Y89899D01*
X548030Y89870D01*
X547729Y89860D01*
G37*
G36*
X531546Y89860D02*
X531192Y89869D01*
X530858Y89896D01*
X530545Y89942D01*
X530251Y90005D01*
X529978Y90087D01*
X529725Y90187D01*
X529493Y90305D01*
X529280Y90441D01*
X529091Y90594D01*
X528926Y90763D01*
X528787Y90946D01*
X528674Y91145D01*
X528585Y91359D01*
X528522Y91589D01*
X528484Y91834D01*
X528471Y92094D01*
X528480Y92305D01*
X528506Y92505D01*
X528550Y92692D01*
X528612Y92868D01*
X528689Y93033D01*
X528780Y93188D01*
X528887Y93332D01*
X529007Y93467D01*
X529147Y93594D01*
X529309Y93715D01*
X529495Y93830D01*
X529704Y93940D01*
X529960Y94049D01*
X530285Y94163D01*
X531147Y94405D01*
X532022Y94637D01*
X532324Y94731D01*
X532534Y94812D01*
X532688Y94889D01*
X532823Y94974D01*
X532937Y95068D01*
X533031Y95169D01*
X533104Y95281D01*
X533157Y95407D01*
X533188Y95547D01*
X533199Y95701D01*
X533193Y95828D01*
X533174Y95947D01*
X533097Y96160D01*
X532970Y96339D01*
X532793Y96486D01*
X532562Y96599D01*
X532274Y96680D01*
X531931Y96728D01*
X531532Y96745D01*
X531166Y96728D01*
X530840Y96677D01*
X530552Y96593D01*
X530303Y96475D01*
X530096Y96326D01*
X529933Y96147D01*
X529814Y95939D01*
X529739Y95701D01*
X528605Y95841D01*
X528662Y96076D01*
X528736Y96295D01*
X528828Y96496D01*
X528936Y96682D01*
X529062Y96850D01*
X529204Y97002D01*
X529363Y97137D01*
X529540Y97256D01*
X529732Y97359D01*
X529941Y97449D01*
X530166Y97525D01*
X530407Y97587D01*
X530664Y97635D01*
X530937Y97670D01*
X531227Y97690D01*
X531532Y97697D01*
X531875Y97689D01*
X532197Y97663D01*
X532498Y97621D01*
X532778Y97561D01*
X533037Y97485D01*
X533274Y97392D01*
X533490Y97282D01*
X533686Y97154D01*
X533859Y97011D01*
X534009Y96852D01*
X534136Y96678D01*
X534240Y96488D01*
X534321Y96283D01*
X534378Y96062D01*
X534413Y95826D01*
X534425Y95575D01*
X534408Y95306D01*
X534360Y95058D01*
X534279Y94833D01*
X534166Y94630D01*
X534023Y94444D01*
X533856Y94273D01*
X533665Y94117D01*
X533448Y93975D01*
X533179Y93839D01*
X532832Y93702D01*
X532407Y93564D01*
X531903Y93425D01*
X531000Y93187D01*
X530680Y93090D01*
X530408Y92980D01*
X530183Y92858D01*
X530005Y92724D01*
X529870Y92574D01*
X529774Y92402D01*
X529716Y92210D01*
X529697Y91996D01*
X529704Y91854D01*
X529725Y91720D01*
X529760Y91596D01*
X529808Y91481D01*
X529871Y91376D01*
X529947Y91279D01*
X530142Y91114D01*
X530396Y90985D01*
X530715Y90893D01*
X531099Y90838D01*
X531546Y90819D01*
X531970Y90837D01*
X532345Y90890D01*
X532670Y90979D01*
X532947Y91103D01*
X533178Y91265D01*
X533365Y91468D01*
X533510Y91712D01*
X533612Y91996D01*
X534726Y91779D01*
X534660Y91540D01*
X534577Y91318D01*
X534477Y91112D01*
X534361Y90922D01*
X534228Y90748D01*
X534078Y90591D01*
X533911Y90450D01*
X533728Y90326D01*
X533526Y90217D01*
X533304Y90122D01*
X533061Y90042D01*
X532799Y89976D01*
X532516Y89925D01*
X532213Y89889D01*
X531890Y89867D01*
X531546Y89860D01*
G37*
G36*
X566640Y89860D02*
X566286Y89869D01*
X565952Y89896D01*
X565638Y89942D01*
X565345Y90005D01*
X565072Y90087D01*
X564819Y90187D01*
X564586Y90305D01*
X564374Y90441D01*
X564185Y90594D01*
X564020Y90763D01*
X563881Y90946D01*
X563767Y91145D01*
X563679Y91359D01*
X563616Y91589D01*
X563578Y91834D01*
X563565Y92094D01*
X563574Y92305D01*
X563600Y92505D01*
X563644Y92692D01*
X563705Y92868D01*
X563783Y93033D01*
X563874Y93188D01*
X563980Y93332D01*
X564101Y93467D01*
X564240Y93594D01*
X564403Y93715D01*
X564589Y93830D01*
X564798Y93940D01*
X565053Y94049D01*
X565379Y94163D01*
X566241Y94405D01*
X567116Y94637D01*
X567417Y94731D01*
X567627Y94812D01*
X567782Y94889D01*
X567916Y94974D01*
X568031Y95068D01*
X568125Y95169D01*
X568198Y95281D01*
X568251Y95407D01*
X568282Y95547D01*
X568293Y95701D01*
X568286Y95828D01*
X568267Y95947D01*
X568191Y96160D01*
X568064Y96339D01*
X567887Y96486D01*
X567655Y96599D01*
X567368Y96680D01*
X567025Y96728D01*
X566626Y96745D01*
X566260Y96728D01*
X565933Y96677D01*
X565646Y96593D01*
X565397Y96475D01*
X565189Y96326D01*
X565026Y96147D01*
X564908Y95939D01*
X564833Y95701D01*
X563698Y95841D01*
X563756Y96076D01*
X563830Y96295D01*
X563922Y96496D01*
X564030Y96682D01*
X564155Y96850D01*
X564298Y97002D01*
X564457Y97137D01*
X564633Y97256D01*
X564826Y97359D01*
X565035Y97449D01*
X565260Y97525D01*
X565501Y97587D01*
X565758Y97635D01*
X566031Y97670D01*
X566320Y97690D01*
X566626Y97697D01*
X566969Y97689D01*
X567291Y97663D01*
X567592Y97621D01*
X567872Y97561D01*
X568130Y97485D01*
X568368Y97392D01*
X568584Y97282D01*
X568780Y97154D01*
X568953Y97011D01*
X569103Y96852D01*
X569230Y96678D01*
X569334Y96488D01*
X569414Y96283D01*
X569472Y96062D01*
X569507Y95826D01*
X569518Y95575D01*
X569502Y95306D01*
X569454Y95058D01*
X569373Y94833D01*
X569259Y94630D01*
X569117Y94444D01*
X568950Y94273D01*
X568758Y94117D01*
X568541Y93975D01*
X568273Y93839D01*
X567926Y93702D01*
X567501Y93564D01*
X566997Y93425D01*
X566094Y93187D01*
X565774Y93090D01*
X565502Y92980D01*
X565277Y92858D01*
X565099Y92724D01*
X564964Y92574D01*
X564868Y92402D01*
X564810Y92210D01*
X564791Y91996D01*
X564798Y91854D01*
X564819Y91720D01*
X564853Y91596D01*
X564902Y91481D01*
X564965Y91376D01*
X565041Y91279D01*
X565236Y91114D01*
X565490Y90985D01*
X565809Y90893D01*
X566192Y90838D01*
X566640Y90819D01*
X567064Y90837D01*
X567438Y90890D01*
X567764Y90979D01*
X568041Y91103D01*
X568271Y91265D01*
X568459Y91468D01*
X568604Y91712D01*
X568706Y91996D01*
X569820Y91779D01*
X569753Y91540D01*
X569671Y91318D01*
X569571Y91112D01*
X569454Y90922D01*
X569321Y90748D01*
X569171Y90591D01*
X569005Y90450D01*
X568822Y90326D01*
X568620Y90217D01*
X568398Y90122D01*
X568155Y90042D01*
X567893Y89976D01*
X567610Y89925D01*
X567307Y89889D01*
X566983Y89867D01*
X566640Y89860D01*
G37*
G36*
X581015Y89860D02*
X580661Y89869D01*
X580327Y89896D01*
X580013Y89942D01*
X579720Y90005D01*
X579447Y90087D01*
X579194Y90187D01*
X578961Y90305D01*
X578749Y90441D01*
X578560Y90594D01*
X578395Y90763D01*
X578256Y90946D01*
X578142Y91145D01*
X578054Y91359D01*
X577991Y91589D01*
X577953Y91834D01*
X577940Y92094D01*
X577949Y92305D01*
X577975Y92505D01*
X578019Y92692D01*
X578080Y92868D01*
X578158Y93033D01*
X578249Y93188D01*
X578355Y93332D01*
X578476Y93467D01*
X578615Y93594D01*
X578778Y93715D01*
X578964Y93830D01*
X579173Y93940D01*
X579428Y94049D01*
X579754Y94163D01*
X580616Y94405D01*
X581491Y94637D01*
X581792Y94731D01*
X582002Y94812D01*
X582157Y94889D01*
X582291Y94974D01*
X582406Y95068D01*
X582500Y95169D01*
X582573Y95281D01*
X582626Y95407D01*
X582657Y95547D01*
X582668Y95701D01*
X582661Y95828D01*
X582642Y95947D01*
X582566Y96160D01*
X582439Y96339D01*
X582262Y96486D01*
X582030Y96599D01*
X581743Y96680D01*
X581400Y96728D01*
X581001Y96745D01*
X580635Y96728D01*
X580308Y96677D01*
X580021Y96593D01*
X579772Y96475D01*
X579564Y96326D01*
X579401Y96147D01*
X579283Y95939D01*
X579208Y95701D01*
X578073Y95841D01*
X578131Y96076D01*
X578205Y96295D01*
X578297Y96496D01*
X578405Y96682D01*
X578530Y96850D01*
X578673Y97002D01*
X578832Y97137D01*
X579008Y97256D01*
X579201Y97359D01*
X579410Y97449D01*
X579635Y97525D01*
X579876Y97587D01*
X580133Y97635D01*
X580406Y97670D01*
X580695Y97690D01*
X581001Y97697D01*
X581344Y97689D01*
X581666Y97663D01*
X581967Y97621D01*
X582247Y97561D01*
X582505Y97485D01*
X582743Y97392D01*
X582959Y97282D01*
X583155Y97154D01*
X583328Y97011D01*
X583478Y96852D01*
X583605Y96678D01*
X583709Y96488D01*
X583789Y96283D01*
X583847Y96062D01*
X583882Y95826D01*
X583893Y95575D01*
X583877Y95306D01*
X583829Y95058D01*
X583748Y94833D01*
X583634Y94630D01*
X583492Y94444D01*
X583325Y94273D01*
X583133Y94117D01*
X582916Y93975D01*
X582648Y93839D01*
X582301Y93702D01*
X581876Y93564D01*
X581372Y93425D01*
X580469Y93187D01*
X580149Y93090D01*
X579877Y92980D01*
X579652Y92858D01*
X579474Y92724D01*
X579339Y92574D01*
X579243Y92402D01*
X579185Y92210D01*
X579166Y91996D01*
X579173Y91854D01*
X579194Y91720D01*
X579228Y91596D01*
X579277Y91481D01*
X579340Y91376D01*
X579416Y91279D01*
X579611Y91114D01*
X579865Y90985D01*
X580184Y90893D01*
X580567Y90838D01*
X581015Y90819D01*
X581439Y90837D01*
X581813Y90890D01*
X582139Y90979D01*
X582416Y91103D01*
X582646Y91265D01*
X582834Y91468D01*
X582979Y91712D01*
X583081Y91996D01*
X584195Y91779D01*
X584128Y91540D01*
X584046Y91318D01*
X583946Y91112D01*
X583829Y90922D01*
X583696Y90748D01*
X583546Y90591D01*
X583380Y90450D01*
X583197Y90326D01*
X582995Y90217D01*
X582773Y90122D01*
X582530Y90042D01*
X582268Y89976D01*
X581985Y89925D01*
X581682Y89889D01*
X581358Y89867D01*
X581015Y89860D01*
G37*
G36*
X611474Y90000D02*
X610214Y90000D01*
X610214Y93950D01*
X610207Y94256D01*
X610188Y94544D01*
X610155Y94813D01*
X610110Y95065D01*
X610052Y95298D01*
X609981Y95512D01*
X609897Y95709D01*
X609800Y95887D01*
X609691Y96045D01*
X609571Y96182D01*
X609438Y96299D01*
X609294Y96394D01*
X609139Y96468D01*
X608972Y96520D01*
X608793Y96552D01*
X608603Y96563D01*
X608224Y96545D01*
X607930Y96493D01*
X607930Y97648D01*
X608188Y97701D01*
X608442Y97718D01*
X608779Y97696D01*
X609075Y97629D01*
X609332Y97517D01*
X609548Y97361D01*
X609739Y97144D01*
X609918Y96850D01*
X610085Y96479D01*
X610242Y96030D01*
X610270Y96030D01*
X610326Y97578D01*
X611516Y97578D01*
X611485Y96654D01*
X611474Y95813D01*
X611474Y90000D01*
G37*
G36*
X572447Y90000D02*
X571186Y90000D01*
X571186Y97578D01*
X572447Y97578D01*
X572447Y90000D01*
G37*
G36*
X606728Y90000D02*
X605467Y90000D01*
X605467Y97578D01*
X606728Y97578D01*
X606728Y90000D01*
G37*
G36*
X572447Y99189D02*
X571186Y99189D01*
X571186Y100394D01*
X572447Y100394D01*
X572447Y99189D01*
G37*
G36*
X606728Y99189D02*
X605467Y99189D01*
X605467Y100394D01*
X606728Y100394D01*
X606728Y99189D01*
G37*
G36*
X565683Y690000D02*
X563291Y690000D01*
X570235Y707286D01*
X572897Y707286D01*
X579951Y690000D01*
X577522Y690000D01*
X575534Y695054D01*
X567658Y695054D01*
X565683Y690000D01*
G37*
%LPC*%
G36*
X574823Y696882D02*
X572615Y702563D01*
X572087Y704013D01*
X571707Y705176D01*
X571596Y705519D01*
X571265Y704501D01*
X570922Y703489D01*
X570578Y702587D01*
X568358Y696882D01*
X574823Y696882D01*
G37*
%LPD*%
G36*
X577939Y720000D02*
X570922Y720000D01*
X570194Y720020D01*
X569507Y720080D01*
X568861Y720180D01*
X568256Y720321D01*
X567693Y720501D01*
X567170Y720721D01*
X566688Y720982D01*
X566248Y721282D01*
X565854Y721619D01*
X565512Y721987D01*
X565223Y722388D01*
X564987Y722820D01*
X564803Y723285D01*
X564731Y723529D01*
X564672Y723781D01*
X564626Y724042D01*
X564593Y724310D01*
X564573Y724586D01*
X564567Y724870D01*
X564584Y725294D01*
X564637Y725698D01*
X564724Y726084D01*
X564846Y726451D01*
X565003Y726800D01*
X565195Y727130D01*
X565422Y727442D01*
X565683Y727735D01*
X565841Y727880D01*
X565977Y728005D01*
X566300Y728247D01*
X566653Y728461D01*
X567036Y728647D01*
X567448Y728806D01*
X567889Y728937D01*
X568360Y729040D01*
X568861Y729115D01*
X568479Y729215D01*
X568120Y729336D01*
X567783Y729479D01*
X567468Y729643D01*
X567176Y729828D01*
X566905Y730035D01*
X566797Y730136D01*
X566657Y730264D01*
X566432Y730514D01*
X566230Y730782D01*
X566056Y731066D01*
X565908Y731365D01*
X565787Y731679D01*
X565694Y732009D01*
X565626Y732354D01*
X565586Y732714D01*
X565573Y733090D01*
X565579Y733348D01*
X565597Y733598D01*
X565668Y734073D01*
X565787Y734516D01*
X565953Y734926D01*
X566167Y735303D01*
X566428Y735647D01*
X566737Y735958D01*
X567094Y736237D01*
X567498Y736483D01*
X567950Y736696D01*
X568449Y736876D01*
X568996Y737023D01*
X569590Y737138D01*
X570232Y737220D01*
X570921Y737269D01*
X571658Y737286D01*
X577939Y737286D01*
X577939Y720000D01*
G37*
%LPC*%
G36*
X575596Y721877D02*
X575596Y728109D01*
X571228Y728109D01*
X570708Y728097D01*
X570222Y728061D01*
X569769Y728002D01*
X569350Y727918D01*
X568964Y727811D01*
X568612Y727680D01*
X568293Y727524D01*
X568008Y727346D01*
X567756Y727143D01*
X567538Y726916D01*
X567354Y726665D01*
X567203Y726391D01*
X567085Y726093D01*
X567002Y725770D01*
X566951Y725424D01*
X566935Y725054D01*
X566950Y724671D01*
X566996Y724312D01*
X567073Y723978D01*
X567180Y723668D01*
X567318Y723383D01*
X567487Y723122D01*
X567686Y722886D01*
X567916Y722674D01*
X568180Y722488D01*
X568480Y722326D01*
X568816Y722189D01*
X569189Y722076D01*
X569598Y721989D01*
X570044Y721927D01*
X570526Y721889D01*
X571044Y721877D01*
X575596Y721877D01*
G37*
G36*
X575596Y729937D02*
X575596Y735409D01*
X571658Y735409D01*
X571217Y735399D01*
X570804Y735371D01*
X570417Y735324D01*
X570057Y735258D01*
X569724Y735174D01*
X569417Y735071D01*
X569138Y734948D01*
X568885Y734808D01*
X568661Y734645D01*
X568467Y734457D01*
X568302Y734245D01*
X568167Y734007D01*
X568063Y733745D01*
X567988Y733457D01*
X567943Y733145D01*
X567928Y732808D01*
X567943Y732455D01*
X567986Y732125D01*
X568059Y731819D01*
X568160Y731537D01*
X568290Y731278D01*
X568449Y731042D01*
X568637Y730831D01*
X568854Y730643D01*
X569101Y730477D01*
X569377Y730334D01*
X569683Y730213D01*
X570018Y730113D01*
X570384Y730036D01*
X570779Y729981D01*
X571203Y729948D01*
X571658Y729937D01*
X575596Y729937D01*
G37*
%LPD*%
G36*
X147286Y30110D02*
X130000Y37165D01*
X130000Y39594D01*
X147286Y46648D01*
X147286Y44182D01*
X135116Y39422D01*
X132061Y38391D01*
X135116Y37361D01*
X147286Y32576D01*
X147286Y30110D01*
G37*
G36*
X136649Y47817D02*
X135831Y47840D01*
X135063Y47909D01*
X134346Y48023D01*
X133679Y48184D01*
X133364Y48281D01*
X133062Y48390D01*
X132773Y48510D01*
X132496Y48642D01*
X132232Y48785D01*
X131980Y48940D01*
X131741Y49106D01*
X131515Y49283D01*
X131302Y49472D01*
X131102Y49670D01*
X130917Y49879D01*
X130745Y50099D01*
X130587Y50328D01*
X130442Y50568D01*
X130312Y50819D01*
X130195Y51079D01*
X130092Y51350D01*
X130002Y51631D01*
X129927Y51922D01*
X129865Y52224D01*
X129817Y52536D01*
X129782Y52859D01*
X129762Y53191D01*
X129755Y53534D01*
X129772Y54050D01*
X129826Y54543D01*
X129915Y55013D01*
X130040Y55460D01*
X130200Y55884D01*
X130396Y56285D01*
X130628Y56663D01*
X130896Y57018D01*
X131193Y57344D01*
X131514Y57636D01*
X131860Y57892D01*
X132230Y58113D01*
X132624Y58300D01*
X133042Y58451D01*
X133484Y58568D01*
X133950Y58650D01*
X134098Y56417D01*
X133777Y56362D01*
X133478Y56287D01*
X133200Y56194D01*
X132944Y56081D01*
X132710Y55950D01*
X132497Y55800D01*
X132305Y55630D01*
X132135Y55442D01*
X131985Y55238D01*
X131856Y55022D01*
X131746Y54794D01*
X131656Y54554D01*
X131586Y54302D01*
X131537Y54038D01*
X131507Y53761D01*
X131497Y53473D01*
X131517Y53066D01*
X131576Y52685D01*
X131676Y52331D01*
X131816Y52004D01*
X131995Y51703D01*
X132214Y51428D01*
X132474Y51180D01*
X132773Y50958D01*
X133113Y50762D01*
X133496Y50593D01*
X133923Y50450D01*
X134392Y50332D01*
X134904Y50241D01*
X135459Y50176D01*
X136057Y50137D01*
X136698Y50124D01*
X137364Y50136D01*
X137979Y50173D01*
X138544Y50234D01*
X139060Y50320D01*
X139526Y50430D01*
X139942Y50565D01*
X140308Y50725D01*
X140624Y50909D01*
X140897Y51120D01*
X141134Y51362D01*
X141334Y51634D01*
X141498Y51936D01*
X141626Y52269D01*
X141717Y52632D01*
X141771Y53025D01*
X141790Y53448D01*
X141779Y53761D01*
X141749Y54056D01*
X141698Y54332D01*
X141627Y54589D01*
X141536Y54829D01*
X141424Y55049D01*
X141292Y55252D01*
X141139Y55436D01*
X140970Y55602D01*
X140786Y55752D01*
X140588Y55886D01*
X140376Y56003D01*
X140149Y56104D01*
X139909Y56188D01*
X139654Y56256D01*
X139385Y56307D01*
X139557Y58576D01*
X140007Y58475D01*
X140433Y58342D01*
X140834Y58178D01*
X141210Y57983D01*
X141561Y57756D01*
X141887Y57499D01*
X142188Y57210D01*
X142464Y56890D01*
X142712Y56543D01*
X142926Y56175D01*
X143107Y55785D01*
X143256Y55373D01*
X143371Y54940D01*
X143453Y54485D01*
X143503Y54008D01*
X143519Y53510D01*
X143513Y53171D01*
X143492Y52843D01*
X143458Y52524D01*
X143409Y52215D01*
X143347Y51917D01*
X143272Y51628D01*
X143182Y51349D01*
X143079Y51081D01*
X142962Y50822D01*
X142832Y50573D01*
X142687Y50334D01*
X142529Y50105D01*
X142357Y49886D01*
X142172Y49677D01*
X141972Y49478D01*
X141759Y49289D01*
X141533Y49111D01*
X141294Y48944D01*
X141043Y48789D01*
X140779Y48645D01*
X140504Y48513D01*
X140215Y48392D01*
X139914Y48283D01*
X139601Y48185D01*
X138938Y48024D01*
X138225Y47909D01*
X137462Y47840D01*
X136649Y47817D01*
G37*
G36*
X136649Y60380D02*
X135831Y60403D01*
X135063Y60471D01*
X134346Y60586D01*
X133679Y60746D01*
X133364Y60844D01*
X133062Y60952D01*
X132773Y61073D01*
X132496Y61204D01*
X132232Y61348D01*
X131980Y61502D01*
X131741Y61668D01*
X131515Y61846D01*
X131302Y62034D01*
X131102Y62233D01*
X130917Y62442D01*
X130745Y62661D01*
X130587Y62891D01*
X130442Y63131D01*
X130312Y63381D01*
X130195Y63642D01*
X130092Y63912D01*
X130002Y64194D01*
X129927Y64485D01*
X129865Y64787D01*
X129817Y65099D01*
X129782Y65421D01*
X129762Y65754D01*
X129755Y66097D01*
X129772Y66613D01*
X129826Y67106D01*
X129915Y67576D01*
X130040Y68023D01*
X130200Y68447D01*
X130396Y68848D01*
X130628Y69226D01*
X130896Y69581D01*
X131193Y69907D01*
X131514Y70198D01*
X131860Y70454D01*
X132230Y70676D01*
X132624Y70862D01*
X133042Y71014D01*
X133484Y71131D01*
X133950Y71213D01*
X134098Y68980D01*
X133777Y68924D01*
X133478Y68850D01*
X133200Y68756D01*
X132944Y68644D01*
X132710Y68512D01*
X132497Y68362D01*
X132305Y68193D01*
X132135Y68004D01*
X131985Y67801D01*
X131856Y67585D01*
X131746Y67357D01*
X131656Y67117D01*
X131586Y66864D01*
X131537Y66600D01*
X131507Y66324D01*
X131497Y66035D01*
X131517Y65628D01*
X131576Y65248D01*
X131676Y64894D01*
X131816Y64566D01*
X131995Y64265D01*
X132214Y63990D01*
X132474Y63742D01*
X132773Y63520D01*
X133113Y63325D01*
X133496Y63155D01*
X133923Y63012D01*
X134392Y62895D01*
X134904Y62804D01*
X135459Y62738D01*
X136057Y62699D01*
X136698Y62686D01*
X137364Y62698D01*
X137979Y62735D01*
X138544Y62797D01*
X139060Y62883D01*
X139526Y62993D01*
X139942Y63128D01*
X140308Y63287D01*
X140624Y63471D01*
X140897Y63683D01*
X141134Y63925D01*
X141334Y64197D01*
X141498Y64499D01*
X141626Y64831D01*
X141717Y65194D01*
X141771Y65587D01*
X141790Y66011D01*
X141779Y66324D01*
X141749Y66618D01*
X141698Y66894D01*
X141627Y67152D01*
X141536Y67391D01*
X141424Y67612D01*
X141292Y67814D01*
X141139Y67998D01*
X140970Y68165D01*
X140786Y68315D01*
X140588Y68449D01*
X140376Y68566D01*
X140149Y68666D01*
X139909Y68750D01*
X139654Y68818D01*
X139385Y68869D01*
X139557Y71139D01*
X140007Y71037D01*
X140433Y70905D01*
X140834Y70741D01*
X141210Y70545D01*
X141561Y70319D01*
X141887Y70061D01*
X142188Y69772D01*
X142464Y69452D01*
X142712Y69105D01*
X142926Y68737D01*
X143107Y68347D01*
X143256Y67935D01*
X143371Y67502D01*
X143453Y67047D01*
X143503Y66570D01*
X143519Y66072D01*
X143513Y65734D01*
X143492Y65405D01*
X143458Y65087D01*
X143409Y64778D01*
X143347Y64479D01*
X143272Y64191D01*
X143182Y63912D01*
X143079Y63643D01*
X142962Y63384D01*
X142832Y63136D01*
X142687Y62897D01*
X142529Y62668D01*
X142357Y62449D01*
X142172Y62240D01*
X141972Y62041D01*
X141759Y61852D01*
X141533Y61674D01*
X141294Y61507D01*
X141043Y61352D01*
X140779Y61208D01*
X140504Y61076D01*
X140215Y60955D01*
X139914Y60846D01*
X139601Y60748D01*
X138938Y60587D01*
X138225Y60472D01*
X137462Y60403D01*
X136649Y60380D01*
G37*
G36*
X196576Y64555D02*
X195744Y64574D01*
X194967Y64629D01*
X194244Y64722D01*
X193576Y64851D01*
X192962Y65018D01*
X192403Y65221D01*
X191898Y65461D01*
X191448Y65739D01*
X191051Y66056D01*
X190872Y66230D01*
X190707Y66414D01*
X190555Y66609D01*
X190416Y66814D01*
X190290Y67030D01*
X190178Y67256D01*
X190079Y67492D01*
X189993Y67739D01*
X189920Y67996D01*
X189860Y68263D01*
X189814Y68541D01*
X189781Y68830D01*
X189761Y69129D01*
X189755Y69438D01*
X189763Y69804D01*
X189789Y70156D01*
X189832Y70492D01*
X189893Y70813D01*
X189970Y71119D01*
X190065Y71410D01*
X190177Y71686D01*
X190307Y71947D01*
X190456Y72193D01*
X190628Y72428D01*
X190823Y72650D01*
X191040Y72859D01*
X191280Y73056D01*
X191542Y73240D01*
X191827Y73413D01*
X192135Y73572D01*
X192135Y73621D01*
X191570Y73632D01*
X190908Y73664D01*
X190325Y73705D01*
X190000Y73744D01*
X190000Y75854D01*
X190419Y75822D01*
X191015Y75799D01*
X192736Y75780D01*
X208206Y75780D01*
X208206Y73572D01*
X202697Y73572D01*
X201213Y73597D01*
X201213Y73572D01*
X201503Y73413D01*
X201774Y73241D01*
X202023Y73057D01*
X202253Y72861D01*
X202462Y72652D01*
X202651Y72431D01*
X202819Y72198D01*
X202967Y71953D01*
X203097Y71693D01*
X203209Y71418D01*
X203304Y71127D01*
X203381Y70821D01*
X203442Y70499D01*
X203485Y70161D01*
X203511Y69807D01*
X203519Y69438D01*
X203513Y69137D01*
X203492Y68846D01*
X203458Y68565D01*
X203411Y68293D01*
X203350Y68031D01*
X203275Y67778D01*
X203187Y67535D01*
X203085Y67302D01*
X202970Y67077D01*
X202841Y66863D01*
X202699Y66658D01*
X202543Y66462D01*
X202190Y66100D01*
X201783Y65776D01*
X201322Y65490D01*
X200807Y65242D01*
X200237Y65032D01*
X199614Y64860D01*
X198935Y64727D01*
X198203Y64631D01*
X197417Y64574D01*
X196576Y64555D01*
G37*
%LPC*%
G36*
X196649Y66874D02*
X197318Y66885D01*
X197939Y66920D01*
X198512Y66978D01*
X199037Y67059D01*
X199514Y67164D01*
X199942Y67291D01*
X200323Y67442D01*
X200655Y67616D01*
X200944Y67816D01*
X201194Y68045D01*
X201406Y68303D01*
X201580Y68590D01*
X201714Y68906D01*
X201811Y69250D01*
X201868Y69624D01*
X201888Y70027D01*
X201869Y70474D01*
X201811Y70890D01*
X201715Y71275D01*
X201581Y71628D01*
X201409Y71949D01*
X201198Y72239D01*
X200948Y72498D01*
X200661Y72726D01*
X200332Y72924D01*
X199959Y73096D01*
X199542Y73241D01*
X199081Y73360D01*
X198576Y73453D01*
X198027Y73519D01*
X197434Y73559D01*
X196797Y73572D01*
X196135Y73559D01*
X195518Y73519D01*
X194947Y73453D01*
X194420Y73360D01*
X193937Y73241D01*
X193500Y73096D01*
X193108Y72924D01*
X192760Y72726D01*
X192724Y72698D01*
X192456Y72498D01*
X192191Y72238D01*
X191968Y71946D01*
X191785Y71621D01*
X191643Y71265D01*
X191541Y70876D01*
X191480Y70455D01*
X191460Y70002D01*
X191479Y69602D01*
X191535Y69231D01*
X191629Y68889D01*
X191760Y68576D01*
X191930Y68291D01*
X192136Y68035D01*
X192380Y67808D01*
X192662Y67610D01*
X192987Y67437D01*
X193362Y67288D01*
X193786Y67161D01*
X194260Y67058D01*
X194783Y66977D01*
X195356Y66920D01*
X195978Y66885D01*
X196649Y66874D01*
G37*
%LPD*%
G36*
X198723Y31264D02*
X198047Y31280D01*
X197393Y31328D01*
X196762Y31409D01*
X196154Y31523D01*
X195568Y31669D01*
X195004Y31847D01*
X194463Y32057D01*
X193944Y32300D01*
X193451Y32574D01*
X192988Y32876D01*
X192555Y33208D01*
X192152Y33568D01*
X191778Y33958D01*
X191433Y34376D01*
X191119Y34824D01*
X190834Y35300D01*
X190581Y35802D01*
X190362Y36328D01*
X190176Y36877D01*
X190025Y37450D01*
X189906Y38046D01*
X189822Y38665D01*
X189772Y39308D01*
X189755Y39974D01*
X189767Y40551D01*
X189803Y41118D01*
X189862Y41675D01*
X189946Y42221D01*
X190054Y42756D01*
X190186Y43281D01*
X190342Y43795D01*
X190521Y44298D01*
X190723Y44787D01*
X190944Y45256D01*
X191185Y45706D01*
X191446Y46137D01*
X191727Y46548D01*
X192027Y46940D01*
X192347Y47313D01*
X192687Y47666D01*
X198649Y47666D01*
X198649Y40342D01*
X196686Y40342D01*
X196686Y45507D01*
X193570Y45507D01*
X193355Y45271D01*
X193151Y45018D01*
X192959Y44747D01*
X192779Y44459D01*
X192610Y44154D01*
X192452Y43831D01*
X192306Y43491D01*
X192171Y43133D01*
X192051Y42763D01*
X191946Y42386D01*
X191857Y42002D01*
X191785Y41610D01*
X191729Y41212D01*
X191688Y40806D01*
X191664Y40394D01*
X191656Y39974D01*
X191664Y39608D01*
X191686Y39252D01*
X191723Y38906D01*
X191775Y38570D01*
X191841Y38244D01*
X191923Y37928D01*
X192019Y37623D01*
X192130Y37327D01*
X192256Y37042D01*
X192397Y36766D01*
X192552Y36501D01*
X192722Y36245D01*
X192907Y36000D01*
X193107Y35765D01*
X193322Y35539D01*
X193552Y35324D01*
X193794Y35121D01*
X194047Y34930D01*
X194311Y34753D01*
X194586Y34589D01*
X194871Y34438D01*
X195167Y34300D01*
X195474Y34175D01*
X195792Y34064D01*
X196121Y33965D01*
X196460Y33880D01*
X196810Y33808D01*
X197171Y33749D01*
X197543Y33703D01*
X197925Y33670D01*
X198319Y33650D01*
X198723Y33644D01*
X199128Y33650D01*
X199521Y33668D01*
X199904Y33699D01*
X200274Y33743D01*
X200633Y33798D01*
X200981Y33866D01*
X201317Y33947D01*
X201641Y34039D01*
X201954Y34144D01*
X202255Y34262D01*
X202545Y34392D01*
X202823Y34534D01*
X203089Y34688D01*
X203344Y34855D01*
X203588Y35035D01*
X203820Y35226D01*
X204039Y35430D01*
X204244Y35644D01*
X204435Y35869D01*
X204612Y36106D01*
X204774Y36353D01*
X204923Y36612D01*
X205057Y36881D01*
X205177Y37161D01*
X205283Y37453D01*
X205375Y37756D01*
X205453Y38069D01*
X205516Y38394D01*
X205566Y38729D01*
X205601Y39076D01*
X205622Y39434D01*
X205630Y39802D01*
X205619Y40274D01*
X205587Y40726D01*
X205535Y41158D01*
X205461Y41570D01*
X205366Y41963D01*
X205250Y42336D01*
X205113Y42689D01*
X204955Y43023D01*
X204774Y43337D01*
X204568Y43635D01*
X204337Y43915D01*
X204081Y44177D01*
X203800Y44422D01*
X203494Y44650D01*
X203163Y44860D01*
X202808Y45053D01*
X203470Y47286D01*
X203986Y47031D01*
X204465Y46750D01*
X204907Y46443D01*
X205314Y46111D01*
X205683Y45753D01*
X206017Y45370D01*
X206314Y44960D01*
X206574Y44525D01*
X206801Y44061D01*
X206998Y43562D01*
X207165Y43030D01*
X207301Y42464D01*
X207407Y41865D01*
X207483Y41231D01*
X207528Y40564D01*
X207543Y39864D01*
X207534Y39360D01*
X207507Y38871D01*
X207462Y38396D01*
X207399Y37935D01*
X207318Y37489D01*
X207219Y37057D01*
X207102Y36639D01*
X206967Y36235D01*
X206814Y35846D01*
X206642Y35471D01*
X206453Y35110D01*
X206246Y34764D01*
X206021Y34432D01*
X205778Y34114D01*
X205516Y33810D01*
X205237Y33521D01*
X204941Y33248D01*
X204631Y32992D01*
X204305Y32754D01*
X203965Y32533D01*
X203610Y32331D01*
X203240Y32145D01*
X202855Y31978D01*
X202455Y31828D01*
X202041Y31696D01*
X201611Y31581D01*
X201167Y31484D01*
X200708Y31405D01*
X200234Y31343D01*
X199745Y31299D01*
X199241Y31272D01*
X198723Y31264D01*
G37*
G36*
X203274Y51200D02*
X202904Y51232D01*
X202308Y51255D01*
X200440Y51273D01*
X190000Y51273D01*
X190000Y53482D01*
X197692Y53482D01*
X198163Y53496D01*
X198608Y53539D01*
X199027Y53611D01*
X199419Y53712D01*
X199784Y53841D01*
X200123Y53999D01*
X200436Y54186D01*
X200722Y54402D01*
X200978Y54642D01*
X201200Y54904D01*
X201388Y55187D01*
X201541Y55490D01*
X201661Y55815D01*
X201746Y56161D01*
X201797Y56528D01*
X201814Y56917D01*
X201794Y57430D01*
X201734Y57877D01*
X201635Y58258D01*
X201570Y58423D01*
X201495Y58573D01*
X201310Y58836D01*
X201075Y59060D01*
X200789Y59247D01*
X200452Y59395D01*
X200054Y59507D01*
X199581Y59588D01*
X199035Y59636D01*
X198416Y59652D01*
X190000Y59652D01*
X190000Y61873D01*
X198845Y61873D01*
X199449Y61857D01*
X200008Y61810D01*
X200523Y61731D01*
X200994Y61620D01*
X201420Y61478D01*
X201802Y61304D01*
X202140Y61098D01*
X202434Y60861D01*
X202688Y60589D01*
X202909Y60282D01*
X203095Y59937D01*
X203248Y59556D01*
X203367Y59138D01*
X203452Y58684D01*
X203502Y58193D01*
X203519Y57665D01*
X203510Y57301D01*
X203484Y56953D01*
X203439Y56620D01*
X203377Y56302D01*
X203297Y55999D01*
X203199Y55711D01*
X203083Y55438D01*
X202949Y55181D01*
X202794Y54934D01*
X202613Y54696D01*
X202408Y54464D01*
X202178Y54241D01*
X201922Y54024D01*
X201641Y53815D01*
X201335Y53614D01*
X201004Y53420D01*
X201004Y53383D01*
X202323Y53340D01*
X202943Y53310D01*
X203274Y53285D01*
X203274Y51200D01*
G37*
G36*
X166612Y53399D02*
X165773Y53417D01*
X164992Y53470D01*
X164269Y53560D01*
X163604Y53686D01*
X162996Y53847D01*
X162447Y54044D01*
X161955Y54277D01*
X161521Y54546D01*
X161142Y54853D01*
X160813Y55200D01*
X160534Y55588D01*
X160414Y55797D01*
X160307Y56017D01*
X160212Y56246D01*
X160130Y56485D01*
X160060Y56735D01*
X160003Y56994D01*
X159959Y57264D01*
X159927Y57544D01*
X159908Y57834D01*
X159902Y58134D01*
X159912Y58494D01*
X159942Y58841D01*
X159992Y59177D01*
X160063Y59502D01*
X160153Y59815D01*
X160264Y60117D01*
X160395Y60407D01*
X160546Y60686D01*
X160557Y60704D01*
X160717Y60952D01*
X160907Y61203D01*
X161118Y61439D01*
X161348Y61661D01*
X161598Y61869D01*
X161867Y62062D01*
X162157Y62240D01*
X162466Y62404D01*
X162466Y62428D01*
X160331Y62428D01*
X159863Y62415D01*
X159426Y62377D01*
X159018Y62312D01*
X158641Y62222D01*
X158293Y62106D01*
X157976Y61964D01*
X157690Y61796D01*
X157433Y61603D01*
X157207Y61384D01*
X157010Y61139D01*
X156844Y60868D01*
X156708Y60572D01*
X156603Y60250D01*
X156527Y59901D01*
X156484Y59548D01*
X156482Y59528D01*
X156467Y59128D01*
X156475Y58829D01*
X156498Y58544D01*
X156537Y58274D01*
X156591Y58019D01*
X156661Y57779D01*
X156746Y57553D01*
X156847Y57343D01*
X156964Y57147D01*
X157095Y56966D01*
X157239Y56803D01*
X157396Y56656D01*
X157566Y56526D01*
X157750Y56412D01*
X157947Y56315D01*
X158157Y56235D01*
X158381Y56171D01*
X158062Y53951D01*
X157680Y54057D01*
X157321Y54192D01*
X156985Y54356D01*
X156671Y54549D01*
X156379Y54770D01*
X156110Y55020D01*
X155863Y55299D01*
X155639Y55607D01*
X155439Y55943D01*
X155266Y56306D01*
X155119Y56697D01*
X154999Y57116D01*
X154906Y57562D01*
X154839Y58036D01*
X154799Y58538D01*
X154786Y59067D01*
X154808Y59740D01*
X154874Y60369D01*
X154983Y60955D01*
X155136Y61498D01*
X155332Y61997D01*
X155573Y62453D01*
X155857Y62866D01*
X156185Y63235D01*
X156556Y63560D01*
X156971Y63843D01*
X157430Y64081D01*
X157933Y64277D01*
X158479Y64429D01*
X159069Y64537D01*
X159703Y64602D01*
X160380Y64624D01*
X170526Y64624D01*
X172256Y64642D01*
X172854Y64665D01*
X173274Y64698D01*
X173274Y62600D01*
X173180Y62575D01*
X172983Y62551D01*
X172280Y62502D01*
X171507Y62465D01*
X171004Y62453D01*
X171004Y62428D01*
X171293Y62280D01*
X171565Y62116D01*
X171820Y61938D01*
X172058Y61746D01*
X172279Y61538D01*
X172482Y61316D01*
X172669Y61079D01*
X172839Y60827D01*
X172989Y60562D01*
X173120Y60285D01*
X173231Y59997D01*
X173322Y59697D01*
X173392Y59385D01*
X173442Y59062D01*
X173473Y58726D01*
X173483Y58380D01*
X173476Y58070D01*
X173456Y57771D01*
X173424Y57482D01*
X173378Y57202D01*
X173319Y56933D01*
X173247Y56674D01*
X173162Y56424D01*
X173064Y56185D01*
X172953Y55956D01*
X172828Y55737D01*
X172691Y55528D01*
X172541Y55328D01*
X172200Y54960D01*
X171808Y54632D01*
X171361Y54343D01*
X170855Y54092D01*
X170292Y53880D01*
X169672Y53707D01*
X168994Y53572D01*
X168258Y53476D01*
X167464Y53418D01*
X166612Y53399D01*
G37*
%LPC*%
G36*
X166637Y55681D02*
X167300Y55693D01*
X167916Y55729D01*
X168484Y55789D01*
X169005Y55874D01*
X169478Y55983D01*
X169903Y56115D01*
X170281Y56272D01*
X170612Y56454D01*
X170899Y56661D01*
X171149Y56898D01*
X171359Y57163D01*
X171532Y57456D01*
X171666Y57779D01*
X171762Y58130D01*
X171820Y58511D01*
X171839Y58919D01*
X171829Y59171D01*
X171800Y59415D01*
X171752Y59653D01*
X171684Y59884D01*
X171597Y60108D01*
X171490Y60326D01*
X171364Y60537D01*
X171219Y60741D01*
X171056Y60936D01*
X170875Y61120D01*
X170677Y61293D01*
X170462Y61454D01*
X170229Y61604D01*
X169979Y61743D01*
X169712Y61870D01*
X169428Y61986D01*
X169128Y62090D01*
X168814Y62180D01*
X168486Y62256D01*
X168144Y62318D01*
X167789Y62366D01*
X167419Y62400D01*
X167035Y62421D01*
X166637Y62428D01*
X166248Y62421D01*
X165873Y62400D01*
X165511Y62366D01*
X165163Y62318D01*
X164829Y62256D01*
X164508Y62180D01*
X164201Y62090D01*
X163907Y61986D01*
X163629Y61870D01*
X163367Y61743D01*
X163122Y61603D01*
X162894Y61453D01*
X162715Y61316D01*
X162682Y61291D01*
X162487Y61117D01*
X162309Y60932D01*
X162147Y60735D01*
X162003Y60529D01*
X161879Y60316D01*
X161773Y60095D01*
X161687Y59867D01*
X161620Y59632D01*
X161572Y59389D01*
X161543Y59140D01*
X161534Y58883D01*
X161552Y58460D01*
X161608Y58070D01*
X161701Y57712D01*
X161831Y57386D01*
X161998Y57092D01*
X162203Y56831D01*
X162445Y56602D01*
X162724Y56404D01*
X163045Y56235D01*
X163414Y56088D01*
X163832Y55963D01*
X164297Y55862D01*
X164810Y55782D01*
X165371Y55726D01*
X165980Y55692D01*
X166637Y55681D01*
G37*
%LPD*%
G36*
X164147Y31141D02*
X163615Y31287D01*
X163117Y31475D01*
X162654Y31705D01*
X162225Y31976D01*
X161831Y32288D01*
X161470Y32642D01*
X161144Y33038D01*
X160853Y33475D01*
X160595Y33953D01*
X160372Y34473D01*
X160184Y35035D01*
X160029Y35638D01*
X159909Y36282D01*
X159823Y36968D01*
X159772Y37696D01*
X159755Y38465D01*
X159775Y39291D01*
X159837Y40069D01*
X159939Y40799D01*
X160083Y41481D01*
X160267Y42116D01*
X160493Y42703D01*
X160760Y43243D01*
X161067Y43734D01*
X161412Y44173D01*
X161791Y44553D01*
X161993Y44721D01*
X162204Y44874D01*
X162423Y45013D01*
X162650Y45137D01*
X162886Y45247D01*
X163130Y45342D01*
X163383Y45422D01*
X163644Y45488D01*
X163913Y45539D01*
X164191Y45576D01*
X164477Y45598D01*
X164772Y45605D01*
X165229Y45588D01*
X165656Y45539D01*
X166051Y45457D01*
X166416Y45341D01*
X166754Y45197D01*
X167069Y45027D01*
X167362Y44832D01*
X167631Y44611D01*
X167878Y44368D01*
X168106Y44104D01*
X168314Y43819D01*
X168502Y43513D01*
X168835Y42858D01*
X169121Y42158D01*
X169367Y41417D01*
X169575Y40643D01*
X169949Y39054D01*
X170203Y37963D01*
X170436Y37069D01*
X170648Y36374D01*
X170839Y35876D01*
X171030Y35501D01*
X171241Y35173D01*
X171471Y34891D01*
X171722Y34656D01*
X172000Y34471D01*
X172152Y34398D01*
X172313Y34338D01*
X172482Y34292D01*
X172659Y34259D01*
X172846Y34239D01*
X173041Y34232D01*
X173371Y34250D01*
X173680Y34301D01*
X173967Y34386D01*
X174234Y34505D01*
X174480Y34659D01*
X174704Y34847D01*
X174907Y35068D01*
X175090Y35324D01*
X175251Y35613D01*
X175390Y35932D01*
X175508Y36281D01*
X175605Y36662D01*
X175680Y37073D01*
X175734Y37514D01*
X175766Y37987D01*
X175777Y38490D01*
X175767Y38949D01*
X175738Y39383D01*
X175690Y39791D01*
X175622Y40173D01*
X175535Y40530D01*
X175428Y40861D01*
X175302Y41166D01*
X175157Y41446D01*
X174991Y41702D01*
X174800Y41937D01*
X174586Y42150D01*
X174349Y42342D01*
X174088Y42512D01*
X173803Y42661D01*
X173495Y42788D01*
X173164Y42894D01*
X173568Y45200D01*
X174092Y45029D01*
X174575Y44829D01*
X175019Y44600D01*
X175422Y44341D01*
X175787Y44054D01*
X176111Y43737D01*
X176396Y43391D01*
X176642Y43016D01*
X176853Y42605D01*
X177036Y42151D01*
X177191Y41653D01*
X177318Y41112D01*
X177417Y40527D01*
X177487Y39900D01*
X177529Y39228D01*
X177543Y38514D01*
X177525Y37746D01*
X177468Y37023D01*
X177374Y36346D01*
X177243Y35715D01*
X177074Y35130D01*
X176867Y34591D01*
X176623Y34097D01*
X176341Y33650D01*
X176025Y33252D01*
X175676Y32906D01*
X175296Y32614D01*
X174884Y32375D01*
X174440Y32190D01*
X174207Y32117D01*
X173965Y32057D01*
X173715Y32010D01*
X173457Y31977D01*
X173192Y31957D01*
X172918Y31951D01*
X172447Y31971D01*
X172004Y32032D01*
X171589Y32133D01*
X171201Y32276D01*
X170838Y32456D01*
X170500Y32673D01*
X170185Y32926D01*
X169894Y33214D01*
X169622Y33549D01*
X169362Y33940D01*
X169116Y34386D01*
X168882Y34889D01*
X168655Y35481D01*
X168428Y36197D01*
X168201Y37036D01*
X167974Y37999D01*
X167471Y40146D01*
X167348Y40613D01*
X167211Y41047D01*
X167060Y41448D01*
X166895Y41814D01*
X166711Y42144D01*
X166505Y42435D01*
X166276Y42687D01*
X166024Y42900D01*
X165740Y43069D01*
X165416Y43190D01*
X165240Y43232D01*
X165053Y43262D01*
X164856Y43280D01*
X164650Y43286D01*
X164284Y43267D01*
X163941Y43209D01*
X163621Y43113D01*
X163323Y42978D01*
X163049Y42805D01*
X162797Y42593D01*
X162568Y42342D01*
X162362Y42053D01*
X162179Y41729D01*
X162021Y41372D01*
X161887Y40983D01*
X161777Y40561D01*
X161692Y40107D01*
X161631Y39621D01*
X161595Y39102D01*
X161583Y38551D01*
X161594Y38016D01*
X161628Y37510D01*
X161685Y37033D01*
X161765Y36585D01*
X161868Y36165D01*
X161993Y35774D01*
X162141Y35412D01*
X162313Y35079D01*
X162508Y34774D01*
X162729Y34496D01*
X162976Y34246D01*
X163250Y34024D01*
X163548Y33829D01*
X163873Y33662D01*
X164224Y33522D01*
X164601Y33411D01*
X164147Y31141D01*
G37*
G36*
X173274Y48431D02*
X160000Y48431D01*
X160000Y50639D01*
X173274Y50639D01*
X173274Y48431D01*
G37*
G36*
X178206Y48431D02*
X176096Y48431D01*
X176096Y50639D01*
X178206Y50639D01*
X178206Y48431D01*
G37*
M02*
