G04 EAGLE Gerber RS-274X export*
G75*
%MOMM*%
%FSLAX34Y34*%
%LPD*%
%INBottom Copper*%
%IPPOS*%
%AMOC8*
5,1,8,0,0,1.08239X$1,22.5*%
G01*
G04 Define Apertures*
%ADD10C,1.343400*%
%ADD11R,1.408000X1.408000*%
%ADD12C,1.408000*%
%ADD13C,1.148000*%
%ADD14C,0.500000*%
%ADD15C,0.906400*%
%ADD16C,0.550000*%
%ADD17C,0.956400*%
%ADD18C,0.152400*%
%ADD19C,0.756400*%
%ADD20C,0.250000*%
D10*
X304800Y292100D03*
X330200Y292100D03*
X355600Y292100D03*
X381000Y292100D03*
X406400Y292100D03*
X431800Y292100D03*
X457200Y292100D03*
X482600Y292100D03*
X482600Y368300D03*
X457200Y368300D03*
X431800Y368300D03*
X406400Y368300D03*
X381000Y368300D03*
X355600Y368300D03*
X330200Y368300D03*
X304800Y368300D03*
X304800Y635000D03*
X330200Y635000D03*
X355600Y635000D03*
X381000Y635000D03*
X406400Y635000D03*
X431800Y635000D03*
X457200Y635000D03*
X482600Y635000D03*
X482600Y711200D03*
X457200Y711200D03*
X431800Y711200D03*
X406400Y711200D03*
X381000Y711200D03*
X355600Y711200D03*
X330200Y711200D03*
X304800Y711200D03*
X304800Y520700D03*
X330200Y520700D03*
X355600Y520700D03*
X381000Y520700D03*
X406400Y520700D03*
X431800Y520700D03*
X457200Y520700D03*
X482600Y520700D03*
X482600Y596900D03*
X457200Y596900D03*
X431800Y596900D03*
X406400Y596900D03*
X381000Y596900D03*
X355600Y596900D03*
X330200Y596900D03*
X304800Y596900D03*
X304800Y406400D03*
X330200Y406400D03*
X355600Y406400D03*
X381000Y406400D03*
X406400Y406400D03*
X431800Y406400D03*
X457200Y406400D03*
X482600Y406400D03*
X482600Y482600D03*
X457200Y482600D03*
X431800Y482600D03*
X406400Y482600D03*
X381000Y482600D03*
X355600Y482600D03*
X330200Y482600D03*
X304800Y482600D03*
D11*
X546100Y702400D03*
D12*
X546100Y727400D03*
D11*
X546100Y621457D03*
D12*
X546100Y646457D03*
D11*
X546100Y540514D03*
D12*
X546100Y565514D03*
D11*
X546100Y459571D03*
D12*
X546100Y484571D03*
D11*
X546100Y378629D03*
D12*
X546100Y403629D03*
D11*
X546100Y297686D03*
D12*
X546100Y322686D03*
D11*
X546100Y216743D03*
D12*
X546100Y241743D03*
D11*
X546100Y135800D03*
D12*
X546100Y160800D03*
D13*
X190300Y771100D03*
X165300Y771100D03*
X140300Y771100D03*
X290200Y771100D03*
X265200Y771100D03*
X240200Y771100D03*
X390100Y771100D03*
X365100Y771100D03*
X340100Y771100D03*
X490000Y771100D03*
X465000Y771100D03*
X440000Y771100D03*
X139700Y88200D03*
X164700Y88200D03*
X189700Y88200D03*
X239800Y88200D03*
X264800Y88200D03*
X289800Y88200D03*
X339900Y88200D03*
X364900Y88200D03*
X389900Y88200D03*
X440000Y88200D03*
X465000Y88200D03*
X490000Y88200D03*
D11*
X88900Y355300D03*
D12*
X88900Y330300D03*
D13*
X88900Y718500D03*
X88900Y693500D03*
X88900Y668500D03*
X88900Y643500D03*
D11*
X88900Y591500D03*
D12*
X88900Y566500D03*
D14*
X233750Y162500D02*
X238750Y157500D01*
X233750Y162500D02*
X207500Y188750D01*
X238750Y157500D02*
X238750Y88750D01*
X239800Y88200D01*
X232500Y161250D02*
X233750Y162500D01*
X336250Y146250D02*
X340000Y142500D01*
X340000Y88750D01*
X339900Y88200D01*
X335000Y147500D02*
X335000Y175000D01*
X335000Y147500D02*
X336250Y146250D01*
X406250Y755000D02*
X391250Y770000D01*
X390100Y771100D01*
X303750Y757500D02*
X291250Y770000D01*
X303750Y757500D02*
X303750Y711250D01*
X291250Y770000D02*
X290200Y771100D01*
X303750Y711250D02*
X304800Y711200D01*
X190000Y683750D02*
X186250Y680000D01*
X190000Y683750D02*
X190000Y770000D01*
X190300Y771100D01*
X108750Y446250D02*
X62500Y446250D01*
X305000Y368750D02*
X315000Y378750D01*
X315000Y401250D01*
X316250Y402500D01*
X316250Y445000D02*
X316250Y471250D01*
X316250Y445000D02*
X316250Y402500D01*
X315000Y472500D02*
X305000Y482500D01*
X315000Y472500D02*
X316250Y471250D01*
X305000Y368750D02*
X304800Y368300D01*
X305000Y482500D02*
X304800Y482600D01*
X316250Y585000D02*
X305000Y596250D01*
X316250Y585000D02*
X316250Y473750D01*
X305000Y596250D02*
X304800Y596900D01*
X316250Y473750D02*
X315000Y472500D01*
X295000Y588750D02*
X302500Y596250D01*
X295000Y588750D02*
X278750Y572500D01*
X302500Y596250D02*
X304800Y596900D01*
X315000Y445000D02*
X282500Y445000D01*
X315000Y445000D02*
X316250Y445000D01*
X305000Y651250D02*
X305000Y708750D01*
X305000Y651250D02*
X293750Y640000D01*
X293750Y590000D01*
X305000Y708750D02*
X304800Y711200D01*
X293750Y590000D02*
X295000Y588750D01*
X61250Y441250D02*
X23750Y403750D01*
X61250Y441250D02*
X61250Y445000D01*
X62500Y446250D01*
D15*
X207500Y188750D03*
X232500Y161250D03*
X336250Y146250D03*
X335000Y175000D03*
X406250Y755000D03*
X186250Y680000D03*
X62500Y446250D03*
X108750Y446250D03*
X278750Y572500D03*
X282500Y445000D03*
X23750Y403750D03*
D16*
X240000Y722500D02*
X240000Y770000D01*
X240200Y771100D01*
X238750Y613750D02*
X227500Y602500D01*
X238750Y613750D02*
X238750Y720000D01*
X240000Y722500D01*
X381250Y635000D02*
X381250Y597500D01*
X381000Y596900D01*
X381250Y635000D02*
X381000Y635000D01*
X381250Y637500D02*
X381250Y710000D01*
X381000Y711200D01*
X381250Y637500D02*
X381000Y635000D01*
X381250Y520000D02*
X381250Y483750D01*
X381000Y482600D01*
X381250Y520000D02*
X381000Y520700D01*
X406250Y367500D02*
X406250Y292500D01*
X406400Y292100D01*
X406250Y367500D02*
X406400Y368300D01*
X406250Y370000D02*
X406250Y406250D01*
X406400Y406400D01*
X406250Y370000D02*
X406400Y368300D01*
X381250Y407500D02*
X381250Y480000D01*
X381000Y482600D01*
X381250Y407500D02*
X381000Y406400D01*
X406250Y521250D02*
X406250Y596250D01*
X406400Y596900D01*
X406250Y521250D02*
X406400Y520700D01*
X175000Y395000D02*
X173750Y393750D01*
X175000Y420000D02*
X175000Y475000D01*
X175000Y420000D02*
X175000Y395000D01*
X175000Y475000D02*
X173750Y476250D01*
X88750Y330000D02*
X55000Y330000D01*
X88750Y330000D02*
X88900Y330300D01*
X138750Y420000D02*
X172500Y420000D01*
X175000Y420000D01*
X381250Y291250D02*
X381250Y96250D01*
X388750Y88750D01*
X381250Y291250D02*
X381000Y292100D01*
X388750Y88750D02*
X389900Y88200D01*
D17*
X240000Y722500D03*
X227500Y602500D03*
X173750Y393750D03*
X173750Y476250D03*
X55000Y330000D03*
X138750Y420000D03*
D16*
X190000Y237500D02*
X190000Y173750D01*
X478750Y516250D02*
X482500Y520000D01*
X478750Y516250D02*
X478750Y507500D01*
X475000Y503750D01*
X392500Y503750D01*
X392500Y525000D01*
X385000Y532500D01*
X376250Y532500D01*
X367500Y523750D01*
X367500Y348750D01*
X316250Y297500D01*
X316250Y275000D01*
X191250Y272500D02*
X191250Y240000D01*
X482500Y520000D02*
X482600Y520700D01*
X191250Y240000D02*
X190000Y237500D01*
D17*
X190000Y237500D03*
X190000Y173750D03*
X316250Y275000D03*
X191250Y272500D03*
D18*
X121250Y686250D02*
X90000Y717500D01*
X88900Y718500D01*
X190000Y453750D02*
X197500Y446250D01*
X197500Y420000D01*
X197500Y473750D02*
X197500Y647500D01*
X197500Y473750D02*
X190000Y466250D01*
X190000Y453750D01*
X157500Y677500D02*
X157500Y692500D01*
D19*
X121250Y686250D03*
X190000Y453750D03*
X197500Y420000D03*
X197500Y647500D03*
X157500Y692500D03*
X157500Y677500D03*
D20*
X252500Y657500D02*
X257500Y662500D01*
X257500Y741250D01*
X346250Y745000D02*
X365000Y763750D01*
X365000Y770000D01*
X365100Y771100D01*
D19*
X252500Y657500D03*
X257500Y741250D03*
X346250Y745000D03*
D20*
X271250Y666250D02*
X272500Y665000D01*
X271250Y666250D02*
X271250Y728750D01*
X295000Y752500D01*
D19*
X272500Y665000D03*
X295000Y752500D03*
D20*
X265000Y770000D02*
X265000Y640000D01*
X265000Y770000D02*
X265200Y771100D01*
D19*
X265000Y640000D03*
D20*
X230000Y618750D02*
X223750Y625000D01*
X223750Y683750D01*
X197500Y710000D01*
X197500Y740000D01*
X198750Y741250D01*
D19*
X230000Y618750D03*
X198750Y741250D03*
D20*
X178750Y231250D02*
X172500Y225000D01*
X178750Y231250D02*
X178750Y387500D01*
X182500Y391250D01*
X182500Y571250D01*
X185000Y573750D01*
X185000Y603750D01*
X183750Y605000D01*
D19*
X172500Y225000D03*
X183750Y605000D03*
D20*
X251250Y246250D02*
X272500Y225000D01*
X251250Y246250D02*
X251250Y573750D01*
X258750Y581250D01*
D19*
X272500Y225000D03*
X258750Y581250D03*
D18*
X116250Y320000D02*
X123750Y312500D01*
X116250Y320000D02*
X116250Y540000D01*
X90000Y566250D01*
X88900Y566500D01*
D19*
X123750Y312500D03*
D18*
X88900Y668500D02*
X211500Y668500D01*
D19*
X220000Y580000D03*
D18*
X220000Y660000D02*
X211500Y668500D01*
X220000Y660000D02*
X220000Y580000D01*
D19*
X220000Y350000D03*
D18*
X220000Y580000D01*
X177500Y576250D02*
X147500Y606250D01*
X147500Y661250D01*
X132500Y676250D02*
X142500Y686250D01*
X142500Y722500D01*
X316250Y735000D02*
X327500Y723750D01*
X327500Y713750D01*
X330000Y711250D01*
X330200Y711200D01*
D19*
X177500Y576250D03*
X147500Y661250D03*
X132500Y676250D03*
X142500Y722500D03*
X316250Y735000D03*
D18*
X145000Y575000D02*
X76250Y643750D01*
X76250Y723750D01*
X153750Y801250D01*
X456250Y801250D01*
X456250Y711250D01*
X457200Y711200D01*
D19*
X145000Y575000D03*
D18*
X272500Y655000D02*
X278750Y661250D01*
X278750Y672500D01*
X275000Y676250D01*
X275000Y685000D01*
X290000Y700000D01*
D19*
X272500Y655000D03*
X290000Y700000D03*
D18*
X231250Y748750D02*
X205000Y722500D01*
X231250Y748750D02*
X231250Y773750D01*
X241250Y783750D01*
X331250Y783750D01*
X331250Y723750D01*
X340000Y715000D01*
X340000Y606250D01*
X331250Y597500D01*
X330200Y596900D01*
D19*
X205000Y722500D03*
D18*
X135000Y688750D02*
X122500Y676250D01*
X135000Y688750D02*
X135000Y752500D01*
X173750Y791250D01*
X373750Y791250D01*
X373750Y717500D01*
X371250Y715000D01*
X371250Y605000D01*
D19*
X122500Y676250D03*
X371250Y605000D03*
D18*
X131250Y613750D02*
X80000Y665000D01*
X80000Y722500D01*
X155000Y797500D01*
X381250Y797500D01*
X381250Y750000D01*
X422500Y708750D01*
X422500Y555000D01*
X456250Y521250D01*
X457200Y520700D01*
D19*
X131250Y613750D03*
D18*
X190000Y658750D02*
X190000Y568750D01*
X147500Y677500D02*
X150000Y680000D01*
X150000Y742500D01*
X195000Y787500D01*
X348750Y787500D01*
X348750Y756250D01*
X340000Y747500D01*
X340000Y722500D01*
X343750Y718750D01*
X343750Y533750D01*
X331250Y521250D01*
X330200Y520700D01*
D19*
X190000Y568750D03*
X190000Y658750D03*
X147500Y677500D03*
D18*
X211250Y583750D02*
X207500Y580000D01*
X211250Y583750D02*
X211250Y658750D01*
X282500Y678750D02*
X296250Y692500D01*
D19*
X207500Y580000D03*
X211250Y658750D03*
X282500Y678750D03*
X296250Y692500D03*
D18*
X388750Y790000D02*
X447500Y731250D01*
X447500Y683750D01*
X492500Y638750D01*
X492500Y606250D01*
X483750Y597500D01*
X482600Y596900D01*
D19*
X388750Y790000D03*
D18*
X166250Y542500D02*
X175000Y533750D01*
X175000Y522500D01*
X227500Y536250D02*
X246250Y555000D01*
X246250Y708750D01*
X251250Y713750D01*
X251250Y768750D01*
X262500Y780000D01*
X308750Y780000D01*
X308750Y720000D01*
X315000Y713750D01*
X315000Y645000D01*
X305000Y635000D01*
X304800Y635000D01*
D19*
X166250Y542500D03*
X175000Y522500D03*
X227500Y536250D03*
D18*
X172500Y562500D02*
X98750Y562500D01*
X98750Y616250D01*
X33750Y681250D01*
X33750Y801250D01*
X63750Y831250D01*
X481250Y831250D01*
X481250Y712500D01*
X482500Y711250D01*
X482600Y711200D01*
D19*
X172500Y562500D03*
D20*
X356250Y521250D02*
X396250Y561250D01*
X396250Y656250D01*
X416250Y676250D01*
X356250Y521250D02*
X355600Y520700D01*
D19*
X416250Y676250D03*
D20*
X432500Y520000D02*
X447500Y520000D01*
X447500Y516250D01*
X453750Y510000D01*
X472500Y510000D01*
X472500Y572500D01*
X500000Y600000D01*
X500000Y711250D01*
X515000Y726250D01*
X545000Y726250D01*
X431800Y520700D02*
X432500Y520000D01*
X545000Y726250D02*
X546100Y727400D01*
X513750Y706250D02*
X562500Y657500D01*
X562500Y476250D01*
X546250Y460000D01*
X546100Y459571D01*
D19*
X513750Y706250D03*
D20*
X513750Y662500D02*
X530000Y646250D01*
X530000Y500000D01*
X545000Y485000D01*
X546100Y484571D01*
D19*
X513750Y662500D03*
D16*
X292500Y237500D02*
X291250Y236250D01*
X291250Y187500D01*
X468750Y621250D02*
X482500Y635000D01*
X468750Y621250D02*
X468750Y592500D01*
X432500Y556250D01*
X367500Y548750D02*
X341250Y522500D01*
X341250Y345000D01*
X293750Y297500D01*
X293750Y240000D01*
X482500Y635000D02*
X482600Y635000D01*
X293750Y240000D02*
X292500Y237500D01*
D17*
X292500Y237500D03*
X291250Y187500D03*
X432500Y556250D03*
X367500Y548750D03*
D18*
X207500Y463750D02*
X202500Y468750D01*
X207500Y463750D02*
X207500Y420000D01*
D19*
X202500Y468750D03*
X207500Y420000D03*
D20*
X356250Y292500D02*
X397500Y333750D01*
X397500Y338750D01*
X541250Y341250D02*
X545000Y345000D01*
X545000Y377500D01*
X356250Y292500D02*
X355600Y292100D01*
X545000Y377500D02*
X546100Y378629D01*
D19*
X397500Y338750D03*
X541250Y341250D03*
D20*
X495000Y332500D02*
X465000Y302500D01*
X495000Y332500D02*
X495000Y392500D01*
D19*
X465000Y302500D03*
X495000Y392500D03*
D20*
X550000Y422500D02*
X562500Y410000D01*
X562500Y233750D01*
X546250Y217500D01*
X546100Y216743D01*
D19*
X550000Y422500D03*
D20*
X527500Y378750D02*
X527500Y260000D01*
X545000Y242500D01*
X546100Y241743D01*
D19*
X527500Y378750D03*
D20*
X513750Y401250D02*
X432500Y482500D01*
X513750Y401250D02*
X513750Y167500D01*
X545000Y136250D01*
X432500Y482500D02*
X431800Y482600D01*
X545000Y136250D02*
X546100Y135800D01*
D16*
X101250Y343750D02*
X90000Y355000D01*
X101250Y343750D02*
X101250Y285000D01*
X90000Y355000D02*
X88900Y355300D01*
D17*
X101250Y285000D03*
D20*
X403750Y217500D02*
X418750Y232500D01*
X418750Y317500D01*
X273750Y320000D02*
X268750Y325000D01*
X268750Y362500D01*
D19*
X403750Y217500D03*
X418750Y317500D03*
X273750Y320000D03*
X268750Y362500D03*
D20*
X258750Y325000D02*
X273750Y310000D01*
X258750Y325000D02*
X258750Y345000D01*
D19*
X273750Y310000D03*
X258750Y345000D03*
D20*
X230000Y380000D02*
X227500Y382500D01*
X230000Y380000D02*
X230000Y222500D01*
X200000Y192500D01*
X200000Y180000D01*
X201250Y178750D01*
X201250Y125000D01*
X165000Y88750D01*
X164700Y88200D01*
D19*
X227500Y382500D03*
D20*
X233750Y390000D02*
X241250Y382500D01*
X241250Y162500D01*
X263750Y140000D01*
X263750Y88750D01*
X264800Y88200D01*
D19*
X233750Y390000D03*
D20*
X240000Y400000D02*
X246250Y393750D01*
X246250Y168750D01*
X336250Y78750D01*
X363750Y78750D01*
X363750Y87500D01*
X364900Y88200D01*
D19*
X240000Y400000D03*
D20*
X281250Y370000D02*
X281250Y193750D01*
X280000Y192500D01*
X280000Y166250D01*
X331250Y115000D01*
D19*
X281250Y370000D03*
X331250Y115000D03*
D18*
X198750Y305000D02*
X196250Y307500D01*
X198750Y305000D02*
X198750Y197500D01*
X196250Y195000D01*
X196250Y177500D01*
X197500Y176250D01*
X197500Y132500D01*
X156250Y91250D01*
X156250Y85000D01*
X166250Y75000D01*
X420000Y75000D01*
X420000Y227500D01*
X422500Y230000D01*
X422500Y312500D01*
X425000Y315000D01*
X425000Y361250D01*
X416250Y370000D01*
X416250Y430000D01*
D19*
X196250Y307500D03*
X416250Y430000D03*
D18*
X207500Y306250D02*
X206250Y307500D01*
X207500Y306250D02*
X207500Y292500D01*
D19*
X206250Y307500D03*
X207500Y292500D03*
D18*
X131250Y320000D02*
X131250Y85000D01*
X151250Y65000D01*
X553750Y65000D01*
X553750Y125000D01*
X556250Y127500D01*
X556250Y188750D01*
X517500Y227500D01*
X517500Y422500D01*
X457500Y482500D01*
X457200Y482600D01*
D19*
X131250Y320000D03*
D18*
X151250Y326250D02*
X158750Y318750D01*
X158750Y207500D01*
X181250Y185000D01*
X427500Y206250D02*
X443750Y222500D01*
X443750Y393750D01*
X456250Y406250D01*
X457200Y406400D01*
D19*
X151250Y326250D03*
X181250Y185000D03*
X427500Y206250D03*
D18*
X295000Y367500D02*
X275000Y387500D01*
X295000Y367500D02*
X295000Y365000D01*
X301250Y358750D01*
X320000Y358750D01*
X320000Y396250D01*
X330000Y406250D01*
X330200Y406400D01*
D19*
X275000Y387500D03*
D18*
X212500Y350000D02*
X186250Y376250D01*
X212500Y350000D02*
X212500Y317500D01*
X222500Y307500D01*
X222500Y305000D01*
D19*
X186250Y376250D03*
X222500Y305000D03*
D18*
X140000Y391250D02*
X137500Y393750D01*
X140000Y391250D02*
X140000Y100000D01*
X152500Y87500D01*
X152500Y83750D01*
X167500Y68750D01*
X431250Y68750D01*
X431250Y200000D01*
X447500Y216250D01*
X447500Y358750D01*
X456250Y367500D01*
X457200Y368300D01*
D19*
X137500Y393750D03*
D18*
X147500Y393750D02*
X131250Y410000D01*
X131250Y492500D01*
X262500Y488750D02*
X297500Y453750D01*
D19*
X147500Y393750D03*
X131250Y492500D03*
X262500Y488750D03*
X297500Y453750D03*
D18*
X147500Y381250D02*
X143750Y377500D01*
X143750Y176250D01*
X186250Y133750D01*
X438750Y121250D02*
X456250Y138750D01*
X456250Y291250D01*
X457200Y292100D01*
D19*
X147500Y381250D03*
X186250Y133750D03*
X438750Y121250D03*
D18*
X215000Y310000D02*
X191250Y333750D01*
X215000Y310000D02*
X215000Y285000D01*
D19*
X191250Y333750D03*
X215000Y285000D03*
D18*
X171250Y265000D02*
X171250Y307500D01*
X316250Y263750D02*
X346250Y293750D01*
X346250Y320000D01*
X396250Y370000D01*
X396250Y458750D01*
X422500Y485000D01*
X422500Y486250D01*
X428750Y492500D01*
X482500Y492500D01*
X482500Y483750D01*
X482600Y482600D01*
D19*
X171250Y307500D03*
X171250Y265000D03*
X316250Y263750D03*
D18*
X166250Y320000D02*
X166250Y411250D01*
X280000Y431250D02*
X303750Y407500D01*
X304800Y406400D01*
D19*
X166250Y320000D03*
X166250Y411250D03*
X280000Y431250D03*
D16*
X393750Y236250D02*
X391250Y233750D01*
X391250Y186250D01*
X395000Y258750D02*
X407500Y271250D01*
X395000Y258750D02*
X395000Y238750D01*
X393750Y236250D01*
D17*
X393750Y236250D03*
X391250Y186250D03*
X407500Y271250D03*
D16*
X503750Y272500D02*
X503750Y396250D01*
X493750Y406250D01*
X483750Y406250D01*
X482600Y406400D01*
X502500Y222500D02*
X478750Y198750D01*
X502500Y222500D02*
X502500Y270000D01*
X503750Y272500D01*
D17*
X503750Y272500D03*
X478750Y198750D03*
D18*
X265000Y557500D02*
X265000Y588750D01*
X105000Y515000D02*
X58750Y515000D01*
D19*
X265000Y588750D03*
X265000Y557500D03*
X105000Y515000D03*
X58750Y515000D03*
D18*
X258750Y466250D02*
X258750Y362500D01*
D19*
X258750Y362500D03*
X258750Y466250D03*
M02*
