G04 EAGLE Gerber RS-274X export*
G75*
%MOMM*%
%FSLAX34Y34*%
%LPD*%
%INTop Copper*%
%IPPOS*%
%AMOC8*
5,1,8,0,0,1.08239X$1,22.5*%
G01*
G04 Define Apertures*
%ADD10R,1.164600X1.815300*%
%ADD11R,1.188700X1.795500*%
%ADD12R,0.700000X0.500000*%
%ADD13C,1.343400*%
%ADD14R,0.897900X1.860300*%
%ADD15R,3.189100X1.860300*%
%ADD16R,1.270000X0.558800*%
%ADD17R,0.558800X1.270000*%
%ADD18R,1.408000X1.408000*%
%ADD19C,1.408000*%
%ADD20C,1.148000*%
%ADD21R,0.798700X0.973900*%
%ADD22R,0.973900X0.798700*%
%ADD23R,0.597100X1.186400*%
%ADD24R,1.815300X1.164600*%
%ADD25C,0.500000*%
%ADD26C,0.906400*%
%ADD27C,0.550000*%
%ADD28C,0.956400*%
%ADD29C,0.152400*%
%ADD30C,0.756400*%
%ADD31C,0.250000*%
D10*
X103654Y262900D03*
X74146Y262900D03*
X23346Y262900D03*
X52854Y262900D03*
X149785Y152400D03*
X179293Y152400D03*
D11*
X29700Y446099D03*
X29700Y419901D03*
D10*
X250772Y152400D03*
X280280Y152400D03*
X354120Y152400D03*
X383628Y152400D03*
D11*
X89700Y446099D03*
X89700Y419901D03*
D10*
X446333Y152400D03*
X475841Y152400D03*
D12*
X93400Y140500D03*
X84400Y140500D03*
X240400Y686100D03*
X231400Y686100D03*
X240400Y457500D03*
X231400Y457500D03*
D13*
X304800Y292100D03*
X330200Y292100D03*
X355600Y292100D03*
X381000Y292100D03*
X406400Y292100D03*
X431800Y292100D03*
X457200Y292100D03*
X482600Y292100D03*
X482600Y368300D03*
X457200Y368300D03*
X431800Y368300D03*
X406400Y368300D03*
X381000Y368300D03*
X355600Y368300D03*
X330200Y368300D03*
X304800Y368300D03*
D14*
X86500Y227450D03*
X63500Y227450D03*
X40500Y227450D03*
D15*
X63500Y165950D03*
D16*
X160274Y620300D03*
X160274Y612300D03*
X160274Y604300D03*
X160274Y596300D03*
X160274Y588300D03*
X160274Y580300D03*
X160274Y572300D03*
X160274Y564300D03*
D17*
X175200Y549374D03*
X183200Y549374D03*
X191200Y549374D03*
X199200Y549374D03*
X207200Y549374D03*
X215200Y549374D03*
X223200Y549374D03*
X231200Y549374D03*
D16*
X246126Y564300D03*
X246126Y572300D03*
X246126Y580300D03*
X246126Y588300D03*
X246126Y596300D03*
X246126Y604300D03*
X246126Y612300D03*
X246126Y620300D03*
D17*
X231200Y635226D03*
X223200Y635226D03*
X215200Y635226D03*
X207200Y635226D03*
X199200Y635226D03*
X191200Y635226D03*
X183200Y635226D03*
X175200Y635226D03*
D13*
X304800Y635000D03*
X330200Y635000D03*
X355600Y635000D03*
X381000Y635000D03*
X406400Y635000D03*
X431800Y635000D03*
X457200Y635000D03*
X482600Y635000D03*
X482600Y711200D03*
X457200Y711200D03*
X431800Y711200D03*
X406400Y711200D03*
X381000Y711200D03*
X355600Y711200D03*
X330200Y711200D03*
X304800Y711200D03*
X304800Y520700D03*
X330200Y520700D03*
X355600Y520700D03*
X381000Y520700D03*
X406400Y520700D03*
X431800Y520700D03*
X457200Y520700D03*
X482600Y520700D03*
X482600Y596900D03*
X457200Y596900D03*
X431800Y596900D03*
X406400Y596900D03*
X381000Y596900D03*
X355600Y596900D03*
X330200Y596900D03*
X304800Y596900D03*
D16*
X160274Y391700D03*
X160274Y383700D03*
X160274Y375700D03*
X160274Y367700D03*
X160274Y359700D03*
X160274Y351700D03*
X160274Y343700D03*
X160274Y335700D03*
D17*
X175200Y320774D03*
X183200Y320774D03*
X191200Y320774D03*
X199200Y320774D03*
X207200Y320774D03*
X215200Y320774D03*
X223200Y320774D03*
X231200Y320774D03*
D16*
X246126Y335700D03*
X246126Y343700D03*
X246126Y351700D03*
X246126Y359700D03*
X246126Y367700D03*
X246126Y375700D03*
X246126Y383700D03*
X246126Y391700D03*
D17*
X231200Y406626D03*
X223200Y406626D03*
X215200Y406626D03*
X207200Y406626D03*
X199200Y406626D03*
X191200Y406626D03*
X183200Y406626D03*
X175200Y406626D03*
D13*
X304800Y406400D03*
X330200Y406400D03*
X355600Y406400D03*
X381000Y406400D03*
X406400Y406400D03*
X431800Y406400D03*
X457200Y406400D03*
X482600Y406400D03*
X482600Y482600D03*
X457200Y482600D03*
X431800Y482600D03*
X406400Y482600D03*
X381000Y482600D03*
X355600Y482600D03*
X330200Y482600D03*
X304800Y482600D03*
D18*
X546100Y702400D03*
D19*
X546100Y727400D03*
D18*
X546100Y621457D03*
D19*
X546100Y646457D03*
D18*
X546100Y540514D03*
D19*
X546100Y565514D03*
D18*
X546100Y459571D03*
D19*
X546100Y484571D03*
D18*
X546100Y378629D03*
D19*
X546100Y403629D03*
D18*
X546100Y297686D03*
D19*
X546100Y322686D03*
D18*
X546100Y216743D03*
D19*
X546100Y241743D03*
D18*
X546100Y135800D03*
D19*
X546100Y160800D03*
D20*
X190300Y771100D03*
X165300Y771100D03*
X140300Y771100D03*
X290200Y771100D03*
X265200Y771100D03*
X240200Y771100D03*
X390100Y771100D03*
X365100Y771100D03*
X340100Y771100D03*
X490000Y771100D03*
X465000Y771100D03*
X440000Y771100D03*
X139700Y88200D03*
X164700Y88200D03*
X189700Y88200D03*
X239800Y88200D03*
X264800Y88200D03*
X289800Y88200D03*
X339900Y88200D03*
X364900Y88200D03*
X389900Y88200D03*
X440000Y88200D03*
X465000Y88200D03*
X490000Y88200D03*
D18*
X88900Y355300D03*
D19*
X88900Y330300D03*
D21*
X46252Y140500D03*
X29948Y140500D03*
X218652Y686100D03*
X202348Y686100D03*
D22*
X168500Y694952D03*
X168500Y678648D03*
D21*
X156322Y238700D03*
X172626Y238700D03*
X257309Y238700D03*
X273613Y238700D03*
X452974Y238700D03*
X469278Y238700D03*
D22*
X169900Y464952D03*
X169900Y448648D03*
D21*
X218652Y457500D03*
X202348Y457500D03*
X360761Y238700D03*
X377065Y238700D03*
D20*
X88900Y718500D03*
X88900Y693500D03*
X88900Y668500D03*
X88900Y643500D03*
D18*
X88900Y591500D03*
D19*
X88900Y566500D03*
D23*
X172139Y212644D03*
X162639Y212644D03*
X153139Y212644D03*
X153139Y187356D03*
X172139Y187356D03*
X273126Y212644D03*
X263626Y212644D03*
X254126Y212644D03*
X254126Y187356D03*
X273126Y187356D03*
X376474Y212644D03*
X366974Y212644D03*
X357474Y212644D03*
X357474Y187356D03*
X376474Y187356D03*
X468687Y212644D03*
X459187Y212644D03*
X449687Y212644D03*
X449687Y187356D03*
X468687Y187356D03*
D24*
X30000Y514754D03*
X30000Y485246D03*
X90000Y514754D03*
X90000Y485246D03*
D25*
X23750Y262500D02*
X23750Y227500D01*
X40000Y227500D01*
X23750Y262500D02*
X23346Y262900D01*
X40000Y227500D02*
X40500Y227450D01*
X40000Y151250D02*
X30000Y141250D01*
X140000Y151250D02*
X148750Y151250D01*
X140000Y151250D02*
X40000Y151250D01*
X30000Y141250D02*
X29948Y140500D01*
X148750Y151250D02*
X149785Y152400D01*
X140000Y150000D02*
X140000Y123750D01*
X140000Y88750D01*
X139700Y88200D01*
X140000Y150000D02*
X140000Y151250D01*
X22500Y172500D02*
X22500Y226250D01*
X22500Y172500D02*
X18750Y172500D01*
X13750Y167500D01*
X13750Y123750D01*
X138750Y123750D01*
X23750Y227500D02*
X22500Y226250D01*
X138750Y123750D02*
X140000Y123750D01*
X172500Y187500D02*
X178750Y193750D01*
X202500Y193750D01*
X207500Y188750D01*
X172500Y187500D02*
X172139Y187356D01*
X241250Y161250D02*
X250000Y152500D01*
X241250Y161250D02*
X232500Y161250D01*
X250000Y152500D02*
X250772Y152400D01*
X273750Y187500D02*
X283750Y197500D01*
X335000Y197500D02*
X366250Y197500D01*
X335000Y197500D02*
X283750Y197500D01*
X366250Y197500D02*
X376250Y187500D01*
X273750Y187500D02*
X273126Y187356D01*
X376250Y187500D02*
X376474Y187356D01*
X353750Y151250D02*
X348750Y146250D01*
X336250Y146250D01*
X353750Y151250D02*
X354120Y152400D01*
X468750Y186250D02*
X500000Y155000D01*
X500000Y77500D01*
X478750Y77500D02*
X450000Y77500D01*
X478750Y77500D02*
X500000Y77500D01*
X448750Y78750D02*
X440000Y87500D01*
X448750Y78750D02*
X450000Y77500D01*
X468750Y186250D02*
X468687Y187356D01*
X440000Y88200D02*
X440000Y87500D01*
X478750Y120000D02*
X447500Y151250D01*
X478750Y120000D02*
X478750Y78750D01*
X447500Y151250D02*
X446333Y152400D01*
X478750Y78750D02*
X478750Y77500D01*
X350000Y77500D02*
X348750Y78750D01*
X340000Y87500D01*
X350000Y77500D02*
X447500Y77500D01*
X340000Y87500D02*
X339900Y88200D01*
X447500Y77500D02*
X448750Y78750D01*
X335000Y175000D02*
X335000Y196250D01*
X335000Y197500D01*
X248750Y78750D02*
X250000Y77500D01*
X248750Y78750D02*
X240000Y87500D01*
X250000Y77500D02*
X347500Y77500D01*
X240000Y87500D02*
X239800Y88200D01*
X347500Y77500D02*
X348750Y78750D01*
X153750Y77500D02*
X142500Y88750D01*
X153750Y77500D02*
X247500Y77500D01*
X142500Y88750D02*
X139700Y88200D01*
X247500Y77500D02*
X248750Y78750D01*
X406250Y755000D02*
X407500Y756250D01*
X476250Y756250D01*
X490000Y770000D01*
X490000Y771100D01*
X170000Y680000D02*
X168750Y678750D01*
X170000Y680000D02*
X186250Y680000D01*
X168750Y678750D02*
X168500Y678648D01*
X281250Y761250D02*
X290000Y770000D01*
X281250Y761250D02*
X200000Y761250D01*
X191250Y770000D01*
X290000Y770000D02*
X290200Y771100D01*
X191250Y770000D02*
X190300Y771100D01*
X373750Y722500D02*
X405000Y753750D01*
X373750Y722500D02*
X316250Y722500D01*
X305000Y711250D01*
X405000Y753750D02*
X406250Y755000D01*
X305000Y711250D02*
X304800Y711200D01*
X160000Y352500D02*
X152500Y352500D01*
X148750Y356250D01*
X148750Y367500D01*
X160000Y367500D01*
X160000Y352500D02*
X160274Y351700D01*
X160000Y367500D02*
X160274Y367700D01*
X237500Y343750D02*
X245000Y343750D01*
X237500Y343750D02*
X222500Y358750D01*
X177500Y358750D01*
X171250Y352500D01*
X162500Y352500D01*
X245000Y343750D02*
X246126Y343700D01*
X162500Y352500D02*
X160274Y351700D01*
X167500Y446250D02*
X168750Y447500D01*
X108750Y446250D02*
X90000Y446250D01*
X108750Y446250D02*
X148750Y446250D01*
X167500Y446250D01*
X168750Y447500D02*
X169900Y448648D01*
X90000Y446250D02*
X89700Y446099D01*
X62500Y446250D02*
X30000Y446250D01*
X29700Y446099D01*
X128750Y387500D02*
X147500Y368750D01*
X128750Y387500D02*
X128750Y410000D01*
X141250Y410000D01*
X148750Y417500D01*
X148750Y445000D01*
X147500Y368750D02*
X148750Y367500D01*
X148750Y445000D02*
X148750Y446250D01*
X151250Y581250D02*
X160000Y581250D01*
X151250Y581250D02*
X148750Y583750D01*
X148750Y596250D01*
X160000Y596250D01*
X160000Y581250D02*
X160274Y580300D01*
X160000Y596250D02*
X160274Y596300D01*
X238750Y572500D02*
X245000Y572500D01*
X238750Y572500D02*
X222500Y588750D01*
X178750Y588750D01*
X171250Y581250D01*
X162500Y581250D01*
X245000Y572500D02*
X246126Y572300D01*
X162500Y581250D02*
X160274Y580300D01*
X247500Y572500D02*
X278750Y572500D01*
X247500Y572500D02*
X246126Y572300D01*
X171250Y447500D02*
X173750Y445000D01*
X282500Y445000D01*
X171250Y447500D02*
X169900Y448648D01*
X23750Y403750D02*
X23750Y265000D01*
X23346Y262900D01*
D26*
X207500Y188750D03*
X232500Y161250D03*
X336250Y146250D03*
X335000Y175000D03*
X406250Y755000D03*
X186250Y680000D03*
X62500Y446250D03*
X108750Y446250D03*
X278750Y572500D03*
X282500Y445000D03*
X23750Y403750D03*
D27*
X161250Y588750D02*
X168750Y588750D01*
X171250Y591250D01*
X171250Y596250D02*
X171250Y603750D01*
X171250Y596250D02*
X171250Y591250D01*
X171250Y603750D02*
X161250Y603750D01*
X161250Y588750D02*
X160274Y588300D01*
X161250Y603750D02*
X160274Y604300D01*
X173750Y596250D02*
X227500Y596250D01*
X245000Y596250D01*
X246126Y596300D01*
X173750Y596250D02*
X171250Y596250D01*
X240000Y686250D02*
X240000Y722500D01*
X240000Y686250D02*
X240400Y686100D01*
X151250Y781250D02*
X141250Y771250D01*
X151250Y781250D02*
X230000Y781250D01*
X231875Y779375D02*
X240000Y771250D01*
X231875Y779375D02*
X230000Y781250D01*
X141250Y771250D02*
X140300Y771100D01*
X240000Y771250D02*
X240200Y771100D01*
X330000Y781250D02*
X331875Y779375D01*
X340000Y771250D01*
X330000Y781250D02*
X233750Y781250D01*
X340000Y771250D02*
X340100Y771100D01*
X233750Y781250D02*
X231875Y779375D01*
X430000Y781250D02*
X440000Y771250D01*
X430000Y781250D02*
X333750Y781250D01*
X440000Y771250D02*
X440000Y771100D01*
X333750Y781250D02*
X331875Y779375D01*
X227500Y602500D02*
X227500Y598750D01*
X227500Y596250D01*
X381250Y711250D02*
X406250Y711250D01*
X381250Y711250D02*
X381000Y711200D01*
X406250Y711250D02*
X406400Y711200D01*
X406250Y597500D02*
X381250Y597500D01*
X381000Y596900D01*
X406250Y597500D02*
X406400Y596900D01*
X406250Y635000D02*
X381250Y635000D01*
X381000Y635000D01*
X406250Y635000D02*
X406400Y635000D01*
X406250Y482500D02*
X381250Y482500D01*
X381000Y482600D01*
X406250Y482500D02*
X406400Y482600D01*
X406250Y521250D02*
X381250Y521250D01*
X381000Y520700D01*
X406250Y521250D02*
X406400Y520700D01*
X406250Y406250D02*
X381250Y406250D01*
X381000Y406400D01*
X406250Y406250D02*
X406400Y406400D01*
X406250Y292500D02*
X381250Y292500D01*
X381000Y292100D01*
X406250Y292500D02*
X406400Y292100D01*
X406250Y368750D02*
X381250Y368750D01*
X381000Y368300D01*
X406250Y368750D02*
X406400Y368300D01*
X168750Y360000D02*
X161250Y360000D01*
X168750Y360000D02*
X171250Y362500D01*
X171250Y367500D02*
X171250Y375000D01*
X171250Y367500D02*
X171250Y362500D01*
X171250Y375000D02*
X161250Y375000D01*
X161250Y360000D02*
X160274Y359700D01*
X161250Y375000D02*
X160274Y375700D01*
X173750Y367500D02*
X245000Y367500D01*
X246126Y367700D01*
X173750Y367500D02*
X171250Y367500D01*
X240000Y457500D02*
X240000Y477500D01*
X173750Y477500D02*
X103750Y477500D01*
X173750Y477500D02*
X240000Y477500D01*
X103750Y477500D02*
X101250Y475000D01*
X78750Y475000D01*
X76250Y477500D01*
X76250Y513750D01*
X90000Y513750D01*
X240000Y457500D02*
X240400Y457500D01*
X90000Y513750D02*
X90000Y514754D01*
X172500Y393750D02*
X172500Y377500D01*
X172500Y393750D02*
X173750Y393750D01*
X172500Y377500D02*
X171250Y375000D01*
X173750Y476250D02*
X173750Y477500D01*
X367500Y226250D02*
X367500Y213750D01*
X367500Y226250D02*
X420000Y226250D01*
X440625Y205625D02*
X445000Y201250D01*
X440625Y205625D02*
X420000Y226250D01*
X445000Y201250D02*
X453750Y201250D01*
X458750Y206250D01*
X458750Y212500D01*
X367500Y213750D02*
X366974Y212644D01*
X458750Y212500D02*
X459187Y212644D01*
X428750Y197500D02*
X409375Y178125D01*
X383750Y152500D01*
X428750Y197500D02*
X432500Y197500D01*
X438750Y203750D01*
X383750Y152500D02*
X383628Y152400D01*
X438750Y203750D02*
X440625Y205625D01*
X451250Y176250D02*
X475000Y152500D01*
X451250Y176250D02*
X411250Y176250D01*
X475000Y152500D02*
X475841Y152400D01*
X411250Y176250D02*
X409375Y178125D01*
X490000Y150000D02*
X490000Y88750D01*
X490000Y150000D02*
X476250Y150000D01*
X490000Y88750D02*
X490000Y88200D01*
X476250Y150000D02*
X475841Y152400D01*
X90000Y367500D02*
X90000Y418750D01*
X90000Y367500D02*
X97500Y367500D01*
X101250Y363750D01*
X101250Y331250D01*
X90000Y331250D01*
X90000Y418750D02*
X89700Y419901D01*
X90000Y331250D02*
X88900Y330300D01*
X28750Y420000D02*
X16250Y432500D01*
X16250Y513750D01*
X30000Y513750D01*
X28750Y420000D02*
X29700Y419901D01*
X30000Y513750D02*
X30000Y514754D01*
X92500Y140000D02*
X92500Y131250D01*
X23750Y131250D01*
X21250Y133750D01*
X21250Y165000D01*
X62500Y165000D01*
X92500Y140000D02*
X93400Y140500D01*
X63500Y165950D02*
X62500Y165000D01*
X63750Y263750D02*
X73750Y263750D01*
X63750Y263750D02*
X53750Y263750D01*
X52854Y262900D01*
X73750Y263750D02*
X74146Y262900D01*
X162500Y212500D02*
X162500Y201250D01*
X96250Y201250D02*
X88750Y201250D01*
X96250Y201250D02*
X126250Y201250D01*
X162500Y201250D01*
X88750Y201250D02*
X63750Y226250D01*
X162500Y212500D02*
X162639Y212644D01*
X63750Y226250D02*
X63500Y227450D01*
X262500Y212500D02*
X262500Y201250D01*
X165000Y201250D01*
X262500Y212500D02*
X263626Y212644D01*
X165000Y201250D02*
X162500Y201250D01*
X163750Y167500D02*
X178750Y152500D01*
X163750Y167500D02*
X157500Y167500D01*
X126250Y198750D01*
X178750Y152500D02*
X179293Y152400D01*
X126250Y198750D02*
X126250Y201250D01*
X267500Y138750D02*
X280000Y151250D01*
X267500Y138750D02*
X193750Y138750D01*
X181250Y151250D01*
X280000Y151250D02*
X280280Y152400D01*
X181250Y151250D02*
X179293Y152400D01*
X188750Y123750D02*
X188750Y98750D01*
X188750Y88750D01*
X188750Y123750D02*
X183750Y123750D01*
X177500Y130000D01*
X177500Y150000D01*
X188750Y88750D02*
X189700Y88200D01*
X177500Y150000D02*
X179293Y152400D01*
X278750Y98750D02*
X280625Y96875D01*
X288750Y88750D01*
X278750Y98750D02*
X191250Y98750D01*
X288750Y88750D02*
X289800Y88200D01*
X191250Y98750D02*
X188750Y98750D01*
X378750Y98750D02*
X388750Y88750D01*
X378750Y98750D02*
X282500Y98750D01*
X388750Y88750D02*
X389900Y88200D01*
X282500Y98750D02*
X280625Y96875D01*
X63750Y230000D02*
X63750Y261250D01*
X63750Y263750D01*
X63750Y230000D02*
X63500Y227450D01*
X96250Y198750D02*
X65000Y167500D01*
X63500Y165950D01*
X96250Y198750D02*
X96250Y201250D01*
X30000Y410000D02*
X30000Y417500D01*
X30000Y410000D02*
X52500Y387500D01*
X52500Y330000D02*
X52500Y266250D01*
X52500Y330000D02*
X52500Y387500D01*
X30000Y417500D02*
X29700Y419901D01*
X52500Y266250D02*
X52854Y262900D01*
X52500Y330000D02*
X55000Y330000D01*
X366250Y136250D02*
X381250Y151250D01*
X366250Y136250D02*
X268750Y136250D01*
X381250Y151250D02*
X383628Y152400D01*
X268750Y136250D02*
X267500Y138750D01*
X138750Y420000D02*
X92500Y420000D01*
X89700Y419901D01*
X442500Y772500D02*
X451250Y781250D01*
X495000Y781250D01*
X501250Y775000D01*
X501250Y727500D01*
X423750Y727500D01*
X408750Y712500D01*
X440000Y771100D02*
X442500Y772500D01*
X408750Y712500D02*
X406400Y711200D01*
D28*
X240000Y722500D03*
X227500Y602500D03*
X173750Y393750D03*
X173750Y476250D03*
X55000Y330000D03*
X138750Y420000D03*
D29*
X83750Y141250D02*
X47500Y141250D01*
X83750Y141250D02*
X84400Y140500D01*
X47500Y141250D02*
X46252Y140500D01*
D27*
X173750Y237500D02*
X190000Y237500D01*
X188750Y175000D02*
X190000Y173750D01*
X188750Y175000D02*
X165000Y175000D01*
X153750Y186250D01*
X173750Y237500D02*
X172626Y238700D01*
X153139Y187356D02*
X153750Y186250D01*
X313750Y272500D02*
X316250Y275000D01*
X313750Y272500D02*
X191250Y272500D01*
D28*
X190000Y237500D03*
X190000Y173750D03*
X316250Y275000D03*
X191250Y272500D03*
D29*
X162500Y688750D02*
X167500Y693750D01*
X157500Y688750D02*
X123750Y688750D01*
X157500Y688750D02*
X162500Y688750D01*
X123750Y688750D02*
X121250Y686250D01*
X167500Y693750D02*
X168500Y694952D01*
X170000Y463750D02*
X180000Y453750D01*
X190000Y453750D01*
X197500Y420000D02*
X197500Y407500D01*
X198750Y407500D01*
X170000Y463750D02*
X169900Y464952D01*
X198750Y407500D02*
X199200Y406626D01*
X198750Y636250D02*
X198750Y647500D01*
X197500Y647500D01*
X198750Y636250D02*
X199200Y635226D01*
X157500Y688750D02*
X157500Y692500D01*
X157500Y677500D02*
X166250Y668750D01*
X190000Y668750D01*
X197500Y661250D01*
X197500Y647500D01*
D30*
X121250Y686250D03*
X190000Y453750D03*
X197500Y420000D03*
X197500Y647500D03*
X157500Y692500D03*
X157500Y677500D03*
D31*
X231250Y636250D02*
X252500Y657500D01*
X257500Y741250D02*
X261250Y745000D01*
X346250Y745000D01*
X231250Y636250D02*
X231200Y635226D01*
D30*
X252500Y657500D03*
X257500Y741250D03*
X346250Y745000D03*
D31*
X223750Y665000D02*
X223750Y636250D01*
X223750Y665000D02*
X272500Y665000D01*
X295000Y752500D02*
X305000Y762500D01*
X457500Y762500D01*
X465000Y770000D01*
X223750Y636250D02*
X223200Y635226D01*
X465000Y770000D02*
X465000Y771100D01*
D30*
X272500Y665000D03*
X295000Y752500D03*
D31*
X265000Y640000D02*
X246250Y621250D01*
X246126Y620300D01*
D30*
X265000Y640000D03*
D31*
X243750Y613750D02*
X245000Y612500D01*
X243750Y613750D02*
X237500Y613750D01*
X232500Y618750D01*
X230000Y618750D01*
X198750Y741250D02*
X170000Y770000D01*
X166250Y770000D01*
X245000Y612500D02*
X246126Y612300D01*
X166250Y770000D02*
X165300Y771100D01*
D30*
X230000Y618750D03*
X198750Y741250D03*
D31*
X172500Y225000D02*
X172500Y213750D01*
X183750Y605000D02*
X190000Y611250D01*
X233750Y611250D01*
X240000Y605000D01*
X245000Y605000D01*
X172500Y213750D02*
X172139Y212644D01*
X246126Y604300D02*
X245000Y605000D01*
D30*
X172500Y225000D03*
X183750Y605000D03*
D31*
X272500Y225000D02*
X272500Y213750D01*
X258750Y581250D02*
X246250Y581250D01*
X272500Y213750D02*
X273126Y212644D01*
X246126Y580300D02*
X246250Y581250D01*
D30*
X272500Y225000D03*
X258750Y581250D03*
D29*
X215000Y341250D02*
X215000Y321250D01*
X215000Y341250D02*
X180000Y341250D01*
X166250Y327500D01*
X162500Y327500D01*
X147500Y312500D01*
X123750Y312500D01*
X215000Y321250D02*
X215200Y320774D01*
D30*
X123750Y312500D03*
D29*
X70000Y624600D02*
X88900Y643500D01*
X70000Y624600D02*
X70000Y530000D01*
X210000Y530000D01*
X223200Y543200D01*
X223200Y549374D01*
X70000Y530000D02*
X70000Y320000D01*
X90000Y300000D01*
X221156Y313114D02*
X221156Y318730D01*
X223200Y320774D01*
X208042Y300000D02*
X90000Y300000D01*
X208042Y300000D02*
X221156Y313114D01*
D30*
X220000Y580000D03*
D29*
X229156Y551418D02*
X231200Y549374D01*
X229156Y551418D02*
X229156Y557034D01*
X220000Y566190D02*
X220000Y580000D01*
X220000Y566190D02*
X229156Y557034D01*
D30*
X220000Y350000D03*
D29*
X229156Y322818D02*
X231200Y320774D01*
X229156Y322818D02*
X229156Y328434D01*
X220000Y337590D02*
X220000Y350000D01*
X220000Y337590D02*
X229156Y328434D01*
X246126Y564300D02*
X284300Y564300D01*
X290000Y570000D01*
X290000Y690000D01*
X123500Y693500D02*
X88900Y693500D01*
X246126Y335700D02*
X265700Y335700D01*
X270000Y340000D01*
X290000Y360000D01*
X290000Y570000D01*
X193245Y720000D02*
X150000Y720000D01*
X193245Y720000D02*
X202289Y729044D01*
X150000Y720000D02*
X123500Y693500D01*
X236548Y729044D02*
X237072Y729568D01*
X250432Y729568D02*
X290000Y690000D01*
X250432Y729568D02*
X237072Y729568D01*
X236548Y729044D02*
X202289Y729044D01*
X198750Y576250D02*
X198750Y550000D01*
X198750Y576250D02*
X177500Y576250D01*
X147500Y661250D02*
X132500Y676250D01*
X142500Y722500D02*
X155000Y735000D01*
X316250Y735000D01*
X198750Y550000D02*
X199200Y549374D01*
D30*
X177500Y576250D03*
X147500Y661250D03*
X132500Y676250D03*
X142500Y722500D03*
X316250Y735000D03*
D29*
X157500Y575000D02*
X160000Y572500D01*
X157500Y575000D02*
X145000Y575000D01*
X160000Y572500D02*
X160274Y572300D01*
D30*
X145000Y575000D03*
D29*
X218750Y686250D02*
X231250Y686250D01*
X231400Y686100D01*
X218750Y686250D02*
X218652Y686100D01*
X158750Y566250D02*
X160000Y565000D01*
X158750Y566250D02*
X143750Y566250D01*
X97500Y612500D01*
X97500Y678750D01*
X86250Y678750D01*
X33750Y731250D01*
X33750Y816250D01*
X471250Y816250D01*
X556250Y731250D01*
X556250Y656250D01*
X478750Y656250D01*
X457500Y635000D01*
X160274Y564300D02*
X160000Y565000D01*
X457200Y635000D02*
X457500Y635000D01*
X191250Y635000D02*
X191250Y625000D01*
X237500Y625000D01*
X267500Y655000D01*
X272500Y655000D01*
X290000Y700000D02*
X298750Y700000D01*
X330000Y668750D01*
X330000Y635000D01*
X191250Y635000D02*
X191200Y635226D01*
X330000Y635000D02*
X330200Y635000D01*
D30*
X272500Y655000D03*
X290000Y700000D03*
D29*
X182500Y661250D02*
X182500Y636250D01*
X182500Y661250D02*
X157500Y661250D01*
X148750Y670000D01*
X145000Y670000D01*
X140000Y675000D01*
X140000Y685000D01*
X182500Y636250D02*
X183200Y635226D01*
D30*
X205000Y722500D03*
D29*
X176132Y693632D01*
X176132Y689814D01*
X171317Y685000D01*
X140000Y685000D01*
X157500Y653750D02*
X175000Y636250D01*
X157500Y653750D02*
X145000Y653750D01*
X122500Y676250D01*
X371250Y605000D02*
X371250Y587500D01*
X447500Y587500D01*
X456250Y596250D01*
X175200Y635226D02*
X175000Y636250D01*
X456250Y596250D02*
X457200Y596900D01*
D30*
X122500Y676250D03*
X371250Y605000D03*
D29*
X160000Y612500D02*
X158750Y613750D01*
X131250Y613750D01*
X160000Y612500D02*
X160274Y612300D01*
D30*
X131250Y613750D03*
D29*
X190000Y568750D02*
X190000Y550000D01*
X190000Y658750D02*
X183750Y665000D01*
X160000Y665000D01*
X147500Y677500D01*
X190000Y550000D02*
X191200Y549374D01*
D30*
X190000Y568750D03*
X190000Y658750D03*
X147500Y677500D03*
D29*
X202500Y685000D02*
X202500Y652500D01*
X203750Y652500D01*
X215000Y641250D01*
X215000Y636250D01*
X202500Y685000D02*
X202348Y686100D01*
X215000Y636250D02*
X215200Y635226D01*
X207500Y580000D02*
X207500Y550000D01*
X211250Y658750D02*
X231250Y678750D01*
X282500Y678750D01*
X296250Y692500D02*
X296250Y640000D01*
X295000Y638750D01*
X295000Y521250D01*
X303750Y521250D01*
X207500Y550000D02*
X207200Y549374D01*
X303750Y521250D02*
X304800Y520700D01*
D30*
X207500Y580000D03*
X211250Y658750D03*
X282500Y678750D03*
X296250Y692500D03*
D29*
X160000Y621250D02*
X97500Y683750D01*
X86250Y683750D01*
X80000Y690000D01*
X80000Y772500D01*
X130000Y772500D01*
X147500Y790000D01*
X388750Y790000D01*
X160000Y621250D02*
X160274Y620300D01*
D30*
X388750Y790000D03*
D29*
X175000Y548750D02*
X168750Y542500D01*
X166250Y542500D01*
X178750Y526250D02*
X175000Y522500D01*
X178750Y526250D02*
X217500Y526250D01*
X227500Y536250D01*
X175200Y549374D02*
X175000Y548750D01*
D30*
X166250Y542500D03*
X175000Y522500D03*
X227500Y536250D03*
D29*
X182500Y550000D02*
X182500Y562500D01*
X172500Y562500D01*
X182500Y550000D02*
X183200Y549374D01*
D30*
X172500Y562500D03*
D31*
X416250Y676250D02*
X432500Y692500D01*
X536250Y692500D01*
X545000Y701250D01*
X546100Y702400D01*
D30*
X416250Y676250D03*
D31*
X456250Y621250D02*
X432500Y597500D01*
X456250Y621250D02*
X545000Y621250D01*
X432500Y597500D02*
X431800Y596900D01*
X545000Y621250D02*
X546100Y621457D01*
X371250Y581250D02*
X356250Y596250D01*
X371250Y581250D02*
X532500Y581250D01*
X562500Y611250D01*
X562500Y646250D01*
X546250Y646250D01*
X356250Y596250D02*
X355600Y596900D01*
X546100Y646457D02*
X546250Y646250D01*
X355000Y635000D02*
X327500Y607500D01*
X326250Y607500D01*
X320000Y601250D01*
X320000Y540000D01*
X545000Y540000D01*
X355600Y635000D02*
X355000Y635000D01*
X545000Y540000D02*
X546100Y540514D01*
X431250Y635000D02*
X408750Y612500D01*
X348750Y612500D01*
X340000Y603750D01*
X340000Y566250D01*
X545000Y566250D01*
X431800Y635000D02*
X431250Y635000D01*
X545000Y566250D02*
X546100Y565514D01*
X432500Y711250D02*
X442500Y721250D01*
X498750Y721250D01*
X513750Y706250D01*
X432500Y711250D02*
X431800Y711200D01*
D30*
X513750Y706250D03*
D31*
X403750Y662500D02*
X356250Y710000D01*
X403750Y662500D02*
X513750Y662500D01*
X356250Y710000D02*
X355600Y711200D01*
D30*
X513750Y662500D03*
D27*
X292500Y237500D02*
X273750Y237500D01*
X291250Y187500D02*
X280000Y176250D01*
X265000Y176250D01*
X255000Y186250D01*
X273750Y237500D02*
X273613Y238700D01*
X254126Y187356D02*
X255000Y186250D01*
X425000Y548750D02*
X432500Y556250D01*
X425000Y548750D02*
X367500Y548750D01*
D28*
X292500Y237500D03*
X291250Y187500D03*
X432500Y556250D03*
X367500Y548750D03*
D29*
X231250Y457500D02*
X218750Y457500D01*
X231250Y457500D02*
X231400Y457500D01*
X218750Y457500D02*
X218652Y457500D01*
X202500Y457500D02*
X202500Y468750D01*
X207500Y420000D02*
X215000Y412500D01*
X215000Y407500D01*
X202500Y457500D02*
X202348Y457500D01*
X215000Y407500D02*
X215200Y406626D01*
D30*
X202500Y468750D03*
X207500Y420000D03*
D31*
X397500Y338750D02*
X400000Y341250D01*
X541250Y341250D01*
D30*
X397500Y338750D03*
X541250Y341250D03*
D31*
X442500Y302500D02*
X432500Y292500D01*
X442500Y302500D02*
X465000Y302500D01*
X495000Y392500D02*
X505000Y402500D01*
X545000Y402500D01*
X432500Y292500D02*
X431800Y292100D01*
X545000Y402500D02*
X546100Y403629D01*
D30*
X465000Y302500D03*
X495000Y392500D03*
D31*
X445000Y355000D02*
X432500Y367500D01*
X445000Y355000D02*
X546250Y355000D01*
X562500Y338750D01*
X562500Y298750D01*
X546250Y298750D01*
X432500Y367500D02*
X431800Y368300D01*
X546250Y298750D02*
X546100Y297686D01*
X356250Y325000D02*
X356250Y367500D01*
X356250Y325000D02*
X543750Y325000D01*
X545000Y323750D01*
X356250Y367500D02*
X355600Y368300D01*
X545000Y323750D02*
X546100Y322686D01*
X371250Y422500D02*
X356250Y407500D01*
X371250Y422500D02*
X550000Y422500D01*
X356250Y407500D02*
X355600Y406400D01*
D30*
X550000Y422500D03*
D31*
X460000Y378750D02*
X432500Y406250D01*
X460000Y378750D02*
X527500Y378750D01*
X432500Y406250D02*
X431800Y406400D01*
D30*
X527500Y378750D03*
D31*
X371250Y498750D02*
X356250Y483750D01*
X371250Y498750D02*
X480000Y498750D01*
X542500Y436250D01*
X555000Y436250D01*
X572500Y418750D01*
X572500Y161250D01*
X546250Y161250D01*
X355600Y482600D02*
X356250Y483750D01*
X546250Y161250D02*
X546100Y160800D01*
D27*
X156250Y221250D02*
X156250Y230000D01*
X156250Y237500D01*
X156250Y221250D02*
X153750Y218750D01*
X153750Y213750D01*
X156250Y237500D02*
X156322Y238700D01*
X153750Y213750D02*
X153139Y212644D01*
X102500Y227500D02*
X102500Y230000D01*
X102500Y262500D01*
X102500Y227500D02*
X87500Y227500D01*
X102500Y262500D02*
X103654Y262900D01*
X87500Y227500D02*
X86500Y227450D01*
X105000Y230000D02*
X153750Y230000D01*
X156250Y230000D01*
X105000Y230000D02*
X102500Y230000D01*
X101250Y265000D02*
X101250Y285000D01*
X101250Y265000D02*
X103654Y262900D01*
X452500Y237500D02*
X452500Y221250D01*
X450000Y218750D01*
X450000Y213750D01*
X452500Y237500D02*
X452974Y238700D01*
X450000Y213750D02*
X449687Y212644D01*
X256250Y216250D02*
X256250Y237500D01*
X256250Y216250D02*
X253750Y213750D01*
X256250Y237500D02*
X257309Y238700D01*
X253750Y213750D02*
X254126Y212644D01*
X360000Y221250D02*
X360000Y237500D01*
X360000Y221250D02*
X357500Y218750D01*
X357500Y213750D01*
X360000Y237500D02*
X360761Y238700D01*
X357500Y213750D02*
X357474Y212644D01*
X257500Y241250D02*
X257500Y255000D01*
X341250Y255000D01*
X343125Y253125D02*
X357500Y238750D01*
X343125Y253125D02*
X341250Y255000D01*
X257500Y241250D02*
X257309Y238700D01*
X357500Y238750D02*
X360761Y238700D01*
X433750Y255000D02*
X450000Y238750D01*
X433750Y255000D02*
X345000Y255000D01*
X450000Y238750D02*
X452974Y238700D01*
X345000Y255000D02*
X343125Y253125D01*
X157500Y255000D02*
X157500Y241250D01*
X157500Y255000D02*
X255000Y255000D01*
X157500Y241250D02*
X156322Y238700D01*
X255000Y255000D02*
X257500Y255000D01*
D28*
X101250Y285000D03*
D31*
X377500Y213750D02*
X381250Y217500D01*
X403750Y217500D01*
X418750Y317500D02*
X416250Y320000D01*
X273750Y320000D01*
X268750Y362500D02*
X256250Y375000D01*
X246250Y375000D01*
X377500Y213750D02*
X376474Y212644D01*
X246250Y375000D02*
X246126Y375700D01*
D30*
X403750Y217500D03*
X418750Y317500D03*
X273750Y320000D03*
X268750Y362500D03*
D31*
X468750Y213750D02*
X515000Y260000D01*
X515000Y310000D01*
X273750Y310000D01*
X258750Y345000D02*
X252500Y351250D01*
X246250Y351250D01*
X468750Y213750D02*
X468687Y212644D01*
X246250Y351250D02*
X246126Y351700D01*
D30*
X273750Y310000D03*
X258750Y345000D03*
D31*
X245000Y382500D02*
X227500Y382500D01*
X245000Y382500D02*
X246126Y383700D01*
D30*
X227500Y382500D03*
D31*
X243750Y390000D02*
X245000Y391250D01*
X243750Y390000D02*
X233750Y390000D01*
X245000Y391250D02*
X246126Y391700D01*
D30*
X233750Y390000D03*
D31*
X237500Y400000D02*
X231250Y406250D01*
X237500Y400000D02*
X240000Y400000D01*
X231250Y406250D02*
X231200Y406626D01*
D30*
X240000Y400000D03*
D31*
X223750Y407500D02*
X223750Y416250D01*
X235000Y416250D01*
X281250Y370000D01*
X331250Y115000D02*
X341250Y105000D01*
X448750Y105000D01*
X465000Y88750D01*
X223200Y406626D02*
X223750Y407500D01*
X465000Y88750D02*
X465000Y88200D01*
D30*
X281250Y370000D03*
X331250Y115000D03*
D29*
X198750Y307500D02*
X198750Y320000D01*
X198750Y307500D02*
X196250Y307500D01*
X373750Y472500D02*
X416250Y430000D01*
X373750Y472500D02*
X341250Y472500D01*
X331250Y482500D01*
X199200Y320774D02*
X198750Y320000D01*
X330200Y482600D02*
X331250Y482500D01*
D30*
X196250Y307500D03*
X416250Y430000D03*
D29*
X206250Y320000D02*
X206250Y307500D01*
X207500Y292500D02*
X303750Y292500D01*
X207200Y320774D02*
X206250Y320000D01*
X303750Y292500D02*
X304800Y292100D01*
D30*
X206250Y307500D03*
X207500Y292500D03*
D29*
X160000Y342500D02*
X153750Y342500D01*
X131250Y320000D01*
X160000Y342500D02*
X160274Y343700D01*
D30*
X131250Y320000D03*
D29*
X151250Y326250D02*
X160000Y335000D01*
X181250Y185000D02*
X185000Y181250D01*
X247500Y181250D01*
X261250Y167500D01*
X388750Y167500D01*
X427500Y206250D01*
X160000Y335000D02*
X160274Y335700D01*
D30*
X151250Y326250D03*
X181250Y185000D03*
X427500Y206250D03*
D29*
X190000Y407500D02*
X190000Y427500D01*
X235000Y427500D01*
X275000Y387500D01*
X191200Y406626D02*
X190000Y407500D01*
D30*
X275000Y387500D03*
D29*
X183750Y376250D02*
X183750Y406250D01*
X183750Y376250D02*
X186250Y376250D01*
X228750Y311250D02*
X222500Y305000D01*
X228750Y311250D02*
X256250Y311250D01*
X303750Y358750D01*
X321250Y358750D01*
X330000Y367500D01*
X183750Y406250D02*
X183200Y406626D01*
X330200Y368300D02*
X330000Y367500D01*
D30*
X186250Y376250D03*
X222500Y305000D03*
D29*
X170000Y401250D02*
X175000Y406250D01*
X170000Y401250D02*
X145000Y401250D01*
X137500Y393750D01*
X175000Y406250D02*
X175200Y406626D01*
D30*
X137500Y393750D03*
D29*
X158750Y393750D02*
X160000Y392500D01*
X158750Y393750D02*
X147500Y393750D01*
X135000Y488750D02*
X131250Y492500D01*
X135000Y488750D02*
X262500Y488750D01*
X297500Y453750D02*
X346250Y405000D01*
X346250Y377500D01*
X436250Y377500D01*
X447500Y366250D01*
X447500Y358750D01*
X473750Y358750D01*
X482500Y367500D01*
X160274Y391700D02*
X160000Y392500D01*
X482500Y367500D02*
X482600Y368300D01*
D30*
X147500Y393750D03*
X131250Y492500D03*
X262500Y488750D03*
X297500Y453750D03*
D29*
X160000Y382500D02*
X158750Y381250D01*
X147500Y381250D01*
X186250Y133750D02*
X198750Y121250D01*
X438750Y121250D01*
X160000Y382500D02*
X160274Y383700D01*
D30*
X147500Y381250D03*
X186250Y133750D03*
X438750Y121250D03*
D29*
X191250Y321250D02*
X191250Y333750D01*
X215000Y285000D02*
X217500Y282500D01*
X321250Y282500D01*
X330000Y291250D01*
X191200Y320774D02*
X191250Y321250D01*
X330000Y291250D02*
X330200Y292100D01*
D30*
X191250Y333750D03*
X215000Y285000D03*
D29*
X182500Y307500D02*
X182500Y320000D01*
X182500Y307500D02*
X171250Y307500D01*
X171250Y265000D02*
X172500Y263750D01*
X316250Y263750D01*
X183200Y320774D02*
X182500Y320000D01*
D30*
X171250Y307500D03*
X171250Y265000D03*
X316250Y263750D03*
D29*
X175000Y320000D02*
X166250Y320000D01*
X166250Y411250D02*
X186250Y431250D01*
X280000Y431250D01*
X175200Y320774D02*
X175000Y320000D01*
D30*
X166250Y320000D03*
X166250Y411250D03*
X280000Y431250D03*
D29*
X215000Y541250D02*
X215000Y548750D01*
X215000Y541250D02*
X212500Y541250D01*
X206250Y535000D01*
X146250Y535000D01*
X90000Y591250D01*
X215200Y549374D02*
X215000Y548750D01*
X90000Y591250D02*
X88900Y591500D01*
D27*
X377500Y237500D02*
X378750Y236250D01*
X393750Y236250D01*
X391250Y186250D02*
X381250Y176250D01*
X367500Y176250D01*
X357500Y186250D01*
X377500Y237500D02*
X377065Y238700D01*
X357474Y187356D02*
X357500Y186250D01*
X462500Y271250D02*
X482500Y291250D01*
X462500Y271250D02*
X407500Y271250D01*
X482500Y291250D02*
X482600Y292100D01*
D28*
X393750Y236250D03*
X391250Y186250D03*
X407500Y271250D03*
D27*
X470000Y238750D02*
X503750Y272500D01*
X470000Y238750D02*
X469278Y238700D01*
X461250Y198750D02*
X450000Y187500D01*
X461250Y198750D02*
X478750Y198750D01*
X450000Y187500D02*
X449687Y187356D01*
D28*
X503750Y272500D03*
X478750Y198750D03*
D29*
X265000Y588750D02*
X246250Y588750D01*
X265000Y557500D02*
X222500Y515000D01*
X105000Y515000D01*
X58750Y515000D02*
X30000Y486250D01*
X246126Y588300D02*
X246250Y588750D01*
X30000Y486250D02*
X30000Y485246D01*
D30*
X265000Y588750D03*
X265000Y557500D03*
X105000Y515000D03*
X58750Y515000D03*
D29*
X246250Y360000D02*
X248750Y362500D01*
X258750Y362500D01*
X258750Y466250D02*
X240000Y485000D01*
X90000Y485000D01*
X246250Y360000D02*
X246126Y359700D01*
X90000Y485000D02*
X90000Y485246D01*
D30*
X258750Y362500D03*
X258750Y466250D03*
M02*
