G04 EAGLE Gerber RS-274X export*
G75*
%MOMM*%
%FSLAX34Y34*%
%LPD*%
%INSilkscreen Bottom*%
%IPPOS*%
%AMOC8*
5,1,8,0,0,1.08239X$1,22.5*%
G01*
G04 Define Apertures*
G36*
X315635Y30000D02*
X312838Y30000D01*
X307747Y47286D01*
X310188Y47286D01*
X312669Y38359D01*
X313342Y35905D01*
X313635Y34791D01*
X314175Y32490D01*
X314286Y32061D01*
X314752Y34091D01*
X315365Y36527D01*
X318371Y47286D01*
X320616Y47286D01*
X322976Y38873D01*
X323663Y36371D01*
X324020Y35005D01*
X324384Y33472D01*
X324701Y32061D01*
X325189Y34214D01*
X325719Y36306D01*
X328823Y47286D01*
X331265Y47286D01*
X326173Y30000D01*
X323376Y30000D01*
X320975Y38741D01*
X320319Y41165D01*
X320027Y42293D01*
X319487Y44673D01*
X318990Y42418D01*
X318793Y41597D01*
X318629Y40980D01*
X315635Y30000D01*
G37*
G36*
X364948Y30000D02*
X362150Y30000D01*
X357059Y47286D01*
X359501Y47286D01*
X361982Y38359D01*
X362654Y35905D01*
X362948Y34791D01*
X363488Y32490D01*
X363598Y32061D01*
X364064Y34091D01*
X364678Y36527D01*
X367683Y47286D01*
X369928Y47286D01*
X372289Y38873D01*
X372975Y36371D01*
X373333Y35005D01*
X373696Y33472D01*
X374014Y32061D01*
X374501Y34214D01*
X375032Y36306D01*
X378136Y47286D01*
X380577Y47286D01*
X375486Y30000D01*
X372689Y30000D01*
X370287Y38741D01*
X369632Y41165D01*
X369340Y42293D01*
X368800Y44673D01*
X368303Y42418D01*
X368105Y41597D01*
X367941Y40980D01*
X364948Y30000D01*
G37*
G36*
X414260Y30000D02*
X411463Y30000D01*
X406372Y47286D01*
X408813Y47286D01*
X411294Y38359D01*
X411967Y35905D01*
X412260Y34791D01*
X412800Y32490D01*
X412911Y32061D01*
X413377Y34091D01*
X413990Y36527D01*
X416996Y47286D01*
X419241Y47286D01*
X421601Y38873D01*
X422288Y36371D01*
X422645Y35005D01*
X423009Y33472D01*
X423326Y32061D01*
X423814Y34214D01*
X424344Y36306D01*
X427448Y47286D01*
X429890Y47286D01*
X424798Y30000D01*
X422001Y30000D01*
X419600Y38741D01*
X418944Y41165D01*
X418652Y42293D01*
X418112Y44673D01*
X417615Y42418D01*
X417418Y41597D01*
X417254Y40980D01*
X414260Y30000D01*
G37*
G36*
X303515Y29755D02*
X303121Y29765D01*
X302742Y29794D01*
X302378Y29844D01*
X302029Y29913D01*
X301695Y30001D01*
X301377Y30110D01*
X301073Y30238D01*
X300785Y30386D01*
X300509Y30558D01*
X300241Y30758D01*
X299982Y30985D01*
X299732Y31241D01*
X299490Y31524D01*
X299257Y31834D01*
X299032Y32173D01*
X298816Y32539D01*
X298743Y32539D01*
X298717Y32207D01*
X298675Y31898D01*
X298619Y31612D01*
X298548Y31348D01*
X298461Y31107D01*
X298360Y30889D01*
X298243Y30694D01*
X298111Y30521D01*
X297961Y30370D01*
X297790Y30240D01*
X297598Y30129D01*
X297385Y30038D01*
X297152Y29968D01*
X296897Y29918D01*
X296622Y29887D01*
X296326Y29877D01*
X295892Y29890D01*
X295464Y29926D01*
X295040Y29988D01*
X294620Y30074D01*
X294620Y31448D01*
X295004Y31383D01*
X295344Y31362D01*
X295518Y31370D01*
X295677Y31393D01*
X295822Y31432D01*
X295952Y31486D01*
X296067Y31556D01*
X296168Y31641D01*
X296254Y31742D01*
X296326Y31859D01*
X296438Y32137D01*
X296519Y32477D01*
X296567Y32876D01*
X296583Y33337D01*
X296583Y39054D01*
X296603Y39581D01*
X296662Y40076D01*
X296761Y40538D01*
X296899Y40969D01*
X297077Y41368D01*
X297294Y41735D01*
X297551Y42070D01*
X297847Y42372D01*
X298182Y42641D01*
X298556Y42874D01*
X298969Y43071D01*
X299420Y43233D01*
X299910Y43358D01*
X300439Y43448D01*
X301007Y43501D01*
X301613Y43519D01*
X302192Y43505D01*
X302738Y43463D01*
X303251Y43393D01*
X303731Y43296D01*
X304179Y43170D01*
X304593Y43016D01*
X304975Y42834D01*
X305324Y42624D01*
X305641Y42386D01*
X305924Y42120D01*
X306175Y41826D01*
X306393Y41504D01*
X306578Y41155D01*
X306731Y40777D01*
X306851Y40371D01*
X306938Y39937D01*
X304631Y39729D01*
X304589Y39995D01*
X304530Y40243D01*
X304454Y40472D01*
X304361Y40682D01*
X304252Y40874D01*
X304125Y41047D01*
X303982Y41201D01*
X303822Y41336D01*
X303640Y41454D01*
X303434Y41556D01*
X303202Y41642D01*
X302944Y41713D01*
X302662Y41768D01*
X302354Y41807D01*
X302021Y41831D01*
X301662Y41839D01*
X301307Y41828D01*
X300975Y41795D01*
X300669Y41740D01*
X300386Y41664D01*
X300129Y41566D01*
X299896Y41445D01*
X299687Y41303D01*
X299503Y41139D01*
X299342Y40950D01*
X299203Y40732D01*
X299084Y40486D01*
X298988Y40210D01*
X298913Y39906D01*
X298859Y39573D01*
X298827Y39211D01*
X298816Y38821D01*
X298816Y38097D01*
X301797Y38048D01*
X302526Y38013D01*
X303202Y37947D01*
X303827Y37848D01*
X304400Y37717D01*
X304920Y37553D01*
X305389Y37358D01*
X305806Y37130D01*
X306171Y36870D01*
X306489Y36579D01*
X306764Y36258D01*
X306997Y35907D01*
X307188Y35527D01*
X307336Y35116D01*
X307442Y34676D01*
X307505Y34205D01*
X307526Y33705D01*
X307511Y33257D01*
X307464Y32834D01*
X307385Y32435D01*
X307275Y32061D01*
X307133Y31711D01*
X306961Y31386D01*
X306756Y31086D01*
X306520Y30810D01*
X306253Y30562D01*
X305955Y30348D01*
X305626Y30167D01*
X305266Y30018D01*
X304875Y29903D01*
X304453Y29821D01*
X303999Y29771D01*
X303515Y29755D01*
G37*
%LPC*%
G36*
X303012Y31411D02*
X303274Y31420D01*
X303521Y31448D01*
X303752Y31494D01*
X303967Y31558D01*
X304167Y31641D01*
X304352Y31742D01*
X304521Y31862D01*
X304674Y32000D01*
X304811Y32155D01*
X304929Y32325D01*
X305029Y32510D01*
X305111Y32711D01*
X305175Y32927D01*
X305220Y33159D01*
X305248Y33406D01*
X305257Y33668D01*
X305250Y33911D01*
X305230Y34141D01*
X305196Y34360D01*
X305150Y34567D01*
X305089Y34762D01*
X305015Y34945D01*
X304928Y35116D01*
X304827Y35275D01*
X304589Y35562D01*
X304305Y35809D01*
X303973Y36016D01*
X303595Y36183D01*
X303382Y36252D01*
X303146Y36313D01*
X302602Y36410D01*
X301965Y36473D01*
X301233Y36502D01*
X298816Y36551D01*
X298816Y35459D01*
X298825Y35206D01*
X298850Y34954D01*
X298893Y34703D01*
X298953Y34455D01*
X299029Y34208D01*
X299123Y33963D01*
X299234Y33720D01*
X299362Y33478D01*
X299505Y33244D01*
X299660Y33022D01*
X299828Y32814D01*
X300008Y32618D01*
X300200Y32435D01*
X300405Y32265D01*
X300623Y32107D01*
X300853Y31963D01*
X301093Y31834D01*
X301342Y31721D01*
X301599Y31626D01*
X301865Y31549D01*
X302139Y31488D01*
X302421Y31445D01*
X302712Y31419D01*
X303012Y31411D01*
G37*
%LPD*%
G36*
X352827Y29755D02*
X352433Y29765D01*
X352054Y29794D01*
X351690Y29844D01*
X351341Y29913D01*
X351008Y30001D01*
X350689Y30110D01*
X350386Y30238D01*
X350098Y30386D01*
X349821Y30558D01*
X349554Y30758D01*
X349295Y30985D01*
X349044Y31241D01*
X348802Y31524D01*
X348569Y31834D01*
X348345Y32173D01*
X348129Y32539D01*
X348055Y32539D01*
X348029Y32207D01*
X347988Y31898D01*
X347932Y31612D01*
X347860Y31348D01*
X347774Y31107D01*
X347672Y30889D01*
X347555Y30694D01*
X347423Y30521D01*
X347273Y30370D01*
X347102Y30240D01*
X346911Y30129D01*
X346698Y30038D01*
X346464Y29968D01*
X346210Y29918D01*
X345934Y29887D01*
X345638Y29877D01*
X345205Y29890D01*
X344776Y29926D01*
X344352Y29988D01*
X343933Y30074D01*
X343933Y31448D01*
X344316Y31383D01*
X344657Y31362D01*
X344830Y31370D01*
X344990Y31393D01*
X345134Y31432D01*
X345264Y31486D01*
X345379Y31556D01*
X345480Y31641D01*
X345567Y31742D01*
X345638Y31859D01*
X345751Y32137D01*
X345831Y32477D01*
X345880Y32876D01*
X345896Y33337D01*
X345896Y39054D01*
X345916Y39581D01*
X345975Y40076D01*
X346074Y40538D01*
X346212Y40969D01*
X346389Y41368D01*
X346607Y41735D01*
X346863Y42070D01*
X347159Y42372D01*
X347495Y42641D01*
X347869Y42874D01*
X348281Y43071D01*
X348733Y43233D01*
X349223Y43358D01*
X349752Y43448D01*
X350319Y43501D01*
X350926Y43519D01*
X351504Y43505D01*
X352050Y43463D01*
X352563Y43393D01*
X353044Y43296D01*
X353491Y43170D01*
X353906Y43016D01*
X354288Y42834D01*
X354637Y42624D01*
X354953Y42386D01*
X355237Y42120D01*
X355488Y41826D01*
X355706Y41504D01*
X355891Y41155D01*
X356043Y40777D01*
X356163Y40371D01*
X356250Y39937D01*
X353944Y39729D01*
X353902Y39995D01*
X353842Y40243D01*
X353767Y40472D01*
X353674Y40682D01*
X353564Y40874D01*
X353438Y41047D01*
X353294Y41201D01*
X353134Y41336D01*
X352953Y41454D01*
X352746Y41556D01*
X352514Y41642D01*
X352257Y41713D01*
X351974Y41768D01*
X351666Y41807D01*
X351333Y41831D01*
X350975Y41839D01*
X350619Y41828D01*
X350288Y41795D01*
X349981Y41740D01*
X349699Y41664D01*
X349441Y41566D01*
X349208Y41445D01*
X349000Y41303D01*
X348816Y41139D01*
X348655Y40950D01*
X348515Y40732D01*
X348397Y40486D01*
X348300Y40210D01*
X348225Y39906D01*
X348172Y39573D01*
X348139Y39211D01*
X348129Y38821D01*
X348129Y38097D01*
X351110Y38048D01*
X351838Y38013D01*
X352515Y37947D01*
X353139Y37848D01*
X353712Y37717D01*
X354233Y37553D01*
X354702Y37358D01*
X355118Y37130D01*
X355483Y36870D01*
X355801Y36579D01*
X356076Y36258D01*
X356309Y35907D01*
X356500Y35527D01*
X356648Y35116D01*
X356754Y34676D01*
X356818Y34205D01*
X356839Y33705D01*
X356823Y33257D01*
X356776Y32834D01*
X356697Y32435D01*
X356587Y32061D01*
X356446Y31711D01*
X356273Y31386D01*
X356069Y31086D01*
X355833Y30810D01*
X355566Y30562D01*
X355268Y30348D01*
X354939Y30167D01*
X354579Y30018D01*
X354187Y29903D01*
X353765Y29821D01*
X353312Y29771D01*
X352827Y29755D01*
G37*
%LPC*%
G36*
X352324Y31411D02*
X352586Y31420D01*
X352833Y31448D01*
X353064Y31494D01*
X353280Y31558D01*
X353480Y31641D01*
X353664Y31742D01*
X353833Y31862D01*
X353987Y32000D01*
X354123Y32155D01*
X354242Y32325D01*
X354342Y32510D01*
X354424Y32711D01*
X354487Y32927D01*
X354533Y33159D01*
X354560Y33406D01*
X354569Y33668D01*
X354563Y33911D01*
X354543Y34141D01*
X354509Y34360D01*
X354462Y34567D01*
X354402Y34762D01*
X354328Y34945D01*
X354241Y35116D01*
X354140Y35275D01*
X353902Y35562D01*
X353617Y35809D01*
X353285Y36016D01*
X352907Y36183D01*
X352694Y36252D01*
X352458Y36313D01*
X351915Y36410D01*
X351277Y36473D01*
X350545Y36502D01*
X348129Y36551D01*
X348129Y35459D01*
X348137Y35206D01*
X348163Y34954D01*
X348205Y34703D01*
X348265Y34455D01*
X348342Y34208D01*
X348436Y33963D01*
X348547Y33720D01*
X348675Y33478D01*
X348817Y33244D01*
X348972Y33022D01*
X349140Y32814D01*
X349320Y32618D01*
X349513Y32435D01*
X349718Y32265D01*
X349935Y32107D01*
X350165Y31963D01*
X350406Y31834D01*
X350654Y31721D01*
X350912Y31626D01*
X351177Y31549D01*
X351451Y31488D01*
X351734Y31445D01*
X352025Y31419D01*
X352324Y31411D01*
G37*
%LPD*%
G36*
X402140Y29755D02*
X401746Y29765D01*
X401367Y29794D01*
X401003Y29844D01*
X400654Y29913D01*
X400320Y30001D01*
X400002Y30110D01*
X399698Y30238D01*
X399410Y30386D01*
X399134Y30558D01*
X398866Y30758D01*
X398607Y30985D01*
X398357Y31241D01*
X398115Y31524D01*
X397882Y31834D01*
X397657Y32173D01*
X397441Y32539D01*
X397368Y32539D01*
X397342Y32207D01*
X397300Y31898D01*
X397244Y31612D01*
X397173Y31348D01*
X397086Y31107D01*
X396985Y30889D01*
X396868Y30694D01*
X396736Y30521D01*
X396586Y30370D01*
X396415Y30240D01*
X396223Y30129D01*
X396010Y30038D01*
X395777Y29968D01*
X395522Y29918D01*
X395247Y29887D01*
X394951Y29877D01*
X394517Y29890D01*
X394089Y29926D01*
X393665Y29988D01*
X393245Y30074D01*
X393245Y31448D01*
X393629Y31383D01*
X393969Y31362D01*
X394143Y31370D01*
X394302Y31393D01*
X394447Y31432D01*
X394577Y31486D01*
X394692Y31556D01*
X394793Y31641D01*
X394879Y31742D01*
X394951Y31859D01*
X395063Y32137D01*
X395144Y32477D01*
X395192Y32876D01*
X395208Y33337D01*
X395208Y39054D01*
X395228Y39581D01*
X395287Y40076D01*
X395386Y40538D01*
X395524Y40969D01*
X395702Y41368D01*
X395919Y41735D01*
X396176Y42070D01*
X396472Y42372D01*
X396807Y42641D01*
X397181Y42874D01*
X397594Y43071D01*
X398045Y43233D01*
X398535Y43358D01*
X399064Y43448D01*
X399632Y43501D01*
X400238Y43519D01*
X400817Y43505D01*
X401363Y43463D01*
X401876Y43393D01*
X402356Y43296D01*
X402804Y43170D01*
X403218Y43016D01*
X403600Y42834D01*
X403949Y42624D01*
X404266Y42386D01*
X404549Y42120D01*
X404800Y41826D01*
X405018Y41504D01*
X405203Y41155D01*
X405356Y40777D01*
X405476Y40371D01*
X405563Y39937D01*
X403256Y39729D01*
X403214Y39995D01*
X403155Y40243D01*
X403079Y40472D01*
X402986Y40682D01*
X402877Y40874D01*
X402750Y41047D01*
X402607Y41201D01*
X402447Y41336D01*
X402265Y41454D01*
X402059Y41556D01*
X401827Y41642D01*
X401569Y41713D01*
X401287Y41768D01*
X400979Y41807D01*
X400646Y41831D01*
X400287Y41839D01*
X399932Y41828D01*
X399600Y41795D01*
X399294Y41740D01*
X399011Y41664D01*
X398754Y41566D01*
X398521Y41445D01*
X398312Y41303D01*
X398128Y41139D01*
X397967Y40950D01*
X397828Y40732D01*
X397709Y40486D01*
X397613Y40210D01*
X397538Y39906D01*
X397484Y39573D01*
X397452Y39211D01*
X397441Y38821D01*
X397441Y38097D01*
X400422Y38048D01*
X401151Y38013D01*
X401827Y37947D01*
X402452Y37848D01*
X403025Y37717D01*
X403545Y37553D01*
X404014Y37358D01*
X404431Y37130D01*
X404796Y36870D01*
X405114Y36579D01*
X405389Y36258D01*
X405622Y35907D01*
X405813Y35527D01*
X405961Y35116D01*
X406067Y34676D01*
X406130Y34205D01*
X406151Y33705D01*
X406136Y33257D01*
X406089Y32834D01*
X406010Y32435D01*
X405900Y32061D01*
X405758Y31711D01*
X405586Y31386D01*
X405381Y31086D01*
X405145Y30810D01*
X404878Y30562D01*
X404580Y30348D01*
X404251Y30167D01*
X403891Y30018D01*
X403500Y29903D01*
X403078Y29821D01*
X402624Y29771D01*
X402140Y29755D01*
G37*
%LPC*%
G36*
X401637Y31411D02*
X401899Y31420D01*
X402146Y31448D01*
X402377Y31494D01*
X402592Y31558D01*
X402792Y31641D01*
X402977Y31742D01*
X403146Y31862D01*
X403299Y32000D01*
X403436Y32155D01*
X403554Y32325D01*
X403654Y32510D01*
X403736Y32711D01*
X403800Y32927D01*
X403845Y33159D01*
X403873Y33406D01*
X403882Y33668D01*
X403875Y33911D01*
X403855Y34141D01*
X403821Y34360D01*
X403775Y34567D01*
X403714Y34762D01*
X403640Y34945D01*
X403553Y35116D01*
X403452Y35275D01*
X403214Y35562D01*
X402930Y35809D01*
X402598Y36016D01*
X402220Y36183D01*
X402007Y36252D01*
X401771Y36313D01*
X401227Y36410D01*
X400590Y36473D01*
X399858Y36502D01*
X397441Y36551D01*
X397441Y35459D01*
X397450Y35206D01*
X397475Y34954D01*
X397518Y34703D01*
X397578Y34455D01*
X397654Y34208D01*
X397748Y33963D01*
X397859Y33720D01*
X397987Y33478D01*
X398130Y33244D01*
X398285Y33022D01*
X398453Y32814D01*
X398633Y32618D01*
X398825Y32435D01*
X399030Y32265D01*
X399248Y32107D01*
X399478Y31963D01*
X399718Y31834D01*
X399967Y31721D01*
X400224Y31626D01*
X400490Y31549D01*
X400764Y31488D01*
X401046Y31445D01*
X401337Y31419D01*
X401637Y31411D01*
G37*
%LPD*%
G36*
X292282Y24786D02*
X292012Y24794D01*
X291750Y24818D01*
X291495Y24858D01*
X291247Y24913D01*
X291006Y24985D01*
X290772Y25072D01*
X290545Y25176D01*
X290325Y25295D01*
X290111Y25431D01*
X289902Y25583D01*
X289499Y25936D01*
X289114Y26356D01*
X288749Y26841D01*
X288386Y27427D01*
X288009Y28149D01*
X287619Y29007D01*
X287215Y30000D01*
X282112Y43274D01*
X284443Y43274D01*
X287350Y34821D01*
X288209Y32405D01*
X288353Y32865D01*
X288712Y33926D01*
X289264Y35527D01*
X289411Y35938D01*
X292208Y43274D01*
X294564Y43274D01*
X289301Y30061D01*
X289509Y29534D01*
X289663Y29167D01*
X289823Y28824D01*
X289990Y28504D01*
X290164Y28208D01*
X290345Y27936D01*
X290532Y27687D01*
X290726Y27462D01*
X290926Y27261D01*
X291134Y27084D01*
X291348Y26930D01*
X291568Y26800D01*
X291796Y26693D01*
X292030Y26610D01*
X292271Y26551D01*
X292518Y26515D01*
X292773Y26504D01*
X293312Y26522D01*
X293803Y26577D01*
X293803Y24921D01*
X293478Y24862D01*
X293116Y24820D01*
X292717Y24795D01*
X292282Y24786D01*
G37*
G36*
X341594Y24786D02*
X341325Y24794D01*
X341063Y24818D01*
X340807Y24858D01*
X340559Y24913D01*
X340318Y24985D01*
X340084Y25072D01*
X339857Y25176D01*
X339638Y25295D01*
X339424Y25431D01*
X339215Y25583D01*
X338811Y25936D01*
X338426Y26356D01*
X338061Y26841D01*
X337698Y27427D01*
X337322Y28149D01*
X336932Y29007D01*
X336528Y30000D01*
X331424Y43274D01*
X333755Y43274D01*
X336663Y34821D01*
X337521Y32405D01*
X337665Y32865D01*
X338024Y33926D01*
X338576Y35527D01*
X338724Y35938D01*
X341521Y43274D01*
X343876Y43274D01*
X338613Y30061D01*
X338822Y29534D01*
X338975Y29167D01*
X339136Y28824D01*
X339303Y28504D01*
X339477Y28208D01*
X339657Y27936D01*
X339844Y27687D01*
X340038Y27462D01*
X340239Y27261D01*
X340446Y27084D01*
X340660Y26930D01*
X340881Y26800D01*
X341108Y26693D01*
X341342Y26610D01*
X341583Y26551D01*
X341831Y26515D01*
X342085Y26504D01*
X342625Y26522D01*
X343116Y26577D01*
X343116Y24921D01*
X342790Y24862D01*
X342429Y24820D01*
X342030Y24795D01*
X341594Y24786D01*
G37*
G36*
X390907Y24786D02*
X390637Y24794D01*
X390375Y24818D01*
X390120Y24858D01*
X389872Y24913D01*
X389631Y24985D01*
X389397Y25072D01*
X389170Y25176D01*
X388950Y25295D01*
X388736Y25431D01*
X388527Y25583D01*
X388124Y25936D01*
X387739Y26356D01*
X387374Y26841D01*
X387011Y27427D01*
X386634Y28149D01*
X386244Y29007D01*
X385840Y30000D01*
X380737Y43274D01*
X383068Y43274D01*
X385975Y34821D01*
X386834Y32405D01*
X386978Y32865D01*
X387337Y33926D01*
X387889Y35527D01*
X388036Y35938D01*
X390833Y43274D01*
X393189Y43274D01*
X387926Y30061D01*
X388134Y29534D01*
X388288Y29167D01*
X388448Y28824D01*
X388615Y28504D01*
X388789Y28208D01*
X388970Y27936D01*
X389157Y27687D01*
X389351Y27462D01*
X389551Y27261D01*
X389759Y27084D01*
X389973Y26930D01*
X390193Y26800D01*
X390421Y26693D01*
X390655Y26610D01*
X390896Y26551D01*
X391143Y26515D01*
X391398Y26504D01*
X391937Y26522D01*
X392428Y26577D01*
X392428Y24921D01*
X392103Y24862D01*
X391741Y24820D01*
X391342Y24795D01*
X390907Y24786D01*
G37*
G36*
X134926Y784845D02*
X134353Y784863D01*
X133767Y784918D01*
X133167Y785010D01*
X132555Y785138D01*
X132555Y786923D01*
X132950Y786847D01*
X133337Y786793D01*
X133716Y786761D01*
X134087Y786750D01*
X134419Y786761D01*
X134736Y786796D01*
X135039Y786855D01*
X135327Y786936D01*
X135600Y787041D01*
X135859Y787169D01*
X136102Y787321D01*
X136331Y787496D01*
X136547Y787697D01*
X136753Y787927D01*
X136948Y788186D01*
X137132Y788475D01*
X137306Y788792D01*
X137469Y789139D01*
X137621Y789515D01*
X137763Y789920D01*
X137325Y789987D01*
X136898Y790069D01*
X136484Y790168D01*
X136082Y790284D01*
X135692Y790416D01*
X135315Y790564D01*
X134949Y790728D01*
X134596Y790909D01*
X134255Y791106D01*
X133926Y791320D01*
X133609Y791550D01*
X133305Y791796D01*
X133012Y792058D01*
X132732Y792337D01*
X132464Y792632D01*
X132208Y792944D01*
X131966Y793269D01*
X131740Y793605D01*
X131529Y793953D01*
X131334Y794311D01*
X131155Y794680D01*
X130991Y795061D01*
X130842Y795452D01*
X130710Y795855D01*
X130593Y796268D01*
X130491Y796693D01*
X130405Y797128D01*
X130335Y797575D01*
X130280Y798032D01*
X130241Y798501D01*
X130218Y798980D01*
X130210Y799471D01*
X130228Y800198D01*
X130280Y800901D01*
X130367Y801579D01*
X130488Y802232D01*
X130645Y802861D01*
X130836Y803465D01*
X131062Y804045D01*
X131323Y804600D01*
X131616Y805126D01*
X131941Y805621D01*
X132296Y806083D01*
X132683Y806513D01*
X133101Y806911D01*
X133549Y807276D01*
X134029Y807609D01*
X134540Y807910D01*
X135078Y808177D01*
X135639Y808408D01*
X136225Y808604D01*
X136834Y808764D01*
X137467Y808889D01*
X138124Y808978D01*
X138804Y809031D01*
X139508Y809049D01*
X140050Y809039D01*
X140577Y809009D01*
X141089Y808960D01*
X141585Y808890D01*
X142067Y808801D01*
X142534Y808692D01*
X142985Y808563D01*
X143421Y808415D01*
X143842Y808246D01*
X144249Y808058D01*
X144640Y807849D01*
X145016Y807621D01*
X145376Y807374D01*
X145722Y807106D01*
X146053Y806819D01*
X146369Y806511D01*
X146667Y806186D01*
X146946Y805846D01*
X147206Y805491D01*
X147447Y805120D01*
X147668Y804733D01*
X147870Y804332D01*
X148053Y803915D01*
X148217Y803482D01*
X148361Y803035D01*
X148486Y802572D01*
X148592Y802093D01*
X148679Y801600D01*
X148746Y801091D01*
X148794Y800566D01*
X148823Y800026D01*
X148833Y799471D01*
X148817Y798773D01*
X148770Y798095D01*
X148691Y797440D01*
X148581Y796805D01*
X148440Y796192D01*
X148267Y795601D01*
X148063Y795031D01*
X147827Y794482D01*
X147562Y793959D01*
X147268Y793466D01*
X146945Y793002D01*
X146595Y792568D01*
X146216Y792163D01*
X145809Y791788D01*
X145374Y791442D01*
X144910Y791126D01*
X144421Y790841D01*
X143909Y790590D01*
X143374Y790372D01*
X142817Y790188D01*
X142237Y790038D01*
X141634Y789921D01*
X141009Y789837D01*
X140361Y789787D01*
X140147Y789145D01*
X139918Y788550D01*
X139675Y788003D01*
X139417Y787504D01*
X139144Y787052D01*
X138856Y786649D01*
X138553Y786292D01*
X138236Y785984D01*
X137900Y785717D01*
X137542Y785485D01*
X137162Y785290D01*
X136759Y785130D01*
X136334Y785005D01*
X135887Y784916D01*
X135418Y784863D01*
X134926Y784845D01*
G37*
%LPC*%
G36*
X139535Y791798D02*
X139924Y791806D01*
X140303Y791831D01*
X140670Y791871D01*
X141027Y791928D01*
X141373Y792001D01*
X141709Y792090D01*
X142033Y792195D01*
X142347Y792316D01*
X142650Y792454D01*
X142943Y792607D01*
X143224Y792777D01*
X143495Y792963D01*
X143755Y793166D01*
X144004Y793384D01*
X144243Y793619D01*
X144470Y793870D01*
X144686Y794134D01*
X144887Y794410D01*
X145075Y794698D01*
X145248Y794997D01*
X145408Y795307D01*
X145554Y795628D01*
X145686Y795961D01*
X145804Y796306D01*
X145908Y796662D01*
X145999Y797029D01*
X146075Y797407D01*
X146137Y797797D01*
X146186Y798199D01*
X146221Y798611D01*
X146242Y799036D01*
X146249Y799471D01*
X146242Y799910D01*
X146221Y800336D01*
X146187Y800749D01*
X146139Y801150D01*
X146077Y801539D01*
X146001Y801916D01*
X145912Y802280D01*
X145809Y802632D01*
X145692Y802971D01*
X145562Y803298D01*
X145418Y803612D01*
X145260Y803915D01*
X145088Y804204D01*
X144902Y804482D01*
X144703Y804747D01*
X144490Y804999D01*
X144265Y805238D01*
X144028Y805461D01*
X143779Y805669D01*
X143520Y805862D01*
X143248Y806039D01*
X142965Y806201D01*
X142671Y806347D01*
X142366Y806478D01*
X142048Y806593D01*
X141720Y806694D01*
X141380Y806778D01*
X141029Y806848D01*
X140666Y806902D01*
X140291Y806940D01*
X139905Y806963D01*
X139508Y806971D01*
X139114Y806963D01*
X138732Y806940D01*
X138360Y806901D01*
X138000Y806846D01*
X137651Y806776D01*
X137314Y806690D01*
X136988Y806588D01*
X136673Y806471D01*
X136369Y806339D01*
X136077Y806190D01*
X135795Y806026D01*
X135526Y805847D01*
X135267Y805652D01*
X135020Y805441D01*
X134784Y805215D01*
X134560Y804973D01*
X134347Y804717D01*
X134149Y804450D01*
X133964Y804170D01*
X133793Y803880D01*
X133636Y803577D01*
X133492Y803262D01*
X133362Y802936D01*
X133246Y802598D01*
X133143Y802249D01*
X133054Y801887D01*
X132979Y801514D01*
X132917Y801129D01*
X132869Y800732D01*
X132835Y800324D01*
X132815Y799903D01*
X132808Y799471D01*
X132815Y799020D01*
X132835Y798581D01*
X132869Y798156D01*
X132916Y797743D01*
X132978Y797344D01*
X133052Y796957D01*
X133141Y796583D01*
X133242Y796223D01*
X133358Y795875D01*
X133487Y795540D01*
X133629Y795218D01*
X133786Y794909D01*
X133955Y794613D01*
X134139Y794330D01*
X134336Y794060D01*
X134546Y793803D01*
X134769Y793560D01*
X135004Y793333D01*
X135251Y793122D01*
X135510Y792926D01*
X135780Y792746D01*
X136063Y792581D01*
X136357Y792433D01*
X136663Y792300D01*
X136980Y792182D01*
X137310Y792080D01*
X137651Y791994D01*
X138004Y791924D01*
X138369Y791869D01*
X138746Y791830D01*
X139135Y791806D01*
X139535Y791798D01*
G37*
%LPD*%
G36*
X501325Y790000D02*
X494304Y790000D01*
X493635Y790018D01*
X492986Y790072D01*
X492356Y790163D01*
X491747Y790290D01*
X491157Y790453D01*
X490588Y790652D01*
X490038Y790887D01*
X489509Y791159D01*
X489004Y791465D01*
X488529Y791802D01*
X488083Y792171D01*
X487667Y792573D01*
X487281Y793006D01*
X486924Y793471D01*
X486596Y793967D01*
X486299Y794496D01*
X486033Y795052D01*
X485803Y795630D01*
X485609Y796231D01*
X485449Y796855D01*
X485326Y797502D01*
X485237Y798171D01*
X485184Y798863D01*
X485166Y799578D01*
X485176Y800121D01*
X485207Y800649D01*
X485257Y801160D01*
X485328Y801656D01*
X485419Y802136D01*
X485531Y802601D01*
X485662Y803050D01*
X485814Y803482D01*
X485986Y803900D01*
X486178Y804301D01*
X486391Y804687D01*
X486624Y805056D01*
X486877Y805410D01*
X487150Y805749D01*
X487444Y806071D01*
X487757Y806378D01*
X488090Y806668D01*
X488439Y806938D01*
X488805Y807191D01*
X489189Y807424D01*
X489589Y807639D01*
X490007Y807835D01*
X490441Y808013D01*
X490893Y808171D01*
X491361Y808312D01*
X491847Y808433D01*
X492349Y808536D01*
X492869Y808620D01*
X493405Y808685D01*
X493959Y808732D01*
X494529Y808760D01*
X495117Y808769D01*
X501325Y808769D01*
X501325Y790000D01*
G37*
%LPC*%
G36*
X498780Y792038D02*
X498780Y806731D01*
X495170Y806731D01*
X494724Y806724D01*
X494291Y806702D01*
X493872Y806667D01*
X493466Y806617D01*
X493073Y806552D01*
X492694Y806474D01*
X492328Y806380D01*
X491975Y806273D01*
X491636Y806152D01*
X491310Y806016D01*
X490997Y805865D01*
X490698Y805701D01*
X490413Y805522D01*
X490140Y805329D01*
X489881Y805121D01*
X489636Y804899D01*
X489404Y804664D01*
X489187Y804416D01*
X488986Y804154D01*
X488799Y803880D01*
X488627Y803593D01*
X488471Y803293D01*
X488329Y802979D01*
X488202Y802653D01*
X488090Y802314D01*
X487993Y801962D01*
X487911Y801597D01*
X487843Y801219D01*
X487791Y800828D01*
X487754Y800424D01*
X487731Y800008D01*
X487724Y799578D01*
X487737Y799008D01*
X487776Y798457D01*
X487842Y797926D01*
X487934Y797413D01*
X488052Y796920D01*
X488196Y796446D01*
X488366Y795991D01*
X488563Y795555D01*
X488784Y795141D01*
X489028Y794752D01*
X489295Y794388D01*
X489584Y794050D01*
X489896Y793736D01*
X490230Y793447D01*
X490588Y793183D01*
X490968Y792944D01*
X491367Y792732D01*
X491781Y792548D01*
X492212Y792392D01*
X492658Y792265D01*
X493119Y792165D01*
X493596Y792095D01*
X494089Y792052D01*
X494598Y792038D01*
X498780Y792038D01*
G37*
%LPD*%
G36*
X532407Y789734D02*
X531657Y789756D01*
X530952Y789824D01*
X530292Y789938D01*
X529676Y790097D01*
X529106Y790301D01*
X528581Y790550D01*
X528100Y790845D01*
X527665Y791186D01*
X527278Y791566D01*
X526942Y791983D01*
X526658Y792436D01*
X526426Y792924D01*
X526329Y793182D01*
X526245Y793448D01*
X526174Y793724D01*
X526116Y794008D01*
X526071Y794301D01*
X526039Y794604D01*
X526020Y794915D01*
X526013Y795235D01*
X526029Y795688D01*
X526076Y796122D01*
X526154Y796537D01*
X526263Y796932D01*
X526403Y797308D01*
X526575Y797664D01*
X526778Y798001D01*
X527012Y798319D01*
X527063Y798376D01*
X527274Y798612D01*
X527562Y798876D01*
X527874Y799111D01*
X528211Y799316D01*
X528573Y799492D01*
X528960Y799639D01*
X529372Y799756D01*
X529810Y799844D01*
X529810Y799897D01*
X529433Y799988D01*
X529078Y800106D01*
X528742Y800253D01*
X528427Y800427D01*
X528133Y800629D01*
X527886Y800836D01*
X527859Y800859D01*
X527605Y801117D01*
X527372Y801403D01*
X527163Y801709D01*
X526981Y802028D01*
X526828Y802360D01*
X526702Y802705D01*
X526605Y803063D01*
X526535Y803433D01*
X526493Y803817D01*
X526479Y804213D01*
X526486Y804488D01*
X526504Y804755D01*
X526536Y805015D01*
X526580Y805268D01*
X526705Y805753D01*
X526881Y806208D01*
X527106Y806635D01*
X527382Y807033D01*
X527708Y807403D01*
X528084Y807743D01*
X528504Y808049D01*
X528960Y808315D01*
X529452Y808539D01*
X529981Y808723D01*
X530546Y808865D01*
X531148Y808967D01*
X531786Y809029D01*
X532460Y809049D01*
X533119Y809028D01*
X533744Y808966D01*
X534334Y808862D01*
X534890Y808716D01*
X535411Y808529D01*
X535898Y808300D01*
X536351Y808029D01*
X536770Y807717D01*
X537146Y807371D01*
X537472Y807000D01*
X537748Y806603D01*
X537974Y806182D01*
X538149Y805734D01*
X538275Y805262D01*
X538318Y805016D01*
X538350Y804764D01*
X538369Y804505D01*
X538375Y804240D01*
X538361Y803844D01*
X538320Y803460D01*
X538250Y803089D01*
X538153Y802731D01*
X538029Y802387D01*
X537877Y802055D01*
X537697Y801736D01*
X537489Y801429D01*
X537257Y801143D01*
X537006Y800882D01*
X536734Y800648D01*
X536442Y800440D01*
X536129Y800259D01*
X535797Y800103D01*
X535444Y799974D01*
X535071Y799871D01*
X535071Y799818D01*
X535472Y799736D01*
X535854Y799623D01*
X536218Y799479D01*
X536563Y799305D01*
X536890Y799099D01*
X537199Y798863D01*
X537490Y798597D01*
X537762Y798299D01*
X538009Y797977D01*
X538223Y797636D01*
X538403Y797277D01*
X538551Y796900D01*
X538666Y796505D01*
X538749Y796091D01*
X538798Y795659D01*
X538814Y795208D01*
X538808Y794885D01*
X538788Y794571D01*
X538755Y794267D01*
X538708Y793971D01*
X538649Y793685D01*
X538576Y793409D01*
X538489Y793142D01*
X538390Y792884D01*
X538277Y792636D01*
X538151Y792397D01*
X538012Y792167D01*
X537859Y791947D01*
X537514Y791534D01*
X537116Y791159D01*
X536671Y790825D01*
X536185Y790535D01*
X535658Y790290D01*
X535090Y790090D01*
X534480Y789934D01*
X533830Y789823D01*
X533139Y789756D01*
X532407Y789734D01*
G37*
%LPC*%
G36*
X532380Y791532D02*
X532860Y791547D01*
X533308Y791592D01*
X533725Y791668D01*
X534111Y791774D01*
X534467Y791910D01*
X534791Y792077D01*
X535085Y792274D01*
X535348Y792501D01*
X535580Y792758D01*
X535780Y793046D01*
X535950Y793364D01*
X536090Y793712D01*
X536198Y794091D01*
X536275Y794500D01*
X536321Y794939D01*
X536337Y795408D01*
X536321Y795813D01*
X536273Y796196D01*
X536193Y796557D01*
X536080Y796895D01*
X535936Y797211D01*
X535760Y797505D01*
X535551Y797777D01*
X535311Y798026D01*
X535042Y798249D01*
X534748Y798443D01*
X534429Y798606D01*
X534086Y798740D01*
X533717Y798844D01*
X533323Y798919D01*
X532904Y798963D01*
X532460Y798978D01*
X532004Y798964D01*
X531574Y798923D01*
X531170Y798854D01*
X530792Y798757D01*
X530440Y798632D01*
X530115Y798480D01*
X529816Y798300D01*
X529543Y798092D01*
X529300Y797858D01*
X529089Y797596D01*
X528910Y797307D01*
X528764Y796992D01*
X528650Y796650D01*
X528569Y796280D01*
X528520Y795884D01*
X528504Y795462D01*
X528519Y794966D01*
X528564Y794505D01*
X528639Y794079D01*
X528744Y793688D01*
X528879Y793332D01*
X529044Y793010D01*
X529238Y792723D01*
X529463Y792471D01*
X529719Y792251D01*
X530005Y792060D01*
X530323Y791899D01*
X530672Y791767D01*
X531052Y791664D01*
X531464Y791591D01*
X531907Y791547D01*
X532380Y791532D01*
G37*
G36*
X532434Y800777D02*
X532838Y800790D01*
X533219Y800829D01*
X533577Y800896D01*
X533911Y800988D01*
X534221Y801107D01*
X534508Y801252D01*
X534771Y801424D01*
X535011Y801623D01*
X535225Y801846D01*
X535411Y802093D01*
X535567Y802365D01*
X535696Y802660D01*
X535796Y802979D01*
X535867Y803322D01*
X535910Y803689D01*
X535924Y804080D01*
X535910Y804464D01*
X535868Y804824D01*
X535799Y805159D01*
X535702Y805469D01*
X535578Y805755D01*
X535426Y806016D01*
X535246Y806253D01*
X535038Y806465D01*
X534804Y806652D01*
X534545Y806814D01*
X534260Y806952D01*
X533951Y807064D01*
X533616Y807152D01*
X533256Y807214D01*
X532871Y807251D01*
X532460Y807264D01*
X532038Y807251D01*
X531642Y807214D01*
X531274Y807152D01*
X530933Y807065D01*
X530620Y806953D01*
X530334Y806816D01*
X530075Y806655D01*
X529843Y806468D01*
X529638Y806257D01*
X529461Y806020D01*
X529311Y805759D01*
X529188Y805473D01*
X529093Y805162D01*
X529025Y804826D01*
X528984Y804466D01*
X528970Y804080D01*
X528984Y803659D01*
X529026Y803268D01*
X529095Y802907D01*
X529192Y802577D01*
X529316Y802276D01*
X529469Y802006D01*
X529649Y801766D01*
X529856Y801556D01*
X530090Y801373D01*
X530349Y801215D01*
X530634Y801081D01*
X530943Y800971D01*
X531278Y800886D01*
X531638Y800825D01*
X532023Y800789D01*
X532434Y800777D01*
G37*
%LPD*%
G36*
X240025Y789734D02*
X239699Y789741D01*
X239383Y789763D01*
X239077Y789800D01*
X238782Y789851D01*
X238497Y789918D01*
X238223Y789999D01*
X237959Y790094D01*
X237705Y790205D01*
X237462Y790330D01*
X237229Y790470D01*
X237006Y790624D01*
X236794Y790794D01*
X236592Y790978D01*
X236401Y791177D01*
X236219Y791390D01*
X236049Y791618D01*
X235888Y791861D01*
X235738Y792119D01*
X235598Y792392D01*
X235469Y792679D01*
X235241Y793297D01*
X235054Y793975D01*
X234909Y794711D01*
X234806Y795506D01*
X234744Y796360D01*
X234723Y797273D01*
X234743Y798176D01*
X234803Y799020D01*
X234904Y799805D01*
X235044Y800530D01*
X235225Y801197D01*
X235446Y801804D01*
X235707Y802352D01*
X235853Y802604D01*
X236009Y802841D01*
X236175Y803064D01*
X236353Y803272D01*
X236541Y803466D01*
X236742Y803646D01*
X236953Y803811D01*
X237176Y803962D01*
X237410Y804098D01*
X237655Y804220D01*
X237912Y804328D01*
X238180Y804421D01*
X238459Y804500D01*
X238750Y804565D01*
X239052Y804615D01*
X239365Y804651D01*
X239689Y804672D01*
X240025Y804680D01*
X240423Y804670D01*
X240805Y804642D01*
X241170Y804595D01*
X241518Y804530D01*
X241851Y804446D01*
X242167Y804342D01*
X242466Y804221D01*
X242749Y804080D01*
X243017Y803918D01*
X243271Y803731D01*
X243512Y803520D01*
X243740Y803284D01*
X243954Y803024D01*
X244154Y802739D01*
X244341Y802429D01*
X244514Y802095D01*
X244567Y802095D01*
X244527Y803191D01*
X244514Y804133D01*
X244514Y809768D01*
X246912Y809768D01*
X246912Y792971D01*
X246917Y791941D01*
X246932Y791102D01*
X246957Y790455D01*
X246992Y790000D01*
X244674Y790000D01*
X244641Y790311D01*
X244594Y790979D01*
X244554Y791717D01*
X244541Y792238D01*
X244514Y792238D01*
X244338Y791920D01*
X244149Y791624D01*
X243947Y791351D01*
X243733Y791101D01*
X243506Y790873D01*
X243266Y790668D01*
X243014Y790486D01*
X242749Y790326D01*
X242469Y790187D01*
X242172Y790067D01*
X241857Y789965D01*
X241525Y789882D01*
X241176Y789817D01*
X240810Y789771D01*
X240426Y789743D01*
X240025Y789734D01*
G37*
%LPC*%
G36*
X240664Y791505D02*
X241156Y791526D01*
X241613Y791590D01*
X242034Y791695D01*
X242419Y791843D01*
X242770Y792033D01*
X243084Y792266D01*
X243364Y792540D01*
X243608Y792857D01*
X243820Y793219D01*
X244004Y793626D01*
X244160Y794080D01*
X244288Y794581D01*
X244387Y795128D01*
X244457Y795721D01*
X244500Y796361D01*
X244514Y797047D01*
X244500Y797774D01*
X244456Y798450D01*
X244384Y799076D01*
X244283Y799651D01*
X244152Y800175D01*
X243993Y800648D01*
X243805Y801071D01*
X243588Y801443D01*
X243340Y801767D01*
X243057Y802049D01*
X242739Y802287D01*
X242388Y802482D01*
X242002Y802633D01*
X241581Y802741D01*
X241127Y802806D01*
X240638Y802828D01*
X240204Y802808D01*
X239801Y802746D01*
X239429Y802644D01*
X239089Y802502D01*
X238780Y802318D01*
X238502Y802094D01*
X238255Y801829D01*
X238040Y801523D01*
X237853Y801169D01*
X237690Y800762D01*
X237553Y800302D01*
X237441Y799788D01*
X237353Y799220D01*
X237291Y798598D01*
X237253Y797922D01*
X237241Y797193D01*
X237253Y796467D01*
X237291Y795793D01*
X237354Y795170D01*
X237442Y794601D01*
X237556Y794083D01*
X237694Y793618D01*
X237858Y793205D01*
X238047Y792844D01*
X238264Y792530D01*
X238512Y792258D01*
X238793Y792028D01*
X239104Y791840D01*
X239447Y791694D01*
X239821Y791589D01*
X240227Y791526D01*
X240664Y791505D01*
G37*
%LPD*%
G36*
X110012Y790000D02*
X107468Y790000D01*
X107468Y797313D01*
X101953Y797313D01*
X101585Y797319D01*
X101226Y797338D01*
X100878Y797368D01*
X100539Y797411D01*
X100210Y797467D01*
X99890Y797534D01*
X99580Y797614D01*
X99280Y797706D01*
X98710Y797927D01*
X98178Y798197D01*
X97685Y798517D01*
X97231Y798885D01*
X96823Y799295D01*
X96470Y799739D01*
X96171Y800218D01*
X96042Y800470D01*
X95927Y800730D01*
X95825Y800999D01*
X95737Y801277D01*
X95662Y801563D01*
X95601Y801857D01*
X95553Y802160D01*
X95519Y802472D01*
X95499Y802792D01*
X95492Y803121D01*
X95499Y803453D01*
X95519Y803775D01*
X95553Y804088D01*
X95601Y804391D01*
X95661Y804684D01*
X95736Y804969D01*
X95824Y805244D01*
X95925Y805509D01*
X96040Y805765D01*
X96169Y806011D01*
X96311Y806248D01*
X96466Y806475D01*
X96818Y806902D01*
X97224Y807291D01*
X97679Y807637D01*
X98179Y807937D01*
X98723Y808192D01*
X99312Y808400D01*
X99945Y808561D01*
X100623Y808677D01*
X101346Y808746D01*
X102113Y808769D01*
X110012Y808769D01*
X110012Y790000D01*
G37*
%LPC*%
G36*
X107468Y799325D02*
X107468Y806731D01*
X102419Y806731D01*
X101890Y806717D01*
X101395Y806674D01*
X100934Y806603D01*
X100508Y806504D01*
X100115Y806376D01*
X99757Y806220D01*
X99432Y806035D01*
X99142Y805822D01*
X98886Y805580D01*
X98664Y805311D01*
X98477Y805012D01*
X98323Y804685D01*
X98204Y804330D01*
X98118Y803947D01*
X98067Y803535D01*
X98050Y803094D01*
X98067Y802638D01*
X98117Y802211D01*
X98200Y801813D01*
X98316Y801445D01*
X98466Y801106D01*
X98649Y800797D01*
X98866Y800517D01*
X99116Y800267D01*
X99399Y800046D01*
X99715Y799855D01*
X100065Y799693D01*
X100448Y799560D01*
X100864Y799457D01*
X101314Y799384D01*
X101796Y799339D01*
X102313Y799325D01*
X107468Y799325D01*
G37*
%LPD*%
G36*
X304942Y789734D02*
X304552Y789741D01*
X304173Y789763D01*
X303806Y789799D01*
X303451Y789849D01*
X303108Y789914D01*
X302776Y789994D01*
X302456Y790088D01*
X302148Y790196D01*
X301852Y790319D01*
X301567Y790457D01*
X301295Y790609D01*
X301034Y790775D01*
X300784Y790956D01*
X300547Y791151D01*
X300321Y791361D01*
X300107Y791585D01*
X299905Y791824D01*
X299717Y792078D01*
X299541Y792347D01*
X299378Y792632D01*
X299229Y792931D01*
X299092Y793246D01*
X298969Y793575D01*
X298858Y793920D01*
X298761Y794279D01*
X298676Y794654D01*
X298604Y795044D01*
X298546Y795449D01*
X298500Y795869D01*
X298468Y796304D01*
X298448Y796755D01*
X298442Y797220D01*
X298448Y797690D01*
X298466Y798144D01*
X298497Y798583D01*
X298539Y799006D01*
X298594Y799414D01*
X298661Y799805D01*
X298740Y800181D01*
X298831Y800542D01*
X298935Y800887D01*
X299051Y801216D01*
X299179Y801529D01*
X299319Y801827D01*
X299471Y802109D01*
X299635Y802375D01*
X299812Y802626D01*
X300000Y802861D01*
X300202Y803082D01*
X300417Y803288D01*
X300646Y803479D01*
X300889Y803657D01*
X301145Y803820D01*
X301415Y803969D01*
X301698Y804104D01*
X301995Y804225D01*
X302306Y804332D01*
X302630Y804424D01*
X302968Y804502D01*
X303320Y804566D01*
X303685Y804616D01*
X304064Y804651D01*
X304456Y804673D01*
X304863Y804680D01*
X305260Y804672D01*
X305645Y804651D01*
X306017Y804614D01*
X306377Y804563D01*
X306724Y804498D01*
X307058Y804417D01*
X307380Y804323D01*
X307689Y804213D01*
X307986Y804090D01*
X308270Y803951D01*
X308541Y803798D01*
X308799Y803631D01*
X309046Y803449D01*
X309279Y803252D01*
X309500Y803041D01*
X309708Y802815D01*
X309904Y802574D01*
X310087Y802319D01*
X310257Y802050D01*
X310415Y801766D01*
X310560Y801467D01*
X310692Y801154D01*
X310812Y800826D01*
X310919Y800484D01*
X311014Y800127D01*
X311096Y799755D01*
X311165Y799369D01*
X311222Y798968D01*
X311266Y798553D01*
X311298Y798123D01*
X311317Y797679D01*
X311323Y797220D01*
X311317Y796772D01*
X311298Y796338D01*
X311267Y795916D01*
X311222Y795509D01*
X311166Y795114D01*
X311097Y794733D01*
X311015Y794366D01*
X310920Y794011D01*
X310813Y793670D01*
X310694Y793343D01*
X310561Y793029D01*
X310417Y792728D01*
X310259Y792440D01*
X310089Y792166D01*
X309907Y791906D01*
X309711Y791658D01*
X309504Y791425D01*
X309284Y791207D01*
X309053Y791004D01*
X308809Y790816D01*
X308553Y790643D01*
X308285Y790485D01*
X308005Y790343D01*
X307713Y790215D01*
X307409Y790102D01*
X307093Y790004D01*
X306765Y789922D01*
X306424Y789854D01*
X306072Y789801D01*
X305708Y789764D01*
X305331Y789741D01*
X304942Y789734D01*
G37*
%LPC*%
G36*
X304969Y791505D02*
X305449Y791528D01*
X305895Y791595D01*
X306309Y791707D01*
X306689Y791863D01*
X307036Y792065D01*
X307351Y792311D01*
X307632Y792602D01*
X307880Y792937D01*
X308097Y793317D01*
X308285Y793742D01*
X308444Y794211D01*
X308574Y794724D01*
X308675Y795281D01*
X308748Y795883D01*
X308791Y796529D01*
X308806Y797220D01*
X308791Y797928D01*
X308747Y798588D01*
X308673Y799200D01*
X308571Y799763D01*
X308439Y800277D01*
X308277Y800743D01*
X308087Y801160D01*
X307866Y801529D01*
X307613Y801852D01*
X307324Y802132D01*
X306998Y802369D01*
X306636Y802563D01*
X306237Y802714D01*
X305802Y802822D01*
X305331Y802886D01*
X304823Y802908D01*
X304319Y802887D01*
X303852Y802823D01*
X303424Y802718D01*
X303033Y802570D01*
X302679Y802380D01*
X302364Y802147D01*
X302086Y801873D01*
X301845Y801556D01*
X301638Y801192D01*
X301458Y800778D01*
X301306Y800312D01*
X301181Y799796D01*
X301084Y799228D01*
X301015Y798610D01*
X300973Y797940D01*
X300960Y797220D01*
X300974Y796508D01*
X301017Y795845D01*
X301090Y795231D01*
X301191Y794666D01*
X301321Y794149D01*
X301480Y793681D01*
X301668Y793261D01*
X301885Y792891D01*
X302136Y792566D01*
X302425Y792285D01*
X302753Y792046D01*
X303119Y791852D01*
X303524Y791700D01*
X303967Y791592D01*
X304449Y791527D01*
X304969Y791505D01*
G37*
%LPD*%
G36*
X352005Y789734D02*
X351615Y789741D01*
X351236Y789763D01*
X350869Y789799D01*
X350514Y789849D01*
X350170Y789914D01*
X349839Y789994D01*
X349519Y790088D01*
X349211Y790196D01*
X348915Y790319D01*
X348630Y790457D01*
X348357Y790609D01*
X348096Y790775D01*
X347847Y790956D01*
X347609Y791151D01*
X347383Y791361D01*
X347169Y791585D01*
X346968Y791824D01*
X346779Y792078D01*
X346604Y792347D01*
X346441Y792632D01*
X346291Y792931D01*
X346155Y793246D01*
X346031Y793575D01*
X345921Y793920D01*
X345823Y794279D01*
X345739Y794654D01*
X345667Y795044D01*
X345608Y795449D01*
X345563Y795869D01*
X345530Y796304D01*
X345511Y796755D01*
X345504Y797220D01*
X345510Y797690D01*
X345529Y798144D01*
X345559Y798583D01*
X345602Y799006D01*
X345657Y799414D01*
X345724Y799805D01*
X345803Y800181D01*
X345894Y800542D01*
X345997Y800887D01*
X346113Y801216D01*
X346241Y801529D01*
X346381Y801827D01*
X346533Y802109D01*
X346698Y802375D01*
X346874Y802626D01*
X347063Y802861D01*
X347265Y803082D01*
X347480Y803288D01*
X347709Y803479D01*
X347951Y803657D01*
X348207Y803820D01*
X348477Y803969D01*
X348761Y804104D01*
X349058Y804225D01*
X349368Y804332D01*
X349693Y804424D01*
X350031Y804502D01*
X350382Y804566D01*
X350748Y804616D01*
X351126Y804651D01*
X351519Y804673D01*
X351925Y804680D01*
X352323Y804672D01*
X352707Y804651D01*
X353080Y804614D01*
X353439Y804563D01*
X353786Y804498D01*
X354121Y804417D01*
X354442Y804323D01*
X354752Y804213D01*
X355048Y804090D01*
X355332Y803951D01*
X355603Y803798D01*
X355862Y803631D01*
X356108Y803449D01*
X356341Y803252D01*
X356562Y803041D01*
X356771Y802815D01*
X356966Y802574D01*
X357149Y802319D01*
X357319Y802050D01*
X357477Y801766D01*
X357622Y801467D01*
X357755Y801154D01*
X357875Y800826D01*
X357982Y800484D01*
X358077Y800127D01*
X358159Y799755D01*
X358228Y799369D01*
X358285Y798968D01*
X358329Y798553D01*
X358360Y798123D01*
X358379Y797679D01*
X358386Y797220D01*
X358379Y796772D01*
X358360Y796338D01*
X358329Y795916D01*
X358285Y795509D01*
X358228Y795114D01*
X358159Y794733D01*
X358077Y794366D01*
X357983Y794011D01*
X357876Y793670D01*
X357756Y793343D01*
X357624Y793029D01*
X357479Y792728D01*
X357322Y792440D01*
X357152Y792166D01*
X356969Y791906D01*
X356774Y791658D01*
X356566Y791425D01*
X356347Y791207D01*
X356115Y791004D01*
X355871Y790816D01*
X355616Y790643D01*
X355348Y790485D01*
X355068Y790343D01*
X354776Y790215D01*
X354472Y790102D01*
X354155Y790004D01*
X353827Y789922D01*
X353487Y789854D01*
X353135Y789801D01*
X352770Y789764D01*
X352394Y789741D01*
X352005Y789734D01*
G37*
%LPC*%
G36*
X352032Y791505D02*
X352511Y791528D01*
X352958Y791595D01*
X353371Y791707D01*
X353752Y791863D01*
X354099Y792065D01*
X354413Y792311D01*
X354694Y792602D01*
X354942Y792937D01*
X355159Y793317D01*
X355347Y793742D01*
X355506Y794211D01*
X355637Y794724D01*
X355738Y795281D01*
X355810Y795883D01*
X355854Y796529D01*
X355868Y797220D01*
X355853Y797928D01*
X355809Y798588D01*
X355736Y799200D01*
X355633Y799763D01*
X355501Y800277D01*
X355340Y800743D01*
X355149Y801160D01*
X354929Y801529D01*
X354676Y801852D01*
X354386Y802132D01*
X354061Y802369D01*
X353698Y802563D01*
X353300Y802714D01*
X352865Y802822D01*
X352393Y802886D01*
X351885Y802908D01*
X351381Y802887D01*
X350915Y802823D01*
X350486Y802718D01*
X350095Y802570D01*
X349742Y802380D01*
X349426Y802147D01*
X349148Y801873D01*
X348908Y801556D01*
X348700Y801192D01*
X348520Y800778D01*
X348368Y800312D01*
X348243Y799796D01*
X348147Y799228D01*
X348077Y798610D01*
X348036Y797940D01*
X348022Y797220D01*
X348036Y796508D01*
X348080Y795845D01*
X348152Y795231D01*
X348253Y794666D01*
X348384Y794149D01*
X348543Y793681D01*
X348731Y793261D01*
X348948Y792891D01*
X349199Y792566D01*
X349488Y792285D01*
X349815Y792046D01*
X350182Y791852D01*
X350586Y791700D01*
X351030Y791592D01*
X351511Y791527D01*
X352032Y791505D01*
G37*
%LPD*%
G36*
X403567Y789734D02*
X403177Y789741D01*
X402798Y789763D01*
X402431Y789799D01*
X402076Y789849D01*
X401733Y789914D01*
X401401Y789994D01*
X401081Y790088D01*
X400773Y790196D01*
X400477Y790319D01*
X400192Y790457D01*
X399920Y790609D01*
X399659Y790775D01*
X399409Y790956D01*
X399172Y791151D01*
X398946Y791361D01*
X398732Y791585D01*
X398530Y791824D01*
X398342Y792078D01*
X398166Y792347D01*
X398003Y792632D01*
X397854Y792931D01*
X397717Y793246D01*
X397594Y793575D01*
X397483Y793920D01*
X397386Y794279D01*
X397301Y794654D01*
X397229Y795044D01*
X397171Y795449D01*
X397125Y795869D01*
X397093Y796304D01*
X397073Y796755D01*
X397067Y797220D01*
X397073Y797690D01*
X397091Y798144D01*
X397122Y798583D01*
X397164Y799006D01*
X397219Y799414D01*
X397286Y799805D01*
X397365Y800181D01*
X397456Y800542D01*
X397560Y800887D01*
X397676Y801216D01*
X397804Y801529D01*
X397944Y801827D01*
X398096Y802109D01*
X398260Y802375D01*
X398437Y802626D01*
X398625Y802861D01*
X398827Y803082D01*
X399042Y803288D01*
X399271Y803479D01*
X399514Y803657D01*
X399770Y803820D01*
X400040Y803969D01*
X400323Y804104D01*
X400620Y804225D01*
X400931Y804332D01*
X401255Y804424D01*
X401593Y804502D01*
X401945Y804566D01*
X402310Y804616D01*
X402689Y804651D01*
X403081Y804673D01*
X403488Y804680D01*
X403885Y804672D01*
X404270Y804651D01*
X404642Y804614D01*
X405002Y804563D01*
X405349Y804498D01*
X405683Y804417D01*
X406005Y804323D01*
X406314Y804213D01*
X406611Y804090D01*
X406895Y803951D01*
X407166Y803798D01*
X407424Y803631D01*
X407671Y803449D01*
X407904Y803252D01*
X408125Y803041D01*
X408333Y802815D01*
X408529Y802574D01*
X408712Y802319D01*
X408882Y802050D01*
X409040Y801766D01*
X409185Y801467D01*
X409317Y801154D01*
X409437Y800826D01*
X409544Y800484D01*
X409639Y800127D01*
X409721Y799755D01*
X409790Y799369D01*
X409847Y798968D01*
X409891Y798553D01*
X409923Y798123D01*
X409942Y797679D01*
X409948Y797220D01*
X409942Y796772D01*
X409923Y796338D01*
X409892Y795916D01*
X409847Y795509D01*
X409791Y795114D01*
X409722Y794733D01*
X409640Y794366D01*
X409545Y794011D01*
X409438Y793670D01*
X409319Y793343D01*
X409186Y793029D01*
X409042Y792728D01*
X408884Y792440D01*
X408714Y792166D01*
X408532Y791906D01*
X408336Y791658D01*
X408129Y791425D01*
X407909Y791207D01*
X407678Y791004D01*
X407434Y790816D01*
X407178Y790643D01*
X406910Y790485D01*
X406630Y790343D01*
X406338Y790215D01*
X406034Y790102D01*
X405718Y790004D01*
X405390Y789922D01*
X405049Y789854D01*
X404697Y789801D01*
X404333Y789764D01*
X403956Y789741D01*
X403567Y789734D01*
G37*
%LPC*%
G36*
X403594Y791505D02*
X404074Y791528D01*
X404520Y791595D01*
X404934Y791707D01*
X405314Y791863D01*
X405661Y792065D01*
X405976Y792311D01*
X406257Y792602D01*
X406505Y792937D01*
X406722Y793317D01*
X406910Y793742D01*
X407069Y794211D01*
X407199Y794724D01*
X407300Y795281D01*
X407373Y795883D01*
X407416Y796529D01*
X407431Y797220D01*
X407416Y797928D01*
X407372Y798588D01*
X407298Y799200D01*
X407196Y799763D01*
X407064Y800277D01*
X406902Y800743D01*
X406712Y801160D01*
X406491Y801529D01*
X406238Y801852D01*
X405949Y802132D01*
X405623Y802369D01*
X405261Y802563D01*
X404862Y802714D01*
X404427Y802822D01*
X403956Y802886D01*
X403448Y802908D01*
X402944Y802887D01*
X402477Y802823D01*
X402049Y802718D01*
X401658Y802570D01*
X401304Y802380D01*
X400989Y802147D01*
X400711Y801873D01*
X400470Y801556D01*
X400263Y801192D01*
X400083Y800778D01*
X399931Y800312D01*
X399806Y799796D01*
X399709Y799228D01*
X399640Y798610D01*
X399598Y797940D01*
X399585Y797220D01*
X399599Y796508D01*
X399642Y795845D01*
X399715Y795231D01*
X399816Y794666D01*
X399946Y794149D01*
X400105Y793681D01*
X400293Y793261D01*
X400510Y792891D01*
X400761Y792566D01*
X401050Y792285D01*
X401378Y792046D01*
X401744Y791852D01*
X402149Y791700D01*
X402592Y791592D01*
X403074Y791527D01*
X403594Y791505D01*
G37*
%LPD*%
G36*
X426349Y789734D02*
X425958Y789741D01*
X425580Y789763D01*
X425213Y789799D01*
X424858Y789849D01*
X424514Y789914D01*
X424183Y789994D01*
X423863Y790088D01*
X423555Y790196D01*
X423258Y790319D01*
X422974Y790457D01*
X422701Y790609D01*
X422440Y790775D01*
X422191Y790956D01*
X421953Y791151D01*
X421727Y791361D01*
X421513Y791585D01*
X421312Y791824D01*
X421123Y792078D01*
X420947Y792347D01*
X420785Y792632D01*
X420635Y792931D01*
X420499Y793246D01*
X420375Y793575D01*
X420264Y793920D01*
X420167Y794279D01*
X420082Y794654D01*
X420011Y795044D01*
X419952Y795449D01*
X419907Y795869D01*
X419874Y796304D01*
X419855Y796755D01*
X419848Y797220D01*
X419854Y797690D01*
X419872Y798144D01*
X419903Y798583D01*
X419946Y799006D01*
X420000Y799414D01*
X420067Y799805D01*
X420146Y800181D01*
X420238Y800542D01*
X420341Y800887D01*
X420457Y801216D01*
X420585Y801529D01*
X420725Y801827D01*
X420877Y802109D01*
X421041Y802375D01*
X421218Y802626D01*
X421407Y802861D01*
X421608Y803082D01*
X421824Y803288D01*
X422052Y803479D01*
X422295Y803657D01*
X422551Y803820D01*
X422821Y803969D01*
X423104Y804104D01*
X423401Y804225D01*
X423712Y804332D01*
X424036Y804424D01*
X424374Y804502D01*
X424726Y804566D01*
X425091Y804616D01*
X425470Y804651D01*
X425863Y804673D01*
X426269Y804680D01*
X426666Y804672D01*
X427051Y804651D01*
X427423Y804614D01*
X427783Y804563D01*
X428130Y804498D01*
X428464Y804417D01*
X428786Y804323D01*
X429095Y804213D01*
X429392Y804090D01*
X429676Y803951D01*
X429947Y803798D01*
X430206Y803631D01*
X430452Y803449D01*
X430685Y803252D01*
X430906Y803041D01*
X431114Y802815D01*
X431310Y802574D01*
X431493Y802319D01*
X431663Y802050D01*
X431821Y801766D01*
X431966Y801467D01*
X432099Y801154D01*
X432218Y800826D01*
X432326Y800484D01*
X432420Y800127D01*
X432502Y799755D01*
X432572Y799369D01*
X432628Y798968D01*
X432673Y798553D01*
X432704Y798123D01*
X432723Y797679D01*
X432729Y797220D01*
X432723Y796772D01*
X432704Y796338D01*
X432673Y795916D01*
X432629Y795509D01*
X432572Y795114D01*
X432503Y794733D01*
X432421Y794366D01*
X432326Y794011D01*
X432219Y793670D01*
X432100Y793343D01*
X431968Y793029D01*
X431823Y792728D01*
X431665Y792440D01*
X431495Y792166D01*
X431313Y791906D01*
X431118Y791658D01*
X430910Y791425D01*
X430690Y791207D01*
X430459Y791004D01*
X430215Y790816D01*
X429959Y790643D01*
X429691Y790485D01*
X429411Y790343D01*
X429119Y790215D01*
X428815Y790102D01*
X428499Y790004D01*
X428171Y789922D01*
X427831Y789854D01*
X427478Y789801D01*
X427114Y789764D01*
X426737Y789741D01*
X426349Y789734D01*
G37*
%LPC*%
G36*
X426375Y791505D02*
X426855Y791528D01*
X427302Y791595D01*
X427715Y791707D01*
X428095Y791863D01*
X428443Y792065D01*
X428757Y792311D01*
X429038Y792602D01*
X429286Y792937D01*
X429503Y793317D01*
X429691Y793742D01*
X429850Y794211D01*
X429980Y794724D01*
X430082Y795281D01*
X430154Y795883D01*
X430197Y796529D01*
X430212Y797220D01*
X430197Y797928D01*
X430153Y798588D01*
X430080Y799200D01*
X429977Y799763D01*
X429845Y800277D01*
X429684Y800743D01*
X429493Y801160D01*
X429273Y801529D01*
X429020Y801852D01*
X428730Y802132D01*
X428404Y802369D01*
X428042Y802563D01*
X427643Y802714D01*
X427208Y802822D01*
X426737Y802886D01*
X426229Y802908D01*
X425725Y802887D01*
X425258Y802823D01*
X424830Y802718D01*
X424439Y802570D01*
X424086Y802380D01*
X423770Y802147D01*
X423492Y801873D01*
X423252Y801556D01*
X423044Y801192D01*
X422864Y800778D01*
X422712Y800312D01*
X422587Y799796D01*
X422490Y799228D01*
X422421Y798610D01*
X422380Y797940D01*
X422366Y797220D01*
X422380Y796508D01*
X422424Y795845D01*
X422496Y795231D01*
X422597Y794666D01*
X422727Y794149D01*
X422887Y793681D01*
X423075Y793261D01*
X423292Y792891D01*
X423542Y792566D01*
X423831Y792285D01*
X424159Y792046D01*
X424525Y791852D01*
X424930Y791700D01*
X425373Y791592D01*
X425855Y791527D01*
X426375Y791505D01*
G37*
%LPD*%
G36*
X207772Y790000D02*
X205481Y790000D01*
X205481Y808769D01*
X208745Y808769D01*
X213647Y795755D01*
X213822Y795273D01*
X214106Y794389D01*
X214388Y793442D01*
X214553Y792771D01*
X214674Y793295D01*
X214879Y794070D01*
X215131Y794940D01*
X215392Y795755D01*
X220387Y808769D01*
X223731Y808769D01*
X223731Y790000D01*
X221466Y790000D01*
X221466Y802522D01*
X221520Y805039D01*
X221560Y806518D01*
X221120Y805053D01*
X220374Y802788D01*
X215459Y790000D01*
X213674Y790000D01*
X208825Y802788D01*
X208557Y803526D01*
X208272Y804393D01*
X207971Y805391D01*
X207653Y806518D01*
X207705Y805549D01*
X207742Y804560D01*
X207765Y803551D01*
X207772Y802522D01*
X207772Y790000D01*
G37*
G36*
X438397Y790000D02*
X436106Y790000D01*
X436106Y808769D01*
X439370Y808769D01*
X444272Y795755D01*
X444447Y795273D01*
X444731Y794389D01*
X445013Y793442D01*
X445178Y792771D01*
X445299Y793295D01*
X445504Y794070D01*
X445756Y794940D01*
X446017Y795755D01*
X451012Y808769D01*
X454356Y808769D01*
X454356Y790000D01*
X452091Y790000D01*
X452091Y802522D01*
X452145Y805039D01*
X452185Y806518D01*
X451745Y805053D01*
X450999Y802788D01*
X446084Y790000D01*
X444299Y790000D01*
X439450Y802788D01*
X439182Y803526D01*
X438897Y804393D01*
X438596Y805391D01*
X438278Y806518D01*
X438330Y805549D01*
X438367Y804560D01*
X438390Y803551D01*
X438397Y802522D01*
X438397Y790000D01*
G37*
G36*
X268692Y790000D02*
X266148Y790000D01*
X266148Y808769D01*
X268692Y808769D01*
X268692Y800830D01*
X278843Y800830D01*
X278843Y808769D01*
X281387Y808769D01*
X281387Y790000D01*
X278843Y790000D01*
X278843Y798699D01*
X268692Y798699D01*
X268692Y790000D01*
G37*
G36*
X368682Y789734D02*
X368000Y789753D01*
X367339Y789813D01*
X366698Y789912D01*
X366079Y790050D01*
X365481Y790228D01*
X364904Y790445D01*
X364348Y790702D01*
X363813Y790999D01*
X363303Y791334D01*
X362823Y791704D01*
X362372Y792111D01*
X361950Y792554D01*
X361557Y793034D01*
X361194Y793549D01*
X360861Y794101D01*
X360556Y794689D01*
X362634Y795728D01*
X362890Y795255D01*
X363161Y794813D01*
X363447Y794402D01*
X363749Y794020D01*
X364066Y793670D01*
X364398Y793350D01*
X364746Y793060D01*
X365109Y792801D01*
X365487Y792572D01*
X365880Y792374D01*
X366289Y792206D01*
X366713Y792069D01*
X367152Y791962D01*
X367607Y791886D01*
X368077Y791840D01*
X368562Y791825D01*
X368942Y791833D01*
X369311Y791858D01*
X369671Y791899D01*
X370021Y791956D01*
X370361Y792030D01*
X370691Y792120D01*
X371011Y792227D01*
X371321Y792349D01*
X371621Y792489D01*
X371912Y792645D01*
X372192Y792817D01*
X372462Y793005D01*
X372723Y793210D01*
X372973Y793431D01*
X373214Y793669D01*
X373444Y793923D01*
X373663Y794191D01*
X373867Y794469D01*
X374058Y794757D01*
X374234Y795057D01*
X374396Y795366D01*
X374544Y795687D01*
X374678Y796018D01*
X374798Y796359D01*
X374904Y796711D01*
X374995Y797074D01*
X375073Y797447D01*
X375136Y797831D01*
X375186Y798225D01*
X375221Y798630D01*
X375242Y799045D01*
X375249Y799471D01*
X375242Y799902D01*
X375222Y800320D01*
X375188Y800728D01*
X375141Y801123D01*
X375080Y801507D01*
X375006Y801880D01*
X374918Y802241D01*
X374816Y802590D01*
X374701Y802928D01*
X374573Y803254D01*
X374431Y803568D01*
X374275Y803871D01*
X374106Y804162D01*
X373923Y804442D01*
X373727Y804710D01*
X373517Y804966D01*
X373296Y805209D01*
X373063Y805436D01*
X372819Y805647D01*
X372565Y805843D01*
X372300Y806023D01*
X372024Y806188D01*
X371737Y806337D01*
X371439Y806470D01*
X371131Y806587D01*
X370812Y806689D01*
X370482Y806775D01*
X370141Y806846D01*
X369789Y806900D01*
X369426Y806940D01*
X369053Y806963D01*
X368669Y806971D01*
X368181Y806957D01*
X367710Y806917D01*
X367256Y806849D01*
X366819Y806754D01*
X366398Y806633D01*
X365995Y806484D01*
X365608Y806308D01*
X365238Y806105D01*
X364890Y805876D01*
X364565Y805624D01*
X364266Y805347D01*
X363991Y805046D01*
X363741Y804721D01*
X363516Y804372D01*
X363316Y803998D01*
X363140Y803601D01*
X360729Y804400D01*
X360982Y804958D01*
X361269Y805481D01*
X361589Y805969D01*
X361942Y806421D01*
X362328Y806838D01*
X362747Y807220D01*
X363200Y807566D01*
X363687Y807877D01*
X364205Y808151D01*
X364754Y808390D01*
X365334Y808591D01*
X365944Y808756D01*
X366586Y808884D01*
X367258Y808976D01*
X367961Y809031D01*
X368695Y809049D01*
X369224Y809039D01*
X369738Y809009D01*
X370238Y808959D01*
X370723Y808890D01*
X371194Y808800D01*
X371650Y808691D01*
X372091Y808562D01*
X372518Y808413D01*
X372931Y808244D01*
X373328Y808055D01*
X373712Y807846D01*
X374080Y807618D01*
X374434Y807369D01*
X374774Y807101D01*
X375099Y806813D01*
X375409Y806505D01*
X375703Y806179D01*
X375977Y805838D01*
X376233Y805482D01*
X376470Y805111D01*
X376687Y804725D01*
X376886Y804323D01*
X377066Y803906D01*
X377227Y803474D01*
X377369Y803027D01*
X377492Y802565D01*
X377597Y802087D01*
X377682Y801594D01*
X377748Y801086D01*
X377796Y800563D01*
X377824Y800025D01*
X377833Y799471D01*
X377816Y798734D01*
X377766Y798023D01*
X377681Y797337D01*
X377562Y796675D01*
X377409Y796039D01*
X377223Y795429D01*
X377002Y794843D01*
X376748Y794283D01*
X376461Y793751D01*
X376143Y793250D01*
X375795Y792782D01*
X375416Y792344D01*
X375006Y791939D01*
X374565Y791565D01*
X374093Y791223D01*
X373591Y790912D01*
X373061Y790636D01*
X372507Y790397D01*
X371929Y790194D01*
X371328Y790028D01*
X370702Y789899D01*
X370053Y789807D01*
X369379Y789752D01*
X368682Y789734D01*
G37*
G36*
X473338Y789734D02*
X472656Y789753D01*
X471995Y789813D01*
X471355Y789912D01*
X470736Y790050D01*
X470138Y790228D01*
X469560Y790445D01*
X469004Y790702D01*
X468469Y790999D01*
X467960Y791334D01*
X467479Y791704D01*
X467028Y792111D01*
X466606Y792554D01*
X466214Y793034D01*
X465851Y793549D01*
X465517Y794101D01*
X465212Y794689D01*
X467290Y795728D01*
X467546Y795255D01*
X467817Y794813D01*
X468104Y794402D01*
X468405Y794020D01*
X468722Y793670D01*
X469054Y793350D01*
X469402Y793060D01*
X469765Y792801D01*
X470143Y792572D01*
X470536Y792374D01*
X470945Y792206D01*
X471369Y792069D01*
X471809Y791962D01*
X472263Y791886D01*
X472733Y791840D01*
X473218Y791825D01*
X473598Y791833D01*
X473968Y791858D01*
X474327Y791899D01*
X474677Y791956D01*
X475017Y792030D01*
X475347Y792120D01*
X475667Y792227D01*
X475977Y792349D01*
X476278Y792489D01*
X476568Y792645D01*
X476848Y792817D01*
X477118Y793005D01*
X477379Y793210D01*
X477629Y793431D01*
X477870Y793669D01*
X478100Y793923D01*
X478319Y794191D01*
X478523Y794469D01*
X478714Y794757D01*
X478890Y795057D01*
X479052Y795366D01*
X479200Y795687D01*
X479334Y796018D01*
X479454Y796359D01*
X479560Y796711D01*
X479652Y797074D01*
X479729Y797447D01*
X479793Y797831D01*
X479842Y798225D01*
X479877Y798630D01*
X479898Y799045D01*
X479905Y799471D01*
X479899Y799902D01*
X479878Y800320D01*
X479845Y800728D01*
X479797Y801123D01*
X479736Y801507D01*
X479662Y801880D01*
X479574Y802241D01*
X479472Y802590D01*
X479357Y802928D01*
X479229Y803254D01*
X479087Y803568D01*
X478931Y803871D01*
X478762Y804162D01*
X478580Y804442D01*
X478383Y804710D01*
X478174Y804966D01*
X477952Y805209D01*
X477719Y805436D01*
X477476Y805647D01*
X477221Y805843D01*
X476956Y806023D01*
X476680Y806188D01*
X476393Y806337D01*
X476096Y806470D01*
X475787Y806587D01*
X475468Y806689D01*
X475138Y806775D01*
X474797Y806846D01*
X474445Y806900D01*
X474082Y806940D01*
X473709Y806963D01*
X473325Y806971D01*
X472837Y806957D01*
X472366Y806917D01*
X471912Y806849D01*
X471475Y806754D01*
X471055Y806633D01*
X470651Y806484D01*
X470264Y806308D01*
X469895Y806105D01*
X469546Y805876D01*
X469222Y805624D01*
X468922Y805347D01*
X468648Y805046D01*
X468398Y804721D01*
X468173Y804372D01*
X467972Y803998D01*
X467797Y803601D01*
X465386Y804400D01*
X465639Y804958D01*
X465925Y805481D01*
X466245Y805969D01*
X466598Y806421D01*
X466984Y806838D01*
X467404Y807220D01*
X467857Y807566D01*
X468343Y807877D01*
X468861Y808151D01*
X469410Y808390D01*
X469990Y808591D01*
X470601Y808756D01*
X471242Y808884D01*
X471915Y808976D01*
X472618Y809031D01*
X473352Y809049D01*
X473880Y809039D01*
X474395Y809009D01*
X474894Y808959D01*
X475380Y808890D01*
X475850Y808800D01*
X476306Y808691D01*
X476748Y808562D01*
X477175Y808413D01*
X477587Y808244D01*
X477985Y808055D01*
X478368Y807846D01*
X478736Y807618D01*
X479091Y807369D01*
X479430Y807101D01*
X479755Y806813D01*
X480065Y806505D01*
X480359Y806179D01*
X480633Y805838D01*
X480889Y805482D01*
X481126Y805111D01*
X481344Y804725D01*
X481543Y804323D01*
X481723Y803906D01*
X481884Y803474D01*
X482026Y803027D01*
X482149Y802565D01*
X482253Y802087D01*
X482338Y801594D01*
X482404Y801086D01*
X482452Y800563D01*
X482480Y800025D01*
X482490Y799471D01*
X482473Y798734D01*
X482422Y798023D01*
X482337Y797337D01*
X482218Y796675D01*
X482066Y796039D01*
X481879Y795429D01*
X481658Y794843D01*
X481404Y794283D01*
X481117Y793751D01*
X480800Y793250D01*
X480451Y792782D01*
X480072Y792344D01*
X479662Y791939D01*
X479221Y791565D01*
X478749Y791223D01*
X478247Y790912D01*
X477717Y790636D01*
X477163Y790397D01*
X476586Y790194D01*
X475984Y790028D01*
X475358Y789899D01*
X474709Y789807D01*
X474036Y789752D01*
X473338Y789734D01*
G37*
G36*
X166800Y789734D02*
X166056Y789756D01*
X165356Y789823D01*
X164701Y789934D01*
X164089Y790090D01*
X163522Y790290D01*
X162999Y790535D01*
X162519Y790825D01*
X162084Y791159D01*
X161697Y791534D01*
X161362Y791945D01*
X161078Y792393D01*
X160846Y792877D01*
X160749Y793133D01*
X160665Y793399D01*
X160594Y793673D01*
X160536Y793956D01*
X160491Y794249D01*
X160458Y794551D01*
X160439Y794862D01*
X160433Y795182D01*
X160451Y795622D01*
X160506Y796043D01*
X160597Y796444D01*
X160726Y796827D01*
X160891Y797190D01*
X161092Y797535D01*
X161330Y797860D01*
X161605Y798166D01*
X161913Y798447D01*
X162249Y798699D01*
X162615Y798920D01*
X163010Y799112D01*
X163434Y799273D01*
X163888Y799405D01*
X164370Y799506D01*
X164882Y799578D01*
X164882Y799631D01*
X164417Y799742D01*
X163980Y799876D01*
X163571Y800033D01*
X163192Y800212D01*
X162840Y800414D01*
X162518Y800639D01*
X162224Y800886D01*
X161958Y801156D01*
X161722Y801448D01*
X161518Y801761D01*
X161345Y802095D01*
X161204Y802450D01*
X161094Y802826D01*
X161015Y803223D01*
X160968Y803641D01*
X160952Y804080D01*
X160958Y804369D01*
X160977Y804650D01*
X161007Y804923D01*
X161050Y805188D01*
X161172Y805693D01*
X161343Y806167D01*
X161564Y806608D01*
X161833Y807016D01*
X162151Y807393D01*
X162517Y807737D01*
X162928Y808044D01*
X163379Y808311D01*
X163868Y808536D01*
X164397Y808721D01*
X164966Y808864D01*
X165573Y808967D01*
X166220Y809028D01*
X166907Y809049D01*
X167538Y809029D01*
X168140Y808968D01*
X168713Y808867D01*
X169256Y808726D01*
X169770Y808544D01*
X170255Y808322D01*
X170710Y808060D01*
X171136Y807757D01*
X171526Y807418D01*
X171872Y807047D01*
X172176Y806645D01*
X172436Y806212D01*
X172654Y805746D01*
X172828Y805249D01*
X172959Y804720D01*
X173048Y804160D01*
X170636Y803974D01*
X170584Y804333D01*
X170505Y804671D01*
X170401Y804989D01*
X170272Y805286D01*
X170117Y805562D01*
X169936Y805817D01*
X169729Y806051D01*
X169498Y806265D01*
X169243Y806455D01*
X168970Y806620D01*
X168678Y806760D01*
X168367Y806874D01*
X168037Y806963D01*
X167688Y807027D01*
X167320Y807065D01*
X166933Y807077D01*
X166510Y807064D01*
X166114Y807023D01*
X165745Y806955D01*
X165403Y806859D01*
X165088Y806737D01*
X164799Y806587D01*
X164537Y806409D01*
X164302Y806205D01*
X164095Y805977D01*
X163915Y805729D01*
X163763Y805462D01*
X163638Y805174D01*
X163541Y804867D01*
X163472Y804540D01*
X163430Y804194D01*
X163417Y803827D01*
X163433Y803458D01*
X163484Y803109D01*
X163569Y802781D01*
X163688Y802473D01*
X163841Y802186D01*
X164027Y801920D01*
X164248Y801674D01*
X164502Y801449D01*
X164787Y801248D01*
X165100Y801073D01*
X165441Y800926D01*
X165809Y800805D01*
X166205Y800711D01*
X166629Y800644D01*
X167080Y800604D01*
X167559Y800590D01*
X168865Y800590D01*
X168865Y798512D01*
X167506Y798512D01*
X166966Y798499D01*
X166459Y798458D01*
X165985Y798391D01*
X165543Y798297D01*
X165134Y798176D01*
X164757Y798029D01*
X164414Y797854D01*
X164103Y797653D01*
X163826Y797428D01*
X163587Y797181D01*
X163384Y796914D01*
X163218Y796625D01*
X163089Y796316D01*
X162997Y795986D01*
X162942Y795634D01*
X162924Y795262D01*
X162940Y794836D01*
X162988Y794437D01*
X163069Y794065D01*
X163182Y793720D01*
X163327Y793402D01*
X163504Y793111D01*
X163714Y792848D01*
X163956Y792611D01*
X164226Y792402D01*
X164521Y792220D01*
X164840Y792067D01*
X165183Y791942D01*
X165551Y791844D01*
X165943Y791774D01*
X166359Y791732D01*
X166800Y791718D01*
X167239Y791731D01*
X167654Y791770D01*
X168044Y791835D01*
X168409Y791927D01*
X168751Y792044D01*
X169067Y792187D01*
X169360Y792356D01*
X169627Y792551D01*
X169871Y792772D01*
X170090Y793019D01*
X170284Y793292D01*
X170454Y793592D01*
X170600Y793917D01*
X170721Y794268D01*
X170817Y794645D01*
X170890Y795049D01*
X173367Y794822D01*
X173266Y794212D01*
X173121Y793640D01*
X172934Y793107D01*
X172703Y792613D01*
X172429Y792156D01*
X172112Y791739D01*
X171752Y791360D01*
X171349Y791019D01*
X170907Y790718D01*
X170428Y790457D01*
X169913Y790236D01*
X169363Y790055D01*
X168776Y789914D01*
X168153Y789814D01*
X167495Y789754D01*
X166800Y789734D01*
G37*
G36*
X126668Y790000D02*
X124124Y790000D01*
X124124Y797606D01*
X113654Y797606D01*
X113654Y799711D01*
X124124Y799711D01*
X124124Y806691D01*
X113334Y806691D01*
X113334Y808769D01*
X126668Y808769D01*
X126668Y790000D01*
G37*
G36*
X192380Y790000D02*
X189569Y790000D01*
X195724Y798219D01*
X189876Y804413D01*
X192687Y804413D01*
X199014Y797420D01*
X199014Y809768D01*
X201412Y809768D01*
X201412Y790000D01*
X199014Y790000D01*
X199014Y795129D01*
X197256Y796581D01*
X192380Y790000D01*
G37*
G36*
X333354Y790000D02*
X330943Y790000D01*
X330943Y799604D01*
X330960Y800260D01*
X331012Y800867D01*
X331097Y801426D01*
X331218Y801937D01*
X331372Y802400D01*
X331561Y802815D01*
X331784Y803182D01*
X332042Y803501D01*
X332337Y803777D01*
X332671Y804017D01*
X333045Y804219D01*
X333459Y804385D01*
X333913Y804514D01*
X334406Y804606D01*
X334939Y804661D01*
X335512Y804680D01*
X335907Y804670D01*
X336285Y804641D01*
X336647Y804593D01*
X336992Y804525D01*
X337321Y804438D01*
X337634Y804331D01*
X337930Y804205D01*
X338209Y804060D01*
X338477Y803892D01*
X338736Y803696D01*
X338987Y803473D01*
X339230Y803223D01*
X339465Y802945D01*
X339692Y802640D01*
X339911Y802308D01*
X340121Y801949D01*
X340161Y801949D01*
X340208Y803381D01*
X340241Y804054D01*
X340268Y804413D01*
X342532Y804413D01*
X342497Y804011D01*
X342472Y803364D01*
X342457Y802473D01*
X342452Y801336D01*
X342452Y790000D01*
X340054Y790000D01*
X340054Y798352D01*
X340039Y798864D01*
X339992Y799347D01*
X339914Y799801D01*
X339805Y800227D01*
X339664Y800624D01*
X339492Y800992D01*
X339290Y801332D01*
X339055Y801642D01*
X338794Y801920D01*
X338510Y802161D01*
X338203Y802365D01*
X337873Y802532D01*
X337520Y802661D01*
X337145Y802754D01*
X336746Y802810D01*
X336325Y802828D01*
X335768Y802806D01*
X335282Y802741D01*
X335066Y802693D01*
X334868Y802633D01*
X334688Y802563D01*
X334526Y802482D01*
X334378Y802388D01*
X334241Y802281D01*
X334114Y802160D01*
X333997Y802025D01*
X333890Y801877D01*
X333794Y801715D01*
X333634Y801349D01*
X333511Y800916D01*
X333424Y800404D01*
X333372Y799811D01*
X333354Y799138D01*
X333354Y790000D01*
G37*
G36*
X257597Y789734D02*
X257202Y789743D01*
X256824Y789772D01*
X256462Y789821D01*
X256116Y789888D01*
X255788Y789976D01*
X255475Y790082D01*
X255179Y790208D01*
X254899Y790353D01*
X254632Y790521D01*
X254373Y790717D01*
X254122Y790940D01*
X253879Y791191D01*
X253644Y791468D01*
X253417Y791773D01*
X253198Y792105D01*
X252988Y792464D01*
X252948Y792464D01*
X252901Y791032D01*
X252868Y790360D01*
X252841Y790000D01*
X250577Y790000D01*
X250612Y790402D01*
X250637Y791049D01*
X250652Y791941D01*
X250657Y793077D01*
X250657Y804413D01*
X253054Y804413D01*
X253054Y796061D01*
X253070Y795549D01*
X253117Y795066D01*
X253195Y794612D01*
X253304Y794186D01*
X253445Y793789D01*
X253616Y793421D01*
X253819Y793082D01*
X254053Y792771D01*
X254315Y792493D01*
X254599Y792252D01*
X254906Y792048D01*
X255236Y791882D01*
X255588Y791752D01*
X255964Y791659D01*
X256363Y791604D01*
X256784Y791585D01*
X257341Y791607D01*
X257827Y791672D01*
X258042Y791720D01*
X258240Y791780D01*
X258420Y791850D01*
X258583Y791932D01*
X258731Y792025D01*
X258868Y792132D01*
X258995Y792253D01*
X259112Y792388D01*
X259218Y792536D01*
X259314Y792698D01*
X259475Y793064D01*
X259597Y793497D01*
X259685Y794010D01*
X259737Y794602D01*
X259755Y795275D01*
X259755Y804413D01*
X262166Y804413D01*
X262166Y794809D01*
X262149Y794154D01*
X262097Y793546D01*
X262011Y792987D01*
X261891Y792476D01*
X261737Y792013D01*
X261548Y791598D01*
X261324Y791231D01*
X261067Y790912D01*
X260772Y790636D01*
X260438Y790397D01*
X260064Y790194D01*
X259650Y790028D01*
X259196Y789899D01*
X258703Y789807D01*
X258170Y789752D01*
X257597Y789734D01*
G37*
G36*
X514142Y790000D02*
X511465Y790000D01*
X516660Y797433D01*
X511771Y804413D01*
X514449Y804413D01*
X518019Y798805D01*
X521616Y804413D01*
X524266Y804413D01*
X519378Y797406D01*
X524506Y790000D01*
X521922Y790000D01*
X518019Y795914D01*
X514142Y790000D01*
G37*
G36*
X324201Y789787D02*
X323585Y789807D01*
X322975Y789867D01*
X322373Y789967D01*
X321776Y790107D01*
X321776Y791878D01*
X322203Y791797D01*
X322576Y791738D01*
X322895Y791703D01*
X323162Y791692D01*
X323364Y791698D01*
X323550Y791718D01*
X323721Y791751D01*
X323876Y791797D01*
X324016Y791856D01*
X324140Y791928D01*
X324248Y792013D01*
X324341Y792111D01*
X324420Y792226D01*
X324489Y792360D01*
X324548Y792513D01*
X324596Y792686D01*
X324633Y792878D01*
X324659Y793089D01*
X324680Y793570D01*
X324680Y802668D01*
X322016Y802668D01*
X322016Y804413D01*
X324680Y804413D01*
X324680Y807637D01*
X326279Y807637D01*
X326985Y804413D01*
X328743Y804413D01*
X328743Y802668D01*
X327078Y802668D01*
X327078Y793050D01*
X327067Y792655D01*
X327033Y792286D01*
X326977Y791941D01*
X326898Y791623D01*
X326797Y791329D01*
X326674Y791062D01*
X326527Y790819D01*
X326359Y790603D01*
X326168Y790412D01*
X325954Y790246D01*
X325718Y790106D01*
X325460Y789991D01*
X325179Y789902D01*
X324875Y789838D01*
X324549Y789800D01*
X324201Y789787D01*
G37*
G36*
X413732Y789787D02*
X413116Y789807D01*
X412507Y789867D01*
X411904Y789967D01*
X411308Y790107D01*
X411308Y791878D01*
X411734Y791797D01*
X412107Y791738D01*
X412427Y791703D01*
X412693Y791692D01*
X412895Y791698D01*
X413082Y791718D01*
X413252Y791751D01*
X413407Y791797D01*
X413547Y791856D01*
X413671Y791928D01*
X413779Y792013D01*
X413872Y792111D01*
X413952Y792226D01*
X414021Y792360D01*
X414079Y792513D01*
X414127Y792686D01*
X414164Y792878D01*
X414190Y793089D01*
X414212Y793570D01*
X414212Y802668D01*
X411548Y802668D01*
X411548Y804413D01*
X414212Y804413D01*
X414212Y807637D01*
X415810Y807637D01*
X416516Y804413D01*
X418275Y804413D01*
X418275Y802668D01*
X416609Y802668D01*
X416609Y793050D01*
X416598Y792655D01*
X416565Y792286D01*
X416508Y791941D01*
X416430Y791623D01*
X416328Y791329D01*
X416205Y791062D01*
X416059Y790819D01*
X415890Y790603D01*
X415699Y790412D01*
X415486Y790246D01*
X415249Y790106D01*
X414991Y789991D01*
X414710Y789902D01*
X414407Y789838D01*
X414081Y789800D01*
X413732Y789787D01*
G37*
G36*
X295443Y790000D02*
X293045Y790000D01*
X293045Y809768D01*
X295443Y809768D01*
X295443Y790000D01*
G37*
G36*
X319671Y790000D02*
X317273Y790000D01*
X317273Y797513D01*
X317261Y798095D01*
X317224Y798642D01*
X317163Y799155D01*
X317077Y799633D01*
X316966Y800076D01*
X316831Y800484D01*
X316671Y800857D01*
X316487Y801196D01*
X316280Y801498D01*
X316050Y801759D01*
X315799Y801980D01*
X315525Y802160D01*
X315229Y802301D01*
X314911Y802401D01*
X314571Y802462D01*
X314209Y802482D01*
X313830Y802473D01*
X313490Y802448D01*
X313190Y802407D01*
X312931Y802348D01*
X312931Y804546D01*
X313176Y804605D01*
X313420Y804646D01*
X313662Y804671D01*
X313903Y804680D01*
X314233Y804669D01*
X314544Y804637D01*
X314836Y804584D01*
X315109Y804510D01*
X315362Y804414D01*
X315596Y804298D01*
X315812Y804160D01*
X316008Y804000D01*
X316191Y803812D01*
X316370Y803587D01*
X316543Y803326D01*
X316710Y803028D01*
X316873Y802693D01*
X317029Y802322D01*
X317181Y801914D01*
X317326Y801469D01*
X317380Y801469D01*
X317406Y802452D01*
X317486Y804413D01*
X319751Y804413D01*
X319691Y802655D01*
X319671Y801056D01*
X319671Y790000D01*
G37*
G36*
X394015Y790000D02*
X391617Y790000D01*
X391617Y797513D01*
X391605Y798095D01*
X391568Y798642D01*
X391506Y799155D01*
X391420Y799633D01*
X391310Y800076D01*
X391175Y800484D01*
X391015Y800857D01*
X390831Y801196D01*
X390623Y801498D01*
X390394Y801759D01*
X390142Y801980D01*
X389869Y802160D01*
X389573Y802301D01*
X389255Y802401D01*
X388915Y802462D01*
X388553Y802482D01*
X388173Y802473D01*
X387834Y802448D01*
X387534Y802407D01*
X387274Y802348D01*
X387274Y804546D01*
X387520Y804605D01*
X387764Y804646D01*
X388006Y804671D01*
X388247Y804680D01*
X388577Y804669D01*
X388888Y804637D01*
X389180Y804584D01*
X389452Y804510D01*
X389706Y804414D01*
X389940Y804298D01*
X390155Y804160D01*
X390351Y804000D01*
X390535Y803812D01*
X390714Y803587D01*
X390887Y803326D01*
X391054Y803028D01*
X391216Y802693D01*
X391373Y802322D01*
X391524Y801914D01*
X391670Y801469D01*
X391724Y801469D01*
X391750Y802452D01*
X391830Y804413D01*
X394095Y804413D01*
X394035Y802655D01*
X394015Y801056D01*
X394015Y790000D01*
G37*
G36*
X158007Y796181D02*
X151346Y796181D01*
X151346Y798312D01*
X158007Y798312D01*
X158007Y796181D01*
G37*
G36*
X187103Y790000D02*
X184505Y790000D01*
X184505Y792917D01*
X187103Y792917D01*
X187103Y790000D01*
G37*
G36*
X33935Y341975D02*
X33579Y341981D01*
X33233Y341999D01*
X32898Y342030D01*
X32572Y342073D01*
X32255Y342128D01*
X31949Y342195D01*
X31366Y342367D01*
X30822Y342588D01*
X30317Y342858D01*
X29852Y343177D01*
X29426Y343545D01*
X29045Y343956D01*
X28715Y344403D01*
X28435Y344887D01*
X28207Y345407D01*
X28112Y345680D01*
X28029Y345963D01*
X27959Y346255D01*
X27902Y346556D01*
X27858Y346866D01*
X27826Y347185D01*
X27807Y347514D01*
X27801Y347851D01*
X27824Y348438D01*
X27895Y348997D01*
X28014Y349527D01*
X28179Y350029D01*
X28392Y350502D01*
X28653Y350947D01*
X28961Y351364D01*
X29316Y351752D01*
X29711Y352103D01*
X30138Y352407D01*
X30598Y352664D01*
X31090Y352875D01*
X31614Y353039D01*
X32171Y353155D01*
X32761Y353226D01*
X33382Y353249D01*
X33905Y353232D01*
X34406Y353180D01*
X34885Y353094D01*
X35342Y352973D01*
X35778Y352818D01*
X36191Y352628D01*
X36583Y352404D01*
X36952Y352145D01*
X36621Y357629D01*
X28806Y357629D01*
X28806Y359506D01*
X38633Y359506D01*
X39210Y350207D01*
X37051Y350207D01*
X36664Y350519D01*
X36278Y350783D01*
X35891Y350998D01*
X35505Y351163D01*
X35111Y351287D01*
X34701Y351375D01*
X34277Y351428D01*
X33836Y351446D01*
X33418Y351430D01*
X33022Y351383D01*
X32647Y351304D01*
X32295Y351194D01*
X31965Y351053D01*
X31657Y350880D01*
X31371Y350675D01*
X31107Y350440D01*
X30870Y350178D01*
X30664Y349898D01*
X30490Y349597D01*
X30348Y349277D01*
X30237Y348938D01*
X30158Y348579D01*
X30110Y348200D01*
X30095Y347802D01*
X30110Y347345D01*
X30158Y346914D01*
X30236Y346507D01*
X30346Y346126D01*
X30488Y345770D01*
X30661Y345438D01*
X30865Y345132D01*
X31101Y344852D01*
X31364Y344600D01*
X31652Y344382D01*
X31964Y344197D01*
X32300Y344046D01*
X32660Y343929D01*
X33044Y343845D01*
X33453Y343795D01*
X33885Y343778D01*
X34239Y343788D01*
X34575Y343818D01*
X34894Y343868D01*
X35196Y343938D01*
X35481Y344028D01*
X35748Y344139D01*
X35998Y344269D01*
X36232Y344419D01*
X36448Y344589D01*
X36647Y344780D01*
X36829Y344990D01*
X36993Y345220D01*
X37141Y345471D01*
X37271Y345741D01*
X37384Y346032D01*
X37480Y346342D01*
X39713Y346084D01*
X39598Y345599D01*
X39448Y345144D01*
X39265Y344718D01*
X39047Y344321D01*
X38796Y343954D01*
X38510Y343616D01*
X38190Y343308D01*
X37836Y343030D01*
X37450Y342782D01*
X37035Y342568D01*
X36591Y342387D01*
X36118Y342238D01*
X35616Y342123D01*
X35085Y342041D01*
X34524Y341991D01*
X33935Y341975D01*
G37*
G36*
X47682Y341975D02*
X46997Y341995D01*
X46353Y342057D01*
X45749Y342159D01*
X45186Y342303D01*
X44663Y342487D01*
X44181Y342713D01*
X43740Y342980D01*
X43340Y343287D01*
X42983Y343632D01*
X42674Y344011D01*
X42413Y344424D01*
X42199Y344870D01*
X42032Y345350D01*
X41913Y345864D01*
X41842Y346411D01*
X41824Y346697D01*
X41818Y346992D01*
X41835Y347398D01*
X41886Y347785D01*
X41970Y348155D01*
X42088Y348507D01*
X42240Y348842D01*
X42426Y349159D01*
X42645Y349459D01*
X42898Y349740D01*
X43181Y349999D01*
X43491Y350231D01*
X43828Y350435D01*
X44192Y350611D01*
X44583Y350760D01*
X45000Y350881D01*
X45445Y350975D01*
X45916Y351041D01*
X45916Y351090D01*
X45487Y351192D01*
X45085Y351316D01*
X44709Y351460D01*
X44359Y351625D01*
X44036Y351811D01*
X43739Y352018D01*
X43468Y352246D01*
X43223Y352495D01*
X43006Y352763D01*
X42818Y353052D01*
X42659Y353359D01*
X42528Y353686D01*
X42427Y354032D01*
X42355Y354398D01*
X42311Y354783D01*
X42297Y355187D01*
X42319Y355712D01*
X42387Y356208D01*
X42499Y356673D01*
X42657Y357109D01*
X42860Y357515D01*
X43108Y357891D01*
X43400Y358238D01*
X43738Y358555D01*
X44117Y358838D01*
X44531Y359084D01*
X44982Y359291D01*
X45470Y359461D01*
X45993Y359593D01*
X46553Y359688D01*
X47149Y359744D01*
X47781Y359763D01*
X48362Y359745D01*
X48917Y359689D01*
X49444Y359596D01*
X49944Y359466D01*
X50418Y359298D01*
X50864Y359094D01*
X51283Y358852D01*
X51676Y358573D01*
X52035Y358261D01*
X52354Y357920D01*
X52633Y357550D01*
X52873Y357150D01*
X53074Y356722D01*
X53234Y356264D01*
X53355Y355777D01*
X53436Y355261D01*
X51216Y355089D01*
X51167Y355420D01*
X51095Y355732D01*
X50999Y356024D01*
X50880Y356298D01*
X50737Y356552D01*
X50570Y356787D01*
X50380Y357003D01*
X50167Y357199D01*
X49933Y357375D01*
X49681Y357527D01*
X49412Y357655D01*
X49125Y357761D01*
X48822Y357842D01*
X48500Y357901D01*
X48161Y357936D01*
X47805Y357948D01*
X47416Y357935D01*
X47051Y357897D01*
X46711Y357835D01*
X46396Y357747D01*
X46105Y357634D01*
X45840Y357496D01*
X45599Y357332D01*
X45382Y357144D01*
X45191Y356934D01*
X45025Y356706D01*
X44885Y356459D01*
X44770Y356195D01*
X44681Y355912D01*
X44617Y355611D01*
X44579Y355292D01*
X44566Y354954D01*
X44582Y354614D01*
X44629Y354293D01*
X44707Y353991D01*
X44816Y353708D01*
X44957Y353443D01*
X45129Y353198D01*
X45332Y352972D01*
X45566Y352764D01*
X45829Y352579D01*
X46117Y352418D01*
X46431Y352282D01*
X46770Y352171D01*
X47135Y352084D01*
X47525Y352023D01*
X47941Y351985D01*
X48382Y351973D01*
X49584Y351973D01*
X49584Y350059D01*
X48333Y350059D01*
X47836Y350047D01*
X47368Y350010D01*
X46932Y349948D01*
X46525Y349861D01*
X46148Y349750D01*
X45801Y349614D01*
X45485Y349453D01*
X45198Y349268D01*
X44944Y349061D01*
X44723Y348834D01*
X44537Y348587D01*
X44384Y348322D01*
X44265Y348037D01*
X44180Y347733D01*
X44129Y347409D01*
X44112Y347066D01*
X44127Y346673D01*
X44172Y346306D01*
X44246Y345963D01*
X44350Y345646D01*
X44484Y345353D01*
X44647Y345085D01*
X44840Y344842D01*
X45063Y344625D01*
X45312Y344432D01*
X45583Y344265D01*
X45877Y344124D01*
X46193Y344008D01*
X46532Y343918D01*
X46893Y343854D01*
X47277Y343815D01*
X47682Y343803D01*
X48087Y343815D01*
X48469Y343851D01*
X48828Y343910D01*
X49165Y343994D01*
X49479Y344102D01*
X49771Y344234D01*
X50040Y344390D01*
X50286Y344569D01*
X50510Y344773D01*
X50712Y345001D01*
X50891Y345252D01*
X51048Y345528D01*
X51182Y345827D01*
X51293Y346151D01*
X51382Y346498D01*
X51449Y346870D01*
X53731Y346661D01*
X53637Y346099D01*
X53504Y345573D01*
X53331Y345082D01*
X53119Y344626D01*
X52867Y344206D01*
X52575Y343821D01*
X52243Y343472D01*
X51872Y343159D01*
X51464Y342881D01*
X51024Y342641D01*
X50550Y342437D01*
X50043Y342271D01*
X49502Y342141D01*
X48929Y342049D01*
X48322Y341993D01*
X47682Y341975D01*
G37*
G36*
X19585Y342220D02*
X17156Y342220D01*
X10102Y359506D01*
X12568Y359506D01*
X17328Y347336D01*
X18359Y344281D01*
X19389Y347336D01*
X24174Y359506D01*
X26640Y359506D01*
X19585Y342220D01*
G37*
G36*
X72553Y342220D02*
X70247Y342220D01*
X70239Y342816D01*
X70213Y343406D01*
X70170Y343992D01*
X70111Y344572D01*
X70034Y345148D01*
X69940Y345719D01*
X69829Y346284D01*
X69701Y346845D01*
X69556Y347404D01*
X69394Y347965D01*
X69215Y348528D01*
X69019Y349093D01*
X68805Y349660D01*
X68575Y350229D01*
X68063Y351372D01*
X67766Y351973D01*
X67420Y352629D01*
X66582Y354105D01*
X65549Y355800D01*
X64322Y357715D01*
X64322Y359506D01*
X75743Y359506D01*
X75743Y357629D01*
X66456Y357629D01*
X67249Y356453D01*
X67982Y355312D01*
X68657Y354206D01*
X69273Y353134D01*
X69830Y352097D01*
X70329Y351095D01*
X70768Y350127D01*
X71149Y349194D01*
X71478Y348284D01*
X71763Y347385D01*
X72005Y346497D01*
X72202Y345620D01*
X72356Y344753D01*
X72466Y343898D01*
X72531Y343054D01*
X72553Y342220D01*
G37*
G36*
X61946Y347912D02*
X55812Y347912D01*
X55812Y349875D01*
X61946Y349875D01*
X61946Y347912D01*
G37*
G36*
X26095Y312220D02*
X19630Y312220D01*
X19014Y312237D01*
X18415Y312287D01*
X17836Y312370D01*
X17275Y312487D01*
X16732Y312637D01*
X16207Y312820D01*
X15701Y313037D01*
X15213Y313287D01*
X14749Y313569D01*
X14311Y313880D01*
X13901Y314220D01*
X13517Y314589D01*
X13161Y314988D01*
X12833Y315416D01*
X12531Y315874D01*
X12257Y316360D01*
X12012Y316872D01*
X11801Y317405D01*
X11621Y317959D01*
X11475Y318533D01*
X11361Y319129D01*
X11279Y319745D01*
X11230Y320383D01*
X11214Y321041D01*
X11223Y321541D01*
X11251Y322027D01*
X11298Y322498D01*
X11363Y322955D01*
X11447Y323397D01*
X11550Y323825D01*
X11671Y324238D01*
X11811Y324637D01*
X11969Y325021D01*
X12146Y325391D01*
X12342Y325746D01*
X12556Y326086D01*
X12789Y326412D01*
X13041Y326724D01*
X13311Y327021D01*
X13600Y327304D01*
X13906Y327570D01*
X14228Y327820D01*
X14566Y328052D01*
X14919Y328267D01*
X15287Y328465D01*
X15672Y328646D01*
X16072Y328809D01*
X16488Y328955D01*
X16919Y329084D01*
X17366Y329196D01*
X17829Y329291D01*
X18308Y329368D01*
X18802Y329428D01*
X19312Y329471D01*
X19837Y329497D01*
X20378Y329506D01*
X26095Y329506D01*
X26095Y312220D01*
G37*
%LPC*%
G36*
X23752Y314097D02*
X23752Y327629D01*
X20427Y327629D01*
X20016Y327622D01*
X19618Y327602D01*
X19231Y327569D01*
X18857Y327523D01*
X18496Y327464D01*
X18146Y327391D01*
X17809Y327306D01*
X17485Y327207D01*
X17172Y327095D01*
X16872Y326970D01*
X16584Y326831D01*
X16309Y326680D01*
X16046Y326515D01*
X15795Y326337D01*
X15556Y326146D01*
X15330Y325942D01*
X15117Y325725D01*
X14917Y325496D01*
X14732Y325256D01*
X14560Y325003D01*
X14402Y324738D01*
X14257Y324462D01*
X14127Y324173D01*
X14010Y323873D01*
X13907Y323561D01*
X13817Y323237D01*
X13741Y322900D01*
X13680Y322552D01*
X13631Y322192D01*
X13597Y321820D01*
X13576Y321437D01*
X13570Y321041D01*
X13582Y320516D01*
X13618Y320009D01*
X13678Y319519D01*
X13763Y319047D01*
X13871Y318593D01*
X14004Y318156D01*
X14161Y317737D01*
X14342Y317336D01*
X14546Y316955D01*
X14771Y316597D01*
X15016Y316262D01*
X15282Y315949D01*
X15570Y315660D01*
X15878Y315394D01*
X16207Y315151D01*
X16557Y314931D01*
X16924Y314736D01*
X17306Y314566D01*
X17703Y314423D01*
X18113Y314306D01*
X18538Y314214D01*
X18978Y314149D01*
X19432Y314110D01*
X19900Y314097D01*
X23752Y314097D01*
G37*
%LPD*%
G36*
X33038Y312220D02*
X30217Y312220D01*
X30217Y329506D01*
X32327Y329506D01*
X32327Y318170D01*
X32318Y317547D01*
X32290Y316759D01*
X32180Y314686D01*
X41528Y329506D01*
X44251Y329506D01*
X44251Y312220D01*
X42166Y312220D01*
X42166Y323703D01*
X42227Y325752D01*
X42289Y326942D01*
X33038Y312220D01*
G37*
G36*
X55870Y311975D02*
X55292Y311987D01*
X54725Y312023D01*
X54169Y312082D01*
X53623Y312166D01*
X53088Y312274D01*
X52563Y312406D01*
X52049Y312562D01*
X51545Y312741D01*
X51057Y312943D01*
X50587Y313164D01*
X50137Y313405D01*
X49707Y313666D01*
X49295Y313947D01*
X48903Y314247D01*
X48531Y314567D01*
X48178Y314907D01*
X48178Y320869D01*
X55502Y320869D01*
X55502Y318906D01*
X50337Y318906D01*
X50337Y315790D01*
X50573Y315575D01*
X50826Y315371D01*
X51096Y315179D01*
X51384Y314999D01*
X51690Y314830D01*
X52013Y314672D01*
X52353Y314526D01*
X52711Y314391D01*
X53081Y314271D01*
X53458Y314166D01*
X53842Y314077D01*
X54234Y314005D01*
X54632Y313949D01*
X55038Y313908D01*
X55450Y313884D01*
X55870Y313876D01*
X56236Y313884D01*
X56592Y313906D01*
X56938Y313943D01*
X57274Y313995D01*
X57600Y314061D01*
X57915Y314143D01*
X58221Y314239D01*
X58517Y314350D01*
X58802Y314476D01*
X59078Y314617D01*
X59343Y314772D01*
X59599Y314942D01*
X59844Y315127D01*
X60079Y315327D01*
X60304Y315542D01*
X60519Y315772D01*
X60723Y316014D01*
X60913Y316267D01*
X61091Y316531D01*
X61255Y316806D01*
X61406Y317091D01*
X61544Y317387D01*
X61668Y317694D01*
X61780Y318012D01*
X61878Y318341D01*
X61964Y318680D01*
X62036Y319030D01*
X62095Y319391D01*
X62141Y319763D01*
X62174Y320145D01*
X62194Y320539D01*
X62200Y320943D01*
X62194Y321348D01*
X62175Y321741D01*
X62145Y322124D01*
X62101Y322494D01*
X62046Y322853D01*
X61978Y323201D01*
X61897Y323537D01*
X61805Y323861D01*
X61699Y324174D01*
X61582Y324475D01*
X61452Y324765D01*
X61310Y325043D01*
X61155Y325309D01*
X60989Y325564D01*
X60809Y325808D01*
X60618Y326040D01*
X60414Y326259D01*
X60200Y326464D01*
X59975Y326655D01*
X59738Y326832D01*
X59491Y326994D01*
X59232Y327143D01*
X58963Y327277D01*
X58682Y327397D01*
X58391Y327503D01*
X58088Y327595D01*
X57775Y327673D01*
X57450Y327736D01*
X57115Y327786D01*
X56768Y327821D01*
X56410Y327842D01*
X56042Y327850D01*
X55570Y327839D01*
X55118Y327807D01*
X54686Y327755D01*
X54273Y327681D01*
X53881Y327586D01*
X53508Y327470D01*
X53155Y327333D01*
X52821Y327175D01*
X52506Y326994D01*
X52209Y326788D01*
X51929Y326557D01*
X51666Y326301D01*
X51421Y326020D01*
X51194Y325714D01*
X50984Y325383D01*
X50791Y325028D01*
X48558Y325690D01*
X48813Y326206D01*
X49094Y326685D01*
X49401Y327127D01*
X49733Y327534D01*
X50091Y327903D01*
X50474Y328237D01*
X50883Y328534D01*
X51318Y328794D01*
X51783Y329021D01*
X52281Y329218D01*
X52814Y329385D01*
X53379Y329521D01*
X53979Y329627D01*
X54612Y329703D01*
X55279Y329748D01*
X55980Y329763D01*
X56484Y329754D01*
X56973Y329727D01*
X57448Y329682D01*
X57909Y329619D01*
X58355Y329538D01*
X58787Y329439D01*
X59205Y329322D01*
X59609Y329187D01*
X59998Y329034D01*
X60373Y328862D01*
X60734Y328673D01*
X61080Y328466D01*
X61412Y328241D01*
X61730Y327998D01*
X62034Y327736D01*
X62323Y327457D01*
X62596Y327161D01*
X62852Y326851D01*
X63090Y326525D01*
X63310Y326185D01*
X63513Y325830D01*
X63698Y325460D01*
X63866Y325075D01*
X64016Y324675D01*
X64148Y324261D01*
X64263Y323831D01*
X64360Y323387D01*
X64439Y322928D01*
X64501Y322454D01*
X64545Y321965D01*
X64571Y321461D01*
X64580Y320943D01*
X64564Y320267D01*
X64515Y319613D01*
X64434Y318982D01*
X64321Y318374D01*
X64175Y317788D01*
X63997Y317224D01*
X63786Y316683D01*
X63544Y316164D01*
X63270Y315671D01*
X62967Y315208D01*
X62636Y314775D01*
X62275Y314372D01*
X61886Y313998D01*
X61468Y313653D01*
X61020Y313339D01*
X60544Y313054D01*
X60042Y312801D01*
X59516Y312582D01*
X58967Y312396D01*
X58394Y312245D01*
X57798Y312126D01*
X57179Y312042D01*
X56536Y311992D01*
X55870Y311975D01*
G37*
G36*
X46223Y581975D02*
X45397Y581995D01*
X44619Y582057D01*
X43889Y582159D01*
X43206Y582303D01*
X42571Y582487D01*
X41984Y582713D01*
X41445Y582980D01*
X40953Y583287D01*
X40515Y583632D01*
X40135Y584011D01*
X39967Y584213D01*
X39813Y584424D01*
X39675Y584643D01*
X39550Y584870D01*
X39441Y585106D01*
X39346Y585350D01*
X39265Y585603D01*
X39199Y585864D01*
X39148Y586133D01*
X39112Y586411D01*
X39090Y586697D01*
X39083Y586992D01*
X39099Y587449D01*
X39148Y587876D01*
X39231Y588271D01*
X39346Y588636D01*
X39491Y588974D01*
X39661Y589289D01*
X39856Y589582D01*
X40076Y589851D01*
X40320Y590098D01*
X40584Y590326D01*
X40869Y590534D01*
X41174Y590722D01*
X41829Y591055D01*
X42530Y591341D01*
X43271Y591587D01*
X44045Y591795D01*
X45634Y592169D01*
X46725Y592423D01*
X47618Y592656D01*
X48314Y592868D01*
X48811Y593059D01*
X49186Y593250D01*
X49515Y593461D01*
X49797Y593691D01*
X50032Y593942D01*
X50217Y594220D01*
X50290Y594372D01*
X50349Y594533D01*
X50396Y594702D01*
X50429Y594879D01*
X50448Y595066D01*
X50455Y595261D01*
X50438Y595591D01*
X50387Y595900D01*
X50302Y596187D01*
X50182Y596454D01*
X50029Y596700D01*
X49841Y596924D01*
X49619Y597127D01*
X49363Y597310D01*
X49075Y597471D01*
X48756Y597610D01*
X48406Y597728D01*
X48026Y597825D01*
X47615Y597900D01*
X47173Y597954D01*
X46701Y597986D01*
X46198Y597997D01*
X45739Y597987D01*
X45305Y597958D01*
X44897Y597910D01*
X44514Y597842D01*
X44158Y597755D01*
X43826Y597648D01*
X43521Y597522D01*
X43241Y597377D01*
X42985Y597211D01*
X42751Y597020D01*
X42538Y596806D01*
X42346Y596569D01*
X42176Y596308D01*
X42027Y596023D01*
X41900Y595715D01*
X41794Y595384D01*
X39487Y595788D01*
X39658Y596312D01*
X39859Y596795D01*
X40088Y597239D01*
X40346Y597642D01*
X40634Y598007D01*
X40950Y598331D01*
X41296Y598616D01*
X41671Y598862D01*
X42082Y599073D01*
X42537Y599256D01*
X43035Y599411D01*
X43576Y599538D01*
X44160Y599637D01*
X44788Y599707D01*
X45459Y599749D01*
X46173Y599763D01*
X46942Y599745D01*
X47664Y599688D01*
X48341Y599594D01*
X48972Y599463D01*
X49557Y599294D01*
X50097Y599087D01*
X50590Y598843D01*
X51038Y598561D01*
X51436Y598245D01*
X51781Y597896D01*
X52073Y597516D01*
X52312Y597104D01*
X52498Y596660D01*
X52571Y596427D01*
X52631Y596185D01*
X52677Y595935D01*
X52710Y595677D01*
X52730Y595412D01*
X52737Y595138D01*
X52717Y594667D01*
X52656Y594224D01*
X52554Y593809D01*
X52412Y593421D01*
X52231Y593058D01*
X52015Y592720D01*
X51762Y592405D01*
X51473Y592114D01*
X51139Y591842D01*
X50748Y591582D01*
X50301Y591336D01*
X49799Y591102D01*
X49206Y590875D01*
X48491Y590648D01*
X47651Y590421D01*
X46689Y590194D01*
X44542Y589691D01*
X44074Y589568D01*
X43640Y589431D01*
X43240Y589280D01*
X42873Y589115D01*
X42543Y588931D01*
X42252Y588725D01*
X42000Y588496D01*
X41788Y588244D01*
X41619Y587960D01*
X41498Y587636D01*
X41456Y587460D01*
X41425Y587273D01*
X41407Y587076D01*
X41401Y586870D01*
X41420Y586504D01*
X41478Y586161D01*
X41575Y585841D01*
X41709Y585543D01*
X41883Y585269D01*
X42095Y585017D01*
X42345Y584788D01*
X42634Y584582D01*
X42959Y584399D01*
X43315Y584241D01*
X43705Y584107D01*
X44126Y583997D01*
X44580Y583912D01*
X45067Y583851D01*
X45585Y583815D01*
X46137Y583803D01*
X46671Y583814D01*
X47177Y583848D01*
X47654Y583905D01*
X48103Y583985D01*
X48522Y584088D01*
X48913Y584213D01*
X49275Y584361D01*
X49609Y584533D01*
X49914Y584728D01*
X50191Y584949D01*
X50441Y585196D01*
X50664Y585470D01*
X50858Y585768D01*
X51026Y586093D01*
X51165Y586444D01*
X51277Y586821D01*
X53547Y586367D01*
X53400Y585835D01*
X53212Y585337D01*
X52983Y584874D01*
X52712Y584445D01*
X52399Y584051D01*
X52045Y583690D01*
X51650Y583364D01*
X51213Y583073D01*
X50734Y582815D01*
X50214Y582592D01*
X49653Y582404D01*
X49050Y582249D01*
X48405Y582129D01*
X47719Y582043D01*
X46992Y581992D01*
X46223Y581975D01*
G37*
G36*
X62973Y581975D02*
X62147Y581995D01*
X61369Y582057D01*
X60639Y582159D01*
X59956Y582303D01*
X59321Y582487D01*
X58734Y582713D01*
X58195Y582980D01*
X57703Y583287D01*
X57265Y583632D01*
X56885Y584011D01*
X56717Y584213D01*
X56563Y584424D01*
X56425Y584643D01*
X56300Y584870D01*
X56191Y585106D01*
X56096Y585350D01*
X56015Y585603D01*
X55949Y585864D01*
X55898Y586133D01*
X55862Y586411D01*
X55840Y586697D01*
X55833Y586992D01*
X55849Y587449D01*
X55898Y587876D01*
X55981Y588271D01*
X56096Y588636D01*
X56241Y588974D01*
X56411Y589289D01*
X56606Y589582D01*
X56826Y589851D01*
X57070Y590098D01*
X57334Y590326D01*
X57619Y590534D01*
X57924Y590722D01*
X58579Y591055D01*
X59280Y591341D01*
X60021Y591587D01*
X60795Y591795D01*
X62384Y592169D01*
X63475Y592423D01*
X64368Y592656D01*
X65064Y592868D01*
X65561Y593059D01*
X65936Y593250D01*
X66265Y593461D01*
X66547Y593691D01*
X66782Y593942D01*
X66967Y594220D01*
X67040Y594372D01*
X67099Y594533D01*
X67146Y594702D01*
X67179Y594879D01*
X67198Y595066D01*
X67205Y595261D01*
X67188Y595591D01*
X67137Y595900D01*
X67052Y596187D01*
X66932Y596454D01*
X66779Y596700D01*
X66591Y596924D01*
X66369Y597127D01*
X66113Y597310D01*
X65825Y597471D01*
X65506Y597610D01*
X65156Y597728D01*
X64776Y597825D01*
X64365Y597900D01*
X63923Y597954D01*
X63451Y597986D01*
X62948Y597997D01*
X62489Y597987D01*
X62055Y597958D01*
X61647Y597910D01*
X61264Y597842D01*
X60908Y597755D01*
X60576Y597648D01*
X60271Y597522D01*
X59991Y597377D01*
X59735Y597211D01*
X59501Y597020D01*
X59288Y596806D01*
X59096Y596569D01*
X58926Y596308D01*
X58777Y596023D01*
X58650Y595715D01*
X58544Y595384D01*
X56237Y595788D01*
X56408Y596312D01*
X56609Y596795D01*
X56838Y597239D01*
X57096Y597642D01*
X57384Y598007D01*
X57700Y598331D01*
X58046Y598616D01*
X58421Y598862D01*
X58832Y599073D01*
X59287Y599256D01*
X59785Y599411D01*
X60326Y599538D01*
X60910Y599637D01*
X61538Y599707D01*
X62209Y599749D01*
X62923Y599763D01*
X63692Y599745D01*
X64414Y599688D01*
X65091Y599594D01*
X65722Y599463D01*
X66307Y599294D01*
X66847Y599087D01*
X67340Y598843D01*
X67788Y598561D01*
X68186Y598245D01*
X68531Y597896D01*
X68823Y597516D01*
X69062Y597104D01*
X69248Y596660D01*
X69321Y596427D01*
X69381Y596185D01*
X69427Y595935D01*
X69460Y595677D01*
X69480Y595412D01*
X69487Y595138D01*
X69467Y594667D01*
X69406Y594224D01*
X69304Y593809D01*
X69162Y593421D01*
X68981Y593058D01*
X68765Y592720D01*
X68512Y592405D01*
X68223Y592114D01*
X67889Y591842D01*
X67498Y591582D01*
X67051Y591336D01*
X66549Y591102D01*
X65956Y590875D01*
X65241Y590648D01*
X64401Y590421D01*
X63439Y590194D01*
X61292Y589691D01*
X60824Y589568D01*
X60390Y589431D01*
X59990Y589280D01*
X59623Y589115D01*
X59293Y588931D01*
X59002Y588725D01*
X58750Y588496D01*
X58538Y588244D01*
X58369Y587960D01*
X58248Y587636D01*
X58206Y587460D01*
X58175Y587273D01*
X58157Y587076D01*
X58151Y586870D01*
X58170Y586504D01*
X58228Y586161D01*
X58325Y585841D01*
X58459Y585543D01*
X58633Y585269D01*
X58845Y585017D01*
X59095Y584788D01*
X59384Y584582D01*
X59709Y584399D01*
X60065Y584241D01*
X60455Y584107D01*
X60876Y583997D01*
X61330Y583912D01*
X61817Y583851D01*
X62335Y583815D01*
X62887Y583803D01*
X63421Y583814D01*
X63927Y583848D01*
X64404Y583905D01*
X64853Y583985D01*
X65272Y584088D01*
X65663Y584213D01*
X66025Y584361D01*
X66359Y584533D01*
X66664Y584728D01*
X66941Y584949D01*
X67191Y585196D01*
X67414Y585470D01*
X67608Y585768D01*
X67776Y586093D01*
X67915Y586444D01*
X68027Y586821D01*
X70297Y586367D01*
X70150Y585835D01*
X69962Y585337D01*
X69733Y584874D01*
X69462Y584445D01*
X69149Y584051D01*
X68795Y583690D01*
X68400Y583364D01*
X67963Y583073D01*
X67484Y582815D01*
X66964Y582592D01*
X66403Y582404D01*
X65800Y582249D01*
X65155Y582129D01*
X64469Y582043D01*
X63742Y581992D01*
X62973Y581975D01*
G37*
G36*
X22055Y582220D02*
X11222Y582220D01*
X11222Y584097D01*
X15430Y584097D01*
X15430Y599506D01*
X17467Y599506D01*
X21552Y596696D01*
X21552Y594611D01*
X17651Y597396D01*
X17651Y584097D01*
X22055Y584097D01*
X22055Y582220D01*
G37*
G36*
X38318Y577227D02*
X23682Y577227D01*
X23682Y578822D01*
X38318Y578822D01*
X38318Y577227D01*
G37*
G36*
X46223Y551975D02*
X45397Y551995D01*
X44619Y552057D01*
X43889Y552159D01*
X43206Y552303D01*
X42571Y552487D01*
X41984Y552713D01*
X41445Y552980D01*
X40953Y553287D01*
X40515Y553632D01*
X40135Y554011D01*
X39967Y554213D01*
X39813Y554424D01*
X39675Y554643D01*
X39550Y554870D01*
X39441Y555106D01*
X39346Y555350D01*
X39265Y555603D01*
X39199Y555864D01*
X39148Y556133D01*
X39112Y556411D01*
X39090Y556697D01*
X39083Y556992D01*
X39099Y557449D01*
X39148Y557876D01*
X39231Y558271D01*
X39346Y558636D01*
X39491Y558974D01*
X39661Y559289D01*
X39856Y559582D01*
X40076Y559851D01*
X40320Y560098D01*
X40584Y560326D01*
X40869Y560534D01*
X41174Y560722D01*
X41829Y561055D01*
X42530Y561341D01*
X43271Y561587D01*
X44045Y561795D01*
X45634Y562169D01*
X46725Y562423D01*
X47618Y562656D01*
X48314Y562868D01*
X48811Y563059D01*
X49186Y563250D01*
X49515Y563461D01*
X49797Y563691D01*
X50032Y563942D01*
X50217Y564220D01*
X50290Y564372D01*
X50349Y564533D01*
X50396Y564702D01*
X50429Y564879D01*
X50448Y565066D01*
X50455Y565261D01*
X50438Y565591D01*
X50387Y565900D01*
X50302Y566187D01*
X50182Y566454D01*
X50029Y566700D01*
X49841Y566924D01*
X49619Y567127D01*
X49363Y567310D01*
X49075Y567471D01*
X48756Y567610D01*
X48406Y567728D01*
X48026Y567825D01*
X47615Y567900D01*
X47173Y567954D01*
X46701Y567986D01*
X46198Y567997D01*
X45739Y567987D01*
X45305Y567958D01*
X44897Y567910D01*
X44514Y567842D01*
X44158Y567755D01*
X43826Y567648D01*
X43521Y567522D01*
X43241Y567377D01*
X42985Y567211D01*
X42751Y567020D01*
X42538Y566806D01*
X42346Y566569D01*
X42176Y566308D01*
X42027Y566023D01*
X41900Y565715D01*
X41794Y565384D01*
X39487Y565788D01*
X39658Y566312D01*
X39859Y566795D01*
X40088Y567239D01*
X40346Y567642D01*
X40634Y568007D01*
X40950Y568331D01*
X41296Y568616D01*
X41671Y568862D01*
X42082Y569073D01*
X42537Y569256D01*
X43035Y569411D01*
X43576Y569538D01*
X44160Y569637D01*
X44788Y569707D01*
X45459Y569749D01*
X46173Y569763D01*
X46942Y569745D01*
X47664Y569688D01*
X48341Y569594D01*
X48972Y569463D01*
X49557Y569294D01*
X50097Y569087D01*
X50590Y568843D01*
X51038Y568561D01*
X51436Y568245D01*
X51781Y567896D01*
X52073Y567516D01*
X52312Y567104D01*
X52498Y566660D01*
X52571Y566427D01*
X52631Y566185D01*
X52677Y565935D01*
X52710Y565677D01*
X52730Y565412D01*
X52737Y565138D01*
X52717Y564667D01*
X52656Y564224D01*
X52554Y563809D01*
X52412Y563421D01*
X52231Y563058D01*
X52015Y562720D01*
X51762Y562405D01*
X51473Y562114D01*
X51139Y561842D01*
X50748Y561582D01*
X50301Y561336D01*
X49799Y561102D01*
X49206Y560875D01*
X48491Y560648D01*
X47651Y560421D01*
X46689Y560194D01*
X44542Y559691D01*
X44074Y559568D01*
X43640Y559431D01*
X43240Y559280D01*
X42873Y559115D01*
X42543Y558931D01*
X42252Y558725D01*
X42000Y558496D01*
X41788Y558244D01*
X41619Y557960D01*
X41498Y557636D01*
X41456Y557460D01*
X41425Y557273D01*
X41407Y557076D01*
X41401Y556870D01*
X41420Y556504D01*
X41478Y556161D01*
X41575Y555841D01*
X41709Y555543D01*
X41883Y555269D01*
X42095Y555017D01*
X42345Y554788D01*
X42634Y554582D01*
X42959Y554399D01*
X43315Y554241D01*
X43705Y554107D01*
X44126Y553997D01*
X44580Y553912D01*
X45067Y553851D01*
X45585Y553815D01*
X46137Y553803D01*
X46671Y553814D01*
X47177Y553848D01*
X47654Y553905D01*
X48103Y553985D01*
X48522Y554088D01*
X48913Y554213D01*
X49275Y554361D01*
X49609Y554533D01*
X49914Y554728D01*
X50191Y554949D01*
X50441Y555196D01*
X50664Y555470D01*
X50858Y555768D01*
X51026Y556093D01*
X51165Y556444D01*
X51277Y556821D01*
X53547Y556367D01*
X53400Y555835D01*
X53212Y555337D01*
X52983Y554874D01*
X52712Y554445D01*
X52399Y554051D01*
X52045Y553690D01*
X51650Y553364D01*
X51213Y553073D01*
X50734Y552815D01*
X50214Y552592D01*
X49653Y552404D01*
X49050Y552249D01*
X48405Y552129D01*
X47719Y552043D01*
X46992Y551992D01*
X46223Y551975D01*
G37*
G36*
X62973Y551975D02*
X62147Y551995D01*
X61369Y552057D01*
X60639Y552159D01*
X59956Y552303D01*
X59321Y552487D01*
X58734Y552713D01*
X58195Y552980D01*
X57703Y553287D01*
X57265Y553632D01*
X56885Y554011D01*
X56717Y554213D01*
X56563Y554424D01*
X56425Y554643D01*
X56300Y554870D01*
X56191Y555106D01*
X56096Y555350D01*
X56015Y555603D01*
X55949Y555864D01*
X55898Y556133D01*
X55862Y556411D01*
X55840Y556697D01*
X55833Y556992D01*
X55849Y557449D01*
X55898Y557876D01*
X55981Y558271D01*
X56096Y558636D01*
X56241Y558974D01*
X56411Y559289D01*
X56606Y559582D01*
X56826Y559851D01*
X57070Y560098D01*
X57334Y560326D01*
X57619Y560534D01*
X57924Y560722D01*
X58579Y561055D01*
X59280Y561341D01*
X60021Y561587D01*
X60795Y561795D01*
X62384Y562169D01*
X63475Y562423D01*
X64368Y562656D01*
X65064Y562868D01*
X65561Y563059D01*
X65936Y563250D01*
X66265Y563461D01*
X66547Y563691D01*
X66782Y563942D01*
X66967Y564220D01*
X67040Y564372D01*
X67099Y564533D01*
X67146Y564702D01*
X67179Y564879D01*
X67198Y565066D01*
X67205Y565261D01*
X67188Y565591D01*
X67137Y565900D01*
X67052Y566187D01*
X66932Y566454D01*
X66779Y566700D01*
X66591Y566924D01*
X66369Y567127D01*
X66113Y567310D01*
X65825Y567471D01*
X65506Y567610D01*
X65156Y567728D01*
X64776Y567825D01*
X64365Y567900D01*
X63923Y567954D01*
X63451Y567986D01*
X62948Y567997D01*
X62489Y567987D01*
X62055Y567958D01*
X61647Y567910D01*
X61264Y567842D01*
X60908Y567755D01*
X60576Y567648D01*
X60271Y567522D01*
X59991Y567377D01*
X59735Y567211D01*
X59501Y567020D01*
X59288Y566806D01*
X59096Y566569D01*
X58926Y566308D01*
X58777Y566023D01*
X58650Y565715D01*
X58544Y565384D01*
X56237Y565788D01*
X56408Y566312D01*
X56609Y566795D01*
X56838Y567239D01*
X57096Y567642D01*
X57384Y568007D01*
X57700Y568331D01*
X58046Y568616D01*
X58421Y568862D01*
X58832Y569073D01*
X59287Y569256D01*
X59785Y569411D01*
X60326Y569538D01*
X60910Y569637D01*
X61538Y569707D01*
X62209Y569749D01*
X62923Y569763D01*
X63692Y569745D01*
X64414Y569688D01*
X65091Y569594D01*
X65722Y569463D01*
X66307Y569294D01*
X66847Y569087D01*
X67340Y568843D01*
X67788Y568561D01*
X68186Y568245D01*
X68531Y567896D01*
X68823Y567516D01*
X69062Y567104D01*
X69248Y566660D01*
X69321Y566427D01*
X69381Y566185D01*
X69427Y565935D01*
X69460Y565677D01*
X69480Y565412D01*
X69487Y565138D01*
X69467Y564667D01*
X69406Y564224D01*
X69304Y563809D01*
X69162Y563421D01*
X68981Y563058D01*
X68765Y562720D01*
X68512Y562405D01*
X68223Y562114D01*
X67889Y561842D01*
X67498Y561582D01*
X67051Y561336D01*
X66549Y561102D01*
X65956Y560875D01*
X65241Y560648D01*
X64401Y560421D01*
X63439Y560194D01*
X61292Y559691D01*
X60824Y559568D01*
X60390Y559431D01*
X59990Y559280D01*
X59623Y559115D01*
X59293Y558931D01*
X59002Y558725D01*
X58750Y558496D01*
X58538Y558244D01*
X58369Y557960D01*
X58248Y557636D01*
X58206Y557460D01*
X58175Y557273D01*
X58157Y557076D01*
X58151Y556870D01*
X58170Y556504D01*
X58228Y556161D01*
X58325Y555841D01*
X58459Y555543D01*
X58633Y555269D01*
X58845Y555017D01*
X59095Y554788D01*
X59384Y554582D01*
X59709Y554399D01*
X60065Y554241D01*
X60455Y554107D01*
X60876Y553997D01*
X61330Y553912D01*
X61817Y553851D01*
X62335Y553815D01*
X62887Y553803D01*
X63421Y553814D01*
X63927Y553848D01*
X64404Y553905D01*
X64853Y553985D01*
X65272Y554088D01*
X65663Y554213D01*
X66025Y554361D01*
X66359Y554533D01*
X66664Y554728D01*
X66941Y554949D01*
X67191Y555196D01*
X67414Y555470D01*
X67608Y555768D01*
X67776Y556093D01*
X67915Y556444D01*
X68027Y556821D01*
X70297Y556367D01*
X70150Y555835D01*
X69962Y555337D01*
X69733Y554874D01*
X69462Y554445D01*
X69149Y554051D01*
X68795Y553690D01*
X68400Y553364D01*
X67963Y553073D01*
X67484Y552815D01*
X66964Y552592D01*
X66403Y552404D01*
X65800Y552249D01*
X65155Y552129D01*
X64469Y552043D01*
X63742Y551992D01*
X62973Y551975D01*
G37*
G36*
X22705Y552220D02*
X11259Y552220D01*
X11259Y554097D01*
X20276Y554097D01*
X20063Y554531D01*
X19792Y554973D01*
X19462Y555423D01*
X19074Y555882D01*
X18621Y556359D01*
X18095Y556865D01*
X17498Y557399D01*
X16829Y557961D01*
X15650Y558936D01*
X14679Y559774D01*
X13914Y560476D01*
X13357Y561041D01*
X12931Y561538D01*
X12561Y562034D01*
X12247Y562531D01*
X11989Y563028D01*
X11788Y563526D01*
X11644Y564025D01*
X11594Y564275D01*
X11558Y564526D01*
X11536Y564777D01*
X11529Y565028D01*
X11551Y565579D01*
X11617Y566098D01*
X11726Y566584D01*
X11880Y567038D01*
X12078Y567460D01*
X12319Y567849D01*
X12604Y568206D01*
X12934Y568530D01*
X13304Y568819D01*
X13712Y569070D01*
X14157Y569282D01*
X14640Y569455D01*
X15162Y569590D01*
X15720Y569686D01*
X16317Y569744D01*
X16951Y569763D01*
X17533Y569744D01*
X18087Y569687D01*
X18615Y569591D01*
X19115Y569457D01*
X19589Y569284D01*
X20035Y569073D01*
X20454Y568824D01*
X20847Y568537D01*
X21205Y568217D01*
X21525Y567870D01*
X21804Y567497D01*
X22044Y567098D01*
X22244Y566672D01*
X22405Y566220D01*
X22526Y565742D01*
X22607Y565236D01*
X20350Y565028D01*
X20298Y565365D01*
X20223Y565682D01*
X20124Y565980D01*
X20002Y566259D01*
X19856Y566519D01*
X19686Y566759D01*
X19493Y566980D01*
X19276Y567181D01*
X19040Y567361D01*
X18788Y567516D01*
X18521Y567648D01*
X18238Y567756D01*
X17940Y567840D01*
X17626Y567900D01*
X17296Y567936D01*
X16951Y567948D01*
X16590Y567935D01*
X16250Y567899D01*
X15930Y567837D01*
X15630Y567751D01*
X15350Y567641D01*
X15091Y567506D01*
X14851Y567347D01*
X14633Y567163D01*
X14437Y566956D01*
X14268Y566730D01*
X14124Y566484D01*
X14007Y566218D01*
X13916Y565932D01*
X13851Y565626D01*
X13812Y565300D01*
X13799Y564954D01*
X13806Y564694D01*
X13829Y564441D01*
X13867Y564194D01*
X13920Y563954D01*
X13988Y563722D01*
X14071Y563496D01*
X14170Y563277D01*
X14283Y563065D01*
X14544Y562652D01*
X14843Y562249D01*
X15179Y561855D01*
X15553Y561470D01*
X16386Y560710D01*
X17313Y559949D01*
X18293Y559156D01*
X19282Y558299D01*
X19773Y557841D01*
X20253Y557357D01*
X20721Y556847D01*
X21178Y556311D01*
X21611Y555741D01*
X22010Y555129D01*
X22375Y554475D01*
X22705Y553778D01*
X22705Y552220D01*
G37*
G36*
X38318Y547227D02*
X23682Y547227D01*
X23682Y548822D01*
X38318Y548822D01*
X38318Y547227D01*
G37*
G36*
X43497Y621975D02*
X42848Y621992D01*
X42222Y622043D01*
X41617Y622128D01*
X41034Y622248D01*
X40473Y622401D01*
X39934Y622589D01*
X39416Y622811D01*
X38921Y623066D01*
X38450Y623354D01*
X38008Y623671D01*
X37594Y624018D01*
X37208Y624395D01*
X36850Y624800D01*
X36521Y625236D01*
X36219Y625700D01*
X35946Y626195D01*
X35703Y626715D01*
X35492Y627255D01*
X35314Y627817D01*
X35168Y628400D01*
X35055Y629004D01*
X34974Y629629D01*
X34925Y630275D01*
X34909Y630943D01*
X34925Y631612D01*
X34973Y632259D01*
X35053Y632883D01*
X35165Y633485D01*
X35309Y634064D01*
X35485Y634621D01*
X35694Y635155D01*
X35934Y635666D01*
X36204Y636151D01*
X36503Y636606D01*
X36830Y637032D01*
X37187Y637428D01*
X37571Y637794D01*
X37984Y638131D01*
X38426Y638437D01*
X38896Y638714D01*
X39392Y638960D01*
X39909Y639173D01*
X40448Y639354D01*
X41010Y639501D01*
X41592Y639616D01*
X42197Y639698D01*
X42824Y639747D01*
X43472Y639763D01*
X43971Y639754D01*
X44457Y639727D01*
X44928Y639681D01*
X45385Y639617D01*
X45829Y639535D01*
X46259Y639435D01*
X46674Y639316D01*
X47076Y639179D01*
X47464Y639024D01*
X47838Y638850D01*
X48198Y638659D01*
X48544Y638449D01*
X48877Y638221D01*
X49195Y637974D01*
X49500Y637709D01*
X49790Y637426D01*
X50065Y637127D01*
X50322Y636814D01*
X50562Y636486D01*
X50783Y636145D01*
X50987Y635789D01*
X51173Y635419D01*
X51342Y635035D01*
X51493Y634637D01*
X51626Y634225D01*
X51741Y633798D01*
X51838Y633358D01*
X51918Y632903D01*
X51980Y632434D01*
X52025Y631951D01*
X52051Y631454D01*
X52060Y630943D01*
X52044Y630272D01*
X51996Y629623D01*
X51917Y628996D01*
X51805Y628389D01*
X51662Y627804D01*
X51487Y627240D01*
X51280Y626698D01*
X51042Y626176D01*
X50773Y625681D01*
X50476Y625215D01*
X50150Y624780D01*
X49795Y624375D01*
X49412Y623999D01*
X49000Y623654D01*
X48560Y623339D01*
X48091Y623054D01*
X47597Y622801D01*
X47080Y622582D01*
X46539Y622396D01*
X45977Y622245D01*
X45391Y622126D01*
X44782Y622042D01*
X44151Y621992D01*
X43497Y621975D01*
G37*
%LPC*%
G36*
X43497Y623876D02*
X43855Y623884D01*
X44204Y623906D01*
X44543Y623943D01*
X44871Y623995D01*
X45190Y624062D01*
X45499Y624144D01*
X45798Y624241D01*
X46087Y624353D01*
X46366Y624480D01*
X46635Y624621D01*
X46895Y624778D01*
X47144Y624949D01*
X47383Y625136D01*
X47613Y625337D01*
X47833Y625553D01*
X48042Y625784D01*
X48241Y626028D01*
X48426Y626282D01*
X48599Y626546D01*
X48759Y626822D01*
X48906Y627107D01*
X49040Y627404D01*
X49162Y627710D01*
X49271Y628027D01*
X49367Y628355D01*
X49450Y628693D01*
X49520Y629042D01*
X49578Y629401D01*
X49622Y629771D01*
X49654Y630151D01*
X49674Y630541D01*
X49680Y630943D01*
X49674Y631346D01*
X49655Y631739D01*
X49623Y632120D01*
X49579Y632489D01*
X49522Y632847D01*
X49452Y633194D01*
X49370Y633529D01*
X49275Y633853D01*
X49168Y634166D01*
X49047Y634467D01*
X48915Y634756D01*
X48769Y635035D01*
X48611Y635302D01*
X48440Y635557D01*
X48257Y635801D01*
X48061Y636034D01*
X47853Y636254D01*
X47635Y636459D01*
X47406Y636651D01*
X47167Y636828D01*
X46917Y636991D01*
X46656Y637140D01*
X46385Y637275D01*
X46104Y637396D01*
X45812Y637502D01*
X45509Y637594D01*
X45196Y637672D01*
X44872Y637736D01*
X44538Y637786D01*
X44194Y637821D01*
X43838Y637842D01*
X43472Y637850D01*
X43110Y637842D01*
X42757Y637821D01*
X42415Y637785D01*
X42083Y637735D01*
X41762Y637670D01*
X41451Y637591D01*
X41151Y637497D01*
X40861Y637389D01*
X40581Y637267D01*
X40312Y637131D01*
X40053Y636980D01*
X39805Y636814D01*
X39567Y636635D01*
X39339Y636441D01*
X39122Y636232D01*
X38915Y636009D01*
X38719Y635774D01*
X38537Y635528D01*
X38367Y635270D01*
X38209Y635003D01*
X38064Y634724D01*
X37932Y634434D01*
X37812Y634134D01*
X37705Y633823D01*
X37610Y633500D01*
X37528Y633168D01*
X37459Y632824D01*
X37402Y632469D01*
X37358Y632104D01*
X37327Y631728D01*
X37308Y631340D01*
X37302Y630943D01*
X37308Y630527D01*
X37327Y630123D01*
X37358Y629731D01*
X37402Y629351D01*
X37458Y628983D01*
X37527Y628627D01*
X37608Y628283D01*
X37702Y627951D01*
X37808Y627630D01*
X37927Y627322D01*
X38058Y627026D01*
X38202Y626741D01*
X38358Y626469D01*
X38527Y626208D01*
X38709Y625959D01*
X38903Y625723D01*
X39108Y625499D01*
X39325Y625290D01*
X39552Y625095D01*
X39790Y624915D01*
X40039Y624749D01*
X40299Y624597D01*
X40570Y624460D01*
X40852Y624338D01*
X41144Y624230D01*
X41448Y624136D01*
X41762Y624056D01*
X42087Y623992D01*
X42423Y623941D01*
X42770Y623905D01*
X43128Y623883D01*
X43497Y623876D01*
G37*
%LPD*%
G36*
X57429Y622220D02*
X55319Y622220D01*
X55319Y639506D01*
X58325Y639506D01*
X62840Y627520D01*
X63001Y627077D01*
X63263Y626262D01*
X63522Y625390D01*
X63674Y624772D01*
X63786Y625255D01*
X63974Y625968D01*
X64206Y626770D01*
X64447Y627520D01*
X69047Y639506D01*
X72126Y639506D01*
X72126Y622220D01*
X70041Y622220D01*
X70041Y633752D01*
X70090Y636071D01*
X70127Y637432D01*
X69722Y636083D01*
X69035Y633997D01*
X64508Y622220D01*
X62864Y622220D01*
X58399Y633997D01*
X58152Y634677D01*
X57889Y635476D01*
X57612Y636394D01*
X57319Y637432D01*
X57367Y636540D01*
X57402Y635629D01*
X57422Y634700D01*
X57429Y633752D01*
X57429Y622220D01*
G37*
G36*
X25254Y621975D02*
X24428Y621995D01*
X23650Y622057D01*
X22920Y622159D01*
X22237Y622303D01*
X21603Y622487D01*
X21016Y622713D01*
X20476Y622980D01*
X19985Y623287D01*
X19546Y623632D01*
X19166Y624011D01*
X18998Y624213D01*
X18845Y624424D01*
X18706Y624643D01*
X18582Y624870D01*
X18472Y625106D01*
X18377Y625350D01*
X18297Y625603D01*
X18231Y625864D01*
X18180Y626133D01*
X18143Y626411D01*
X18121Y626697D01*
X18114Y626992D01*
X18130Y627449D01*
X18180Y627876D01*
X18262Y628271D01*
X18378Y628636D01*
X18522Y628974D01*
X18692Y629289D01*
X18887Y629582D01*
X19108Y629851D01*
X19351Y630098D01*
X19615Y630326D01*
X19900Y630534D01*
X20206Y630722D01*
X20860Y631055D01*
X21561Y631341D01*
X22302Y631587D01*
X23076Y631795D01*
X24665Y632169D01*
X25756Y632423D01*
X26649Y632656D01*
X27345Y632868D01*
X27842Y633059D01*
X28218Y633250D01*
X28546Y633461D01*
X28828Y633691D01*
X29063Y633942D01*
X29248Y634220D01*
X29321Y634372D01*
X29380Y634533D01*
X29427Y634702D01*
X29460Y634879D01*
X29480Y635066D01*
X29486Y635261D01*
X29469Y635591D01*
X29418Y635900D01*
X29333Y636187D01*
X29213Y636454D01*
X29060Y636700D01*
X28872Y636924D01*
X28650Y637127D01*
X28394Y637310D01*
X28106Y637471D01*
X27787Y637610D01*
X27438Y637728D01*
X27057Y637825D01*
X26646Y637900D01*
X26205Y637954D01*
X25732Y637986D01*
X25229Y637997D01*
X24770Y637987D01*
X24336Y637958D01*
X23928Y637910D01*
X23545Y637842D01*
X23189Y637755D01*
X22858Y637648D01*
X22552Y637522D01*
X22273Y637377D01*
X22017Y637211D01*
X21782Y637020D01*
X21569Y636806D01*
X21377Y636569D01*
X21207Y636308D01*
X21058Y636023D01*
X20931Y635715D01*
X20825Y635384D01*
X18519Y635788D01*
X18690Y636312D01*
X18890Y636795D01*
X19119Y637239D01*
X19377Y637642D01*
X19665Y638007D01*
X19982Y638331D01*
X20327Y638616D01*
X20702Y638862D01*
X21114Y639073D01*
X21568Y639256D01*
X22066Y639411D01*
X22607Y639538D01*
X23191Y639637D01*
X23819Y639707D01*
X24490Y639749D01*
X25205Y639763D01*
X25973Y639745D01*
X26696Y639688D01*
X27372Y639594D01*
X28003Y639463D01*
X28589Y639294D01*
X29128Y639087D01*
X29621Y638843D01*
X30069Y638561D01*
X30467Y638245D01*
X30812Y637896D01*
X31104Y637516D01*
X31343Y637104D01*
X31529Y636660D01*
X31602Y636427D01*
X31662Y636185D01*
X31708Y635935D01*
X31742Y635677D01*
X31762Y635412D01*
X31768Y635138D01*
X31748Y634667D01*
X31687Y634224D01*
X31585Y633809D01*
X31443Y633421D01*
X31262Y633058D01*
X31046Y632720D01*
X30793Y632405D01*
X30505Y632114D01*
X30170Y631842D01*
X29779Y631582D01*
X29333Y631336D01*
X28830Y631102D01*
X28238Y630875D01*
X27522Y630648D01*
X26683Y630421D01*
X25720Y630194D01*
X23573Y629691D01*
X23105Y629568D01*
X22671Y629431D01*
X22271Y629280D01*
X21905Y629115D01*
X21575Y628931D01*
X21284Y628725D01*
X21032Y628496D01*
X20819Y628244D01*
X20650Y627960D01*
X20529Y627636D01*
X20487Y627460D01*
X20457Y627273D01*
X20439Y627076D01*
X20432Y626870D01*
X20452Y626504D01*
X20510Y626161D01*
X20606Y625841D01*
X20741Y625543D01*
X20914Y625269D01*
X21126Y625017D01*
X21376Y624788D01*
X21665Y624582D01*
X21990Y624399D01*
X22347Y624241D01*
X22736Y624107D01*
X23158Y623997D01*
X23612Y623912D01*
X24098Y623851D01*
X24617Y623815D01*
X25168Y623803D01*
X25703Y623814D01*
X26208Y623848D01*
X26686Y623905D01*
X27134Y623985D01*
X27554Y624088D01*
X27944Y624213D01*
X28306Y624361D01*
X28640Y624533D01*
X28945Y624728D01*
X29223Y624949D01*
X29472Y625196D01*
X29695Y625470D01*
X29890Y625768D01*
X30057Y626093D01*
X30196Y626444D01*
X30308Y626821D01*
X32578Y626367D01*
X32431Y625835D01*
X32243Y625337D01*
X32014Y624874D01*
X31743Y624445D01*
X31430Y624051D01*
X31076Y623690D01*
X30681Y623364D01*
X30244Y623073D01*
X29765Y622815D01*
X29245Y622592D01*
X28684Y622404D01*
X28081Y622249D01*
X27436Y622129D01*
X26750Y622043D01*
X26023Y621992D01*
X25254Y621975D01*
G37*
G36*
X14650Y622220D02*
X12307Y622220D01*
X12307Y639506D01*
X14650Y639506D01*
X14650Y622220D01*
G37*
G36*
X19778Y651975D02*
X19130Y651992D01*
X18503Y652043D01*
X17898Y652128D01*
X17315Y652248D01*
X16754Y652401D01*
X16215Y652589D01*
X15698Y652811D01*
X15202Y653066D01*
X14732Y653354D01*
X14289Y653671D01*
X13875Y654018D01*
X13489Y654395D01*
X13131Y654800D01*
X12802Y655236D01*
X12500Y655700D01*
X12227Y656195D01*
X11984Y656715D01*
X11774Y657255D01*
X11595Y657817D01*
X11450Y658400D01*
X11336Y659004D01*
X11255Y659629D01*
X11207Y660275D01*
X11191Y660943D01*
X11207Y661612D01*
X11255Y662259D01*
X11335Y662883D01*
X11447Y663485D01*
X11591Y664064D01*
X11767Y664621D01*
X11975Y665155D01*
X12215Y665666D01*
X12485Y666151D01*
X12784Y666606D01*
X13112Y667032D01*
X13468Y667428D01*
X13852Y667794D01*
X14266Y668131D01*
X14707Y668437D01*
X15178Y668714D01*
X15673Y668960D01*
X16191Y669173D01*
X16730Y669354D01*
X17291Y669501D01*
X17874Y669616D01*
X18479Y669698D01*
X19105Y669747D01*
X19754Y669763D01*
X20253Y669754D01*
X20738Y669727D01*
X21209Y669681D01*
X21667Y669617D01*
X22110Y669535D01*
X22540Y669435D01*
X22956Y669316D01*
X23357Y669179D01*
X23745Y669024D01*
X24119Y668850D01*
X24479Y668659D01*
X24826Y668449D01*
X25158Y668221D01*
X25476Y667974D01*
X25781Y667709D01*
X26072Y667426D01*
X26347Y667127D01*
X26604Y666814D01*
X26843Y666486D01*
X27065Y666145D01*
X27269Y665789D01*
X27455Y665419D01*
X27623Y665035D01*
X27774Y664637D01*
X27907Y664225D01*
X28022Y663798D01*
X28120Y663358D01*
X28199Y662903D01*
X28261Y662434D01*
X28306Y661951D01*
X28332Y661454D01*
X28341Y660943D01*
X28325Y660272D01*
X28278Y659623D01*
X28198Y658996D01*
X28087Y658389D01*
X27944Y657804D01*
X27769Y657240D01*
X27562Y656698D01*
X27323Y656176D01*
X27054Y655681D01*
X26757Y655215D01*
X26431Y654780D01*
X26076Y654375D01*
X25693Y653999D01*
X25282Y653654D01*
X24841Y653339D01*
X24373Y653054D01*
X23878Y652801D01*
X23361Y652582D01*
X22821Y652396D01*
X22258Y652245D01*
X21672Y652126D01*
X21064Y652042D01*
X20432Y651992D01*
X19778Y651975D01*
G37*
%LPC*%
G36*
X19778Y653876D02*
X20137Y653884D01*
X20485Y653906D01*
X20824Y653943D01*
X21153Y653995D01*
X21471Y654062D01*
X21780Y654144D01*
X22079Y654241D01*
X22368Y654353D01*
X22647Y654480D01*
X22917Y654621D01*
X23176Y654778D01*
X23425Y654949D01*
X23665Y655136D01*
X23894Y655337D01*
X24114Y655553D01*
X24323Y655784D01*
X24522Y656028D01*
X24707Y656282D01*
X24880Y656546D01*
X25040Y656822D01*
X25187Y657107D01*
X25322Y657404D01*
X25443Y657710D01*
X25552Y658027D01*
X25648Y658355D01*
X25731Y658693D01*
X25801Y659042D01*
X25859Y659401D01*
X25904Y659771D01*
X25936Y660151D01*
X25955Y660541D01*
X25961Y660943D01*
X25955Y661346D01*
X25936Y661739D01*
X25904Y662120D01*
X25860Y662489D01*
X25803Y662847D01*
X25734Y663194D01*
X25651Y663529D01*
X25556Y663853D01*
X25449Y664166D01*
X25329Y664467D01*
X25196Y664756D01*
X25050Y665035D01*
X24892Y665302D01*
X24721Y665557D01*
X24538Y665801D01*
X24342Y666034D01*
X24134Y666254D01*
X23916Y666459D01*
X23687Y666651D01*
X23448Y666828D01*
X23198Y666991D01*
X22938Y667140D01*
X22667Y667275D01*
X22385Y667396D01*
X22093Y667502D01*
X21791Y667594D01*
X21477Y667672D01*
X21154Y667736D01*
X20820Y667786D01*
X20475Y667821D01*
X20119Y667842D01*
X19754Y667850D01*
X19391Y667842D01*
X19038Y667821D01*
X18696Y667785D01*
X18365Y667735D01*
X18043Y667670D01*
X17733Y667591D01*
X17432Y667497D01*
X17142Y667389D01*
X16862Y667267D01*
X16593Y667131D01*
X16334Y666980D01*
X16086Y666814D01*
X15848Y666635D01*
X15620Y666441D01*
X15403Y666232D01*
X15196Y666009D01*
X15001Y665774D01*
X14818Y665528D01*
X14648Y665270D01*
X14490Y665003D01*
X14345Y664724D01*
X14213Y664434D01*
X14093Y664134D01*
X13986Y663823D01*
X13892Y663500D01*
X13810Y663168D01*
X13740Y662824D01*
X13684Y662469D01*
X13640Y662104D01*
X13608Y661728D01*
X13589Y661340D01*
X13583Y660943D01*
X13589Y660527D01*
X13608Y660123D01*
X13639Y659731D01*
X13683Y659351D01*
X13739Y658983D01*
X13808Y658627D01*
X13889Y658283D01*
X13983Y657951D01*
X14089Y657630D01*
X14208Y657322D01*
X14340Y657026D01*
X14483Y656741D01*
X14640Y656469D01*
X14809Y656208D01*
X14990Y655959D01*
X15184Y655723D01*
X15389Y655499D01*
X15606Y655290D01*
X15833Y655095D01*
X16071Y654915D01*
X16320Y654749D01*
X16580Y654597D01*
X16851Y654460D01*
X17133Y654338D01*
X17425Y654230D01*
X17729Y654136D01*
X18043Y654056D01*
X18368Y653992D01*
X18705Y653941D01*
X19052Y653905D01*
X19409Y653883D01*
X19778Y653876D01*
G37*
%LPD*%
G36*
X57429Y652220D02*
X55319Y652220D01*
X55319Y669506D01*
X58325Y669506D01*
X62840Y657520D01*
X63001Y657077D01*
X63263Y656262D01*
X63522Y655390D01*
X63674Y654772D01*
X63786Y655255D01*
X63974Y655968D01*
X64206Y656770D01*
X64447Y657520D01*
X69047Y669506D01*
X72126Y669506D01*
X72126Y652220D01*
X70041Y652220D01*
X70041Y663752D01*
X70090Y666071D01*
X70127Y667432D01*
X69722Y666083D01*
X69035Y663997D01*
X64508Y652220D01*
X62864Y652220D01*
X58399Y663997D01*
X58152Y664677D01*
X57889Y665476D01*
X57612Y666394D01*
X57319Y667432D01*
X57367Y666540D01*
X57402Y665629D01*
X57422Y664700D01*
X57429Y663752D01*
X57429Y652220D01*
G37*
G36*
X37816Y651975D02*
X36991Y651995D01*
X36213Y652057D01*
X35482Y652159D01*
X34800Y652303D01*
X34165Y652487D01*
X33578Y652713D01*
X33039Y652980D01*
X32547Y653287D01*
X32109Y653632D01*
X31729Y654011D01*
X31561Y654213D01*
X31407Y654424D01*
X31268Y654643D01*
X31144Y654870D01*
X31034Y655106D01*
X30939Y655350D01*
X30859Y655603D01*
X30793Y655864D01*
X30742Y656133D01*
X30706Y656411D01*
X30684Y656697D01*
X30676Y656992D01*
X30693Y657449D01*
X30742Y657876D01*
X30825Y658271D01*
X30940Y658636D01*
X31085Y658974D01*
X31254Y659289D01*
X31450Y659582D01*
X31670Y659851D01*
X31913Y660098D01*
X32178Y660326D01*
X32462Y660534D01*
X32768Y660722D01*
X33423Y661055D01*
X34124Y661341D01*
X34864Y661587D01*
X35639Y661795D01*
X37227Y662169D01*
X38319Y662423D01*
X39212Y662656D01*
X39907Y662868D01*
X40405Y663059D01*
X40780Y663250D01*
X41109Y663461D01*
X41391Y663691D01*
X41626Y663942D01*
X41811Y664220D01*
X41883Y664372D01*
X41943Y664533D01*
X41989Y664702D01*
X42022Y664879D01*
X42042Y665066D01*
X42049Y665261D01*
X42032Y665591D01*
X41981Y665900D01*
X41895Y666187D01*
X41776Y666454D01*
X41622Y666700D01*
X41435Y666924D01*
X41213Y667127D01*
X40957Y667310D01*
X40669Y667471D01*
X40350Y667610D01*
X40000Y667728D01*
X39620Y667825D01*
X39209Y667900D01*
X38767Y667954D01*
X38295Y667986D01*
X37792Y667997D01*
X37332Y667987D01*
X36899Y667958D01*
X36490Y667910D01*
X36108Y667842D01*
X35751Y667755D01*
X35420Y667648D01*
X35115Y667522D01*
X34835Y667377D01*
X34579Y667211D01*
X34344Y667020D01*
X34131Y666806D01*
X33940Y666569D01*
X33769Y666308D01*
X33621Y666023D01*
X33493Y665715D01*
X33388Y665384D01*
X31081Y665788D01*
X31252Y666312D01*
X31452Y666795D01*
X31682Y667239D01*
X31940Y667642D01*
X32227Y668007D01*
X32544Y668331D01*
X32890Y668616D01*
X33265Y668862D01*
X33676Y669073D01*
X34131Y669256D01*
X34628Y669411D01*
X35169Y669538D01*
X35754Y669637D01*
X36382Y669707D01*
X37053Y669749D01*
X37767Y669763D01*
X38536Y669745D01*
X39258Y669688D01*
X39935Y669594D01*
X40566Y669463D01*
X41151Y669294D01*
X41690Y669087D01*
X42184Y668843D01*
X42632Y668561D01*
X43030Y668245D01*
X43375Y667896D01*
X43667Y667516D01*
X43906Y667104D01*
X44092Y666660D01*
X44165Y666427D01*
X44224Y666185D01*
X44271Y665935D01*
X44304Y665677D01*
X44324Y665412D01*
X44331Y665138D01*
X44310Y664667D01*
X44249Y664224D01*
X44148Y663809D01*
X44006Y663421D01*
X43825Y663058D01*
X43608Y662720D01*
X43356Y662405D01*
X43067Y662114D01*
X42732Y661842D01*
X42342Y661582D01*
X41895Y661336D01*
X41392Y661102D01*
X40800Y660875D01*
X40084Y660648D01*
X39245Y660421D01*
X38283Y660194D01*
X36136Y659691D01*
X35668Y659568D01*
X35234Y659431D01*
X34834Y659280D01*
X34467Y659115D01*
X34137Y658931D01*
X33846Y658725D01*
X33594Y658496D01*
X33381Y658244D01*
X33212Y657960D01*
X33092Y657636D01*
X33049Y657460D01*
X33019Y657273D01*
X33001Y657076D01*
X32995Y656870D01*
X33014Y656504D01*
X33072Y656161D01*
X33168Y655841D01*
X33303Y655543D01*
X33477Y655269D01*
X33688Y655017D01*
X33939Y654788D01*
X34228Y654582D01*
X34552Y654399D01*
X34909Y654241D01*
X35298Y654107D01*
X35720Y653997D01*
X36174Y653912D01*
X36660Y653851D01*
X37179Y653815D01*
X37730Y653803D01*
X38265Y653814D01*
X38771Y653848D01*
X39248Y653905D01*
X39696Y653985D01*
X40116Y654088D01*
X40507Y654213D01*
X40869Y654361D01*
X41202Y654533D01*
X41507Y654728D01*
X41785Y654949D01*
X42035Y655196D01*
X42257Y655470D01*
X42452Y655768D01*
X42619Y656093D01*
X42759Y656444D01*
X42871Y656821D01*
X45140Y656367D01*
X44994Y655835D01*
X44806Y655337D01*
X44576Y654874D01*
X44305Y654445D01*
X43993Y654051D01*
X43639Y653690D01*
X43243Y653364D01*
X42806Y653073D01*
X42328Y652815D01*
X41808Y652592D01*
X41246Y652404D01*
X40643Y652249D01*
X39999Y652129D01*
X39313Y652043D01*
X38585Y651992D01*
X37816Y651975D01*
G37*
G36*
X50931Y652220D02*
X48588Y652220D01*
X48588Y669506D01*
X50931Y669506D01*
X50931Y652220D01*
G37*
G36*
X53191Y681975D02*
X52366Y681995D01*
X51588Y682057D01*
X50857Y682159D01*
X50175Y682303D01*
X49540Y682487D01*
X48953Y682713D01*
X48414Y682980D01*
X47922Y683287D01*
X47484Y683632D01*
X47104Y684011D01*
X46936Y684213D01*
X46782Y684424D01*
X46643Y684643D01*
X46519Y684870D01*
X46409Y685106D01*
X46314Y685350D01*
X46234Y685603D01*
X46168Y685864D01*
X46117Y686133D01*
X46081Y686411D01*
X46059Y686697D01*
X46051Y686992D01*
X46068Y687449D01*
X46117Y687876D01*
X46200Y688271D01*
X46315Y688636D01*
X46460Y688974D01*
X46629Y689289D01*
X46825Y689582D01*
X47045Y689851D01*
X47288Y690098D01*
X47553Y690326D01*
X47837Y690534D01*
X48143Y690722D01*
X48798Y691055D01*
X49499Y691341D01*
X50239Y691587D01*
X51014Y691795D01*
X52602Y692169D01*
X53694Y692423D01*
X54587Y692656D01*
X55282Y692868D01*
X55780Y693059D01*
X56155Y693250D01*
X56484Y693461D01*
X56766Y693691D01*
X57001Y693942D01*
X57186Y694220D01*
X57258Y694372D01*
X57318Y694533D01*
X57364Y694702D01*
X57397Y694879D01*
X57417Y695066D01*
X57424Y695261D01*
X57407Y695591D01*
X57356Y695900D01*
X57270Y696187D01*
X57151Y696454D01*
X56997Y696700D01*
X56810Y696924D01*
X56588Y697127D01*
X56332Y697310D01*
X56044Y697471D01*
X55725Y697610D01*
X55375Y697728D01*
X54995Y697825D01*
X54584Y697900D01*
X54142Y697954D01*
X53670Y697986D01*
X53167Y697997D01*
X52707Y697987D01*
X52274Y697958D01*
X51865Y697910D01*
X51483Y697842D01*
X51126Y697755D01*
X50795Y697648D01*
X50490Y697522D01*
X50210Y697377D01*
X49954Y697211D01*
X49719Y697020D01*
X49506Y696806D01*
X49315Y696569D01*
X49144Y696308D01*
X48996Y696023D01*
X48868Y695715D01*
X48763Y695384D01*
X46456Y695788D01*
X46627Y696312D01*
X46827Y696795D01*
X47057Y697239D01*
X47315Y697642D01*
X47602Y698007D01*
X47919Y698331D01*
X48265Y698616D01*
X48640Y698862D01*
X49051Y699073D01*
X49506Y699256D01*
X50003Y699411D01*
X50544Y699538D01*
X51129Y699637D01*
X51757Y699707D01*
X52428Y699749D01*
X53142Y699763D01*
X53911Y699745D01*
X54633Y699688D01*
X55310Y699594D01*
X55941Y699463D01*
X56526Y699294D01*
X57065Y699087D01*
X57559Y698843D01*
X58007Y698561D01*
X58405Y698245D01*
X58750Y697896D01*
X59042Y697516D01*
X59281Y697104D01*
X59467Y696660D01*
X59540Y696427D01*
X59599Y696185D01*
X59646Y695935D01*
X59679Y695677D01*
X59699Y695412D01*
X59706Y695138D01*
X59685Y694667D01*
X59624Y694224D01*
X59523Y693809D01*
X59381Y693421D01*
X59200Y693058D01*
X58983Y692720D01*
X58731Y692405D01*
X58442Y692114D01*
X58107Y691842D01*
X57717Y691582D01*
X57270Y691336D01*
X56767Y691102D01*
X56175Y690875D01*
X55459Y690648D01*
X54620Y690421D01*
X53658Y690194D01*
X51511Y689691D01*
X51043Y689568D01*
X50609Y689431D01*
X50209Y689280D01*
X49842Y689115D01*
X49512Y688931D01*
X49221Y688725D01*
X48969Y688496D01*
X48756Y688244D01*
X48587Y687960D01*
X48467Y687636D01*
X48424Y687460D01*
X48394Y687273D01*
X48376Y687076D01*
X48370Y686870D01*
X48389Y686504D01*
X48447Y686161D01*
X48543Y685841D01*
X48678Y685543D01*
X48852Y685269D01*
X49063Y685017D01*
X49314Y684788D01*
X49603Y684582D01*
X49927Y684399D01*
X50284Y684241D01*
X50673Y684107D01*
X51095Y683997D01*
X51549Y683912D01*
X52035Y683851D01*
X52554Y683815D01*
X53105Y683803D01*
X53640Y683814D01*
X54146Y683848D01*
X54623Y683905D01*
X55071Y683985D01*
X55491Y684088D01*
X55882Y684213D01*
X56244Y684361D01*
X56577Y684533D01*
X56882Y684728D01*
X57160Y684949D01*
X57410Y685196D01*
X57632Y685470D01*
X57827Y685768D01*
X57994Y686093D01*
X58134Y686444D01*
X58246Y686821D01*
X60515Y686367D01*
X60369Y685835D01*
X60181Y685337D01*
X59951Y684874D01*
X59680Y684445D01*
X59368Y684051D01*
X59014Y683690D01*
X58618Y683364D01*
X58181Y683073D01*
X57703Y682815D01*
X57183Y682592D01*
X56621Y682404D01*
X56018Y682249D01*
X55374Y682129D01*
X54688Y682043D01*
X53960Y681992D01*
X53191Y681975D01*
G37*
G36*
X13182Y682220D02*
X10274Y682220D01*
X18616Y691998D01*
X11255Y699506D01*
X14016Y699506D01*
X22346Y690844D01*
X22346Y699506D01*
X24689Y699506D01*
X24689Y682220D01*
X22346Y682220D01*
X22346Y688845D01*
X20088Y690562D01*
X13182Y682220D01*
G37*
G36*
X35202Y681975D02*
X34574Y681993D01*
X33965Y682048D01*
X33376Y682139D01*
X32805Y682266D01*
X32255Y682430D01*
X31723Y682630D01*
X31211Y682867D01*
X30718Y683140D01*
X30249Y683448D01*
X29806Y683790D01*
X29391Y684164D01*
X29002Y684572D01*
X28641Y685014D01*
X28306Y685489D01*
X27999Y685997D01*
X27719Y686538D01*
X29633Y687495D01*
X29868Y687060D01*
X30118Y686653D01*
X30381Y686274D01*
X30659Y685923D01*
X30951Y685600D01*
X31257Y685305D01*
X31577Y685038D01*
X31911Y684799D01*
X32260Y684589D01*
X32622Y684406D01*
X32998Y684252D01*
X33389Y684125D01*
X33793Y684027D01*
X34212Y683957D01*
X34645Y683915D01*
X35092Y683901D01*
X35441Y683908D01*
X35782Y683931D01*
X36113Y683969D01*
X36436Y684021D01*
X36749Y684089D01*
X37053Y684172D01*
X37347Y684271D01*
X37633Y684384D01*
X37909Y684512D01*
X38177Y684655D01*
X38435Y684814D01*
X38684Y684988D01*
X38924Y685176D01*
X39154Y685380D01*
X39376Y685599D01*
X39588Y685833D01*
X39978Y686335D01*
X40153Y686601D01*
X40315Y686877D01*
X40465Y687162D01*
X40601Y687457D01*
X40724Y687762D01*
X40835Y688076D01*
X40932Y688401D01*
X41017Y688735D01*
X41088Y689078D01*
X41147Y689432D01*
X41192Y689795D01*
X41224Y690168D01*
X41244Y690550D01*
X41250Y690943D01*
X41244Y691339D01*
X41225Y691725D01*
X41194Y692100D01*
X41151Y692464D01*
X41095Y692818D01*
X41026Y693161D01*
X40945Y693493D01*
X40852Y693815D01*
X40746Y694126D01*
X40627Y694426D01*
X40497Y694716D01*
X40353Y694995D01*
X40198Y695263D01*
X40029Y695520D01*
X39656Y696003D01*
X39451Y696227D01*
X39237Y696436D01*
X39013Y696631D01*
X38778Y696811D01*
X38534Y696977D01*
X38280Y697128D01*
X38016Y697265D01*
X37742Y697388D01*
X37458Y697496D01*
X37164Y697590D01*
X36860Y697669D01*
X36546Y697734D01*
X36222Y697785D01*
X35888Y697821D01*
X35544Y697842D01*
X35190Y697850D01*
X34741Y697837D01*
X34307Y697800D01*
X33889Y697737D01*
X33486Y697650D01*
X33099Y697538D01*
X32728Y697401D01*
X32371Y697239D01*
X32031Y697052D01*
X31710Y696842D01*
X31411Y696609D01*
X31135Y696354D01*
X30882Y696077D01*
X30652Y695777D01*
X30445Y695456D01*
X30260Y695112D01*
X30099Y694746D01*
X27878Y695482D01*
X28111Y695996D01*
X28375Y696478D01*
X28669Y696927D01*
X28995Y697343D01*
X29350Y697727D01*
X29737Y698079D01*
X30154Y698398D01*
X30602Y698684D01*
X31079Y698937D01*
X31585Y699156D01*
X32119Y699342D01*
X32681Y699493D01*
X33272Y699612D01*
X33891Y699696D01*
X34539Y699746D01*
X35215Y699763D01*
X35702Y699754D01*
X36175Y699727D01*
X36635Y699681D01*
X37082Y699617D01*
X37516Y699535D01*
X37936Y699434D01*
X38342Y699315D01*
X38735Y699178D01*
X39115Y699022D01*
X39481Y698848D01*
X39834Y698656D01*
X40174Y698445D01*
X40500Y698216D01*
X40813Y697969D01*
X41112Y697704D01*
X41398Y697420D01*
X41668Y697120D01*
X41921Y696806D01*
X42156Y696478D01*
X42374Y696137D01*
X42575Y695781D01*
X42758Y695411D01*
X42924Y695027D01*
X43072Y694629D01*
X43203Y694217D01*
X43316Y693791D01*
X43412Y693352D01*
X43491Y692898D01*
X43552Y692430D01*
X43596Y691948D01*
X43622Y691452D01*
X43630Y690943D01*
X43615Y690264D01*
X43568Y689609D01*
X43490Y688977D01*
X43380Y688368D01*
X43240Y687782D01*
X43068Y687220D01*
X42865Y686680D01*
X42631Y686164D01*
X42366Y685674D01*
X42074Y685213D01*
X41753Y684782D01*
X41404Y684379D01*
X41026Y684006D01*
X40620Y683661D01*
X40186Y683346D01*
X39723Y683060D01*
X39235Y682806D01*
X38725Y682585D01*
X38193Y682399D01*
X37639Y682246D01*
X37063Y682127D01*
X36465Y682043D01*
X35844Y681992D01*
X35202Y681975D01*
G37*
G36*
X45970Y712220D02*
X43271Y712220D01*
X46089Y716497D01*
X48178Y719667D01*
X47698Y719768D01*
X47244Y719899D01*
X46817Y720061D01*
X46416Y720253D01*
X46198Y720382D01*
X46042Y720475D01*
X45695Y720727D01*
X45375Y721010D01*
X45081Y721323D01*
X44817Y721661D01*
X44589Y722018D01*
X44397Y722394D01*
X44239Y722789D01*
X44116Y723203D01*
X44028Y723637D01*
X43976Y724090D01*
X43958Y724562D01*
X43964Y724849D01*
X43983Y725128D01*
X44014Y725400D01*
X44057Y725663D01*
X44181Y726166D01*
X44355Y726637D01*
X44579Y727075D01*
X44852Y727482D01*
X45174Y727857D01*
X45547Y728199D01*
X45965Y728505D01*
X46424Y728771D01*
X46925Y728995D01*
X47468Y729179D01*
X48053Y729322D01*
X48679Y729424D01*
X49346Y729485D01*
X50055Y729506D01*
X58189Y729506D01*
X58189Y712220D01*
X55846Y712220D01*
X55846Y719397D01*
X50460Y719397D01*
X45970Y712220D01*
G37*
%LPC*%
G36*
X55846Y721249D02*
X55846Y727629D01*
X50288Y727629D01*
X49821Y727616D01*
X49382Y727579D01*
X48971Y727517D01*
X48588Y727431D01*
X48233Y727320D01*
X47906Y727184D01*
X47608Y727023D01*
X47338Y726837D01*
X47098Y726628D01*
X46890Y726397D01*
X46714Y726143D01*
X46570Y725867D01*
X46458Y725568D01*
X46378Y725247D01*
X46330Y724903D01*
X46314Y724537D01*
X46329Y724158D01*
X46377Y723801D01*
X46456Y723466D01*
X46567Y723152D01*
X46709Y722860D01*
X46883Y722590D01*
X47088Y722341D01*
X47326Y722114D01*
X47592Y721911D01*
X47884Y721736D01*
X48203Y721587D01*
X48548Y721466D01*
X48919Y721371D01*
X49317Y721303D01*
X49740Y721263D01*
X50190Y721249D01*
X55846Y721249D01*
G37*
%LPD*%
G36*
X33629Y711975D02*
X32803Y711995D01*
X32025Y712057D01*
X31295Y712159D01*
X30612Y712303D01*
X29978Y712487D01*
X29391Y712713D01*
X28851Y712980D01*
X28360Y713287D01*
X27921Y713632D01*
X27541Y714011D01*
X27373Y714213D01*
X27220Y714424D01*
X27081Y714643D01*
X26957Y714870D01*
X26847Y715106D01*
X26752Y715350D01*
X26672Y715603D01*
X26606Y715864D01*
X26555Y716133D01*
X26518Y716411D01*
X26496Y716697D01*
X26489Y716992D01*
X26505Y717449D01*
X26555Y717876D01*
X26637Y718271D01*
X26753Y718636D01*
X26897Y718974D01*
X27067Y719289D01*
X27262Y719582D01*
X27483Y719851D01*
X27726Y720098D01*
X27990Y720326D01*
X28275Y720534D01*
X28581Y720722D01*
X29235Y721055D01*
X29936Y721341D01*
X30677Y721587D01*
X31451Y721795D01*
X33040Y722169D01*
X34131Y722423D01*
X35024Y722656D01*
X35720Y722868D01*
X36217Y723059D01*
X36593Y723250D01*
X36921Y723461D01*
X37203Y723691D01*
X37438Y723942D01*
X37623Y724220D01*
X37696Y724372D01*
X37755Y724533D01*
X37802Y724702D01*
X37835Y724879D01*
X37855Y725066D01*
X37861Y725261D01*
X37844Y725591D01*
X37793Y725900D01*
X37708Y726187D01*
X37588Y726454D01*
X37435Y726700D01*
X37247Y726924D01*
X37025Y727127D01*
X36769Y727310D01*
X36481Y727471D01*
X36162Y727610D01*
X35813Y727728D01*
X35432Y727825D01*
X35021Y727900D01*
X34580Y727954D01*
X34107Y727986D01*
X33604Y727997D01*
X33145Y727987D01*
X32711Y727958D01*
X32303Y727910D01*
X31920Y727842D01*
X31564Y727755D01*
X31233Y727648D01*
X30927Y727522D01*
X30648Y727377D01*
X30392Y727211D01*
X30157Y727020D01*
X29944Y726806D01*
X29752Y726569D01*
X29582Y726308D01*
X29433Y726023D01*
X29306Y725715D01*
X29200Y725384D01*
X26894Y725788D01*
X27065Y726312D01*
X27265Y726795D01*
X27494Y727239D01*
X27752Y727642D01*
X28040Y728007D01*
X28357Y728331D01*
X28702Y728616D01*
X29077Y728862D01*
X29489Y729073D01*
X29943Y729256D01*
X30441Y729411D01*
X30982Y729538D01*
X31566Y729637D01*
X32194Y729707D01*
X32865Y729749D01*
X33580Y729763D01*
X34348Y729745D01*
X35071Y729688D01*
X35747Y729594D01*
X36378Y729463D01*
X36964Y729294D01*
X37503Y729087D01*
X37996Y728843D01*
X38444Y728561D01*
X38842Y728245D01*
X39187Y727896D01*
X39479Y727516D01*
X39718Y727104D01*
X39904Y726660D01*
X39977Y726427D01*
X40037Y726185D01*
X40083Y725935D01*
X40117Y725677D01*
X40137Y725412D01*
X40143Y725138D01*
X40123Y724667D01*
X40062Y724224D01*
X39960Y723809D01*
X39818Y723421D01*
X39637Y723058D01*
X39421Y722720D01*
X39168Y722405D01*
X38880Y722114D01*
X38545Y721842D01*
X38154Y721582D01*
X37708Y721336D01*
X37205Y721102D01*
X36613Y720875D01*
X35897Y720648D01*
X35058Y720421D01*
X34095Y720194D01*
X31948Y719691D01*
X31480Y719568D01*
X31046Y719431D01*
X30646Y719280D01*
X30280Y719115D01*
X29950Y718931D01*
X29659Y718725D01*
X29407Y718496D01*
X29194Y718244D01*
X29025Y717960D01*
X28904Y717636D01*
X28862Y717460D01*
X28832Y717273D01*
X28814Y717076D01*
X28807Y716870D01*
X28827Y716504D01*
X28885Y716161D01*
X28981Y715841D01*
X29116Y715543D01*
X29289Y715269D01*
X29501Y715017D01*
X29751Y714788D01*
X30040Y714582D01*
X30365Y714399D01*
X30722Y714241D01*
X31111Y714107D01*
X31533Y713997D01*
X31987Y713912D01*
X32473Y713851D01*
X32992Y713815D01*
X33543Y713803D01*
X34078Y713814D01*
X34583Y713848D01*
X35061Y713905D01*
X35509Y713985D01*
X35929Y714088D01*
X36319Y714213D01*
X36681Y714361D01*
X37015Y714533D01*
X37320Y714728D01*
X37598Y714949D01*
X37847Y715196D01*
X38070Y715470D01*
X38265Y715768D01*
X38432Y716093D01*
X38571Y716444D01*
X38683Y716821D01*
X40953Y716367D01*
X40806Y715835D01*
X40618Y715337D01*
X40389Y714874D01*
X40118Y714445D01*
X39805Y714051D01*
X39451Y713690D01*
X39056Y713364D01*
X38619Y713073D01*
X38140Y712815D01*
X37620Y712592D01*
X37059Y712404D01*
X36456Y712249D01*
X35811Y712129D01*
X35125Y712043D01*
X34398Y711992D01*
X33629Y711975D01*
G37*
G36*
X18842Y712220D02*
X16511Y712220D01*
X16511Y727592D01*
X10573Y727592D01*
X10573Y729506D01*
X24779Y729506D01*
X24779Y727592D01*
X18842Y727592D01*
X18842Y712220D01*
G37*
G36*
X539256Y97023D02*
X538872Y97036D01*
X538512Y97073D01*
X538177Y97136D01*
X537868Y97223D01*
X537583Y97335D01*
X537322Y97473D01*
X537087Y97635D01*
X536876Y97822D01*
X536690Y98034D01*
X536529Y98271D01*
X536393Y98533D01*
X536281Y98820D01*
X536195Y99132D01*
X536133Y99469D01*
X536095Y99830D01*
X536083Y100217D01*
X536083Y106009D01*
X536072Y106997D01*
X536041Y107578D01*
X537239Y107578D01*
X537267Y107412D01*
X537295Y107011D01*
X537323Y106282D01*
X537337Y106282D01*
X537515Y106603D01*
X537726Y106884D01*
X537972Y107126D01*
X538251Y107329D01*
X538560Y107490D01*
X538896Y107605D01*
X539259Y107674D01*
X539648Y107697D01*
X539995Y107682D01*
X540320Y107637D01*
X540622Y107563D01*
X540901Y107458D01*
X541157Y107324D01*
X541390Y107159D01*
X541600Y106965D01*
X541788Y106741D01*
X541953Y106486D01*
X542096Y106197D01*
X542217Y105876D01*
X542315Y105522D01*
X542392Y105134D01*
X542447Y104714D01*
X542480Y104261D01*
X542491Y103775D01*
X542481Y103296D01*
X542451Y102850D01*
X542399Y102437D01*
X542328Y102057D01*
X542236Y101711D01*
X542123Y101397D01*
X541990Y101116D01*
X541837Y100868D01*
X541661Y100652D01*
X541463Y100464D01*
X541242Y100305D01*
X540997Y100175D01*
X540729Y100074D01*
X540439Y100002D01*
X540125Y99958D01*
X539788Y99944D01*
X539384Y99967D01*
X539007Y100036D01*
X538656Y100151D01*
X538331Y100312D01*
X538321Y100319D01*
X538036Y100518D01*
X537774Y100770D01*
X537546Y101066D01*
X537351Y101408D01*
X537337Y101408D01*
X537337Y100189D01*
X537344Y99922D01*
X537366Y99672D01*
X537403Y99439D01*
X537454Y99224D01*
X537521Y99026D01*
X537602Y98845D01*
X537697Y98681D01*
X537808Y98534D01*
X537933Y98405D01*
X538073Y98293D01*
X538227Y98198D01*
X538396Y98121D01*
X538580Y98061D01*
X538779Y98017D01*
X538981Y97993D01*
X538993Y97992D01*
X539221Y97983D01*
X539554Y98001D01*
X539854Y98054D01*
X540120Y98142D01*
X540352Y98267D01*
X540548Y98424D01*
X540706Y98611D01*
X540827Y98828D01*
X540909Y99076D01*
X542176Y98893D01*
X542116Y98676D01*
X542038Y98471D01*
X541945Y98279D01*
X541835Y98099D01*
X541708Y97933D01*
X541566Y97779D01*
X541406Y97638D01*
X541231Y97510D01*
X541039Y97396D01*
X540832Y97297D01*
X540608Y97214D01*
X540369Y97145D01*
X540115Y97092D01*
X539844Y97054D01*
X539558Y97031D01*
X539256Y97023D01*
G37*
%LPC*%
G36*
X539361Y100875D02*
X539602Y100886D01*
X539825Y100918D01*
X540029Y100971D01*
X540215Y101045D01*
X540383Y101141D01*
X540532Y101258D01*
X540663Y101396D01*
X540776Y101555D01*
X540872Y101738D01*
X540956Y101949D01*
X541027Y102187D01*
X541085Y102453D01*
X541131Y102746D01*
X541163Y103066D01*
X541182Y103414D01*
X541189Y103789D01*
X541182Y104168D01*
X541161Y104519D01*
X541127Y104844D01*
X541078Y105141D01*
X541016Y105411D01*
X540941Y105654D01*
X540851Y105870D01*
X540748Y106058D01*
X540629Y106222D01*
X540494Y106365D01*
X540343Y106485D01*
X540175Y106584D01*
X539991Y106660D01*
X539790Y106715D01*
X539573Y106748D01*
X539340Y106759D01*
X539057Y106737D01*
X538789Y106670D01*
X538537Y106560D01*
X538300Y106405D01*
X538083Y106208D01*
X537893Y105972D01*
X537728Y105697D01*
X537589Y105382D01*
X537478Y105032D01*
X537400Y104650D01*
X537352Y104235D01*
X537337Y103789D01*
X537352Y103353D01*
X537400Y102948D01*
X537478Y102574D01*
X537589Y102231D01*
X537728Y101922D01*
X537893Y101652D01*
X537969Y101561D01*
X538085Y101420D01*
X538303Y101226D01*
X538543Y101072D01*
X538799Y100963D01*
X539071Y100897D01*
X539361Y100875D01*
G37*
%LPD*%
G36*
X591596Y97023D02*
X590335Y97023D01*
X590335Y99986D01*
X590342Y100851D01*
X590363Y101177D01*
X590328Y101177D01*
X590160Y100868D01*
X589955Y100601D01*
X589715Y100374D01*
X589439Y100189D01*
X589127Y100045D01*
X588779Y99942D01*
X588395Y99881D01*
X587975Y99860D01*
X587638Y99875D01*
X587322Y99922D01*
X587028Y99999D01*
X586756Y100108D01*
X586505Y100247D01*
X586276Y100417D01*
X586070Y100619D01*
X585884Y100851D01*
X585721Y101114D01*
X585580Y101408D01*
X585460Y101734D01*
X585362Y102090D01*
X585286Y102477D01*
X585231Y102895D01*
X585198Y103344D01*
X585188Y103824D01*
X585198Y104310D01*
X585231Y104762D01*
X585285Y105181D01*
X585361Y105566D01*
X585458Y105918D01*
X585578Y106236D01*
X585718Y106521D01*
X585881Y106773D01*
X586065Y106993D01*
X586272Y107183D01*
X586500Y107345D01*
X586751Y107477D01*
X587024Y107579D01*
X587319Y107653D01*
X587636Y107697D01*
X587975Y107711D01*
X588405Y107691D01*
X588791Y107630D01*
X589133Y107528D01*
X589432Y107385D01*
X589695Y107199D01*
X589931Y106966D01*
X590140Y106686D01*
X590321Y106359D01*
X590349Y106359D01*
X590367Y106850D01*
X590398Y107378D01*
X590419Y107578D01*
X591638Y107578D01*
X591607Y107002D01*
X591596Y106030D01*
X591596Y97023D01*
G37*
%LPC*%
G36*
X588311Y100791D02*
X588570Y100802D01*
X588810Y100836D01*
X589031Y100891D01*
X589234Y100968D01*
X589418Y101068D01*
X589584Y101189D01*
X589731Y101333D01*
X589859Y101499D01*
X589971Y101688D01*
X590067Y101902D01*
X590149Y102140D01*
X590216Y102402D01*
X590268Y102689D01*
X590306Y103001D01*
X590328Y103337D01*
X590335Y103698D01*
X590322Y104209D01*
X590280Y104669D01*
X590211Y105079D01*
X590115Y105438D01*
X589992Y105751D01*
X589843Y106019D01*
X589670Y106243D01*
X589470Y106422D01*
X589238Y106560D01*
X588965Y106659D01*
X588652Y106718D01*
X588297Y106738D01*
X588072Y106727D01*
X587863Y106695D01*
X587670Y106642D01*
X587492Y106568D01*
X587330Y106472D01*
X587184Y106355D01*
X587053Y106217D01*
X586938Y106058D01*
X586838Y105874D01*
X586752Y105662D01*
X586678Y105422D01*
X586618Y105153D01*
X586571Y104856D01*
X586538Y104531D01*
X586518Y104178D01*
X586511Y103796D01*
X586518Y103404D01*
X586538Y103042D01*
X586572Y102709D01*
X586619Y102405D01*
X586680Y102130D01*
X586754Y101885D01*
X586841Y101668D01*
X586942Y101481D01*
X587058Y101320D01*
X587189Y101179D01*
X587336Y101061D01*
X587500Y100964D01*
X587679Y100888D01*
X587874Y100835D01*
X588085Y100802D01*
X588311Y100791D01*
G37*
%LPD*%
G36*
X554444Y99860D02*
X554106Y99875D01*
X553790Y99922D01*
X553496Y99999D01*
X553224Y100108D01*
X552974Y100247D01*
X552745Y100417D01*
X552538Y100619D01*
X552353Y100851D01*
X552190Y101114D01*
X552048Y101408D01*
X551929Y101734D01*
X551831Y102090D01*
X551754Y102477D01*
X551700Y102895D01*
X551667Y103344D01*
X551656Y103824D01*
X551667Y104299D01*
X551699Y104742D01*
X551751Y105155D01*
X551825Y105536D01*
X551920Y105887D01*
X552036Y106206D01*
X552174Y106494D01*
X552332Y106752D01*
X552513Y106978D01*
X552718Y107175D01*
X552946Y107341D01*
X553198Y107477D01*
X553474Y107582D01*
X553773Y107658D01*
X554097Y107703D01*
X554444Y107718D01*
X554854Y107698D01*
X555229Y107639D01*
X555570Y107541D01*
X555876Y107403D01*
X556151Y107220D01*
X556397Y106985D01*
X556615Y106698D01*
X556804Y106359D01*
X556832Y106359D01*
X556804Y107431D01*
X556804Y110394D01*
X558065Y110394D01*
X558065Y101562D01*
X558075Y100580D01*
X558107Y100000D01*
X556888Y100000D01*
X556846Y100515D01*
X556818Y101177D01*
X556804Y101177D01*
X556612Y100854D01*
X556393Y100579D01*
X556148Y100351D01*
X555876Y100172D01*
X555573Y100035D01*
X555233Y99938D01*
X554856Y99879D01*
X554444Y99860D01*
G37*
%LPC*%
G36*
X554780Y100791D02*
X555039Y100803D01*
X555279Y100836D01*
X555500Y100891D01*
X555703Y100969D01*
X555887Y101069D01*
X556052Y101191D01*
X556199Y101336D01*
X556328Y101502D01*
X556439Y101692D01*
X556536Y101907D01*
X556618Y102145D01*
X556685Y102408D01*
X556737Y102696D01*
X556774Y103008D01*
X556797Y103344D01*
X556804Y103705D01*
X556796Y104087D01*
X556774Y104443D01*
X556736Y104772D01*
X556682Y105074D01*
X556614Y105350D01*
X556530Y105599D01*
X556431Y105821D01*
X556317Y106016D01*
X556187Y106187D01*
X556038Y106335D01*
X555871Y106460D01*
X555686Y106563D01*
X555483Y106642D01*
X555262Y106699D01*
X555023Y106733D01*
X554766Y106745D01*
X554538Y106734D01*
X554326Y106702D01*
X554131Y106648D01*
X553952Y106573D01*
X553789Y106477D01*
X553643Y106359D01*
X553514Y106219D01*
X553400Y106058D01*
X553302Y105873D01*
X553216Y105659D01*
X553144Y105416D01*
X553085Y105146D01*
X553039Y104847D01*
X553006Y104521D01*
X552987Y104165D01*
X552980Y103782D01*
X552987Y103400D01*
X553006Y103046D01*
X553040Y102719D01*
X553086Y102419D01*
X553146Y102147D01*
X553218Y101902D01*
X553304Y101685D01*
X553404Y101495D01*
X553518Y101330D01*
X553649Y101187D01*
X553796Y101066D01*
X553960Y100967D01*
X554140Y100890D01*
X554337Y100835D01*
X554550Y100802D01*
X554780Y100791D01*
G37*
%LPD*%
G36*
X594744Y100000D02*
X593497Y100000D01*
X593497Y105050D01*
X593505Y105393D01*
X593530Y105711D01*
X593570Y106004D01*
X593628Y106272D01*
X593701Y106515D01*
X593791Y106733D01*
X593897Y106927D01*
X594019Y107095D01*
X594159Y107241D01*
X594319Y107368D01*
X594498Y107475D01*
X594697Y107562D01*
X594916Y107631D01*
X595154Y107679D01*
X595412Y107708D01*
X595689Y107718D01*
X596070Y107697D01*
X596422Y107634D01*
X596744Y107529D01*
X597037Y107382D01*
X597306Y107187D01*
X597553Y106939D01*
X597780Y106637D01*
X597987Y106282D01*
X598008Y106282D01*
X598125Y106632D01*
X598280Y106930D01*
X598473Y107178D01*
X598704Y107375D01*
X598977Y107525D01*
X599295Y107632D01*
X599658Y107697D01*
X600067Y107718D01*
X600430Y107698D01*
X600765Y107639D01*
X601071Y107541D01*
X601348Y107403D01*
X601604Y107215D01*
X601844Y106965D01*
X602069Y106654D01*
X602280Y106282D01*
X602301Y106282D01*
X602325Y107035D01*
X602343Y107389D01*
X602357Y107578D01*
X603548Y107578D01*
X603529Y107367D01*
X603516Y107027D01*
X603505Y105960D01*
X603505Y100000D01*
X602252Y100000D01*
X602252Y104391D01*
X602244Y104664D01*
X602222Y104920D01*
X602186Y105161D01*
X602135Y105386D01*
X602069Y105595D01*
X601988Y105789D01*
X601893Y105966D01*
X601783Y106128D01*
X601660Y106273D01*
X601527Y106398D01*
X601383Y106504D01*
X601229Y106591D01*
X601065Y106658D01*
X600890Y106706D01*
X600704Y106735D01*
X600508Y106745D01*
X600319Y106738D01*
X600146Y106718D01*
X599988Y106686D01*
X599844Y106640D01*
X599716Y106580D01*
X599603Y106508D01*
X599505Y106423D01*
X599422Y106324D01*
X599352Y106209D01*
X599291Y106072D01*
X599239Y105914D01*
X599196Y105734D01*
X599140Y105312D01*
X599121Y104805D01*
X599121Y100000D01*
X597874Y100000D01*
X597874Y104391D01*
X597867Y104665D01*
X597846Y104923D01*
X597810Y105165D01*
X597760Y105390D01*
X597695Y105600D01*
X597616Y105793D01*
X597523Y105971D01*
X597416Y106132D01*
X597295Y106275D01*
X597163Y106400D01*
X597020Y106505D01*
X596865Y106591D01*
X596699Y106658D01*
X596521Y106706D01*
X596331Y106735D01*
X596131Y106745D01*
X595942Y106738D01*
X595769Y106718D01*
X595610Y106686D01*
X595467Y106640D01*
X595339Y106580D01*
X595226Y106508D01*
X595128Y106423D01*
X595045Y106324D01*
X594974Y106209D01*
X594913Y106072D01*
X594861Y105914D01*
X594819Y105734D01*
X594763Y105312D01*
X594744Y104805D01*
X594744Y100000D01*
G37*
G36*
X625167Y99860D02*
X624696Y99872D01*
X624252Y99907D01*
X623835Y99965D01*
X623445Y100047D01*
X623083Y100153D01*
X622748Y100281D01*
X622440Y100434D01*
X622159Y100609D01*
X621909Y100806D01*
X621692Y101023D01*
X621508Y101258D01*
X621358Y101513D01*
X621241Y101787D01*
X621158Y102080D01*
X621108Y102393D01*
X621091Y102724D01*
X621101Y102985D01*
X621129Y103229D01*
X621176Y103455D01*
X621242Y103663D01*
X621324Y103856D01*
X621421Y104036D01*
X621533Y104203D01*
X621659Y104356D01*
X621948Y104628D01*
X622285Y104854D01*
X622659Y105044D01*
X623059Y105207D01*
X623482Y105347D01*
X623924Y105466D01*
X624831Y105680D01*
X625454Y105825D01*
X625964Y105958D01*
X626361Y106079D01*
X626645Y106188D01*
X626859Y106297D01*
X627047Y106417D01*
X627208Y106549D01*
X627342Y106692D01*
X627448Y106851D01*
X627523Y107029D01*
X627569Y107227D01*
X627584Y107445D01*
X627574Y107633D01*
X627545Y107810D01*
X627496Y107974D01*
X627428Y108126D01*
X627340Y108266D01*
X627233Y108394D01*
X627106Y108511D01*
X626960Y108615D01*
X626796Y108707D01*
X626614Y108786D01*
X626414Y108854D01*
X626197Y108909D01*
X625962Y108952D01*
X625710Y108982D01*
X625441Y109001D01*
X625153Y109007D01*
X624643Y108985D01*
X624192Y108918D01*
X623988Y108869D01*
X623799Y108808D01*
X623625Y108736D01*
X623466Y108653D01*
X623319Y108558D01*
X623185Y108449D01*
X623064Y108327D01*
X622954Y108192D01*
X622857Y108043D01*
X622772Y107880D01*
X622699Y107704D01*
X622639Y107515D01*
X621322Y107746D01*
X621420Y108045D01*
X621534Y108321D01*
X621665Y108574D01*
X621813Y108805D01*
X621977Y109013D01*
X622158Y109198D01*
X622355Y109361D01*
X622569Y109501D01*
X622804Y109621D01*
X623063Y109726D01*
X623347Y109814D01*
X623656Y109887D01*
X623990Y109943D01*
X624348Y109983D01*
X624732Y110007D01*
X625139Y110015D01*
X625578Y110005D01*
X625991Y109973D01*
X626377Y109919D01*
X626737Y109844D01*
X627071Y109747D01*
X627379Y109629D01*
X627661Y109490D01*
X627916Y109329D01*
X628144Y109148D01*
X628341Y108950D01*
X628508Y108733D01*
X628644Y108497D01*
X628750Y108244D01*
X628826Y107972D01*
X628871Y107683D01*
X628886Y107375D01*
X628875Y107106D01*
X628840Y106853D01*
X628782Y106616D01*
X628701Y106394D01*
X628598Y106188D01*
X628474Y105994D01*
X628330Y105815D01*
X628165Y105649D01*
X627974Y105493D01*
X627751Y105345D01*
X627496Y105204D01*
X627209Y105071D01*
X626871Y104941D01*
X626462Y104812D01*
X625983Y104682D01*
X625434Y104552D01*
X624208Y104265D01*
X623693Y104116D01*
X623255Y103936D01*
X623067Y103832D01*
X622901Y103714D01*
X622757Y103583D01*
X622636Y103439D01*
X622539Y103277D01*
X622470Y103092D01*
X622429Y102885D01*
X622415Y102654D01*
X622426Y102446D01*
X622459Y102250D01*
X622514Y102067D01*
X622591Y101897D01*
X622690Y101740D01*
X622811Y101597D01*
X622954Y101466D01*
X623119Y101348D01*
X623304Y101244D01*
X623508Y101154D01*
X623730Y101077D01*
X623971Y101015D01*
X624230Y100966D01*
X624508Y100931D01*
X624804Y100910D01*
X625118Y100903D01*
X625424Y100910D01*
X625712Y100930D01*
X625985Y100962D01*
X626241Y101008D01*
X626480Y101066D01*
X626703Y101138D01*
X626910Y101223D01*
X627100Y101320D01*
X627275Y101432D01*
X627433Y101558D01*
X627576Y101699D01*
X627703Y101855D01*
X627814Y102026D01*
X627909Y102211D01*
X627989Y102411D01*
X628053Y102626D01*
X629349Y102367D01*
X629265Y102064D01*
X629158Y101780D01*
X629027Y101515D01*
X628872Y101270D01*
X628694Y101045D01*
X628491Y100839D01*
X628266Y100653D01*
X628016Y100487D01*
X627743Y100340D01*
X627446Y100213D01*
X627126Y100105D01*
X626781Y100017D01*
X626413Y99948D01*
X626022Y99899D01*
X625606Y99870D01*
X625167Y99860D01*
G37*
G36*
X614659Y100000D02*
X613392Y100000D01*
X613392Y105050D01*
X613401Y105397D01*
X613428Y105719D01*
X613474Y106015D01*
X613538Y106285D01*
X613620Y106529D01*
X613721Y106747D01*
X613839Y106939D01*
X613977Y107105D01*
X614133Y107249D01*
X614309Y107373D01*
X614506Y107479D01*
X614723Y107565D01*
X614961Y107632D01*
X615218Y107680D01*
X615496Y107709D01*
X615794Y107718D01*
X616213Y107697D01*
X616593Y107631D01*
X616936Y107523D01*
X617240Y107371D01*
X617515Y107173D01*
X617770Y106926D01*
X618004Y106629D01*
X618217Y106282D01*
X618238Y106282D01*
X618207Y106808D01*
X618182Y107690D01*
X618182Y110394D01*
X619443Y110394D01*
X619443Y100000D01*
X618182Y100000D01*
X618182Y104468D01*
X618174Y104723D01*
X618149Y104963D01*
X618107Y105191D01*
X618048Y105405D01*
X617973Y105606D01*
X617881Y105793D01*
X617772Y105968D01*
X617647Y106128D01*
X617507Y106273D01*
X617357Y106398D01*
X617195Y106504D01*
X617022Y106591D01*
X616839Y106658D01*
X616644Y106706D01*
X616438Y106735D01*
X616221Y106745D01*
X615940Y106733D01*
X615691Y106699D01*
X615474Y106642D01*
X615290Y106563D01*
X615133Y106459D01*
X615001Y106329D01*
X614892Y106173D01*
X614806Y105992D01*
X614742Y105772D01*
X614696Y105501D01*
X614669Y105178D01*
X614659Y104805D01*
X614659Y100000D01*
G37*
G36*
X547729Y99860D02*
X547322Y99880D01*
X546950Y99941D01*
X546613Y100043D01*
X546310Y100186D01*
X546034Y100377D01*
X545774Y100626D01*
X545531Y100932D01*
X545305Y101296D01*
X545284Y101296D01*
X545260Y100543D01*
X545242Y100189D01*
X545228Y100000D01*
X544038Y100000D01*
X544056Y100211D01*
X544069Y100552D01*
X544080Y101618D01*
X544080Y107578D01*
X545340Y107578D01*
X545340Y103187D01*
X545349Y102918D01*
X545373Y102664D01*
X545414Y102425D01*
X545472Y102201D01*
X545546Y101992D01*
X545636Y101799D01*
X545743Y101620D01*
X545866Y101457D01*
X546003Y101311D01*
X546152Y101184D01*
X546314Y101077D01*
X546487Y100989D01*
X546673Y100921D01*
X546870Y100872D01*
X547080Y100843D01*
X547301Y100833D01*
X547594Y100845D01*
X547850Y100879D01*
X548067Y100936D01*
X548247Y101016D01*
X548397Y101121D01*
X548525Y101255D01*
X548632Y101419D01*
X548716Y101611D01*
X548781Y101838D01*
X548827Y102108D01*
X548854Y102420D01*
X548863Y102773D01*
X548863Y107578D01*
X550131Y107578D01*
X550131Y102528D01*
X550122Y102184D01*
X550095Y101865D01*
X550050Y101571D01*
X549987Y101302D01*
X549905Y101058D01*
X549806Y100840D01*
X549689Y100647D01*
X549553Y100480D01*
X549398Y100334D01*
X549223Y100209D01*
X549026Y100102D01*
X548808Y100015D01*
X548570Y99947D01*
X548310Y99899D01*
X548030Y99870D01*
X547729Y99860D01*
G37*
G36*
X531546Y99860D02*
X531192Y99869D01*
X530858Y99896D01*
X530545Y99942D01*
X530251Y100005D01*
X529978Y100087D01*
X529725Y100187D01*
X529493Y100305D01*
X529280Y100441D01*
X529091Y100594D01*
X528926Y100763D01*
X528787Y100946D01*
X528674Y101145D01*
X528585Y101359D01*
X528522Y101589D01*
X528484Y101834D01*
X528471Y102094D01*
X528480Y102305D01*
X528506Y102505D01*
X528550Y102692D01*
X528612Y102868D01*
X528689Y103033D01*
X528780Y103188D01*
X528887Y103332D01*
X529007Y103467D01*
X529147Y103594D01*
X529309Y103715D01*
X529495Y103830D01*
X529704Y103940D01*
X529960Y104049D01*
X530285Y104163D01*
X531147Y104405D01*
X532022Y104637D01*
X532324Y104731D01*
X532534Y104812D01*
X532688Y104889D01*
X532823Y104974D01*
X532937Y105068D01*
X533031Y105169D01*
X533104Y105281D01*
X533157Y105407D01*
X533188Y105547D01*
X533199Y105701D01*
X533193Y105828D01*
X533174Y105947D01*
X533097Y106160D01*
X532970Y106339D01*
X532793Y106486D01*
X532562Y106599D01*
X532274Y106680D01*
X531931Y106728D01*
X531532Y106745D01*
X531166Y106728D01*
X530840Y106677D01*
X530552Y106593D01*
X530303Y106475D01*
X530096Y106326D01*
X529933Y106147D01*
X529814Y105939D01*
X529739Y105701D01*
X528605Y105841D01*
X528662Y106076D01*
X528736Y106295D01*
X528828Y106496D01*
X528936Y106682D01*
X529062Y106850D01*
X529204Y107002D01*
X529363Y107137D01*
X529540Y107256D01*
X529732Y107359D01*
X529941Y107449D01*
X530166Y107525D01*
X530407Y107587D01*
X530664Y107635D01*
X530937Y107670D01*
X531227Y107690D01*
X531532Y107697D01*
X531875Y107689D01*
X532197Y107663D01*
X532498Y107621D01*
X532778Y107561D01*
X533037Y107485D01*
X533274Y107392D01*
X533490Y107282D01*
X533686Y107154D01*
X533859Y107011D01*
X534009Y106852D01*
X534136Y106678D01*
X534240Y106488D01*
X534321Y106283D01*
X534378Y106062D01*
X534413Y105826D01*
X534425Y105575D01*
X534408Y105306D01*
X534360Y105058D01*
X534279Y104833D01*
X534166Y104630D01*
X534023Y104444D01*
X533856Y104273D01*
X533665Y104117D01*
X533448Y103975D01*
X533179Y103839D01*
X532832Y103702D01*
X532407Y103564D01*
X531903Y103425D01*
X531000Y103187D01*
X530680Y103090D01*
X530408Y102980D01*
X530183Y102858D01*
X530005Y102724D01*
X529870Y102574D01*
X529774Y102402D01*
X529716Y102210D01*
X529697Y101996D01*
X529704Y101854D01*
X529725Y101720D01*
X529760Y101596D01*
X529808Y101481D01*
X529871Y101376D01*
X529947Y101279D01*
X530142Y101114D01*
X530396Y100985D01*
X530715Y100893D01*
X531099Y100838D01*
X531546Y100819D01*
X531970Y100837D01*
X532345Y100890D01*
X532670Y100979D01*
X532947Y101103D01*
X533178Y101265D01*
X533365Y101468D01*
X533510Y101712D01*
X533612Y101996D01*
X534726Y101779D01*
X534660Y101540D01*
X534577Y101318D01*
X534477Y101112D01*
X534361Y100922D01*
X534228Y100748D01*
X534078Y100591D01*
X533911Y100450D01*
X533728Y100326D01*
X533526Y100217D01*
X533304Y100122D01*
X533061Y100042D01*
X532799Y99976D01*
X532516Y99925D01*
X532213Y99889D01*
X531890Y99867D01*
X531546Y99860D01*
G37*
G36*
X566640Y99860D02*
X566286Y99869D01*
X565952Y99896D01*
X565638Y99942D01*
X565345Y100005D01*
X565072Y100087D01*
X564819Y100187D01*
X564586Y100305D01*
X564374Y100441D01*
X564185Y100594D01*
X564020Y100763D01*
X563881Y100946D01*
X563767Y101145D01*
X563679Y101359D01*
X563616Y101589D01*
X563578Y101834D01*
X563565Y102094D01*
X563574Y102305D01*
X563600Y102505D01*
X563644Y102692D01*
X563705Y102868D01*
X563783Y103033D01*
X563874Y103188D01*
X563980Y103332D01*
X564101Y103467D01*
X564240Y103594D01*
X564403Y103715D01*
X564589Y103830D01*
X564798Y103940D01*
X565053Y104049D01*
X565379Y104163D01*
X566241Y104405D01*
X567116Y104637D01*
X567417Y104731D01*
X567627Y104812D01*
X567782Y104889D01*
X567916Y104974D01*
X568031Y105068D01*
X568125Y105169D01*
X568198Y105281D01*
X568251Y105407D01*
X568282Y105547D01*
X568293Y105701D01*
X568286Y105828D01*
X568267Y105947D01*
X568191Y106160D01*
X568064Y106339D01*
X567887Y106486D01*
X567655Y106599D01*
X567368Y106680D01*
X567025Y106728D01*
X566626Y106745D01*
X566260Y106728D01*
X565933Y106677D01*
X565646Y106593D01*
X565397Y106475D01*
X565189Y106326D01*
X565026Y106147D01*
X564908Y105939D01*
X564833Y105701D01*
X563698Y105841D01*
X563756Y106076D01*
X563830Y106295D01*
X563922Y106496D01*
X564030Y106682D01*
X564155Y106850D01*
X564298Y107002D01*
X564457Y107137D01*
X564633Y107256D01*
X564826Y107359D01*
X565035Y107449D01*
X565260Y107525D01*
X565501Y107587D01*
X565758Y107635D01*
X566031Y107670D01*
X566320Y107690D01*
X566626Y107697D01*
X566969Y107689D01*
X567291Y107663D01*
X567592Y107621D01*
X567872Y107561D01*
X568130Y107485D01*
X568368Y107392D01*
X568584Y107282D01*
X568780Y107154D01*
X568953Y107011D01*
X569103Y106852D01*
X569230Y106678D01*
X569334Y106488D01*
X569414Y106283D01*
X569472Y106062D01*
X569507Y105826D01*
X569518Y105575D01*
X569502Y105306D01*
X569454Y105058D01*
X569373Y104833D01*
X569259Y104630D01*
X569117Y104444D01*
X568950Y104273D01*
X568758Y104117D01*
X568541Y103975D01*
X568273Y103839D01*
X567926Y103702D01*
X567501Y103564D01*
X566997Y103425D01*
X566094Y103187D01*
X565774Y103090D01*
X565502Y102980D01*
X565277Y102858D01*
X565099Y102724D01*
X564964Y102574D01*
X564868Y102402D01*
X564810Y102210D01*
X564791Y101996D01*
X564798Y101854D01*
X564819Y101720D01*
X564853Y101596D01*
X564902Y101481D01*
X564965Y101376D01*
X565041Y101279D01*
X565236Y101114D01*
X565490Y100985D01*
X565809Y100893D01*
X566192Y100838D01*
X566640Y100819D01*
X567064Y100837D01*
X567438Y100890D01*
X567764Y100979D01*
X568041Y101103D01*
X568271Y101265D01*
X568459Y101468D01*
X568604Y101712D01*
X568706Y101996D01*
X569820Y101779D01*
X569753Y101540D01*
X569671Y101318D01*
X569571Y101112D01*
X569454Y100922D01*
X569321Y100748D01*
X569171Y100591D01*
X569005Y100450D01*
X568822Y100326D01*
X568620Y100217D01*
X568398Y100122D01*
X568155Y100042D01*
X567893Y99976D01*
X567610Y99925D01*
X567307Y99889D01*
X566983Y99867D01*
X566640Y99860D01*
G37*
G36*
X581015Y99860D02*
X580661Y99869D01*
X580327Y99896D01*
X580013Y99942D01*
X579720Y100005D01*
X579447Y100087D01*
X579194Y100187D01*
X578961Y100305D01*
X578749Y100441D01*
X578560Y100594D01*
X578395Y100763D01*
X578256Y100946D01*
X578142Y101145D01*
X578054Y101359D01*
X577991Y101589D01*
X577953Y101834D01*
X577940Y102094D01*
X577949Y102305D01*
X577975Y102505D01*
X578019Y102692D01*
X578080Y102868D01*
X578158Y103033D01*
X578249Y103188D01*
X578355Y103332D01*
X578476Y103467D01*
X578615Y103594D01*
X578778Y103715D01*
X578964Y103830D01*
X579173Y103940D01*
X579428Y104049D01*
X579754Y104163D01*
X580616Y104405D01*
X581491Y104637D01*
X581792Y104731D01*
X582002Y104812D01*
X582157Y104889D01*
X582291Y104974D01*
X582406Y105068D01*
X582500Y105169D01*
X582573Y105281D01*
X582626Y105407D01*
X582657Y105547D01*
X582668Y105701D01*
X582661Y105828D01*
X582642Y105947D01*
X582566Y106160D01*
X582439Y106339D01*
X582262Y106486D01*
X582030Y106599D01*
X581743Y106680D01*
X581400Y106728D01*
X581001Y106745D01*
X580635Y106728D01*
X580308Y106677D01*
X580021Y106593D01*
X579772Y106475D01*
X579564Y106326D01*
X579401Y106147D01*
X579283Y105939D01*
X579208Y105701D01*
X578073Y105841D01*
X578131Y106076D01*
X578205Y106295D01*
X578297Y106496D01*
X578405Y106682D01*
X578530Y106850D01*
X578673Y107002D01*
X578832Y107137D01*
X579008Y107256D01*
X579201Y107359D01*
X579410Y107449D01*
X579635Y107525D01*
X579876Y107587D01*
X580133Y107635D01*
X580406Y107670D01*
X580695Y107690D01*
X581001Y107697D01*
X581344Y107689D01*
X581666Y107663D01*
X581967Y107621D01*
X582247Y107561D01*
X582505Y107485D01*
X582743Y107392D01*
X582959Y107282D01*
X583155Y107154D01*
X583328Y107011D01*
X583478Y106852D01*
X583605Y106678D01*
X583709Y106488D01*
X583789Y106283D01*
X583847Y106062D01*
X583882Y105826D01*
X583893Y105575D01*
X583877Y105306D01*
X583829Y105058D01*
X583748Y104833D01*
X583634Y104630D01*
X583492Y104444D01*
X583325Y104273D01*
X583133Y104117D01*
X582916Y103975D01*
X582648Y103839D01*
X582301Y103702D01*
X581876Y103564D01*
X581372Y103425D01*
X580469Y103187D01*
X580149Y103090D01*
X579877Y102980D01*
X579652Y102858D01*
X579474Y102724D01*
X579339Y102574D01*
X579243Y102402D01*
X579185Y102210D01*
X579166Y101996D01*
X579173Y101854D01*
X579194Y101720D01*
X579228Y101596D01*
X579277Y101481D01*
X579340Y101376D01*
X579416Y101279D01*
X579611Y101114D01*
X579865Y100985D01*
X580184Y100893D01*
X580567Y100838D01*
X581015Y100819D01*
X581439Y100837D01*
X581813Y100890D01*
X582139Y100979D01*
X582416Y101103D01*
X582646Y101265D01*
X582834Y101468D01*
X582979Y101712D01*
X583081Y101996D01*
X584195Y101779D01*
X584128Y101540D01*
X584046Y101318D01*
X583946Y101112D01*
X583829Y100922D01*
X583696Y100748D01*
X583546Y100591D01*
X583380Y100450D01*
X583197Y100326D01*
X582995Y100217D01*
X582773Y100122D01*
X582530Y100042D01*
X582268Y99976D01*
X581985Y99925D01*
X581682Y99889D01*
X581358Y99867D01*
X581015Y99860D01*
G37*
G36*
X611474Y100000D02*
X610214Y100000D01*
X610214Y103950D01*
X610207Y104256D01*
X610188Y104544D01*
X610155Y104813D01*
X610110Y105065D01*
X610052Y105298D01*
X609981Y105512D01*
X609897Y105709D01*
X609800Y105887D01*
X609691Y106045D01*
X609571Y106182D01*
X609438Y106299D01*
X609294Y106394D01*
X609139Y106468D01*
X608972Y106520D01*
X608793Y106552D01*
X608603Y106563D01*
X608224Y106545D01*
X607930Y106493D01*
X607930Y107648D01*
X608188Y107701D01*
X608442Y107718D01*
X608779Y107696D01*
X609075Y107629D01*
X609332Y107517D01*
X609548Y107361D01*
X609739Y107144D01*
X609918Y106850D01*
X610085Y106479D01*
X610242Y106030D01*
X610270Y106030D01*
X610326Y107578D01*
X611516Y107578D01*
X611485Y106654D01*
X611474Y105813D01*
X611474Y100000D01*
G37*
G36*
X572447Y100000D02*
X571186Y100000D01*
X571186Y107578D01*
X572447Y107578D01*
X572447Y100000D01*
G37*
G36*
X606728Y100000D02*
X605467Y100000D01*
X605467Y107578D01*
X606728Y107578D01*
X606728Y100000D01*
G37*
G36*
X572447Y109189D02*
X571186Y109189D01*
X571186Y110394D01*
X572447Y110394D01*
X572447Y109189D01*
G37*
G36*
X606728Y109189D02*
X605467Y109189D01*
X605467Y110394D01*
X606728Y110394D01*
X606728Y109189D01*
G37*
G36*
X565683Y690000D02*
X563291Y690000D01*
X570235Y707286D01*
X572897Y707286D01*
X579951Y690000D01*
X577522Y690000D01*
X575534Y695054D01*
X567658Y695054D01*
X565683Y690000D01*
G37*
%LPC*%
G36*
X574823Y696882D02*
X572615Y702563D01*
X572087Y704013D01*
X571707Y705176D01*
X571596Y705519D01*
X571265Y704501D01*
X570922Y703489D01*
X570578Y702587D01*
X568358Y696882D01*
X574823Y696882D01*
G37*
%LPD*%
G36*
X577939Y720000D02*
X570922Y720000D01*
X570194Y720020D01*
X569507Y720080D01*
X568861Y720180D01*
X568256Y720321D01*
X567693Y720501D01*
X567170Y720721D01*
X566688Y720982D01*
X566248Y721282D01*
X565854Y721619D01*
X565512Y721987D01*
X565223Y722388D01*
X564987Y722820D01*
X564803Y723285D01*
X564731Y723529D01*
X564672Y723781D01*
X564626Y724042D01*
X564593Y724310D01*
X564573Y724586D01*
X564567Y724870D01*
X564584Y725294D01*
X564637Y725698D01*
X564724Y726084D01*
X564846Y726451D01*
X565003Y726800D01*
X565195Y727130D01*
X565422Y727442D01*
X565683Y727735D01*
X565841Y727880D01*
X565977Y728005D01*
X566300Y728247D01*
X566653Y728461D01*
X567036Y728647D01*
X567448Y728806D01*
X567889Y728937D01*
X568360Y729040D01*
X568861Y729115D01*
X568479Y729215D01*
X568120Y729336D01*
X567783Y729479D01*
X567468Y729643D01*
X567176Y729828D01*
X566905Y730035D01*
X566797Y730136D01*
X566657Y730264D01*
X566432Y730514D01*
X566230Y730782D01*
X566056Y731066D01*
X565908Y731365D01*
X565787Y731679D01*
X565694Y732009D01*
X565626Y732354D01*
X565586Y732714D01*
X565573Y733090D01*
X565579Y733348D01*
X565597Y733598D01*
X565668Y734073D01*
X565787Y734516D01*
X565953Y734926D01*
X566167Y735303D01*
X566428Y735647D01*
X566737Y735958D01*
X567094Y736237D01*
X567498Y736483D01*
X567950Y736696D01*
X568449Y736876D01*
X568996Y737023D01*
X569590Y737138D01*
X570232Y737220D01*
X570921Y737269D01*
X571658Y737286D01*
X577939Y737286D01*
X577939Y720000D01*
G37*
%LPC*%
G36*
X575596Y721877D02*
X575596Y728109D01*
X571228Y728109D01*
X570708Y728097D01*
X570222Y728061D01*
X569769Y728002D01*
X569350Y727918D01*
X568964Y727811D01*
X568612Y727680D01*
X568293Y727524D01*
X568008Y727346D01*
X567756Y727143D01*
X567538Y726916D01*
X567354Y726665D01*
X567203Y726391D01*
X567085Y726093D01*
X567002Y725770D01*
X566951Y725424D01*
X566935Y725054D01*
X566950Y724671D01*
X566996Y724312D01*
X567073Y723978D01*
X567180Y723668D01*
X567318Y723383D01*
X567487Y723122D01*
X567686Y722886D01*
X567916Y722674D01*
X568180Y722488D01*
X568480Y722326D01*
X568816Y722189D01*
X569189Y722076D01*
X569598Y721989D01*
X570044Y721927D01*
X570526Y721889D01*
X571044Y721877D01*
X575596Y721877D01*
G37*
G36*
X575596Y729937D02*
X575596Y735409D01*
X571658Y735409D01*
X571217Y735399D01*
X570804Y735371D01*
X570417Y735324D01*
X570057Y735258D01*
X569724Y735174D01*
X569417Y735071D01*
X569138Y734948D01*
X568885Y734808D01*
X568661Y734645D01*
X568467Y734457D01*
X568302Y734245D01*
X568167Y734007D01*
X568063Y733745D01*
X567988Y733457D01*
X567943Y733145D01*
X567928Y732808D01*
X567943Y732455D01*
X567986Y732125D01*
X568059Y731819D01*
X568160Y731537D01*
X568290Y731278D01*
X568449Y731042D01*
X568637Y730831D01*
X568854Y730643D01*
X569101Y730477D01*
X569377Y730334D01*
X569683Y730213D01*
X570018Y730113D01*
X570384Y730036D01*
X570779Y729981D01*
X571203Y729948D01*
X571658Y729937D01*
X575596Y729937D01*
G37*
%LPD*%
G36*
X147286Y30110D02*
X130000Y37165D01*
X130000Y39594D01*
X147286Y46648D01*
X147286Y44182D01*
X135116Y39422D01*
X132061Y38391D01*
X135116Y37361D01*
X147286Y32576D01*
X147286Y30110D01*
G37*
G36*
X136649Y47817D02*
X135831Y47840D01*
X135063Y47909D01*
X134346Y48023D01*
X133679Y48184D01*
X133364Y48281D01*
X133062Y48390D01*
X132773Y48510D01*
X132496Y48642D01*
X132232Y48785D01*
X131980Y48940D01*
X131741Y49106D01*
X131515Y49283D01*
X131302Y49472D01*
X131102Y49670D01*
X130917Y49879D01*
X130745Y50099D01*
X130587Y50328D01*
X130442Y50568D01*
X130312Y50819D01*
X130195Y51079D01*
X130092Y51350D01*
X130002Y51631D01*
X129927Y51922D01*
X129865Y52224D01*
X129817Y52536D01*
X129782Y52859D01*
X129762Y53191D01*
X129755Y53534D01*
X129772Y54050D01*
X129826Y54543D01*
X129915Y55013D01*
X130040Y55460D01*
X130200Y55884D01*
X130396Y56285D01*
X130628Y56663D01*
X130896Y57018D01*
X131193Y57344D01*
X131514Y57636D01*
X131860Y57892D01*
X132230Y58113D01*
X132624Y58300D01*
X133042Y58451D01*
X133484Y58568D01*
X133950Y58650D01*
X134098Y56417D01*
X133777Y56362D01*
X133478Y56287D01*
X133200Y56194D01*
X132944Y56081D01*
X132710Y55950D01*
X132497Y55800D01*
X132305Y55630D01*
X132135Y55442D01*
X131985Y55238D01*
X131856Y55022D01*
X131746Y54794D01*
X131656Y54554D01*
X131586Y54302D01*
X131537Y54038D01*
X131507Y53761D01*
X131497Y53473D01*
X131517Y53066D01*
X131576Y52685D01*
X131676Y52331D01*
X131816Y52004D01*
X131995Y51703D01*
X132214Y51428D01*
X132474Y51180D01*
X132773Y50958D01*
X133113Y50762D01*
X133496Y50593D01*
X133923Y50450D01*
X134392Y50332D01*
X134904Y50241D01*
X135459Y50176D01*
X136057Y50137D01*
X136698Y50124D01*
X137364Y50136D01*
X137979Y50173D01*
X138544Y50234D01*
X139060Y50320D01*
X139526Y50430D01*
X139942Y50565D01*
X140308Y50725D01*
X140624Y50909D01*
X140897Y51120D01*
X141134Y51362D01*
X141334Y51634D01*
X141498Y51936D01*
X141626Y52269D01*
X141717Y52632D01*
X141771Y53025D01*
X141790Y53448D01*
X141779Y53761D01*
X141749Y54056D01*
X141698Y54332D01*
X141627Y54589D01*
X141536Y54829D01*
X141424Y55049D01*
X141292Y55252D01*
X141139Y55436D01*
X140970Y55602D01*
X140786Y55752D01*
X140588Y55886D01*
X140376Y56003D01*
X140149Y56104D01*
X139909Y56188D01*
X139654Y56256D01*
X139385Y56307D01*
X139557Y58576D01*
X140007Y58475D01*
X140433Y58342D01*
X140834Y58178D01*
X141210Y57983D01*
X141561Y57756D01*
X141887Y57499D01*
X142188Y57210D01*
X142464Y56890D01*
X142712Y56543D01*
X142926Y56175D01*
X143107Y55785D01*
X143256Y55373D01*
X143371Y54940D01*
X143453Y54485D01*
X143503Y54008D01*
X143519Y53510D01*
X143513Y53171D01*
X143492Y52843D01*
X143458Y52524D01*
X143409Y52215D01*
X143347Y51917D01*
X143272Y51628D01*
X143182Y51349D01*
X143079Y51081D01*
X142962Y50822D01*
X142832Y50573D01*
X142687Y50334D01*
X142529Y50105D01*
X142357Y49886D01*
X142172Y49677D01*
X141972Y49478D01*
X141759Y49289D01*
X141533Y49111D01*
X141294Y48944D01*
X141043Y48789D01*
X140779Y48645D01*
X140504Y48513D01*
X140215Y48392D01*
X139914Y48283D01*
X139601Y48185D01*
X138938Y48024D01*
X138225Y47909D01*
X137462Y47840D01*
X136649Y47817D01*
G37*
G36*
X136649Y60380D02*
X135831Y60403D01*
X135063Y60471D01*
X134346Y60586D01*
X133679Y60746D01*
X133364Y60844D01*
X133062Y60952D01*
X132773Y61073D01*
X132496Y61204D01*
X132232Y61348D01*
X131980Y61502D01*
X131741Y61668D01*
X131515Y61846D01*
X131302Y62034D01*
X131102Y62233D01*
X130917Y62442D01*
X130745Y62661D01*
X130587Y62891D01*
X130442Y63131D01*
X130312Y63381D01*
X130195Y63642D01*
X130092Y63912D01*
X130002Y64194D01*
X129927Y64485D01*
X129865Y64787D01*
X129817Y65099D01*
X129782Y65421D01*
X129762Y65754D01*
X129755Y66097D01*
X129772Y66613D01*
X129826Y67106D01*
X129915Y67576D01*
X130040Y68023D01*
X130200Y68447D01*
X130396Y68848D01*
X130628Y69226D01*
X130896Y69581D01*
X131193Y69907D01*
X131514Y70198D01*
X131860Y70454D01*
X132230Y70676D01*
X132624Y70862D01*
X133042Y71014D01*
X133484Y71131D01*
X133950Y71213D01*
X134098Y68980D01*
X133777Y68924D01*
X133478Y68850D01*
X133200Y68756D01*
X132944Y68644D01*
X132710Y68512D01*
X132497Y68362D01*
X132305Y68193D01*
X132135Y68004D01*
X131985Y67801D01*
X131856Y67585D01*
X131746Y67357D01*
X131656Y67117D01*
X131586Y66864D01*
X131537Y66600D01*
X131507Y66324D01*
X131497Y66035D01*
X131517Y65628D01*
X131576Y65248D01*
X131676Y64894D01*
X131816Y64566D01*
X131995Y64265D01*
X132214Y63990D01*
X132474Y63742D01*
X132773Y63520D01*
X133113Y63325D01*
X133496Y63155D01*
X133923Y63012D01*
X134392Y62895D01*
X134904Y62804D01*
X135459Y62738D01*
X136057Y62699D01*
X136698Y62686D01*
X137364Y62698D01*
X137979Y62735D01*
X138544Y62797D01*
X139060Y62883D01*
X139526Y62993D01*
X139942Y63128D01*
X140308Y63287D01*
X140624Y63471D01*
X140897Y63683D01*
X141134Y63925D01*
X141334Y64197D01*
X141498Y64499D01*
X141626Y64831D01*
X141717Y65194D01*
X141771Y65587D01*
X141790Y66011D01*
X141779Y66324D01*
X141749Y66618D01*
X141698Y66894D01*
X141627Y67152D01*
X141536Y67391D01*
X141424Y67612D01*
X141292Y67814D01*
X141139Y67998D01*
X140970Y68165D01*
X140786Y68315D01*
X140588Y68449D01*
X140376Y68566D01*
X140149Y68666D01*
X139909Y68750D01*
X139654Y68818D01*
X139385Y68869D01*
X139557Y71139D01*
X140007Y71037D01*
X140433Y70905D01*
X140834Y70741D01*
X141210Y70545D01*
X141561Y70319D01*
X141887Y70061D01*
X142188Y69772D01*
X142464Y69452D01*
X142712Y69105D01*
X142926Y68737D01*
X143107Y68347D01*
X143256Y67935D01*
X143371Y67502D01*
X143453Y67047D01*
X143503Y66570D01*
X143519Y66072D01*
X143513Y65734D01*
X143492Y65405D01*
X143458Y65087D01*
X143409Y64778D01*
X143347Y64479D01*
X143272Y64191D01*
X143182Y63912D01*
X143079Y63643D01*
X142962Y63384D01*
X142832Y63136D01*
X142687Y62897D01*
X142529Y62668D01*
X142357Y62449D01*
X142172Y62240D01*
X141972Y62041D01*
X141759Y61852D01*
X141533Y61674D01*
X141294Y61507D01*
X141043Y61352D01*
X140779Y61208D01*
X140504Y61076D01*
X140215Y60955D01*
X139914Y60846D01*
X139601Y60748D01*
X138938Y60587D01*
X138225Y60472D01*
X137462Y60403D01*
X136649Y60380D01*
G37*
G36*
X196576Y64555D02*
X195744Y64574D01*
X194967Y64629D01*
X194244Y64722D01*
X193576Y64851D01*
X192962Y65018D01*
X192403Y65221D01*
X191898Y65461D01*
X191448Y65739D01*
X191051Y66056D01*
X190872Y66230D01*
X190707Y66414D01*
X190555Y66609D01*
X190416Y66814D01*
X190290Y67030D01*
X190178Y67256D01*
X190079Y67492D01*
X189993Y67739D01*
X189920Y67996D01*
X189860Y68263D01*
X189814Y68541D01*
X189781Y68830D01*
X189761Y69129D01*
X189755Y69438D01*
X189763Y69804D01*
X189789Y70156D01*
X189832Y70492D01*
X189893Y70813D01*
X189970Y71119D01*
X190065Y71410D01*
X190177Y71686D01*
X190307Y71947D01*
X190456Y72193D01*
X190628Y72428D01*
X190823Y72650D01*
X191040Y72859D01*
X191280Y73056D01*
X191542Y73240D01*
X191827Y73413D01*
X192135Y73572D01*
X192135Y73621D01*
X191570Y73632D01*
X190908Y73664D01*
X190325Y73705D01*
X190000Y73744D01*
X190000Y75854D01*
X190419Y75822D01*
X191015Y75799D01*
X192736Y75780D01*
X208206Y75780D01*
X208206Y73572D01*
X202697Y73572D01*
X201213Y73597D01*
X201213Y73572D01*
X201503Y73413D01*
X201774Y73241D01*
X202023Y73057D01*
X202253Y72861D01*
X202462Y72652D01*
X202651Y72431D01*
X202819Y72198D01*
X202967Y71953D01*
X203097Y71693D01*
X203209Y71418D01*
X203304Y71127D01*
X203381Y70821D01*
X203442Y70499D01*
X203485Y70161D01*
X203511Y69807D01*
X203519Y69438D01*
X203513Y69137D01*
X203492Y68846D01*
X203458Y68565D01*
X203411Y68293D01*
X203350Y68031D01*
X203275Y67778D01*
X203187Y67535D01*
X203085Y67302D01*
X202970Y67077D01*
X202841Y66863D01*
X202699Y66658D01*
X202543Y66462D01*
X202190Y66100D01*
X201783Y65776D01*
X201322Y65490D01*
X200807Y65242D01*
X200237Y65032D01*
X199614Y64860D01*
X198935Y64727D01*
X198203Y64631D01*
X197417Y64574D01*
X196576Y64555D01*
G37*
%LPC*%
G36*
X196649Y66874D02*
X197318Y66885D01*
X197939Y66920D01*
X198512Y66978D01*
X199037Y67059D01*
X199514Y67164D01*
X199942Y67291D01*
X200323Y67442D01*
X200655Y67616D01*
X200944Y67816D01*
X201194Y68045D01*
X201406Y68303D01*
X201580Y68590D01*
X201714Y68906D01*
X201811Y69250D01*
X201868Y69624D01*
X201888Y70027D01*
X201869Y70474D01*
X201811Y70890D01*
X201715Y71275D01*
X201581Y71628D01*
X201409Y71949D01*
X201198Y72239D01*
X200948Y72498D01*
X200661Y72726D01*
X200332Y72924D01*
X199959Y73096D01*
X199542Y73241D01*
X199081Y73360D01*
X198576Y73453D01*
X198027Y73519D01*
X197434Y73559D01*
X196797Y73572D01*
X196135Y73559D01*
X195518Y73519D01*
X194947Y73453D01*
X194420Y73360D01*
X193937Y73241D01*
X193500Y73096D01*
X193108Y72924D01*
X192760Y72726D01*
X192724Y72698D01*
X192456Y72498D01*
X192191Y72238D01*
X191968Y71946D01*
X191785Y71621D01*
X191643Y71265D01*
X191541Y70876D01*
X191480Y70455D01*
X191460Y70002D01*
X191479Y69602D01*
X191535Y69231D01*
X191629Y68889D01*
X191760Y68576D01*
X191930Y68291D01*
X192136Y68035D01*
X192380Y67808D01*
X192662Y67610D01*
X192987Y67437D01*
X193362Y67288D01*
X193786Y67161D01*
X194260Y67058D01*
X194783Y66977D01*
X195356Y66920D01*
X195978Y66885D01*
X196649Y66874D01*
G37*
%LPD*%
G36*
X198723Y31264D02*
X198047Y31280D01*
X197393Y31328D01*
X196762Y31409D01*
X196154Y31523D01*
X195568Y31669D01*
X195004Y31847D01*
X194463Y32057D01*
X193944Y32300D01*
X193451Y32574D01*
X192988Y32876D01*
X192555Y33208D01*
X192152Y33568D01*
X191778Y33958D01*
X191433Y34376D01*
X191119Y34824D01*
X190834Y35300D01*
X190581Y35802D01*
X190362Y36328D01*
X190176Y36877D01*
X190025Y37450D01*
X189906Y38046D01*
X189822Y38665D01*
X189772Y39308D01*
X189755Y39974D01*
X189767Y40551D01*
X189803Y41118D01*
X189862Y41675D01*
X189946Y42221D01*
X190054Y42756D01*
X190186Y43281D01*
X190342Y43795D01*
X190521Y44298D01*
X190723Y44787D01*
X190944Y45256D01*
X191185Y45706D01*
X191446Y46137D01*
X191727Y46548D01*
X192027Y46940D01*
X192347Y47313D01*
X192687Y47666D01*
X198649Y47666D01*
X198649Y40342D01*
X196686Y40342D01*
X196686Y45507D01*
X193570Y45507D01*
X193355Y45271D01*
X193151Y45018D01*
X192959Y44747D01*
X192779Y44459D01*
X192610Y44154D01*
X192452Y43831D01*
X192306Y43491D01*
X192171Y43133D01*
X192051Y42763D01*
X191946Y42386D01*
X191857Y42002D01*
X191785Y41610D01*
X191729Y41212D01*
X191688Y40806D01*
X191664Y40394D01*
X191656Y39974D01*
X191664Y39608D01*
X191686Y39252D01*
X191723Y38906D01*
X191775Y38570D01*
X191841Y38244D01*
X191923Y37928D01*
X192019Y37623D01*
X192130Y37327D01*
X192256Y37042D01*
X192397Y36766D01*
X192552Y36501D01*
X192722Y36245D01*
X192907Y36000D01*
X193107Y35765D01*
X193322Y35539D01*
X193552Y35324D01*
X193794Y35121D01*
X194047Y34930D01*
X194311Y34753D01*
X194586Y34589D01*
X194871Y34438D01*
X195167Y34300D01*
X195474Y34175D01*
X195792Y34064D01*
X196121Y33965D01*
X196460Y33880D01*
X196810Y33808D01*
X197171Y33749D01*
X197543Y33703D01*
X197925Y33670D01*
X198319Y33650D01*
X198723Y33644D01*
X199128Y33650D01*
X199521Y33668D01*
X199904Y33699D01*
X200274Y33743D01*
X200633Y33798D01*
X200981Y33866D01*
X201317Y33947D01*
X201641Y34039D01*
X201954Y34144D01*
X202255Y34262D01*
X202545Y34392D01*
X202823Y34534D01*
X203089Y34688D01*
X203344Y34855D01*
X203588Y35035D01*
X203820Y35226D01*
X204039Y35430D01*
X204244Y35644D01*
X204435Y35869D01*
X204612Y36106D01*
X204774Y36353D01*
X204923Y36612D01*
X205057Y36881D01*
X205177Y37161D01*
X205283Y37453D01*
X205375Y37756D01*
X205453Y38069D01*
X205516Y38394D01*
X205566Y38729D01*
X205601Y39076D01*
X205622Y39434D01*
X205630Y39802D01*
X205619Y40274D01*
X205587Y40726D01*
X205535Y41158D01*
X205461Y41570D01*
X205366Y41963D01*
X205250Y42336D01*
X205113Y42689D01*
X204955Y43023D01*
X204774Y43337D01*
X204568Y43635D01*
X204337Y43915D01*
X204081Y44177D01*
X203800Y44422D01*
X203494Y44650D01*
X203163Y44860D01*
X202808Y45053D01*
X203470Y47286D01*
X203986Y47031D01*
X204465Y46750D01*
X204907Y46443D01*
X205314Y46111D01*
X205683Y45753D01*
X206017Y45370D01*
X206314Y44960D01*
X206574Y44525D01*
X206801Y44061D01*
X206998Y43562D01*
X207165Y43030D01*
X207301Y42464D01*
X207407Y41865D01*
X207483Y41231D01*
X207528Y40564D01*
X207543Y39864D01*
X207534Y39360D01*
X207507Y38871D01*
X207462Y38396D01*
X207399Y37935D01*
X207318Y37489D01*
X207219Y37057D01*
X207102Y36639D01*
X206967Y36235D01*
X206814Y35846D01*
X206642Y35471D01*
X206453Y35110D01*
X206246Y34764D01*
X206021Y34432D01*
X205778Y34114D01*
X205516Y33810D01*
X205237Y33521D01*
X204941Y33248D01*
X204631Y32992D01*
X204305Y32754D01*
X203965Y32533D01*
X203610Y32331D01*
X203240Y32145D01*
X202855Y31978D01*
X202455Y31828D01*
X202041Y31696D01*
X201611Y31581D01*
X201167Y31484D01*
X200708Y31405D01*
X200234Y31343D01*
X199745Y31299D01*
X199241Y31272D01*
X198723Y31264D01*
G37*
G36*
X203274Y51200D02*
X202904Y51232D01*
X202308Y51255D01*
X200440Y51273D01*
X190000Y51273D01*
X190000Y53482D01*
X197692Y53482D01*
X198163Y53496D01*
X198608Y53539D01*
X199027Y53611D01*
X199419Y53712D01*
X199784Y53841D01*
X200123Y53999D01*
X200436Y54186D01*
X200722Y54402D01*
X200978Y54642D01*
X201200Y54904D01*
X201388Y55187D01*
X201541Y55490D01*
X201661Y55815D01*
X201746Y56161D01*
X201797Y56528D01*
X201814Y56917D01*
X201794Y57430D01*
X201734Y57877D01*
X201635Y58258D01*
X201570Y58423D01*
X201495Y58573D01*
X201310Y58836D01*
X201075Y59060D01*
X200789Y59247D01*
X200452Y59395D01*
X200054Y59507D01*
X199581Y59588D01*
X199035Y59636D01*
X198416Y59652D01*
X190000Y59652D01*
X190000Y61873D01*
X198845Y61873D01*
X199449Y61857D01*
X200008Y61810D01*
X200523Y61731D01*
X200994Y61620D01*
X201420Y61478D01*
X201802Y61304D01*
X202140Y61098D01*
X202434Y60861D01*
X202688Y60589D01*
X202909Y60282D01*
X203095Y59937D01*
X203248Y59556D01*
X203367Y59138D01*
X203452Y58684D01*
X203502Y58193D01*
X203519Y57665D01*
X203510Y57301D01*
X203484Y56953D01*
X203439Y56620D01*
X203377Y56302D01*
X203297Y55999D01*
X203199Y55711D01*
X203083Y55438D01*
X202949Y55181D01*
X202794Y54934D01*
X202613Y54696D01*
X202408Y54464D01*
X202178Y54241D01*
X201922Y54024D01*
X201641Y53815D01*
X201335Y53614D01*
X201004Y53420D01*
X201004Y53383D01*
X202323Y53340D01*
X202943Y53310D01*
X203274Y53285D01*
X203274Y51200D01*
G37*
G36*
X166612Y53399D02*
X165773Y53417D01*
X164992Y53470D01*
X164269Y53560D01*
X163604Y53686D01*
X162996Y53847D01*
X162447Y54044D01*
X161955Y54277D01*
X161521Y54546D01*
X161142Y54853D01*
X160813Y55200D01*
X160534Y55588D01*
X160414Y55797D01*
X160307Y56017D01*
X160212Y56246D01*
X160130Y56485D01*
X160060Y56735D01*
X160003Y56994D01*
X159959Y57264D01*
X159927Y57544D01*
X159908Y57834D01*
X159902Y58134D01*
X159912Y58494D01*
X159942Y58841D01*
X159992Y59177D01*
X160063Y59502D01*
X160153Y59815D01*
X160264Y60117D01*
X160395Y60407D01*
X160546Y60686D01*
X160557Y60704D01*
X160717Y60952D01*
X160907Y61203D01*
X161118Y61439D01*
X161348Y61661D01*
X161598Y61869D01*
X161867Y62062D01*
X162157Y62240D01*
X162466Y62404D01*
X162466Y62428D01*
X160331Y62428D01*
X159863Y62415D01*
X159426Y62377D01*
X159018Y62312D01*
X158641Y62222D01*
X158293Y62106D01*
X157976Y61964D01*
X157690Y61796D01*
X157433Y61603D01*
X157207Y61384D01*
X157010Y61139D01*
X156844Y60868D01*
X156708Y60572D01*
X156603Y60250D01*
X156527Y59901D01*
X156484Y59548D01*
X156482Y59528D01*
X156467Y59128D01*
X156475Y58829D01*
X156498Y58544D01*
X156537Y58274D01*
X156591Y58019D01*
X156661Y57779D01*
X156746Y57553D01*
X156847Y57343D01*
X156964Y57147D01*
X157095Y56966D01*
X157239Y56803D01*
X157396Y56656D01*
X157566Y56526D01*
X157750Y56412D01*
X157947Y56315D01*
X158157Y56235D01*
X158381Y56171D01*
X158062Y53951D01*
X157680Y54057D01*
X157321Y54192D01*
X156985Y54356D01*
X156671Y54549D01*
X156379Y54770D01*
X156110Y55020D01*
X155863Y55299D01*
X155639Y55607D01*
X155439Y55943D01*
X155266Y56306D01*
X155119Y56697D01*
X154999Y57116D01*
X154906Y57562D01*
X154839Y58036D01*
X154799Y58538D01*
X154786Y59067D01*
X154808Y59740D01*
X154874Y60369D01*
X154983Y60955D01*
X155136Y61498D01*
X155332Y61997D01*
X155573Y62453D01*
X155857Y62866D01*
X156185Y63235D01*
X156556Y63560D01*
X156971Y63843D01*
X157430Y64081D01*
X157933Y64277D01*
X158479Y64429D01*
X159069Y64537D01*
X159703Y64602D01*
X160380Y64624D01*
X170526Y64624D01*
X172256Y64642D01*
X172854Y64665D01*
X173274Y64698D01*
X173274Y62600D01*
X173180Y62575D01*
X172983Y62551D01*
X172280Y62502D01*
X171507Y62465D01*
X171004Y62453D01*
X171004Y62428D01*
X171293Y62280D01*
X171565Y62116D01*
X171820Y61938D01*
X172058Y61746D01*
X172279Y61538D01*
X172482Y61316D01*
X172669Y61079D01*
X172839Y60827D01*
X172989Y60562D01*
X173120Y60285D01*
X173231Y59997D01*
X173322Y59697D01*
X173392Y59385D01*
X173442Y59062D01*
X173473Y58726D01*
X173483Y58380D01*
X173476Y58070D01*
X173456Y57771D01*
X173424Y57482D01*
X173378Y57202D01*
X173319Y56933D01*
X173247Y56674D01*
X173162Y56424D01*
X173064Y56185D01*
X172953Y55956D01*
X172828Y55737D01*
X172691Y55528D01*
X172541Y55328D01*
X172200Y54960D01*
X171808Y54632D01*
X171361Y54343D01*
X170855Y54092D01*
X170292Y53880D01*
X169672Y53707D01*
X168994Y53572D01*
X168258Y53476D01*
X167464Y53418D01*
X166612Y53399D01*
G37*
%LPC*%
G36*
X166637Y55681D02*
X167300Y55693D01*
X167916Y55729D01*
X168484Y55789D01*
X169005Y55874D01*
X169478Y55983D01*
X169903Y56115D01*
X170281Y56272D01*
X170612Y56454D01*
X170899Y56661D01*
X171149Y56898D01*
X171359Y57163D01*
X171532Y57456D01*
X171666Y57779D01*
X171762Y58130D01*
X171820Y58511D01*
X171839Y58919D01*
X171829Y59171D01*
X171800Y59415D01*
X171752Y59653D01*
X171684Y59884D01*
X171597Y60108D01*
X171490Y60326D01*
X171364Y60537D01*
X171219Y60741D01*
X171056Y60936D01*
X170875Y61120D01*
X170677Y61293D01*
X170462Y61454D01*
X170229Y61604D01*
X169979Y61743D01*
X169712Y61870D01*
X169428Y61986D01*
X169128Y62090D01*
X168814Y62180D01*
X168486Y62256D01*
X168144Y62318D01*
X167789Y62366D01*
X167419Y62400D01*
X167035Y62421D01*
X166637Y62428D01*
X166248Y62421D01*
X165873Y62400D01*
X165511Y62366D01*
X165163Y62318D01*
X164829Y62256D01*
X164508Y62180D01*
X164201Y62090D01*
X163907Y61986D01*
X163629Y61870D01*
X163367Y61743D01*
X163122Y61603D01*
X162894Y61453D01*
X162715Y61316D01*
X162682Y61291D01*
X162487Y61117D01*
X162309Y60932D01*
X162147Y60735D01*
X162003Y60529D01*
X161879Y60316D01*
X161773Y60095D01*
X161687Y59867D01*
X161620Y59632D01*
X161572Y59389D01*
X161543Y59140D01*
X161534Y58883D01*
X161552Y58460D01*
X161608Y58070D01*
X161701Y57712D01*
X161831Y57386D01*
X161998Y57092D01*
X162203Y56831D01*
X162445Y56602D01*
X162724Y56404D01*
X163045Y56235D01*
X163414Y56088D01*
X163832Y55963D01*
X164297Y55862D01*
X164810Y55782D01*
X165371Y55726D01*
X165980Y55692D01*
X166637Y55681D01*
G37*
%LPD*%
G36*
X164147Y31141D02*
X163615Y31287D01*
X163117Y31475D01*
X162654Y31705D01*
X162225Y31976D01*
X161831Y32288D01*
X161470Y32642D01*
X161144Y33038D01*
X160853Y33475D01*
X160595Y33953D01*
X160372Y34473D01*
X160184Y35035D01*
X160029Y35638D01*
X159909Y36282D01*
X159823Y36968D01*
X159772Y37696D01*
X159755Y38465D01*
X159775Y39291D01*
X159837Y40069D01*
X159939Y40799D01*
X160083Y41481D01*
X160267Y42116D01*
X160493Y42703D01*
X160760Y43243D01*
X161067Y43734D01*
X161412Y44173D01*
X161791Y44553D01*
X161993Y44721D01*
X162204Y44874D01*
X162423Y45013D01*
X162650Y45137D01*
X162886Y45247D01*
X163130Y45342D01*
X163383Y45422D01*
X163644Y45488D01*
X163913Y45539D01*
X164191Y45576D01*
X164477Y45598D01*
X164772Y45605D01*
X165229Y45588D01*
X165656Y45539D01*
X166051Y45457D01*
X166416Y45341D01*
X166754Y45197D01*
X167069Y45027D01*
X167362Y44832D01*
X167631Y44611D01*
X167878Y44368D01*
X168106Y44104D01*
X168314Y43819D01*
X168502Y43513D01*
X168835Y42858D01*
X169121Y42158D01*
X169367Y41417D01*
X169575Y40643D01*
X169949Y39054D01*
X170203Y37963D01*
X170436Y37069D01*
X170648Y36374D01*
X170839Y35876D01*
X171030Y35501D01*
X171241Y35173D01*
X171471Y34891D01*
X171722Y34656D01*
X172000Y34471D01*
X172152Y34398D01*
X172313Y34338D01*
X172482Y34292D01*
X172659Y34259D01*
X172846Y34239D01*
X173041Y34232D01*
X173371Y34250D01*
X173680Y34301D01*
X173967Y34386D01*
X174234Y34505D01*
X174480Y34659D01*
X174704Y34847D01*
X174907Y35068D01*
X175090Y35324D01*
X175251Y35613D01*
X175390Y35932D01*
X175508Y36281D01*
X175605Y36662D01*
X175680Y37073D01*
X175734Y37514D01*
X175766Y37987D01*
X175777Y38490D01*
X175767Y38949D01*
X175738Y39383D01*
X175690Y39791D01*
X175622Y40173D01*
X175535Y40530D01*
X175428Y40861D01*
X175302Y41166D01*
X175157Y41446D01*
X174991Y41702D01*
X174800Y41937D01*
X174586Y42150D01*
X174349Y42342D01*
X174088Y42512D01*
X173803Y42661D01*
X173495Y42788D01*
X173164Y42894D01*
X173568Y45200D01*
X174092Y45029D01*
X174575Y44829D01*
X175019Y44600D01*
X175422Y44341D01*
X175787Y44054D01*
X176111Y43737D01*
X176396Y43391D01*
X176642Y43016D01*
X176853Y42605D01*
X177036Y42151D01*
X177191Y41653D01*
X177318Y41112D01*
X177417Y40527D01*
X177487Y39900D01*
X177529Y39228D01*
X177543Y38514D01*
X177525Y37746D01*
X177468Y37023D01*
X177374Y36346D01*
X177243Y35715D01*
X177074Y35130D01*
X176867Y34591D01*
X176623Y34097D01*
X176341Y33650D01*
X176025Y33252D01*
X175676Y32906D01*
X175296Y32614D01*
X174884Y32375D01*
X174440Y32190D01*
X174207Y32117D01*
X173965Y32057D01*
X173715Y32010D01*
X173457Y31977D01*
X173192Y31957D01*
X172918Y31951D01*
X172447Y31971D01*
X172004Y32032D01*
X171589Y32133D01*
X171201Y32276D01*
X170838Y32456D01*
X170500Y32673D01*
X170185Y32926D01*
X169894Y33214D01*
X169622Y33549D01*
X169362Y33940D01*
X169116Y34386D01*
X168882Y34889D01*
X168655Y35481D01*
X168428Y36197D01*
X168201Y37036D01*
X167974Y37999D01*
X167471Y40146D01*
X167348Y40613D01*
X167211Y41047D01*
X167060Y41448D01*
X166895Y41814D01*
X166711Y42144D01*
X166505Y42435D01*
X166276Y42687D01*
X166024Y42900D01*
X165740Y43069D01*
X165416Y43190D01*
X165240Y43232D01*
X165053Y43262D01*
X164856Y43280D01*
X164650Y43286D01*
X164284Y43267D01*
X163941Y43209D01*
X163621Y43113D01*
X163323Y42978D01*
X163049Y42805D01*
X162797Y42593D01*
X162568Y42342D01*
X162362Y42053D01*
X162179Y41729D01*
X162021Y41372D01*
X161887Y40983D01*
X161777Y40561D01*
X161692Y40107D01*
X161631Y39621D01*
X161595Y39102D01*
X161583Y38551D01*
X161594Y38016D01*
X161628Y37510D01*
X161685Y37033D01*
X161765Y36585D01*
X161868Y36165D01*
X161993Y35774D01*
X162141Y35412D01*
X162313Y35079D01*
X162508Y34774D01*
X162729Y34496D01*
X162976Y34246D01*
X163250Y34024D01*
X163548Y33829D01*
X163873Y33662D01*
X164224Y33522D01*
X164601Y33411D01*
X164147Y31141D01*
G37*
G36*
X173274Y48431D02*
X160000Y48431D01*
X160000Y50639D01*
X173274Y50639D01*
X173274Y48431D01*
G37*
G36*
X178206Y48431D02*
X176096Y48431D01*
X176096Y50639D01*
X178206Y50639D01*
X178206Y48431D01*
G37*
M02*
