G04 EAGLE Gerber RS-274X export*
G75*
%MOMM*%
%FSLAX34Y34*%
%LPD*%
%INSoldermask Bottom*%
%IPPOS*%
%AMOC8*
5,1,8,0,0,1.08239X$1,22.5*%
G01*
G04 Define Apertures*
%ADD10C,3.203200*%
%ADD11C,1.546600*%
%ADD12R,1.611200X1.611200*%
%ADD13C,1.611200*%
%ADD14C,1.351200*%
%ADD15C,1.109600*%
%ADD16C,1.159600*%
%ADD17C,0.959600*%
D10*
X60000Y790000D03*
X60000Y70000D03*
X580000Y800000D03*
X580000Y60000D03*
D11*
X304800Y292100D03*
X330200Y292100D03*
X355600Y292100D03*
X381000Y292100D03*
X406400Y292100D03*
X431800Y292100D03*
X457200Y292100D03*
X482600Y292100D03*
X482600Y368300D03*
X457200Y368300D03*
X431800Y368300D03*
X406400Y368300D03*
X381000Y368300D03*
X355600Y368300D03*
X330200Y368300D03*
X304800Y368300D03*
X304800Y635000D03*
X330200Y635000D03*
X355600Y635000D03*
X381000Y635000D03*
X406400Y635000D03*
X431800Y635000D03*
X457200Y635000D03*
X482600Y635000D03*
X482600Y711200D03*
X457200Y711200D03*
X431800Y711200D03*
X406400Y711200D03*
X381000Y711200D03*
X355600Y711200D03*
X330200Y711200D03*
X304800Y711200D03*
X304800Y520700D03*
X330200Y520700D03*
X355600Y520700D03*
X381000Y520700D03*
X406400Y520700D03*
X431800Y520700D03*
X457200Y520700D03*
X482600Y520700D03*
X482600Y596900D03*
X457200Y596900D03*
X431800Y596900D03*
X406400Y596900D03*
X381000Y596900D03*
X355600Y596900D03*
X330200Y596900D03*
X304800Y596900D03*
X304800Y406400D03*
X330200Y406400D03*
X355600Y406400D03*
X381000Y406400D03*
X406400Y406400D03*
X431800Y406400D03*
X457200Y406400D03*
X482600Y406400D03*
X482600Y482600D03*
X457200Y482600D03*
X431800Y482600D03*
X406400Y482600D03*
X381000Y482600D03*
X355600Y482600D03*
X330200Y482600D03*
X304800Y482600D03*
D12*
X546100Y702400D03*
D13*
X546100Y727400D03*
D12*
X546100Y621457D03*
D13*
X546100Y646457D03*
D12*
X546100Y540514D03*
D13*
X546100Y565514D03*
D12*
X546100Y459571D03*
D13*
X546100Y484571D03*
D12*
X546100Y378629D03*
D13*
X546100Y403629D03*
D12*
X546100Y297686D03*
D13*
X546100Y322686D03*
D12*
X546100Y216743D03*
D13*
X546100Y241743D03*
D12*
X546100Y135800D03*
D13*
X546100Y160800D03*
D14*
X190300Y771100D03*
X165300Y771100D03*
X140300Y771100D03*
X290200Y771100D03*
X265200Y771100D03*
X240200Y771100D03*
X390100Y771100D03*
X365100Y771100D03*
X340100Y771100D03*
X490000Y771100D03*
X465000Y771100D03*
X440000Y771100D03*
X139700Y88200D03*
X164700Y88200D03*
X189700Y88200D03*
X239800Y88200D03*
X264800Y88200D03*
X289800Y88200D03*
X339900Y88200D03*
X364900Y88200D03*
X389900Y88200D03*
X440000Y88200D03*
X465000Y88200D03*
X490000Y88200D03*
D12*
X88900Y355300D03*
D13*
X88900Y330300D03*
D14*
X88900Y718500D03*
X88900Y693500D03*
X88900Y668500D03*
X88900Y643500D03*
D12*
X88900Y591500D03*
D13*
X88900Y566500D03*
D15*
X207500Y188750D03*
X232500Y161250D03*
X336250Y146250D03*
X335000Y175000D03*
X406250Y755000D03*
X186250Y680000D03*
X62500Y446250D03*
X108750Y446250D03*
X278750Y572500D03*
X282500Y445000D03*
X23750Y403750D03*
D16*
X240000Y722500D03*
X227500Y602500D03*
X173750Y393750D03*
X173750Y476250D03*
X55000Y330000D03*
X138750Y420000D03*
X190000Y237500D03*
X190000Y173750D03*
X316250Y275000D03*
X191250Y272500D03*
D17*
X121250Y686250D03*
X190000Y453750D03*
X197500Y420000D03*
X197500Y647500D03*
X157500Y692500D03*
X157500Y677500D03*
X252500Y657500D03*
X257500Y741250D03*
X346250Y745000D03*
X272500Y665000D03*
X295000Y752500D03*
X265000Y640000D03*
X230000Y618750D03*
X198750Y741250D03*
X172500Y225000D03*
X183750Y605000D03*
X272500Y225000D03*
X258750Y581250D03*
X123750Y312500D03*
X220000Y580000D03*
X220000Y350000D03*
X177500Y576250D03*
X147500Y661250D03*
X132500Y676250D03*
X142500Y722500D03*
X316250Y735000D03*
X145000Y575000D03*
X272500Y655000D03*
X290000Y700000D03*
X205000Y722500D03*
X122500Y676250D03*
X371250Y605000D03*
X131250Y613750D03*
X190000Y568750D03*
X190000Y658750D03*
X147500Y677500D03*
X207500Y580000D03*
X211250Y658750D03*
X282500Y678750D03*
X296250Y692500D03*
X388750Y790000D03*
X166250Y542500D03*
X175000Y522500D03*
X227500Y536250D03*
X172500Y562500D03*
X416250Y676250D03*
X513750Y706250D03*
X513750Y662500D03*
D16*
X292500Y237500D03*
X291250Y187500D03*
X432500Y556250D03*
X367500Y548750D03*
D17*
X202500Y468750D03*
X207500Y420000D03*
X397500Y338750D03*
X541250Y341250D03*
X465000Y302500D03*
X495000Y392500D03*
X550000Y422500D03*
X527500Y378750D03*
D16*
X101250Y285000D03*
D17*
X403750Y217500D03*
X418750Y317500D03*
X273750Y320000D03*
X268750Y362500D03*
X273750Y310000D03*
X258750Y345000D03*
X227500Y382500D03*
X233750Y390000D03*
X240000Y400000D03*
X281250Y370000D03*
X331250Y115000D03*
X196250Y307500D03*
X416250Y430000D03*
X206250Y307500D03*
X207500Y292500D03*
X131250Y320000D03*
X151250Y326250D03*
X181250Y185000D03*
X427500Y206250D03*
X275000Y387500D03*
X186250Y376250D03*
X222500Y305000D03*
X137500Y393750D03*
X147500Y393750D03*
X131250Y492500D03*
X262500Y488750D03*
X297500Y453750D03*
X147500Y381250D03*
X186250Y133750D03*
X438750Y121250D03*
X191250Y333750D03*
X215000Y285000D03*
X171250Y307500D03*
X171250Y265000D03*
X316250Y263750D03*
X166250Y320000D03*
X166250Y411250D03*
X280000Y431250D03*
D16*
X393750Y236250D03*
X391250Y186250D03*
X407500Y271250D03*
X503750Y272500D03*
X478750Y198750D03*
D17*
X265000Y588750D03*
X265000Y557500D03*
X105000Y515000D03*
X58750Y515000D03*
X258750Y362500D03*
X258750Y466250D03*
M02*
