G04 EAGLE Gerber RS-274X export*
G75*
%MOMM*%
%FSLAX34Y34*%
%LPD*%
%INSolderpaste Top*%
%IPPOS*%
%AMOC8*
5,1,8,0,0,1.08239X$1,22.5*%
G01*
G04 Define Apertures*
%ADD10R,1.164600X1.815300*%
%ADD11R,1.188700X1.795500*%
%ADD12R,0.700000X0.500000*%
%ADD13R,0.897900X1.860300*%
%ADD14R,3.189100X1.860300*%
%ADD15R,1.270000X0.558800*%
%ADD16R,0.558800X1.270000*%
%ADD17R,0.798700X0.973900*%
%ADD18R,0.973900X0.798700*%
%ADD19R,0.597100X1.186400*%
%ADD20R,1.815300X1.164600*%
D10*
X103654Y262900D03*
X74146Y262900D03*
X23346Y262900D03*
X52854Y262900D03*
X149785Y152400D03*
X179293Y152400D03*
D11*
X29700Y446099D03*
X29700Y419901D03*
D10*
X250772Y152400D03*
X280280Y152400D03*
X354120Y152400D03*
X383628Y152400D03*
D11*
X89700Y446099D03*
X89700Y419901D03*
D10*
X446333Y152400D03*
X475841Y152400D03*
D12*
X93400Y140500D03*
X84400Y140500D03*
X240400Y686100D03*
X231400Y686100D03*
X240400Y457500D03*
X231400Y457500D03*
D13*
X86500Y227450D03*
X63500Y227450D03*
X40500Y227450D03*
D14*
X63500Y165950D03*
D15*
X160274Y620300D03*
X160274Y612300D03*
X160274Y604300D03*
X160274Y596300D03*
X160274Y588300D03*
X160274Y580300D03*
X160274Y572300D03*
X160274Y564300D03*
D16*
X175200Y549374D03*
X183200Y549374D03*
X191200Y549374D03*
X199200Y549374D03*
X207200Y549374D03*
X215200Y549374D03*
X223200Y549374D03*
X231200Y549374D03*
D15*
X246126Y564300D03*
X246126Y572300D03*
X246126Y580300D03*
X246126Y588300D03*
X246126Y596300D03*
X246126Y604300D03*
X246126Y612300D03*
X246126Y620300D03*
D16*
X231200Y635226D03*
X223200Y635226D03*
X215200Y635226D03*
X207200Y635226D03*
X199200Y635226D03*
X191200Y635226D03*
X183200Y635226D03*
X175200Y635226D03*
D15*
X160274Y391700D03*
X160274Y383700D03*
X160274Y375700D03*
X160274Y367700D03*
X160274Y359700D03*
X160274Y351700D03*
X160274Y343700D03*
X160274Y335700D03*
D16*
X175200Y320774D03*
X183200Y320774D03*
X191200Y320774D03*
X199200Y320774D03*
X207200Y320774D03*
X215200Y320774D03*
X223200Y320774D03*
X231200Y320774D03*
D15*
X246126Y335700D03*
X246126Y343700D03*
X246126Y351700D03*
X246126Y359700D03*
X246126Y367700D03*
X246126Y375700D03*
X246126Y383700D03*
X246126Y391700D03*
D16*
X231200Y406626D03*
X223200Y406626D03*
X215200Y406626D03*
X207200Y406626D03*
X199200Y406626D03*
X191200Y406626D03*
X183200Y406626D03*
X175200Y406626D03*
D17*
X46252Y140500D03*
X29948Y140500D03*
X218652Y686100D03*
X202348Y686100D03*
D18*
X168500Y694952D03*
X168500Y678648D03*
D17*
X156322Y238700D03*
X172626Y238700D03*
X257309Y238700D03*
X273613Y238700D03*
X452974Y238700D03*
X469278Y238700D03*
D18*
X169900Y464952D03*
X169900Y448648D03*
D17*
X218652Y457500D03*
X202348Y457500D03*
X360761Y238700D03*
X377065Y238700D03*
D19*
X172139Y212644D03*
X162639Y212644D03*
X153139Y212644D03*
X153139Y187356D03*
X172139Y187356D03*
X273126Y212644D03*
X263626Y212644D03*
X254126Y212644D03*
X254126Y187356D03*
X273126Y187356D03*
X376474Y212644D03*
X366974Y212644D03*
X357474Y212644D03*
X357474Y187356D03*
X376474Y187356D03*
X468687Y212644D03*
X459187Y212644D03*
X449687Y212644D03*
X449687Y187356D03*
X468687Y187356D03*
D20*
X30000Y514754D03*
X30000Y485246D03*
X90000Y514754D03*
X90000Y485246D03*
M02*
