G04 EAGLE Gerber RS-274X export*
G75*
%MOMM*%
%FSLAX34Y34*%
%LPD*%
%INTop Copper*%
%IPPOS*%
%AMOC8*
5,1,8,0,0,1.08239X$1,22.5*%
G01*
G04 Define Apertures*
%ADD10R,1.800000X1.800000*%
%ADD11C,1.800000*%
%ADD12C,1.320800*%
%ADD13C,1.447800*%
%ADD14C,1.600000*%
%ADD15C,0.400000*%
%ADD16C,0.750000*%
%ADD17C,0.200000*%
%ADD18C,0.756400*%
%ADD19C,0.160000*%
D10*
X122400Y407400D03*
D11*
X122400Y382000D03*
X122400Y356600D03*
X122400Y331200D03*
X122400Y305800D03*
X122400Y280400D03*
X122400Y255000D03*
X122400Y229600D03*
X122400Y204200D03*
X122400Y178800D03*
X122400Y153400D03*
X122400Y128000D03*
X122400Y102600D03*
X122400Y77200D03*
X122400Y51800D03*
X274800Y51800D03*
X274800Y77200D03*
X274800Y102600D03*
X274800Y128000D03*
X274800Y153400D03*
X274800Y178800D03*
X274800Y204200D03*
X274800Y229600D03*
X274800Y255000D03*
X274800Y280400D03*
X274800Y305800D03*
X274800Y331200D03*
X274800Y356600D03*
X274800Y382000D03*
X274800Y407400D03*
D12*
X159004Y499000D02*
X145796Y499000D01*
X145796Y524400D02*
X159004Y524400D01*
X159004Y651400D02*
X145796Y651400D01*
X145796Y676800D02*
X159004Y676800D01*
X159004Y549800D02*
X145796Y549800D01*
X145796Y575200D02*
X159004Y575200D01*
X159004Y626000D02*
X145796Y626000D01*
X145796Y600600D02*
X159004Y600600D01*
X82804Y676800D02*
X69596Y676800D01*
X69596Y651400D02*
X82804Y651400D01*
X82804Y626000D02*
X69596Y626000D01*
X69596Y600600D02*
X82804Y600600D01*
X82804Y575200D02*
X69596Y575200D01*
X69596Y549800D02*
X82804Y549800D01*
X82804Y524400D02*
X69596Y524400D01*
X69596Y499000D02*
X82804Y499000D01*
X268196Y499000D02*
X281404Y499000D01*
X281404Y524400D02*
X268196Y524400D01*
X268196Y651400D02*
X281404Y651400D01*
X281404Y676800D02*
X268196Y676800D01*
X268196Y549800D02*
X281404Y549800D01*
X281404Y575200D02*
X268196Y575200D01*
X268196Y626000D02*
X281404Y626000D01*
X281404Y600600D02*
X268196Y600600D01*
X205204Y676800D02*
X191996Y676800D01*
X191996Y651400D02*
X205204Y651400D01*
X205204Y626000D02*
X191996Y626000D01*
X191996Y600600D02*
X205204Y600600D01*
X205204Y575200D02*
X191996Y575200D01*
X191996Y549800D02*
X205204Y549800D01*
X205204Y524400D02*
X191996Y524400D01*
X191996Y499000D02*
X205204Y499000D01*
D13*
X288700Y736800D03*
X308700Y736800D03*
D14*
X63150Y121400D03*
X63150Y141400D03*
X63150Y161400D03*
X63150Y211400D03*
X63150Y231400D03*
X63150Y251400D03*
X63150Y301400D03*
X63150Y321400D03*
X63150Y341400D03*
X63150Y391400D03*
X63150Y411400D03*
X63150Y431400D03*
D10*
X338300Y407400D03*
D11*
X338300Y382000D03*
X338300Y356600D03*
X338300Y331200D03*
X338300Y305800D03*
X338300Y280400D03*
X338300Y255000D03*
X338300Y229600D03*
X338300Y204200D03*
X338300Y178800D03*
X338300Y153400D03*
X338300Y128000D03*
X338300Y102600D03*
X338300Y77200D03*
X338300Y51800D03*
X490700Y51800D03*
X490700Y77200D03*
X490700Y102600D03*
X490700Y128000D03*
X490700Y153400D03*
X490700Y178800D03*
X490700Y204200D03*
X490700Y229600D03*
X490700Y255000D03*
X490700Y280400D03*
X490700Y305800D03*
X490700Y331200D03*
X490700Y356600D03*
X490700Y382000D03*
X490700Y407400D03*
D12*
X411104Y499000D02*
X397896Y499000D01*
X397896Y524400D02*
X411104Y524400D01*
X411104Y651400D02*
X397896Y651400D01*
X397896Y676800D02*
X411104Y676800D01*
X411104Y549800D02*
X397896Y549800D01*
X397896Y575200D02*
X411104Y575200D01*
X411104Y626000D02*
X397896Y626000D01*
X397896Y600600D02*
X411104Y600600D01*
X334904Y676800D02*
X321696Y676800D01*
X321696Y651400D02*
X334904Y651400D01*
X334904Y626000D02*
X321696Y626000D01*
X321696Y600600D02*
X334904Y600600D01*
X334904Y575200D02*
X321696Y575200D01*
X321696Y549800D02*
X334904Y549800D01*
X334904Y524400D02*
X321696Y524400D01*
X321696Y499000D02*
X334904Y499000D01*
X517596Y499000D02*
X530804Y499000D01*
X530804Y524400D02*
X517596Y524400D01*
X517596Y651400D02*
X530804Y651400D01*
X530804Y676800D02*
X517596Y676800D01*
X517596Y549800D02*
X530804Y549800D01*
X530804Y575200D02*
X517596Y575200D01*
X517596Y626000D02*
X530804Y626000D01*
X530804Y600600D02*
X517596Y600600D01*
X454604Y676800D02*
X441396Y676800D01*
X441396Y651400D02*
X454604Y651400D01*
X454604Y626000D02*
X441396Y626000D01*
X441396Y600600D02*
X454604Y600600D01*
X454604Y575200D02*
X441396Y575200D01*
X441396Y549800D02*
X454604Y549800D01*
X454604Y524400D02*
X441396Y524400D01*
X441396Y499000D02*
X454604Y499000D01*
D14*
X541150Y428600D03*
X541150Y408600D03*
X541150Y388600D03*
X541150Y338600D03*
X541150Y318600D03*
X541150Y298600D03*
X541150Y248600D03*
X541150Y228600D03*
X541150Y208600D03*
X541150Y158600D03*
X541150Y138600D03*
X541150Y118600D03*
D13*
X40000Y510000D03*
X40000Y530000D03*
X40000Y650000D03*
X40000Y670000D03*
X110000Y740000D03*
X130000Y740000D03*
X190000Y740000D03*
X210000Y740000D03*
X560000Y530000D03*
X560000Y510000D03*
X560000Y670000D03*
X560000Y650000D03*
X470000Y740000D03*
X490000Y740000D03*
X382399Y740000D03*
X402399Y740000D03*
D15*
X275000Y330000D02*
X287500Y317500D01*
X287500Y90000D01*
X95000Y90000D01*
X65000Y120000D01*
X275000Y330000D02*
X274800Y331200D01*
X65000Y120000D02*
X63150Y121400D01*
D16*
X152500Y677500D02*
X172500Y697500D01*
X252500Y697500D01*
X255000Y695000D02*
X272500Y677500D01*
X255000Y695000D02*
X252500Y697500D01*
X152500Y677500D02*
X152400Y676800D01*
X272500Y677500D02*
X274800Y676800D01*
X382500Y697500D02*
X385000Y695000D01*
X402500Y677500D01*
X287500Y697500D02*
X257500Y697500D01*
X287500Y697500D02*
X382500Y697500D01*
X402500Y677500D02*
X404500Y676800D01*
X257500Y697500D02*
X255000Y695000D01*
X502500Y697500D02*
X522500Y677500D01*
X502500Y697500D02*
X387500Y697500D01*
X522500Y677500D02*
X524200Y676800D01*
X387500Y697500D02*
X385000Y695000D01*
X287500Y700000D02*
X287500Y735000D01*
X288700Y736800D01*
X287500Y700000D02*
X287500Y697500D01*
X77500Y497500D02*
X97500Y477500D01*
X177500Y477500D01*
X197500Y497500D01*
X77500Y497500D02*
X76200Y499000D01*
X197500Y497500D02*
X198600Y499000D01*
X270000Y440000D02*
X310000Y480000D01*
X327500Y497500D01*
X270000Y440000D02*
X270000Y407500D01*
X272500Y407500D01*
X327500Y497500D02*
X328300Y499000D01*
X274800Y407400D02*
X272500Y407500D01*
X252500Y442500D02*
X200000Y495000D01*
X252500Y442500D02*
X267500Y442500D01*
X200000Y495000D02*
X198600Y499000D01*
X267500Y442500D02*
X270000Y440000D01*
X427500Y477500D02*
X447500Y497500D01*
X427500Y477500D02*
X312500Y477500D01*
X447500Y497500D02*
X448000Y499000D01*
X312500Y477500D02*
X310000Y480000D01*
D17*
X87500Y165000D02*
X65000Y142500D01*
X87500Y165000D02*
X262500Y165000D01*
X272500Y155000D01*
X65000Y142500D02*
X63150Y141400D01*
X272500Y155000D02*
X274800Y153400D01*
X102500Y192500D02*
X65000Y230000D01*
X102500Y192500D02*
X260000Y192500D01*
X272500Y180000D01*
X65000Y230000D02*
X63150Y231400D01*
X272500Y180000D02*
X274800Y178800D01*
X117500Y267500D02*
X65000Y320000D01*
X117500Y267500D02*
X210000Y267500D01*
X272500Y205000D01*
X65000Y320000D02*
X63150Y321400D01*
X272500Y205000D02*
X274800Y204200D01*
X110000Y365000D02*
X65000Y410000D01*
X110000Y365000D02*
X110000Y345000D01*
X157500Y345000D01*
X272500Y230000D01*
X65000Y410000D02*
X63150Y411400D01*
X272500Y230000D02*
X274800Y229600D01*
X147500Y307500D02*
X122500Y282500D01*
X122400Y280400D01*
D18*
X147500Y307500D03*
D17*
X70000Y517500D02*
X75000Y522500D01*
X70000Y517500D02*
X62500Y517500D01*
X50000Y505000D01*
X50000Y262500D01*
X112500Y262500D01*
X120000Y255000D01*
X75000Y522500D02*
X76200Y524400D01*
X120000Y255000D02*
X122400Y255000D01*
X222500Y205000D02*
X242500Y225000D01*
X222500Y205000D02*
X122500Y205000D01*
X122400Y204200D01*
D18*
X242500Y225000D03*
D16*
X200000Y590000D02*
X200000Y600000D01*
X200000Y590000D02*
X200000Y577500D01*
X198600Y575200D01*
X200000Y600000D02*
X198600Y600600D01*
X152500Y600000D02*
X152500Y577500D01*
X152400Y575200D01*
X152500Y600000D02*
X152400Y600600D01*
X150000Y575000D02*
X77500Y575000D01*
X76200Y575200D01*
X150000Y575000D02*
X152400Y575200D01*
X155000Y575000D02*
X195000Y575000D01*
X198600Y575200D01*
X155000Y575000D02*
X152400Y575200D01*
X525000Y577500D02*
X525000Y600000D01*
X525000Y577500D02*
X524200Y575200D01*
X525000Y600000D02*
X524200Y600600D01*
X447500Y575000D02*
X405000Y575000D01*
X404500Y575200D01*
X447500Y575000D02*
X448000Y575200D01*
X450000Y575000D02*
X522500Y575000D01*
X524200Y575200D01*
X450000Y575000D02*
X448000Y575200D01*
X275000Y590000D02*
X275000Y600000D01*
X275000Y590000D02*
X275000Y577500D01*
X274800Y575200D01*
X275000Y600000D02*
X274800Y600600D01*
X277500Y600000D02*
X327500Y600000D01*
X277500Y600000D02*
X274800Y600600D01*
X327500Y600000D02*
X328300Y600600D01*
X330000Y575000D02*
X402500Y575000D01*
X404500Y575200D01*
X330000Y575000D02*
X328300Y575200D01*
X272500Y590000D02*
X202500Y590000D01*
X200000Y590000D01*
X272500Y590000D02*
X275000Y590000D01*
X535000Y382500D02*
X540000Y387500D01*
X535000Y382500D02*
X492500Y382500D01*
X540000Y387500D02*
X541150Y388600D01*
X492500Y382500D02*
X490700Y382000D01*
X322500Y332500D02*
X275000Y380000D01*
X322500Y332500D02*
X337500Y332500D01*
X275000Y380000D02*
X274800Y382000D01*
X337500Y332500D02*
X338300Y331200D01*
X72500Y332500D02*
X65000Y340000D01*
X72500Y332500D02*
X120000Y332500D01*
X65000Y340000D02*
X63150Y341400D01*
X120000Y332500D02*
X122400Y331200D01*
X175000Y382500D02*
X272500Y382500D01*
X175000Y382500D02*
X127500Y430000D01*
X65000Y430000D01*
X272500Y382500D02*
X274800Y382000D01*
X65000Y430000D02*
X63150Y431400D01*
X390000Y382500D02*
X487500Y382500D01*
X390000Y382500D02*
X350000Y422500D01*
X327500Y422500D01*
X282500Y377500D01*
X487500Y382500D02*
X490700Y382000D01*
X282500Y377500D02*
X274800Y382000D01*
D17*
X205000Y517500D02*
X200000Y522500D01*
X205000Y517500D02*
X227500Y517500D01*
X200000Y522500D02*
X198600Y524400D01*
D18*
X227500Y517500D03*
D17*
X185000Y637500D02*
X197500Y650000D01*
X185000Y637500D02*
X107500Y637500D01*
X80000Y610000D01*
X65000Y610000D01*
X30000Y575000D01*
X30000Y172500D01*
X80000Y172500D01*
X197500Y650000D02*
X198600Y651400D01*
D18*
X80000Y172500D03*
D17*
X165000Y130000D02*
X177500Y142500D01*
X165000Y130000D02*
X122500Y130000D01*
X122400Y128000D01*
D18*
X177500Y142500D03*
D17*
X232500Y155000D02*
X235000Y157500D01*
X232500Y155000D02*
X122500Y155000D01*
X122400Y153400D01*
D18*
X235000Y157500D03*
D17*
X245000Y180000D02*
X250000Y185000D01*
X245000Y180000D02*
X122500Y180000D01*
X122400Y178800D01*
D18*
X250000Y185000D03*
D15*
X137500Y535000D02*
X150000Y547500D01*
X137500Y535000D02*
X65000Y535000D01*
X40000Y510000D01*
X150000Y547500D02*
X152400Y549800D01*
X112500Y587500D02*
X150000Y625000D01*
X112500Y587500D02*
X67500Y587500D01*
X40000Y560000D01*
X40000Y530000D01*
X150000Y625000D02*
X152400Y626000D01*
X75000Y627500D02*
X52500Y650000D01*
X40000Y650000D01*
X75000Y627500D02*
X76200Y626000D01*
X257500Y565000D02*
X272500Y550000D01*
X257500Y565000D02*
X122500Y565000D01*
X272500Y550000D02*
X274800Y549800D01*
D18*
X122500Y565000D03*
D17*
X542500Y317500D02*
X552500Y307500D01*
X552500Y180000D01*
X492500Y180000D01*
X542500Y317500D02*
X541150Y318600D01*
X492500Y180000D02*
X490700Y178800D01*
X517500Y205000D02*
X540000Y227500D01*
X517500Y205000D02*
X492500Y205000D01*
X540000Y227500D02*
X541150Y228600D01*
X492500Y205000D02*
X490700Y204200D01*
X515000Y165000D02*
X540000Y140000D01*
X515000Y165000D02*
X487500Y165000D01*
X477500Y175000D01*
X477500Y227500D01*
X490000Y227500D01*
X540000Y140000D02*
X541150Y138600D01*
X490000Y227500D02*
X490700Y229600D01*
X362500Y650000D02*
X330000Y650000D01*
X328300Y651400D01*
D18*
X362500Y650000D03*
D17*
X370000Y497500D02*
X402500Y497500D01*
X404500Y499000D01*
D18*
X370000Y497500D03*
D17*
X335000Y517500D02*
X330000Y522500D01*
X335000Y517500D02*
X367500Y517500D01*
X330000Y522500D02*
X328300Y524400D01*
D18*
X367500Y517500D03*
D17*
X347500Y657500D02*
X330000Y675000D01*
X347500Y657500D02*
X352500Y657500D01*
X330000Y675000D02*
X328300Y676800D01*
D18*
X352500Y657500D03*
D17*
X525000Y497500D02*
X525000Y440000D01*
X545000Y440000D01*
X552500Y432500D01*
X552500Y370000D01*
X335000Y370000D01*
X325000Y360000D01*
X325000Y345000D01*
X342500Y345000D01*
X350000Y337500D01*
X350000Y212500D01*
X347500Y212500D01*
X340000Y205000D01*
X525000Y497500D02*
X524200Y499000D01*
X340000Y205000D02*
X338300Y204200D01*
X395000Y642500D02*
X402500Y650000D01*
X395000Y642500D02*
X340000Y642500D01*
X335000Y637500D01*
X297500Y637500D01*
X402500Y650000D02*
X404500Y651400D01*
D18*
X297500Y637500D03*
D17*
X442500Y645000D02*
X447500Y650000D01*
X442500Y645000D02*
X422500Y645000D01*
X447500Y650000D02*
X448000Y651400D01*
D18*
X422500Y645000D03*
D17*
X512500Y260000D02*
X495000Y242500D01*
X427500Y242500D01*
X340000Y155000D01*
X338300Y153400D01*
D18*
X512500Y260000D03*
D17*
X527500Y520000D02*
X525000Y522500D01*
X527500Y520000D02*
X565000Y520000D01*
X570000Y515000D01*
X570000Y350000D01*
X502500Y350000D01*
X497500Y345000D01*
X487500Y345000D01*
X350000Y207500D01*
X350000Y180000D01*
X340000Y180000D01*
X525000Y522500D02*
X524200Y524400D01*
X340000Y180000D02*
X338300Y178800D01*
D15*
X535000Y332500D02*
X540000Y337500D01*
X535000Y332500D02*
X492500Y332500D01*
X540000Y337500D02*
X541150Y338600D01*
X492500Y332500D02*
X490700Y331200D01*
X405000Y550000D02*
X415000Y560000D01*
X492500Y560000D01*
X517500Y535000D01*
X555000Y535000D01*
X560000Y530000D01*
X405000Y550000D02*
X404500Y549800D01*
X427500Y547500D02*
X440000Y535000D01*
X492500Y535000D01*
X517500Y510000D01*
X560000Y510000D01*
D18*
X427500Y547500D03*
D15*
X327500Y550000D02*
X310000Y567500D01*
X310000Y590000D01*
X492500Y590000D01*
X517500Y615000D01*
X535000Y615000D01*
X560000Y640000D01*
X560000Y650000D01*
X328300Y549800D02*
X327500Y550000D01*
X330000Y627500D02*
X335000Y632500D01*
X390000Y632500D01*
X395000Y637500D01*
X532500Y637500D01*
X547500Y652500D01*
X547500Y665000D01*
X555000Y665000D01*
X560000Y670000D01*
X330000Y627500D02*
X328300Y626000D01*
X525000Y550000D02*
X572500Y597500D01*
X572500Y722500D01*
X487500Y722500D01*
X470000Y740000D01*
X524200Y549800D02*
X525000Y550000D01*
D19*
X272500Y357500D02*
X122500Y357500D01*
X122400Y356600D01*
X272500Y357500D02*
X274800Y356600D01*
X340000Y357500D02*
X490000Y357500D01*
X340000Y357500D02*
X338300Y356600D01*
X490000Y357500D02*
X490700Y356600D01*
M02*
