G04 EAGLE Gerber RS-274X export*
G75*
%MOMM*%
%FSLAX34Y34*%
%LPD*%
%IN*%
%IPPOS*%
%AMOC8*
5,1,8,0,0,1.08239X$1,22.5*%
G01*
G04 Define Apertures*
%ADD10C,0.254000*%
D10*
X0Y50000D02*
X190Y45642D01*
X760Y41318D01*
X1704Y37059D01*
X3015Y32899D01*
X4685Y28869D01*
X6699Y25000D01*
X9042Y21321D01*
X11698Y17861D01*
X14645Y14645D01*
X17861Y11698D01*
X21321Y9042D01*
X25000Y6699D01*
X28869Y4685D01*
X32899Y3015D01*
X37059Y1704D01*
X41318Y760D01*
X45642Y190D01*
X50000Y0D01*
X550000Y0D01*
X554358Y190D01*
X558682Y760D01*
X562941Y1704D01*
X567101Y3015D01*
X571131Y4685D01*
X575000Y6699D01*
X578679Y9042D01*
X582139Y11698D01*
X585355Y14645D01*
X588302Y17861D01*
X590958Y21321D01*
X593301Y25000D01*
X595315Y28869D01*
X596985Y32899D01*
X598296Y37059D01*
X599240Y41318D01*
X599810Y45642D01*
X600000Y50000D01*
X600000Y750000D01*
X599810Y754358D01*
X599240Y758682D01*
X598296Y762941D01*
X596985Y767101D01*
X595315Y771131D01*
X593301Y775000D01*
X590958Y778679D01*
X588302Y782139D01*
X585355Y785355D01*
X582139Y788302D01*
X578679Y790958D01*
X575000Y793301D01*
X571131Y795315D01*
X567101Y796985D01*
X562941Y798296D01*
X558682Y799240D01*
X554358Y799810D01*
X550000Y800000D01*
X50000Y800000D01*
X45642Y799810D01*
X41318Y799240D01*
X37059Y798296D01*
X32899Y796985D01*
X28869Y795315D01*
X25000Y793301D01*
X21321Y790958D01*
X17861Y788302D01*
X14645Y785355D01*
X11698Y782139D01*
X9042Y778679D01*
X6699Y775000D01*
X4685Y771131D01*
X3015Y767101D01*
X1704Y762941D01*
X760Y758682D01*
X190Y754358D01*
X0Y750000D01*
X0Y50000D01*
M02*
