G04 EAGLE Gerber RS-274X export*
G75*
%MOMM*%
%FSLAX34Y34*%
%LPD*%
%INSoldermask Bottom*%
%IPPOS*%
%AMOC8*
5,1,8,0,0,1.08239X$1,22.5*%
G01*
G04 Define Apertures*
%ADD10C,3.203200*%
%ADD11R,2.003200X2.003200*%
%ADD12C,2.003200*%
%ADD13C,1.524000*%
%ADD14C,1.803200*%
%ADD15C,0.959600*%
G36*
X47101Y511436D02*
X47242Y510026D01*
X47106Y508611D01*
X46696Y507249D01*
X46028Y505993D01*
X45127Y504892D01*
X44030Y503988D01*
X42777Y503315D01*
X41416Y502900D01*
X40001Y502758D01*
X38587Y502897D01*
X37228Y503309D01*
X35976Y503978D01*
X34879Y504879D01*
X33978Y505976D01*
X33309Y507228D01*
X32897Y508587D01*
X32758Y510000D01*
X32897Y511413D01*
X33309Y512771D01*
X33978Y514024D01*
X34879Y515121D01*
X35977Y516022D01*
X37229Y516691D01*
X38587Y517103D01*
X39999Y517242D01*
X41409Y517107D01*
X42767Y516698D01*
X44019Y516033D01*
X45116Y515136D01*
X46018Y514041D01*
X46688Y512792D01*
X47101Y511436D01*
G37*
G36*
X47101Y531436D02*
X47242Y530026D01*
X47106Y528611D01*
X46696Y527249D01*
X46028Y525993D01*
X45127Y524892D01*
X44030Y523988D01*
X42777Y523315D01*
X41416Y522900D01*
X40001Y522758D01*
X38587Y522897D01*
X37228Y523309D01*
X35976Y523978D01*
X34879Y524879D01*
X33978Y525976D01*
X33309Y527228D01*
X32897Y528587D01*
X32758Y530000D01*
X32897Y531413D01*
X33309Y532771D01*
X33978Y534024D01*
X34879Y535121D01*
X35977Y536022D01*
X37229Y536691D01*
X38587Y537103D01*
X39999Y537242D01*
X41409Y537107D01*
X42767Y536698D01*
X44019Y536033D01*
X45116Y535136D01*
X46018Y534041D01*
X46688Y532792D01*
X47101Y531436D01*
G37*
G36*
X47101Y651436D02*
X47242Y650026D01*
X47106Y648611D01*
X46696Y647249D01*
X46028Y645993D01*
X45127Y644892D01*
X44030Y643988D01*
X42777Y643315D01*
X41416Y642900D01*
X40001Y642758D01*
X38587Y642897D01*
X37228Y643309D01*
X35976Y643978D01*
X34879Y644879D01*
X33978Y645976D01*
X33309Y647228D01*
X32897Y648587D01*
X32758Y650000D01*
X32897Y651413D01*
X33309Y652771D01*
X33978Y654024D01*
X34879Y655121D01*
X35977Y656022D01*
X37229Y656691D01*
X38587Y657103D01*
X39999Y657242D01*
X41409Y657107D01*
X42767Y656698D01*
X44019Y656033D01*
X45116Y655136D01*
X46018Y654041D01*
X46688Y652792D01*
X47101Y651436D01*
G37*
G36*
X47101Y671436D02*
X47242Y670026D01*
X47106Y668611D01*
X46696Y667249D01*
X46028Y665993D01*
X45127Y664892D01*
X44030Y663988D01*
X42777Y663315D01*
X41416Y662900D01*
X40001Y662758D01*
X38587Y662897D01*
X37228Y663309D01*
X35976Y663978D01*
X34879Y664879D01*
X33978Y665976D01*
X33309Y667228D01*
X32897Y668587D01*
X32758Y670000D01*
X32897Y671413D01*
X33309Y672771D01*
X33978Y674024D01*
X34879Y675121D01*
X35977Y676022D01*
X37229Y676691D01*
X38587Y677103D01*
X39999Y677242D01*
X41409Y677107D01*
X42767Y676698D01*
X44019Y676033D01*
X45116Y675136D01*
X46018Y674041D01*
X46688Y672792D01*
X47101Y671436D01*
G37*
G36*
X111436Y732899D02*
X110026Y732758D01*
X108611Y732894D01*
X107249Y733304D01*
X105993Y733972D01*
X104892Y734873D01*
X103988Y735970D01*
X103315Y737223D01*
X102900Y738584D01*
X102758Y739999D01*
X102897Y741413D01*
X103309Y742772D01*
X103978Y744024D01*
X104879Y745121D01*
X105976Y746022D01*
X107228Y746691D01*
X108587Y747103D01*
X110000Y747242D01*
X111413Y747103D01*
X112771Y746691D01*
X114024Y746022D01*
X115121Y745121D01*
X116022Y744024D01*
X116691Y742771D01*
X117103Y741413D01*
X117242Y740001D01*
X117107Y738591D01*
X116698Y737233D01*
X116033Y735981D01*
X115136Y734884D01*
X114041Y733983D01*
X112792Y733312D01*
X111436Y732899D01*
G37*
G36*
X131436Y732899D02*
X130026Y732758D01*
X128611Y732894D01*
X127249Y733304D01*
X125993Y733972D01*
X124892Y734873D01*
X123988Y735970D01*
X123315Y737223D01*
X122900Y738584D01*
X122758Y739999D01*
X122897Y741413D01*
X123309Y742772D01*
X123978Y744024D01*
X124879Y745121D01*
X125976Y746022D01*
X127228Y746691D01*
X128587Y747103D01*
X130000Y747242D01*
X131413Y747103D01*
X132771Y746691D01*
X134024Y746022D01*
X135121Y745121D01*
X136022Y744024D01*
X136691Y742771D01*
X137103Y741413D01*
X137242Y740001D01*
X137107Y738591D01*
X136698Y737233D01*
X136033Y735981D01*
X135136Y734884D01*
X134041Y733983D01*
X132792Y733312D01*
X131436Y732899D01*
G37*
G36*
X191436Y732899D02*
X190026Y732758D01*
X188611Y732894D01*
X187249Y733304D01*
X185993Y733972D01*
X184892Y734873D01*
X183988Y735970D01*
X183315Y737223D01*
X182900Y738584D01*
X182758Y739999D01*
X182897Y741413D01*
X183309Y742772D01*
X183978Y744024D01*
X184879Y745121D01*
X185976Y746022D01*
X187228Y746691D01*
X188587Y747103D01*
X190000Y747242D01*
X191413Y747103D01*
X192771Y746691D01*
X194024Y746022D01*
X195121Y745121D01*
X196022Y744024D01*
X196691Y742771D01*
X197103Y741413D01*
X197242Y740001D01*
X197107Y738591D01*
X196698Y737233D01*
X196033Y735981D01*
X195136Y734884D01*
X194041Y733983D01*
X192792Y733312D01*
X191436Y732899D01*
G37*
G36*
X211436Y732899D02*
X210026Y732758D01*
X208611Y732894D01*
X207249Y733304D01*
X205993Y733972D01*
X204892Y734873D01*
X203988Y735970D01*
X203315Y737223D01*
X202900Y738584D01*
X202758Y739999D01*
X202897Y741413D01*
X203309Y742772D01*
X203978Y744024D01*
X204879Y745121D01*
X205976Y746022D01*
X207228Y746691D01*
X208587Y747103D01*
X210000Y747242D01*
X211413Y747103D01*
X212771Y746691D01*
X214024Y746022D01*
X215121Y745121D01*
X216022Y744024D01*
X216691Y742771D01*
X217103Y741413D01*
X217242Y740001D01*
X217107Y738591D01*
X216698Y737233D01*
X216033Y735981D01*
X215136Y734884D01*
X214041Y733983D01*
X212792Y733312D01*
X211436Y732899D01*
G37*
G36*
X290136Y729699D02*
X288726Y729558D01*
X287311Y729694D01*
X285949Y730104D01*
X284693Y730772D01*
X283592Y731673D01*
X282688Y732770D01*
X282015Y734023D01*
X281600Y735384D01*
X281458Y736799D01*
X281597Y738213D01*
X282009Y739572D01*
X282678Y740824D01*
X283579Y741921D01*
X284676Y742822D01*
X285928Y743491D01*
X287287Y743903D01*
X288700Y744042D01*
X290113Y743903D01*
X291471Y743491D01*
X292724Y742822D01*
X293821Y741921D01*
X294722Y740824D01*
X295391Y739571D01*
X295803Y738213D01*
X295942Y736801D01*
X295807Y735391D01*
X295398Y734033D01*
X294733Y732781D01*
X293836Y731684D01*
X292741Y730783D01*
X291492Y730112D01*
X290136Y729699D01*
G37*
G36*
X310136Y729699D02*
X308726Y729558D01*
X307311Y729694D01*
X305949Y730104D01*
X304693Y730772D01*
X303592Y731673D01*
X302688Y732770D01*
X302015Y734023D01*
X301600Y735384D01*
X301458Y736799D01*
X301597Y738213D01*
X302009Y739572D01*
X302678Y740824D01*
X303579Y741921D01*
X304676Y742822D01*
X305928Y743491D01*
X307287Y743903D01*
X308700Y744042D01*
X310113Y743903D01*
X311471Y743491D01*
X312724Y742822D01*
X313821Y741921D01*
X314722Y740824D01*
X315391Y739571D01*
X315803Y738213D01*
X315942Y736801D01*
X315807Y735391D01*
X315398Y734033D01*
X314733Y732781D01*
X313836Y731684D01*
X312741Y730783D01*
X311492Y730112D01*
X310136Y729699D01*
G37*
G36*
X383835Y732899D02*
X382425Y732758D01*
X381010Y732894D01*
X379648Y733304D01*
X378392Y733972D01*
X377291Y734873D01*
X376387Y735970D01*
X375714Y737223D01*
X375299Y738584D01*
X375157Y739999D01*
X375296Y741413D01*
X375708Y742772D01*
X376377Y744024D01*
X377278Y745121D01*
X378375Y746022D01*
X379627Y746691D01*
X380986Y747103D01*
X382399Y747242D01*
X383812Y747103D01*
X385170Y746691D01*
X386423Y746022D01*
X387520Y745121D01*
X388421Y744024D01*
X389090Y742771D01*
X389502Y741413D01*
X389641Y740001D01*
X389506Y738591D01*
X389097Y737233D01*
X388432Y735981D01*
X387535Y734884D01*
X386440Y733983D01*
X385191Y733312D01*
X383835Y732899D01*
G37*
G36*
X403835Y732899D02*
X402425Y732758D01*
X401010Y732894D01*
X399648Y733304D01*
X398392Y733972D01*
X397291Y734873D01*
X396387Y735970D01*
X395714Y737223D01*
X395299Y738584D01*
X395157Y739999D01*
X395296Y741413D01*
X395708Y742772D01*
X396377Y744024D01*
X397278Y745121D01*
X398375Y746022D01*
X399627Y746691D01*
X400986Y747103D01*
X402399Y747242D01*
X403812Y747103D01*
X405170Y746691D01*
X406423Y746022D01*
X407520Y745121D01*
X408421Y744024D01*
X409090Y742771D01*
X409502Y741413D01*
X409641Y740001D01*
X409506Y738591D01*
X409097Y737233D01*
X408432Y735981D01*
X407535Y734884D01*
X406440Y733983D01*
X405191Y733312D01*
X403835Y732899D01*
G37*
G36*
X471436Y732899D02*
X470026Y732758D01*
X468611Y732894D01*
X467249Y733304D01*
X465993Y733972D01*
X464892Y734873D01*
X463988Y735970D01*
X463315Y737223D01*
X462900Y738584D01*
X462758Y739999D01*
X462897Y741413D01*
X463309Y742772D01*
X463978Y744024D01*
X464879Y745121D01*
X465976Y746022D01*
X467228Y746691D01*
X468587Y747103D01*
X470000Y747242D01*
X471413Y747103D01*
X472771Y746691D01*
X474024Y746022D01*
X475121Y745121D01*
X476022Y744024D01*
X476691Y742771D01*
X477103Y741413D01*
X477242Y740001D01*
X477107Y738591D01*
X476698Y737233D01*
X476033Y735981D01*
X475136Y734884D01*
X474041Y733983D01*
X472792Y733312D01*
X471436Y732899D01*
G37*
G36*
X491436Y732899D02*
X490026Y732758D01*
X488611Y732894D01*
X487249Y733304D01*
X485993Y733972D01*
X484892Y734873D01*
X483988Y735970D01*
X483315Y737223D01*
X482900Y738584D01*
X482758Y739999D01*
X482897Y741413D01*
X483309Y742772D01*
X483978Y744024D01*
X484879Y745121D01*
X485976Y746022D01*
X487228Y746691D01*
X488587Y747103D01*
X490000Y747242D01*
X491413Y747103D01*
X492771Y746691D01*
X494024Y746022D01*
X495121Y745121D01*
X496022Y744024D01*
X496691Y742771D01*
X497103Y741413D01*
X497242Y740001D01*
X497107Y738591D01*
X496698Y737233D01*
X496033Y735981D01*
X495136Y734884D01*
X494041Y733983D01*
X492792Y733312D01*
X491436Y732899D01*
G37*
G36*
X552899Y508564D02*
X552758Y509974D01*
X552894Y511389D01*
X553304Y512751D01*
X553972Y514007D01*
X554873Y515108D01*
X555970Y516012D01*
X557223Y516685D01*
X558584Y517100D01*
X559999Y517242D01*
X561413Y517103D01*
X562772Y516691D01*
X564024Y516022D01*
X565121Y515121D01*
X566022Y514024D01*
X566691Y512772D01*
X567103Y511413D01*
X567242Y510000D01*
X567103Y508587D01*
X566691Y507229D01*
X566022Y505977D01*
X565121Y504879D01*
X564024Y503978D01*
X562771Y503309D01*
X561413Y502897D01*
X560001Y502758D01*
X558591Y502893D01*
X557233Y503302D01*
X555981Y503967D01*
X554884Y504864D01*
X553983Y505959D01*
X553312Y507208D01*
X552899Y508564D01*
G37*
G36*
X552899Y528564D02*
X552758Y529974D01*
X552894Y531389D01*
X553304Y532751D01*
X553972Y534007D01*
X554873Y535108D01*
X555970Y536012D01*
X557223Y536685D01*
X558584Y537100D01*
X559999Y537242D01*
X561413Y537103D01*
X562772Y536691D01*
X564024Y536022D01*
X565121Y535121D01*
X566022Y534024D01*
X566691Y532772D01*
X567103Y531413D01*
X567242Y530000D01*
X567103Y528587D01*
X566691Y527229D01*
X566022Y525977D01*
X565121Y524879D01*
X564024Y523978D01*
X562771Y523309D01*
X561413Y522897D01*
X560001Y522758D01*
X558591Y522893D01*
X557233Y523302D01*
X555981Y523967D01*
X554884Y524864D01*
X553983Y525959D01*
X553312Y527208D01*
X552899Y528564D01*
G37*
G36*
X552899Y648564D02*
X552758Y649974D01*
X552894Y651389D01*
X553304Y652751D01*
X553972Y654007D01*
X554873Y655108D01*
X555970Y656012D01*
X557223Y656685D01*
X558584Y657100D01*
X559999Y657242D01*
X561413Y657103D01*
X562772Y656691D01*
X564024Y656022D01*
X565121Y655121D01*
X566022Y654024D01*
X566691Y652772D01*
X567103Y651413D01*
X567242Y650000D01*
X567103Y648587D01*
X566691Y647229D01*
X566022Y645977D01*
X565121Y644879D01*
X564024Y643978D01*
X562771Y643309D01*
X561413Y642897D01*
X560001Y642758D01*
X558591Y642893D01*
X557233Y643302D01*
X555981Y643967D01*
X554884Y644864D01*
X553983Y645959D01*
X553312Y647208D01*
X552899Y648564D01*
G37*
G36*
X552899Y668564D02*
X552758Y669974D01*
X552894Y671389D01*
X553304Y672751D01*
X553972Y674007D01*
X554873Y675108D01*
X555970Y676012D01*
X557223Y676685D01*
X558584Y677100D01*
X559999Y677242D01*
X561413Y677103D01*
X562772Y676691D01*
X564024Y676022D01*
X565121Y675121D01*
X566022Y674024D01*
X566691Y672772D01*
X567103Y671413D01*
X567242Y670000D01*
X567103Y668587D01*
X566691Y667229D01*
X566022Y665977D01*
X565121Y664879D01*
X564024Y663978D01*
X562771Y663309D01*
X561413Y662897D01*
X560001Y662758D01*
X558591Y662893D01*
X557233Y663302D01*
X555981Y663967D01*
X554884Y664864D01*
X553983Y665959D01*
X553312Y667208D01*
X552899Y668564D01*
G37*
D10*
X550000Y750000D03*
X50000Y750000D03*
X50000Y50000D03*
X550000Y50000D03*
D11*
X122400Y407400D03*
D12*
X122400Y382000D03*
X122400Y356600D03*
X122400Y331200D03*
X122400Y305800D03*
X122400Y280400D03*
X122400Y255000D03*
X122400Y229600D03*
X122400Y204200D03*
X122400Y178800D03*
X122400Y153400D03*
X122400Y128000D03*
X122400Y102600D03*
X122400Y77200D03*
X122400Y51800D03*
X274800Y51800D03*
X274800Y77200D03*
X274800Y102600D03*
X274800Y128000D03*
X274800Y153400D03*
X274800Y178800D03*
X274800Y204200D03*
X274800Y229600D03*
X274800Y255000D03*
X274800Y280400D03*
X274800Y305800D03*
X274800Y331200D03*
X274800Y356600D03*
X274800Y382000D03*
X274800Y407400D03*
D13*
X159004Y499000D02*
X145796Y499000D01*
X145796Y524400D02*
X159004Y524400D01*
X159004Y651400D02*
X145796Y651400D01*
X145796Y676800D02*
X159004Y676800D01*
X159004Y549800D02*
X145796Y549800D01*
X145796Y575200D02*
X159004Y575200D01*
X159004Y626000D02*
X145796Y626000D01*
X145796Y600600D02*
X159004Y600600D01*
X82804Y676800D02*
X69596Y676800D01*
X69596Y651400D02*
X82804Y651400D01*
X82804Y626000D02*
X69596Y626000D01*
X69596Y600600D02*
X82804Y600600D01*
X82804Y575200D02*
X69596Y575200D01*
X69596Y549800D02*
X82804Y549800D01*
X82804Y524400D02*
X69596Y524400D01*
X69596Y499000D02*
X82804Y499000D01*
X268196Y499000D02*
X281404Y499000D01*
X281404Y524400D02*
X268196Y524400D01*
X268196Y651400D02*
X281404Y651400D01*
X281404Y676800D02*
X268196Y676800D01*
X268196Y549800D02*
X281404Y549800D01*
X281404Y575200D02*
X268196Y575200D01*
X268196Y626000D02*
X281404Y626000D01*
X281404Y600600D02*
X268196Y600600D01*
X205204Y676800D02*
X191996Y676800D01*
X191996Y651400D02*
X205204Y651400D01*
X205204Y626000D02*
X191996Y626000D01*
X191996Y600600D02*
X205204Y600600D01*
X205204Y575200D02*
X191996Y575200D01*
X191996Y549800D02*
X205204Y549800D01*
X205204Y524400D02*
X191996Y524400D01*
X191996Y499000D02*
X205204Y499000D01*
D14*
X63150Y121400D03*
X63150Y141400D03*
X63150Y161400D03*
X63150Y211400D03*
X63150Y231400D03*
X63150Y251400D03*
X63150Y301400D03*
X63150Y321400D03*
X63150Y341400D03*
X63150Y391400D03*
X63150Y411400D03*
X63150Y431400D03*
D11*
X338300Y407400D03*
D12*
X338300Y382000D03*
X338300Y356600D03*
X338300Y331200D03*
X338300Y305800D03*
X338300Y280400D03*
X338300Y255000D03*
X338300Y229600D03*
X338300Y204200D03*
X338300Y178800D03*
X338300Y153400D03*
X338300Y128000D03*
X338300Y102600D03*
X338300Y77200D03*
X338300Y51800D03*
X490700Y51800D03*
X490700Y77200D03*
X490700Y102600D03*
X490700Y128000D03*
X490700Y153400D03*
X490700Y178800D03*
X490700Y204200D03*
X490700Y229600D03*
X490700Y255000D03*
X490700Y280400D03*
X490700Y305800D03*
X490700Y331200D03*
X490700Y356600D03*
X490700Y382000D03*
X490700Y407400D03*
D13*
X411104Y499000D02*
X397896Y499000D01*
X397896Y524400D02*
X411104Y524400D01*
X411104Y651400D02*
X397896Y651400D01*
X397896Y676800D02*
X411104Y676800D01*
X411104Y549800D02*
X397896Y549800D01*
X397896Y575200D02*
X411104Y575200D01*
X411104Y626000D02*
X397896Y626000D01*
X397896Y600600D02*
X411104Y600600D01*
X334904Y676800D02*
X321696Y676800D01*
X321696Y651400D02*
X334904Y651400D01*
X334904Y626000D02*
X321696Y626000D01*
X321696Y600600D02*
X334904Y600600D01*
X334904Y575200D02*
X321696Y575200D01*
X321696Y549800D02*
X334904Y549800D01*
X334904Y524400D02*
X321696Y524400D01*
X321696Y499000D02*
X334904Y499000D01*
X517596Y499000D02*
X530804Y499000D01*
X530804Y524400D02*
X517596Y524400D01*
X517596Y651400D02*
X530804Y651400D01*
X530804Y676800D02*
X517596Y676800D01*
X517596Y549800D02*
X530804Y549800D01*
X530804Y575200D02*
X517596Y575200D01*
X517596Y626000D02*
X530804Y626000D01*
X530804Y600600D02*
X517596Y600600D01*
X454604Y676800D02*
X441396Y676800D01*
X441396Y651400D02*
X454604Y651400D01*
X454604Y626000D02*
X441396Y626000D01*
X441396Y600600D02*
X454604Y600600D01*
X454604Y575200D02*
X441396Y575200D01*
X441396Y549800D02*
X454604Y549800D01*
X454604Y524400D02*
X441396Y524400D01*
X441396Y499000D02*
X454604Y499000D01*
D14*
X541150Y428600D03*
X541150Y408600D03*
X541150Y388600D03*
X541150Y338600D03*
X541150Y318600D03*
X541150Y298600D03*
X541150Y248600D03*
X541150Y228600D03*
X541150Y208600D03*
X541150Y158600D03*
X541150Y138600D03*
X541150Y118600D03*
D15*
X147500Y307500D03*
X242500Y225000D03*
X227500Y517500D03*
X80000Y172500D03*
X177500Y142500D03*
X235000Y157500D03*
X250000Y185000D03*
X122500Y565000D03*
X362500Y650000D03*
X370000Y497500D03*
X367500Y517500D03*
X352500Y657500D03*
X297500Y637500D03*
X422500Y645000D03*
X512500Y260000D03*
X427500Y547500D03*
M02*
