G04 EAGLE Gerber RS-274X export*
G75*
%MOMM*%
%FSLAX34Y34*%
%LPD*%
%INTop Copper*%
%IPPOS*%
%AMOC8*
5,1,8,0,0,1.08239X$1,22.5*%
G01*
G04 Define Apertures*
%ADD10R,1.164600X1.815300*%
%ADD11R,0.500000X0.700000*%
%ADD12R,0.700000X0.500000*%
%ADD13R,1.860300X0.897900*%
%ADD14R,1.860300X3.189100*%
%ADD15R,1.270000X0.558800*%
%ADD16R,0.558800X1.270000*%
%ADD17C,1.343400*%
%ADD18R,1.408000X1.408000*%
%ADD19C,1.408000*%
%ADD20C,1.148000*%
%ADD21R,0.973900X0.798700*%
%ADD22R,0.798700X0.973900*%
%ADD23R,1.795500X1.188700*%
%ADD24C,0.152400*%
%ADD25C,0.756400*%
D10*
X37246Y290000D03*
X66754Y290000D03*
X37246Y170000D03*
X66754Y170000D03*
D11*
X109123Y254500D03*
X109123Y245500D03*
D12*
X220748Y600877D03*
X211748Y600877D03*
X218648Y369050D03*
X209648Y369050D03*
D13*
X21250Y253000D03*
X21250Y230000D03*
X21250Y207000D03*
D14*
X82750Y230000D03*
D15*
X150164Y538000D03*
X150164Y530000D03*
X150164Y522000D03*
X150164Y514000D03*
X150164Y506000D03*
X150164Y498000D03*
X150164Y490000D03*
X150164Y482000D03*
D16*
X165090Y467074D03*
X173090Y467074D03*
X181090Y467074D03*
X189090Y467074D03*
X197090Y467074D03*
X205090Y467074D03*
X213090Y467074D03*
X221090Y467074D03*
D15*
X236016Y482000D03*
X236016Y490000D03*
X236016Y498000D03*
X236016Y506000D03*
X236016Y514000D03*
X236016Y522000D03*
X236016Y530000D03*
X236016Y538000D03*
D16*
X221090Y552926D03*
X213090Y552926D03*
X205090Y552926D03*
X197090Y552926D03*
X189090Y552926D03*
X181090Y552926D03*
X173090Y552926D03*
X165090Y552926D03*
D17*
X458900Y606700D03*
X433500Y606700D03*
X408100Y606700D03*
X382700Y606700D03*
X357300Y606700D03*
X331900Y606700D03*
X306500Y606700D03*
X281100Y606700D03*
X281100Y530500D03*
X306500Y530500D03*
X331900Y530500D03*
X357300Y530500D03*
X382700Y530500D03*
X408100Y530500D03*
X433500Y530500D03*
X458900Y530500D03*
X458900Y494433D03*
X433500Y494433D03*
X408100Y494433D03*
X382700Y494433D03*
X357300Y494433D03*
X331900Y494433D03*
X306500Y494433D03*
X281100Y494433D03*
X281100Y418233D03*
X306500Y418233D03*
X331900Y418233D03*
X357300Y418233D03*
X382700Y418233D03*
X408100Y418233D03*
X433500Y418233D03*
X458900Y418233D03*
D15*
X150164Y308000D03*
X150164Y300000D03*
X150164Y292000D03*
X150164Y284000D03*
X150164Y276000D03*
X150164Y268000D03*
X150164Y260000D03*
X150164Y252000D03*
D16*
X165090Y237074D03*
X173090Y237074D03*
X181090Y237074D03*
X189090Y237074D03*
X197090Y237074D03*
X205090Y237074D03*
X213090Y237074D03*
X221090Y237074D03*
D15*
X236016Y252000D03*
X236016Y260000D03*
X236016Y268000D03*
X236016Y276000D03*
X236016Y284000D03*
X236016Y292000D03*
X236016Y300000D03*
X236016Y308000D03*
D16*
X221090Y322926D03*
X213090Y322926D03*
X205090Y322926D03*
X197090Y322926D03*
X189090Y322926D03*
X181090Y322926D03*
X173090Y322926D03*
X165090Y322926D03*
D17*
X458900Y382167D03*
X433500Y382167D03*
X408100Y382167D03*
X382700Y382167D03*
X357300Y382167D03*
X331900Y382167D03*
X306500Y382167D03*
X281100Y382167D03*
X281100Y305967D03*
X306500Y305967D03*
X331900Y305967D03*
X357300Y305967D03*
X382700Y305967D03*
X408100Y305967D03*
X433500Y305967D03*
X458900Y305967D03*
X458900Y269900D03*
X433500Y269900D03*
X408100Y269900D03*
X382700Y269900D03*
X357300Y269900D03*
X331900Y269900D03*
X306500Y269900D03*
X281100Y269900D03*
X281100Y193700D03*
X306500Y193700D03*
X331900Y193700D03*
X357300Y193700D03*
X382700Y193700D03*
X408100Y193700D03*
X433500Y193700D03*
X458900Y193700D03*
D18*
X537800Y680300D03*
D19*
X537800Y705300D03*
D18*
X537800Y596000D03*
D19*
X537800Y621000D03*
D18*
X537800Y511700D03*
D19*
X537800Y536700D03*
D18*
X537800Y427400D03*
D19*
X537800Y452400D03*
D18*
X537800Y343100D03*
D19*
X537800Y368100D03*
D18*
X537800Y258800D03*
D19*
X537800Y283800D03*
D18*
X537800Y174500D03*
D19*
X537800Y199500D03*
D18*
X537800Y90200D03*
D19*
X537800Y115200D03*
D20*
X88900Y92500D03*
X113900Y92500D03*
X138900Y92500D03*
X193200Y92500D03*
X218200Y92500D03*
X243200Y92500D03*
X297500Y92500D03*
X322500Y92500D03*
X347500Y92500D03*
X401800Y92500D03*
X426800Y92500D03*
X451800Y92500D03*
X453900Y697500D03*
X428900Y697500D03*
X403900Y697500D03*
X349600Y697500D03*
X324600Y697500D03*
X299600Y697500D03*
X245300Y697500D03*
X220300Y697500D03*
X195300Y697500D03*
X141000Y697500D03*
X116000Y697500D03*
X91000Y697500D03*
D18*
X93613Y388500D03*
D19*
X93613Y363500D03*
D21*
X109123Y201848D03*
X109123Y218152D03*
D22*
X209446Y419800D03*
X225750Y419800D03*
X179586Y600877D03*
X163282Y600877D03*
X207346Y189800D03*
X223650Y189800D03*
X179586Y369050D03*
X163282Y369050D03*
D20*
X93613Y598600D03*
X93613Y573600D03*
X93613Y548600D03*
X93613Y523600D03*
D18*
X93613Y468587D03*
D19*
X93613Y443587D03*
D23*
X160205Y420000D03*
X186403Y420000D03*
X160205Y190000D03*
X186403Y190000D03*
D24*
X35000Y255000D02*
X35000Y290000D01*
X35000Y255000D02*
X25000Y255000D01*
X35000Y290000D02*
X37246Y290000D01*
X25000Y255000D02*
X21250Y253000D01*
X95000Y385000D02*
X280000Y385000D01*
X95000Y385000D02*
X93613Y388500D01*
X280000Y385000D02*
X281100Y382167D01*
X40000Y335000D02*
X40000Y290000D01*
X37246Y290000D01*
X445000Y520000D02*
X455000Y530000D01*
X445000Y520000D02*
X350000Y520000D01*
X335000Y505000D01*
X295000Y505000D01*
X285000Y495000D01*
X455000Y530000D02*
X458900Y530500D01*
X285000Y495000D02*
X281100Y494433D01*
D25*
X40000Y335000D03*
D24*
X230000Y590000D02*
X220000Y600000D01*
X230000Y590000D02*
X340000Y590000D01*
X355000Y605000D01*
X220748Y600877D02*
X220000Y600000D01*
X355000Y605000D02*
X357300Y606700D01*
X360000Y605000D02*
X380000Y605000D01*
X382700Y606700D01*
X360000Y605000D02*
X357300Y606700D01*
X360000Y495000D02*
X380000Y495000D01*
X360000Y495000D02*
X357300Y494433D01*
X380000Y495000D02*
X382700Y494433D01*
X160000Y510000D02*
X155000Y505000D01*
X160000Y510000D02*
X160000Y520000D01*
X155000Y520000D01*
X150164Y506000D02*
X155000Y505000D01*
X155000Y520000D02*
X150164Y522000D01*
X240000Y515000D02*
X340000Y515000D01*
X355000Y530000D01*
X240000Y515000D02*
X236016Y514000D01*
X355000Y530000D02*
X357300Y530500D01*
X165000Y505000D02*
X160000Y510000D01*
X165000Y505000D02*
X170000Y505000D01*
X175000Y510000D01*
X225000Y510000D01*
X230000Y515000D01*
X235000Y515000D01*
X236016Y514000D01*
X360000Y530000D02*
X380000Y530000D01*
X382700Y530500D01*
X360000Y530000D02*
X357300Y530500D01*
X210000Y380000D02*
X220000Y370000D01*
X210000Y380000D02*
X110000Y380000D01*
X95000Y365000D01*
X93613Y363500D01*
X360000Y385000D02*
X380000Y385000D01*
X360000Y385000D02*
X357300Y382167D01*
X380000Y385000D02*
X382700Y382167D01*
X200000Y430000D02*
X190000Y420000D01*
X200000Y430000D02*
X255000Y430000D01*
X280000Y405000D01*
X285000Y405000D01*
X295000Y415000D01*
X295000Y430000D01*
X310000Y430000D01*
X320000Y420000D01*
X320000Y405000D01*
X345000Y405000D01*
X355000Y415000D01*
X190000Y420000D02*
X186403Y420000D01*
X355000Y415000D02*
X357300Y418233D01*
X360000Y420000D02*
X380000Y420000D01*
X382700Y418233D01*
X360000Y420000D02*
X357300Y418233D01*
X345000Y370000D02*
X220000Y370000D01*
X345000Y370000D02*
X355000Y380000D01*
X220000Y370000D02*
X218648Y369050D01*
X355000Y380000D02*
X357300Y382167D01*
X160000Y280000D02*
X155000Y275000D01*
X160000Y285000D02*
X160000Y290000D01*
X160000Y285000D02*
X160000Y280000D01*
X160000Y290000D02*
X155000Y290000D01*
X150164Y276000D02*
X155000Y275000D01*
X155000Y290000D02*
X150164Y292000D01*
X160000Y285000D02*
X235000Y285000D01*
X236016Y284000D01*
X105000Y260000D02*
X75000Y290000D01*
X105000Y260000D02*
X110000Y255000D01*
X75000Y290000D02*
X66754Y290000D01*
X109123Y254500D02*
X110000Y255000D01*
X170000Y205000D02*
X185000Y190000D01*
X170000Y205000D02*
X120000Y205000D01*
X115000Y210000D01*
X105000Y210000D01*
X85000Y230000D01*
X185000Y190000D02*
X186403Y190000D01*
X85000Y230000D02*
X82750Y230000D01*
X70000Y230000D02*
X70000Y170000D01*
X75000Y230000D02*
X82750Y230000D01*
X75000Y230000D02*
X70000Y230000D01*
X70000Y170000D02*
X66754Y170000D01*
X70000Y230000D02*
X21250Y230000D01*
X75000Y230000D02*
X105000Y260000D01*
X75000Y290000D02*
X150000Y290000D01*
X150164Y292000D01*
X140000Y90000D02*
X150000Y80000D01*
X230000Y80000D01*
X240000Y90000D01*
X140000Y90000D02*
X138900Y92500D01*
X240000Y90000D02*
X243200Y92500D01*
X360000Y270000D02*
X380000Y270000D01*
X360000Y270000D02*
X357300Y269900D01*
X380000Y270000D02*
X382700Y269900D01*
X380000Y305000D02*
X360000Y305000D01*
X357300Y305967D01*
X380000Y305000D02*
X382700Y305967D01*
X450000Y90000D02*
X440000Y80000D01*
X360000Y80000D01*
X347500Y92500D01*
X450000Y90000D02*
X451800Y92500D01*
X380000Y195000D02*
X360000Y195000D01*
X380000Y195000D02*
X382700Y193700D01*
X360000Y195000D02*
X357300Y193700D01*
X245000Y90000D02*
X260000Y75000D01*
X330000Y75000D01*
X347500Y92500D01*
X245000Y90000D02*
X243200Y92500D01*
X245000Y280000D02*
X240000Y285000D01*
X245000Y280000D02*
X345000Y280000D01*
X355000Y270000D01*
X240000Y285000D02*
X236016Y284000D01*
X355000Y270000D02*
X357300Y269900D01*
X310000Y105000D02*
X297500Y92500D01*
X310000Y105000D02*
X390000Y105000D01*
X400000Y95000D01*
X401800Y92500D01*
X35000Y170000D02*
X35000Y205000D01*
X25000Y205000D01*
X35000Y170000D02*
X37246Y170000D01*
X25000Y205000D02*
X21250Y207000D01*
X110000Y200000D02*
X115000Y195000D01*
X155000Y195000D01*
X160000Y190000D01*
X110000Y200000D02*
X109123Y201848D01*
X160000Y190000D02*
X160205Y190000D01*
X200000Y180000D02*
X205000Y185000D01*
X200000Y180000D02*
X175000Y180000D01*
X165000Y190000D01*
X205000Y185000D02*
X207346Y189800D01*
X165000Y190000D02*
X160205Y190000D01*
X90000Y200000D02*
X90000Y155000D01*
X90000Y105000D01*
X90000Y95000D01*
X90000Y200000D02*
X105000Y200000D01*
X90000Y95000D02*
X88900Y92500D01*
X105000Y200000D02*
X109123Y201848D01*
X180000Y105000D02*
X190000Y95000D01*
X180000Y105000D02*
X90000Y105000D01*
X190000Y95000D02*
X193200Y92500D01*
X55000Y155000D02*
X40000Y170000D01*
X55000Y155000D02*
X90000Y155000D01*
X40000Y170000D02*
X37246Y170000D01*
X280000Y110000D02*
X297500Y92500D01*
X280000Y110000D02*
X210000Y110000D01*
X195000Y95000D01*
X193200Y92500D01*
X170000Y500000D02*
X155000Y500000D01*
X170000Y500000D02*
X175000Y505000D01*
X215000Y505000D02*
X235000Y505000D01*
X215000Y505000D02*
X175000Y505000D01*
X155000Y500000D02*
X150164Y498000D01*
X235000Y505000D02*
X236016Y506000D01*
X150000Y515000D02*
X145000Y515000D01*
X140000Y510000D01*
X140000Y500000D01*
X150000Y500000D01*
X150164Y514000D02*
X150000Y515000D01*
X150000Y500000D02*
X150164Y498000D01*
X230000Y490000D02*
X236016Y490000D01*
X230000Y490000D02*
X215000Y505000D01*
X220000Y270000D02*
X225000Y270000D01*
X220000Y270000D02*
X155000Y270000D01*
X225000Y270000D02*
X230000Y275000D01*
X235000Y275000D01*
X155000Y270000D02*
X150164Y268000D01*
X235000Y275000D02*
X236016Y276000D01*
X150000Y285000D02*
X145000Y285000D01*
X140000Y280000D01*
X140000Y270000D01*
X150000Y270000D01*
X150164Y284000D02*
X150000Y285000D01*
X150000Y270000D02*
X150164Y268000D01*
X230000Y260000D02*
X236016Y260000D01*
X230000Y260000D02*
X220000Y270000D01*
X205000Y410000D02*
X210000Y415000D01*
X205000Y410000D02*
X175000Y410000D01*
X165000Y420000D01*
X209446Y419800D02*
X210000Y415000D01*
X165000Y420000D02*
X160205Y420000D01*
X155000Y685000D02*
X145000Y695000D01*
X155000Y685000D02*
X235000Y685000D01*
X245000Y695000D01*
X145000Y695000D02*
X141000Y697500D01*
X245000Y695000D02*
X245300Y697500D01*
X335000Y685000D02*
X345000Y695000D01*
X335000Y685000D02*
X235000Y685000D01*
X345000Y695000D02*
X349600Y697500D01*
X440000Y685000D02*
X450000Y695000D01*
X440000Y685000D02*
X335000Y685000D01*
X450000Y695000D02*
X453900Y697500D01*
X160000Y420000D02*
X135000Y445000D01*
X115000Y445000D01*
X160000Y420000D02*
X160205Y420000D01*
X140000Y280000D02*
X135000Y280000D01*
X140000Y500000D02*
X105000Y500000D01*
D25*
X115000Y445000D03*
X135000Y280000D03*
X105000Y500000D03*
D24*
X110000Y245000D02*
X110000Y220000D01*
X110000Y245000D02*
X109123Y245500D01*
X110000Y220000D02*
X109123Y218152D01*
X210000Y530000D02*
X236016Y530000D01*
X210000Y530000D02*
X195000Y515000D01*
X170000Y515000D01*
X160000Y345000D02*
X130000Y315000D01*
D25*
X170000Y515000D03*
X160000Y345000D03*
X130000Y315000D03*
D24*
X245000Y535000D02*
X240000Y540000D01*
X245000Y535000D02*
X270000Y535000D01*
X280000Y545000D01*
X335000Y90000D02*
X325000Y80000D01*
X270000Y80000D01*
X245000Y105000D01*
X230000Y105000D01*
X220000Y95000D01*
X236016Y538000D02*
X240000Y540000D01*
X220000Y95000D02*
X218200Y92500D01*
D25*
X280000Y545000D03*
X335000Y90000D03*
D24*
X250000Y550000D02*
X220000Y550000D01*
X221090Y552926D01*
D25*
X250000Y550000D03*
D24*
X215000Y555000D02*
X215000Y565000D01*
X235000Y565000D01*
X240000Y560000D01*
X215000Y555000D02*
X213090Y552926D01*
D25*
X240000Y560000D03*
D24*
X190000Y565000D02*
X190000Y555000D01*
X190000Y565000D02*
X110000Y565000D01*
X189090Y552926D02*
X190000Y555000D01*
X220000Y200000D02*
X220000Y190000D01*
X200000Y305000D02*
X190000Y315000D01*
X190000Y320000D01*
X220000Y190000D02*
X223650Y189800D01*
X190000Y320000D02*
X189090Y322926D01*
X205000Y395000D02*
X225000Y415000D01*
X225750Y419800D01*
X165000Y395000D02*
X125000Y435000D01*
X165000Y395000D02*
X205000Y395000D01*
D25*
X110000Y565000D03*
X220000Y200000D03*
X200000Y305000D03*
X205000Y395000D03*
X125000Y435000D03*
D24*
X215000Y250000D02*
X215000Y240000D01*
X220000Y455000D02*
X215000Y460000D01*
X215000Y465000D01*
X215000Y240000D02*
X213090Y237074D01*
X215000Y465000D02*
X213090Y467074D01*
X145000Y550000D02*
X95000Y550000D01*
X93613Y548600D01*
D25*
X215000Y250000D03*
X220000Y455000D03*
X145000Y550000D03*
D24*
X220000Y235000D02*
X230000Y235000D01*
X230000Y465000D02*
X220000Y465000D01*
X221090Y237074D02*
X220000Y235000D01*
X220000Y465000D02*
X221090Y467074D01*
D25*
X230000Y235000D03*
X230000Y465000D03*
D24*
X245000Y255000D02*
X240000Y250000D01*
X245000Y255000D02*
X250000Y255000D01*
X245000Y480000D02*
X250000Y485000D01*
X245000Y480000D02*
X240000Y480000D01*
X236016Y252000D02*
X240000Y250000D01*
X240000Y480000D02*
X236016Y482000D01*
D25*
X250000Y255000D03*
X250000Y485000D03*
D24*
X205000Y480000D02*
X205000Y470000D01*
X205000Y480000D02*
X165000Y480000D01*
X155000Y470000D01*
X95000Y470000D01*
X205000Y470000D02*
X205090Y467074D01*
X95000Y470000D02*
X93613Y468587D01*
X205000Y260000D02*
X205000Y240000D01*
X205000Y260000D02*
X175000Y260000D01*
X160000Y245000D01*
X140000Y245000D01*
X105000Y280000D01*
X205000Y240000D02*
X205090Y237074D01*
D25*
X105000Y280000D03*
D24*
X195000Y455000D02*
X195000Y465000D01*
X195000Y455000D02*
X200000Y455000D01*
X195000Y585000D02*
X190000Y590000D01*
X195000Y585000D02*
X455000Y585000D01*
X197090Y467074D02*
X195000Y465000D01*
D25*
X200000Y455000D03*
X190000Y590000D03*
X455000Y585000D03*
D24*
X155000Y550000D02*
X155000Y540000D01*
X180000Y580000D02*
X420000Y580000D01*
X430000Y570000D01*
X430000Y550000D01*
X300000Y550000D01*
X285000Y535000D01*
X155000Y540000D02*
X150164Y538000D01*
X281100Y530500D02*
X285000Y535000D01*
D25*
X155000Y550000D03*
X180000Y580000D03*
D24*
X165000Y465000D02*
X155000Y455000D01*
X85000Y455000D01*
X80000Y460000D01*
X80000Y630000D01*
X425000Y630000D01*
X430000Y635000D01*
X165090Y467074D02*
X165000Y465000D01*
D25*
X430000Y635000D03*
D24*
X175000Y465000D02*
X175000Y435000D01*
X265000Y435000D01*
X280000Y420000D01*
X175000Y465000D02*
X173090Y467074D01*
X280000Y420000D02*
X281100Y418233D01*
X190000Y445000D02*
X190000Y465000D01*
X190000Y445000D02*
X395000Y445000D01*
X400000Y450000D01*
X190000Y465000D02*
X189090Y467074D01*
D25*
X400000Y450000D03*
D24*
X160000Y495000D02*
X155000Y490000D01*
X160000Y495000D02*
X175000Y495000D01*
X220000Y400000D02*
X215000Y395000D01*
X220000Y400000D02*
X290000Y400000D01*
X305000Y415000D01*
X155000Y490000D02*
X150164Y490000D01*
X306500Y418233D02*
X305000Y415000D01*
D25*
X175000Y495000D03*
X215000Y395000D03*
D24*
X155000Y480000D02*
X160000Y485000D01*
X220000Y485000D01*
X230000Y475000D01*
X290000Y475000D01*
X305000Y490000D01*
X155000Y480000D02*
X150164Y482000D01*
X305000Y490000D02*
X306500Y494433D01*
X180000Y540000D02*
X180000Y550000D01*
X180000Y540000D02*
X225000Y540000D01*
X230000Y545000D01*
X245000Y545000D01*
X250000Y540000D01*
X265000Y540000D01*
X285000Y560000D01*
X420000Y560000D01*
X181090Y552926D02*
X180000Y550000D01*
D25*
X420000Y560000D03*
D24*
X175000Y550000D02*
X175000Y530000D01*
X200000Y530000D01*
X210000Y570000D02*
X420000Y570000D01*
X175000Y550000D02*
X173090Y552926D01*
D25*
X200000Y530000D03*
X210000Y570000D03*
X420000Y570000D03*
D24*
X165000Y555000D02*
X160000Y560000D01*
X115000Y560000D01*
X110000Y555000D01*
X100000Y565000D01*
X145000Y610000D01*
X265000Y610000D01*
X280000Y595000D01*
X290000Y595000D01*
X295000Y600000D01*
X165000Y555000D02*
X165090Y552926D01*
D25*
X295000Y600000D03*
D24*
X150164Y530000D02*
X100000Y530000D01*
X85000Y545000D01*
X85000Y620000D01*
X295000Y620000D01*
X305000Y610000D01*
X306500Y606700D01*
X180000Y465000D02*
X180000Y440000D01*
X485000Y440000D01*
X550000Y505000D01*
X550000Y610000D01*
X475000Y610000D01*
X460000Y595000D01*
X445000Y595000D01*
X435000Y605000D01*
X181090Y467074D02*
X180000Y465000D01*
X433500Y606700D02*
X435000Y605000D01*
X210000Y600000D02*
X180000Y600000D01*
X210000Y600000D02*
X211748Y600877D01*
X180000Y600000D02*
X179586Y600877D01*
X165000Y600000D02*
X165000Y570000D01*
X195000Y570000D01*
X205000Y560000D01*
X205000Y555000D01*
X165000Y600000D02*
X163282Y600877D01*
X205000Y555000D02*
X205090Y552926D01*
X410000Y610000D02*
X420000Y620000D01*
X475000Y620000D01*
X535000Y680000D01*
X410000Y610000D02*
X408100Y606700D01*
X535000Y680000D02*
X537800Y680300D01*
X350000Y625000D02*
X335000Y610000D01*
X350000Y625000D02*
X455000Y625000D01*
X535000Y705000D01*
X335000Y610000D02*
X331900Y606700D01*
X535000Y705000D02*
X537800Y705300D01*
X425000Y510000D02*
X410000Y495000D01*
X425000Y510000D02*
X535000Y510000D01*
X410000Y495000D02*
X408100Y494433D01*
X535000Y510000D02*
X537800Y511700D01*
X355000Y515000D02*
X335000Y495000D01*
X355000Y515000D02*
X515000Y515000D01*
X535000Y535000D01*
X335000Y495000D02*
X331900Y494433D01*
X535000Y535000D02*
X537800Y536700D01*
X345000Y545000D02*
X335000Y535000D01*
X345000Y545000D02*
X485000Y545000D01*
X535000Y595000D01*
X335000Y535000D02*
X331900Y530500D01*
X535000Y595000D02*
X537800Y596000D01*
X345000Y430000D02*
X335000Y420000D01*
X345000Y430000D02*
X535000Y430000D01*
X335000Y420000D02*
X331900Y418233D01*
X535000Y430000D02*
X537800Y427400D01*
X420000Y405000D02*
X410000Y415000D01*
X420000Y405000D02*
X535000Y405000D01*
X550000Y420000D01*
X550000Y450000D01*
X540000Y450000D01*
X410000Y415000D02*
X408100Y418233D01*
X537800Y452400D02*
X540000Y450000D01*
X210000Y370000D02*
X180000Y370000D01*
X209648Y369050D02*
X210000Y370000D01*
X180000Y370000D02*
X179586Y369050D01*
X95000Y700000D02*
X105000Y710000D01*
X185000Y710000D01*
X195000Y700000D01*
X95000Y700000D02*
X91000Y697500D01*
X195000Y700000D02*
X195300Y697500D01*
X285000Y710000D02*
X295000Y700000D01*
X285000Y710000D02*
X185000Y710000D01*
X295000Y700000D02*
X299600Y697500D01*
X390000Y710000D02*
X400000Y700000D01*
X390000Y710000D02*
X285000Y710000D01*
X400000Y700000D02*
X403900Y697500D01*
X265000Y300000D02*
X236016Y300000D01*
X265000Y300000D02*
X275000Y290000D01*
X475000Y290000D01*
D25*
X475000Y290000D03*
D24*
X245000Y305000D02*
X240000Y310000D01*
X245000Y305000D02*
X265000Y305000D01*
X275000Y295000D01*
X335000Y295000D01*
X345000Y305000D01*
X240000Y310000D02*
X236016Y308000D01*
D25*
X345000Y305000D03*
D24*
X235000Y340000D02*
X220000Y325000D01*
X235000Y340000D02*
X245000Y340000D01*
X220000Y325000D02*
X221090Y322926D01*
D25*
X245000Y340000D03*
D24*
X215000Y350000D02*
X215000Y325000D01*
X215000Y350000D02*
X315000Y350000D01*
X345000Y640000D02*
X305000Y680000D01*
X135000Y680000D01*
X120000Y695000D01*
X215000Y325000D02*
X213090Y322926D01*
X120000Y695000D02*
X116000Y697500D01*
D25*
X315000Y350000D03*
X345000Y640000D03*
D24*
X165000Y365000D02*
X180000Y350000D01*
X185000Y350000D01*
X205000Y330000D01*
X205000Y325000D01*
X165000Y365000D02*
X163282Y369050D01*
X205000Y325000D02*
X205090Y322926D01*
X195000Y250000D02*
X195000Y240000D01*
X195000Y250000D02*
X180000Y250000D01*
X195000Y240000D02*
X197090Y237074D01*
D25*
X180000Y250000D03*
D24*
X170000Y295000D02*
X155000Y310000D01*
X170000Y295000D02*
X210000Y295000D01*
X230000Y315000D01*
X275000Y315000D01*
X280000Y310000D01*
X155000Y310000D02*
X150164Y308000D01*
X280000Y310000D02*
X281100Y305967D01*
X165000Y235000D02*
X145000Y215000D01*
X130000Y215000D01*
X165000Y235000D02*
X165090Y237074D01*
D25*
X130000Y215000D03*
D24*
X175000Y210000D02*
X175000Y235000D01*
X175000Y210000D02*
X265000Y210000D01*
X280000Y195000D01*
X175000Y235000D02*
X173090Y237074D01*
X280000Y195000D02*
X281100Y193700D01*
X190000Y225000D02*
X190000Y235000D01*
X190000Y225000D02*
X360000Y225000D01*
X365000Y230000D01*
X395000Y230000D01*
X430000Y195000D01*
X190000Y235000D02*
X189090Y237074D01*
X430000Y195000D02*
X433500Y193700D01*
X150164Y260000D02*
X135000Y260000D01*
X140000Y185000D02*
X150000Y175000D01*
X290000Y175000D01*
X305000Y190000D01*
X306500Y193700D01*
D25*
X135000Y260000D03*
X140000Y185000D03*
D24*
X155000Y250000D02*
X170000Y265000D01*
X210000Y265000D01*
X230000Y245000D01*
X285000Y245000D01*
X305000Y265000D01*
X155000Y250000D02*
X150164Y252000D01*
X305000Y265000D02*
X306500Y269900D01*
X180000Y325000D02*
X180000Y330000D01*
X185000Y335000D01*
X185000Y345000D01*
X170000Y345000D01*
X150000Y325000D01*
X180000Y325000D02*
X181090Y322926D01*
D25*
X150000Y325000D03*
D24*
X175000Y325000D02*
X175000Y335000D01*
X200000Y360000D02*
X345000Y360000D01*
X395000Y310000D01*
X395000Y295000D01*
X420000Y295000D01*
X430000Y305000D01*
X175000Y325000D02*
X173090Y322926D01*
X430000Y305000D02*
X433500Y305967D01*
D25*
X175000Y335000D03*
X200000Y360000D03*
D24*
X165000Y320000D02*
X165000Y310000D01*
X160000Y165000D02*
X270000Y165000D01*
X165000Y320000D02*
X165090Y322926D01*
D25*
X165000Y310000D03*
X160000Y165000D03*
X270000Y165000D03*
D24*
X150164Y300000D02*
X135000Y300000D01*
X75000Y360000D01*
X75000Y640000D01*
X290000Y640000D01*
D25*
X290000Y640000D03*
D24*
X180000Y235000D02*
X180000Y220000D01*
X365000Y220000D01*
X181090Y237074D02*
X180000Y235000D01*
D25*
X365000Y220000D03*
D24*
X445000Y345000D02*
X410000Y380000D01*
X445000Y345000D02*
X535000Y345000D01*
X410000Y380000D02*
X408100Y382167D01*
X535000Y345000D02*
X537800Y343100D01*
X345000Y395000D02*
X335000Y385000D01*
X345000Y395000D02*
X510000Y395000D01*
X535000Y370000D01*
X335000Y385000D02*
X331900Y382167D01*
X535000Y370000D02*
X537800Y368100D01*
X355000Y255000D02*
X345000Y265000D01*
X355000Y255000D02*
X535000Y255000D01*
X537800Y258800D01*
D25*
X345000Y265000D03*
D24*
X410000Y310000D02*
X415000Y315000D01*
X505000Y315000D01*
X535000Y285000D01*
X410000Y310000D02*
X408100Y305967D01*
X535000Y285000D02*
X537800Y283800D01*
X415000Y260000D02*
X410000Y265000D01*
X415000Y260000D02*
X520000Y260000D01*
X530000Y270000D01*
X545000Y270000D01*
X550000Y265000D01*
X550000Y175000D01*
X540000Y175000D01*
X410000Y265000D02*
X408100Y269900D01*
X537800Y174500D02*
X540000Y175000D01*
X365000Y235000D02*
X335000Y265000D01*
X365000Y235000D02*
X500000Y235000D01*
X535000Y200000D01*
X335000Y265000D02*
X331900Y269900D01*
X535000Y200000D02*
X537800Y199500D01*
X420000Y105000D02*
X335000Y190000D01*
X420000Y105000D02*
X525000Y105000D01*
X535000Y95000D01*
X335000Y190000D02*
X331900Y193700D01*
X535000Y95000D02*
X537800Y90200D01*
X480000Y120000D02*
X410000Y190000D01*
X480000Y120000D02*
X535000Y120000D01*
X410000Y190000D02*
X408100Y193700D01*
X535000Y120000D02*
X537800Y115200D01*
M02*
