G04 EAGLE Gerber RS-274X export*
G75*
%MOMM*%
%FSLAX34Y34*%
%LPD*%
%INSoldermask Top*%
%IPPOS*%
%AMOC8*
5,1,8,0,0,1.08239X$1,22.5*%
G01*
G04 Define Apertures*
%ADD10C,2.203200*%
%ADD11R,1.367800X2.018500*%
%ADD12R,0.703200X0.903200*%
%ADD13R,0.903200X0.703200*%
%ADD14R,2.063500X1.101100*%
%ADD15R,2.063500X3.392300*%
%ADD16R,1.473200X0.762000*%
%ADD17R,0.762000X1.473200*%
%ADD18C,1.546600*%
%ADD19R,1.611200X1.611200*%
%ADD20C,1.611200*%
%ADD21C,1.351200*%
%ADD22R,1.177100X1.001900*%
%ADD23R,1.001900X1.177100*%
%ADD24R,1.998700X1.391900*%
%ADD25C,0.959600*%
D10*
X580000Y755000D03*
X35000Y740000D03*
X35000Y50000D03*
X580000Y35000D03*
D11*
X37246Y290000D03*
X66754Y290000D03*
X37246Y170000D03*
X66754Y170000D03*
D12*
X109123Y254500D03*
X109123Y245500D03*
D13*
X220748Y600877D03*
X211748Y600877D03*
X218648Y369050D03*
X209648Y369050D03*
D14*
X21250Y253000D03*
X21250Y230000D03*
X21250Y207000D03*
D15*
X82750Y230000D03*
D16*
X150164Y538000D03*
X150164Y530000D03*
X150164Y522000D03*
X150164Y514000D03*
X150164Y506000D03*
X150164Y498000D03*
X150164Y490000D03*
X150164Y482000D03*
D17*
X165090Y467074D03*
X173090Y467074D03*
X181090Y467074D03*
X189090Y467074D03*
X197090Y467074D03*
X205090Y467074D03*
X213090Y467074D03*
X221090Y467074D03*
D16*
X236016Y482000D03*
X236016Y490000D03*
X236016Y498000D03*
X236016Y506000D03*
X236016Y514000D03*
X236016Y522000D03*
X236016Y530000D03*
X236016Y538000D03*
D17*
X221090Y552926D03*
X213090Y552926D03*
X205090Y552926D03*
X197090Y552926D03*
X189090Y552926D03*
X181090Y552926D03*
X173090Y552926D03*
X165090Y552926D03*
D18*
X458900Y606700D03*
X433500Y606700D03*
X408100Y606700D03*
X382700Y606700D03*
X357300Y606700D03*
X331900Y606700D03*
X306500Y606700D03*
X281100Y606700D03*
X281100Y530500D03*
X306500Y530500D03*
X331900Y530500D03*
X357300Y530500D03*
X382700Y530500D03*
X408100Y530500D03*
X433500Y530500D03*
X458900Y530500D03*
X458900Y494433D03*
X433500Y494433D03*
X408100Y494433D03*
X382700Y494433D03*
X357300Y494433D03*
X331900Y494433D03*
X306500Y494433D03*
X281100Y494433D03*
X281100Y418233D03*
X306500Y418233D03*
X331900Y418233D03*
X357300Y418233D03*
X382700Y418233D03*
X408100Y418233D03*
X433500Y418233D03*
X458900Y418233D03*
D16*
X150164Y308000D03*
X150164Y300000D03*
X150164Y292000D03*
X150164Y284000D03*
X150164Y276000D03*
X150164Y268000D03*
X150164Y260000D03*
X150164Y252000D03*
D17*
X165090Y237074D03*
X173090Y237074D03*
X181090Y237074D03*
X189090Y237074D03*
X197090Y237074D03*
X205090Y237074D03*
X213090Y237074D03*
X221090Y237074D03*
D16*
X236016Y252000D03*
X236016Y260000D03*
X236016Y268000D03*
X236016Y276000D03*
X236016Y284000D03*
X236016Y292000D03*
X236016Y300000D03*
X236016Y308000D03*
D17*
X221090Y322926D03*
X213090Y322926D03*
X205090Y322926D03*
X197090Y322926D03*
X189090Y322926D03*
X181090Y322926D03*
X173090Y322926D03*
X165090Y322926D03*
D18*
X458900Y382167D03*
X433500Y382167D03*
X408100Y382167D03*
X382700Y382167D03*
X357300Y382167D03*
X331900Y382167D03*
X306500Y382167D03*
X281100Y382167D03*
X281100Y305967D03*
X306500Y305967D03*
X331900Y305967D03*
X357300Y305967D03*
X382700Y305967D03*
X408100Y305967D03*
X433500Y305967D03*
X458900Y305967D03*
X458900Y269900D03*
X433500Y269900D03*
X408100Y269900D03*
X382700Y269900D03*
X357300Y269900D03*
X331900Y269900D03*
X306500Y269900D03*
X281100Y269900D03*
X281100Y193700D03*
X306500Y193700D03*
X331900Y193700D03*
X357300Y193700D03*
X382700Y193700D03*
X408100Y193700D03*
X433500Y193700D03*
X458900Y193700D03*
D19*
X537800Y680300D03*
D20*
X537800Y705300D03*
D19*
X537800Y596000D03*
D20*
X537800Y621000D03*
D19*
X537800Y511700D03*
D20*
X537800Y536700D03*
D19*
X537800Y427400D03*
D20*
X537800Y452400D03*
D19*
X537800Y343100D03*
D20*
X537800Y368100D03*
D19*
X537800Y258800D03*
D20*
X537800Y283800D03*
D19*
X537800Y174500D03*
D20*
X537800Y199500D03*
D19*
X537800Y90200D03*
D20*
X537800Y115200D03*
D21*
X88900Y92500D03*
X113900Y92500D03*
X138900Y92500D03*
X193200Y92500D03*
X218200Y92500D03*
X243200Y92500D03*
X297500Y92500D03*
X322500Y92500D03*
X347500Y92500D03*
X401800Y92500D03*
X426800Y92500D03*
X451800Y92500D03*
X453900Y697500D03*
X428900Y697500D03*
X403900Y697500D03*
X349600Y697500D03*
X324600Y697500D03*
X299600Y697500D03*
X245300Y697500D03*
X220300Y697500D03*
X195300Y697500D03*
X141000Y697500D03*
X116000Y697500D03*
X91000Y697500D03*
D19*
X93613Y388500D03*
D20*
X93613Y363500D03*
D22*
X109123Y201848D03*
X109123Y218152D03*
D23*
X209446Y419800D03*
X225750Y419800D03*
X179586Y600877D03*
X163282Y600877D03*
X207346Y189800D03*
X223650Y189800D03*
X179586Y369050D03*
X163282Y369050D03*
D21*
X93613Y598600D03*
X93613Y573600D03*
X93613Y548600D03*
X93613Y523600D03*
D19*
X93613Y468587D03*
D20*
X93613Y443587D03*
D24*
X160205Y420000D03*
X186403Y420000D03*
X160205Y190000D03*
X186403Y190000D03*
D25*
X40000Y335000D03*
X115000Y445000D03*
X135000Y280000D03*
X105000Y500000D03*
X170000Y515000D03*
X160000Y345000D03*
X130000Y315000D03*
X280000Y545000D03*
X335000Y90000D03*
X250000Y550000D03*
X240000Y560000D03*
X110000Y565000D03*
X220000Y200000D03*
X200000Y305000D03*
X205000Y395000D03*
X125000Y435000D03*
X215000Y250000D03*
X220000Y455000D03*
X145000Y550000D03*
X230000Y235000D03*
X230000Y465000D03*
X250000Y255000D03*
X250000Y485000D03*
X105000Y280000D03*
X200000Y455000D03*
X190000Y590000D03*
X455000Y585000D03*
X155000Y550000D03*
X180000Y580000D03*
X430000Y635000D03*
X400000Y450000D03*
X175000Y495000D03*
X215000Y395000D03*
X420000Y560000D03*
X200000Y530000D03*
X210000Y570000D03*
X420000Y570000D03*
X295000Y600000D03*
X475000Y290000D03*
X345000Y305000D03*
X245000Y340000D03*
X315000Y350000D03*
X345000Y640000D03*
X180000Y250000D03*
X130000Y215000D03*
X135000Y260000D03*
X140000Y185000D03*
X150000Y325000D03*
X175000Y335000D03*
X200000Y360000D03*
X165000Y310000D03*
X160000Y165000D03*
X270000Y165000D03*
X290000Y640000D03*
X365000Y220000D03*
X345000Y265000D03*
M02*
