G04 EAGLE Gerber RS-274X export*
G75*
%MOMM*%
%FSLAX34Y34*%
%LPD*%
%INBottom Copper*%
%IPPOS*%
%AMOC8*
5,1,8,0,0,1.08239X$1,22.5*%
G01*
G04 Define Apertures*
%ADD10C,1.343400*%
%ADD11R,1.408000X1.408000*%
%ADD12C,1.408000*%
%ADD13C,1.148000*%
%ADD14C,0.152400*%
%ADD15C,0.756400*%
D10*
X458900Y606700D03*
X433500Y606700D03*
X408100Y606700D03*
X382700Y606700D03*
X357300Y606700D03*
X331900Y606700D03*
X306500Y606700D03*
X281100Y606700D03*
X281100Y530500D03*
X306500Y530500D03*
X331900Y530500D03*
X357300Y530500D03*
X382700Y530500D03*
X408100Y530500D03*
X433500Y530500D03*
X458900Y530500D03*
X458900Y494433D03*
X433500Y494433D03*
X408100Y494433D03*
X382700Y494433D03*
X357300Y494433D03*
X331900Y494433D03*
X306500Y494433D03*
X281100Y494433D03*
X281100Y418233D03*
X306500Y418233D03*
X331900Y418233D03*
X357300Y418233D03*
X382700Y418233D03*
X408100Y418233D03*
X433500Y418233D03*
X458900Y418233D03*
X458900Y382167D03*
X433500Y382167D03*
X408100Y382167D03*
X382700Y382167D03*
X357300Y382167D03*
X331900Y382167D03*
X306500Y382167D03*
X281100Y382167D03*
X281100Y305967D03*
X306500Y305967D03*
X331900Y305967D03*
X357300Y305967D03*
X382700Y305967D03*
X408100Y305967D03*
X433500Y305967D03*
X458900Y305967D03*
X458900Y269900D03*
X433500Y269900D03*
X408100Y269900D03*
X382700Y269900D03*
X357300Y269900D03*
X331900Y269900D03*
X306500Y269900D03*
X281100Y269900D03*
X281100Y193700D03*
X306500Y193700D03*
X331900Y193700D03*
X357300Y193700D03*
X382700Y193700D03*
X408100Y193700D03*
X433500Y193700D03*
X458900Y193700D03*
D11*
X537800Y680300D03*
D12*
X537800Y705300D03*
D11*
X537800Y596000D03*
D12*
X537800Y621000D03*
D11*
X537800Y511700D03*
D12*
X537800Y536700D03*
D11*
X537800Y427400D03*
D12*
X537800Y452400D03*
D11*
X537800Y343100D03*
D12*
X537800Y368100D03*
D11*
X537800Y258800D03*
D12*
X537800Y283800D03*
D11*
X537800Y174500D03*
D12*
X537800Y199500D03*
D11*
X537800Y90200D03*
D12*
X537800Y115200D03*
D13*
X88900Y92500D03*
X113900Y92500D03*
X138900Y92500D03*
X193200Y92500D03*
X218200Y92500D03*
X243200Y92500D03*
X297500Y92500D03*
X322500Y92500D03*
X347500Y92500D03*
X401800Y92500D03*
X426800Y92500D03*
X451800Y92500D03*
X453900Y697500D03*
X428900Y697500D03*
X403900Y697500D03*
X349600Y697500D03*
X324600Y697500D03*
X299600Y697500D03*
X245300Y697500D03*
X220300Y697500D03*
X195300Y697500D03*
X141000Y697500D03*
X116000Y697500D03*
X91000Y697500D03*
D11*
X93613Y388500D03*
D12*
X93613Y363500D03*
D13*
X93613Y598600D03*
X93613Y573600D03*
X93613Y548600D03*
X93613Y523600D03*
D11*
X93613Y468587D03*
D12*
X93613Y443587D03*
D14*
X460000Y195000D02*
X470000Y205000D01*
X470000Y285000D01*
X460000Y295000D01*
X460000Y305000D01*
X460000Y195000D02*
X458900Y193700D01*
X460000Y305000D02*
X458900Y305967D01*
X470000Y405000D02*
X460000Y415000D01*
X470000Y405000D02*
X470000Y320000D01*
X460000Y310000D01*
X460000Y415000D02*
X458900Y418233D01*
X460000Y310000D02*
X458900Y305967D01*
X470000Y520000D02*
X460000Y530000D01*
X470000Y520000D02*
X470000Y405000D01*
X460000Y530000D02*
X458900Y530500D01*
X270000Y280000D02*
X280000Y270000D01*
X270000Y280000D02*
X270000Y370000D01*
X280000Y380000D01*
X280000Y270000D02*
X281100Y269900D01*
X280000Y380000D02*
X281100Y382167D01*
X270000Y480000D02*
X280000Y490000D01*
X270000Y480000D02*
X270000Y370000D01*
X280000Y490000D02*
X281100Y494433D01*
X270000Y595000D02*
X280000Y605000D01*
X270000Y595000D02*
X270000Y480000D01*
X280000Y605000D02*
X281100Y606700D01*
X90000Y385000D02*
X40000Y335000D01*
X90000Y385000D02*
X93613Y388500D01*
D15*
X40000Y335000D03*
D14*
X360000Y495000D02*
X360000Y530000D01*
X360000Y495000D02*
X357300Y494433D01*
X360000Y530000D02*
X357300Y530500D01*
X385000Y535000D02*
X385000Y605000D01*
X382700Y606700D01*
X385000Y535000D02*
X382700Y530500D01*
X360000Y415000D02*
X360000Y385000D01*
X357300Y382167D01*
X360000Y415000D02*
X357300Y418233D01*
X360000Y420000D02*
X360000Y490000D01*
X357300Y494433D01*
X360000Y420000D02*
X357300Y418233D01*
X360000Y305000D02*
X360000Y270000D01*
X357300Y269900D01*
X360000Y305000D02*
X357300Y305967D01*
X355000Y100000D02*
X347500Y92500D01*
X355000Y100000D02*
X355000Y190000D01*
X357300Y193700D01*
X355000Y195000D02*
X355000Y265000D01*
X357300Y269900D01*
X355000Y195000D02*
X357300Y193700D01*
X385000Y310000D02*
X385000Y380000D01*
X382700Y382167D01*
X385000Y310000D02*
X382700Y305967D01*
X115000Y445000D02*
X105000Y455000D01*
X105000Y500000D01*
X80000Y525000D01*
X80000Y635000D01*
X140000Y695000D01*
X141000Y697500D01*
X140000Y285000D02*
X135000Y280000D01*
X140000Y285000D02*
X140000Y350000D01*
X115000Y375000D01*
X115000Y445000D01*
X170000Y115000D02*
X190000Y95000D01*
X170000Y115000D02*
X170000Y305000D01*
X175000Y310000D01*
X175000Y315000D01*
X140000Y350000D01*
X190000Y95000D02*
X193200Y92500D01*
D15*
X115000Y445000D03*
X135000Y280000D03*
X105000Y500000D03*
D14*
X160000Y505000D02*
X170000Y515000D01*
X160000Y505000D02*
X160000Y345000D01*
X130000Y315000D02*
X115000Y300000D01*
X115000Y95000D01*
X113900Y92500D01*
D15*
X170000Y515000D03*
X160000Y345000D03*
X130000Y315000D03*
D14*
X295000Y530000D02*
X280000Y545000D01*
X295000Y530000D02*
X295000Y335000D01*
X320000Y310000D01*
X320000Y110000D01*
X335000Y95000D01*
X335000Y90000D01*
D15*
X280000Y545000D03*
X335000Y90000D03*
D14*
X265000Y535000D02*
X250000Y550000D01*
X265000Y535000D02*
X265000Y170000D01*
X260000Y165000D01*
X260000Y155000D01*
X322500Y92500D01*
D15*
X250000Y550000D03*
D14*
X240000Y560000D02*
X265000Y585000D01*
X265000Y650000D01*
X330000Y715000D01*
X550000Y715000D01*
X550000Y225000D01*
X430000Y105000D01*
X430000Y95000D01*
X426800Y92500D01*
D15*
X240000Y560000D03*
D14*
X110000Y565000D02*
X105000Y560000D01*
X105000Y535000D01*
X95000Y525000D01*
X93613Y523600D01*
X200000Y220000D02*
X220000Y200000D01*
X200000Y220000D02*
X200000Y305000D01*
X210000Y390000D02*
X205000Y395000D01*
X210000Y390000D02*
X210000Y315000D01*
X200000Y305000D01*
X125000Y490000D02*
X95000Y520000D01*
X125000Y490000D02*
X125000Y435000D01*
X95000Y520000D02*
X93613Y523600D01*
D15*
X110000Y565000D03*
X220000Y200000D03*
X200000Y305000D03*
X205000Y395000D03*
X125000Y435000D03*
D14*
X225000Y260000D02*
X215000Y250000D01*
X225000Y420000D02*
X225000Y450000D01*
X225000Y420000D02*
X225000Y260000D01*
X225000Y450000D02*
X220000Y455000D01*
X185000Y510000D02*
X145000Y550000D01*
X185000Y510000D02*
X185000Y460000D01*
X225000Y420000D01*
D15*
X215000Y250000D03*
X220000Y455000D03*
X145000Y550000D03*
D14*
X230000Y465000D02*
X230000Y235000D01*
X90000Y575000D02*
X85000Y580000D01*
X85000Y605000D01*
X90000Y610000D01*
X220000Y610000D01*
X220000Y475000D01*
X230000Y465000D01*
X93613Y573600D02*
X90000Y575000D01*
D15*
X230000Y235000D03*
X230000Y465000D03*
D14*
X235000Y270000D02*
X240000Y265000D01*
X250000Y255000D01*
X235000Y270000D02*
X235000Y460000D01*
X250000Y475000D01*
X250000Y485000D01*
X135000Y555000D02*
X95000Y595000D01*
X135000Y555000D02*
X135000Y360000D01*
X195000Y300000D01*
X195000Y205000D01*
X210000Y190000D01*
X240000Y190000D01*
X240000Y265000D01*
X95000Y595000D02*
X93613Y598600D01*
D15*
X250000Y255000D03*
X250000Y485000D03*
D14*
X105000Y430000D02*
X105000Y280000D01*
X105000Y430000D02*
X95000Y440000D01*
X93613Y443587D01*
D15*
X105000Y280000D03*
D14*
X200000Y455000D02*
X190000Y465000D01*
X190000Y590000D01*
X455000Y585000D02*
X455000Y605000D01*
X458900Y606700D01*
D15*
X200000Y455000D03*
X190000Y590000D03*
X455000Y585000D03*
D14*
X180000Y575000D02*
X155000Y550000D01*
X180000Y575000D02*
X180000Y580000D01*
D15*
X155000Y550000D03*
X180000Y580000D03*
D14*
X430000Y635000D02*
X445000Y620000D01*
X445000Y505000D01*
X455000Y495000D01*
X458900Y494433D01*
D15*
X430000Y635000D03*
D14*
X400000Y450000D02*
X430000Y420000D01*
X433500Y418233D01*
D15*
X400000Y450000D03*
D14*
X180000Y490000D02*
X175000Y495000D01*
X180000Y490000D02*
X180000Y430000D01*
X215000Y395000D01*
D15*
X175000Y495000D03*
X215000Y395000D03*
D14*
X420000Y505000D02*
X420000Y560000D01*
X420000Y505000D02*
X430000Y495000D01*
X433500Y494433D01*
D15*
X420000Y560000D03*
D14*
X210000Y540000D02*
X200000Y530000D01*
X210000Y540000D02*
X210000Y570000D01*
X420000Y570000D02*
X430000Y560000D01*
X430000Y535000D01*
X433500Y530500D01*
D15*
X200000Y530000D03*
X210000Y570000D03*
X420000Y570000D03*
D14*
X305000Y590000D02*
X295000Y600000D01*
X305000Y590000D02*
X305000Y535000D01*
X306500Y530500D01*
D15*
X295000Y600000D03*
D14*
X410000Y595000D02*
X410000Y535000D01*
X410000Y595000D02*
X420000Y605000D01*
X420000Y700000D01*
X430000Y710000D01*
X525000Y710000D01*
X525000Y635000D01*
X535000Y625000D01*
X410000Y535000D02*
X408100Y530500D01*
X537800Y621000D02*
X535000Y625000D01*
X475000Y650000D02*
X475000Y290000D01*
X475000Y650000D02*
X430000Y695000D01*
X428900Y697500D01*
D15*
X475000Y290000D03*
D14*
X345000Y305000D02*
X345000Y355000D01*
X370000Y380000D01*
X370000Y650000D01*
X325000Y695000D01*
X324600Y697500D01*
D15*
X345000Y305000D03*
D14*
X260000Y355000D02*
X245000Y340000D01*
X260000Y355000D02*
X260000Y530000D01*
X225000Y565000D01*
X225000Y695000D01*
X220300Y697500D01*
D15*
X245000Y340000D03*
D14*
X315000Y350000D02*
X345000Y380000D01*
X345000Y640000D01*
D15*
X315000Y350000D03*
X345000Y640000D03*
D14*
X180000Y250000D02*
X185000Y245000D01*
X185000Y190000D01*
X295000Y80000D01*
X370000Y80000D01*
X370000Y215000D01*
X420000Y265000D01*
X420000Y345000D01*
X455000Y380000D01*
X458900Y382167D01*
D15*
X180000Y250000D03*
D14*
X130000Y215000D02*
X130000Y135000D01*
X195000Y70000D01*
X415000Y70000D01*
X415000Y160000D01*
X445000Y190000D01*
X445000Y255000D01*
X455000Y265000D01*
X458900Y269900D01*
D15*
X130000Y215000D03*
D14*
X140000Y255000D02*
X135000Y260000D01*
X140000Y255000D02*
X140000Y185000D01*
D15*
X135000Y260000D03*
X140000Y185000D03*
D14*
X150000Y120000D02*
X150000Y325000D01*
X150000Y120000D02*
X195000Y75000D01*
X410000Y75000D01*
X410000Y180000D01*
X420000Y190000D01*
X420000Y255000D01*
X430000Y265000D01*
X433500Y269900D01*
D15*
X150000Y325000D03*
D14*
X175000Y335000D02*
X200000Y360000D01*
D15*
X175000Y335000D03*
X200000Y360000D03*
D14*
X165000Y310000D02*
X160000Y305000D01*
X160000Y165000D01*
X270000Y165000D02*
X295000Y190000D01*
X295000Y295000D01*
X305000Y305000D01*
X306500Y305967D01*
D15*
X165000Y310000D03*
X160000Y165000D03*
X270000Y165000D03*
D14*
X320000Y610000D02*
X290000Y640000D01*
X320000Y610000D02*
X320000Y395000D01*
X310000Y385000D01*
X306500Y382167D01*
D15*
X290000Y640000D03*
D14*
X395000Y250000D02*
X365000Y220000D01*
X395000Y250000D02*
X395000Y345000D01*
X430000Y380000D01*
X433500Y382167D01*
D15*
X365000Y220000D03*
D14*
X345000Y295000D02*
X335000Y305000D01*
X345000Y295000D02*
X345000Y265000D01*
X335000Y305000D02*
X331900Y305967D01*
D15*
X345000Y265000D03*
M02*
