G04 EAGLE Gerber RS-274X export*
G75*
%MOMM*%
%FSLAX34Y34*%
%LPD*%
%INSilkscreen Top*%
%IPPOS*%
%AMOC8*
5,1,8,0,0,1.08239X$1,22.5*%
G01*
G04 Define Apertures*
%ADD10C,0.127000*%
%ADD11C,0.120000*%
%ADD12C,0.500000*%
%ADD13C,0.152400*%
%ADD14C,0.200000*%
G36*
X47459Y308392D02*
X47001Y308404D01*
X46558Y308440D01*
X46131Y308501D01*
X45720Y308586D01*
X45324Y308695D01*
X44944Y308828D01*
X44580Y308985D01*
X44232Y309167D01*
X43901Y309371D01*
X43591Y309596D01*
X43301Y309842D01*
X43032Y310109D01*
X42782Y310396D01*
X42553Y310704D01*
X42345Y311033D01*
X42156Y311383D01*
X41989Y311751D01*
X41844Y312136D01*
X41721Y312538D01*
X41621Y312956D01*
X41543Y313391D01*
X41487Y313842D01*
X41453Y314310D01*
X41442Y314794D01*
X41448Y315158D01*
X41467Y315512D01*
X41498Y315856D01*
X41542Y316190D01*
X41598Y316514D01*
X41666Y316828D01*
X41747Y317132D01*
X41841Y317426D01*
X41947Y317710D01*
X42065Y317984D01*
X42339Y318502D01*
X42663Y318981D01*
X43036Y319419D01*
X43454Y319811D01*
X43910Y320151D01*
X44152Y320301D01*
X44404Y320438D01*
X44666Y320562D01*
X44937Y320673D01*
X45217Y320772D01*
X45508Y320856D01*
X45808Y320928D01*
X46117Y320987D01*
X46436Y321033D01*
X46765Y321066D01*
X47103Y321085D01*
X47451Y321092D01*
X47933Y321080D01*
X48395Y321044D01*
X48837Y320983D01*
X49259Y320899D01*
X49661Y320791D01*
X50042Y320658D01*
X50403Y320502D01*
X50744Y320321D01*
X51063Y320117D01*
X51361Y319889D01*
X51637Y319638D01*
X51891Y319364D01*
X52123Y319067D01*
X52333Y318746D01*
X52522Y318402D01*
X52688Y318035D01*
X51103Y317509D01*
X50987Y317771D01*
X50856Y318016D01*
X50708Y318246D01*
X50543Y318460D01*
X50363Y318658D01*
X50166Y318840D01*
X49953Y319006D01*
X49723Y319156D01*
X49480Y319290D01*
X49226Y319405D01*
X48961Y319503D01*
X48684Y319583D01*
X48397Y319645D01*
X48098Y319690D01*
X47789Y319716D01*
X47468Y319725D01*
X46970Y319705D01*
X46500Y319643D01*
X46059Y319540D01*
X45646Y319396D01*
X45262Y319210D01*
X44906Y318984D01*
X44579Y318716D01*
X44280Y318407D01*
X44013Y318062D01*
X43782Y317687D01*
X43586Y317281D01*
X43426Y316845D01*
X43301Y316378D01*
X43212Y315881D01*
X43159Y315353D01*
X43141Y314794D01*
X43160Y314241D01*
X43215Y313716D01*
X43308Y313218D01*
X43438Y312748D01*
X43605Y312306D01*
X43809Y311892D01*
X44050Y311505D01*
X44328Y311146D01*
X44638Y310823D01*
X44974Y310543D01*
X45336Y310306D01*
X45724Y310112D01*
X46138Y309961D01*
X46579Y309853D01*
X47045Y309788D01*
X47538Y309767D01*
X47857Y309777D01*
X48166Y309807D01*
X48465Y309857D01*
X48754Y309927D01*
X49033Y310018D01*
X49301Y310128D01*
X49560Y310258D01*
X49809Y310408D01*
X50047Y310579D01*
X50276Y310769D01*
X50494Y310980D01*
X50703Y311210D01*
X50901Y311461D01*
X51089Y311732D01*
X51267Y312022D01*
X51436Y312333D01*
X52802Y311650D01*
X52602Y311263D01*
X52382Y310901D01*
X52144Y310562D01*
X51886Y310246D01*
X51608Y309955D01*
X51312Y309688D01*
X50996Y309444D01*
X50661Y309224D01*
X50309Y309029D01*
X49943Y308860D01*
X49564Y308717D01*
X49170Y308600D01*
X48763Y308509D01*
X48343Y308444D01*
X47908Y308405D01*
X47459Y308392D01*
G37*
G36*
X62600Y308567D02*
X54866Y308567D01*
X54866Y309907D01*
X58011Y309907D01*
X58011Y319401D01*
X55225Y317413D01*
X55225Y318902D01*
X58142Y320908D01*
X59596Y320908D01*
X59596Y309907D01*
X62600Y309907D01*
X62600Y308567D01*
G37*
G36*
X47459Y138392D02*
X47001Y138404D01*
X46558Y138440D01*
X46131Y138501D01*
X45720Y138586D01*
X45324Y138695D01*
X44944Y138828D01*
X44580Y138985D01*
X44232Y139167D01*
X43901Y139371D01*
X43591Y139596D01*
X43301Y139842D01*
X43032Y140109D01*
X42782Y140396D01*
X42553Y140704D01*
X42345Y141033D01*
X42156Y141383D01*
X41989Y141751D01*
X41844Y142136D01*
X41721Y142538D01*
X41621Y142956D01*
X41543Y143391D01*
X41487Y143842D01*
X41453Y144310D01*
X41442Y144794D01*
X41448Y145158D01*
X41467Y145512D01*
X41498Y145856D01*
X41542Y146190D01*
X41598Y146514D01*
X41666Y146828D01*
X41747Y147132D01*
X41841Y147426D01*
X41947Y147710D01*
X42065Y147984D01*
X42339Y148502D01*
X42663Y148981D01*
X43036Y149419D01*
X43454Y149811D01*
X43910Y150151D01*
X44152Y150301D01*
X44404Y150438D01*
X44666Y150562D01*
X44937Y150673D01*
X45217Y150772D01*
X45508Y150856D01*
X45808Y150928D01*
X46117Y150987D01*
X46436Y151033D01*
X46765Y151066D01*
X47103Y151085D01*
X47451Y151092D01*
X47933Y151080D01*
X48395Y151044D01*
X48837Y150983D01*
X49259Y150899D01*
X49661Y150791D01*
X50042Y150658D01*
X50403Y150502D01*
X50744Y150321D01*
X51063Y150117D01*
X51361Y149889D01*
X51637Y149638D01*
X51891Y149364D01*
X52123Y149067D01*
X52333Y148746D01*
X52522Y148402D01*
X52688Y148035D01*
X51103Y147509D01*
X50987Y147771D01*
X50856Y148016D01*
X50708Y148246D01*
X50543Y148460D01*
X50363Y148658D01*
X50166Y148840D01*
X49953Y149006D01*
X49723Y149156D01*
X49480Y149290D01*
X49226Y149405D01*
X48961Y149503D01*
X48684Y149583D01*
X48397Y149645D01*
X48098Y149690D01*
X47789Y149716D01*
X47468Y149725D01*
X46970Y149705D01*
X46500Y149643D01*
X46059Y149540D01*
X45646Y149396D01*
X45262Y149210D01*
X44906Y148984D01*
X44579Y148716D01*
X44280Y148407D01*
X44013Y148062D01*
X43782Y147687D01*
X43586Y147281D01*
X43426Y146845D01*
X43301Y146378D01*
X43212Y145881D01*
X43159Y145353D01*
X43141Y144794D01*
X43160Y144241D01*
X43215Y143716D01*
X43308Y143218D01*
X43438Y142748D01*
X43605Y142306D01*
X43809Y141892D01*
X44050Y141505D01*
X44328Y141146D01*
X44638Y140823D01*
X44974Y140543D01*
X45336Y140306D01*
X45724Y140112D01*
X46138Y139961D01*
X46579Y139853D01*
X47045Y139788D01*
X47538Y139767D01*
X47857Y139777D01*
X48166Y139807D01*
X48465Y139857D01*
X48754Y139927D01*
X49033Y140018D01*
X49301Y140128D01*
X49560Y140258D01*
X49809Y140408D01*
X50047Y140579D01*
X50276Y140769D01*
X50494Y140980D01*
X50703Y141210D01*
X50901Y141461D01*
X51089Y141732D01*
X51267Y142022D01*
X51436Y142333D01*
X52802Y141650D01*
X52602Y141263D01*
X52382Y140901D01*
X52144Y140562D01*
X51886Y140246D01*
X51608Y139955D01*
X51312Y139688D01*
X50996Y139444D01*
X50661Y139224D01*
X50309Y139029D01*
X49943Y138860D01*
X49564Y138717D01*
X49170Y138600D01*
X48763Y138509D01*
X48343Y138444D01*
X47908Y138405D01*
X47459Y138392D01*
G37*
G36*
X62574Y138567D02*
X54402Y138567D01*
X54402Y139679D01*
X54638Y140177D01*
X54898Y140644D01*
X55183Y141081D01*
X55493Y141488D01*
X55819Y141871D01*
X56153Y142235D01*
X56495Y142580D01*
X56846Y142907D01*
X57552Y143519D01*
X58252Y144085D01*
X58914Y144628D01*
X59508Y145171D01*
X59775Y145446D01*
X60015Y145727D01*
X60228Y146015D01*
X60415Y146310D01*
X60566Y146617D01*
X60674Y146945D01*
X60739Y147292D01*
X60761Y147658D01*
X60752Y147905D01*
X60724Y148138D01*
X60677Y148356D01*
X60612Y148560D01*
X60528Y148750D01*
X60426Y148926D01*
X60305Y149088D01*
X60165Y149235D01*
X60009Y149366D01*
X59838Y149480D01*
X59653Y149576D01*
X59454Y149655D01*
X59239Y149717D01*
X59011Y149760D01*
X58768Y149787D01*
X58510Y149795D01*
X58264Y149787D01*
X58028Y149761D01*
X57804Y149718D01*
X57591Y149659D01*
X57389Y149582D01*
X57199Y149488D01*
X57019Y149376D01*
X56850Y149248D01*
X56695Y149104D01*
X56558Y148947D01*
X56437Y148775D01*
X56332Y148590D01*
X56245Y148391D01*
X56174Y148178D01*
X56121Y147951D01*
X56084Y147711D01*
X54472Y147860D01*
X54530Y148220D01*
X54616Y148562D01*
X54731Y148885D01*
X54874Y149189D01*
X55045Y149474D01*
X55245Y149740D01*
X55473Y149987D01*
X55729Y150216D01*
X56009Y150421D01*
X56308Y150599D01*
X56627Y150750D01*
X56965Y150873D01*
X57322Y150969D01*
X57699Y151037D01*
X58095Y151078D01*
X58510Y151092D01*
X58963Y151078D01*
X59389Y151037D01*
X59788Y150968D01*
X60160Y150872D01*
X60505Y150748D01*
X60823Y150597D01*
X61114Y150418D01*
X61378Y150211D01*
X61613Y149980D01*
X61817Y149725D01*
X61989Y149447D01*
X62130Y149146D01*
X62240Y148822D01*
X62318Y148475D01*
X62365Y148104D01*
X62381Y147711D01*
X62361Y147352D01*
X62299Y146995D01*
X62196Y146639D01*
X62053Y146283D01*
X61869Y145929D01*
X61644Y145574D01*
X61380Y145219D01*
X61076Y144864D01*
X60678Y144461D01*
X60132Y143960D01*
X59439Y143362D01*
X58597Y142666D01*
X58120Y142264D01*
X57693Y141883D01*
X57318Y141522D01*
X56995Y141181D01*
X56718Y140854D01*
X56482Y140532D01*
X56289Y140217D01*
X56136Y139907D01*
X62574Y139907D01*
X62574Y138567D01*
G37*
G36*
X134372Y241273D02*
X122031Y241273D01*
X122031Y245354D01*
X122037Y245741D01*
X122056Y246116D01*
X122087Y246480D01*
X122130Y246832D01*
X122185Y247174D01*
X122252Y247504D01*
X122332Y247824D01*
X122424Y248132D01*
X122529Y248429D01*
X122645Y248714D01*
X122774Y248989D01*
X122916Y249252D01*
X123069Y249504D01*
X123235Y249745D01*
X123413Y249975D01*
X123603Y250193D01*
X123805Y250400D01*
X124017Y250593D01*
X124240Y250772D01*
X124472Y250939D01*
X124716Y251092D01*
X124969Y251231D01*
X125233Y251358D01*
X125507Y251471D01*
X125792Y251571D01*
X126087Y251657D01*
X126392Y251730D01*
X126708Y251790D01*
X127034Y251837D01*
X127371Y251870D01*
X127717Y251890D01*
X128075Y251897D01*
X128545Y251885D01*
X128999Y251850D01*
X129440Y251792D01*
X129865Y251711D01*
X130275Y251606D01*
X130670Y251478D01*
X131051Y251327D01*
X131416Y251152D01*
X131764Y250956D01*
X132090Y250741D01*
X132396Y250507D01*
X132681Y250252D01*
X132944Y249979D01*
X133187Y249686D01*
X133409Y249373D01*
X133610Y249042D01*
X133789Y248693D01*
X133943Y248332D01*
X134074Y247958D01*
X134182Y247570D01*
X134265Y247169D01*
X134324Y246756D01*
X134360Y246329D01*
X134372Y245888D01*
X134372Y241273D01*
G37*
%LPC*%
G36*
X133032Y242946D02*
X133032Y245696D01*
X133023Y246030D01*
X132995Y246354D01*
X132948Y246668D01*
X132883Y246971D01*
X132799Y247264D01*
X132697Y247547D01*
X132576Y247820D01*
X132436Y248082D01*
X132279Y248332D01*
X132106Y248567D01*
X131916Y248787D01*
X131709Y248992D01*
X131487Y249182D01*
X131247Y249358D01*
X130992Y249518D01*
X130720Y249663D01*
X130433Y249793D01*
X130134Y249905D01*
X129822Y250000D01*
X129498Y250077D01*
X129161Y250138D01*
X128811Y250181D01*
X128449Y250207D01*
X128075Y250215D01*
X127518Y250196D01*
X126995Y250137D01*
X126507Y250038D01*
X126053Y249901D01*
X125632Y249724D01*
X125246Y249508D01*
X124894Y249253D01*
X124576Y248958D01*
X124293Y248627D01*
X124049Y248260D01*
X123842Y247857D01*
X123672Y247420D01*
X123541Y246948D01*
X123447Y246440D01*
X123390Y245897D01*
X123371Y245319D01*
X123371Y242946D01*
X133032Y242946D01*
G37*
%LPD*%
G36*
X134372Y254136D02*
X133032Y254136D01*
X133032Y257281D01*
X123538Y257281D01*
X125526Y254495D01*
X124037Y254495D01*
X122031Y257412D01*
X122031Y258866D01*
X133032Y258866D01*
X133032Y261870D01*
X134372Y261870D01*
X134372Y254136D01*
G37*
G36*
X212136Y575628D02*
X207521Y575628D01*
X207521Y587969D01*
X211602Y587969D01*
X211989Y587963D01*
X212364Y587944D01*
X212728Y587914D01*
X213080Y587871D01*
X213422Y587815D01*
X213752Y587748D01*
X214072Y587668D01*
X214380Y587576D01*
X214677Y587471D01*
X214962Y587355D01*
X215237Y587226D01*
X215500Y587084D01*
X215752Y586931D01*
X215993Y586765D01*
X216223Y586587D01*
X216441Y586397D01*
X216648Y586195D01*
X216841Y585983D01*
X217020Y585760D01*
X217187Y585528D01*
X217340Y585284D01*
X217479Y585031D01*
X217606Y584767D01*
X217719Y584493D01*
X217819Y584208D01*
X217905Y583913D01*
X217978Y583608D01*
X218038Y583292D01*
X218085Y582966D01*
X218118Y582629D01*
X218138Y582283D01*
X218145Y581925D01*
X218133Y581456D01*
X218098Y581001D01*
X218040Y580560D01*
X217959Y580135D01*
X217854Y579725D01*
X217726Y579330D01*
X217575Y578949D01*
X217400Y578584D01*
X217204Y578236D01*
X216989Y577910D01*
X216755Y577604D01*
X216500Y577319D01*
X216227Y577056D01*
X215934Y576813D01*
X215621Y576591D01*
X215290Y576390D01*
X214941Y576211D01*
X214580Y576057D01*
X214206Y575926D01*
X213818Y575818D01*
X213417Y575735D01*
X213004Y575676D01*
X212577Y575640D01*
X212136Y575628D01*
G37*
%LPC*%
G36*
X211944Y576968D02*
X212278Y576977D01*
X212602Y577005D01*
X212916Y577052D01*
X213219Y577117D01*
X213512Y577201D01*
X213795Y577303D01*
X214068Y577424D01*
X214330Y577564D01*
X214580Y577721D01*
X214815Y577894D01*
X215035Y578084D01*
X215240Y578291D01*
X215430Y578513D01*
X215606Y578753D01*
X215766Y579008D01*
X215911Y579280D01*
X216041Y579567D01*
X216153Y579866D01*
X216248Y580178D01*
X216325Y580502D01*
X216386Y580839D01*
X216429Y581189D01*
X216455Y581551D01*
X216463Y581925D01*
X216444Y582482D01*
X216385Y583005D01*
X216286Y583493D01*
X216149Y583948D01*
X215972Y584368D01*
X215756Y584754D01*
X215501Y585106D01*
X215206Y585424D01*
X214875Y585707D01*
X214508Y585951D01*
X214105Y586158D01*
X213668Y586328D01*
X213196Y586459D01*
X212688Y586553D01*
X212145Y586610D01*
X211567Y586629D01*
X209194Y586629D01*
X209194Y576968D01*
X211944Y576968D01*
G37*
%LPD*%
G36*
X228092Y575628D02*
X219920Y575628D01*
X219920Y576740D01*
X220156Y577238D01*
X220416Y577705D01*
X220701Y578142D01*
X221011Y578549D01*
X221337Y578932D01*
X221671Y579296D01*
X222013Y579641D01*
X222364Y579968D01*
X223070Y580580D01*
X223770Y581146D01*
X224432Y581689D01*
X225026Y582232D01*
X225293Y582507D01*
X225533Y582788D01*
X225746Y583076D01*
X225933Y583371D01*
X226084Y583678D01*
X226192Y584006D01*
X226257Y584353D01*
X226279Y584719D01*
X226270Y584966D01*
X226242Y585199D01*
X226195Y585417D01*
X226130Y585621D01*
X226046Y585811D01*
X225944Y585987D01*
X225823Y586149D01*
X225683Y586296D01*
X225527Y586427D01*
X225356Y586541D01*
X225171Y586637D01*
X224972Y586716D01*
X224757Y586778D01*
X224529Y586821D01*
X224286Y586848D01*
X224028Y586856D01*
X223782Y586848D01*
X223546Y586822D01*
X223322Y586779D01*
X223109Y586720D01*
X222907Y586643D01*
X222717Y586549D01*
X222537Y586437D01*
X222368Y586309D01*
X222213Y586165D01*
X222076Y586008D01*
X221955Y585836D01*
X221850Y585651D01*
X221763Y585452D01*
X221692Y585239D01*
X221639Y585012D01*
X221602Y584772D01*
X219990Y584921D01*
X220048Y585281D01*
X220134Y585623D01*
X220249Y585946D01*
X220392Y586250D01*
X220563Y586535D01*
X220763Y586801D01*
X220991Y587048D01*
X221247Y587277D01*
X221527Y587482D01*
X221826Y587660D01*
X222145Y587811D01*
X222483Y587934D01*
X222840Y588030D01*
X223217Y588098D01*
X223613Y588139D01*
X224028Y588153D01*
X224481Y588139D01*
X224907Y588098D01*
X225306Y588029D01*
X225678Y587933D01*
X226023Y587809D01*
X226341Y587658D01*
X226632Y587479D01*
X226896Y587272D01*
X227131Y587041D01*
X227335Y586786D01*
X227507Y586508D01*
X227648Y586207D01*
X227758Y585883D01*
X227836Y585536D01*
X227883Y585165D01*
X227899Y584772D01*
X227879Y584413D01*
X227817Y584056D01*
X227714Y583700D01*
X227571Y583344D01*
X227387Y582990D01*
X227162Y582635D01*
X226898Y582280D01*
X226594Y581925D01*
X226196Y581522D01*
X225650Y581021D01*
X224957Y580423D01*
X224115Y579727D01*
X223638Y579325D01*
X223211Y578944D01*
X222836Y578583D01*
X222513Y578242D01*
X222236Y577915D01*
X222000Y577593D01*
X221807Y577278D01*
X221654Y576968D01*
X228092Y576968D01*
X228092Y575628D01*
G37*
G36*
X210036Y343801D02*
X205421Y343801D01*
X205421Y356142D01*
X209502Y356142D01*
X209889Y356136D01*
X210264Y356117D01*
X210628Y356087D01*
X210980Y356044D01*
X211322Y355988D01*
X211652Y355921D01*
X211972Y355841D01*
X212280Y355749D01*
X212577Y355644D01*
X212862Y355528D01*
X213137Y355399D01*
X213400Y355257D01*
X213652Y355104D01*
X213893Y354938D01*
X214123Y354760D01*
X214341Y354570D01*
X214548Y354368D01*
X214741Y354156D01*
X214920Y353933D01*
X215087Y353701D01*
X215240Y353457D01*
X215379Y353204D01*
X215506Y352940D01*
X215619Y352666D01*
X215719Y352381D01*
X215805Y352086D01*
X215878Y351781D01*
X215938Y351465D01*
X215985Y351139D01*
X216018Y350802D01*
X216038Y350456D01*
X216045Y350098D01*
X216033Y349629D01*
X215998Y349174D01*
X215940Y348733D01*
X215859Y348308D01*
X215754Y347898D01*
X215626Y347503D01*
X215475Y347122D01*
X215300Y346757D01*
X215104Y346409D01*
X214889Y346083D01*
X214655Y345777D01*
X214400Y345492D01*
X214127Y345229D01*
X213834Y344986D01*
X213521Y344764D01*
X213190Y344563D01*
X212841Y344384D01*
X212480Y344230D01*
X212106Y344099D01*
X211718Y343991D01*
X211317Y343908D01*
X210904Y343849D01*
X210477Y343813D01*
X210036Y343801D01*
G37*
%LPC*%
G36*
X209844Y345141D02*
X210178Y345150D01*
X210502Y345178D01*
X210816Y345225D01*
X211119Y345290D01*
X211412Y345374D01*
X211695Y345476D01*
X211968Y345597D01*
X212230Y345737D01*
X212480Y345894D01*
X212715Y346067D01*
X212935Y346257D01*
X213140Y346464D01*
X213330Y346686D01*
X213506Y346926D01*
X213666Y347181D01*
X213811Y347453D01*
X213941Y347740D01*
X214053Y348039D01*
X214148Y348351D01*
X214225Y348675D01*
X214286Y349012D01*
X214329Y349362D01*
X214355Y349724D01*
X214363Y350098D01*
X214344Y350655D01*
X214285Y351178D01*
X214186Y351666D01*
X214049Y352121D01*
X213872Y352541D01*
X213656Y352927D01*
X213401Y353279D01*
X213106Y353597D01*
X212775Y353880D01*
X212408Y354124D01*
X212005Y354331D01*
X211568Y354501D01*
X211096Y354632D01*
X210588Y354726D01*
X210045Y354783D01*
X209467Y354802D01*
X207094Y354802D01*
X207094Y345141D01*
X209844Y345141D01*
G37*
%LPD*%
G36*
X221919Y343626D02*
X221462Y343639D01*
X221029Y343679D01*
X220620Y343745D01*
X220234Y343837D01*
X219872Y343956D01*
X219534Y344101D01*
X219219Y344273D01*
X218928Y344471D01*
X218663Y344695D01*
X218426Y344944D01*
X218218Y345219D01*
X218038Y345519D01*
X217886Y345844D01*
X217763Y346195D01*
X217668Y346570D01*
X217601Y346972D01*
X219230Y347120D01*
X219278Y346855D01*
X219341Y346607D01*
X219421Y346376D01*
X219517Y346163D01*
X219628Y345966D01*
X219756Y345786D01*
X219900Y345624D01*
X220060Y345478D01*
X220236Y345350D01*
X220428Y345239D01*
X220637Y345145D01*
X220861Y345068D01*
X221101Y345008D01*
X221358Y344965D01*
X221630Y344939D01*
X221919Y344931D01*
X222209Y344940D01*
X222483Y344968D01*
X222740Y345013D01*
X222982Y345078D01*
X223208Y345160D01*
X223418Y345261D01*
X223611Y345380D01*
X223789Y345518D01*
X223948Y345673D01*
X224086Y345847D01*
X224203Y346038D01*
X224298Y346247D01*
X224372Y346474D01*
X224425Y346718D01*
X224457Y346980D01*
X224468Y347261D01*
X224456Y347506D01*
X224419Y347737D01*
X224359Y347954D01*
X224274Y348157D01*
X224165Y348347D01*
X224032Y348523D01*
X223874Y348685D01*
X223693Y348833D01*
X223488Y348965D01*
X223262Y349080D01*
X223015Y349177D01*
X222746Y349256D01*
X222455Y349318D01*
X222143Y349362D01*
X221810Y349389D01*
X221455Y349398D01*
X220562Y349398D01*
X220562Y350764D01*
X221420Y350764D01*
X221735Y350773D01*
X222032Y350799D01*
X222310Y350843D01*
X222571Y350905D01*
X222813Y350985D01*
X223037Y351082D01*
X223242Y351197D01*
X223430Y351329D01*
X223597Y351477D01*
X223742Y351639D01*
X223865Y351814D01*
X223965Y352002D01*
X224043Y352204D01*
X224099Y352420D01*
X224133Y352650D01*
X224144Y352892D01*
X224135Y353133D01*
X224107Y353361D01*
X224062Y353576D01*
X223998Y353778D01*
X223916Y353967D01*
X223816Y354143D01*
X223698Y354306D01*
X223561Y354456D01*
X223407Y354590D01*
X223235Y354707D01*
X223045Y354805D01*
X222838Y354886D01*
X222613Y354949D01*
X222370Y354994D01*
X222110Y355020D01*
X221832Y355029D01*
X221577Y355021D01*
X221335Y354996D01*
X221106Y354954D01*
X220889Y354896D01*
X220684Y354821D01*
X220492Y354729D01*
X220313Y354620D01*
X220146Y354495D01*
X219993Y354355D01*
X219857Y354201D01*
X219738Y354033D01*
X219636Y353851D01*
X219551Y353656D01*
X219483Y353447D01*
X219431Y353225D01*
X219397Y352989D01*
X217811Y353111D01*
X217869Y353480D01*
X217956Y353827D01*
X218070Y354154D01*
X218213Y354460D01*
X218384Y354745D01*
X218584Y355010D01*
X218812Y355253D01*
X219068Y355476D01*
X219348Y355675D01*
X219648Y355848D01*
X219966Y355994D01*
X220304Y356113D01*
X220662Y356206D01*
X221038Y356273D01*
X221434Y356312D01*
X221849Y356326D01*
X222300Y356312D01*
X222726Y356272D01*
X223125Y356204D01*
X223499Y356110D01*
X223847Y355989D01*
X224169Y355840D01*
X224465Y355665D01*
X224735Y355463D01*
X224976Y355237D01*
X225185Y354989D01*
X225362Y354721D01*
X225507Y354431D01*
X225619Y354119D01*
X225700Y353787D01*
X225748Y353434D01*
X225764Y353059D01*
X225754Y352770D01*
X225723Y352495D01*
X225671Y352234D01*
X225599Y351987D01*
X225506Y351754D01*
X225392Y351534D01*
X225258Y351328D01*
X225103Y351136D01*
X224928Y350959D01*
X224735Y350796D01*
X224523Y350648D01*
X224292Y350516D01*
X224042Y350398D01*
X223773Y350295D01*
X223486Y350207D01*
X223180Y350133D01*
X223180Y350098D01*
X223517Y350051D01*
X223834Y349985D01*
X224132Y349898D01*
X224411Y349792D01*
X224671Y349666D01*
X224911Y349520D01*
X225133Y349355D01*
X225335Y349170D01*
X225516Y348969D01*
X225672Y348755D01*
X225805Y348529D01*
X225913Y348290D01*
X225997Y348038D01*
X226058Y347774D01*
X226094Y347497D01*
X226106Y347208D01*
X226089Y346793D01*
X226038Y346402D01*
X225953Y346036D01*
X225834Y345693D01*
X225681Y345374D01*
X225495Y345080D01*
X225274Y344809D01*
X225020Y344563D01*
X224734Y344343D01*
X224419Y344153D01*
X224075Y343992D01*
X223701Y343860D01*
X223299Y343758D01*
X222868Y343684D01*
X222408Y343641D01*
X221919Y343626D01*
G37*
G36*
X504073Y681687D02*
X503708Y681693D01*
X503353Y681712D01*
X503008Y681744D01*
X502673Y681788D01*
X502349Y681845D01*
X502034Y681915D01*
X501730Y681997D01*
X501435Y682092D01*
X501151Y682200D01*
X500877Y682320D01*
X500613Y682453D01*
X500359Y682599D01*
X499881Y682928D01*
X499444Y683307D01*
X499053Y683732D01*
X498877Y683960D01*
X498714Y684197D01*
X498564Y684444D01*
X498427Y684701D01*
X498303Y684968D01*
X498192Y685245D01*
X498095Y685532D01*
X498010Y685829D01*
X497938Y686136D01*
X497880Y686452D01*
X497834Y686779D01*
X497801Y687115D01*
X497782Y687462D01*
X497775Y687818D01*
X497787Y688281D01*
X497822Y688728D01*
X497881Y689160D01*
X497963Y689576D01*
X498068Y689977D01*
X498197Y690362D01*
X498349Y690731D01*
X498524Y691085D01*
X498722Y691421D01*
X498941Y691736D01*
X499181Y692031D01*
X499443Y692306D01*
X499725Y692560D01*
X500029Y692794D01*
X500354Y693007D01*
X500701Y693200D01*
X501066Y693372D01*
X501447Y693520D01*
X501844Y693646D01*
X502257Y693749D01*
X502687Y693829D01*
X503133Y693886D01*
X503595Y693920D01*
X504073Y693932D01*
X504549Y693920D01*
X505010Y693885D01*
X505457Y693827D01*
X505888Y693747D01*
X506304Y693642D01*
X506705Y693515D01*
X507091Y693365D01*
X507462Y693191D01*
X507815Y692996D01*
X508147Y692781D01*
X508458Y692546D01*
X508748Y692290D01*
X509016Y692015D01*
X509264Y691719D01*
X509490Y691403D01*
X509696Y691067D01*
X509878Y690714D01*
X510037Y690344D01*
X510171Y689959D01*
X510280Y689559D01*
X510366Y689143D01*
X510426Y688711D01*
X510463Y688264D01*
X510475Y687801D01*
X510463Y687334D01*
X510427Y686883D01*
X510367Y686448D01*
X510283Y686030D01*
X510174Y685628D01*
X510042Y685243D01*
X509885Y684873D01*
X509704Y684520D01*
X509501Y684186D01*
X509276Y683872D01*
X509030Y683578D01*
X508762Y683304D01*
X508472Y683051D01*
X508162Y682818D01*
X507829Y682606D01*
X507475Y682414D01*
X507103Y682244D01*
X506716Y682096D01*
X506313Y681971D01*
X505896Y681869D01*
X505463Y681789D01*
X505015Y681733D01*
X504551Y681698D01*
X504073Y681687D01*
G37*
%LPC*%
G36*
X504073Y683386D02*
X504638Y683405D01*
X505173Y683459D01*
X505679Y683551D01*
X506154Y683679D01*
X506599Y683843D01*
X507015Y684044D01*
X507400Y684281D01*
X507756Y684556D01*
X508075Y684862D01*
X508352Y685197D01*
X508586Y685560D01*
X508777Y685951D01*
X508926Y686371D01*
X509033Y686819D01*
X509096Y687296D01*
X509118Y687801D01*
X509097Y688319D01*
X509035Y688807D01*
X508932Y689264D01*
X508788Y689689D01*
X508603Y690084D01*
X508376Y690447D01*
X508108Y690779D01*
X507799Y691081D01*
X507453Y691349D01*
X507072Y691581D01*
X506658Y691777D01*
X506209Y691938D01*
X505726Y692063D01*
X505209Y692152D01*
X504658Y692206D01*
X504073Y692224D01*
X503512Y692206D01*
X502983Y692152D01*
X502484Y692062D01*
X502017Y691936D01*
X501580Y691774D01*
X501174Y691576D01*
X500799Y691342D01*
X500455Y691072D01*
X500148Y690769D01*
X499881Y690437D01*
X499655Y690074D01*
X499470Y689683D01*
X499326Y689261D01*
X499224Y688810D01*
X499162Y688329D01*
X499142Y687818D01*
X499162Y687303D01*
X499223Y686818D01*
X499324Y686364D01*
X499466Y685939D01*
X499648Y685545D01*
X499871Y685181D01*
X500134Y684846D01*
X500438Y684542D01*
X500778Y684271D01*
X501151Y684037D01*
X501557Y683838D01*
X501995Y683675D01*
X502465Y683549D01*
X502969Y683458D01*
X503504Y683404D01*
X504073Y683386D01*
G37*
%LPD*%
G36*
X510300Y667371D02*
X497959Y667371D01*
X497959Y669570D01*
X506516Y672854D01*
X507052Y673026D01*
X507624Y673191D01*
X508478Y673406D01*
X508037Y673514D01*
X507414Y673699D01*
X506833Y673887D01*
X506516Y674002D01*
X497959Y677225D01*
X497959Y679371D01*
X510300Y679371D01*
X510300Y677864D01*
X502067Y677864D01*
X500727Y677884D01*
X499439Y677943D01*
X500836Y677536D01*
X501407Y677349D01*
X501892Y677172D01*
X510300Y673984D01*
X510300Y672810D01*
X501892Y669579D01*
X500403Y669088D01*
X499439Y668799D01*
X500412Y668825D01*
X502067Y668860D01*
X510300Y668860D01*
X510300Y667371D01*
G37*
G36*
X499326Y695178D02*
X497959Y695178D01*
X497959Y705320D01*
X499326Y705320D01*
X499326Y701081D01*
X510300Y701081D01*
X510300Y699417D01*
X499326Y699417D01*
X499326Y695178D01*
G37*
G36*
X510300Y707110D02*
X508960Y707110D01*
X508960Y710254D01*
X499466Y710254D01*
X501454Y707469D01*
X499965Y707469D01*
X497959Y710386D01*
X497959Y711840D01*
X508960Y711840D01*
X508960Y714844D01*
X510300Y714844D01*
X510300Y707110D01*
G37*
G36*
X504073Y594687D02*
X503708Y594693D01*
X503353Y594712D01*
X503008Y594744D01*
X502673Y594788D01*
X502349Y594845D01*
X502034Y594915D01*
X501730Y594997D01*
X501435Y595092D01*
X501151Y595200D01*
X500877Y595320D01*
X500613Y595453D01*
X500359Y595599D01*
X499881Y595928D01*
X499444Y596307D01*
X499053Y596732D01*
X498877Y596960D01*
X498714Y597197D01*
X498564Y597444D01*
X498427Y597701D01*
X498303Y597968D01*
X498192Y598245D01*
X498095Y598532D01*
X498010Y598829D01*
X497938Y599136D01*
X497880Y599452D01*
X497834Y599779D01*
X497801Y600115D01*
X497782Y600462D01*
X497775Y600818D01*
X497787Y601281D01*
X497822Y601728D01*
X497881Y602160D01*
X497963Y602576D01*
X498068Y602977D01*
X498197Y603362D01*
X498349Y603731D01*
X498524Y604085D01*
X498722Y604421D01*
X498941Y604736D01*
X499181Y605031D01*
X499443Y605306D01*
X499725Y605560D01*
X500029Y605794D01*
X500354Y606007D01*
X500701Y606200D01*
X501066Y606372D01*
X501447Y606520D01*
X501844Y606646D01*
X502257Y606749D01*
X502687Y606829D01*
X503133Y606886D01*
X503595Y606920D01*
X504073Y606932D01*
X504549Y606920D01*
X505010Y606885D01*
X505457Y606827D01*
X505888Y606747D01*
X506304Y606642D01*
X506705Y606515D01*
X507091Y606365D01*
X507462Y606191D01*
X507815Y605996D01*
X508147Y605781D01*
X508458Y605546D01*
X508748Y605290D01*
X509016Y605015D01*
X509264Y604719D01*
X509490Y604403D01*
X509696Y604067D01*
X509878Y603714D01*
X510037Y603344D01*
X510171Y602959D01*
X510280Y602559D01*
X510366Y602143D01*
X510426Y601711D01*
X510463Y601264D01*
X510475Y600801D01*
X510463Y600334D01*
X510427Y599883D01*
X510367Y599448D01*
X510283Y599030D01*
X510174Y598628D01*
X510042Y598243D01*
X509885Y597873D01*
X509704Y597520D01*
X509501Y597186D01*
X509276Y596872D01*
X509030Y596578D01*
X508762Y596304D01*
X508472Y596051D01*
X508162Y595818D01*
X507829Y595606D01*
X507475Y595414D01*
X507103Y595244D01*
X506716Y595096D01*
X506313Y594971D01*
X505896Y594869D01*
X505463Y594789D01*
X505015Y594733D01*
X504551Y594698D01*
X504073Y594687D01*
G37*
%LPC*%
G36*
X504073Y596386D02*
X504638Y596405D01*
X505173Y596459D01*
X505679Y596551D01*
X506154Y596679D01*
X506599Y596843D01*
X507015Y597044D01*
X507400Y597281D01*
X507756Y597556D01*
X508075Y597862D01*
X508352Y598197D01*
X508586Y598560D01*
X508777Y598951D01*
X508926Y599371D01*
X509033Y599819D01*
X509096Y600296D01*
X509118Y600801D01*
X509097Y601319D01*
X509035Y601807D01*
X508932Y602264D01*
X508788Y602689D01*
X508603Y603084D01*
X508376Y603447D01*
X508108Y603779D01*
X507799Y604081D01*
X507453Y604349D01*
X507072Y604581D01*
X506658Y604777D01*
X506209Y604938D01*
X505726Y605063D01*
X505209Y605152D01*
X504658Y605206D01*
X504073Y605224D01*
X503512Y605206D01*
X502983Y605152D01*
X502484Y605062D01*
X502017Y604936D01*
X501580Y604774D01*
X501174Y604576D01*
X500799Y604342D01*
X500455Y604072D01*
X500148Y603769D01*
X499881Y603437D01*
X499655Y603074D01*
X499470Y602683D01*
X499326Y602261D01*
X499224Y601810D01*
X499162Y601329D01*
X499142Y600818D01*
X499162Y600303D01*
X499223Y599818D01*
X499324Y599364D01*
X499466Y598939D01*
X499648Y598545D01*
X499871Y598181D01*
X500134Y597846D01*
X500438Y597542D01*
X500778Y597271D01*
X501151Y597037D01*
X501557Y596838D01*
X501995Y596675D01*
X502465Y596549D01*
X502969Y596458D01*
X503504Y596404D01*
X504073Y596386D01*
G37*
%LPD*%
G36*
X510300Y580371D02*
X497959Y580371D01*
X497959Y582570D01*
X506516Y585854D01*
X507052Y586026D01*
X507624Y586191D01*
X508478Y586406D01*
X508037Y586514D01*
X507414Y586699D01*
X506833Y586887D01*
X506516Y587002D01*
X497959Y590225D01*
X497959Y592371D01*
X510300Y592371D01*
X510300Y590864D01*
X502067Y590864D01*
X500727Y590884D01*
X499439Y590943D01*
X500836Y590536D01*
X501407Y590349D01*
X501892Y590172D01*
X510300Y586984D01*
X510300Y585810D01*
X501892Y582579D01*
X500403Y582088D01*
X499439Y581799D01*
X500412Y581825D01*
X502067Y581860D01*
X510300Y581860D01*
X510300Y580371D01*
G37*
G36*
X510300Y619646D02*
X509188Y619646D01*
X508690Y619882D01*
X508223Y620142D01*
X507786Y620427D01*
X507379Y620736D01*
X506996Y621062D01*
X506632Y621396D01*
X506287Y621739D01*
X505960Y622090D01*
X505348Y622796D01*
X504782Y623495D01*
X504239Y624158D01*
X503696Y624752D01*
X503421Y625019D01*
X503140Y625259D01*
X502852Y625472D01*
X502557Y625659D01*
X502250Y625810D01*
X501922Y625918D01*
X501575Y625983D01*
X501209Y626005D01*
X500962Y625995D01*
X500729Y625967D01*
X500511Y625921D01*
X500307Y625856D01*
X500117Y625772D01*
X499941Y625670D01*
X499779Y625549D01*
X499632Y625409D01*
X499501Y625253D01*
X499387Y625082D01*
X499291Y624897D01*
X499212Y624697D01*
X499150Y624483D01*
X499107Y624255D01*
X499080Y624011D01*
X499072Y623754D01*
X499080Y623507D01*
X499106Y623272D01*
X499149Y623048D01*
X499208Y622835D01*
X499285Y622633D01*
X499379Y622442D01*
X499491Y622263D01*
X499619Y622094D01*
X499763Y621939D01*
X499920Y621801D01*
X500092Y621680D01*
X500277Y621576D01*
X500476Y621489D01*
X500689Y621418D01*
X500916Y621364D01*
X501156Y621328D01*
X501007Y619716D01*
X500647Y619774D01*
X500305Y619860D01*
X499982Y619975D01*
X499678Y620118D01*
X499393Y620289D01*
X499127Y620489D01*
X498880Y620717D01*
X498651Y620973D01*
X498446Y621253D01*
X498268Y621552D01*
X498117Y621871D01*
X497994Y622209D01*
X497898Y622566D01*
X497830Y622943D01*
X497789Y623338D01*
X497775Y623754D01*
X497789Y624207D01*
X497830Y624633D01*
X497899Y625031D01*
X497995Y625404D01*
X498119Y625749D01*
X498270Y626067D01*
X498449Y626358D01*
X498656Y626622D01*
X498887Y626857D01*
X499142Y627061D01*
X499420Y627233D01*
X499721Y627374D01*
X500045Y627484D01*
X500392Y627562D01*
X500763Y627609D01*
X501156Y627625D01*
X501515Y627604D01*
X501872Y627543D01*
X502228Y627440D01*
X502584Y627296D01*
X502938Y627112D01*
X503293Y626888D01*
X503648Y626624D01*
X504003Y626320D01*
X504406Y625922D01*
X504907Y625376D01*
X505505Y624683D01*
X506201Y623841D01*
X506603Y623363D01*
X506984Y622937D01*
X507345Y622562D01*
X507686Y622238D01*
X508013Y621961D01*
X508335Y621726D01*
X508650Y621532D01*
X508960Y621380D01*
X508960Y627818D01*
X510300Y627818D01*
X510300Y619646D01*
G37*
G36*
X499326Y608178D02*
X497959Y608178D01*
X497959Y618320D01*
X499326Y618320D01*
X499326Y614081D01*
X510300Y614081D01*
X510300Y612417D01*
X499326Y612417D01*
X499326Y608178D01*
G37*
G36*
X504073Y510387D02*
X503708Y510393D01*
X503353Y510412D01*
X503008Y510444D01*
X502673Y510488D01*
X502349Y510545D01*
X502034Y510615D01*
X501730Y510697D01*
X501435Y510792D01*
X501151Y510900D01*
X500877Y511020D01*
X500613Y511153D01*
X500359Y511299D01*
X499881Y511628D01*
X499444Y512007D01*
X499053Y512432D01*
X498877Y512660D01*
X498714Y512897D01*
X498564Y513144D01*
X498427Y513401D01*
X498303Y513668D01*
X498192Y513945D01*
X498095Y514232D01*
X498010Y514529D01*
X497938Y514836D01*
X497880Y515152D01*
X497834Y515479D01*
X497801Y515815D01*
X497782Y516162D01*
X497775Y516518D01*
X497787Y516981D01*
X497822Y517428D01*
X497881Y517860D01*
X497963Y518276D01*
X498068Y518677D01*
X498197Y519062D01*
X498349Y519431D01*
X498524Y519785D01*
X498722Y520121D01*
X498941Y520436D01*
X499181Y520731D01*
X499443Y521006D01*
X499725Y521260D01*
X500029Y521494D01*
X500354Y521707D01*
X500701Y521900D01*
X501066Y522072D01*
X501447Y522220D01*
X501844Y522346D01*
X502257Y522449D01*
X502687Y522529D01*
X503133Y522586D01*
X503595Y522620D01*
X504073Y522632D01*
X504549Y522620D01*
X505010Y522585D01*
X505457Y522527D01*
X505888Y522447D01*
X506304Y522342D01*
X506705Y522215D01*
X507091Y522065D01*
X507462Y521891D01*
X507815Y521696D01*
X508147Y521481D01*
X508458Y521246D01*
X508748Y520990D01*
X509016Y520715D01*
X509264Y520419D01*
X509490Y520103D01*
X509696Y519767D01*
X509878Y519414D01*
X510037Y519044D01*
X510171Y518659D01*
X510280Y518259D01*
X510366Y517843D01*
X510426Y517411D01*
X510463Y516964D01*
X510475Y516501D01*
X510463Y516034D01*
X510427Y515583D01*
X510367Y515148D01*
X510283Y514730D01*
X510174Y514328D01*
X510042Y513943D01*
X509885Y513573D01*
X509704Y513220D01*
X509501Y512886D01*
X509276Y512572D01*
X509030Y512278D01*
X508762Y512004D01*
X508472Y511751D01*
X508162Y511518D01*
X507829Y511306D01*
X507475Y511114D01*
X507103Y510944D01*
X506716Y510796D01*
X506313Y510671D01*
X505896Y510569D01*
X505463Y510489D01*
X505015Y510433D01*
X504551Y510398D01*
X504073Y510387D01*
G37*
%LPC*%
G36*
X504073Y512086D02*
X504638Y512105D01*
X505173Y512159D01*
X505679Y512251D01*
X506154Y512379D01*
X506599Y512543D01*
X507015Y512744D01*
X507400Y512981D01*
X507756Y513256D01*
X508075Y513562D01*
X508352Y513897D01*
X508586Y514260D01*
X508777Y514651D01*
X508926Y515071D01*
X509033Y515519D01*
X509096Y515996D01*
X509118Y516501D01*
X509097Y517019D01*
X509035Y517507D01*
X508932Y517964D01*
X508788Y518389D01*
X508603Y518784D01*
X508376Y519147D01*
X508108Y519479D01*
X507799Y519781D01*
X507453Y520049D01*
X507072Y520281D01*
X506658Y520477D01*
X506209Y520638D01*
X505726Y520763D01*
X505209Y520852D01*
X504658Y520906D01*
X504073Y520924D01*
X503512Y520906D01*
X502983Y520852D01*
X502484Y520762D01*
X502017Y520636D01*
X501580Y520474D01*
X501174Y520276D01*
X500799Y520042D01*
X500455Y519772D01*
X500148Y519469D01*
X499881Y519137D01*
X499655Y518774D01*
X499470Y518383D01*
X499326Y517961D01*
X499224Y517510D01*
X499162Y517029D01*
X499142Y516518D01*
X499162Y516003D01*
X499223Y515518D01*
X499324Y515064D01*
X499466Y514639D01*
X499648Y514245D01*
X499871Y513881D01*
X500134Y513546D01*
X500438Y513242D01*
X500778Y512971D01*
X501151Y512737D01*
X501557Y512538D01*
X501995Y512375D01*
X502465Y512249D01*
X502969Y512158D01*
X503504Y512104D01*
X504073Y512086D01*
G37*
%LPD*%
G36*
X510300Y496071D02*
X497959Y496071D01*
X497959Y498270D01*
X506516Y501554D01*
X507052Y501726D01*
X507624Y501891D01*
X508478Y502106D01*
X508037Y502214D01*
X507414Y502399D01*
X506833Y502587D01*
X506516Y502702D01*
X497959Y505925D01*
X497959Y508071D01*
X510300Y508071D01*
X510300Y506564D01*
X502067Y506564D01*
X500727Y506584D01*
X499439Y506643D01*
X500836Y506236D01*
X501407Y506049D01*
X501892Y505872D01*
X510300Y502684D01*
X510300Y501510D01*
X501892Y498279D01*
X500403Y497788D01*
X499439Y497499D01*
X500412Y497525D01*
X502067Y497560D01*
X510300Y497560D01*
X510300Y496071D01*
G37*
G36*
X507129Y535127D02*
X506981Y536756D01*
X507246Y536803D01*
X507494Y536867D01*
X507725Y536947D01*
X507939Y537042D01*
X508135Y537154D01*
X508315Y537282D01*
X508477Y537426D01*
X508623Y537586D01*
X508751Y537762D01*
X508862Y537954D01*
X508956Y538162D01*
X509033Y538387D01*
X509093Y538627D01*
X509136Y538884D01*
X509162Y539156D01*
X509170Y539445D01*
X509161Y539735D01*
X509134Y540008D01*
X509088Y540266D01*
X509023Y540508D01*
X508941Y540734D01*
X508840Y540943D01*
X508721Y541137D01*
X508583Y541315D01*
X508428Y541474D01*
X508254Y541612D01*
X508063Y541728D01*
X507854Y541824D01*
X507627Y541898D01*
X507383Y541951D01*
X507121Y541983D01*
X506840Y541994D01*
X506596Y541982D01*
X506364Y541945D01*
X506147Y541885D01*
X505944Y541800D01*
X505754Y541691D01*
X505578Y541558D01*
X505416Y541400D01*
X505268Y541218D01*
X505136Y541014D01*
X505021Y540788D01*
X504924Y540540D01*
X504845Y540271D01*
X504783Y539981D01*
X504739Y539669D01*
X504712Y539336D01*
X504703Y538981D01*
X504703Y538087D01*
X503337Y538087D01*
X503337Y538946D01*
X503328Y539261D01*
X503302Y539557D01*
X503258Y539836D01*
X503196Y540096D01*
X503116Y540338D01*
X503019Y540562D01*
X502904Y540768D01*
X502772Y540956D01*
X502624Y541123D01*
X502463Y541268D01*
X502287Y541391D01*
X502099Y541491D01*
X501897Y541569D01*
X501681Y541625D01*
X501452Y541658D01*
X501209Y541670D01*
X500968Y541660D01*
X500740Y541633D01*
X500525Y541588D01*
X500323Y541524D01*
X500134Y541442D01*
X499958Y541342D01*
X499795Y541224D01*
X499645Y541087D01*
X499511Y540933D01*
X499394Y540761D01*
X499296Y540571D01*
X499215Y540363D01*
X499152Y540138D01*
X499107Y539896D01*
X499081Y539635D01*
X499072Y539357D01*
X499080Y539103D01*
X499105Y538861D01*
X499147Y538632D01*
X499205Y538415D01*
X499280Y538210D01*
X499372Y538018D01*
X499481Y537838D01*
X499606Y537671D01*
X499746Y537519D01*
X499900Y537383D01*
X500068Y537264D01*
X500250Y537162D01*
X500445Y537077D01*
X500654Y537009D01*
X500876Y536957D01*
X501112Y536922D01*
X500990Y535337D01*
X500621Y535395D01*
X500274Y535481D01*
X499947Y535596D01*
X499641Y535739D01*
X499356Y535910D01*
X499091Y536110D01*
X498848Y536338D01*
X498625Y536594D01*
X498426Y536874D01*
X498253Y537173D01*
X498107Y537492D01*
X497988Y537830D01*
X497895Y538187D01*
X497828Y538564D01*
X497789Y538960D01*
X497775Y539375D01*
X497789Y539826D01*
X497829Y540251D01*
X497897Y540651D01*
X497991Y541025D01*
X498112Y541373D01*
X498261Y541694D01*
X498436Y541991D01*
X498638Y542261D01*
X498864Y542502D01*
X499112Y542711D01*
X499381Y542888D01*
X499670Y543033D01*
X499982Y543145D01*
X500314Y543226D01*
X500667Y543274D01*
X501042Y543290D01*
X501331Y543280D01*
X501606Y543249D01*
X501867Y543197D01*
X502114Y543125D01*
X502347Y543032D01*
X502567Y542918D01*
X502773Y542784D01*
X502965Y542629D01*
X503142Y542454D01*
X503305Y542260D01*
X503453Y542048D01*
X503586Y541817D01*
X503703Y541568D01*
X503806Y541299D01*
X503894Y541012D01*
X503968Y540706D01*
X504003Y540706D01*
X504050Y541042D01*
X504116Y541360D01*
X504203Y541658D01*
X504309Y541937D01*
X504435Y542196D01*
X504581Y542437D01*
X504746Y542658D01*
X504931Y542861D01*
X505132Y543041D01*
X505346Y543198D01*
X505572Y543330D01*
X505811Y543439D01*
X506063Y543523D01*
X506327Y543583D01*
X506604Y543619D01*
X506893Y543631D01*
X507308Y543614D01*
X507699Y543564D01*
X508066Y543479D01*
X508408Y543360D01*
X508727Y543207D01*
X509021Y543021D01*
X509292Y542800D01*
X509538Y542545D01*
X509758Y542259D01*
X509948Y541944D01*
X510109Y541600D01*
X510241Y541227D01*
X510343Y540825D01*
X510417Y540394D01*
X510461Y539934D01*
X510475Y539445D01*
X510462Y538988D01*
X510422Y538555D01*
X510356Y538146D01*
X510264Y537760D01*
X510145Y537398D01*
X510000Y537060D01*
X509828Y536745D01*
X509630Y536454D01*
X509406Y536189D01*
X509157Y535952D01*
X508882Y535744D01*
X508582Y535564D01*
X508257Y535412D01*
X507906Y535289D01*
X507531Y535194D01*
X507129Y535127D01*
G37*
G36*
X499326Y523878D02*
X497959Y523878D01*
X497959Y534020D01*
X499326Y534020D01*
X499326Y529781D01*
X510300Y529781D01*
X510300Y528117D01*
X499326Y528117D01*
X499326Y523878D01*
G37*
G36*
X504073Y426087D02*
X503708Y426093D01*
X503353Y426112D01*
X503008Y426144D01*
X502673Y426188D01*
X502349Y426245D01*
X502034Y426315D01*
X501730Y426397D01*
X501435Y426492D01*
X501151Y426600D01*
X500877Y426720D01*
X500613Y426853D01*
X500359Y426999D01*
X499881Y427328D01*
X499444Y427707D01*
X499053Y428132D01*
X498877Y428360D01*
X498714Y428597D01*
X498564Y428844D01*
X498427Y429101D01*
X498303Y429368D01*
X498192Y429645D01*
X498095Y429932D01*
X498010Y430229D01*
X497938Y430536D01*
X497880Y430852D01*
X497834Y431179D01*
X497801Y431515D01*
X497782Y431862D01*
X497775Y432218D01*
X497787Y432681D01*
X497822Y433128D01*
X497881Y433560D01*
X497963Y433976D01*
X498068Y434377D01*
X498197Y434762D01*
X498349Y435131D01*
X498524Y435485D01*
X498722Y435821D01*
X498941Y436136D01*
X499181Y436431D01*
X499443Y436706D01*
X499725Y436960D01*
X500029Y437194D01*
X500354Y437407D01*
X500701Y437600D01*
X501066Y437772D01*
X501447Y437920D01*
X501844Y438046D01*
X502257Y438149D01*
X502687Y438229D01*
X503133Y438286D01*
X503595Y438320D01*
X504073Y438332D01*
X504549Y438320D01*
X505010Y438285D01*
X505457Y438227D01*
X505888Y438147D01*
X506304Y438042D01*
X506705Y437915D01*
X507091Y437765D01*
X507462Y437591D01*
X507815Y437396D01*
X508147Y437181D01*
X508458Y436946D01*
X508748Y436690D01*
X509016Y436415D01*
X509264Y436119D01*
X509490Y435803D01*
X509696Y435467D01*
X509878Y435114D01*
X510037Y434744D01*
X510171Y434359D01*
X510280Y433959D01*
X510366Y433543D01*
X510426Y433111D01*
X510463Y432664D01*
X510475Y432201D01*
X510463Y431734D01*
X510427Y431283D01*
X510367Y430848D01*
X510283Y430430D01*
X510174Y430028D01*
X510042Y429643D01*
X509885Y429273D01*
X509704Y428920D01*
X509501Y428586D01*
X509276Y428272D01*
X509030Y427978D01*
X508762Y427704D01*
X508472Y427451D01*
X508162Y427218D01*
X507829Y427006D01*
X507475Y426814D01*
X507103Y426644D01*
X506716Y426496D01*
X506313Y426371D01*
X505896Y426269D01*
X505463Y426189D01*
X505015Y426133D01*
X504551Y426098D01*
X504073Y426087D01*
G37*
%LPC*%
G36*
X504073Y427786D02*
X504638Y427805D01*
X505173Y427859D01*
X505679Y427951D01*
X506154Y428079D01*
X506599Y428243D01*
X507015Y428444D01*
X507400Y428681D01*
X507756Y428956D01*
X508075Y429262D01*
X508352Y429597D01*
X508586Y429960D01*
X508777Y430351D01*
X508926Y430771D01*
X509033Y431219D01*
X509096Y431696D01*
X509118Y432201D01*
X509097Y432719D01*
X509035Y433207D01*
X508932Y433664D01*
X508788Y434089D01*
X508603Y434484D01*
X508376Y434847D01*
X508108Y435179D01*
X507799Y435481D01*
X507453Y435749D01*
X507072Y435981D01*
X506658Y436177D01*
X506209Y436338D01*
X505726Y436463D01*
X505209Y436552D01*
X504658Y436606D01*
X504073Y436624D01*
X503512Y436606D01*
X502983Y436552D01*
X502484Y436462D01*
X502017Y436336D01*
X501580Y436174D01*
X501174Y435976D01*
X500799Y435742D01*
X500455Y435472D01*
X500148Y435169D01*
X499881Y434837D01*
X499655Y434474D01*
X499470Y434083D01*
X499326Y433661D01*
X499224Y433210D01*
X499162Y432729D01*
X499142Y432218D01*
X499162Y431703D01*
X499223Y431218D01*
X499324Y430764D01*
X499466Y430339D01*
X499648Y429945D01*
X499871Y429581D01*
X500134Y429246D01*
X500438Y428942D01*
X500778Y428671D01*
X501151Y428437D01*
X501557Y428238D01*
X501995Y428075D01*
X502465Y427949D01*
X502969Y427858D01*
X503504Y427804D01*
X504073Y427786D01*
G37*
%LPD*%
G36*
X510300Y411771D02*
X497959Y411771D01*
X497959Y413970D01*
X506516Y417254D01*
X507052Y417426D01*
X507624Y417591D01*
X508478Y417806D01*
X508037Y417914D01*
X507414Y418099D01*
X506833Y418287D01*
X506516Y418402D01*
X497959Y421625D01*
X497959Y423771D01*
X510300Y423771D01*
X510300Y422264D01*
X502067Y422264D01*
X500727Y422284D01*
X499439Y422343D01*
X500836Y421936D01*
X501407Y421749D01*
X501892Y421572D01*
X510300Y418384D01*
X510300Y417210D01*
X501892Y413979D01*
X500403Y413488D01*
X499439Y413199D01*
X500412Y413225D01*
X502067Y413260D01*
X510300Y413260D01*
X510300Y411771D01*
G37*
G36*
X507506Y450555D02*
X506280Y450555D01*
X497959Y456205D01*
X497959Y457860D01*
X506262Y457860D01*
X506262Y459594D01*
X507506Y459594D01*
X507506Y457860D01*
X510300Y457860D01*
X510300Y456371D01*
X507506Y456371D01*
X507506Y450555D01*
G37*
%LPC*%
G36*
X506262Y452009D02*
X506262Y456371D01*
X499737Y456371D01*
X500201Y456126D01*
X500779Y455784D01*
X505439Y452622D01*
X506087Y452149D01*
X506262Y452009D01*
G37*
%LPD*%
G36*
X499326Y439578D02*
X497959Y439578D01*
X497959Y449720D01*
X499326Y449720D01*
X499326Y445481D01*
X510300Y445481D01*
X510300Y443817D01*
X499326Y443817D01*
X499326Y439578D01*
G37*
G36*
X504073Y341787D02*
X503708Y341793D01*
X503353Y341812D01*
X503008Y341844D01*
X502673Y341888D01*
X502349Y341945D01*
X502034Y342015D01*
X501730Y342097D01*
X501435Y342192D01*
X501151Y342300D01*
X500877Y342420D01*
X500613Y342553D01*
X500359Y342699D01*
X499881Y343028D01*
X499444Y343407D01*
X499053Y343832D01*
X498877Y344060D01*
X498714Y344297D01*
X498564Y344544D01*
X498427Y344801D01*
X498303Y345068D01*
X498192Y345345D01*
X498095Y345632D01*
X498010Y345929D01*
X497938Y346236D01*
X497880Y346552D01*
X497834Y346879D01*
X497801Y347215D01*
X497782Y347562D01*
X497775Y347918D01*
X497787Y348381D01*
X497822Y348828D01*
X497881Y349260D01*
X497963Y349676D01*
X498068Y350077D01*
X498197Y350462D01*
X498349Y350831D01*
X498524Y351185D01*
X498722Y351521D01*
X498941Y351836D01*
X499181Y352131D01*
X499443Y352406D01*
X499725Y352660D01*
X500029Y352894D01*
X500354Y353107D01*
X500701Y353300D01*
X501066Y353472D01*
X501447Y353620D01*
X501844Y353746D01*
X502257Y353849D01*
X502687Y353929D01*
X503133Y353986D01*
X503595Y354020D01*
X504073Y354032D01*
X504549Y354020D01*
X505010Y353985D01*
X505457Y353927D01*
X505888Y353847D01*
X506304Y353742D01*
X506705Y353615D01*
X507091Y353465D01*
X507462Y353291D01*
X507815Y353096D01*
X508147Y352881D01*
X508458Y352646D01*
X508748Y352390D01*
X509016Y352115D01*
X509264Y351819D01*
X509490Y351503D01*
X509696Y351167D01*
X509878Y350814D01*
X510037Y350444D01*
X510171Y350059D01*
X510280Y349659D01*
X510366Y349243D01*
X510426Y348811D01*
X510463Y348364D01*
X510475Y347901D01*
X510463Y347434D01*
X510427Y346983D01*
X510367Y346548D01*
X510283Y346130D01*
X510174Y345728D01*
X510042Y345343D01*
X509885Y344973D01*
X509704Y344620D01*
X509501Y344286D01*
X509276Y343972D01*
X509030Y343678D01*
X508762Y343404D01*
X508472Y343151D01*
X508162Y342918D01*
X507829Y342706D01*
X507475Y342514D01*
X507103Y342344D01*
X506716Y342196D01*
X506313Y342071D01*
X505896Y341969D01*
X505463Y341889D01*
X505015Y341833D01*
X504551Y341798D01*
X504073Y341787D01*
G37*
%LPC*%
G36*
X504073Y343486D02*
X504638Y343505D01*
X505173Y343559D01*
X505679Y343651D01*
X506154Y343779D01*
X506599Y343943D01*
X507015Y344144D01*
X507400Y344381D01*
X507756Y344656D01*
X508075Y344962D01*
X508352Y345297D01*
X508586Y345660D01*
X508777Y346051D01*
X508926Y346471D01*
X509033Y346919D01*
X509096Y347396D01*
X509118Y347901D01*
X509097Y348419D01*
X509035Y348907D01*
X508932Y349364D01*
X508788Y349789D01*
X508603Y350184D01*
X508376Y350547D01*
X508108Y350879D01*
X507799Y351181D01*
X507453Y351449D01*
X507072Y351681D01*
X506658Y351877D01*
X506209Y352038D01*
X505726Y352163D01*
X505209Y352252D01*
X504658Y352306D01*
X504073Y352324D01*
X503512Y352306D01*
X502983Y352252D01*
X502484Y352162D01*
X502017Y352036D01*
X501580Y351874D01*
X501174Y351676D01*
X500799Y351442D01*
X500455Y351172D01*
X500148Y350869D01*
X499881Y350537D01*
X499655Y350174D01*
X499470Y349783D01*
X499326Y349361D01*
X499224Y348910D01*
X499162Y348429D01*
X499142Y347918D01*
X499162Y347403D01*
X499223Y346918D01*
X499324Y346464D01*
X499466Y346039D01*
X499648Y345645D01*
X499871Y345281D01*
X500134Y344946D01*
X500438Y344642D01*
X500778Y344371D01*
X501151Y344137D01*
X501557Y343938D01*
X501995Y343775D01*
X502465Y343649D01*
X502969Y343558D01*
X503504Y343504D01*
X504073Y343486D01*
G37*
%LPD*%
G36*
X510300Y327471D02*
X497959Y327471D01*
X497959Y329670D01*
X506516Y332954D01*
X507052Y333126D01*
X507624Y333291D01*
X508478Y333506D01*
X508037Y333614D01*
X507414Y333799D01*
X506833Y333987D01*
X506516Y334102D01*
X497959Y337325D01*
X497959Y339471D01*
X510300Y339471D01*
X510300Y337964D01*
X502067Y337964D01*
X500727Y337984D01*
X499439Y338043D01*
X500836Y337636D01*
X501407Y337449D01*
X501892Y337272D01*
X510300Y334084D01*
X510300Y332910D01*
X501892Y329679D01*
X500403Y329188D01*
X499439Y328899D01*
X500412Y328925D01*
X502067Y328960D01*
X510300Y328960D01*
X510300Y327471D01*
G37*
G36*
X507541Y366562D02*
X507357Y368156D01*
X507579Y368225D01*
X507786Y368305D01*
X507979Y368398D01*
X508158Y368504D01*
X508322Y368621D01*
X508473Y368751D01*
X508609Y368893D01*
X508730Y369047D01*
X508837Y369214D01*
X508930Y369392D01*
X509009Y369583D01*
X509073Y369787D01*
X509123Y370002D01*
X509159Y370230D01*
X509181Y370470D01*
X509188Y370722D01*
X509176Y371031D01*
X509140Y371323D01*
X509080Y371597D01*
X508996Y371854D01*
X508888Y372094D01*
X508757Y372317D01*
X508601Y372522D01*
X508421Y372710D01*
X508221Y372879D01*
X508002Y373025D01*
X507766Y373148D01*
X507512Y373249D01*
X507239Y373328D01*
X506949Y373384D01*
X506641Y373417D01*
X506315Y373429D01*
X506031Y373417D01*
X505760Y373383D01*
X505504Y373327D01*
X505262Y373248D01*
X505033Y373146D01*
X504819Y373022D01*
X504618Y372875D01*
X504432Y372706D01*
X504263Y372518D01*
X504118Y372313D01*
X503994Y372093D01*
X503893Y371858D01*
X503815Y371606D01*
X503758Y371339D01*
X503725Y371056D01*
X503714Y370757D01*
X503726Y370443D01*
X503764Y370140D01*
X503827Y369847D01*
X503915Y369566D01*
X504033Y369290D01*
X504187Y369014D01*
X504375Y368738D01*
X504598Y368463D01*
X504598Y366921D01*
X497959Y367333D01*
X497959Y374348D01*
X499299Y374348D01*
X499299Y368769D01*
X503214Y368533D01*
X503030Y368797D01*
X502870Y369076D01*
X502734Y369371D01*
X502623Y369682D01*
X502537Y370009D01*
X502475Y370351D01*
X502438Y370708D01*
X502426Y371081D01*
X502443Y371525D01*
X502493Y371946D01*
X502576Y372344D01*
X502693Y372718D01*
X502843Y373069D01*
X503027Y373398D01*
X503244Y373703D01*
X503495Y373985D01*
X503772Y374238D01*
X504069Y374458D01*
X504387Y374644D01*
X504725Y374796D01*
X505083Y374914D01*
X505462Y374999D01*
X505861Y375050D01*
X506280Y375066D01*
X506755Y375048D01*
X507204Y374994D01*
X507628Y374903D01*
X508025Y374776D01*
X508396Y374613D01*
X508742Y374414D01*
X509061Y374178D01*
X509354Y373906D01*
X509617Y373602D01*
X509845Y373270D01*
X510037Y372909D01*
X510195Y372521D01*
X510318Y372105D01*
X510405Y371660D01*
X510458Y371188D01*
X510475Y370687D01*
X510463Y370266D01*
X510428Y369866D01*
X510369Y369487D01*
X510287Y369128D01*
X510181Y368790D01*
X510052Y368474D01*
X509899Y368177D01*
X509722Y367902D01*
X509523Y367649D01*
X509303Y367421D01*
X509062Y367217D01*
X508800Y367037D01*
X508517Y366882D01*
X508213Y366751D01*
X507887Y366644D01*
X507541Y366562D01*
G37*
G36*
X499326Y355278D02*
X497959Y355278D01*
X497959Y365420D01*
X499326Y365420D01*
X499326Y361181D01*
X510300Y361181D01*
X510300Y359517D01*
X499326Y359517D01*
X499326Y355278D01*
G37*
G36*
X504073Y257487D02*
X503708Y257493D01*
X503353Y257512D01*
X503008Y257544D01*
X502673Y257588D01*
X502349Y257645D01*
X502034Y257715D01*
X501730Y257797D01*
X501435Y257892D01*
X501151Y258000D01*
X500877Y258120D01*
X500613Y258253D01*
X500359Y258399D01*
X499881Y258728D01*
X499444Y259107D01*
X499053Y259532D01*
X498877Y259760D01*
X498714Y259997D01*
X498564Y260244D01*
X498427Y260501D01*
X498303Y260768D01*
X498192Y261045D01*
X498095Y261332D01*
X498010Y261629D01*
X497938Y261936D01*
X497880Y262252D01*
X497834Y262579D01*
X497801Y262915D01*
X497782Y263262D01*
X497775Y263618D01*
X497787Y264081D01*
X497822Y264528D01*
X497881Y264960D01*
X497963Y265376D01*
X498068Y265777D01*
X498197Y266162D01*
X498349Y266531D01*
X498524Y266885D01*
X498722Y267221D01*
X498941Y267536D01*
X499181Y267831D01*
X499443Y268106D01*
X499725Y268360D01*
X500029Y268594D01*
X500354Y268807D01*
X500701Y269000D01*
X501066Y269172D01*
X501447Y269320D01*
X501844Y269446D01*
X502257Y269549D01*
X502687Y269629D01*
X503133Y269686D01*
X503595Y269720D01*
X504073Y269732D01*
X504549Y269720D01*
X505010Y269685D01*
X505457Y269627D01*
X505888Y269547D01*
X506304Y269442D01*
X506705Y269315D01*
X507091Y269165D01*
X507462Y268991D01*
X507815Y268796D01*
X508147Y268581D01*
X508458Y268346D01*
X508748Y268090D01*
X509016Y267815D01*
X509264Y267519D01*
X509490Y267203D01*
X509696Y266867D01*
X509878Y266514D01*
X510037Y266144D01*
X510171Y265759D01*
X510280Y265359D01*
X510366Y264943D01*
X510426Y264511D01*
X510463Y264064D01*
X510475Y263601D01*
X510463Y263134D01*
X510427Y262683D01*
X510367Y262248D01*
X510283Y261830D01*
X510174Y261428D01*
X510042Y261043D01*
X509885Y260673D01*
X509704Y260320D01*
X509501Y259986D01*
X509276Y259672D01*
X509030Y259378D01*
X508762Y259104D01*
X508472Y258851D01*
X508162Y258618D01*
X507829Y258406D01*
X507475Y258214D01*
X507103Y258044D01*
X506716Y257896D01*
X506313Y257771D01*
X505896Y257669D01*
X505463Y257589D01*
X505015Y257533D01*
X504551Y257498D01*
X504073Y257487D01*
G37*
%LPC*%
G36*
X504073Y259186D02*
X504638Y259205D01*
X505173Y259259D01*
X505679Y259351D01*
X506154Y259479D01*
X506599Y259643D01*
X507015Y259844D01*
X507400Y260081D01*
X507756Y260356D01*
X508075Y260662D01*
X508352Y260997D01*
X508586Y261360D01*
X508777Y261751D01*
X508926Y262171D01*
X509033Y262619D01*
X509096Y263096D01*
X509118Y263601D01*
X509097Y264119D01*
X509035Y264607D01*
X508932Y265064D01*
X508788Y265489D01*
X508603Y265884D01*
X508376Y266247D01*
X508108Y266579D01*
X507799Y266881D01*
X507453Y267149D01*
X507072Y267381D01*
X506658Y267577D01*
X506209Y267738D01*
X505726Y267863D01*
X505209Y267952D01*
X504658Y268006D01*
X504073Y268024D01*
X503512Y268006D01*
X502983Y267952D01*
X502484Y267862D01*
X502017Y267736D01*
X501580Y267574D01*
X501174Y267376D01*
X500799Y267142D01*
X500455Y266872D01*
X500148Y266569D01*
X499881Y266237D01*
X499655Y265874D01*
X499470Y265483D01*
X499326Y265061D01*
X499224Y264610D01*
X499162Y264129D01*
X499142Y263618D01*
X499162Y263103D01*
X499223Y262618D01*
X499324Y262164D01*
X499466Y261739D01*
X499648Y261345D01*
X499871Y260981D01*
X500134Y260646D01*
X500438Y260342D01*
X500778Y260071D01*
X501151Y259837D01*
X501557Y259638D01*
X501995Y259475D01*
X502465Y259349D01*
X502969Y259258D01*
X503504Y259204D01*
X504073Y259186D01*
G37*
%LPD*%
G36*
X504414Y282455D02*
X503636Y282473D01*
X502905Y282526D01*
X502219Y282616D01*
X501581Y282741D01*
X500989Y282903D01*
X500443Y283100D01*
X499944Y283333D01*
X499492Y283602D01*
X499090Y283904D01*
X498741Y284236D01*
X498446Y284599D01*
X498204Y284992D01*
X498017Y285416D01*
X497943Y285639D01*
X497883Y285870D01*
X497836Y286108D01*
X497802Y286354D01*
X497782Y286608D01*
X497775Y286869D01*
X497785Y287210D01*
X497815Y287535D01*
X497864Y287844D01*
X497932Y288137D01*
X498021Y288413D01*
X498129Y288674D01*
X498256Y288918D01*
X498404Y289146D01*
X498571Y289358D01*
X498757Y289554D01*
X498963Y289734D01*
X499189Y289897D01*
X499435Y290045D01*
X499700Y290176D01*
X499985Y290291D01*
X500289Y290390D01*
X500561Y288883D01*
X500207Y288750D01*
X499901Y288582D01*
X499643Y288380D01*
X499431Y288143D01*
X499266Y287872D01*
X499148Y287566D01*
X499078Y287226D01*
X499054Y286851D01*
X499074Y286524D01*
X499133Y286215D01*
X499231Y285925D01*
X499368Y285655D01*
X499545Y285403D01*
X499761Y285171D01*
X500016Y284957D01*
X500311Y284763D01*
X500643Y284589D01*
X501010Y284439D01*
X501412Y284312D01*
X501849Y284207D01*
X502322Y284126D01*
X502829Y284069D01*
X503372Y284034D01*
X503950Y284022D01*
X503575Y284259D01*
X503248Y284539D01*
X502969Y284863D01*
X502737Y285231D01*
X502555Y285635D01*
X502425Y286068D01*
X502380Y286294D01*
X502347Y286528D01*
X502327Y286770D01*
X502321Y287018D01*
X502338Y287434D01*
X502388Y287828D01*
X502471Y288200D01*
X502588Y288549D01*
X502738Y288877D01*
X502922Y289183D01*
X503139Y289467D01*
X503390Y289729D01*
X503668Y289964D01*
X503970Y290167D01*
X504294Y290340D01*
X504642Y290481D01*
X505013Y290590D01*
X505406Y290669D01*
X505823Y290716D01*
X506262Y290731D01*
X506738Y290715D01*
X507187Y290665D01*
X507611Y290582D01*
X508010Y290467D01*
X508382Y290317D01*
X508729Y290135D01*
X509050Y289920D01*
X509345Y289672D01*
X509610Y289394D01*
X509840Y289091D01*
X510034Y288764D01*
X510193Y288410D01*
X510316Y288032D01*
X510405Y287629D01*
X510458Y287200D01*
X510475Y286746D01*
X510469Y286490D01*
X510451Y286241D01*
X510378Y285765D01*
X510257Y285321D01*
X510088Y284907D01*
X509870Y284524D01*
X509603Y284171D01*
X509288Y283849D01*
X508925Y283558D01*
X508515Y283300D01*
X508062Y283075D01*
X507564Y282886D01*
X507022Y282731D01*
X506436Y282610D01*
X505806Y282524D01*
X505132Y282472D01*
X504414Y282455D01*
G37*
%LPC*%
G36*
X505956Y284180D02*
X506305Y284191D01*
X506637Y284224D01*
X506954Y284279D01*
X507254Y284356D01*
X507538Y284455D01*
X507807Y284577D01*
X508059Y284720D01*
X508294Y284885D01*
X508508Y285068D01*
X508693Y285263D01*
X508849Y285470D01*
X508977Y285690D01*
X509077Y285922D01*
X509148Y286167D01*
X509191Y286424D01*
X509205Y286694D01*
X509193Y286971D01*
X509157Y287232D01*
X509097Y287479D01*
X509014Y287710D01*
X508906Y287925D01*
X508774Y288126D01*
X508618Y288311D01*
X508439Y288481D01*
X508238Y288632D01*
X508020Y288764D01*
X507783Y288875D01*
X507529Y288967D01*
X507257Y289038D01*
X506967Y289088D01*
X506658Y289119D01*
X506332Y289129D01*
X506007Y289118D01*
X505701Y289088D01*
X505414Y289036D01*
X505146Y288964D01*
X504897Y288872D01*
X504667Y288759D01*
X504457Y288626D01*
X504265Y288472D01*
X504095Y288299D01*
X503947Y288111D01*
X503822Y287906D01*
X503720Y287686D01*
X503641Y287449D01*
X503584Y287196D01*
X503550Y286927D01*
X503538Y286641D01*
X503548Y286372D01*
X503579Y286116D01*
X503629Y285873D01*
X503699Y285644D01*
X503790Y285428D01*
X503901Y285225D01*
X504031Y285035D01*
X504182Y284859D01*
X504351Y284700D01*
X504534Y284562D01*
X504733Y284445D01*
X504947Y284350D01*
X505177Y284276D01*
X505421Y284222D01*
X505681Y284191D01*
X505956Y284180D01*
G37*
%LPD*%
G36*
X510300Y243171D02*
X497959Y243171D01*
X497959Y245370D01*
X506516Y248654D01*
X507052Y248826D01*
X507624Y248991D01*
X508478Y249206D01*
X508037Y249314D01*
X507414Y249499D01*
X506833Y249687D01*
X506516Y249802D01*
X497959Y253025D01*
X497959Y255171D01*
X510300Y255171D01*
X510300Y253664D01*
X502067Y253664D01*
X500727Y253684D01*
X499439Y253743D01*
X500836Y253336D01*
X501407Y253149D01*
X501892Y252972D01*
X510300Y249784D01*
X510300Y248610D01*
X501892Y245379D01*
X500403Y244888D01*
X499439Y244599D01*
X500412Y244625D01*
X502067Y244660D01*
X510300Y244660D01*
X510300Y243171D01*
G37*
G36*
X499326Y270978D02*
X497959Y270978D01*
X497959Y281120D01*
X499326Y281120D01*
X499326Y276881D01*
X510300Y276881D01*
X510300Y275217D01*
X499326Y275217D01*
X499326Y270978D01*
G37*
G36*
X504073Y173187D02*
X503708Y173193D01*
X503353Y173212D01*
X503008Y173244D01*
X502673Y173288D01*
X502349Y173345D01*
X502034Y173415D01*
X501730Y173497D01*
X501435Y173592D01*
X501151Y173700D01*
X500877Y173820D01*
X500613Y173953D01*
X500359Y174099D01*
X499881Y174428D01*
X499444Y174807D01*
X499053Y175232D01*
X498877Y175460D01*
X498714Y175697D01*
X498564Y175944D01*
X498427Y176201D01*
X498303Y176468D01*
X498192Y176745D01*
X498095Y177032D01*
X498010Y177329D01*
X497938Y177636D01*
X497880Y177952D01*
X497834Y178279D01*
X497801Y178615D01*
X497782Y178962D01*
X497775Y179318D01*
X497787Y179781D01*
X497822Y180228D01*
X497881Y180660D01*
X497963Y181076D01*
X498068Y181477D01*
X498197Y181862D01*
X498349Y182231D01*
X498524Y182585D01*
X498722Y182921D01*
X498941Y183236D01*
X499181Y183531D01*
X499443Y183806D01*
X499725Y184060D01*
X500029Y184294D01*
X500354Y184507D01*
X500701Y184700D01*
X501066Y184872D01*
X501447Y185020D01*
X501844Y185146D01*
X502257Y185249D01*
X502687Y185329D01*
X503133Y185386D01*
X503595Y185420D01*
X504073Y185432D01*
X504549Y185420D01*
X505010Y185385D01*
X505457Y185327D01*
X505888Y185247D01*
X506304Y185142D01*
X506705Y185015D01*
X507091Y184865D01*
X507462Y184691D01*
X507815Y184496D01*
X508147Y184281D01*
X508458Y184046D01*
X508748Y183790D01*
X509016Y183515D01*
X509264Y183219D01*
X509490Y182903D01*
X509696Y182567D01*
X509878Y182214D01*
X510037Y181844D01*
X510171Y181459D01*
X510280Y181059D01*
X510366Y180643D01*
X510426Y180211D01*
X510463Y179764D01*
X510475Y179301D01*
X510463Y178834D01*
X510427Y178383D01*
X510367Y177948D01*
X510283Y177530D01*
X510174Y177128D01*
X510042Y176743D01*
X509885Y176373D01*
X509704Y176020D01*
X509501Y175686D01*
X509276Y175372D01*
X509030Y175078D01*
X508762Y174804D01*
X508472Y174551D01*
X508162Y174318D01*
X507829Y174106D01*
X507475Y173914D01*
X507103Y173744D01*
X506716Y173596D01*
X506313Y173471D01*
X505896Y173369D01*
X505463Y173289D01*
X505015Y173233D01*
X504551Y173198D01*
X504073Y173187D01*
G37*
%LPC*%
G36*
X504073Y174886D02*
X504638Y174905D01*
X505173Y174959D01*
X505679Y175051D01*
X506154Y175179D01*
X506599Y175343D01*
X507015Y175544D01*
X507400Y175781D01*
X507756Y176056D01*
X508075Y176362D01*
X508352Y176697D01*
X508586Y177060D01*
X508777Y177451D01*
X508926Y177871D01*
X509033Y178319D01*
X509096Y178796D01*
X509118Y179301D01*
X509097Y179819D01*
X509035Y180307D01*
X508932Y180764D01*
X508788Y181189D01*
X508603Y181584D01*
X508376Y181947D01*
X508108Y182279D01*
X507799Y182581D01*
X507453Y182849D01*
X507072Y183081D01*
X506658Y183277D01*
X506209Y183438D01*
X505726Y183563D01*
X505209Y183652D01*
X504658Y183706D01*
X504073Y183724D01*
X503512Y183706D01*
X502983Y183652D01*
X502484Y183562D01*
X502017Y183436D01*
X501580Y183274D01*
X501174Y183076D01*
X500799Y182842D01*
X500455Y182572D01*
X500148Y182269D01*
X499881Y181937D01*
X499655Y181574D01*
X499470Y181183D01*
X499326Y180761D01*
X499224Y180310D01*
X499162Y179829D01*
X499142Y179318D01*
X499162Y178803D01*
X499223Y178318D01*
X499324Y177864D01*
X499466Y177439D01*
X499648Y177045D01*
X499871Y176681D01*
X500134Y176346D01*
X500438Y176042D01*
X500778Y175771D01*
X501151Y175537D01*
X501557Y175338D01*
X501995Y175175D01*
X502465Y175049D01*
X502969Y174958D01*
X503504Y174904D01*
X504073Y174886D01*
G37*
%LPD*%
G36*
X510300Y158871D02*
X497959Y158871D01*
X497959Y161070D01*
X506516Y164354D01*
X507052Y164526D01*
X507624Y164691D01*
X508478Y164906D01*
X508037Y165014D01*
X507414Y165199D01*
X506833Y165387D01*
X506516Y165502D01*
X497959Y168725D01*
X497959Y170871D01*
X510300Y170871D01*
X510300Y169364D01*
X502067Y169364D01*
X500727Y169384D01*
X499439Y169443D01*
X500836Y169036D01*
X501407Y168849D01*
X501892Y168672D01*
X510300Y165484D01*
X510300Y164310D01*
X501892Y161079D01*
X500403Y160588D01*
X499439Y160299D01*
X500412Y160325D01*
X502067Y160360D01*
X510300Y160360D01*
X510300Y158871D01*
G37*
G36*
X499326Y186678D02*
X497959Y186678D01*
X497959Y196820D01*
X499326Y196820D01*
X499326Y192581D01*
X510300Y192581D01*
X510300Y190917D01*
X499326Y190917D01*
X499326Y186678D01*
G37*
G36*
X499299Y198163D02*
X497959Y198163D01*
X497959Y206318D01*
X499238Y206318D01*
X500605Y205441D01*
X501815Y204704D01*
X502869Y204106D01*
X503766Y203646D01*
X504582Y203281D01*
X505393Y202964D01*
X506198Y202696D01*
X506998Y202477D01*
X507802Y202306D01*
X508621Y202185D01*
X509453Y202112D01*
X509875Y202093D01*
X510300Y202087D01*
X510300Y200441D01*
X509705Y200456D01*
X509102Y200503D01*
X508491Y200582D01*
X507873Y200691D01*
X507247Y200832D01*
X506612Y201005D01*
X505971Y201208D01*
X505321Y201443D01*
X504655Y201715D01*
X503964Y202029D01*
X503249Y202385D01*
X502508Y202782D01*
X501743Y203222D01*
X500953Y203704D01*
X500139Y204228D01*
X499299Y204794D01*
X499299Y198163D01*
G37*
G36*
X504073Y88887D02*
X503708Y88893D01*
X503353Y88912D01*
X503008Y88944D01*
X502673Y88988D01*
X502349Y89045D01*
X502034Y89115D01*
X501730Y89197D01*
X501435Y89292D01*
X501151Y89400D01*
X500877Y89520D01*
X500613Y89653D01*
X500359Y89799D01*
X499881Y90128D01*
X499444Y90507D01*
X499053Y90932D01*
X498877Y91160D01*
X498714Y91397D01*
X498564Y91644D01*
X498427Y91901D01*
X498303Y92168D01*
X498192Y92445D01*
X498095Y92732D01*
X498010Y93029D01*
X497938Y93336D01*
X497880Y93652D01*
X497834Y93979D01*
X497801Y94315D01*
X497782Y94662D01*
X497775Y95018D01*
X497787Y95481D01*
X497822Y95928D01*
X497881Y96360D01*
X497963Y96776D01*
X498068Y97177D01*
X498197Y97562D01*
X498349Y97931D01*
X498524Y98285D01*
X498722Y98621D01*
X498941Y98936D01*
X499181Y99231D01*
X499443Y99506D01*
X499725Y99760D01*
X500029Y99994D01*
X500354Y100207D01*
X500701Y100400D01*
X501066Y100572D01*
X501447Y100720D01*
X501844Y100846D01*
X502257Y100949D01*
X502687Y101029D01*
X503133Y101086D01*
X503595Y101120D01*
X504073Y101132D01*
X504549Y101120D01*
X505010Y101085D01*
X505457Y101027D01*
X505888Y100947D01*
X506304Y100842D01*
X506705Y100715D01*
X507091Y100565D01*
X507462Y100391D01*
X507815Y100196D01*
X508147Y99981D01*
X508458Y99746D01*
X508748Y99490D01*
X509016Y99215D01*
X509264Y98919D01*
X509490Y98603D01*
X509696Y98267D01*
X509878Y97914D01*
X510037Y97544D01*
X510171Y97159D01*
X510280Y96759D01*
X510366Y96343D01*
X510426Y95911D01*
X510463Y95464D01*
X510475Y95001D01*
X510463Y94534D01*
X510427Y94083D01*
X510367Y93648D01*
X510283Y93230D01*
X510174Y92828D01*
X510042Y92443D01*
X509885Y92073D01*
X509704Y91720D01*
X509501Y91386D01*
X509276Y91072D01*
X509030Y90778D01*
X508762Y90504D01*
X508472Y90251D01*
X508162Y90018D01*
X507829Y89806D01*
X507475Y89614D01*
X507103Y89444D01*
X506716Y89296D01*
X506313Y89171D01*
X505896Y89069D01*
X505463Y88989D01*
X505015Y88933D01*
X504551Y88898D01*
X504073Y88887D01*
G37*
%LPC*%
G36*
X504073Y90586D02*
X504638Y90605D01*
X505173Y90659D01*
X505679Y90751D01*
X506154Y90879D01*
X506599Y91043D01*
X507015Y91244D01*
X507400Y91481D01*
X507756Y91756D01*
X508075Y92062D01*
X508352Y92397D01*
X508586Y92760D01*
X508777Y93151D01*
X508926Y93571D01*
X509033Y94019D01*
X509096Y94496D01*
X509118Y95001D01*
X509097Y95519D01*
X509035Y96007D01*
X508932Y96464D01*
X508788Y96889D01*
X508603Y97284D01*
X508376Y97647D01*
X508108Y97979D01*
X507799Y98281D01*
X507453Y98549D01*
X507072Y98781D01*
X506658Y98977D01*
X506209Y99138D01*
X505726Y99263D01*
X505209Y99352D01*
X504658Y99406D01*
X504073Y99424D01*
X503512Y99406D01*
X502983Y99352D01*
X502484Y99262D01*
X502017Y99136D01*
X501580Y98974D01*
X501174Y98776D01*
X500799Y98542D01*
X500455Y98272D01*
X500148Y97969D01*
X499881Y97637D01*
X499655Y97274D01*
X499470Y96883D01*
X499326Y96461D01*
X499224Y96010D01*
X499162Y95529D01*
X499142Y95018D01*
X499162Y94503D01*
X499223Y94018D01*
X499324Y93564D01*
X499466Y93139D01*
X499648Y92745D01*
X499871Y92381D01*
X500134Y92046D01*
X500438Y91742D01*
X500778Y91471D01*
X501151Y91237D01*
X501557Y91038D01*
X501995Y90875D01*
X502465Y90749D01*
X502969Y90658D01*
X503504Y90604D01*
X504073Y90586D01*
G37*
%LPD*%
G36*
X506875Y113723D02*
X506579Y113734D01*
X506295Y113767D01*
X506023Y113821D01*
X505763Y113896D01*
X505515Y113994D01*
X505279Y114112D01*
X505055Y114253D01*
X504843Y114415D01*
X504648Y114594D01*
X504472Y114785D01*
X504317Y114988D01*
X504182Y115203D01*
X504068Y115431D01*
X503973Y115670D01*
X503899Y115921D01*
X503845Y116184D01*
X503810Y116184D01*
X503742Y115939D01*
X503657Y115707D01*
X503555Y115489D01*
X503436Y115283D01*
X503299Y115091D01*
X503145Y114913D01*
X502974Y114747D01*
X502785Y114595D01*
X502584Y114458D01*
X502374Y114340D01*
X502156Y114240D01*
X501929Y114158D01*
X501694Y114094D01*
X501450Y114049D01*
X501198Y114021D01*
X500937Y114012D01*
X500593Y114029D01*
X500265Y114078D01*
X499955Y114161D01*
X499661Y114276D01*
X499383Y114425D01*
X499122Y114606D01*
X498878Y114820D01*
X498651Y115068D01*
X498446Y115343D01*
X498268Y115641D01*
X498117Y115961D01*
X497994Y116304D01*
X497898Y116669D01*
X497830Y117057D01*
X497789Y117468D01*
X497775Y117901D01*
X497789Y118345D01*
X497829Y118764D01*
X497896Y119160D01*
X497990Y119531D01*
X498111Y119879D01*
X498258Y120203D01*
X498432Y120502D01*
X498634Y120778D01*
X498858Y121026D01*
X499101Y121240D01*
X499362Y121421D01*
X499643Y121570D01*
X499943Y121685D01*
X500261Y121768D01*
X500598Y121817D01*
X500955Y121834D01*
X501215Y121825D01*
X501468Y121797D01*
X501711Y121751D01*
X501947Y121687D01*
X502173Y121604D01*
X502392Y121504D01*
X502601Y121384D01*
X502803Y121247D01*
X502991Y121093D01*
X503160Y120927D01*
X503175Y120909D01*
X503311Y120746D01*
X503444Y120553D01*
X503559Y120346D01*
X503655Y120125D01*
X503733Y119891D01*
X503792Y119644D01*
X503827Y119644D01*
X503885Y119931D01*
X503962Y120202D01*
X504059Y120457D01*
X504175Y120695D01*
X504310Y120917D01*
X504464Y121122D01*
X504637Y121311D01*
X504793Y121450D01*
X504830Y121483D01*
X505039Y121637D01*
X505261Y121771D01*
X505495Y121884D01*
X505742Y121976D01*
X506002Y122048D01*
X506275Y122099D01*
X506560Y122130D01*
X506858Y122140D01*
X507273Y122123D01*
X507665Y122072D01*
X508033Y121987D01*
X508378Y121869D01*
X508699Y121716D01*
X508996Y121529D01*
X509270Y121309D01*
X509521Y121054D01*
X509744Y120768D01*
X509938Y120452D01*
X510102Y120107D01*
X510237Y119732D01*
X510341Y119327D01*
X510416Y118893D01*
X510460Y118429D01*
X510475Y117936D01*
X510461Y117455D01*
X510417Y117000D01*
X510343Y116573D01*
X510241Y116172D01*
X510109Y115799D01*
X509948Y115452D01*
X509758Y115133D01*
X509538Y114840D01*
X509291Y114578D01*
X509020Y114351D01*
X508724Y114159D01*
X508404Y114002D01*
X508059Y113880D01*
X507689Y113793D01*
X507294Y113741D01*
X506875Y113723D01*
G37*
%LPC*%
G36*
X506744Y115352D02*
X507053Y115363D01*
X507341Y115393D01*
X507610Y115444D01*
X507859Y115515D01*
X508088Y115606D01*
X508297Y115718D01*
X508486Y115850D01*
X508656Y116003D01*
X508805Y116175D01*
X508934Y116368D01*
X509044Y116582D01*
X509134Y116816D01*
X509203Y117070D01*
X509253Y117344D01*
X509283Y117639D01*
X509293Y117954D01*
X509283Y118265D01*
X509254Y118556D01*
X509206Y118827D01*
X509138Y119077D01*
X509052Y119306D01*
X508945Y119515D01*
X508820Y119704D01*
X508675Y119872D01*
X508510Y120020D01*
X508321Y120148D01*
X508109Y120256D01*
X507875Y120345D01*
X507618Y120414D01*
X507338Y120463D01*
X507035Y120493D01*
X506709Y120502D01*
X506431Y120492D01*
X506171Y120460D01*
X505928Y120406D01*
X505703Y120332D01*
X505495Y120236D01*
X505306Y120118D01*
X505134Y119979D01*
X504979Y119819D01*
X504843Y119640D01*
X504724Y119443D01*
X504624Y119229D01*
X504542Y118998D01*
X504479Y118750D01*
X504433Y118484D01*
X504406Y118201D01*
X504397Y117901D01*
X504407Y117609D01*
X504436Y117334D01*
X504485Y117075D01*
X504553Y116833D01*
X504641Y116606D01*
X504749Y116397D01*
X504876Y116204D01*
X505023Y116027D01*
X505187Y115869D01*
X505365Y115732D01*
X505559Y115616D01*
X505766Y115521D01*
X505989Y115447D01*
X506226Y115395D01*
X506478Y115363D01*
X506744Y115352D01*
G37*
G36*
X501042Y115624D02*
X501299Y115633D01*
X501541Y115661D01*
X501766Y115708D01*
X501976Y115774D01*
X502170Y115858D01*
X502349Y115961D01*
X502511Y116083D01*
X502658Y116224D01*
X502789Y116382D01*
X502902Y116555D01*
X502997Y116743D01*
X503075Y116947D01*
X503136Y117167D01*
X503180Y117402D01*
X503206Y117653D01*
X503214Y117919D01*
X503206Y118188D01*
X503182Y118442D01*
X503142Y118678D01*
X503086Y118898D01*
X503014Y119102D01*
X502926Y119289D01*
X502822Y119459D01*
X502702Y119613D01*
X502564Y119750D01*
X502406Y119868D01*
X502228Y119968D01*
X502031Y120050D01*
X501813Y120114D01*
X501576Y120159D01*
X501319Y120187D01*
X501042Y120196D01*
X500789Y120187D01*
X500552Y120160D01*
X500331Y120115D01*
X500126Y120052D01*
X499938Y119972D01*
X499767Y119873D01*
X499611Y119757D01*
X499472Y119622D01*
X499350Y119470D01*
X499243Y119299D01*
X499153Y119111D01*
X499080Y118905D01*
X499023Y118681D01*
X498982Y118439D01*
X498957Y118179D01*
X498949Y117901D01*
X498957Y117631D01*
X498982Y117378D01*
X499023Y117141D01*
X499080Y116921D01*
X499154Y116718D01*
X499245Y116531D01*
X499351Y116360D01*
X499474Y116206D01*
X499614Y116070D01*
X499770Y115951D01*
X499941Y115851D01*
X500129Y115769D01*
X500333Y115706D01*
X500553Y115660D01*
X500790Y115633D01*
X501042Y115624D01*
G37*
%LPD*%
G36*
X510300Y74571D02*
X497959Y74571D01*
X497959Y76770D01*
X506516Y80054D01*
X507052Y80226D01*
X507624Y80391D01*
X508478Y80606D01*
X508037Y80714D01*
X507414Y80899D01*
X506833Y81087D01*
X506516Y81202D01*
X497959Y84425D01*
X497959Y86571D01*
X510300Y86571D01*
X510300Y85064D01*
X502067Y85064D01*
X500727Y85084D01*
X499439Y85143D01*
X500836Y84736D01*
X501407Y84549D01*
X501892Y84372D01*
X510300Y81184D01*
X510300Y80010D01*
X501892Y76779D01*
X500403Y76288D01*
X499439Y75999D01*
X500412Y76025D01*
X502067Y76060D01*
X510300Y76060D01*
X510300Y74571D01*
G37*
G36*
X499326Y102378D02*
X497959Y102378D01*
X497959Y112520D01*
X499326Y112520D01*
X499326Y108281D01*
X510300Y108281D01*
X510300Y106617D01*
X499326Y106617D01*
X499326Y102378D01*
G37*
G36*
X110752Y125462D02*
X110384Y125472D01*
X110029Y125500D01*
X109687Y125547D01*
X109358Y125614D01*
X109041Y125699D01*
X108738Y125803D01*
X108447Y125927D01*
X108169Y126069D01*
X107905Y126229D01*
X107658Y126406D01*
X107426Y126600D01*
X107211Y126811D01*
X107012Y127039D01*
X106829Y127284D01*
X106661Y127546D01*
X106510Y127824D01*
X106376Y128117D01*
X106260Y128422D01*
X106161Y128739D01*
X106081Y129068D01*
X106018Y129409D01*
X105974Y129762D01*
X105947Y130127D01*
X105938Y130504D01*
X105958Y131071D01*
X106018Y131606D01*
X106117Y132109D01*
X106257Y132581D01*
X106436Y133020D01*
X106655Y133428D01*
X106915Y133804D01*
X107214Y134149D01*
X107548Y134457D01*
X107914Y134724D01*
X108311Y134949D01*
X108740Y135134D01*
X109199Y135278D01*
X109690Y135381D01*
X110212Y135442D01*
X110766Y135463D01*
X111130Y135453D01*
X111482Y135426D01*
X111822Y135380D01*
X112150Y135315D01*
X112466Y135232D01*
X112769Y135131D01*
X113060Y135011D01*
X113338Y134873D01*
X113603Y134717D01*
X113851Y134545D01*
X114083Y134356D01*
X114299Y134150D01*
X114500Y133927D01*
X114684Y133688D01*
X114852Y133432D01*
X115004Y133159D01*
X115139Y132872D01*
X115256Y132572D01*
X115355Y132259D01*
X115436Y131933D01*
X115499Y131595D01*
X115544Y131244D01*
X115571Y130880D01*
X115580Y130504D01*
X115571Y130129D01*
X115543Y129765D01*
X115498Y129414D01*
X115434Y129074D01*
X115352Y128747D01*
X115252Y128431D01*
X115134Y128127D01*
X114997Y127835D01*
X114843Y127557D01*
X114674Y127295D01*
X114489Y127051D01*
X114287Y126822D01*
X114070Y126611D01*
X113838Y126416D01*
X113589Y126238D01*
X113324Y126076D01*
X113046Y125932D01*
X112755Y125807D01*
X112452Y125702D01*
X112136Y125616D01*
X111809Y125548D01*
X111469Y125500D01*
X111116Y125472D01*
X110752Y125462D01*
G37*
%LPC*%
G36*
X110752Y126531D02*
X111160Y126547D01*
X111544Y126596D01*
X111904Y126677D01*
X112239Y126791D01*
X112550Y126937D01*
X112836Y127115D01*
X113098Y127326D01*
X113335Y127569D01*
X113546Y127842D01*
X113729Y128142D01*
X113883Y128468D01*
X114010Y128822D01*
X114108Y129202D01*
X114179Y129609D01*
X114221Y130043D01*
X114235Y130504D01*
X114221Y130945D01*
X114178Y131362D01*
X114107Y131755D01*
X114008Y132123D01*
X113881Y132467D01*
X113725Y132786D01*
X113540Y133081D01*
X113328Y133352D01*
X113089Y133595D01*
X112828Y133805D01*
X112542Y133983D01*
X112234Y134128D01*
X111902Y134241D01*
X111547Y134322D01*
X111168Y134371D01*
X110766Y134387D01*
X110360Y134371D01*
X109979Y134323D01*
X109621Y134243D01*
X109286Y134132D01*
X108976Y133988D01*
X108689Y133813D01*
X108426Y133605D01*
X108186Y133366D01*
X107973Y133098D01*
X107788Y132804D01*
X107631Y132485D01*
X107503Y132140D01*
X107404Y131769D01*
X107333Y131373D01*
X107290Y130951D01*
X107276Y130504D01*
X107290Y130059D01*
X107333Y129637D01*
X107405Y129239D01*
X107506Y128865D01*
X107635Y128514D01*
X107794Y128187D01*
X107981Y127883D01*
X108197Y127604D01*
X108438Y127352D01*
X108702Y127134D01*
X108987Y126950D01*
X109296Y126799D01*
X109626Y126682D01*
X109979Y126598D01*
X110354Y126548D01*
X110752Y126531D01*
G37*
%LPD*%
G36*
X98339Y125600D02*
X97021Y125600D01*
X97021Y135318D01*
X101111Y135318D01*
X101508Y135306D01*
X101882Y135270D01*
X102233Y135210D01*
X102561Y135126D01*
X102866Y135019D01*
X103148Y134887D01*
X103407Y134732D01*
X103642Y134552D01*
X103852Y134351D01*
X104035Y134130D01*
X104189Y133890D01*
X104315Y133630D01*
X104413Y133350D01*
X104483Y133051D01*
X104525Y132732D01*
X104539Y132394D01*
X104525Y132058D01*
X104483Y131739D01*
X104412Y131439D01*
X104314Y131156D01*
X104187Y130890D01*
X104033Y130643D01*
X103850Y130413D01*
X103639Y130200D01*
X103404Y130010D01*
X103149Y129844D01*
X102873Y129704D01*
X102578Y129590D01*
X102262Y129501D01*
X101926Y129437D01*
X101570Y129399D01*
X101194Y129386D01*
X98339Y129386D01*
X98339Y125600D01*
G37*
%LPC*%
G36*
X101008Y130428D02*
X101275Y130436D01*
X101525Y130458D01*
X101758Y130497D01*
X101973Y130550D01*
X102172Y130618D01*
X102353Y130702D01*
X102516Y130801D01*
X102663Y130916D01*
X102792Y131045D01*
X102904Y131190D01*
X102999Y131350D01*
X103077Y131526D01*
X103137Y131716D01*
X103180Y131922D01*
X103206Y132143D01*
X103215Y132380D01*
X103206Y132608D01*
X103179Y132821D01*
X103135Y133020D01*
X103073Y133203D01*
X102994Y133373D01*
X102897Y133527D01*
X102782Y133667D01*
X102649Y133792D01*
X102499Y133902D01*
X102331Y133998D01*
X102145Y134079D01*
X101942Y134145D01*
X101721Y134196D01*
X101483Y134233D01*
X101226Y134255D01*
X100952Y134263D01*
X98339Y134263D01*
X98339Y130428D01*
X101008Y130428D01*
G37*
%LPD*%
G36*
X121235Y125600D02*
X119924Y125600D01*
X119924Y134242D01*
X116586Y134242D01*
X116586Y135318D01*
X124573Y135318D01*
X124573Y134242D01*
X121235Y134242D01*
X121235Y125600D01*
G37*
G36*
X132060Y125600D02*
X125970Y125600D01*
X125970Y126655D01*
X128446Y126655D01*
X128446Y134132D01*
X126252Y132566D01*
X126252Y133738D01*
X128549Y135318D01*
X129694Y135318D01*
X129694Y126655D01*
X132060Y126655D01*
X132060Y125600D01*
G37*
G36*
X215052Y125462D02*
X214684Y125472D01*
X214329Y125500D01*
X213987Y125547D01*
X213658Y125614D01*
X213341Y125699D01*
X213038Y125803D01*
X212747Y125927D01*
X212469Y126069D01*
X212205Y126229D01*
X211958Y126406D01*
X211726Y126600D01*
X211511Y126811D01*
X211312Y127039D01*
X211129Y127284D01*
X210961Y127546D01*
X210810Y127824D01*
X210676Y128117D01*
X210560Y128422D01*
X210461Y128739D01*
X210381Y129068D01*
X210318Y129409D01*
X210274Y129762D01*
X210247Y130127D01*
X210238Y130504D01*
X210258Y131071D01*
X210318Y131606D01*
X210417Y132109D01*
X210557Y132581D01*
X210736Y133020D01*
X210955Y133428D01*
X211215Y133804D01*
X211514Y134149D01*
X211848Y134457D01*
X212214Y134724D01*
X212611Y134949D01*
X213040Y135134D01*
X213499Y135278D01*
X213990Y135381D01*
X214512Y135442D01*
X215066Y135463D01*
X215430Y135453D01*
X215782Y135426D01*
X216122Y135380D01*
X216450Y135315D01*
X216766Y135232D01*
X217069Y135131D01*
X217360Y135011D01*
X217638Y134873D01*
X217903Y134717D01*
X218151Y134545D01*
X218383Y134356D01*
X218599Y134150D01*
X218800Y133927D01*
X218984Y133688D01*
X219152Y133432D01*
X219304Y133159D01*
X219439Y132872D01*
X219556Y132572D01*
X219655Y132259D01*
X219736Y131933D01*
X219799Y131595D01*
X219844Y131244D01*
X219871Y130880D01*
X219880Y130504D01*
X219871Y130129D01*
X219843Y129765D01*
X219798Y129414D01*
X219734Y129074D01*
X219652Y128747D01*
X219552Y128431D01*
X219434Y128127D01*
X219297Y127835D01*
X219143Y127557D01*
X218974Y127295D01*
X218789Y127051D01*
X218587Y126822D01*
X218370Y126611D01*
X218138Y126416D01*
X217889Y126238D01*
X217624Y126076D01*
X217346Y125932D01*
X217055Y125807D01*
X216752Y125702D01*
X216436Y125616D01*
X216109Y125548D01*
X215769Y125500D01*
X215416Y125472D01*
X215052Y125462D01*
G37*
%LPC*%
G36*
X215052Y126531D02*
X215460Y126547D01*
X215844Y126596D01*
X216204Y126677D01*
X216539Y126791D01*
X216850Y126937D01*
X217136Y127115D01*
X217398Y127326D01*
X217635Y127569D01*
X217846Y127842D01*
X218029Y128142D01*
X218183Y128468D01*
X218310Y128822D01*
X218408Y129202D01*
X218479Y129609D01*
X218521Y130043D01*
X218535Y130504D01*
X218521Y130945D01*
X218478Y131362D01*
X218407Y131755D01*
X218308Y132123D01*
X218181Y132467D01*
X218025Y132786D01*
X217840Y133081D01*
X217628Y133352D01*
X217389Y133595D01*
X217128Y133805D01*
X216842Y133983D01*
X216534Y134128D01*
X216202Y134241D01*
X215847Y134322D01*
X215468Y134371D01*
X215066Y134387D01*
X214660Y134371D01*
X214279Y134323D01*
X213921Y134243D01*
X213586Y134132D01*
X213276Y133988D01*
X212989Y133813D01*
X212726Y133605D01*
X212486Y133366D01*
X212273Y133098D01*
X212088Y132804D01*
X211931Y132485D01*
X211803Y132140D01*
X211704Y131769D01*
X211633Y131373D01*
X211590Y130951D01*
X211576Y130504D01*
X211590Y130059D01*
X211633Y129637D01*
X211705Y129239D01*
X211806Y128865D01*
X211935Y128514D01*
X212094Y128187D01*
X212281Y127883D01*
X212497Y127604D01*
X212738Y127352D01*
X213002Y127134D01*
X213287Y126950D01*
X213596Y126799D01*
X213926Y126682D01*
X214279Y126598D01*
X214654Y126548D01*
X215052Y126531D01*
G37*
%LPD*%
G36*
X202639Y125600D02*
X201321Y125600D01*
X201321Y135318D01*
X205411Y135318D01*
X205808Y135306D01*
X206182Y135270D01*
X206533Y135210D01*
X206861Y135126D01*
X207166Y135019D01*
X207448Y134887D01*
X207707Y134732D01*
X207942Y134552D01*
X208152Y134351D01*
X208335Y134130D01*
X208489Y133890D01*
X208615Y133630D01*
X208713Y133350D01*
X208783Y133051D01*
X208825Y132732D01*
X208839Y132394D01*
X208825Y132058D01*
X208783Y131739D01*
X208712Y131439D01*
X208614Y131156D01*
X208487Y130890D01*
X208333Y130643D01*
X208150Y130413D01*
X207939Y130200D01*
X207704Y130010D01*
X207449Y129844D01*
X207173Y129704D01*
X206878Y129590D01*
X206562Y129501D01*
X206226Y129437D01*
X205870Y129399D01*
X205494Y129386D01*
X202639Y129386D01*
X202639Y125600D01*
G37*
%LPC*%
G36*
X205308Y130428D02*
X205575Y130436D01*
X205825Y130458D01*
X206058Y130497D01*
X206273Y130550D01*
X206472Y130618D01*
X206653Y130702D01*
X206816Y130801D01*
X206963Y130916D01*
X207092Y131045D01*
X207204Y131190D01*
X207299Y131350D01*
X207377Y131526D01*
X207437Y131716D01*
X207480Y131922D01*
X207506Y132143D01*
X207515Y132380D01*
X207506Y132608D01*
X207479Y132821D01*
X207435Y133020D01*
X207373Y133203D01*
X207294Y133373D01*
X207197Y133527D01*
X207082Y133667D01*
X206949Y133792D01*
X206799Y133902D01*
X206631Y133998D01*
X206445Y134079D01*
X206242Y134145D01*
X206021Y134196D01*
X205783Y134233D01*
X205526Y134255D01*
X205252Y134263D01*
X202639Y134263D01*
X202639Y130428D01*
X205308Y130428D01*
G37*
%LPD*%
G36*
X236339Y125600D02*
X229904Y125600D01*
X229904Y126476D01*
X230090Y126868D01*
X230295Y127235D01*
X230519Y127580D01*
X230763Y127900D01*
X231283Y128488D01*
X231828Y129017D01*
X232384Y129499D01*
X232935Y129945D01*
X233457Y130373D01*
X233925Y130800D01*
X234135Y131017D01*
X234324Y131238D01*
X234492Y131465D01*
X234639Y131697D01*
X234758Y131939D01*
X234843Y132197D01*
X234894Y132470D01*
X234911Y132759D01*
X234904Y132953D01*
X234882Y133137D01*
X234845Y133309D01*
X234794Y133469D01*
X234728Y133619D01*
X234648Y133757D01*
X234552Y133885D01*
X234442Y134001D01*
X234319Y134104D01*
X234185Y134194D01*
X234039Y134269D01*
X233882Y134332D01*
X233713Y134380D01*
X233533Y134414D01*
X233342Y134435D01*
X233139Y134442D01*
X232945Y134435D01*
X232760Y134415D01*
X232583Y134381D01*
X232415Y134334D01*
X232256Y134274D01*
X232106Y134199D01*
X231832Y134011D01*
X231710Y133898D01*
X231601Y133774D01*
X231506Y133639D01*
X231424Y133493D01*
X231355Y133336D01*
X231300Y133168D01*
X231257Y132990D01*
X231228Y132800D01*
X229959Y132918D01*
X230005Y133202D01*
X230073Y133471D01*
X230163Y133725D01*
X230276Y133964D01*
X230411Y134189D01*
X230568Y134398D01*
X230747Y134593D01*
X230949Y134773D01*
X231170Y134935D01*
X231405Y135075D01*
X231656Y135193D01*
X231922Y135290D01*
X232204Y135366D01*
X232500Y135420D01*
X232812Y135452D01*
X233139Y135463D01*
X233495Y135452D01*
X233831Y135419D01*
X234145Y135365D01*
X234438Y135289D01*
X234710Y135192D01*
X234960Y135073D01*
X235190Y134932D01*
X235398Y134770D01*
X235583Y134587D01*
X235743Y134387D01*
X235879Y134168D01*
X235990Y133931D01*
X236076Y133675D01*
X236138Y133402D01*
X236175Y133110D01*
X236187Y132800D01*
X236171Y132518D01*
X236123Y132237D01*
X236042Y131956D01*
X235929Y131676D01*
X235784Y131397D01*
X235607Y131118D01*
X235399Y130838D01*
X235160Y130559D01*
X234846Y130241D01*
X234416Y129847D01*
X233208Y128828D01*
X232496Y128211D01*
X232200Y127927D01*
X231946Y127659D01*
X231728Y127401D01*
X231542Y127148D01*
X231390Y126899D01*
X231270Y126655D01*
X236339Y126655D01*
X236339Y125600D01*
G37*
G36*
X225535Y125600D02*
X224224Y125600D01*
X224224Y134242D01*
X220886Y134242D01*
X220886Y135318D01*
X228873Y135318D01*
X228873Y134242D01*
X225535Y134242D01*
X225535Y125600D01*
G37*
G36*
X319352Y125462D02*
X318984Y125472D01*
X318629Y125500D01*
X318287Y125547D01*
X317958Y125614D01*
X317641Y125699D01*
X317338Y125803D01*
X317047Y125927D01*
X316769Y126069D01*
X316505Y126229D01*
X316258Y126406D01*
X316026Y126600D01*
X315811Y126811D01*
X315612Y127039D01*
X315429Y127284D01*
X315261Y127546D01*
X315110Y127824D01*
X314976Y128117D01*
X314860Y128422D01*
X314761Y128739D01*
X314681Y129068D01*
X314618Y129409D01*
X314574Y129762D01*
X314547Y130127D01*
X314538Y130504D01*
X314558Y131071D01*
X314618Y131606D01*
X314717Y132109D01*
X314857Y132581D01*
X315036Y133020D01*
X315255Y133428D01*
X315515Y133804D01*
X315814Y134149D01*
X316148Y134457D01*
X316514Y134724D01*
X316911Y134949D01*
X317340Y135134D01*
X317799Y135278D01*
X318290Y135381D01*
X318812Y135442D01*
X319366Y135463D01*
X319730Y135453D01*
X320082Y135426D01*
X320422Y135380D01*
X320750Y135315D01*
X321066Y135232D01*
X321369Y135131D01*
X321660Y135011D01*
X321938Y134873D01*
X322203Y134717D01*
X322451Y134545D01*
X322683Y134356D01*
X322899Y134150D01*
X323100Y133927D01*
X323284Y133688D01*
X323452Y133432D01*
X323604Y133159D01*
X323739Y132872D01*
X323856Y132572D01*
X323955Y132259D01*
X324036Y131933D01*
X324099Y131595D01*
X324144Y131244D01*
X324171Y130880D01*
X324180Y130504D01*
X324171Y130129D01*
X324143Y129765D01*
X324098Y129414D01*
X324034Y129074D01*
X323952Y128747D01*
X323852Y128431D01*
X323734Y128127D01*
X323597Y127835D01*
X323443Y127557D01*
X323274Y127295D01*
X323089Y127051D01*
X322887Y126822D01*
X322670Y126611D01*
X322438Y126416D01*
X322189Y126238D01*
X321924Y126076D01*
X321646Y125932D01*
X321355Y125807D01*
X321052Y125702D01*
X320736Y125616D01*
X320409Y125548D01*
X320069Y125500D01*
X319716Y125472D01*
X319352Y125462D01*
G37*
%LPC*%
G36*
X319352Y126531D02*
X319760Y126547D01*
X320144Y126596D01*
X320504Y126677D01*
X320839Y126791D01*
X321150Y126937D01*
X321436Y127115D01*
X321698Y127326D01*
X321935Y127569D01*
X322146Y127842D01*
X322329Y128142D01*
X322483Y128468D01*
X322610Y128822D01*
X322708Y129202D01*
X322779Y129609D01*
X322821Y130043D01*
X322835Y130504D01*
X322821Y130945D01*
X322778Y131362D01*
X322707Y131755D01*
X322608Y132123D01*
X322481Y132467D01*
X322325Y132786D01*
X322140Y133081D01*
X321928Y133352D01*
X321689Y133595D01*
X321428Y133805D01*
X321142Y133983D01*
X320834Y134128D01*
X320502Y134241D01*
X320147Y134322D01*
X319768Y134371D01*
X319366Y134387D01*
X318960Y134371D01*
X318579Y134323D01*
X318221Y134243D01*
X317886Y134132D01*
X317576Y133988D01*
X317289Y133813D01*
X317026Y133605D01*
X316786Y133366D01*
X316573Y133098D01*
X316388Y132804D01*
X316231Y132485D01*
X316103Y132140D01*
X316004Y131769D01*
X315933Y131373D01*
X315890Y130951D01*
X315876Y130504D01*
X315890Y130059D01*
X315933Y129637D01*
X316005Y129239D01*
X316106Y128865D01*
X316235Y128514D01*
X316394Y128187D01*
X316581Y127883D01*
X316797Y127604D01*
X317038Y127352D01*
X317302Y127134D01*
X317587Y126950D01*
X317896Y126799D01*
X318226Y126682D01*
X318579Y126598D01*
X318954Y126548D01*
X319352Y126531D01*
G37*
%LPD*%
G36*
X306939Y125600D02*
X305621Y125600D01*
X305621Y135318D01*
X309711Y135318D01*
X310108Y135306D01*
X310482Y135270D01*
X310833Y135210D01*
X311161Y135126D01*
X311466Y135019D01*
X311748Y134887D01*
X312007Y134732D01*
X312242Y134552D01*
X312452Y134351D01*
X312635Y134130D01*
X312789Y133890D01*
X312915Y133630D01*
X313013Y133350D01*
X313083Y133051D01*
X313125Y132732D01*
X313139Y132394D01*
X313125Y132058D01*
X313083Y131739D01*
X313012Y131439D01*
X312914Y131156D01*
X312787Y130890D01*
X312633Y130643D01*
X312450Y130413D01*
X312239Y130200D01*
X312004Y130010D01*
X311749Y129844D01*
X311473Y129704D01*
X311178Y129590D01*
X310862Y129501D01*
X310526Y129437D01*
X310170Y129399D01*
X309794Y129386D01*
X306939Y129386D01*
X306939Y125600D01*
G37*
%LPC*%
G36*
X309608Y130428D02*
X309875Y130436D01*
X310125Y130458D01*
X310358Y130497D01*
X310573Y130550D01*
X310772Y130618D01*
X310953Y130702D01*
X311116Y130801D01*
X311263Y130916D01*
X311392Y131045D01*
X311504Y131190D01*
X311599Y131350D01*
X311677Y131526D01*
X311737Y131716D01*
X311780Y131922D01*
X311806Y132143D01*
X311815Y132380D01*
X311806Y132608D01*
X311779Y132821D01*
X311735Y133020D01*
X311673Y133203D01*
X311594Y133373D01*
X311497Y133527D01*
X311382Y133667D01*
X311249Y133792D01*
X311099Y133902D01*
X310931Y133998D01*
X310745Y134079D01*
X310542Y134145D01*
X310321Y134196D01*
X310083Y134233D01*
X309826Y134255D01*
X309552Y134263D01*
X306939Y134263D01*
X306939Y130428D01*
X309608Y130428D01*
G37*
%LPD*%
G36*
X337432Y125462D02*
X337072Y125472D01*
X336731Y125504D01*
X336409Y125556D01*
X336105Y125628D01*
X335820Y125722D01*
X335554Y125836D01*
X335306Y125972D01*
X335077Y126128D01*
X334868Y126304D01*
X334682Y126500D01*
X334517Y126717D01*
X334376Y126953D01*
X334256Y127209D01*
X334159Y127485D01*
X334084Y127781D01*
X334032Y128097D01*
X335315Y128214D01*
X335352Y128005D01*
X335402Y127810D01*
X335465Y127628D01*
X335540Y127460D01*
X335628Y127305D01*
X335729Y127163D01*
X335842Y127035D01*
X335968Y126921D01*
X336107Y126820D01*
X336258Y126732D01*
X336422Y126658D01*
X336599Y126597D01*
X336788Y126550D01*
X336990Y126517D01*
X337205Y126496D01*
X337432Y126490D01*
X337660Y126497D01*
X337876Y126519D01*
X338079Y126555D01*
X338269Y126605D01*
X338447Y126670D01*
X338612Y126750D01*
X338764Y126844D01*
X338904Y126952D01*
X339030Y127074D01*
X339138Y127211D01*
X339230Y127361D01*
X339305Y127526D01*
X339364Y127705D01*
X339406Y127897D01*
X339431Y128104D01*
X339439Y128324D01*
X339429Y128517D01*
X339401Y128699D01*
X339353Y128870D01*
X339286Y129030D01*
X339201Y129180D01*
X339096Y129318D01*
X338972Y129446D01*
X338829Y129562D01*
X338668Y129667D01*
X338490Y129757D01*
X338295Y129833D01*
X338083Y129896D01*
X337854Y129945D01*
X337608Y129979D01*
X337346Y130000D01*
X337066Y130007D01*
X336363Y130007D01*
X336363Y131083D01*
X337039Y131083D01*
X337287Y131090D01*
X337521Y131111D01*
X337740Y131146D01*
X337945Y131194D01*
X338136Y131257D01*
X338312Y131333D01*
X338474Y131424D01*
X338622Y131528D01*
X338753Y131644D01*
X338868Y131772D01*
X338964Y131910D01*
X339043Y132058D01*
X339105Y132217D01*
X339149Y132387D01*
X339175Y132568D01*
X339184Y132759D01*
X339177Y132949D01*
X339155Y133128D01*
X339119Y133298D01*
X339069Y133457D01*
X339005Y133605D01*
X338926Y133744D01*
X338833Y133872D01*
X338725Y133990D01*
X338603Y134096D01*
X338468Y134188D01*
X338319Y134265D01*
X338155Y134329D01*
X337978Y134378D01*
X337787Y134414D01*
X337582Y134435D01*
X337363Y134442D01*
X337163Y134435D01*
X336972Y134416D01*
X336792Y134383D01*
X336621Y134337D01*
X336460Y134278D01*
X336308Y134205D01*
X336167Y134120D01*
X336035Y134021D01*
X335915Y133911D01*
X335808Y133789D01*
X335715Y133657D01*
X335634Y133514D01*
X335567Y133361D01*
X335513Y133196D01*
X335473Y133021D01*
X335446Y132835D01*
X334197Y132931D01*
X334243Y133222D01*
X334311Y133495D01*
X334401Y133753D01*
X334514Y133994D01*
X334649Y134218D01*
X334806Y134426D01*
X334985Y134618D01*
X335187Y134794D01*
X335407Y134950D01*
X335643Y135086D01*
X335894Y135201D01*
X336160Y135295D01*
X336442Y135369D01*
X336738Y135421D01*
X337050Y135452D01*
X337377Y135463D01*
X337732Y135452D01*
X338067Y135420D01*
X338382Y135367D01*
X338676Y135293D01*
X338950Y135197D01*
X339203Y135081D01*
X339437Y134943D01*
X339649Y134783D01*
X339839Y134605D01*
X340004Y134410D01*
X340143Y134199D01*
X340257Y133970D01*
X340346Y133725D01*
X340409Y133464D01*
X340447Y133185D01*
X340460Y132890D01*
X340452Y132663D01*
X340427Y132446D01*
X340386Y132241D01*
X340330Y132046D01*
X340256Y131862D01*
X340167Y131689D01*
X340061Y131527D01*
X339939Y131376D01*
X339801Y131236D01*
X339649Y131108D01*
X339482Y130992D01*
X339300Y130887D01*
X339104Y130795D01*
X338892Y130713D01*
X338666Y130644D01*
X338425Y130587D01*
X338425Y130559D01*
X338690Y130522D01*
X338940Y130469D01*
X339174Y130401D01*
X339394Y130318D01*
X339599Y130218D01*
X339788Y130104D01*
X339962Y129974D01*
X340122Y129828D01*
X340264Y129669D01*
X340387Y129501D01*
X340492Y129323D01*
X340577Y129135D01*
X340643Y128937D01*
X340691Y128729D01*
X340719Y128511D01*
X340729Y128283D01*
X340715Y127956D01*
X340675Y127648D01*
X340608Y127360D01*
X340515Y127090D01*
X340395Y126839D01*
X340248Y126607D01*
X340074Y126394D01*
X339873Y126200D01*
X339648Y126027D01*
X339400Y125877D01*
X339129Y125750D01*
X338835Y125647D01*
X338519Y125566D01*
X338179Y125508D01*
X337817Y125474D01*
X337432Y125462D01*
G37*
G36*
X329835Y125600D02*
X328524Y125600D01*
X328524Y134242D01*
X325186Y134242D01*
X325186Y135318D01*
X333173Y135318D01*
X333173Y134242D01*
X329835Y134242D01*
X329835Y125600D01*
G37*
G36*
X423652Y125462D02*
X423284Y125472D01*
X422929Y125500D01*
X422587Y125547D01*
X422258Y125614D01*
X421941Y125699D01*
X421638Y125803D01*
X421347Y125927D01*
X421069Y126069D01*
X420805Y126229D01*
X420558Y126406D01*
X420326Y126600D01*
X420111Y126811D01*
X419912Y127039D01*
X419729Y127284D01*
X419561Y127546D01*
X419410Y127824D01*
X419276Y128117D01*
X419160Y128422D01*
X419061Y128739D01*
X418981Y129068D01*
X418918Y129409D01*
X418874Y129762D01*
X418847Y130127D01*
X418838Y130504D01*
X418858Y131071D01*
X418918Y131606D01*
X419017Y132109D01*
X419157Y132581D01*
X419336Y133020D01*
X419555Y133428D01*
X419815Y133804D01*
X420114Y134149D01*
X420448Y134457D01*
X420814Y134724D01*
X421211Y134949D01*
X421640Y135134D01*
X422099Y135278D01*
X422590Y135381D01*
X423112Y135442D01*
X423666Y135463D01*
X424030Y135453D01*
X424382Y135426D01*
X424722Y135380D01*
X425050Y135315D01*
X425366Y135232D01*
X425669Y135131D01*
X425960Y135011D01*
X426238Y134873D01*
X426503Y134717D01*
X426751Y134545D01*
X426983Y134356D01*
X427199Y134150D01*
X427400Y133927D01*
X427584Y133688D01*
X427752Y133432D01*
X427904Y133159D01*
X428039Y132872D01*
X428156Y132572D01*
X428255Y132259D01*
X428336Y131933D01*
X428399Y131595D01*
X428444Y131244D01*
X428471Y130880D01*
X428480Y130504D01*
X428471Y130129D01*
X428443Y129765D01*
X428398Y129414D01*
X428334Y129074D01*
X428252Y128747D01*
X428152Y128431D01*
X428034Y128127D01*
X427897Y127835D01*
X427743Y127557D01*
X427574Y127295D01*
X427389Y127051D01*
X427187Y126822D01*
X426970Y126611D01*
X426738Y126416D01*
X426489Y126238D01*
X426224Y126076D01*
X425946Y125932D01*
X425655Y125807D01*
X425352Y125702D01*
X425036Y125616D01*
X424709Y125548D01*
X424369Y125500D01*
X424016Y125472D01*
X423652Y125462D01*
G37*
%LPC*%
G36*
X423652Y126531D02*
X424060Y126547D01*
X424444Y126596D01*
X424804Y126677D01*
X425139Y126791D01*
X425450Y126937D01*
X425736Y127115D01*
X425998Y127326D01*
X426235Y127569D01*
X426446Y127842D01*
X426629Y128142D01*
X426783Y128468D01*
X426910Y128822D01*
X427008Y129202D01*
X427079Y129609D01*
X427121Y130043D01*
X427135Y130504D01*
X427121Y130945D01*
X427078Y131362D01*
X427007Y131755D01*
X426908Y132123D01*
X426781Y132467D01*
X426625Y132786D01*
X426440Y133081D01*
X426228Y133352D01*
X425989Y133595D01*
X425728Y133805D01*
X425442Y133983D01*
X425134Y134128D01*
X424802Y134241D01*
X424447Y134322D01*
X424068Y134371D01*
X423666Y134387D01*
X423260Y134371D01*
X422879Y134323D01*
X422521Y134243D01*
X422186Y134132D01*
X421876Y133988D01*
X421589Y133813D01*
X421326Y133605D01*
X421086Y133366D01*
X420873Y133098D01*
X420688Y132804D01*
X420531Y132485D01*
X420403Y132140D01*
X420304Y131769D01*
X420233Y131373D01*
X420190Y130951D01*
X420176Y130504D01*
X420190Y130059D01*
X420233Y129637D01*
X420305Y129239D01*
X420406Y128865D01*
X420535Y128514D01*
X420694Y128187D01*
X420881Y127883D01*
X421097Y127604D01*
X421338Y127352D01*
X421602Y127134D01*
X421887Y126950D01*
X422196Y126799D01*
X422526Y126682D01*
X422879Y126598D01*
X423254Y126548D01*
X423652Y126531D01*
G37*
%LPD*%
G36*
X411239Y125600D02*
X409921Y125600D01*
X409921Y135318D01*
X414011Y135318D01*
X414408Y135306D01*
X414782Y135270D01*
X415133Y135210D01*
X415461Y135126D01*
X415766Y135019D01*
X416048Y134887D01*
X416307Y134732D01*
X416542Y134552D01*
X416752Y134351D01*
X416935Y134130D01*
X417089Y133890D01*
X417215Y133630D01*
X417313Y133350D01*
X417383Y133051D01*
X417425Y132732D01*
X417439Y132394D01*
X417425Y132058D01*
X417383Y131739D01*
X417312Y131439D01*
X417214Y131156D01*
X417087Y130890D01*
X416933Y130643D01*
X416750Y130413D01*
X416539Y130200D01*
X416304Y130010D01*
X416049Y129844D01*
X415773Y129704D01*
X415478Y129590D01*
X415162Y129501D01*
X414826Y129437D01*
X414470Y129399D01*
X414094Y129386D01*
X411239Y129386D01*
X411239Y125600D01*
G37*
%LPC*%
G36*
X413908Y130428D02*
X414175Y130436D01*
X414425Y130458D01*
X414658Y130497D01*
X414873Y130550D01*
X415072Y130618D01*
X415253Y130702D01*
X415416Y130801D01*
X415563Y130916D01*
X415692Y131045D01*
X415804Y131190D01*
X415899Y131350D01*
X415977Y131526D01*
X416037Y131716D01*
X416080Y131922D01*
X416106Y132143D01*
X416115Y132380D01*
X416106Y132608D01*
X416079Y132821D01*
X416035Y133020D01*
X415973Y133203D01*
X415894Y133373D01*
X415797Y133527D01*
X415682Y133667D01*
X415549Y133792D01*
X415399Y133902D01*
X415231Y133998D01*
X415045Y134079D01*
X414842Y134145D01*
X414621Y134196D01*
X414383Y134233D01*
X414126Y134255D01*
X413852Y134263D01*
X411239Y134263D01*
X411239Y130428D01*
X413908Y130428D01*
G37*
%LPD*%
G36*
X443870Y125600D02*
X442697Y125600D01*
X442697Y127800D01*
X438118Y127800D01*
X438118Y128766D01*
X442566Y135318D01*
X443870Y135318D01*
X443870Y128780D01*
X445236Y128780D01*
X445236Y127800D01*
X443870Y127800D01*
X443870Y125600D01*
G37*
%LPC*%
G36*
X442697Y128780D02*
X442697Y133918D01*
X442504Y133552D01*
X442235Y133097D01*
X439746Y129428D01*
X439373Y128917D01*
X439263Y128780D01*
X442697Y128780D01*
G37*
%LPD*%
G36*
X434135Y125600D02*
X432824Y125600D01*
X432824Y134242D01*
X429486Y134242D01*
X429486Y135318D01*
X437473Y135318D01*
X437473Y134242D01*
X434135Y134242D01*
X434135Y125600D01*
G37*
G36*
X424952Y654262D02*
X424584Y654272D01*
X424229Y654300D01*
X423887Y654347D01*
X423558Y654414D01*
X423241Y654499D01*
X422938Y654603D01*
X422647Y654727D01*
X422369Y654869D01*
X422105Y655029D01*
X421858Y655206D01*
X421626Y655400D01*
X421411Y655611D01*
X421212Y655839D01*
X421029Y656084D01*
X420861Y656346D01*
X420710Y656624D01*
X420576Y656917D01*
X420460Y657222D01*
X420361Y657539D01*
X420281Y657868D01*
X420218Y658209D01*
X420174Y658562D01*
X420147Y658927D01*
X420138Y659304D01*
X420158Y659871D01*
X420218Y660406D01*
X420317Y660909D01*
X420457Y661381D01*
X420636Y661820D01*
X420855Y662228D01*
X421115Y662604D01*
X421414Y662949D01*
X421748Y663257D01*
X422114Y663524D01*
X422511Y663749D01*
X422940Y663934D01*
X423399Y664078D01*
X423890Y664181D01*
X424412Y664242D01*
X424966Y664263D01*
X425330Y664253D01*
X425682Y664226D01*
X426022Y664180D01*
X426350Y664115D01*
X426666Y664032D01*
X426969Y663931D01*
X427260Y663811D01*
X427538Y663673D01*
X427803Y663517D01*
X428051Y663345D01*
X428283Y663156D01*
X428499Y662950D01*
X428700Y662727D01*
X428884Y662488D01*
X429052Y662232D01*
X429204Y661959D01*
X429339Y661672D01*
X429456Y661372D01*
X429555Y661059D01*
X429636Y660733D01*
X429699Y660395D01*
X429744Y660044D01*
X429771Y659680D01*
X429780Y659304D01*
X429771Y658929D01*
X429743Y658565D01*
X429698Y658214D01*
X429634Y657874D01*
X429552Y657547D01*
X429452Y657231D01*
X429334Y656927D01*
X429197Y656635D01*
X429043Y656357D01*
X428874Y656095D01*
X428689Y655851D01*
X428487Y655622D01*
X428270Y655411D01*
X428038Y655216D01*
X427789Y655038D01*
X427524Y654876D01*
X427246Y654732D01*
X426955Y654607D01*
X426652Y654502D01*
X426336Y654416D01*
X426009Y654348D01*
X425669Y654300D01*
X425316Y654272D01*
X424952Y654262D01*
G37*
%LPC*%
G36*
X424952Y655331D02*
X425360Y655347D01*
X425744Y655396D01*
X426104Y655477D01*
X426439Y655591D01*
X426750Y655737D01*
X427036Y655915D01*
X427298Y656126D01*
X427535Y656369D01*
X427746Y656642D01*
X427929Y656942D01*
X428083Y657268D01*
X428210Y657622D01*
X428308Y658002D01*
X428379Y658409D01*
X428421Y658843D01*
X428435Y659304D01*
X428421Y659745D01*
X428378Y660162D01*
X428307Y660555D01*
X428208Y660923D01*
X428081Y661267D01*
X427925Y661586D01*
X427740Y661881D01*
X427528Y662152D01*
X427289Y662395D01*
X427028Y662605D01*
X426742Y662783D01*
X426434Y662928D01*
X426102Y663041D01*
X425747Y663122D01*
X425368Y663171D01*
X424966Y663187D01*
X424560Y663171D01*
X424179Y663123D01*
X423821Y663043D01*
X423486Y662932D01*
X423176Y662788D01*
X422889Y662613D01*
X422626Y662405D01*
X422386Y662166D01*
X422173Y661898D01*
X421988Y661604D01*
X421831Y661285D01*
X421703Y660940D01*
X421604Y660569D01*
X421533Y660173D01*
X421490Y659751D01*
X421476Y659304D01*
X421490Y658859D01*
X421533Y658437D01*
X421605Y658039D01*
X421706Y657665D01*
X421835Y657314D01*
X421994Y656987D01*
X422181Y656683D01*
X422397Y656404D01*
X422638Y656152D01*
X422902Y655934D01*
X423187Y655750D01*
X423496Y655599D01*
X423826Y655482D01*
X424179Y655398D01*
X424554Y655348D01*
X424952Y655331D01*
G37*
%LPD*%
G36*
X412539Y654400D02*
X411221Y654400D01*
X411221Y664118D01*
X415311Y664118D01*
X415708Y664106D01*
X416082Y664070D01*
X416433Y664010D01*
X416761Y663926D01*
X417066Y663819D01*
X417348Y663687D01*
X417607Y663532D01*
X417842Y663352D01*
X418052Y663151D01*
X418235Y662930D01*
X418389Y662690D01*
X418515Y662430D01*
X418613Y662150D01*
X418683Y661851D01*
X418725Y661532D01*
X418739Y661194D01*
X418725Y660858D01*
X418683Y660539D01*
X418612Y660239D01*
X418514Y659956D01*
X418387Y659690D01*
X418233Y659443D01*
X418050Y659213D01*
X417839Y659000D01*
X417604Y658810D01*
X417349Y658644D01*
X417073Y658504D01*
X416778Y658390D01*
X416462Y658301D01*
X416126Y658237D01*
X415770Y658199D01*
X415394Y658186D01*
X412539Y658186D01*
X412539Y654400D01*
G37*
%LPC*%
G36*
X415208Y659228D02*
X415475Y659236D01*
X415725Y659258D01*
X415958Y659297D01*
X416173Y659350D01*
X416372Y659418D01*
X416553Y659502D01*
X416716Y659601D01*
X416863Y659716D01*
X416992Y659845D01*
X417104Y659990D01*
X417199Y660150D01*
X417277Y660326D01*
X417337Y660516D01*
X417380Y660722D01*
X417406Y660943D01*
X417415Y661180D01*
X417406Y661408D01*
X417379Y661621D01*
X417335Y661820D01*
X417273Y662003D01*
X417194Y662173D01*
X417097Y662327D01*
X416982Y662467D01*
X416849Y662592D01*
X416699Y662702D01*
X416531Y662798D01*
X416345Y662879D01*
X416142Y662945D01*
X415921Y662996D01*
X415683Y663033D01*
X415426Y663055D01*
X415152Y663063D01*
X412539Y663063D01*
X412539Y659228D01*
X415208Y659228D01*
G37*
%LPD*%
G36*
X442908Y654262D02*
X442576Y654271D01*
X442261Y654299D01*
X441962Y654346D01*
X441680Y654410D01*
X441414Y654494D01*
X441165Y654596D01*
X440931Y654716D01*
X440715Y654855D01*
X440515Y655012D01*
X440336Y655185D01*
X440175Y655375D01*
X440033Y655581D01*
X439911Y655804D01*
X439808Y656044D01*
X439724Y656300D01*
X439659Y656573D01*
X440915Y656717D01*
X441032Y656380D01*
X441188Y656087D01*
X441383Y655839D01*
X441616Y655636D01*
X441888Y655479D01*
X442199Y655366D01*
X442548Y655298D01*
X442935Y655276D01*
X443179Y655285D01*
X443408Y655314D01*
X443624Y655361D01*
X443827Y655427D01*
X444016Y655512D01*
X444191Y655615D01*
X444353Y655738D01*
X444501Y655879D01*
X444634Y656037D01*
X444748Y656209D01*
X444846Y656396D01*
X444925Y656596D01*
X444987Y656810D01*
X445031Y657039D01*
X445058Y657281D01*
X445067Y657538D01*
X445058Y657762D01*
X445031Y657975D01*
X444987Y658177D01*
X444924Y658367D01*
X444844Y658547D01*
X444746Y658716D01*
X444631Y658874D01*
X444498Y659021D01*
X444349Y659154D01*
X444188Y659268D01*
X444015Y659366D01*
X443829Y659445D01*
X443631Y659507D01*
X443421Y659551D01*
X443198Y659578D01*
X442963Y659587D01*
X442716Y659577D01*
X442477Y659547D01*
X442247Y659497D01*
X442025Y659428D01*
X441808Y659335D01*
X441590Y659214D01*
X441373Y659066D01*
X441156Y658890D01*
X439942Y658890D01*
X440266Y664118D01*
X445791Y664118D01*
X445791Y663063D01*
X441397Y663063D01*
X441211Y659980D01*
X441419Y660125D01*
X441639Y660251D01*
X441872Y660358D01*
X442116Y660445D01*
X442373Y660513D01*
X442643Y660562D01*
X442924Y660591D01*
X443218Y660600D01*
X443568Y660587D01*
X443899Y660548D01*
X444212Y660482D01*
X444507Y660390D01*
X444784Y660272D01*
X445042Y660127D01*
X445282Y659956D01*
X445504Y659759D01*
X445704Y659541D01*
X445877Y659306D01*
X446024Y659056D01*
X446143Y658790D01*
X446236Y658508D01*
X446303Y658210D01*
X446343Y657896D01*
X446356Y657566D01*
X446342Y657191D01*
X446299Y656838D01*
X446228Y656504D01*
X446128Y656191D01*
X445999Y655899D01*
X445842Y655627D01*
X445657Y655376D01*
X445442Y655145D01*
X445203Y654938D01*
X444941Y654759D01*
X444658Y654607D01*
X444352Y654483D01*
X444024Y654386D01*
X443674Y654317D01*
X443302Y654276D01*
X442908Y654262D01*
G37*
G36*
X435435Y654400D02*
X434124Y654400D01*
X434124Y663042D01*
X430786Y663042D01*
X430786Y664118D01*
X438773Y664118D01*
X438773Y663042D01*
X435435Y663042D01*
X435435Y654400D01*
G37*
G36*
X320652Y654262D02*
X320284Y654272D01*
X319929Y654300D01*
X319587Y654347D01*
X319258Y654414D01*
X318941Y654499D01*
X318638Y654603D01*
X318347Y654727D01*
X318069Y654869D01*
X317805Y655029D01*
X317558Y655206D01*
X317326Y655400D01*
X317111Y655611D01*
X316912Y655839D01*
X316729Y656084D01*
X316561Y656346D01*
X316410Y656624D01*
X316276Y656917D01*
X316160Y657222D01*
X316061Y657539D01*
X315981Y657868D01*
X315918Y658209D01*
X315874Y658562D01*
X315847Y658927D01*
X315838Y659304D01*
X315858Y659871D01*
X315918Y660406D01*
X316017Y660909D01*
X316157Y661381D01*
X316336Y661820D01*
X316555Y662228D01*
X316815Y662604D01*
X317114Y662949D01*
X317448Y663257D01*
X317814Y663524D01*
X318211Y663749D01*
X318640Y663934D01*
X319099Y664078D01*
X319590Y664181D01*
X320112Y664242D01*
X320666Y664263D01*
X321030Y664253D01*
X321382Y664226D01*
X321722Y664180D01*
X322050Y664115D01*
X322366Y664032D01*
X322669Y663931D01*
X322960Y663811D01*
X323238Y663673D01*
X323503Y663517D01*
X323751Y663345D01*
X323983Y663156D01*
X324199Y662950D01*
X324400Y662727D01*
X324584Y662488D01*
X324752Y662232D01*
X324904Y661959D01*
X325039Y661672D01*
X325156Y661372D01*
X325255Y661059D01*
X325336Y660733D01*
X325399Y660395D01*
X325444Y660044D01*
X325471Y659680D01*
X325480Y659304D01*
X325471Y658929D01*
X325443Y658565D01*
X325398Y658214D01*
X325334Y657874D01*
X325252Y657547D01*
X325152Y657231D01*
X325034Y656927D01*
X324897Y656635D01*
X324743Y656357D01*
X324574Y656095D01*
X324389Y655851D01*
X324187Y655622D01*
X323970Y655411D01*
X323738Y655216D01*
X323489Y655038D01*
X323224Y654876D01*
X322946Y654732D01*
X322655Y654607D01*
X322352Y654502D01*
X322036Y654416D01*
X321709Y654348D01*
X321369Y654300D01*
X321016Y654272D01*
X320652Y654262D01*
G37*
%LPC*%
G36*
X320652Y655331D02*
X321060Y655347D01*
X321444Y655396D01*
X321804Y655477D01*
X322139Y655591D01*
X322450Y655737D01*
X322736Y655915D01*
X322998Y656126D01*
X323235Y656369D01*
X323446Y656642D01*
X323629Y656942D01*
X323783Y657268D01*
X323910Y657622D01*
X324008Y658002D01*
X324079Y658409D01*
X324121Y658843D01*
X324135Y659304D01*
X324121Y659745D01*
X324078Y660162D01*
X324007Y660555D01*
X323908Y660923D01*
X323781Y661267D01*
X323625Y661586D01*
X323440Y661881D01*
X323228Y662152D01*
X322989Y662395D01*
X322728Y662605D01*
X322442Y662783D01*
X322134Y662928D01*
X321802Y663041D01*
X321447Y663122D01*
X321068Y663171D01*
X320666Y663187D01*
X320260Y663171D01*
X319879Y663123D01*
X319521Y663043D01*
X319186Y662932D01*
X318876Y662788D01*
X318589Y662613D01*
X318326Y662405D01*
X318086Y662166D01*
X317873Y661898D01*
X317688Y661604D01*
X317531Y661285D01*
X317403Y660940D01*
X317304Y660569D01*
X317233Y660173D01*
X317190Y659751D01*
X317176Y659304D01*
X317190Y658859D01*
X317233Y658437D01*
X317305Y658039D01*
X317406Y657665D01*
X317535Y657314D01*
X317694Y656987D01*
X317881Y656683D01*
X318097Y656404D01*
X318338Y656152D01*
X318602Y655934D01*
X318887Y655750D01*
X319196Y655599D01*
X319526Y655482D01*
X319879Y655398D01*
X320254Y655348D01*
X320652Y655331D01*
G37*
%LPD*%
G36*
X308239Y654400D02*
X306921Y654400D01*
X306921Y664118D01*
X311011Y664118D01*
X311408Y664106D01*
X311782Y664070D01*
X312133Y664010D01*
X312461Y663926D01*
X312766Y663819D01*
X313048Y663687D01*
X313307Y663532D01*
X313542Y663352D01*
X313752Y663151D01*
X313935Y662930D01*
X314089Y662690D01*
X314215Y662430D01*
X314313Y662150D01*
X314383Y661851D01*
X314425Y661532D01*
X314439Y661194D01*
X314425Y660858D01*
X314383Y660539D01*
X314312Y660239D01*
X314214Y659956D01*
X314087Y659690D01*
X313933Y659443D01*
X313750Y659213D01*
X313539Y659000D01*
X313304Y658810D01*
X313049Y658644D01*
X312773Y658504D01*
X312478Y658390D01*
X312162Y658301D01*
X311826Y658237D01*
X311470Y658199D01*
X311094Y658186D01*
X308239Y658186D01*
X308239Y654400D01*
G37*
%LPC*%
G36*
X310908Y659228D02*
X311175Y659236D01*
X311425Y659258D01*
X311658Y659297D01*
X311873Y659350D01*
X312072Y659418D01*
X312253Y659502D01*
X312416Y659601D01*
X312563Y659716D01*
X312692Y659845D01*
X312804Y659990D01*
X312899Y660150D01*
X312977Y660326D01*
X313037Y660516D01*
X313080Y660722D01*
X313106Y660943D01*
X313115Y661180D01*
X313106Y661408D01*
X313079Y661621D01*
X313035Y661820D01*
X312973Y662003D01*
X312894Y662173D01*
X312797Y662327D01*
X312682Y662467D01*
X312549Y662592D01*
X312399Y662702D01*
X312231Y662798D01*
X312045Y662879D01*
X311842Y662945D01*
X311621Y662996D01*
X311383Y663033D01*
X311126Y663055D01*
X310852Y663063D01*
X308239Y663063D01*
X308239Y659228D01*
X310908Y659228D01*
G37*
%LPD*%
G36*
X338891Y654262D02*
X338492Y654281D01*
X338118Y654338D01*
X337768Y654434D01*
X337442Y654567D01*
X337140Y654739D01*
X336863Y654949D01*
X336609Y655197D01*
X336380Y655483D01*
X336176Y655805D01*
X336000Y656163D01*
X335850Y656555D01*
X335728Y656981D01*
X335633Y657443D01*
X335565Y657939D01*
X335525Y658469D01*
X335511Y659035D01*
X335525Y659648D01*
X335568Y660224D01*
X335638Y660763D01*
X335737Y661266D01*
X335864Y661732D01*
X336019Y662162D01*
X336203Y662555D01*
X336415Y662911D01*
X336652Y663228D01*
X336914Y663502D01*
X337200Y663735D01*
X337509Y663925D01*
X337843Y664073D01*
X338200Y664178D01*
X338582Y664242D01*
X338987Y664263D01*
X339256Y664255D01*
X339512Y664232D01*
X339755Y664193D01*
X339985Y664139D01*
X340203Y664069D01*
X340408Y663984D01*
X340601Y663884D01*
X340780Y663768D01*
X340947Y663636D01*
X341101Y663489D01*
X341243Y663327D01*
X341372Y663149D01*
X341488Y662956D01*
X341591Y662747D01*
X341682Y662523D01*
X341760Y662283D01*
X340573Y662069D01*
X340468Y662347D01*
X340336Y662588D01*
X340177Y662792D01*
X339991Y662959D01*
X339777Y663089D01*
X339536Y663182D01*
X339268Y663237D01*
X338973Y663256D01*
X338715Y663240D01*
X338472Y663194D01*
X338244Y663117D01*
X338031Y663008D01*
X337833Y662869D01*
X337650Y662699D01*
X337482Y662498D01*
X337328Y662266D01*
X337192Y662005D01*
X337073Y661716D01*
X336973Y661399D01*
X336891Y661055D01*
X336828Y660683D01*
X336782Y660283D01*
X336755Y659855D01*
X336746Y659400D01*
X336932Y659695D01*
X337153Y659953D01*
X337408Y660173D01*
X337697Y660356D01*
X338015Y660499D01*
X338356Y660601D01*
X338719Y660663D01*
X339104Y660683D01*
X339432Y660670D01*
X339742Y660631D01*
X340035Y660565D01*
X340310Y660473D01*
X340569Y660354D01*
X340809Y660210D01*
X341033Y660039D01*
X341239Y659842D01*
X341424Y659622D01*
X341584Y659385D01*
X341720Y659129D01*
X341831Y658855D01*
X341918Y658564D01*
X341979Y658254D01*
X342016Y657926D01*
X342029Y657580D01*
X342016Y657205D01*
X341977Y656851D01*
X341911Y656517D01*
X341820Y656204D01*
X341703Y655910D01*
X341559Y655637D01*
X341390Y655384D01*
X341194Y655152D01*
X340976Y654943D01*
X340737Y654763D01*
X340479Y654610D01*
X340201Y654484D01*
X339903Y654387D01*
X339585Y654318D01*
X339248Y654276D01*
X338891Y654262D01*
G37*
%LPC*%
G36*
X338849Y655262D02*
X339067Y655272D01*
X339273Y655300D01*
X339467Y655347D01*
X339649Y655413D01*
X339819Y655498D01*
X339977Y655602D01*
X340123Y655724D01*
X340256Y655866D01*
X340376Y656024D01*
X340479Y656196D01*
X340567Y656382D01*
X340639Y656582D01*
X340695Y656796D01*
X340735Y657025D01*
X340759Y657268D01*
X340767Y657524D01*
X340758Y657781D01*
X340734Y658022D01*
X340694Y658248D01*
X340637Y658459D01*
X340564Y658655D01*
X340476Y658836D01*
X340370Y659001D01*
X340249Y659152D01*
X340114Y659286D01*
X339965Y659402D01*
X339804Y659501D01*
X339630Y659581D01*
X339444Y659644D01*
X339244Y659689D01*
X339032Y659716D01*
X338808Y659724D01*
X338596Y659717D01*
X338394Y659693D01*
X338203Y659653D01*
X338022Y659598D01*
X337852Y659526D01*
X337692Y659439D01*
X337543Y659336D01*
X337404Y659218D01*
X337279Y659085D01*
X337170Y658940D01*
X337079Y658784D01*
X337003Y658615D01*
X336945Y658434D01*
X336903Y658242D01*
X336878Y658037D01*
X336870Y657821D01*
X336878Y657546D01*
X336904Y657284D01*
X336948Y657035D01*
X337009Y656798D01*
X337087Y656575D01*
X337182Y656363D01*
X337295Y656165D01*
X337425Y655979D01*
X337569Y655811D01*
X337722Y655666D01*
X337885Y655542D01*
X338059Y655441D01*
X338242Y655363D01*
X338434Y655307D01*
X338637Y655273D01*
X338849Y655262D01*
G37*
%LPD*%
G36*
X331135Y654400D02*
X329824Y654400D01*
X329824Y663042D01*
X326486Y663042D01*
X326486Y664118D01*
X334473Y664118D01*
X334473Y663042D01*
X331135Y663042D01*
X331135Y654400D01*
G37*
G36*
X216352Y654262D02*
X215984Y654272D01*
X215629Y654300D01*
X215287Y654347D01*
X214958Y654414D01*
X214641Y654499D01*
X214338Y654603D01*
X214047Y654727D01*
X213769Y654869D01*
X213505Y655029D01*
X213258Y655206D01*
X213026Y655400D01*
X212811Y655611D01*
X212612Y655839D01*
X212429Y656084D01*
X212261Y656346D01*
X212110Y656624D01*
X211976Y656917D01*
X211860Y657222D01*
X211761Y657539D01*
X211681Y657868D01*
X211618Y658209D01*
X211574Y658562D01*
X211547Y658927D01*
X211538Y659304D01*
X211558Y659871D01*
X211618Y660406D01*
X211717Y660909D01*
X211857Y661381D01*
X212036Y661820D01*
X212255Y662228D01*
X212515Y662604D01*
X212814Y662949D01*
X213148Y663257D01*
X213514Y663524D01*
X213911Y663749D01*
X214340Y663934D01*
X214799Y664078D01*
X215290Y664181D01*
X215812Y664242D01*
X216366Y664263D01*
X216730Y664253D01*
X217082Y664226D01*
X217422Y664180D01*
X217750Y664115D01*
X218066Y664032D01*
X218369Y663931D01*
X218660Y663811D01*
X218938Y663673D01*
X219203Y663517D01*
X219451Y663345D01*
X219683Y663156D01*
X219899Y662950D01*
X220100Y662727D01*
X220284Y662488D01*
X220452Y662232D01*
X220604Y661959D01*
X220739Y661672D01*
X220856Y661372D01*
X220955Y661059D01*
X221036Y660733D01*
X221099Y660395D01*
X221144Y660044D01*
X221171Y659680D01*
X221180Y659304D01*
X221171Y658929D01*
X221143Y658565D01*
X221098Y658214D01*
X221034Y657874D01*
X220952Y657547D01*
X220852Y657231D01*
X220734Y656927D01*
X220597Y656635D01*
X220443Y656357D01*
X220274Y656095D01*
X220089Y655851D01*
X219887Y655622D01*
X219670Y655411D01*
X219438Y655216D01*
X219189Y655038D01*
X218924Y654876D01*
X218646Y654732D01*
X218355Y654607D01*
X218052Y654502D01*
X217736Y654416D01*
X217409Y654348D01*
X217069Y654300D01*
X216716Y654272D01*
X216352Y654262D01*
G37*
%LPC*%
G36*
X216352Y655331D02*
X216760Y655347D01*
X217144Y655396D01*
X217504Y655477D01*
X217839Y655591D01*
X218150Y655737D01*
X218436Y655915D01*
X218698Y656126D01*
X218935Y656369D01*
X219146Y656642D01*
X219329Y656942D01*
X219483Y657268D01*
X219610Y657622D01*
X219708Y658002D01*
X219779Y658409D01*
X219821Y658843D01*
X219835Y659304D01*
X219821Y659745D01*
X219778Y660162D01*
X219707Y660555D01*
X219608Y660923D01*
X219481Y661267D01*
X219325Y661586D01*
X219140Y661881D01*
X218928Y662152D01*
X218689Y662395D01*
X218428Y662605D01*
X218142Y662783D01*
X217834Y662928D01*
X217502Y663041D01*
X217147Y663122D01*
X216768Y663171D01*
X216366Y663187D01*
X215960Y663171D01*
X215579Y663123D01*
X215221Y663043D01*
X214886Y662932D01*
X214576Y662788D01*
X214289Y662613D01*
X214026Y662405D01*
X213786Y662166D01*
X213573Y661898D01*
X213388Y661604D01*
X213231Y661285D01*
X213103Y660940D01*
X213004Y660569D01*
X212933Y660173D01*
X212890Y659751D01*
X212876Y659304D01*
X212890Y658859D01*
X212933Y658437D01*
X213005Y658039D01*
X213106Y657665D01*
X213235Y657314D01*
X213394Y656987D01*
X213581Y656683D01*
X213797Y656404D01*
X214038Y656152D01*
X214302Y655934D01*
X214587Y655750D01*
X214896Y655599D01*
X215226Y655482D01*
X215579Y655398D01*
X215954Y655348D01*
X216352Y655331D01*
G37*
%LPD*%
G36*
X203939Y654400D02*
X202621Y654400D01*
X202621Y664118D01*
X206711Y664118D01*
X207108Y664106D01*
X207482Y664070D01*
X207833Y664010D01*
X208161Y663926D01*
X208466Y663819D01*
X208748Y663687D01*
X209007Y663532D01*
X209242Y663352D01*
X209452Y663151D01*
X209635Y662930D01*
X209789Y662690D01*
X209915Y662430D01*
X210013Y662150D01*
X210083Y661851D01*
X210125Y661532D01*
X210139Y661194D01*
X210125Y660858D01*
X210083Y660539D01*
X210012Y660239D01*
X209914Y659956D01*
X209787Y659690D01*
X209633Y659443D01*
X209450Y659213D01*
X209239Y659000D01*
X209004Y658810D01*
X208749Y658644D01*
X208473Y658504D01*
X208178Y658390D01*
X207862Y658301D01*
X207526Y658237D01*
X207170Y658199D01*
X206794Y658186D01*
X203939Y658186D01*
X203939Y654400D01*
G37*
%LPC*%
G36*
X206608Y659228D02*
X206875Y659236D01*
X207125Y659258D01*
X207358Y659297D01*
X207573Y659350D01*
X207772Y659418D01*
X207953Y659502D01*
X208116Y659601D01*
X208263Y659716D01*
X208392Y659845D01*
X208504Y659990D01*
X208599Y660150D01*
X208677Y660326D01*
X208737Y660516D01*
X208780Y660722D01*
X208806Y660943D01*
X208815Y661180D01*
X208806Y661408D01*
X208779Y661621D01*
X208735Y661820D01*
X208673Y662003D01*
X208594Y662173D01*
X208497Y662327D01*
X208382Y662467D01*
X208249Y662592D01*
X208099Y662702D01*
X207931Y662798D01*
X207745Y662879D01*
X207542Y662945D01*
X207321Y662996D01*
X207083Y663033D01*
X206826Y663055D01*
X206552Y663063D01*
X203939Y663063D01*
X203939Y659228D01*
X206608Y659228D01*
G37*
%LPD*%
G36*
X226835Y654400D02*
X225524Y654400D01*
X225524Y663042D01*
X222186Y663042D01*
X222186Y664118D01*
X230173Y664118D01*
X230173Y663042D01*
X226835Y663042D01*
X226835Y654400D01*
G37*
G36*
X234308Y654400D02*
X233011Y654400D01*
X233023Y654869D01*
X233061Y655343D01*
X233122Y655824D01*
X233209Y656311D01*
X233320Y656805D01*
X233455Y657304D01*
X233616Y657809D01*
X233801Y658321D01*
X234015Y658845D01*
X234262Y659389D01*
X234542Y659953D01*
X234855Y660536D01*
X235202Y661138D01*
X235581Y661760D01*
X235993Y662402D01*
X236439Y663063D01*
X231218Y663063D01*
X231218Y664118D01*
X237639Y664118D01*
X237639Y663111D01*
X236949Y662035D01*
X236368Y661081D01*
X235897Y660252D01*
X235535Y659545D01*
X235248Y658902D01*
X234998Y658264D01*
X234787Y657630D01*
X234615Y657000D01*
X234480Y656367D01*
X234385Y655722D01*
X234327Y655067D01*
X234308Y654400D01*
G37*
G36*
X112052Y654262D02*
X111684Y654272D01*
X111329Y654300D01*
X110987Y654347D01*
X110658Y654414D01*
X110341Y654499D01*
X110038Y654603D01*
X109747Y654727D01*
X109469Y654869D01*
X109205Y655029D01*
X108958Y655206D01*
X108726Y655400D01*
X108511Y655611D01*
X108312Y655839D01*
X108129Y656084D01*
X107961Y656346D01*
X107810Y656624D01*
X107676Y656917D01*
X107560Y657222D01*
X107461Y657539D01*
X107381Y657868D01*
X107318Y658209D01*
X107274Y658562D01*
X107247Y658927D01*
X107238Y659304D01*
X107258Y659871D01*
X107318Y660406D01*
X107417Y660909D01*
X107557Y661381D01*
X107736Y661820D01*
X107955Y662228D01*
X108215Y662604D01*
X108514Y662949D01*
X108848Y663257D01*
X109214Y663524D01*
X109611Y663749D01*
X110040Y663934D01*
X110499Y664078D01*
X110990Y664181D01*
X111512Y664242D01*
X112066Y664263D01*
X112430Y664253D01*
X112782Y664226D01*
X113122Y664180D01*
X113450Y664115D01*
X113766Y664032D01*
X114069Y663931D01*
X114360Y663811D01*
X114638Y663673D01*
X114903Y663517D01*
X115151Y663345D01*
X115383Y663156D01*
X115599Y662950D01*
X115800Y662727D01*
X115984Y662488D01*
X116152Y662232D01*
X116304Y661959D01*
X116439Y661672D01*
X116556Y661372D01*
X116655Y661059D01*
X116736Y660733D01*
X116799Y660395D01*
X116844Y660044D01*
X116871Y659680D01*
X116880Y659304D01*
X116871Y658929D01*
X116843Y658565D01*
X116798Y658214D01*
X116734Y657874D01*
X116652Y657547D01*
X116552Y657231D01*
X116434Y656927D01*
X116297Y656635D01*
X116143Y656357D01*
X115974Y656095D01*
X115789Y655851D01*
X115587Y655622D01*
X115370Y655411D01*
X115138Y655216D01*
X114889Y655038D01*
X114624Y654876D01*
X114346Y654732D01*
X114055Y654607D01*
X113752Y654502D01*
X113436Y654416D01*
X113109Y654348D01*
X112769Y654300D01*
X112416Y654272D01*
X112052Y654262D01*
G37*
%LPC*%
G36*
X112052Y655331D02*
X112460Y655347D01*
X112844Y655396D01*
X113204Y655477D01*
X113539Y655591D01*
X113850Y655737D01*
X114136Y655915D01*
X114398Y656126D01*
X114635Y656369D01*
X114846Y656642D01*
X115029Y656942D01*
X115183Y657268D01*
X115310Y657622D01*
X115408Y658002D01*
X115479Y658409D01*
X115521Y658843D01*
X115535Y659304D01*
X115521Y659745D01*
X115478Y660162D01*
X115407Y660555D01*
X115308Y660923D01*
X115181Y661267D01*
X115025Y661586D01*
X114840Y661881D01*
X114628Y662152D01*
X114389Y662395D01*
X114128Y662605D01*
X113842Y662783D01*
X113534Y662928D01*
X113202Y663041D01*
X112847Y663122D01*
X112468Y663171D01*
X112066Y663187D01*
X111660Y663171D01*
X111279Y663123D01*
X110921Y663043D01*
X110586Y662932D01*
X110276Y662788D01*
X109989Y662613D01*
X109726Y662405D01*
X109486Y662166D01*
X109273Y661898D01*
X109088Y661604D01*
X108931Y661285D01*
X108803Y660940D01*
X108704Y660569D01*
X108633Y660173D01*
X108590Y659751D01*
X108576Y659304D01*
X108590Y658859D01*
X108633Y658437D01*
X108705Y658039D01*
X108806Y657665D01*
X108935Y657314D01*
X109094Y656987D01*
X109281Y656683D01*
X109497Y656404D01*
X109738Y656152D01*
X110002Y655934D01*
X110287Y655750D01*
X110596Y655599D01*
X110926Y655482D01*
X111279Y655398D01*
X111654Y655348D01*
X112052Y655331D01*
G37*
%LPD*%
G36*
X130125Y654262D02*
X129746Y654274D01*
X129388Y654308D01*
X129052Y654366D01*
X128736Y654447D01*
X128442Y654550D01*
X128169Y654677D01*
X127917Y654827D01*
X127687Y655000D01*
X127481Y655194D01*
X127302Y655408D01*
X127151Y655641D01*
X127027Y655893D01*
X126931Y656165D01*
X126863Y656456D01*
X126821Y656767D01*
X126808Y657097D01*
X126816Y657330D01*
X126842Y657554D01*
X126884Y657768D01*
X126944Y657973D01*
X127020Y658168D01*
X127114Y658354D01*
X127225Y658530D01*
X127352Y658697D01*
X127493Y658851D01*
X127644Y658989D01*
X127804Y659111D01*
X127973Y659218D01*
X128152Y659308D01*
X128340Y659382D01*
X128538Y659441D01*
X128746Y659483D01*
X128746Y659511D01*
X128553Y659564D01*
X128370Y659631D01*
X128198Y659711D01*
X128036Y659806D01*
X127885Y659913D01*
X127744Y660034D01*
X127614Y660169D01*
X127494Y660318D01*
X127293Y660641D01*
X127214Y660813D01*
X127150Y660992D01*
X127100Y661177D01*
X127064Y661369D01*
X127042Y661568D01*
X127035Y661773D01*
X127048Y662044D01*
X127087Y662302D01*
X127152Y662547D01*
X127243Y662778D01*
X127360Y662997D01*
X127503Y663202D01*
X127671Y663394D01*
X127866Y663573D01*
X128083Y663735D01*
X128317Y663875D01*
X128570Y663993D01*
X128840Y664090D01*
X129127Y664166D01*
X129433Y664220D01*
X129756Y664252D01*
X130097Y664263D01*
X130447Y664252D01*
X130777Y664220D01*
X131088Y664168D01*
X131381Y664094D01*
X131655Y663999D01*
X131910Y663882D01*
X132146Y663745D01*
X132363Y663587D01*
X132558Y663410D01*
X132727Y663219D01*
X132870Y663013D01*
X132986Y662792D01*
X133077Y662556D01*
X133142Y662305D01*
X133181Y662040D01*
X133194Y661759D01*
X133187Y661554D01*
X133165Y661355D01*
X133129Y661163D01*
X133079Y660978D01*
X133014Y660799D01*
X132934Y660628D01*
X132732Y660304D01*
X132611Y660156D01*
X132480Y660022D01*
X132466Y660011D01*
X132338Y659903D01*
X132185Y659799D01*
X132022Y659708D01*
X131849Y659633D01*
X131665Y659571D01*
X131470Y659524D01*
X131470Y659497D01*
X131696Y659451D01*
X131910Y659391D01*
X132110Y659315D01*
X132298Y659224D01*
X132472Y659117D01*
X132634Y658996D01*
X132783Y658859D01*
X132892Y658737D01*
X132918Y658707D01*
X133040Y658543D01*
X133145Y658368D01*
X133234Y658184D01*
X133306Y657989D01*
X133363Y657784D01*
X133403Y657570D01*
X133427Y657345D01*
X133436Y657111D01*
X133422Y656784D01*
X133382Y656475D01*
X133315Y656185D01*
X133222Y655914D01*
X133101Y655661D01*
X132955Y655427D01*
X132781Y655211D01*
X132580Y655014D01*
X132355Y654838D01*
X132106Y654685D01*
X131834Y654556D01*
X131539Y654450D01*
X131220Y654368D01*
X130879Y654309D01*
X130513Y654274D01*
X130125Y654262D01*
G37*
%LPC*%
G36*
X130139Y655193D02*
X130384Y655201D01*
X130613Y655224D01*
X130826Y655262D01*
X131023Y655315D01*
X131204Y655383D01*
X131369Y655467D01*
X131517Y655565D01*
X131649Y655679D01*
X131766Y655810D01*
X131867Y655959D01*
X131952Y656125D01*
X132022Y656310D01*
X132076Y656512D01*
X132115Y656733D01*
X132138Y656971D01*
X132146Y657228D01*
X132137Y657447D01*
X132112Y657652D01*
X132070Y657843D01*
X132011Y658020D01*
X131936Y658183D01*
X131843Y658333D01*
X131734Y658468D01*
X131608Y658590D01*
X131467Y658697D01*
X131312Y658791D01*
X131143Y658869D01*
X130961Y658934D01*
X130766Y658984D01*
X130557Y659020D01*
X130334Y659041D01*
X130097Y659049D01*
X129868Y659041D01*
X129651Y659018D01*
X129447Y658979D01*
X129256Y658925D01*
X129078Y658856D01*
X128913Y658771D01*
X128761Y658671D01*
X128621Y658555D01*
X128497Y658426D01*
X128389Y658286D01*
X128298Y658134D01*
X128223Y657970D01*
X128165Y657795D01*
X128124Y657608D01*
X128099Y657410D01*
X128090Y657200D01*
X128098Y656957D01*
X128122Y656730D01*
X128162Y656518D01*
X128218Y656322D01*
X128290Y656142D01*
X128378Y655977D01*
X128482Y655828D01*
X128603Y655695D01*
X128739Y655577D01*
X128891Y655475D01*
X129059Y655389D01*
X129243Y655319D01*
X129443Y655264D01*
X129659Y655225D01*
X129891Y655201D01*
X130139Y655193D01*
G37*
G36*
X130111Y659980D02*
X130324Y659986D01*
X130523Y660005D01*
X130709Y660036D01*
X130883Y660081D01*
X131043Y660137D01*
X131190Y660207D01*
X131325Y660289D01*
X131446Y660383D01*
X131553Y660492D01*
X131646Y660616D01*
X131725Y660756D01*
X131790Y660912D01*
X131840Y661083D01*
X131876Y661270D01*
X131897Y661472D01*
X131904Y661690D01*
X131897Y661890D01*
X131876Y662076D01*
X131841Y662250D01*
X131792Y662411D01*
X131728Y662559D01*
X131650Y662695D01*
X131559Y662817D01*
X131453Y662926D01*
X131333Y663023D01*
X131199Y663107D01*
X131050Y663178D01*
X130888Y663235D01*
X130712Y663281D01*
X130521Y663313D01*
X130316Y663332D01*
X130097Y663338D01*
X129885Y663332D01*
X129686Y663313D01*
X129499Y663280D01*
X129326Y663235D01*
X129166Y663177D01*
X129018Y663106D01*
X128884Y663022D01*
X128763Y662925D01*
X128655Y662815D01*
X128562Y662692D01*
X128483Y662557D01*
X128419Y662409D01*
X128369Y662248D01*
X128333Y662075D01*
X128311Y661889D01*
X128304Y661690D01*
X128312Y661488D01*
X128334Y661298D01*
X128371Y661120D01*
X128422Y660955D01*
X128489Y660802D01*
X128570Y660661D01*
X128666Y660533D01*
X128777Y660418D01*
X128901Y660315D01*
X129037Y660226D01*
X129186Y660151D01*
X129347Y660089D01*
X129519Y660041D01*
X129705Y660007D01*
X129902Y659986D01*
X130111Y659980D01*
G37*
%LPD*%
G36*
X99639Y654400D02*
X98321Y654400D01*
X98321Y664118D01*
X102411Y664118D01*
X102808Y664106D01*
X103182Y664070D01*
X103533Y664010D01*
X103861Y663926D01*
X104166Y663819D01*
X104448Y663687D01*
X104707Y663532D01*
X104942Y663352D01*
X105152Y663151D01*
X105335Y662930D01*
X105489Y662690D01*
X105615Y662430D01*
X105713Y662150D01*
X105783Y661851D01*
X105825Y661532D01*
X105839Y661194D01*
X105825Y660858D01*
X105783Y660539D01*
X105712Y660239D01*
X105614Y659956D01*
X105487Y659690D01*
X105333Y659443D01*
X105150Y659213D01*
X104939Y659000D01*
X104704Y658810D01*
X104449Y658644D01*
X104173Y658504D01*
X103878Y658390D01*
X103562Y658301D01*
X103226Y658237D01*
X102870Y658199D01*
X102494Y658186D01*
X99639Y658186D01*
X99639Y654400D01*
G37*
%LPC*%
G36*
X102308Y659228D02*
X102575Y659236D01*
X102825Y659258D01*
X103058Y659297D01*
X103273Y659350D01*
X103472Y659418D01*
X103653Y659502D01*
X103816Y659601D01*
X103963Y659716D01*
X104092Y659845D01*
X104204Y659990D01*
X104299Y660150D01*
X104377Y660326D01*
X104437Y660516D01*
X104480Y660722D01*
X104506Y660943D01*
X104515Y661180D01*
X104506Y661408D01*
X104479Y661621D01*
X104435Y661820D01*
X104373Y662003D01*
X104294Y662173D01*
X104197Y662327D01*
X104082Y662467D01*
X103949Y662592D01*
X103799Y662702D01*
X103631Y662798D01*
X103445Y662879D01*
X103242Y662945D01*
X103021Y662996D01*
X102783Y663033D01*
X102526Y663055D01*
X102252Y663063D01*
X99639Y663063D01*
X99639Y659228D01*
X102308Y659228D01*
G37*
%LPD*%
G36*
X122535Y654400D02*
X121224Y654400D01*
X121224Y663042D01*
X117886Y663042D01*
X117886Y664118D01*
X125873Y664118D01*
X125873Y663042D01*
X122535Y663042D01*
X122535Y654400D01*
G37*
G36*
X127586Y360637D02*
X127221Y360643D01*
X126866Y360662D01*
X126521Y360694D01*
X126186Y360738D01*
X125862Y360795D01*
X125547Y360865D01*
X125243Y360947D01*
X124948Y361042D01*
X124664Y361150D01*
X124390Y361270D01*
X124126Y361403D01*
X123872Y361549D01*
X123394Y361878D01*
X122957Y362257D01*
X122566Y362682D01*
X122390Y362910D01*
X122227Y363147D01*
X122077Y363394D01*
X121940Y363651D01*
X121816Y363918D01*
X121705Y364195D01*
X121608Y364482D01*
X121523Y364779D01*
X121451Y365086D01*
X121393Y365402D01*
X121347Y365729D01*
X121314Y366065D01*
X121295Y366412D01*
X121288Y366768D01*
X121300Y367231D01*
X121335Y367678D01*
X121394Y368110D01*
X121476Y368526D01*
X121581Y368927D01*
X121710Y369312D01*
X121862Y369681D01*
X122037Y370035D01*
X122235Y370371D01*
X122454Y370686D01*
X122694Y370981D01*
X122956Y371256D01*
X123238Y371510D01*
X123542Y371744D01*
X123867Y371957D01*
X124214Y372150D01*
X124579Y372322D01*
X124960Y372470D01*
X125357Y372596D01*
X125770Y372699D01*
X126200Y372779D01*
X126646Y372836D01*
X127108Y372870D01*
X127586Y372882D01*
X128062Y372870D01*
X128523Y372835D01*
X128970Y372777D01*
X129401Y372697D01*
X129817Y372592D01*
X130218Y372465D01*
X130604Y372315D01*
X130975Y372141D01*
X131328Y371946D01*
X131660Y371731D01*
X131971Y371496D01*
X132261Y371240D01*
X132529Y370965D01*
X132777Y370669D01*
X133003Y370353D01*
X133209Y370017D01*
X133391Y369664D01*
X133550Y369294D01*
X133684Y368909D01*
X133793Y368509D01*
X133879Y368093D01*
X133939Y367661D01*
X133976Y367214D01*
X133988Y366751D01*
X133976Y366284D01*
X133940Y365833D01*
X133880Y365398D01*
X133796Y364980D01*
X133687Y364578D01*
X133555Y364193D01*
X133398Y363823D01*
X133217Y363470D01*
X133014Y363136D01*
X132789Y362822D01*
X132543Y362528D01*
X132275Y362254D01*
X131985Y362001D01*
X131675Y361768D01*
X131342Y361556D01*
X130988Y361364D01*
X130616Y361194D01*
X130229Y361046D01*
X129826Y360921D01*
X129409Y360819D01*
X128976Y360739D01*
X128528Y360683D01*
X128064Y360648D01*
X127586Y360637D01*
G37*
%LPC*%
G36*
X127586Y362336D02*
X128151Y362355D01*
X128686Y362409D01*
X129192Y362501D01*
X129667Y362629D01*
X130112Y362793D01*
X130528Y362994D01*
X130913Y363231D01*
X131269Y363506D01*
X131588Y363812D01*
X131865Y364147D01*
X132099Y364510D01*
X132290Y364901D01*
X132439Y365321D01*
X132546Y365769D01*
X132609Y366246D01*
X132631Y366751D01*
X132610Y367269D01*
X132548Y367757D01*
X132445Y368214D01*
X132301Y368639D01*
X132116Y369034D01*
X131889Y369397D01*
X131621Y369729D01*
X131312Y370031D01*
X130966Y370299D01*
X130585Y370531D01*
X130171Y370727D01*
X129722Y370888D01*
X129239Y371013D01*
X128722Y371102D01*
X128171Y371156D01*
X127586Y371174D01*
X127025Y371156D01*
X126496Y371102D01*
X125997Y371012D01*
X125530Y370886D01*
X125093Y370724D01*
X124687Y370526D01*
X124312Y370292D01*
X123968Y370022D01*
X123661Y369719D01*
X123394Y369387D01*
X123168Y369024D01*
X122983Y368633D01*
X122839Y368211D01*
X122737Y367760D01*
X122675Y367279D01*
X122655Y366768D01*
X122675Y366253D01*
X122736Y365768D01*
X122837Y365314D01*
X122979Y364889D01*
X123161Y364495D01*
X123384Y364131D01*
X123647Y363796D01*
X123951Y363492D01*
X124291Y363221D01*
X124664Y362987D01*
X125070Y362788D01*
X125508Y362625D01*
X125978Y362499D01*
X126482Y362408D01*
X127017Y362354D01*
X127586Y362336D01*
G37*
%LPD*%
G36*
X133813Y404103D02*
X121472Y404103D01*
X121472Y409910D01*
X121487Y410416D01*
X121531Y410892D01*
X121603Y411339D01*
X121705Y411757D01*
X121837Y412144D01*
X121997Y412502D01*
X122186Y412830D01*
X122405Y413128D01*
X122650Y413394D01*
X122917Y413625D01*
X123207Y413820D01*
X123521Y413979D01*
X123857Y414103D01*
X124216Y414192D01*
X124597Y414245D01*
X125002Y414263D01*
X125339Y414250D01*
X125662Y414213D01*
X125972Y414150D01*
X126268Y414062D01*
X126550Y413950D01*
X126818Y413812D01*
X127073Y413649D01*
X127314Y413461D01*
X127538Y413251D01*
X127740Y413022D01*
X127920Y412775D01*
X127986Y412664D01*
X128078Y412508D01*
X128215Y412222D01*
X128331Y411917D01*
X128424Y411593D01*
X128497Y411250D01*
X130760Y412741D01*
X133813Y414753D01*
X133813Y412826D01*
X128689Y409621D01*
X128689Y405776D01*
X133813Y405776D01*
X133813Y404103D01*
G37*
%LPC*%
G36*
X127367Y405776D02*
X127367Y409813D01*
X127357Y410135D01*
X127328Y410437D01*
X127280Y410721D01*
X127212Y410986D01*
X127126Y411232D01*
X127019Y411460D01*
X126894Y411668D01*
X126749Y411858D01*
X126587Y412028D01*
X126410Y412175D01*
X126217Y412299D01*
X126008Y412400D01*
X125784Y412479D01*
X125545Y412536D01*
X125290Y412570D01*
X125019Y412581D01*
X124758Y412570D01*
X124513Y412535D01*
X124284Y412478D01*
X124070Y412398D01*
X123873Y412295D01*
X123692Y412170D01*
X123526Y412021D01*
X123377Y411850D01*
X123245Y411657D01*
X123130Y411444D01*
X123033Y411211D01*
X122954Y410957D01*
X122892Y410684D01*
X122848Y410390D01*
X122821Y410077D01*
X122812Y409743D01*
X122812Y405776D01*
X127367Y405776D01*
G37*
%LPD*%
G36*
X133813Y349290D02*
X121472Y349290D01*
X121472Y354484D01*
X121487Y354988D01*
X121533Y355463D01*
X121609Y355909D01*
X121715Y356325D01*
X121852Y356713D01*
X122019Y357071D01*
X122217Y357399D01*
X122444Y357698D01*
X122700Y357965D01*
X122980Y358197D01*
X123286Y358392D01*
X123616Y358552D01*
X123971Y358677D01*
X124351Y358766D01*
X124756Y358819D01*
X125186Y358837D01*
X125613Y358819D01*
X126017Y358766D01*
X126399Y358676D01*
X126758Y358551D01*
X127095Y358391D01*
X127409Y358194D01*
X127701Y357962D01*
X127971Y357694D01*
X128213Y357395D01*
X128423Y357071D01*
X128601Y356722D01*
X128746Y356346D01*
X128859Y355945D01*
X128940Y355519D01*
X128988Y355067D01*
X129005Y354589D01*
X129005Y350963D01*
X133813Y350963D01*
X133813Y349290D01*
G37*
%LPC*%
G36*
X127682Y350963D02*
X127682Y354353D01*
X127672Y354692D01*
X127643Y355010D01*
X127595Y355305D01*
X127527Y355579D01*
X127440Y355831D01*
X127333Y356061D01*
X127208Y356269D01*
X127062Y356455D01*
X126898Y356619D01*
X126714Y356761D01*
X126510Y356882D01*
X126288Y356980D01*
X126046Y357057D01*
X125784Y357112D01*
X125504Y357144D01*
X125203Y357155D01*
X124914Y357144D01*
X124643Y357110D01*
X124391Y357054D01*
X124157Y356976D01*
X123942Y356875D01*
X123746Y356751D01*
X123569Y356605D01*
X123410Y356437D01*
X123270Y356246D01*
X123149Y356033D01*
X123046Y355798D01*
X122962Y355539D01*
X122896Y355259D01*
X122850Y354956D01*
X122822Y354630D01*
X122812Y354283D01*
X122812Y350963D01*
X127682Y350963D01*
G37*
%LPD*%
G36*
X121472Y373804D02*
X121472Y375547D01*
X129311Y377763D01*
X130804Y378141D01*
X132342Y378490D01*
X130240Y378976D01*
X129265Y379231D01*
X127478Y379721D01*
X121472Y381406D01*
X121472Y383009D01*
X129153Y385155D01*
X130892Y385593D01*
X132342Y385926D01*
X132035Y386004D01*
X130393Y386390D01*
X127845Y387080D01*
X121472Y388851D01*
X121472Y390594D01*
X133813Y386959D01*
X133813Y384962D01*
X125974Y382825D01*
X124947Y382567D01*
X123338Y382212D01*
X125037Y381827D01*
X127573Y381150D01*
X133813Y379436D01*
X133813Y377439D01*
X121472Y373804D01*
G37*
G36*
X133813Y392134D02*
X121472Y392134D01*
X121472Y401497D01*
X122839Y401497D01*
X122839Y393807D01*
X126797Y393807D01*
X126797Y400971D01*
X128146Y400971D01*
X128146Y393807D01*
X132447Y393807D01*
X132447Y401856D01*
X133813Y401856D01*
X133813Y392134D01*
G37*
G36*
X134764Y200003D02*
X122423Y200003D01*
X122423Y205810D01*
X122438Y206316D01*
X122482Y206792D01*
X122554Y207239D01*
X122656Y207657D01*
X122788Y208044D01*
X122948Y208402D01*
X123137Y208730D01*
X123356Y209028D01*
X123601Y209294D01*
X123868Y209525D01*
X124158Y209720D01*
X124472Y209879D01*
X124808Y210003D01*
X125167Y210092D01*
X125548Y210145D01*
X125953Y210163D01*
X126290Y210150D01*
X126613Y210113D01*
X126923Y210050D01*
X127219Y209962D01*
X127501Y209850D01*
X127769Y209712D01*
X128024Y209549D01*
X128265Y209361D01*
X128489Y209151D01*
X128691Y208922D01*
X128871Y208675D01*
X128937Y208564D01*
X129029Y208408D01*
X129166Y208122D01*
X129282Y207817D01*
X129375Y207493D01*
X129448Y207150D01*
X131711Y208641D01*
X134764Y210653D01*
X134764Y208726D01*
X129640Y205521D01*
X129640Y201676D01*
X134764Y201676D01*
X134764Y200003D01*
G37*
%LPC*%
G36*
X128318Y201676D02*
X128318Y205713D01*
X128308Y206035D01*
X128279Y206337D01*
X128231Y206621D01*
X128163Y206886D01*
X128077Y207132D01*
X127970Y207360D01*
X127845Y207568D01*
X127700Y207758D01*
X127538Y207928D01*
X127361Y208075D01*
X127168Y208199D01*
X126959Y208300D01*
X126735Y208379D01*
X126496Y208436D01*
X126241Y208470D01*
X125970Y208481D01*
X125709Y208470D01*
X125464Y208435D01*
X125235Y208378D01*
X125021Y208298D01*
X124824Y208195D01*
X124643Y208070D01*
X124477Y207921D01*
X124328Y207750D01*
X124196Y207557D01*
X124081Y207344D01*
X123984Y207111D01*
X123905Y206857D01*
X123843Y206584D01*
X123799Y206290D01*
X123772Y205977D01*
X123763Y205643D01*
X123763Y201676D01*
X128318Y201676D01*
G37*
%LPD*%
G36*
X134764Y212866D02*
X133424Y212866D01*
X133424Y216011D01*
X123930Y216011D01*
X125918Y213225D01*
X124429Y213225D01*
X122423Y216142D01*
X122423Y217596D01*
X133424Y217596D01*
X133424Y220600D01*
X134764Y220600D01*
X134764Y212866D01*
G37*
G36*
X209274Y434159D02*
X207601Y434159D01*
X207601Y446500D01*
X213408Y446500D01*
X213914Y446485D01*
X214390Y446441D01*
X214837Y446369D01*
X215255Y446267D01*
X215642Y446135D01*
X216000Y445975D01*
X216328Y445786D01*
X216626Y445567D01*
X216892Y445322D01*
X217123Y445055D01*
X217318Y444765D01*
X217477Y444451D01*
X217601Y444115D01*
X217690Y443756D01*
X217743Y443375D01*
X217761Y442970D01*
X217748Y442633D01*
X217711Y442310D01*
X217648Y442000D01*
X217560Y441704D01*
X217448Y441422D01*
X217310Y441154D01*
X217147Y440899D01*
X216959Y440658D01*
X216749Y440434D01*
X216520Y440233D01*
X216273Y440052D01*
X216162Y439986D01*
X216006Y439894D01*
X215720Y439757D01*
X215415Y439641D01*
X215091Y439548D01*
X214748Y439475D01*
X216239Y437212D01*
X218251Y434159D01*
X216324Y434159D01*
X213119Y439283D01*
X209274Y439283D01*
X209274Y434159D01*
G37*
%LPC*%
G36*
X213311Y440605D02*
X213633Y440615D01*
X213935Y440644D01*
X214219Y440692D01*
X214484Y440760D01*
X214730Y440846D01*
X214958Y440953D01*
X215166Y441078D01*
X215356Y441223D01*
X215526Y441385D01*
X215673Y441562D01*
X215797Y441755D01*
X215898Y441964D01*
X215977Y442188D01*
X216034Y442427D01*
X216068Y442682D01*
X216079Y442953D01*
X216068Y443214D01*
X216033Y443459D01*
X215976Y443689D01*
X215896Y443902D01*
X215793Y444099D01*
X215668Y444280D01*
X215519Y444446D01*
X215348Y444595D01*
X215155Y444727D01*
X214942Y444842D01*
X214709Y444939D01*
X214455Y445019D01*
X214182Y445080D01*
X213888Y445124D01*
X213575Y445151D01*
X213241Y445160D01*
X209274Y445160D01*
X209274Y440605D01*
X213311Y440605D01*
G37*
%LPD*%
G36*
X224099Y433984D02*
X223642Y433997D01*
X223209Y434037D01*
X222800Y434103D01*
X222414Y434195D01*
X222052Y434314D01*
X221714Y434459D01*
X221399Y434631D01*
X221108Y434829D01*
X220843Y435053D01*
X220606Y435302D01*
X220398Y435577D01*
X220218Y435877D01*
X220066Y436202D01*
X219943Y436553D01*
X219848Y436928D01*
X219781Y437330D01*
X221410Y437478D01*
X221458Y437213D01*
X221521Y436965D01*
X221601Y436734D01*
X221697Y436521D01*
X221808Y436324D01*
X221936Y436144D01*
X222080Y435982D01*
X222240Y435836D01*
X222416Y435708D01*
X222608Y435597D01*
X222817Y435503D01*
X223041Y435426D01*
X223281Y435366D01*
X223538Y435323D01*
X223810Y435297D01*
X224099Y435289D01*
X224389Y435298D01*
X224663Y435326D01*
X224920Y435371D01*
X225162Y435436D01*
X225388Y435518D01*
X225598Y435619D01*
X225791Y435738D01*
X225969Y435876D01*
X226128Y436031D01*
X226266Y436205D01*
X226383Y436396D01*
X226478Y436605D01*
X226552Y436832D01*
X226605Y437076D01*
X226637Y437338D01*
X226648Y437619D01*
X226636Y437864D01*
X226599Y438095D01*
X226539Y438312D01*
X226454Y438515D01*
X226345Y438705D01*
X226212Y438881D01*
X226054Y439043D01*
X225873Y439191D01*
X225668Y439323D01*
X225442Y439438D01*
X225195Y439535D01*
X224926Y439614D01*
X224635Y439676D01*
X224323Y439720D01*
X223990Y439747D01*
X223635Y439756D01*
X222742Y439756D01*
X222742Y441122D01*
X223600Y441122D01*
X223915Y441131D01*
X224212Y441157D01*
X224490Y441201D01*
X224751Y441263D01*
X224993Y441343D01*
X225217Y441440D01*
X225422Y441555D01*
X225610Y441687D01*
X225777Y441835D01*
X225922Y441997D01*
X226045Y442172D01*
X226145Y442360D01*
X226223Y442562D01*
X226279Y442778D01*
X226313Y443008D01*
X226324Y443250D01*
X226315Y443491D01*
X226287Y443719D01*
X226242Y443934D01*
X226178Y444136D01*
X226096Y444325D01*
X225996Y444501D01*
X225878Y444664D01*
X225741Y444814D01*
X225587Y444948D01*
X225415Y445065D01*
X225225Y445163D01*
X225018Y445244D01*
X224793Y445307D01*
X224550Y445352D01*
X224290Y445378D01*
X224012Y445387D01*
X223757Y445379D01*
X223515Y445354D01*
X223286Y445312D01*
X223069Y445254D01*
X222864Y445179D01*
X222672Y445087D01*
X222493Y444978D01*
X222326Y444853D01*
X222173Y444713D01*
X222037Y444559D01*
X221918Y444391D01*
X221816Y444209D01*
X221731Y444014D01*
X221663Y443805D01*
X221611Y443583D01*
X221577Y443347D01*
X219991Y443469D01*
X220049Y443838D01*
X220136Y444185D01*
X220250Y444512D01*
X220393Y444818D01*
X220564Y445103D01*
X220764Y445368D01*
X220992Y445611D01*
X221248Y445834D01*
X221528Y446033D01*
X221828Y446206D01*
X222146Y446352D01*
X222484Y446471D01*
X222842Y446564D01*
X223218Y446631D01*
X223614Y446670D01*
X224029Y446684D01*
X224480Y446670D01*
X224906Y446630D01*
X225305Y446562D01*
X225679Y446468D01*
X226027Y446347D01*
X226349Y446198D01*
X226645Y446023D01*
X226915Y445821D01*
X227156Y445595D01*
X227365Y445347D01*
X227542Y445079D01*
X227687Y444789D01*
X227799Y444477D01*
X227880Y444145D01*
X227928Y443792D01*
X227944Y443417D01*
X227934Y443128D01*
X227903Y442853D01*
X227851Y442592D01*
X227779Y442345D01*
X227686Y442112D01*
X227572Y441892D01*
X227438Y441686D01*
X227283Y441494D01*
X227108Y441317D01*
X226915Y441154D01*
X226703Y441006D01*
X226472Y440874D01*
X226222Y440756D01*
X225953Y440653D01*
X225666Y440565D01*
X225360Y440491D01*
X225360Y440456D01*
X225697Y440409D01*
X226014Y440343D01*
X226312Y440256D01*
X226591Y440150D01*
X226851Y440024D01*
X227091Y439878D01*
X227313Y439713D01*
X227515Y439528D01*
X227696Y439327D01*
X227852Y439113D01*
X227985Y438887D01*
X228093Y438648D01*
X228177Y438396D01*
X228238Y438132D01*
X228274Y437855D01*
X228286Y437566D01*
X228269Y437151D01*
X228218Y436760D01*
X228133Y436394D01*
X228014Y436051D01*
X227861Y435732D01*
X227675Y435438D01*
X227454Y435167D01*
X227200Y434921D01*
X226914Y434701D01*
X226599Y434511D01*
X226255Y434350D01*
X225881Y434218D01*
X225479Y434116D01*
X225048Y434042D01*
X224588Y433999D01*
X224099Y433984D01*
G37*
G36*
X163110Y573818D02*
X161437Y573818D01*
X161437Y586159D01*
X167244Y586159D01*
X167750Y586144D01*
X168226Y586100D01*
X168673Y586028D01*
X169091Y585926D01*
X169478Y585794D01*
X169836Y585634D01*
X170164Y585445D01*
X170462Y585226D01*
X170728Y584981D01*
X170959Y584714D01*
X171154Y584424D01*
X171313Y584110D01*
X171437Y583774D01*
X171526Y583415D01*
X171579Y583034D01*
X171597Y582629D01*
X171584Y582292D01*
X171547Y581969D01*
X171484Y581659D01*
X171396Y581363D01*
X171284Y581081D01*
X171146Y580813D01*
X170983Y580558D01*
X170795Y580317D01*
X170585Y580093D01*
X170356Y579892D01*
X170109Y579711D01*
X169998Y579645D01*
X169842Y579553D01*
X169556Y579416D01*
X169251Y579300D01*
X168927Y579207D01*
X168584Y579134D01*
X170075Y576871D01*
X172087Y573818D01*
X170160Y573818D01*
X166955Y578942D01*
X163110Y578942D01*
X163110Y573818D01*
G37*
%LPC*%
G36*
X167147Y580264D02*
X167469Y580274D01*
X167771Y580303D01*
X168055Y580351D01*
X168320Y580419D01*
X168566Y580505D01*
X168794Y580612D01*
X169002Y580737D01*
X169192Y580882D01*
X169362Y581044D01*
X169509Y581221D01*
X169633Y581414D01*
X169734Y581623D01*
X169813Y581847D01*
X169870Y582086D01*
X169904Y582341D01*
X169915Y582612D01*
X169904Y582873D01*
X169869Y583118D01*
X169812Y583348D01*
X169732Y583561D01*
X169629Y583758D01*
X169504Y583939D01*
X169355Y584105D01*
X169184Y584254D01*
X168991Y584386D01*
X168778Y584501D01*
X168545Y584598D01*
X168291Y584678D01*
X168018Y584739D01*
X167724Y584783D01*
X167411Y584810D01*
X167077Y584819D01*
X163110Y584819D01*
X163110Y580264D01*
X167147Y580264D01*
G37*
%LPD*%
G36*
X182008Y573818D02*
X173836Y573818D01*
X173836Y574930D01*
X174072Y575428D01*
X174332Y575895D01*
X174617Y576332D01*
X174927Y576739D01*
X175253Y577122D01*
X175587Y577486D01*
X175929Y577831D01*
X176280Y578158D01*
X176986Y578770D01*
X177686Y579336D01*
X178348Y579879D01*
X178942Y580422D01*
X179209Y580697D01*
X179449Y580978D01*
X179662Y581266D01*
X179849Y581561D01*
X180000Y581868D01*
X180108Y582196D01*
X180173Y582543D01*
X180195Y582909D01*
X180186Y583156D01*
X180158Y583389D01*
X180111Y583607D01*
X180046Y583811D01*
X179962Y584001D01*
X179860Y584177D01*
X179739Y584339D01*
X179599Y584486D01*
X179443Y584617D01*
X179272Y584731D01*
X179087Y584827D01*
X178888Y584906D01*
X178673Y584968D01*
X178445Y585011D01*
X178202Y585038D01*
X177944Y585046D01*
X177698Y585038D01*
X177462Y585012D01*
X177238Y584969D01*
X177025Y584910D01*
X176823Y584833D01*
X176633Y584739D01*
X176453Y584627D01*
X176284Y584499D01*
X176129Y584355D01*
X175992Y584198D01*
X175871Y584026D01*
X175766Y583841D01*
X175679Y583642D01*
X175608Y583429D01*
X175555Y583202D01*
X175518Y582962D01*
X173906Y583111D01*
X173964Y583471D01*
X174050Y583813D01*
X174165Y584136D01*
X174308Y584440D01*
X174479Y584725D01*
X174679Y584991D01*
X174907Y585238D01*
X175163Y585467D01*
X175443Y585672D01*
X175742Y585850D01*
X176061Y586001D01*
X176399Y586124D01*
X176756Y586220D01*
X177133Y586288D01*
X177529Y586329D01*
X177944Y586343D01*
X178397Y586329D01*
X178823Y586288D01*
X179222Y586219D01*
X179594Y586123D01*
X179939Y585999D01*
X180257Y585848D01*
X180548Y585669D01*
X180812Y585462D01*
X181047Y585231D01*
X181251Y584976D01*
X181423Y584698D01*
X181564Y584397D01*
X181674Y584073D01*
X181752Y583726D01*
X181799Y583355D01*
X181815Y582962D01*
X181795Y582603D01*
X181733Y582246D01*
X181630Y581890D01*
X181487Y581534D01*
X181303Y581180D01*
X181078Y580825D01*
X180814Y580470D01*
X180510Y580115D01*
X180112Y579712D01*
X179566Y579211D01*
X178873Y578613D01*
X178031Y577917D01*
X177554Y577515D01*
X177127Y577134D01*
X176752Y576773D01*
X176429Y576432D01*
X176152Y576105D01*
X175916Y575783D01*
X175723Y575468D01*
X175570Y575158D01*
X182008Y575158D01*
X182008Y573818D01*
G37*
G36*
X207174Y204159D02*
X205501Y204159D01*
X205501Y216500D01*
X211308Y216500D01*
X211814Y216485D01*
X212290Y216441D01*
X212737Y216369D01*
X213155Y216267D01*
X213542Y216135D01*
X213900Y215975D01*
X214228Y215786D01*
X214526Y215567D01*
X214792Y215322D01*
X215023Y215055D01*
X215218Y214765D01*
X215377Y214451D01*
X215501Y214115D01*
X215590Y213756D01*
X215643Y213375D01*
X215661Y212970D01*
X215648Y212633D01*
X215611Y212310D01*
X215548Y212000D01*
X215460Y211704D01*
X215348Y211422D01*
X215210Y211154D01*
X215047Y210899D01*
X214859Y210658D01*
X214649Y210434D01*
X214420Y210233D01*
X214173Y210052D01*
X214062Y209986D01*
X213906Y209894D01*
X213620Y209757D01*
X213315Y209641D01*
X212991Y209548D01*
X212648Y209475D01*
X214139Y207212D01*
X216151Y204159D01*
X214224Y204159D01*
X211019Y209283D01*
X207174Y209283D01*
X207174Y204159D01*
G37*
%LPC*%
G36*
X211211Y210605D02*
X211533Y210615D01*
X211835Y210644D01*
X212119Y210692D01*
X212384Y210760D01*
X212630Y210846D01*
X212858Y210953D01*
X213066Y211078D01*
X213256Y211223D01*
X213426Y211385D01*
X213573Y211562D01*
X213697Y211755D01*
X213798Y211964D01*
X213877Y212188D01*
X213934Y212427D01*
X213968Y212682D01*
X213979Y212953D01*
X213968Y213214D01*
X213933Y213459D01*
X213876Y213689D01*
X213796Y213902D01*
X213693Y214099D01*
X213568Y214280D01*
X213419Y214446D01*
X213248Y214595D01*
X213055Y214727D01*
X212842Y214842D01*
X212609Y214939D01*
X212355Y215019D01*
X212082Y215080D01*
X211788Y215124D01*
X211475Y215151D01*
X211141Y215160D01*
X207174Y215160D01*
X207174Y210605D01*
X211211Y210605D01*
G37*
%LPD*%
G36*
X221841Y203984D02*
X221421Y203996D01*
X221020Y204031D01*
X220641Y204090D01*
X220282Y204172D01*
X219945Y204278D01*
X219628Y204408D01*
X219332Y204561D01*
X219056Y204737D01*
X218803Y204936D01*
X218575Y205156D01*
X218371Y205397D01*
X218191Y205659D01*
X218036Y205942D01*
X217905Y206246D01*
X217798Y206572D01*
X217716Y206918D01*
X219310Y207102D01*
X219379Y206880D01*
X219460Y206673D01*
X219553Y206480D01*
X219658Y206301D01*
X219775Y206137D01*
X219905Y205986D01*
X220047Y205851D01*
X220201Y205729D01*
X220368Y205622D01*
X220547Y205529D01*
X220738Y205450D01*
X220941Y205386D01*
X221156Y205336D01*
X221384Y205300D01*
X221624Y205278D01*
X221877Y205271D01*
X222185Y205283D01*
X222477Y205319D01*
X222751Y205379D01*
X223009Y205463D01*
X223248Y205571D01*
X223471Y205702D01*
X223677Y205858D01*
X223865Y206038D01*
X224033Y206238D01*
X224179Y206457D01*
X224302Y206693D01*
X224403Y206948D01*
X224482Y207220D01*
X224538Y207510D01*
X224572Y207818D01*
X224583Y208144D01*
X224572Y208428D01*
X224538Y208699D01*
X224481Y208955D01*
X224402Y209197D01*
X224301Y209426D01*
X224176Y209640D01*
X224030Y209841D01*
X223860Y210027D01*
X223672Y210196D01*
X223468Y210341D01*
X223248Y210465D01*
X223012Y210566D01*
X222760Y210644D01*
X222493Y210701D01*
X222210Y210734D01*
X221912Y210745D01*
X221597Y210733D01*
X221294Y210695D01*
X221002Y210632D01*
X220720Y210544D01*
X220444Y210426D01*
X220169Y210272D01*
X219893Y210084D01*
X219617Y209861D01*
X218075Y209861D01*
X218487Y216500D01*
X225503Y216500D01*
X225503Y215160D01*
X219923Y215160D01*
X219687Y211245D01*
X219951Y211429D01*
X220230Y211590D01*
X220526Y211725D01*
X220836Y211836D01*
X221163Y211922D01*
X221505Y211984D01*
X221862Y212021D01*
X222236Y212033D01*
X222679Y212016D01*
X223100Y211966D01*
X223498Y211883D01*
X223872Y211766D01*
X224224Y211616D01*
X224552Y211432D01*
X224857Y211215D01*
X225139Y210964D01*
X225393Y210687D01*
X225612Y210390D01*
X225798Y210072D01*
X225950Y209734D01*
X226069Y209376D01*
X226153Y208997D01*
X226204Y208598D01*
X226221Y208179D01*
X226203Y207704D01*
X226148Y207255D01*
X226058Y206831D01*
X225931Y206434D01*
X225767Y206063D01*
X225568Y205717D01*
X225332Y205398D01*
X225060Y205105D01*
X224756Y204842D01*
X224424Y204614D01*
X224064Y204422D01*
X223675Y204264D01*
X223259Y204142D01*
X222814Y204054D01*
X222342Y204001D01*
X221841Y203984D01*
G37*
G36*
X163110Y341991D02*
X161437Y341991D01*
X161437Y354332D01*
X167244Y354332D01*
X167750Y354317D01*
X168226Y354273D01*
X168673Y354201D01*
X169091Y354099D01*
X169478Y353967D01*
X169836Y353807D01*
X170164Y353618D01*
X170462Y353399D01*
X170728Y353154D01*
X170959Y352887D01*
X171154Y352597D01*
X171313Y352283D01*
X171437Y351947D01*
X171526Y351588D01*
X171579Y351207D01*
X171597Y350802D01*
X171584Y350465D01*
X171547Y350142D01*
X171484Y349832D01*
X171396Y349536D01*
X171284Y349254D01*
X171146Y348986D01*
X170983Y348731D01*
X170795Y348490D01*
X170585Y348266D01*
X170356Y348065D01*
X170109Y347884D01*
X169998Y347818D01*
X169842Y347726D01*
X169556Y347589D01*
X169251Y347473D01*
X168927Y347380D01*
X168584Y347307D01*
X170075Y345044D01*
X172087Y341991D01*
X170160Y341991D01*
X166955Y347115D01*
X163110Y347115D01*
X163110Y341991D01*
G37*
%LPC*%
G36*
X167147Y348437D02*
X167469Y348447D01*
X167771Y348476D01*
X168055Y348524D01*
X168320Y348592D01*
X168566Y348678D01*
X168794Y348785D01*
X169002Y348910D01*
X169192Y349055D01*
X169362Y349217D01*
X169509Y349394D01*
X169633Y349587D01*
X169734Y349796D01*
X169813Y350020D01*
X169870Y350259D01*
X169904Y350514D01*
X169915Y350785D01*
X169904Y351046D01*
X169869Y351291D01*
X169812Y351521D01*
X169732Y351734D01*
X169629Y351931D01*
X169504Y352112D01*
X169355Y352278D01*
X169184Y352427D01*
X168991Y352559D01*
X168778Y352674D01*
X168545Y352771D01*
X168291Y352851D01*
X168018Y352912D01*
X167724Y352956D01*
X167411Y352983D01*
X167077Y352992D01*
X163110Y352992D01*
X163110Y348437D01*
X167147Y348437D01*
G37*
%LPD*%
G36*
X180650Y341991D02*
X179161Y341991D01*
X179161Y344785D01*
X173346Y344785D01*
X173346Y346011D01*
X178995Y354332D01*
X180650Y354332D01*
X180650Y346029D01*
X182384Y346029D01*
X182384Y344785D01*
X180650Y344785D01*
X180650Y341991D01*
G37*
%LPC*%
G36*
X179161Y346029D02*
X179161Y352554D01*
X178916Y352090D01*
X178575Y351512D01*
X175413Y346852D01*
X174940Y346204D01*
X174800Y346029D01*
X179161Y346029D01*
G37*
%LPD*%
G36*
X133287Y558690D02*
X123569Y558690D01*
X123569Y562780D01*
X123581Y563177D01*
X123617Y563551D01*
X123677Y563902D01*
X123761Y564230D01*
X123868Y564535D01*
X124000Y564817D01*
X124155Y565075D01*
X124335Y565311D01*
X124536Y565521D01*
X124757Y565703D01*
X124997Y565857D01*
X125257Y565983D01*
X125537Y566082D01*
X125836Y566152D01*
X126155Y566194D01*
X126494Y566208D01*
X126830Y566194D01*
X127148Y566151D01*
X127449Y566081D01*
X127732Y565983D01*
X127997Y565856D01*
X128244Y565701D01*
X128474Y565519D01*
X128687Y565308D01*
X128877Y565072D01*
X129043Y564817D01*
X129183Y564542D01*
X129297Y564246D01*
X129386Y563931D01*
X129450Y563595D01*
X129488Y563239D01*
X129501Y562863D01*
X129501Y560007D01*
X133287Y560007D01*
X133287Y558690D01*
G37*
%LPC*%
G36*
X128459Y560007D02*
X128459Y562676D01*
X128452Y562944D01*
X128429Y563194D01*
X128391Y563426D01*
X128337Y563642D01*
X128269Y563840D01*
X128185Y564021D01*
X128086Y564185D01*
X127971Y564332D01*
X127842Y564461D01*
X127697Y564573D01*
X127537Y564668D01*
X127361Y564745D01*
X127171Y564806D01*
X126965Y564849D01*
X126744Y564875D01*
X126507Y564883D01*
X126279Y564875D01*
X126066Y564848D01*
X125867Y564804D01*
X125684Y564742D01*
X125514Y564663D01*
X125360Y564565D01*
X125220Y564450D01*
X125095Y564318D01*
X124985Y564168D01*
X124889Y564000D01*
X124808Y563814D01*
X124742Y563611D01*
X124691Y563390D01*
X124654Y563151D01*
X124632Y562895D01*
X124624Y562621D01*
X124624Y560007D01*
X128459Y560007D01*
G37*
%LPD*%
G36*
X130956Y548766D02*
X130701Y550042D01*
X130912Y550105D01*
X131110Y550184D01*
X131292Y550278D01*
X131460Y550387D01*
X131614Y550512D01*
X131753Y550653D01*
X131877Y550809D01*
X131987Y550980D01*
X132083Y551168D01*
X132166Y551371D01*
X132237Y551591D01*
X132295Y551827D01*
X132340Y552079D01*
X132372Y552347D01*
X132391Y552632D01*
X132397Y552932D01*
X132390Y553242D01*
X132370Y553534D01*
X132336Y553807D01*
X132288Y554062D01*
X132226Y554299D01*
X132151Y554518D01*
X132062Y554719D01*
X131959Y554901D01*
X131843Y555064D01*
X131715Y555205D01*
X131573Y555324D01*
X131419Y555421D01*
X131252Y555497D01*
X131072Y555551D01*
X130879Y555584D01*
X130673Y555594D01*
X130446Y555581D01*
X130242Y555540D01*
X130060Y555472D01*
X129901Y555377D01*
X129759Y555258D01*
X129630Y555116D01*
X129514Y554952D01*
X129411Y554767D01*
X129233Y554336D01*
X129087Y553829D01*
X128804Y552622D01*
X128676Y552081D01*
X128549Y551609D01*
X128421Y551206D01*
X128294Y550873D01*
X128162Y550591D01*
X128024Y550340D01*
X127878Y550120D01*
X127725Y549932D01*
X127561Y549770D01*
X127384Y549628D01*
X127194Y549506D01*
X126990Y549404D01*
X126772Y549324D01*
X126538Y549267D01*
X126289Y549233D01*
X126025Y549222D01*
X125721Y549237D01*
X125436Y549281D01*
X125169Y549356D01*
X124919Y549460D01*
X124688Y549595D01*
X124474Y549759D01*
X124278Y549953D01*
X124100Y550177D01*
X123942Y550429D01*
X123805Y550706D01*
X123688Y551009D01*
X123593Y551338D01*
X123519Y551693D01*
X123467Y552073D01*
X123435Y552480D01*
X123424Y552911D01*
X123432Y553313D01*
X123456Y553690D01*
X123496Y554043D01*
X123551Y554372D01*
X123622Y554676D01*
X123710Y554956D01*
X123812Y555212D01*
X123931Y555443D01*
X124069Y555653D01*
X124229Y555848D01*
X124412Y556026D01*
X124617Y556188D01*
X124844Y556333D01*
X125093Y556462D01*
X125365Y556574D01*
X125659Y556670D01*
X125887Y555374D01*
X125700Y555314D01*
X125527Y555243D01*
X125367Y555159D01*
X125220Y555063D01*
X125087Y554956D01*
X124966Y554836D01*
X124860Y554704D01*
X124766Y554560D01*
X124684Y554403D01*
X124613Y554231D01*
X124505Y553844D01*
X124439Y553400D01*
X124418Y552898D01*
X124424Y552615D01*
X124442Y552349D01*
X124472Y552101D01*
X124514Y551870D01*
X124568Y551656D01*
X124635Y551460D01*
X124713Y551280D01*
X124804Y551118D01*
X124906Y550974D01*
X125021Y550850D01*
X125147Y550744D01*
X125285Y550658D01*
X125435Y550591D01*
X125596Y550543D01*
X125770Y550514D01*
X125956Y550504D01*
X126170Y550519D01*
X126365Y550564D01*
X126541Y550638D01*
X126697Y550742D01*
X126838Y550875D01*
X126968Y551033D01*
X127086Y551218D01*
X127194Y551429D01*
X127301Y551708D01*
X127420Y552099D01*
X127551Y552602D01*
X127694Y553215D01*
X127904Y554108D01*
X128021Y554543D01*
X128159Y554960D01*
X128320Y555354D01*
X128507Y555722D01*
X128730Y556054D01*
X128997Y556339D01*
X129148Y556463D01*
X129313Y556573D01*
X129490Y556668D01*
X129680Y556750D01*
X129885Y556815D01*
X130108Y556861D01*
X130347Y556889D01*
X130604Y556898D01*
X130931Y556882D01*
X131239Y556832D01*
X131527Y556750D01*
X131797Y556635D01*
X132048Y556487D01*
X132280Y556306D01*
X132493Y556093D01*
X132687Y555846D01*
X132860Y555570D01*
X133010Y555267D01*
X133137Y554937D01*
X133240Y554580D01*
X133321Y554196D01*
X133379Y553785D01*
X133413Y553348D01*
X133425Y552884D01*
X133415Y552452D01*
X133386Y552043D01*
X133338Y551657D01*
X133271Y551295D01*
X133184Y550956D01*
X133078Y550640D01*
X132952Y550348D01*
X132808Y550079D01*
X132644Y549833D01*
X132460Y549611D01*
X132258Y549412D01*
X132036Y549236D01*
X131795Y549083D01*
X131535Y548954D01*
X131255Y548849D01*
X130956Y548766D01*
G37*
G36*
X133287Y568241D02*
X123569Y568241D01*
X123569Y569558D01*
X133287Y569558D01*
X133287Y568241D01*
G37*
G36*
X130853Y442564D02*
X130529Y444184D01*
X130797Y444264D01*
X131048Y444364D01*
X131280Y444483D01*
X131493Y444622D01*
X131688Y444781D01*
X131865Y444960D01*
X132023Y445158D01*
X132162Y445376D01*
X132284Y445614D01*
X132390Y445872D01*
X132480Y446151D01*
X132553Y446451D01*
X132610Y446771D01*
X132651Y447111D01*
X132675Y447473D01*
X132683Y447854D01*
X132674Y448248D01*
X132648Y448618D01*
X132605Y448965D01*
X132544Y449290D01*
X132466Y449591D01*
X132370Y449868D01*
X132257Y450123D01*
X132127Y450355D01*
X131980Y450561D01*
X131816Y450740D01*
X131637Y450891D01*
X131441Y451015D01*
X131228Y451111D01*
X131000Y451180D01*
X130755Y451221D01*
X130494Y451235D01*
X130206Y451218D01*
X129946Y451166D01*
X129715Y451080D01*
X129513Y450959D01*
X129332Y450807D01*
X129169Y450627D01*
X129022Y450420D01*
X128891Y450184D01*
X128773Y449922D01*
X128665Y449637D01*
X128567Y449327D01*
X128479Y448993D01*
X128120Y447460D01*
X127958Y446773D01*
X127796Y446174D01*
X127634Y445663D01*
X127472Y445240D01*
X127305Y444881D01*
X127129Y444562D01*
X126944Y444283D01*
X126749Y444044D01*
X126542Y443838D01*
X126317Y443658D01*
X126075Y443503D01*
X125816Y443374D01*
X125539Y443273D01*
X125243Y443200D01*
X124926Y443157D01*
X124590Y443142D01*
X124205Y443161D01*
X123843Y443218D01*
X123504Y443313D01*
X123187Y443445D01*
X122893Y443616D01*
X122621Y443824D01*
X122373Y444071D01*
X122147Y444355D01*
X121945Y444675D01*
X121771Y445027D01*
X121624Y445412D01*
X121503Y445830D01*
X121409Y446280D01*
X121342Y446763D01*
X121302Y447279D01*
X121288Y447828D01*
X121298Y448338D01*
X121329Y448817D01*
X121379Y449265D01*
X121449Y449683D01*
X121540Y450069D01*
X121650Y450424D01*
X121781Y450749D01*
X121932Y451042D01*
X122107Y451310D01*
X122311Y451557D01*
X122542Y451783D01*
X122802Y451988D01*
X123091Y452173D01*
X123408Y452336D01*
X123753Y452479D01*
X124126Y452601D01*
X124415Y450955D01*
X124178Y450879D01*
X123958Y450788D01*
X123755Y450682D01*
X123569Y450561D01*
X123399Y450424D01*
X123247Y450272D01*
X123111Y450104D01*
X122992Y449921D01*
X122888Y449722D01*
X122798Y449504D01*
X122722Y449267D01*
X122660Y449013D01*
X122612Y448740D01*
X122577Y448448D01*
X122556Y448138D01*
X122550Y447810D01*
X122557Y447451D01*
X122580Y447114D01*
X122619Y446799D01*
X122672Y446505D01*
X122741Y446234D01*
X122825Y445984D01*
X122925Y445757D01*
X123040Y445551D01*
X123170Y445368D01*
X123315Y445210D01*
X123476Y445076D01*
X123651Y444966D01*
X123841Y444881D01*
X124047Y444820D01*
X124267Y444783D01*
X124503Y444771D01*
X124775Y444790D01*
X125023Y444847D01*
X125246Y444941D01*
X125444Y445073D01*
X125623Y445241D01*
X125788Y445442D01*
X125939Y445677D01*
X126075Y445945D01*
X126211Y446300D01*
X126363Y446797D01*
X126529Y447434D01*
X126710Y448213D01*
X126977Y449348D01*
X127126Y449900D01*
X127301Y450429D01*
X127506Y450930D01*
X127743Y451397D01*
X127877Y451615D01*
X128026Y451819D01*
X128188Y452007D01*
X128365Y452181D01*
X128557Y452338D01*
X128766Y452478D01*
X128991Y452599D01*
X129232Y452702D01*
X129493Y452784D01*
X129775Y452843D01*
X130080Y452879D01*
X130406Y452890D01*
X130821Y452869D01*
X131212Y452807D01*
X131579Y452703D01*
X131921Y452556D01*
X132240Y452369D01*
X132534Y452139D01*
X132805Y451868D01*
X133051Y451555D01*
X133271Y451204D01*
X133461Y450819D01*
X133622Y450400D01*
X133754Y449946D01*
X133856Y449459D01*
X133930Y448938D01*
X133974Y448382D01*
X133988Y447793D01*
X133976Y447244D01*
X133939Y446724D01*
X133878Y446235D01*
X133792Y445775D01*
X133682Y445344D01*
X133547Y444943D01*
X133388Y444572D01*
X133204Y444230D01*
X132996Y443918D01*
X132763Y443636D01*
X132506Y443383D01*
X132224Y443160D01*
X131918Y442967D01*
X131588Y442803D01*
X131232Y442669D01*
X130853Y442564D01*
G37*
G36*
X130853Y454533D02*
X130529Y456153D01*
X130797Y456233D01*
X131048Y456333D01*
X131280Y456452D01*
X131493Y456591D01*
X131688Y456750D01*
X131865Y456928D01*
X132023Y457126D01*
X132162Y457344D01*
X132284Y457582D01*
X132390Y457841D01*
X132480Y458120D01*
X132553Y458419D01*
X132610Y458739D01*
X132651Y459080D01*
X132675Y459441D01*
X132683Y459823D01*
X132674Y460216D01*
X132648Y460587D01*
X132605Y460934D01*
X132544Y461258D01*
X132466Y461559D01*
X132370Y461837D01*
X132257Y462092D01*
X132127Y462324D01*
X131980Y462530D01*
X131816Y462709D01*
X131637Y462860D01*
X131441Y462984D01*
X131228Y463080D01*
X131000Y463149D01*
X130755Y463190D01*
X130494Y463204D01*
X130206Y463187D01*
X129946Y463135D01*
X129715Y463049D01*
X129513Y462928D01*
X129332Y462776D01*
X129169Y462596D01*
X129022Y462388D01*
X128891Y462153D01*
X128773Y461891D01*
X128665Y461605D01*
X128567Y461295D01*
X128479Y460962D01*
X128120Y459429D01*
X127958Y458742D01*
X127796Y458142D01*
X127634Y457631D01*
X127472Y457209D01*
X127305Y456850D01*
X127129Y456531D01*
X126944Y456252D01*
X126749Y456013D01*
X126542Y455807D01*
X126317Y455627D01*
X126075Y455472D01*
X125816Y455343D01*
X125539Y455241D01*
X125243Y455169D01*
X124926Y455125D01*
X124590Y455111D01*
X124205Y455130D01*
X123843Y455187D01*
X123504Y455281D01*
X123187Y455414D01*
X122893Y455585D01*
X122621Y455793D01*
X122373Y456040D01*
X122147Y456324D01*
X121945Y456644D01*
X121771Y456996D01*
X121624Y457381D01*
X121503Y457799D01*
X121409Y458249D01*
X121342Y458732D01*
X121302Y459248D01*
X121288Y459797D01*
X121298Y460307D01*
X121329Y460786D01*
X121379Y461234D01*
X121449Y461651D01*
X121540Y462038D01*
X121650Y462393D01*
X121781Y462718D01*
X121932Y463011D01*
X122107Y463279D01*
X122311Y463526D01*
X122542Y463752D01*
X122802Y463957D01*
X123091Y464141D01*
X123408Y464305D01*
X123753Y464448D01*
X124126Y464570D01*
X124415Y462923D01*
X124178Y462848D01*
X123958Y462757D01*
X123755Y462651D01*
X123569Y462529D01*
X123399Y462392D01*
X123247Y462240D01*
X123111Y462073D01*
X122992Y461890D01*
X122888Y461690D01*
X122798Y461472D01*
X122722Y461236D01*
X122660Y460981D01*
X122612Y460708D01*
X122577Y460417D01*
X122556Y460107D01*
X122550Y459779D01*
X122557Y459420D01*
X122580Y459083D01*
X122619Y458768D01*
X122672Y458474D01*
X122741Y458203D01*
X122825Y457953D01*
X122925Y457725D01*
X123040Y457519D01*
X123170Y457337D01*
X123315Y457178D01*
X123476Y457044D01*
X123651Y456935D01*
X123841Y456850D01*
X124047Y456789D01*
X124267Y456752D01*
X124503Y456740D01*
X124775Y456759D01*
X125023Y456815D01*
X125246Y456910D01*
X125444Y457042D01*
X125623Y457210D01*
X125788Y457411D01*
X125939Y457646D01*
X126075Y457914D01*
X126211Y458269D01*
X126363Y458765D01*
X126529Y459403D01*
X126710Y460182D01*
X126977Y461316D01*
X127126Y461869D01*
X127301Y462398D01*
X127506Y462898D01*
X127743Y463366D01*
X127877Y463584D01*
X128026Y463787D01*
X128188Y463976D01*
X128365Y464150D01*
X128557Y464307D01*
X128766Y464446D01*
X128991Y464568D01*
X129232Y464671D01*
X129493Y464753D01*
X129775Y464812D01*
X130080Y464847D01*
X130406Y464859D01*
X130821Y464838D01*
X131212Y464776D01*
X131579Y464671D01*
X131921Y464525D01*
X132240Y464337D01*
X132534Y464108D01*
X132805Y463836D01*
X133051Y463523D01*
X133271Y463172D01*
X133461Y462787D01*
X133622Y462368D01*
X133754Y461915D01*
X133856Y461428D01*
X133930Y460907D01*
X133974Y460351D01*
X133988Y459762D01*
X133976Y459213D01*
X133939Y458693D01*
X133878Y458203D01*
X133792Y457743D01*
X133682Y457313D01*
X133547Y456912D01*
X133388Y456541D01*
X133204Y456199D01*
X132996Y455887D01*
X132763Y455605D01*
X132506Y455352D01*
X132224Y455129D01*
X131918Y454935D01*
X131588Y454772D01*
X131232Y454637D01*
X130853Y454533D01*
G37*
G36*
X168763Y435259D02*
X168305Y435271D01*
X167862Y435307D01*
X167435Y435368D01*
X167024Y435453D01*
X166628Y435562D01*
X166248Y435695D01*
X165884Y435852D01*
X165536Y436034D01*
X165205Y436238D01*
X164895Y436463D01*
X164605Y436709D01*
X164336Y436976D01*
X164086Y437263D01*
X163857Y437571D01*
X163649Y437900D01*
X163460Y438250D01*
X163293Y438618D01*
X163148Y439003D01*
X163025Y439405D01*
X162925Y439823D01*
X162847Y440258D01*
X162791Y440709D01*
X162757Y441177D01*
X162746Y441661D01*
X162752Y442025D01*
X162771Y442379D01*
X162802Y442723D01*
X162846Y443057D01*
X162902Y443381D01*
X162970Y443695D01*
X163051Y443999D01*
X163145Y444293D01*
X163251Y444577D01*
X163369Y444851D01*
X163643Y445369D01*
X163967Y445848D01*
X164340Y446286D01*
X164758Y446678D01*
X165214Y447018D01*
X165456Y447168D01*
X165708Y447305D01*
X165970Y447429D01*
X166241Y447540D01*
X166521Y447639D01*
X166812Y447723D01*
X167112Y447795D01*
X167421Y447854D01*
X167740Y447900D01*
X168069Y447933D01*
X168407Y447952D01*
X168755Y447959D01*
X169237Y447947D01*
X169699Y447911D01*
X170141Y447850D01*
X170563Y447766D01*
X170965Y447658D01*
X171346Y447525D01*
X171707Y447369D01*
X172048Y447188D01*
X172367Y446984D01*
X172665Y446756D01*
X172941Y446505D01*
X173195Y446231D01*
X173427Y445934D01*
X173637Y445613D01*
X173826Y445269D01*
X173992Y444902D01*
X172407Y444376D01*
X172291Y444638D01*
X172160Y444883D01*
X172012Y445113D01*
X171847Y445327D01*
X171667Y445525D01*
X171470Y445707D01*
X171257Y445873D01*
X171027Y446023D01*
X170784Y446157D01*
X170530Y446272D01*
X170265Y446370D01*
X169988Y446450D01*
X169701Y446512D01*
X169402Y446557D01*
X169093Y446583D01*
X168772Y446592D01*
X168274Y446572D01*
X167804Y446510D01*
X167363Y446407D01*
X166950Y446263D01*
X166566Y446077D01*
X166210Y445851D01*
X165883Y445583D01*
X165584Y445274D01*
X165317Y444929D01*
X165086Y444554D01*
X164890Y444148D01*
X164730Y443712D01*
X164605Y443245D01*
X164516Y442748D01*
X164463Y442220D01*
X164445Y441661D01*
X164464Y441108D01*
X164519Y440583D01*
X164612Y440085D01*
X164742Y439615D01*
X164909Y439173D01*
X165113Y438759D01*
X165354Y438372D01*
X165632Y438013D01*
X165942Y437690D01*
X166278Y437410D01*
X166640Y437173D01*
X167028Y436979D01*
X167442Y436828D01*
X167883Y436720D01*
X168349Y436655D01*
X168842Y436634D01*
X169161Y436644D01*
X169470Y436674D01*
X169769Y436724D01*
X170058Y436794D01*
X170337Y436885D01*
X170605Y436995D01*
X170864Y437125D01*
X171113Y437275D01*
X171351Y437446D01*
X171580Y437636D01*
X171798Y437847D01*
X172007Y438077D01*
X172205Y438328D01*
X172393Y438599D01*
X172571Y438889D01*
X172740Y439200D01*
X174106Y438517D01*
X173906Y438130D01*
X173686Y437768D01*
X173448Y437429D01*
X173190Y437113D01*
X172912Y436822D01*
X172616Y436555D01*
X172300Y436311D01*
X171965Y436091D01*
X171613Y435896D01*
X171247Y435727D01*
X170868Y435584D01*
X170474Y435467D01*
X170067Y435376D01*
X169647Y435311D01*
X169212Y435272D01*
X168763Y435259D01*
G37*
G36*
X179805Y435259D02*
X179348Y435272D01*
X178915Y435312D01*
X178506Y435378D01*
X178120Y435470D01*
X177758Y435589D01*
X177420Y435734D01*
X177105Y435906D01*
X176814Y436104D01*
X176549Y436328D01*
X176312Y436577D01*
X176104Y436852D01*
X175924Y437152D01*
X175772Y437477D01*
X175649Y437828D01*
X175554Y438203D01*
X175487Y438605D01*
X177116Y438753D01*
X177164Y438488D01*
X177227Y438240D01*
X177307Y438009D01*
X177403Y437796D01*
X177514Y437599D01*
X177642Y437419D01*
X177786Y437257D01*
X177946Y437111D01*
X178122Y436983D01*
X178314Y436872D01*
X178523Y436778D01*
X178747Y436701D01*
X178987Y436641D01*
X179244Y436598D01*
X179516Y436572D01*
X179805Y436564D01*
X180095Y436573D01*
X180369Y436601D01*
X180626Y436646D01*
X180868Y436711D01*
X181094Y436793D01*
X181304Y436894D01*
X181497Y437013D01*
X181675Y437151D01*
X181834Y437306D01*
X181972Y437480D01*
X182089Y437671D01*
X182184Y437880D01*
X182258Y438107D01*
X182311Y438351D01*
X182343Y438613D01*
X182354Y438894D01*
X182342Y439139D01*
X182305Y439370D01*
X182245Y439587D01*
X182160Y439790D01*
X182051Y439980D01*
X181918Y440156D01*
X181760Y440318D01*
X181579Y440466D01*
X181374Y440598D01*
X181148Y440713D01*
X180901Y440810D01*
X180632Y440889D01*
X180341Y440951D01*
X180029Y440995D01*
X179696Y441022D01*
X179341Y441031D01*
X178448Y441031D01*
X178448Y442397D01*
X179306Y442397D01*
X179621Y442406D01*
X179918Y442432D01*
X180196Y442476D01*
X180457Y442538D01*
X180699Y442618D01*
X180923Y442715D01*
X181128Y442830D01*
X181316Y442962D01*
X181483Y443110D01*
X181628Y443272D01*
X181751Y443447D01*
X181851Y443635D01*
X181929Y443837D01*
X181985Y444053D01*
X182019Y444283D01*
X182030Y444525D01*
X182021Y444766D01*
X181993Y444994D01*
X181948Y445209D01*
X181884Y445411D01*
X181802Y445600D01*
X181702Y445776D01*
X181584Y445939D01*
X181447Y446089D01*
X181293Y446223D01*
X181121Y446340D01*
X180931Y446438D01*
X180724Y446519D01*
X180499Y446582D01*
X180256Y446627D01*
X179996Y446653D01*
X179718Y446662D01*
X179463Y446654D01*
X179221Y446629D01*
X178992Y446587D01*
X178775Y446529D01*
X178570Y446454D01*
X178378Y446362D01*
X178199Y446253D01*
X178032Y446128D01*
X177879Y445988D01*
X177743Y445834D01*
X177624Y445666D01*
X177522Y445484D01*
X177437Y445289D01*
X177369Y445080D01*
X177317Y444858D01*
X177283Y444622D01*
X175697Y444744D01*
X175755Y445113D01*
X175842Y445460D01*
X175956Y445787D01*
X176099Y446093D01*
X176270Y446378D01*
X176470Y446643D01*
X176698Y446886D01*
X176954Y447109D01*
X177234Y447308D01*
X177534Y447481D01*
X177852Y447627D01*
X178190Y447746D01*
X178548Y447839D01*
X178924Y447906D01*
X179320Y447945D01*
X179735Y447959D01*
X180186Y447945D01*
X180612Y447905D01*
X181011Y447837D01*
X181385Y447743D01*
X181733Y447622D01*
X182055Y447473D01*
X182351Y447298D01*
X182621Y447096D01*
X182862Y446870D01*
X183071Y446622D01*
X183248Y446354D01*
X183393Y446064D01*
X183505Y445752D01*
X183586Y445420D01*
X183634Y445067D01*
X183650Y444692D01*
X183640Y444403D01*
X183609Y444128D01*
X183557Y443867D01*
X183485Y443620D01*
X183392Y443387D01*
X183278Y443167D01*
X183144Y442961D01*
X182989Y442769D01*
X182814Y442592D01*
X182621Y442429D01*
X182409Y442281D01*
X182178Y442149D01*
X181928Y442031D01*
X181659Y441928D01*
X181372Y441840D01*
X181066Y441766D01*
X181066Y441731D01*
X181403Y441684D01*
X181720Y441618D01*
X182018Y441531D01*
X182297Y441425D01*
X182557Y441299D01*
X182797Y441153D01*
X183019Y440988D01*
X183221Y440803D01*
X183402Y440602D01*
X183558Y440388D01*
X183691Y440162D01*
X183799Y439923D01*
X183883Y439671D01*
X183944Y439407D01*
X183980Y439130D01*
X183992Y438841D01*
X183975Y438426D01*
X183924Y438035D01*
X183839Y437669D01*
X183720Y437326D01*
X183567Y437007D01*
X183381Y436713D01*
X183160Y436442D01*
X182906Y436196D01*
X182620Y435976D01*
X182305Y435786D01*
X181961Y435625D01*
X181587Y435493D01*
X181185Y435391D01*
X180754Y435317D01*
X180294Y435274D01*
X179805Y435259D01*
G37*
G36*
X182520Y205434D02*
X181031Y205434D01*
X181031Y208228D01*
X175216Y208228D01*
X175216Y209454D01*
X180865Y217775D01*
X182520Y217775D01*
X182520Y209472D01*
X184254Y209472D01*
X184254Y208228D01*
X182520Y208228D01*
X182520Y205434D01*
G37*
%LPC*%
G36*
X181031Y209472D02*
X181031Y215997D01*
X180786Y215533D01*
X180445Y214955D01*
X177283Y210295D01*
X176810Y209647D01*
X176670Y209472D01*
X181031Y209472D01*
G37*
%LPD*%
G36*
X168763Y205259D02*
X168305Y205271D01*
X167862Y205307D01*
X167435Y205368D01*
X167024Y205453D01*
X166628Y205562D01*
X166248Y205695D01*
X165884Y205852D01*
X165536Y206034D01*
X165205Y206238D01*
X164895Y206463D01*
X164605Y206709D01*
X164336Y206976D01*
X164086Y207263D01*
X163857Y207571D01*
X163649Y207900D01*
X163460Y208250D01*
X163293Y208618D01*
X163148Y209003D01*
X163025Y209405D01*
X162925Y209823D01*
X162847Y210258D01*
X162791Y210709D01*
X162757Y211177D01*
X162746Y211661D01*
X162752Y212025D01*
X162771Y212379D01*
X162802Y212723D01*
X162846Y213057D01*
X162902Y213381D01*
X162970Y213695D01*
X163051Y213999D01*
X163145Y214293D01*
X163251Y214577D01*
X163369Y214851D01*
X163643Y215369D01*
X163967Y215848D01*
X164340Y216286D01*
X164758Y216678D01*
X165214Y217018D01*
X165456Y217168D01*
X165708Y217305D01*
X165970Y217429D01*
X166241Y217540D01*
X166521Y217639D01*
X166812Y217723D01*
X167112Y217795D01*
X167421Y217854D01*
X167740Y217900D01*
X168069Y217933D01*
X168407Y217952D01*
X168755Y217959D01*
X169237Y217947D01*
X169699Y217911D01*
X170141Y217850D01*
X170563Y217766D01*
X170965Y217658D01*
X171346Y217525D01*
X171707Y217369D01*
X172048Y217188D01*
X172367Y216984D01*
X172665Y216756D01*
X172941Y216505D01*
X173195Y216231D01*
X173427Y215934D01*
X173637Y215613D01*
X173826Y215269D01*
X173992Y214902D01*
X172407Y214376D01*
X172291Y214638D01*
X172160Y214883D01*
X172012Y215113D01*
X171847Y215327D01*
X171667Y215525D01*
X171470Y215707D01*
X171257Y215873D01*
X171027Y216023D01*
X170784Y216157D01*
X170530Y216272D01*
X170265Y216370D01*
X169988Y216450D01*
X169701Y216512D01*
X169402Y216557D01*
X169093Y216583D01*
X168772Y216592D01*
X168274Y216572D01*
X167804Y216510D01*
X167363Y216407D01*
X166950Y216263D01*
X166566Y216077D01*
X166210Y215851D01*
X165883Y215583D01*
X165584Y215274D01*
X165317Y214929D01*
X165086Y214554D01*
X164890Y214148D01*
X164730Y213712D01*
X164605Y213245D01*
X164516Y212748D01*
X164463Y212220D01*
X164445Y211661D01*
X164464Y211108D01*
X164519Y210583D01*
X164612Y210085D01*
X164742Y209615D01*
X164909Y209173D01*
X165113Y208759D01*
X165354Y208372D01*
X165632Y208013D01*
X165942Y207690D01*
X166278Y207410D01*
X166640Y207173D01*
X167028Y206979D01*
X167442Y206828D01*
X167883Y206720D01*
X168349Y206655D01*
X168842Y206634D01*
X169161Y206644D01*
X169470Y206674D01*
X169769Y206724D01*
X170058Y206794D01*
X170337Y206885D01*
X170605Y206995D01*
X170864Y207125D01*
X171113Y207275D01*
X171351Y207446D01*
X171580Y207636D01*
X171798Y207847D01*
X172007Y208077D01*
X172205Y208328D01*
X172393Y208599D01*
X172571Y208889D01*
X172740Y209200D01*
X174106Y208517D01*
X173906Y208130D01*
X173686Y207768D01*
X173448Y207429D01*
X173190Y207113D01*
X172912Y206822D01*
X172616Y206555D01*
X172300Y206311D01*
X171965Y206091D01*
X171613Y205896D01*
X171247Y205727D01*
X170868Y205584D01*
X170474Y205467D01*
X170067Y205376D01*
X169647Y205311D01*
X169212Y205272D01*
X168763Y205259D01*
G37*
D10*
X69000Y302217D02*
X35000Y302217D01*
X35000Y277783D02*
X69000Y277783D01*
X69000Y182217D02*
X35000Y182217D01*
X35000Y157783D02*
X69000Y157783D01*
D11*
X115322Y245000D02*
X115322Y260099D01*
X102924Y260099D01*
X102924Y245000D01*
X211248Y594678D02*
X226347Y594678D01*
X226347Y607076D01*
X211248Y607076D01*
X209148Y362851D02*
X224247Y362851D01*
X224247Y375249D01*
X209148Y375249D01*
D12*
X22724Y262530D03*
D11*
X33500Y263500D02*
X33500Y260030D01*
X33500Y263500D02*
X70500Y263500D01*
X70500Y248486D01*
X33500Y199970D02*
X33500Y196500D01*
X70500Y196500D01*
X70500Y211514D01*
D13*
X228140Y474950D02*
X228140Y545050D01*
X228140Y474950D02*
X158040Y474950D01*
X158040Y541500D01*
X161590Y545050D02*
X228140Y545050D01*
X161590Y545050D02*
X158040Y541500D01*
X162066Y537432D02*
X162068Y537551D01*
X162074Y537671D01*
X162084Y537790D01*
X162098Y537908D01*
X162116Y538026D01*
X162137Y538144D01*
X162163Y538260D01*
X162192Y538376D01*
X162226Y538491D01*
X162263Y538604D01*
X162304Y538716D01*
X162348Y538827D01*
X162396Y538937D01*
X162448Y539044D01*
X162503Y539150D01*
X162562Y539254D01*
X162625Y539356D01*
X162690Y539455D01*
X162759Y539553D01*
X162831Y539648D01*
X162906Y539741D01*
X162985Y539831D01*
X163066Y539919D01*
X163150Y540003D01*
X163237Y540085D01*
X163326Y540164D01*
X163418Y540240D01*
X163513Y540313D01*
X163610Y540383D01*
X163709Y540449D01*
X163811Y540512D01*
X163914Y540572D01*
X164019Y540628D01*
X164126Y540681D01*
X164235Y540730D01*
X164346Y540776D01*
X164458Y540817D01*
X164571Y540855D01*
X164685Y540890D01*
X164801Y540920D01*
X164917Y540947D01*
X165034Y540969D01*
X165152Y540988D01*
X165271Y541003D01*
X165390Y541014D01*
X165509Y541021D01*
X165628Y541024D01*
X165748Y541023D01*
X165867Y541018D01*
X165986Y541009D01*
X166105Y540996D01*
X166223Y540979D01*
X166340Y540959D01*
X166457Y540934D01*
X166573Y540905D01*
X166688Y540873D01*
X166802Y540837D01*
X166915Y540797D01*
X167026Y540753D01*
X167135Y540706D01*
X167243Y540655D01*
X167350Y540601D01*
X167454Y540543D01*
X167556Y540481D01*
X167657Y540417D01*
X167755Y540348D01*
X167851Y540277D01*
X167944Y540203D01*
X168035Y540125D01*
X168123Y540045D01*
X168208Y539961D01*
X168291Y539875D01*
X168371Y539786D01*
X168448Y539695D01*
X168521Y539601D01*
X168592Y539504D01*
X168659Y539406D01*
X168723Y539305D01*
X168784Y539202D01*
X168841Y539097D01*
X168894Y538991D01*
X168944Y538882D01*
X168991Y538772D01*
X169033Y538661D01*
X169072Y538548D01*
X169108Y538434D01*
X169139Y538318D01*
X169166Y538202D01*
X169190Y538085D01*
X169210Y537967D01*
X169226Y537849D01*
X169238Y537730D01*
X169246Y537611D01*
X169250Y537492D01*
X169250Y537372D01*
X169246Y537253D01*
X169238Y537134D01*
X169226Y537015D01*
X169210Y536897D01*
X169190Y536779D01*
X169166Y536662D01*
X169139Y536546D01*
X169108Y536430D01*
X169072Y536316D01*
X169033Y536203D01*
X168991Y536092D01*
X168944Y535982D01*
X168894Y535873D01*
X168841Y535767D01*
X168784Y535662D01*
X168723Y535559D01*
X168659Y535458D01*
X168592Y535360D01*
X168521Y535263D01*
X168448Y535169D01*
X168371Y535078D01*
X168291Y534989D01*
X168208Y534903D01*
X168123Y534819D01*
X168035Y534739D01*
X167944Y534661D01*
X167851Y534587D01*
X167755Y534516D01*
X167657Y534447D01*
X167556Y534383D01*
X167454Y534321D01*
X167350Y534263D01*
X167243Y534209D01*
X167135Y534158D01*
X167026Y534111D01*
X166915Y534067D01*
X166802Y534027D01*
X166688Y533991D01*
X166573Y533959D01*
X166457Y533930D01*
X166340Y533905D01*
X166223Y533885D01*
X166105Y533868D01*
X165986Y533855D01*
X165867Y533846D01*
X165748Y533841D01*
X165628Y533840D01*
X165509Y533843D01*
X165390Y533850D01*
X165271Y533861D01*
X165152Y533876D01*
X165034Y533895D01*
X164917Y533917D01*
X164801Y533944D01*
X164685Y533974D01*
X164571Y534009D01*
X164458Y534047D01*
X164346Y534088D01*
X164235Y534134D01*
X164126Y534183D01*
X164019Y534236D01*
X163914Y534292D01*
X163811Y534352D01*
X163709Y534415D01*
X163610Y534481D01*
X163513Y534551D01*
X163418Y534624D01*
X163326Y534700D01*
X163237Y534779D01*
X163150Y534861D01*
X163066Y534945D01*
X162985Y535033D01*
X162906Y535123D01*
X162831Y535216D01*
X162759Y535311D01*
X162690Y535409D01*
X162625Y535508D01*
X162562Y535610D01*
X162503Y535714D01*
X162448Y535820D01*
X162396Y535927D01*
X162348Y536037D01*
X162304Y536148D01*
X162263Y536260D01*
X162226Y536373D01*
X162192Y536488D01*
X162163Y536604D01*
X162137Y536720D01*
X162116Y536838D01*
X162098Y536956D01*
X162084Y537074D01*
X162074Y537193D01*
X162068Y537313D01*
X162066Y537432D01*
D12*
X470657Y607509D03*
D11*
X468757Y601600D02*
X468757Y535600D01*
X271243Y535600D02*
X271243Y601600D01*
D12*
X470657Y495242D03*
D11*
X468757Y489333D02*
X468757Y423333D01*
X271243Y423333D02*
X271243Y489333D01*
D13*
X228140Y315050D02*
X228140Y244950D01*
X158040Y244950D01*
X158040Y311500D01*
X161590Y315050D02*
X228140Y315050D01*
X161590Y315050D02*
X158040Y311500D01*
X162066Y307432D02*
X162068Y307551D01*
X162074Y307671D01*
X162084Y307790D01*
X162098Y307908D01*
X162116Y308026D01*
X162137Y308144D01*
X162163Y308260D01*
X162192Y308376D01*
X162226Y308491D01*
X162263Y308604D01*
X162304Y308716D01*
X162348Y308827D01*
X162396Y308937D01*
X162448Y309044D01*
X162503Y309150D01*
X162562Y309254D01*
X162625Y309356D01*
X162690Y309455D01*
X162759Y309553D01*
X162831Y309648D01*
X162906Y309741D01*
X162985Y309831D01*
X163066Y309919D01*
X163150Y310003D01*
X163237Y310085D01*
X163326Y310164D01*
X163418Y310240D01*
X163513Y310313D01*
X163610Y310383D01*
X163709Y310449D01*
X163811Y310512D01*
X163914Y310572D01*
X164019Y310628D01*
X164126Y310681D01*
X164235Y310730D01*
X164346Y310776D01*
X164458Y310817D01*
X164571Y310855D01*
X164685Y310890D01*
X164801Y310920D01*
X164917Y310947D01*
X165034Y310969D01*
X165152Y310988D01*
X165271Y311003D01*
X165390Y311014D01*
X165509Y311021D01*
X165628Y311024D01*
X165748Y311023D01*
X165867Y311018D01*
X165986Y311009D01*
X166105Y310996D01*
X166223Y310979D01*
X166340Y310959D01*
X166457Y310934D01*
X166573Y310905D01*
X166688Y310873D01*
X166802Y310837D01*
X166915Y310797D01*
X167026Y310753D01*
X167135Y310706D01*
X167243Y310655D01*
X167350Y310601D01*
X167454Y310543D01*
X167556Y310481D01*
X167657Y310417D01*
X167755Y310348D01*
X167851Y310277D01*
X167944Y310203D01*
X168035Y310125D01*
X168123Y310045D01*
X168208Y309961D01*
X168291Y309875D01*
X168371Y309786D01*
X168448Y309695D01*
X168521Y309601D01*
X168592Y309504D01*
X168659Y309406D01*
X168723Y309305D01*
X168784Y309202D01*
X168841Y309097D01*
X168894Y308991D01*
X168944Y308882D01*
X168991Y308772D01*
X169033Y308661D01*
X169072Y308548D01*
X169108Y308434D01*
X169139Y308318D01*
X169166Y308202D01*
X169190Y308085D01*
X169210Y307967D01*
X169226Y307849D01*
X169238Y307730D01*
X169246Y307611D01*
X169250Y307492D01*
X169250Y307372D01*
X169246Y307253D01*
X169238Y307134D01*
X169226Y307015D01*
X169210Y306897D01*
X169190Y306779D01*
X169166Y306662D01*
X169139Y306546D01*
X169108Y306430D01*
X169072Y306316D01*
X169033Y306203D01*
X168991Y306092D01*
X168944Y305982D01*
X168894Y305873D01*
X168841Y305767D01*
X168784Y305662D01*
X168723Y305559D01*
X168659Y305458D01*
X168592Y305360D01*
X168521Y305263D01*
X168448Y305169D01*
X168371Y305078D01*
X168291Y304989D01*
X168208Y304903D01*
X168123Y304819D01*
X168035Y304739D01*
X167944Y304661D01*
X167851Y304587D01*
X167755Y304516D01*
X167657Y304447D01*
X167556Y304383D01*
X167454Y304321D01*
X167350Y304263D01*
X167243Y304209D01*
X167135Y304158D01*
X167026Y304111D01*
X166915Y304067D01*
X166802Y304027D01*
X166688Y303991D01*
X166573Y303959D01*
X166457Y303930D01*
X166340Y303905D01*
X166223Y303885D01*
X166105Y303868D01*
X165986Y303855D01*
X165867Y303846D01*
X165748Y303841D01*
X165628Y303840D01*
X165509Y303843D01*
X165390Y303850D01*
X165271Y303861D01*
X165152Y303876D01*
X165034Y303895D01*
X164917Y303917D01*
X164801Y303944D01*
X164685Y303974D01*
X164571Y304009D01*
X164458Y304047D01*
X164346Y304088D01*
X164235Y304134D01*
X164126Y304183D01*
X164019Y304236D01*
X163914Y304292D01*
X163811Y304352D01*
X163709Y304415D01*
X163610Y304481D01*
X163513Y304551D01*
X163418Y304624D01*
X163326Y304700D01*
X163237Y304779D01*
X163150Y304861D01*
X163066Y304945D01*
X162985Y305033D01*
X162906Y305123D01*
X162831Y305216D01*
X162759Y305311D01*
X162690Y305409D01*
X162625Y305508D01*
X162562Y305610D01*
X162503Y305714D01*
X162448Y305820D01*
X162396Y305927D01*
X162348Y306037D01*
X162304Y306148D01*
X162263Y306260D01*
X162226Y306373D01*
X162192Y306488D01*
X162163Y306604D01*
X162137Y306720D01*
X162116Y306838D01*
X162098Y306956D01*
X162084Y307074D01*
X162074Y307193D01*
X162068Y307313D01*
X162066Y307432D01*
D12*
X470657Y382976D03*
D11*
X468757Y377067D02*
X468757Y311067D01*
X271243Y311067D02*
X271243Y377067D01*
D12*
X470657Y270709D03*
D11*
X468757Y264800D02*
X468757Y198800D01*
X271243Y198800D02*
X271243Y264800D01*
D10*
X514800Y656000D02*
X629800Y656000D01*
X629800Y730000D01*
X514800Y730000D01*
X514800Y656000D01*
D14*
X536800Y650500D02*
X536802Y650563D01*
X536808Y650625D01*
X536818Y650687D01*
X536831Y650749D01*
X536849Y650809D01*
X536870Y650868D01*
X536895Y650926D01*
X536924Y650982D01*
X536956Y651036D01*
X536991Y651088D01*
X537029Y651137D01*
X537071Y651185D01*
X537115Y651229D01*
X537163Y651271D01*
X537212Y651309D01*
X537264Y651344D01*
X537318Y651376D01*
X537374Y651405D01*
X537432Y651430D01*
X537491Y651451D01*
X537551Y651469D01*
X537613Y651482D01*
X537675Y651492D01*
X537737Y651498D01*
X537800Y651500D01*
X537863Y651498D01*
X537925Y651492D01*
X537987Y651482D01*
X538049Y651469D01*
X538109Y651451D01*
X538168Y651430D01*
X538226Y651405D01*
X538282Y651376D01*
X538336Y651344D01*
X538388Y651309D01*
X538437Y651271D01*
X538485Y651229D01*
X538529Y651185D01*
X538571Y651137D01*
X538609Y651088D01*
X538644Y651036D01*
X538676Y650982D01*
X538705Y650926D01*
X538730Y650868D01*
X538751Y650809D01*
X538769Y650749D01*
X538782Y650687D01*
X538792Y650625D01*
X538798Y650563D01*
X538800Y650500D01*
X538798Y650437D01*
X538792Y650375D01*
X538782Y650313D01*
X538769Y650251D01*
X538751Y650191D01*
X538730Y650132D01*
X538705Y650074D01*
X538676Y650018D01*
X538644Y649964D01*
X538609Y649912D01*
X538571Y649863D01*
X538529Y649815D01*
X538485Y649771D01*
X538437Y649729D01*
X538388Y649691D01*
X538336Y649656D01*
X538282Y649624D01*
X538226Y649595D01*
X538168Y649570D01*
X538109Y649549D01*
X538049Y649531D01*
X537987Y649518D01*
X537925Y649508D01*
X537863Y649502D01*
X537800Y649500D01*
X537737Y649502D01*
X537675Y649508D01*
X537613Y649518D01*
X537551Y649531D01*
X537491Y649549D01*
X537432Y649570D01*
X537374Y649595D01*
X537318Y649624D01*
X537264Y649656D01*
X537212Y649691D01*
X537163Y649729D01*
X537115Y649771D01*
X537071Y649815D01*
X537029Y649863D01*
X536991Y649912D01*
X536956Y649964D01*
X536924Y650018D01*
X536895Y650074D01*
X536870Y650132D01*
X536849Y650191D01*
X536831Y650251D01*
X536818Y650313D01*
X536808Y650375D01*
X536802Y650437D01*
X536800Y650500D01*
D10*
X514800Y571700D02*
X629800Y571700D01*
X629800Y645700D01*
X514800Y645700D01*
X514800Y571700D01*
D14*
X536800Y566200D02*
X536802Y566263D01*
X536808Y566325D01*
X536818Y566387D01*
X536831Y566449D01*
X536849Y566509D01*
X536870Y566568D01*
X536895Y566626D01*
X536924Y566682D01*
X536956Y566736D01*
X536991Y566788D01*
X537029Y566837D01*
X537071Y566885D01*
X537115Y566929D01*
X537163Y566971D01*
X537212Y567009D01*
X537264Y567044D01*
X537318Y567076D01*
X537374Y567105D01*
X537432Y567130D01*
X537491Y567151D01*
X537551Y567169D01*
X537613Y567182D01*
X537675Y567192D01*
X537737Y567198D01*
X537800Y567200D01*
X537863Y567198D01*
X537925Y567192D01*
X537987Y567182D01*
X538049Y567169D01*
X538109Y567151D01*
X538168Y567130D01*
X538226Y567105D01*
X538282Y567076D01*
X538336Y567044D01*
X538388Y567009D01*
X538437Y566971D01*
X538485Y566929D01*
X538529Y566885D01*
X538571Y566837D01*
X538609Y566788D01*
X538644Y566736D01*
X538676Y566682D01*
X538705Y566626D01*
X538730Y566568D01*
X538751Y566509D01*
X538769Y566449D01*
X538782Y566387D01*
X538792Y566325D01*
X538798Y566263D01*
X538800Y566200D01*
X538798Y566137D01*
X538792Y566075D01*
X538782Y566013D01*
X538769Y565951D01*
X538751Y565891D01*
X538730Y565832D01*
X538705Y565774D01*
X538676Y565718D01*
X538644Y565664D01*
X538609Y565612D01*
X538571Y565563D01*
X538529Y565515D01*
X538485Y565471D01*
X538437Y565429D01*
X538388Y565391D01*
X538336Y565356D01*
X538282Y565324D01*
X538226Y565295D01*
X538168Y565270D01*
X538109Y565249D01*
X538049Y565231D01*
X537987Y565218D01*
X537925Y565208D01*
X537863Y565202D01*
X537800Y565200D01*
X537737Y565202D01*
X537675Y565208D01*
X537613Y565218D01*
X537551Y565231D01*
X537491Y565249D01*
X537432Y565270D01*
X537374Y565295D01*
X537318Y565324D01*
X537264Y565356D01*
X537212Y565391D01*
X537163Y565429D01*
X537115Y565471D01*
X537071Y565515D01*
X537029Y565563D01*
X536991Y565612D01*
X536956Y565664D01*
X536924Y565718D01*
X536895Y565774D01*
X536870Y565832D01*
X536849Y565891D01*
X536831Y565951D01*
X536818Y566013D01*
X536808Y566075D01*
X536802Y566137D01*
X536800Y566200D01*
D10*
X514800Y487400D02*
X629800Y487400D01*
X629800Y561400D01*
X514800Y561400D01*
X514800Y487400D01*
D14*
X536800Y481900D02*
X536802Y481963D01*
X536808Y482025D01*
X536818Y482087D01*
X536831Y482149D01*
X536849Y482209D01*
X536870Y482268D01*
X536895Y482326D01*
X536924Y482382D01*
X536956Y482436D01*
X536991Y482488D01*
X537029Y482537D01*
X537071Y482585D01*
X537115Y482629D01*
X537163Y482671D01*
X537212Y482709D01*
X537264Y482744D01*
X537318Y482776D01*
X537374Y482805D01*
X537432Y482830D01*
X537491Y482851D01*
X537551Y482869D01*
X537613Y482882D01*
X537675Y482892D01*
X537737Y482898D01*
X537800Y482900D01*
X537863Y482898D01*
X537925Y482892D01*
X537987Y482882D01*
X538049Y482869D01*
X538109Y482851D01*
X538168Y482830D01*
X538226Y482805D01*
X538282Y482776D01*
X538336Y482744D01*
X538388Y482709D01*
X538437Y482671D01*
X538485Y482629D01*
X538529Y482585D01*
X538571Y482537D01*
X538609Y482488D01*
X538644Y482436D01*
X538676Y482382D01*
X538705Y482326D01*
X538730Y482268D01*
X538751Y482209D01*
X538769Y482149D01*
X538782Y482087D01*
X538792Y482025D01*
X538798Y481963D01*
X538800Y481900D01*
X538798Y481837D01*
X538792Y481775D01*
X538782Y481713D01*
X538769Y481651D01*
X538751Y481591D01*
X538730Y481532D01*
X538705Y481474D01*
X538676Y481418D01*
X538644Y481364D01*
X538609Y481312D01*
X538571Y481263D01*
X538529Y481215D01*
X538485Y481171D01*
X538437Y481129D01*
X538388Y481091D01*
X538336Y481056D01*
X538282Y481024D01*
X538226Y480995D01*
X538168Y480970D01*
X538109Y480949D01*
X538049Y480931D01*
X537987Y480918D01*
X537925Y480908D01*
X537863Y480902D01*
X537800Y480900D01*
X537737Y480902D01*
X537675Y480908D01*
X537613Y480918D01*
X537551Y480931D01*
X537491Y480949D01*
X537432Y480970D01*
X537374Y480995D01*
X537318Y481024D01*
X537264Y481056D01*
X537212Y481091D01*
X537163Y481129D01*
X537115Y481171D01*
X537071Y481215D01*
X537029Y481263D01*
X536991Y481312D01*
X536956Y481364D01*
X536924Y481418D01*
X536895Y481474D01*
X536870Y481532D01*
X536849Y481591D01*
X536831Y481651D01*
X536818Y481713D01*
X536808Y481775D01*
X536802Y481837D01*
X536800Y481900D01*
D10*
X514800Y403100D02*
X629800Y403100D01*
X629800Y477100D01*
X514800Y477100D01*
X514800Y403100D01*
D14*
X536800Y397600D02*
X536802Y397663D01*
X536808Y397725D01*
X536818Y397787D01*
X536831Y397849D01*
X536849Y397909D01*
X536870Y397968D01*
X536895Y398026D01*
X536924Y398082D01*
X536956Y398136D01*
X536991Y398188D01*
X537029Y398237D01*
X537071Y398285D01*
X537115Y398329D01*
X537163Y398371D01*
X537212Y398409D01*
X537264Y398444D01*
X537318Y398476D01*
X537374Y398505D01*
X537432Y398530D01*
X537491Y398551D01*
X537551Y398569D01*
X537613Y398582D01*
X537675Y398592D01*
X537737Y398598D01*
X537800Y398600D01*
X537863Y398598D01*
X537925Y398592D01*
X537987Y398582D01*
X538049Y398569D01*
X538109Y398551D01*
X538168Y398530D01*
X538226Y398505D01*
X538282Y398476D01*
X538336Y398444D01*
X538388Y398409D01*
X538437Y398371D01*
X538485Y398329D01*
X538529Y398285D01*
X538571Y398237D01*
X538609Y398188D01*
X538644Y398136D01*
X538676Y398082D01*
X538705Y398026D01*
X538730Y397968D01*
X538751Y397909D01*
X538769Y397849D01*
X538782Y397787D01*
X538792Y397725D01*
X538798Y397663D01*
X538800Y397600D01*
X538798Y397537D01*
X538792Y397475D01*
X538782Y397413D01*
X538769Y397351D01*
X538751Y397291D01*
X538730Y397232D01*
X538705Y397174D01*
X538676Y397118D01*
X538644Y397064D01*
X538609Y397012D01*
X538571Y396963D01*
X538529Y396915D01*
X538485Y396871D01*
X538437Y396829D01*
X538388Y396791D01*
X538336Y396756D01*
X538282Y396724D01*
X538226Y396695D01*
X538168Y396670D01*
X538109Y396649D01*
X538049Y396631D01*
X537987Y396618D01*
X537925Y396608D01*
X537863Y396602D01*
X537800Y396600D01*
X537737Y396602D01*
X537675Y396608D01*
X537613Y396618D01*
X537551Y396631D01*
X537491Y396649D01*
X537432Y396670D01*
X537374Y396695D01*
X537318Y396724D01*
X537264Y396756D01*
X537212Y396791D01*
X537163Y396829D01*
X537115Y396871D01*
X537071Y396915D01*
X537029Y396963D01*
X536991Y397012D01*
X536956Y397064D01*
X536924Y397118D01*
X536895Y397174D01*
X536870Y397232D01*
X536849Y397291D01*
X536831Y397351D01*
X536818Y397413D01*
X536808Y397475D01*
X536802Y397537D01*
X536800Y397600D01*
D10*
X514800Y318800D02*
X629800Y318800D01*
X629800Y392800D01*
X514800Y392800D01*
X514800Y318800D01*
D14*
X536800Y313300D02*
X536802Y313363D01*
X536808Y313425D01*
X536818Y313487D01*
X536831Y313549D01*
X536849Y313609D01*
X536870Y313668D01*
X536895Y313726D01*
X536924Y313782D01*
X536956Y313836D01*
X536991Y313888D01*
X537029Y313937D01*
X537071Y313985D01*
X537115Y314029D01*
X537163Y314071D01*
X537212Y314109D01*
X537264Y314144D01*
X537318Y314176D01*
X537374Y314205D01*
X537432Y314230D01*
X537491Y314251D01*
X537551Y314269D01*
X537613Y314282D01*
X537675Y314292D01*
X537737Y314298D01*
X537800Y314300D01*
X537863Y314298D01*
X537925Y314292D01*
X537987Y314282D01*
X538049Y314269D01*
X538109Y314251D01*
X538168Y314230D01*
X538226Y314205D01*
X538282Y314176D01*
X538336Y314144D01*
X538388Y314109D01*
X538437Y314071D01*
X538485Y314029D01*
X538529Y313985D01*
X538571Y313937D01*
X538609Y313888D01*
X538644Y313836D01*
X538676Y313782D01*
X538705Y313726D01*
X538730Y313668D01*
X538751Y313609D01*
X538769Y313549D01*
X538782Y313487D01*
X538792Y313425D01*
X538798Y313363D01*
X538800Y313300D01*
X538798Y313237D01*
X538792Y313175D01*
X538782Y313113D01*
X538769Y313051D01*
X538751Y312991D01*
X538730Y312932D01*
X538705Y312874D01*
X538676Y312818D01*
X538644Y312764D01*
X538609Y312712D01*
X538571Y312663D01*
X538529Y312615D01*
X538485Y312571D01*
X538437Y312529D01*
X538388Y312491D01*
X538336Y312456D01*
X538282Y312424D01*
X538226Y312395D01*
X538168Y312370D01*
X538109Y312349D01*
X538049Y312331D01*
X537987Y312318D01*
X537925Y312308D01*
X537863Y312302D01*
X537800Y312300D01*
X537737Y312302D01*
X537675Y312308D01*
X537613Y312318D01*
X537551Y312331D01*
X537491Y312349D01*
X537432Y312370D01*
X537374Y312395D01*
X537318Y312424D01*
X537264Y312456D01*
X537212Y312491D01*
X537163Y312529D01*
X537115Y312571D01*
X537071Y312615D01*
X537029Y312663D01*
X536991Y312712D01*
X536956Y312764D01*
X536924Y312818D01*
X536895Y312874D01*
X536870Y312932D01*
X536849Y312991D01*
X536831Y313051D01*
X536818Y313113D01*
X536808Y313175D01*
X536802Y313237D01*
X536800Y313300D01*
D10*
X514800Y234500D02*
X629800Y234500D01*
X629800Y308500D01*
X514800Y308500D01*
X514800Y234500D01*
D14*
X536800Y229000D02*
X536802Y229063D01*
X536808Y229125D01*
X536818Y229187D01*
X536831Y229249D01*
X536849Y229309D01*
X536870Y229368D01*
X536895Y229426D01*
X536924Y229482D01*
X536956Y229536D01*
X536991Y229588D01*
X537029Y229637D01*
X537071Y229685D01*
X537115Y229729D01*
X537163Y229771D01*
X537212Y229809D01*
X537264Y229844D01*
X537318Y229876D01*
X537374Y229905D01*
X537432Y229930D01*
X537491Y229951D01*
X537551Y229969D01*
X537613Y229982D01*
X537675Y229992D01*
X537737Y229998D01*
X537800Y230000D01*
X537863Y229998D01*
X537925Y229992D01*
X537987Y229982D01*
X538049Y229969D01*
X538109Y229951D01*
X538168Y229930D01*
X538226Y229905D01*
X538282Y229876D01*
X538336Y229844D01*
X538388Y229809D01*
X538437Y229771D01*
X538485Y229729D01*
X538529Y229685D01*
X538571Y229637D01*
X538609Y229588D01*
X538644Y229536D01*
X538676Y229482D01*
X538705Y229426D01*
X538730Y229368D01*
X538751Y229309D01*
X538769Y229249D01*
X538782Y229187D01*
X538792Y229125D01*
X538798Y229063D01*
X538800Y229000D01*
X538798Y228937D01*
X538792Y228875D01*
X538782Y228813D01*
X538769Y228751D01*
X538751Y228691D01*
X538730Y228632D01*
X538705Y228574D01*
X538676Y228518D01*
X538644Y228464D01*
X538609Y228412D01*
X538571Y228363D01*
X538529Y228315D01*
X538485Y228271D01*
X538437Y228229D01*
X538388Y228191D01*
X538336Y228156D01*
X538282Y228124D01*
X538226Y228095D01*
X538168Y228070D01*
X538109Y228049D01*
X538049Y228031D01*
X537987Y228018D01*
X537925Y228008D01*
X537863Y228002D01*
X537800Y228000D01*
X537737Y228002D01*
X537675Y228008D01*
X537613Y228018D01*
X537551Y228031D01*
X537491Y228049D01*
X537432Y228070D01*
X537374Y228095D01*
X537318Y228124D01*
X537264Y228156D01*
X537212Y228191D01*
X537163Y228229D01*
X537115Y228271D01*
X537071Y228315D01*
X537029Y228363D01*
X536991Y228412D01*
X536956Y228464D01*
X536924Y228518D01*
X536895Y228574D01*
X536870Y228632D01*
X536849Y228691D01*
X536831Y228751D01*
X536818Y228813D01*
X536808Y228875D01*
X536802Y228937D01*
X536800Y229000D01*
D10*
X514800Y150200D02*
X629800Y150200D01*
X629800Y224200D01*
X514800Y224200D01*
X514800Y150200D01*
D14*
X536800Y144700D02*
X536802Y144763D01*
X536808Y144825D01*
X536818Y144887D01*
X536831Y144949D01*
X536849Y145009D01*
X536870Y145068D01*
X536895Y145126D01*
X536924Y145182D01*
X536956Y145236D01*
X536991Y145288D01*
X537029Y145337D01*
X537071Y145385D01*
X537115Y145429D01*
X537163Y145471D01*
X537212Y145509D01*
X537264Y145544D01*
X537318Y145576D01*
X537374Y145605D01*
X537432Y145630D01*
X537491Y145651D01*
X537551Y145669D01*
X537613Y145682D01*
X537675Y145692D01*
X537737Y145698D01*
X537800Y145700D01*
X537863Y145698D01*
X537925Y145692D01*
X537987Y145682D01*
X538049Y145669D01*
X538109Y145651D01*
X538168Y145630D01*
X538226Y145605D01*
X538282Y145576D01*
X538336Y145544D01*
X538388Y145509D01*
X538437Y145471D01*
X538485Y145429D01*
X538529Y145385D01*
X538571Y145337D01*
X538609Y145288D01*
X538644Y145236D01*
X538676Y145182D01*
X538705Y145126D01*
X538730Y145068D01*
X538751Y145009D01*
X538769Y144949D01*
X538782Y144887D01*
X538792Y144825D01*
X538798Y144763D01*
X538800Y144700D01*
X538798Y144637D01*
X538792Y144575D01*
X538782Y144513D01*
X538769Y144451D01*
X538751Y144391D01*
X538730Y144332D01*
X538705Y144274D01*
X538676Y144218D01*
X538644Y144164D01*
X538609Y144112D01*
X538571Y144063D01*
X538529Y144015D01*
X538485Y143971D01*
X538437Y143929D01*
X538388Y143891D01*
X538336Y143856D01*
X538282Y143824D01*
X538226Y143795D01*
X538168Y143770D01*
X538109Y143749D01*
X538049Y143731D01*
X537987Y143718D01*
X537925Y143708D01*
X537863Y143702D01*
X537800Y143700D01*
X537737Y143702D01*
X537675Y143708D01*
X537613Y143718D01*
X537551Y143731D01*
X537491Y143749D01*
X537432Y143770D01*
X537374Y143795D01*
X537318Y143824D01*
X537264Y143856D01*
X537212Y143891D01*
X537163Y143929D01*
X537115Y143971D01*
X537071Y144015D01*
X537029Y144063D01*
X536991Y144112D01*
X536956Y144164D01*
X536924Y144218D01*
X536895Y144274D01*
X536870Y144332D01*
X536849Y144391D01*
X536831Y144451D01*
X536818Y144513D01*
X536808Y144575D01*
X536802Y144637D01*
X536800Y144700D01*
D10*
X514800Y65900D02*
X629800Y65900D01*
X629800Y139900D01*
X514800Y139900D01*
X514800Y65900D01*
D14*
X536800Y60400D02*
X536802Y60463D01*
X536808Y60525D01*
X536818Y60587D01*
X536831Y60649D01*
X536849Y60709D01*
X536870Y60768D01*
X536895Y60826D01*
X536924Y60882D01*
X536956Y60936D01*
X536991Y60988D01*
X537029Y61037D01*
X537071Y61085D01*
X537115Y61129D01*
X537163Y61171D01*
X537212Y61209D01*
X537264Y61244D01*
X537318Y61276D01*
X537374Y61305D01*
X537432Y61330D01*
X537491Y61351D01*
X537551Y61369D01*
X537613Y61382D01*
X537675Y61392D01*
X537737Y61398D01*
X537800Y61400D01*
X537863Y61398D01*
X537925Y61392D01*
X537987Y61382D01*
X538049Y61369D01*
X538109Y61351D01*
X538168Y61330D01*
X538226Y61305D01*
X538282Y61276D01*
X538336Y61244D01*
X538388Y61209D01*
X538437Y61171D01*
X538485Y61129D01*
X538529Y61085D01*
X538571Y61037D01*
X538609Y60988D01*
X538644Y60936D01*
X538676Y60882D01*
X538705Y60826D01*
X538730Y60768D01*
X538751Y60709D01*
X538769Y60649D01*
X538782Y60587D01*
X538792Y60525D01*
X538798Y60463D01*
X538800Y60400D01*
X538798Y60337D01*
X538792Y60275D01*
X538782Y60213D01*
X538769Y60151D01*
X538751Y60091D01*
X538730Y60032D01*
X538705Y59974D01*
X538676Y59918D01*
X538644Y59864D01*
X538609Y59812D01*
X538571Y59763D01*
X538529Y59715D01*
X538485Y59671D01*
X538437Y59629D01*
X538388Y59591D01*
X538336Y59556D01*
X538282Y59524D01*
X538226Y59495D01*
X538168Y59470D01*
X538109Y59449D01*
X538049Y59431D01*
X537987Y59418D01*
X537925Y59408D01*
X537863Y59402D01*
X537800Y59400D01*
X537737Y59402D01*
X537675Y59408D01*
X537613Y59418D01*
X537551Y59431D01*
X537491Y59449D01*
X537432Y59470D01*
X537374Y59495D01*
X537318Y59524D01*
X537264Y59556D01*
X537212Y59591D01*
X537163Y59629D01*
X537115Y59671D01*
X537071Y59715D01*
X537029Y59763D01*
X536991Y59812D01*
X536956Y59864D01*
X536924Y59918D01*
X536895Y59974D01*
X536870Y60032D01*
X536849Y60091D01*
X536831Y60151D01*
X536818Y60213D01*
X536808Y60275D01*
X536802Y60337D01*
X536800Y60400D01*
D13*
X163400Y500D02*
X64400Y500D01*
X64400Y115500D01*
X163400Y115500D02*
X163400Y500D01*
X163400Y115500D02*
X64400Y115500D01*
X168700Y500D02*
X267700Y500D01*
X168700Y500D02*
X168700Y115500D01*
X267700Y115500D02*
X267700Y500D01*
X267700Y115500D02*
X168700Y115500D01*
X273000Y500D02*
X372000Y500D01*
X273000Y500D02*
X273000Y115500D01*
X372000Y115500D02*
X372000Y500D01*
X372000Y115500D02*
X273000Y115500D01*
X377300Y500D02*
X476300Y500D01*
X377300Y500D02*
X377300Y115500D01*
X476300Y115500D02*
X476300Y500D01*
X476300Y115500D02*
X377300Y115500D01*
X379400Y789500D02*
X478400Y789500D01*
X478400Y674500D01*
X379400Y674500D02*
X379400Y789500D01*
X379400Y674500D02*
X478400Y674500D01*
X374100Y789500D02*
X275100Y789500D01*
X374100Y789500D02*
X374100Y674500D01*
X275100Y674500D02*
X275100Y789500D01*
X275100Y674500D02*
X374100Y674500D01*
X269800Y789500D02*
X170800Y789500D01*
X269800Y789500D02*
X269800Y674500D01*
X170800Y674500D02*
X170800Y789500D01*
X170800Y674500D02*
X269800Y674500D01*
X165500Y789500D02*
X66500Y789500D01*
X165500Y789500D02*
X165500Y674500D01*
X66500Y674500D02*
X66500Y789500D01*
X66500Y674500D02*
X165500Y674500D01*
D10*
X116613Y412800D02*
X1613Y412800D01*
X1613Y338800D01*
X116613Y338800D01*
X116613Y412800D01*
D14*
X92613Y418300D02*
X92615Y418363D01*
X92621Y418425D01*
X92631Y418487D01*
X92644Y418549D01*
X92662Y418609D01*
X92683Y418668D01*
X92708Y418726D01*
X92737Y418782D01*
X92769Y418836D01*
X92804Y418888D01*
X92842Y418937D01*
X92884Y418985D01*
X92928Y419029D01*
X92976Y419071D01*
X93025Y419109D01*
X93077Y419144D01*
X93131Y419176D01*
X93187Y419205D01*
X93245Y419230D01*
X93304Y419251D01*
X93364Y419269D01*
X93426Y419282D01*
X93488Y419292D01*
X93550Y419298D01*
X93613Y419300D01*
X93676Y419298D01*
X93738Y419292D01*
X93800Y419282D01*
X93862Y419269D01*
X93922Y419251D01*
X93981Y419230D01*
X94039Y419205D01*
X94095Y419176D01*
X94149Y419144D01*
X94201Y419109D01*
X94250Y419071D01*
X94298Y419029D01*
X94342Y418985D01*
X94384Y418937D01*
X94422Y418888D01*
X94457Y418836D01*
X94489Y418782D01*
X94518Y418726D01*
X94543Y418668D01*
X94564Y418609D01*
X94582Y418549D01*
X94595Y418487D01*
X94605Y418425D01*
X94611Y418363D01*
X94613Y418300D01*
X94611Y418237D01*
X94605Y418175D01*
X94595Y418113D01*
X94582Y418051D01*
X94564Y417991D01*
X94543Y417932D01*
X94518Y417874D01*
X94489Y417818D01*
X94457Y417764D01*
X94422Y417712D01*
X94384Y417663D01*
X94342Y417615D01*
X94298Y417571D01*
X94250Y417529D01*
X94201Y417491D01*
X94149Y417456D01*
X94095Y417424D01*
X94039Y417395D01*
X93981Y417370D01*
X93922Y417349D01*
X93862Y417331D01*
X93800Y417318D01*
X93738Y417308D01*
X93676Y417302D01*
X93613Y417300D01*
X93550Y417302D01*
X93488Y417308D01*
X93426Y417318D01*
X93364Y417331D01*
X93304Y417349D01*
X93245Y417370D01*
X93187Y417395D01*
X93131Y417424D01*
X93077Y417456D01*
X93025Y417491D01*
X92976Y417529D01*
X92928Y417571D01*
X92884Y417615D01*
X92842Y417663D01*
X92804Y417712D01*
X92769Y417764D01*
X92737Y417818D01*
X92708Y417874D01*
X92683Y417932D01*
X92662Y417991D01*
X92644Y418051D01*
X92631Y418113D01*
X92621Y418175D01*
X92615Y418237D01*
X92613Y418300D01*
D10*
X101114Y218500D02*
X101114Y201500D01*
X117132Y201500D02*
X117132Y218500D01*
X209098Y427809D02*
X226098Y427809D01*
X226098Y411791D02*
X209098Y411791D01*
X179934Y592868D02*
X162934Y592868D01*
X162934Y608886D02*
X179934Y608886D01*
X206998Y197809D02*
X223998Y197809D01*
X223998Y181791D02*
X206998Y181791D01*
X179934Y361041D02*
X162934Y361041D01*
X162934Y377059D02*
X179934Y377059D01*
D13*
X1613Y499100D02*
X1613Y623100D01*
X116613Y623100D01*
X116613Y499100D02*
X1613Y499100D01*
X116613Y499100D02*
X116613Y623100D01*
D10*
X116613Y492887D02*
X1613Y492887D01*
X1613Y418887D01*
X116613Y418887D01*
X116613Y492887D01*
D14*
X92613Y498387D02*
X92615Y498450D01*
X92621Y498512D01*
X92631Y498574D01*
X92644Y498636D01*
X92662Y498696D01*
X92683Y498755D01*
X92708Y498813D01*
X92737Y498869D01*
X92769Y498923D01*
X92804Y498975D01*
X92842Y499024D01*
X92884Y499072D01*
X92928Y499116D01*
X92976Y499158D01*
X93025Y499196D01*
X93077Y499231D01*
X93131Y499263D01*
X93187Y499292D01*
X93245Y499317D01*
X93304Y499338D01*
X93364Y499356D01*
X93426Y499369D01*
X93488Y499379D01*
X93550Y499385D01*
X93613Y499387D01*
X93676Y499385D01*
X93738Y499379D01*
X93800Y499369D01*
X93862Y499356D01*
X93922Y499338D01*
X93981Y499317D01*
X94039Y499292D01*
X94095Y499263D01*
X94149Y499231D01*
X94201Y499196D01*
X94250Y499158D01*
X94298Y499116D01*
X94342Y499072D01*
X94384Y499024D01*
X94422Y498975D01*
X94457Y498923D01*
X94489Y498869D01*
X94518Y498813D01*
X94543Y498755D01*
X94564Y498696D01*
X94582Y498636D01*
X94595Y498574D01*
X94605Y498512D01*
X94611Y498450D01*
X94613Y498387D01*
X94611Y498324D01*
X94605Y498262D01*
X94595Y498200D01*
X94582Y498138D01*
X94564Y498078D01*
X94543Y498019D01*
X94518Y497961D01*
X94489Y497905D01*
X94457Y497851D01*
X94422Y497799D01*
X94384Y497750D01*
X94342Y497702D01*
X94298Y497658D01*
X94250Y497616D01*
X94201Y497578D01*
X94149Y497543D01*
X94095Y497511D01*
X94039Y497482D01*
X93981Y497457D01*
X93922Y497436D01*
X93862Y497418D01*
X93800Y497405D01*
X93738Y497395D01*
X93676Y497389D01*
X93613Y497387D01*
X93550Y497389D01*
X93488Y497395D01*
X93426Y497405D01*
X93364Y497418D01*
X93304Y497436D01*
X93245Y497457D01*
X93187Y497482D01*
X93131Y497511D01*
X93077Y497543D01*
X93025Y497578D01*
X92976Y497616D01*
X92928Y497658D01*
X92884Y497702D01*
X92842Y497750D01*
X92804Y497799D01*
X92769Y497851D01*
X92737Y497905D01*
X92708Y497961D01*
X92683Y498019D01*
X92662Y498078D01*
X92644Y498138D01*
X92631Y498200D01*
X92621Y498262D01*
X92615Y498324D01*
X92613Y498387D01*
D11*
X148087Y429084D02*
X190304Y429084D01*
X148087Y429084D02*
X148087Y410916D01*
X190304Y410916D01*
X190304Y199084D02*
X148087Y199084D01*
X148087Y180916D01*
X190304Y180916D01*
M02*
