M48
;GenerationSoftware,Autodesk,EAGLE,9.7.0*%
;CreationDate,2024-05-20T01:51:43Z*%
FMAT,2
ICI,OFF
METRIC,TZ,000.000
T4C0.350
T3C0.743
T2C1.016
T1C3.000
%
G90
M71
T1
X95000Y5000
X95000Y45000
X5000Y5000
X5000Y45000
T2
X24415Y4810
X26955Y4810
X4810Y24240
X4810Y26780
X4810Y29320
X4810Y31860
X21730Y45190
X24270Y45190
X29730Y45190
X32270Y45190
X16858Y4810
X14318Y4810
X11778Y4810
X4810Y37100
X4810Y39640
X85000Y4810
X87540Y4810
X82460Y4810
X80270Y45190
X77730Y45190
X69730Y45190
X72363Y4810
X74903Y4810
X77443Y4810
X62265Y4810
X64805Y4810
X67345Y4810
X72270Y45190
X64270Y45190
X61730Y45190
X56270Y45190
X53730Y45190
X52168Y4810
X54708Y4810
X57248Y4810
X42070Y4810
X44610Y4810
X47150Y4810
X48270Y45190
X45730Y45190
X40270Y45190
X37730Y45190
X31973Y4810
X34513Y4810
X37053Y4810
X4810Y18810
X4810Y16270
X4810Y13730
X4810Y11190
X21875Y4810
T3
X58831Y40367
X56291Y40367
X79319Y32747
X81859Y32747
X84399Y32747
X86939Y32747
X89479Y32747
X92019Y32747
X94559Y32747
X97099Y32747
X97099Y40367
X94559Y40367
X92019Y40367
X89479Y40367
X86939Y40367
X84399Y40367
X81859Y40367
X79319Y40367
X61371Y32747
X10235Y32747
X12775Y32747
X15315Y32747
X17855Y32747
X20395Y32747
X22935Y32747
X25475Y32747
X28015Y32747
X28015Y40367
X25475Y40367
X22935Y40367
X20395Y40367
X17855Y40367
X15315Y40367
X12775Y40367
X10235Y40367
X33263Y32747
X35803Y32747
X38343Y32747
X40883Y32747
X43423Y32747
X45963Y32747
X48503Y32747
X51043Y32747
X51043Y40367
X48503Y40367
X45963Y40367
X43423Y40367
X40883Y40367
X38343Y40367
X35803Y40367
X33263Y40367
X56291Y32747
X58831Y32747
X63911Y32747
X66451Y32747
X68991Y32747
X71531Y32747
X74071Y32747
X74071Y40367
X71531Y40367
X68991Y40367
X66451Y40367
X63911Y40367
X61371Y40367
T4
X15392Y14478
X48463Y8687
X74219Y15240
X10668Y22250
X22555Y27127
X87782Y13106
X92354Y23774
X61570Y17678
X67666Y23774
X46025Y20574
X8077Y32766
X27432Y14935
X46634Y14021
X70866Y14326
X96164Y14326
X29718Y5182
X71628Y19202
X92659Y19355
X26975Y16612
X94640Y14173
X2286Y10058
X93726Y15088
X66294Y23774
X67513Y22250
X46177Y22098
X41910Y16307
X69494Y20269
X25756Y18288
X70714Y3658
X29870Y3658
X90526Y18288
X69799Y15088
X48311Y15088
X25146Y14173
X20879Y29413
X64922Y10820
X72695Y10820
X61112Y13259
X58217Y10363
X72238Y14021
X38405Y15545
X49530Y11125
X51816Y16459
X48768Y19507
X24841Y7772
X18288Y16612
X40843Y26213
X42977Y15088
X17069Y18745
X22098Y21184
X22098Y15088
X67056Y27889
X13259Y11582
X15240Y47092
X48158Y18288
X84430Y15088
M30