M48
;GenerationSoftware,Autodesk,EAGLE,9.7.0*%
;CreationDate,2024-06-04T03:13:56Z*%
FMAT,2
ICI,OFF
METRIC,TZ,000.000
T7C0.350
T6C0.500
T5C0.550
T4C0.640
T3C0.743
T2C0.900
T1C3.000
%
G90
M71
T1
X6000Y79000
X58000Y80000
X58000Y6000
X6000Y7000
T2
X8890Y33030
X8890Y35530
X8890Y56650
X54610Y70240
X54610Y16080
X54610Y13580
X54610Y24174
X54610Y21674
X54610Y32269
X54610Y29769
X54610Y40363
X54610Y62146
X54610Y37863
X54610Y48457
X54610Y45957
X54610Y56551
X54610Y54051
X54610Y64646
X54610Y72740
X8890Y59150
T3
X48260Y29210
X48260Y63500
X35560Y63500
X45720Y63500
X43180Y63500
X40640Y63500
X38100Y63500
X33020Y63500
X30480Y63500
X30480Y36830
X35560Y36830
X43180Y36830
X45720Y36830
X48260Y36830
X45720Y29210
X43180Y29210
X40640Y29210
X38100Y29210
X35560Y29210
X33020Y29210
X38100Y36830
X40640Y36830
X38100Y40640
X30480Y48260
X33020Y48260
X35560Y48260
X38100Y48260
X40640Y48260
X43180Y48260
X45720Y48260
X48260Y48260
X48260Y40640
X45720Y40640
X43180Y40640
X33020Y36830
X35560Y40640
X33020Y40640
X30480Y40640
X30480Y59690
X33020Y59690
X35560Y59690
X38100Y59690
X40640Y59690
X43180Y59690
X30480Y29210
X40640Y40640
X45720Y59690
X48260Y59690
X48260Y52070
X45720Y52070
X43180Y52070
X40640Y52070
X38100Y52070
X35560Y52070
X33020Y52070
X30480Y52070
X30480Y71120
X33020Y71120
X35560Y71120
X38100Y71120
X40640Y71120
X43180Y71120
X45720Y71120
X48260Y71120
T4
X36490Y8820
X33990Y8820
X28980Y8820
X26480Y8820
X23980Y8820
X18970Y8820
X16470Y8820
X13970Y8820
X44000Y77110
X46500Y77110
X49000Y77110
X34010Y77110
X29020Y77110
X38990Y8820
X26520Y77110
X19030Y77110
X14030Y77110
X44000Y8820
X46500Y8820
X49000Y8820
X24020Y77110
X39010Y77110
X8890Y71850
X8890Y69350
X8890Y66850
X8890Y64350
X36510Y77110
X16530Y77110
T5
X29125Y18750
X43250Y55625
X36750Y54875
X10125Y28500
X39375Y23625
X39125Y18625
X40750Y27125
X50375Y27250
X47875Y19875
X24000Y72250
X22750Y60250
X17375Y39375
X17375Y47625
X5500Y33000
X13875Y42000
X19000Y23750
X19000Y17375
X31625Y27500
X19125Y27250
X29250Y23750
T6
X33625Y14625
X2375Y40375
X28250Y44500
X27875Y57250
X10875Y44625
X6250Y44625
X18625Y68000
X40625Y75500
X33500Y17500
X23250Y16125
X20750Y18875
T7
X22250Y30500
X18625Y37625
X27500Y38750
X42750Y20625
X18125Y18500
X15125Y32625
X19625Y30750
X13125Y32000
X20750Y29250
X20625Y30750
X41625Y43000
X33125Y11500
X28125Y37000
X24000Y40000
X23375Y39000
X22750Y38250
X25875Y34500
X27375Y31000
X26875Y36250
X27375Y32000
X41875Y31750
X40375Y21750
X52750Y37875
X55000Y42250
X49500Y39250
X46500Y30250
X54125Y34125
X39750Y33875
X20750Y42000
X20250Y46875
X51375Y66250
X51375Y70625
X41625Y67625
X17250Y56250
X22750Y53625
X17500Y52250
X16625Y54250
X38875Y79000
X29625Y69250
X28250Y67875
X21125Y65875
X20750Y58000
X14750Y67750
X19000Y65875
X19000Y56875
X13125Y61375
X37125Y60500
X12250Y67625
X20500Y72250
X29000Y70000
X27250Y65500
X14500Y57500
X31625Y73500
X14250Y72250
X13250Y67625
X14750Y66125
X17750Y57625
X22000Y35000
X22000Y58000
X12375Y31250
X25875Y58125
X27250Y22500
X18375Y60500
X17250Y22500
X19875Y74125
X23000Y61875
X26500Y64000
X29500Y75250
X34625Y74500
X27250Y66500
X25750Y74125
X25250Y65750
X15750Y67750
X17125Y30750
X19750Y64750
X19750Y42000
X19000Y45375
X12125Y68625
X21500Y28500
X19125Y33375
X43875Y12125
X18625Y13375
X14750Y38125
X29750Y45375
X26250Y48875
X13125Y49250
X15750Y69250
X14750Y39375
X13750Y39375
X26500Y58875
X26500Y55750
X10500Y51500
X5875Y51500
X25875Y36250
X25875Y46625
X28000Y43125
X16625Y41125
X16625Y32000
X31625Y26375
X17125Y26500
M30