G04 EAGLE Gerber RS-274X export*
G75*
%MOMM*%
%FSLAX34Y34*%
%LPD*%
%INSilkscreen Top*%
%IPPOS*%
%AMOC8*
5,1,8,0,0,1.08239X$1,22.5*%
G01*
G04 Define Apertures*
%ADD10C,0.152400*%
%ADD11C,0.762000*%
%ADD12R,0.508000X0.762000*%
%ADD13R,1.016000X0.762000*%
%ADD14R,0.762000X0.508000*%
%ADD15R,0.762000X1.016000*%
%ADD16C,0.500000*%
%ADD17C,0.120000*%
%ADD18C,0.127000*%
G36*
X25113Y210650D02*
X23440Y210650D01*
X23440Y222991D01*
X28634Y222991D01*
X29138Y222976D01*
X29613Y222930D01*
X30059Y222854D01*
X30475Y222748D01*
X30863Y222611D01*
X31221Y222444D01*
X31549Y222246D01*
X31848Y222019D01*
X32115Y221763D01*
X32347Y221483D01*
X32542Y221177D01*
X32702Y220847D01*
X32827Y220492D01*
X32916Y220112D01*
X32969Y219707D01*
X32987Y219277D01*
X32969Y218850D01*
X32916Y218446D01*
X32826Y218064D01*
X32701Y217705D01*
X32541Y217368D01*
X32344Y217054D01*
X32112Y216762D01*
X31844Y216492D01*
X31545Y216250D01*
X31221Y216040D01*
X30872Y215862D01*
X30496Y215717D01*
X30095Y215604D01*
X29669Y215523D01*
X29217Y215475D01*
X28739Y215458D01*
X25113Y215458D01*
X25113Y210650D01*
G37*
%LPC*%
G36*
X28503Y216781D02*
X28842Y216791D01*
X29160Y216820D01*
X29455Y216868D01*
X29729Y216936D01*
X29981Y217023D01*
X30211Y217130D01*
X30419Y217255D01*
X30605Y217401D01*
X30769Y217565D01*
X30911Y217749D01*
X31032Y217953D01*
X31130Y218175D01*
X31207Y218417D01*
X31262Y218679D01*
X31294Y218959D01*
X31305Y219260D01*
X31294Y219549D01*
X31260Y219820D01*
X31204Y220072D01*
X31126Y220306D01*
X31025Y220521D01*
X30901Y220717D01*
X30755Y220894D01*
X30587Y221053D01*
X30396Y221193D01*
X30183Y221314D01*
X29948Y221417D01*
X29689Y221501D01*
X29409Y221567D01*
X29106Y221613D01*
X28780Y221641D01*
X28433Y221651D01*
X25113Y221651D01*
X25113Y216781D01*
X28503Y216781D01*
G37*
%LPD*%
G36*
X16043Y210475D02*
X15494Y210487D01*
X14975Y210524D01*
X14485Y210585D01*
X14025Y210671D01*
X13595Y210781D01*
X13194Y210916D01*
X12822Y211075D01*
X12481Y211259D01*
X12169Y211467D01*
X11887Y211700D01*
X11634Y211957D01*
X11411Y212239D01*
X11217Y212545D01*
X11053Y212875D01*
X10919Y213231D01*
X10815Y213610D01*
X12435Y213934D01*
X12515Y213666D01*
X12614Y213415D01*
X12734Y213183D01*
X12873Y212970D01*
X13032Y212775D01*
X13210Y212599D01*
X13408Y212441D01*
X13626Y212301D01*
X13864Y212179D01*
X14123Y212073D01*
X14402Y211983D01*
X14701Y211910D01*
X15021Y211853D01*
X15362Y211812D01*
X15723Y211788D01*
X16105Y211780D01*
X16498Y211789D01*
X16869Y211815D01*
X17216Y211858D01*
X17540Y211919D01*
X17841Y211997D01*
X18119Y212093D01*
X18374Y212206D01*
X18605Y212336D01*
X18812Y212483D01*
X18990Y212647D01*
X19142Y212826D01*
X19265Y213022D01*
X19362Y213235D01*
X19430Y213463D01*
X19472Y213708D01*
X19486Y213969D01*
X19468Y214257D01*
X19417Y214517D01*
X19330Y214748D01*
X19210Y214950D01*
X19058Y215131D01*
X18878Y215294D01*
X18670Y215441D01*
X18434Y215572D01*
X18173Y215690D01*
X17887Y215798D01*
X17577Y215896D01*
X17243Y215984D01*
X15711Y216343D01*
X15023Y216505D01*
X14424Y216667D01*
X13913Y216829D01*
X13490Y216991D01*
X13131Y217158D01*
X12813Y217334D01*
X12534Y217519D01*
X12295Y217714D01*
X12089Y217922D01*
X11908Y218146D01*
X11754Y218388D01*
X11625Y218647D01*
X11523Y218924D01*
X11451Y219220D01*
X11407Y219537D01*
X11393Y219873D01*
X11412Y220258D01*
X11468Y220620D01*
X11563Y220959D01*
X11696Y221276D01*
X11866Y221570D01*
X12075Y221842D01*
X12321Y222090D01*
X12606Y222316D01*
X12925Y222518D01*
X13278Y222692D01*
X13663Y222839D01*
X14080Y222960D01*
X14531Y223054D01*
X15014Y223121D01*
X15530Y223161D01*
X16078Y223175D01*
X16588Y223165D01*
X17068Y223134D01*
X17516Y223084D01*
X17933Y223014D01*
X18319Y222923D01*
X18675Y222813D01*
X18999Y222682D01*
X19293Y222531D01*
X19560Y222356D01*
X19807Y222152D01*
X20033Y221921D01*
X20239Y221661D01*
X20423Y221372D01*
X20587Y221055D01*
X20730Y220710D01*
X20852Y220337D01*
X19205Y220048D01*
X19130Y220285D01*
X19039Y220505D01*
X18933Y220708D01*
X18811Y220894D01*
X18674Y221064D01*
X18522Y221216D01*
X18355Y221352D01*
X18172Y221471D01*
X17972Y221575D01*
X17754Y221665D01*
X17518Y221741D01*
X17263Y221803D01*
X16990Y221851D01*
X16699Y221886D01*
X16389Y221907D01*
X16061Y221913D01*
X15702Y221906D01*
X15365Y221883D01*
X15049Y221845D01*
X14756Y221791D01*
X14484Y221722D01*
X14235Y221638D01*
X14007Y221538D01*
X13801Y221423D01*
X13619Y221293D01*
X13460Y221148D01*
X13326Y220987D01*
X13217Y220812D01*
X13131Y220622D01*
X13070Y220416D01*
X13034Y220196D01*
X13022Y219960D01*
X13041Y219688D01*
X13097Y219440D01*
X13192Y219217D01*
X13324Y219019D01*
X13492Y218840D01*
X13693Y218675D01*
X13927Y218524D01*
X14195Y218388D01*
X14551Y218252D01*
X15047Y218100D01*
X15685Y217934D01*
X16464Y217753D01*
X17598Y217486D01*
X18151Y217337D01*
X18680Y217162D01*
X19180Y216957D01*
X19648Y216720D01*
X19866Y216586D01*
X20069Y216437D01*
X20258Y216275D01*
X20431Y216098D01*
X20589Y215906D01*
X20728Y215697D01*
X20849Y215472D01*
X20953Y215231D01*
X21035Y214970D01*
X21094Y214688D01*
X21129Y214383D01*
X21141Y214057D01*
X21120Y213642D01*
X21057Y213251D01*
X20953Y212885D01*
X20807Y212542D01*
X20619Y212223D01*
X20390Y211929D01*
X20118Y211658D01*
X19805Y211412D01*
X19454Y211192D01*
X19069Y211002D01*
X18650Y210841D01*
X18197Y210709D01*
X17710Y210607D01*
X17188Y210533D01*
X16633Y210490D01*
X16043Y210475D01*
G37*
G36*
X37266Y210650D02*
X35593Y210650D01*
X35593Y222991D01*
X37266Y222991D01*
X37266Y210650D01*
G37*
G36*
X193423Y460587D02*
X193058Y460593D01*
X192703Y460612D01*
X192358Y460644D01*
X192023Y460688D01*
X191699Y460745D01*
X191384Y460815D01*
X191080Y460897D01*
X190785Y460992D01*
X190501Y461100D01*
X190227Y461220D01*
X189963Y461353D01*
X189709Y461499D01*
X189231Y461828D01*
X188794Y462207D01*
X188403Y462632D01*
X188227Y462860D01*
X188064Y463097D01*
X187914Y463344D01*
X187777Y463601D01*
X187653Y463868D01*
X187542Y464145D01*
X187445Y464432D01*
X187360Y464729D01*
X187288Y465036D01*
X187230Y465352D01*
X187184Y465679D01*
X187151Y466015D01*
X187132Y466362D01*
X187125Y466718D01*
X187137Y467181D01*
X187172Y467628D01*
X187231Y468060D01*
X187313Y468476D01*
X187418Y468877D01*
X187547Y469262D01*
X187699Y469631D01*
X187874Y469985D01*
X188072Y470321D01*
X188291Y470636D01*
X188531Y470931D01*
X188793Y471206D01*
X189075Y471460D01*
X189379Y471694D01*
X189704Y471907D01*
X190051Y472100D01*
X190416Y472272D01*
X190797Y472420D01*
X191194Y472546D01*
X191607Y472649D01*
X192037Y472729D01*
X192483Y472786D01*
X192945Y472820D01*
X193423Y472832D01*
X193899Y472820D01*
X194360Y472785D01*
X194807Y472727D01*
X195238Y472647D01*
X195654Y472542D01*
X196055Y472415D01*
X196441Y472265D01*
X196812Y472091D01*
X197165Y471896D01*
X197497Y471681D01*
X197808Y471446D01*
X198098Y471190D01*
X198366Y470915D01*
X198614Y470619D01*
X198840Y470303D01*
X199046Y469967D01*
X199228Y469614D01*
X199387Y469244D01*
X199521Y468859D01*
X199630Y468459D01*
X199716Y468043D01*
X199776Y467611D01*
X199813Y467164D01*
X199825Y466701D01*
X199813Y466234D01*
X199777Y465783D01*
X199717Y465348D01*
X199633Y464930D01*
X199524Y464528D01*
X199392Y464143D01*
X199235Y463773D01*
X199054Y463420D01*
X198851Y463086D01*
X198626Y462772D01*
X198380Y462478D01*
X198112Y462204D01*
X197822Y461951D01*
X197512Y461718D01*
X197179Y461506D01*
X196825Y461314D01*
X196453Y461144D01*
X196066Y460996D01*
X195663Y460871D01*
X195246Y460769D01*
X194813Y460689D01*
X194365Y460633D01*
X193901Y460598D01*
X193423Y460587D01*
G37*
%LPC*%
G36*
X193423Y462286D02*
X193988Y462305D01*
X194523Y462359D01*
X195029Y462451D01*
X195504Y462579D01*
X195949Y462743D01*
X196365Y462944D01*
X196750Y463181D01*
X197106Y463456D01*
X197425Y463762D01*
X197702Y464097D01*
X197936Y464460D01*
X198127Y464851D01*
X198276Y465271D01*
X198383Y465719D01*
X198446Y466196D01*
X198468Y466701D01*
X198447Y467219D01*
X198385Y467707D01*
X198282Y468164D01*
X198138Y468589D01*
X197953Y468984D01*
X197726Y469347D01*
X197458Y469679D01*
X197149Y469981D01*
X196803Y470249D01*
X196422Y470481D01*
X196008Y470677D01*
X195559Y470838D01*
X195076Y470963D01*
X194559Y471052D01*
X194008Y471106D01*
X193423Y471124D01*
X192862Y471106D01*
X192333Y471052D01*
X191834Y470962D01*
X191367Y470836D01*
X190930Y470674D01*
X190524Y470476D01*
X190149Y470242D01*
X189805Y469972D01*
X189498Y469669D01*
X189231Y469337D01*
X189005Y468974D01*
X188820Y468583D01*
X188676Y468161D01*
X188574Y467710D01*
X188512Y467229D01*
X188492Y466718D01*
X188512Y466203D01*
X188573Y465718D01*
X188674Y465264D01*
X188816Y464839D01*
X188998Y464445D01*
X189221Y464081D01*
X189484Y463746D01*
X189788Y463442D01*
X190128Y463171D01*
X190501Y462937D01*
X190907Y462738D01*
X191345Y462575D01*
X191815Y462449D01*
X192319Y462358D01*
X192854Y462304D01*
X193423Y462286D01*
G37*
%LPD*%
G36*
X199650Y446271D02*
X187309Y446271D01*
X187309Y448470D01*
X195866Y451754D01*
X196402Y451926D01*
X196974Y452091D01*
X197828Y452306D01*
X197387Y452414D01*
X196764Y452599D01*
X196183Y452787D01*
X195866Y452902D01*
X187309Y456125D01*
X187309Y458271D01*
X199650Y458271D01*
X199650Y456764D01*
X191417Y456764D01*
X190077Y456784D01*
X188789Y456843D01*
X190186Y456436D01*
X190757Y456249D01*
X191242Y456072D01*
X199650Y452884D01*
X199650Y451710D01*
X191242Y448479D01*
X189753Y447988D01*
X188789Y447699D01*
X189762Y447725D01*
X191417Y447760D01*
X199650Y447760D01*
X199650Y446271D01*
G37*
G36*
X188676Y474078D02*
X187309Y474078D01*
X187309Y484220D01*
X188676Y484220D01*
X188676Y479981D01*
X199650Y479981D01*
X199650Y478317D01*
X188676Y478317D01*
X188676Y474078D01*
G37*
G36*
X199650Y486010D02*
X198310Y486010D01*
X198310Y489154D01*
X188816Y489154D01*
X190804Y486369D01*
X189315Y486369D01*
X187309Y489286D01*
X187309Y490740D01*
X198310Y490740D01*
X198310Y493744D01*
X199650Y493744D01*
X199650Y486010D01*
G37*
G36*
X271023Y460587D02*
X270658Y460593D01*
X270303Y460612D01*
X269958Y460644D01*
X269623Y460688D01*
X269299Y460745D01*
X268984Y460815D01*
X268680Y460897D01*
X268385Y460992D01*
X268101Y461100D01*
X267827Y461220D01*
X267563Y461353D01*
X267309Y461499D01*
X266831Y461828D01*
X266394Y462207D01*
X266003Y462632D01*
X265827Y462860D01*
X265664Y463097D01*
X265514Y463344D01*
X265377Y463601D01*
X265253Y463868D01*
X265142Y464145D01*
X265045Y464432D01*
X264960Y464729D01*
X264888Y465036D01*
X264830Y465352D01*
X264784Y465679D01*
X264751Y466015D01*
X264732Y466362D01*
X264725Y466718D01*
X264737Y467181D01*
X264772Y467628D01*
X264831Y468060D01*
X264913Y468476D01*
X265018Y468877D01*
X265147Y469262D01*
X265299Y469631D01*
X265474Y469985D01*
X265672Y470321D01*
X265891Y470636D01*
X266131Y470931D01*
X266393Y471206D01*
X266675Y471460D01*
X266979Y471694D01*
X267304Y471907D01*
X267651Y472100D01*
X268016Y472272D01*
X268397Y472420D01*
X268794Y472546D01*
X269207Y472649D01*
X269637Y472729D01*
X270083Y472786D01*
X270545Y472820D01*
X271023Y472832D01*
X271499Y472820D01*
X271960Y472785D01*
X272407Y472727D01*
X272838Y472647D01*
X273254Y472542D01*
X273655Y472415D01*
X274041Y472265D01*
X274412Y472091D01*
X274765Y471896D01*
X275097Y471681D01*
X275408Y471446D01*
X275698Y471190D01*
X275966Y470915D01*
X276214Y470619D01*
X276440Y470303D01*
X276646Y469967D01*
X276828Y469614D01*
X276987Y469244D01*
X277121Y468859D01*
X277230Y468459D01*
X277316Y468043D01*
X277376Y467611D01*
X277413Y467164D01*
X277425Y466701D01*
X277413Y466234D01*
X277377Y465783D01*
X277317Y465348D01*
X277233Y464930D01*
X277124Y464528D01*
X276992Y464143D01*
X276835Y463773D01*
X276654Y463420D01*
X276451Y463086D01*
X276226Y462772D01*
X275980Y462478D01*
X275712Y462204D01*
X275422Y461951D01*
X275112Y461718D01*
X274779Y461506D01*
X274425Y461314D01*
X274053Y461144D01*
X273666Y460996D01*
X273263Y460871D01*
X272846Y460769D01*
X272413Y460689D01*
X271965Y460633D01*
X271501Y460598D01*
X271023Y460587D01*
G37*
%LPC*%
G36*
X271023Y462286D02*
X271588Y462305D01*
X272123Y462359D01*
X272629Y462451D01*
X273104Y462579D01*
X273549Y462743D01*
X273965Y462944D01*
X274350Y463181D01*
X274706Y463456D01*
X275025Y463762D01*
X275302Y464097D01*
X275536Y464460D01*
X275727Y464851D01*
X275876Y465271D01*
X275983Y465719D01*
X276046Y466196D01*
X276068Y466701D01*
X276047Y467219D01*
X275985Y467707D01*
X275882Y468164D01*
X275738Y468589D01*
X275553Y468984D01*
X275326Y469347D01*
X275058Y469679D01*
X274749Y469981D01*
X274403Y470249D01*
X274022Y470481D01*
X273608Y470677D01*
X273159Y470838D01*
X272676Y470963D01*
X272159Y471052D01*
X271608Y471106D01*
X271023Y471124D01*
X270462Y471106D01*
X269933Y471052D01*
X269434Y470962D01*
X268967Y470836D01*
X268530Y470674D01*
X268124Y470476D01*
X267749Y470242D01*
X267405Y469972D01*
X267098Y469669D01*
X266831Y469337D01*
X266605Y468974D01*
X266420Y468583D01*
X266276Y468161D01*
X266174Y467710D01*
X266112Y467229D01*
X266092Y466718D01*
X266112Y466203D01*
X266173Y465718D01*
X266274Y465264D01*
X266416Y464839D01*
X266598Y464445D01*
X266821Y464081D01*
X267084Y463746D01*
X267388Y463442D01*
X267728Y463171D01*
X268101Y462937D01*
X268507Y462738D01*
X268945Y462575D01*
X269415Y462449D01*
X269919Y462358D01*
X270454Y462304D01*
X271023Y462286D01*
G37*
%LPD*%
G36*
X277250Y446271D02*
X264909Y446271D01*
X264909Y448470D01*
X273466Y451754D01*
X274002Y451926D01*
X274574Y452091D01*
X275428Y452306D01*
X274987Y452414D01*
X274364Y452599D01*
X273783Y452787D01*
X273466Y452902D01*
X264909Y456125D01*
X264909Y458271D01*
X277250Y458271D01*
X277250Y456764D01*
X269017Y456764D01*
X267677Y456784D01*
X266389Y456843D01*
X267786Y456436D01*
X268357Y456249D01*
X268842Y456072D01*
X277250Y452884D01*
X277250Y451710D01*
X268842Y448479D01*
X267353Y447988D01*
X266389Y447699D01*
X267362Y447725D01*
X269017Y447760D01*
X277250Y447760D01*
X277250Y446271D01*
G37*
G36*
X277250Y485546D02*
X276138Y485546D01*
X275640Y485782D01*
X275173Y486042D01*
X274736Y486327D01*
X274329Y486636D01*
X273946Y486962D01*
X273582Y487296D01*
X273237Y487639D01*
X272910Y487990D01*
X272298Y488696D01*
X271732Y489395D01*
X271189Y490058D01*
X270646Y490652D01*
X270371Y490919D01*
X270090Y491159D01*
X269802Y491372D01*
X269507Y491559D01*
X269200Y491710D01*
X268872Y491818D01*
X268525Y491883D01*
X268159Y491905D01*
X267912Y491895D01*
X267679Y491867D01*
X267461Y491821D01*
X267257Y491756D01*
X267067Y491672D01*
X266891Y491570D01*
X266729Y491449D01*
X266582Y491309D01*
X266451Y491153D01*
X266337Y490982D01*
X266241Y490797D01*
X266162Y490597D01*
X266100Y490383D01*
X266057Y490155D01*
X266030Y489911D01*
X266022Y489654D01*
X266030Y489407D01*
X266056Y489172D01*
X266099Y488948D01*
X266158Y488735D01*
X266235Y488533D01*
X266329Y488342D01*
X266441Y488163D01*
X266569Y487994D01*
X266713Y487839D01*
X266870Y487701D01*
X267042Y487580D01*
X267227Y487476D01*
X267426Y487389D01*
X267639Y487318D01*
X267866Y487264D01*
X268106Y487228D01*
X267957Y485616D01*
X267597Y485674D01*
X267255Y485760D01*
X266932Y485875D01*
X266628Y486018D01*
X266343Y486189D01*
X266077Y486389D01*
X265830Y486617D01*
X265601Y486873D01*
X265396Y487153D01*
X265218Y487452D01*
X265067Y487771D01*
X264944Y488109D01*
X264848Y488466D01*
X264780Y488843D01*
X264739Y489238D01*
X264725Y489654D01*
X264739Y490107D01*
X264780Y490533D01*
X264849Y490931D01*
X264945Y491304D01*
X265069Y491649D01*
X265220Y491967D01*
X265399Y492258D01*
X265606Y492522D01*
X265837Y492757D01*
X266092Y492961D01*
X266370Y493133D01*
X266671Y493274D01*
X266995Y493384D01*
X267342Y493462D01*
X267713Y493509D01*
X268106Y493525D01*
X268465Y493504D01*
X268822Y493443D01*
X269178Y493340D01*
X269534Y493196D01*
X269888Y493012D01*
X270243Y492788D01*
X270598Y492524D01*
X270953Y492220D01*
X271356Y491822D01*
X271857Y491276D01*
X272455Y490583D01*
X273151Y489741D01*
X273553Y489263D01*
X273934Y488837D01*
X274295Y488462D01*
X274636Y488138D01*
X274963Y487861D01*
X275285Y487626D01*
X275600Y487432D01*
X275910Y487280D01*
X275910Y493718D01*
X277250Y493718D01*
X277250Y485546D01*
G37*
G36*
X266276Y474078D02*
X264909Y474078D01*
X264909Y484220D01*
X266276Y484220D01*
X266276Y479981D01*
X277250Y479981D01*
X277250Y478317D01*
X266276Y478317D01*
X266276Y474078D01*
G37*
G36*
X196143Y24075D02*
X195778Y24081D01*
X195423Y24100D01*
X195078Y24132D01*
X194743Y24176D01*
X194419Y24233D01*
X194104Y24302D01*
X193800Y24385D01*
X193505Y24480D01*
X193221Y24587D01*
X192947Y24708D01*
X192683Y24840D01*
X192429Y24986D01*
X191951Y25315D01*
X191514Y25695D01*
X191123Y26120D01*
X190947Y26347D01*
X190784Y26584D01*
X190634Y26832D01*
X190497Y27089D01*
X190373Y27356D01*
X190262Y27633D01*
X190165Y27920D01*
X190080Y28216D01*
X190008Y28523D01*
X189950Y28840D01*
X189904Y29166D01*
X189871Y29503D01*
X189852Y29849D01*
X189845Y30206D01*
X189857Y30669D01*
X189892Y31116D01*
X189951Y31548D01*
X190033Y31964D01*
X190138Y32364D01*
X190267Y32749D01*
X190419Y33119D01*
X190594Y33472D01*
X190792Y33808D01*
X191011Y34124D01*
X191251Y34419D01*
X191513Y34693D01*
X191795Y34947D01*
X192099Y35181D01*
X192424Y35395D01*
X192771Y35588D01*
X193136Y35759D01*
X193517Y35908D01*
X193914Y36033D01*
X194327Y36136D01*
X194757Y36216D01*
X195203Y36273D01*
X195665Y36308D01*
X196143Y36319D01*
X196619Y36307D01*
X197080Y36273D01*
X197527Y36215D01*
X197958Y36134D01*
X198374Y36030D01*
X198775Y35903D01*
X199161Y35752D01*
X199532Y35579D01*
X199885Y35384D01*
X200217Y35169D01*
X200528Y34933D01*
X200818Y34678D01*
X201086Y34402D01*
X201334Y34107D01*
X201560Y33791D01*
X201766Y33455D01*
X201948Y33101D01*
X202107Y32732D01*
X202241Y32347D01*
X202350Y31946D01*
X202436Y31530D01*
X202496Y31098D01*
X202533Y30651D01*
X202545Y30188D01*
X202533Y29721D01*
X202497Y29270D01*
X202437Y28836D01*
X202353Y28418D01*
X202244Y28016D01*
X202112Y27630D01*
X201955Y27261D01*
X201774Y26908D01*
X201571Y26573D01*
X201346Y26259D01*
X201100Y25965D01*
X200832Y25692D01*
X200542Y25439D01*
X200232Y25206D01*
X199899Y24993D01*
X199545Y24802D01*
X199173Y24631D01*
X198786Y24483D01*
X198383Y24359D01*
X197966Y24256D01*
X197533Y24177D01*
X197085Y24120D01*
X196621Y24086D01*
X196143Y24075D01*
G37*
%LPC*%
G36*
X196143Y25774D02*
X196708Y25792D01*
X197243Y25847D01*
X197749Y25938D01*
X198224Y26066D01*
X198669Y26230D01*
X199085Y26431D01*
X199470Y26669D01*
X199826Y26943D01*
X200145Y27249D01*
X200422Y27584D01*
X200656Y27947D01*
X200847Y28339D01*
X200996Y28759D01*
X201103Y29207D01*
X201166Y29683D01*
X201188Y30188D01*
X201167Y30707D01*
X201105Y31194D01*
X201002Y31651D01*
X200858Y32077D01*
X200673Y32471D01*
X200446Y32834D01*
X200178Y33167D01*
X199869Y33468D01*
X199523Y33736D01*
X199142Y33968D01*
X198728Y34165D01*
X198279Y34325D01*
X197796Y34450D01*
X197279Y34540D01*
X196728Y34593D01*
X196143Y34611D01*
X195582Y34593D01*
X195053Y34539D01*
X194554Y34449D01*
X194087Y34323D01*
X193650Y34161D01*
X193244Y33963D01*
X192869Y33729D01*
X192525Y33459D01*
X192218Y33157D01*
X191951Y32824D01*
X191725Y32462D01*
X191540Y32070D01*
X191396Y31648D01*
X191294Y31197D01*
X191232Y30716D01*
X191212Y30206D01*
X191232Y29691D01*
X191293Y29206D01*
X191394Y28751D01*
X191536Y28327D01*
X191718Y27932D01*
X191941Y27568D01*
X192204Y27234D01*
X192508Y26930D01*
X192848Y26659D01*
X193221Y26424D01*
X193627Y26225D01*
X194065Y26063D01*
X194535Y25936D01*
X195039Y25846D01*
X195574Y25792D01*
X196143Y25774D01*
G37*
%LPD*%
G36*
X202370Y12728D02*
X190029Y12728D01*
X190029Y17922D01*
X190044Y18426D01*
X190090Y18901D01*
X190166Y19347D01*
X190272Y19763D01*
X190409Y20150D01*
X190576Y20508D01*
X190774Y20837D01*
X191001Y21136D01*
X191257Y21403D01*
X191537Y21634D01*
X191843Y21830D01*
X192173Y21990D01*
X192528Y22114D01*
X192908Y22203D01*
X193313Y22257D01*
X193743Y22274D01*
X194170Y22257D01*
X194574Y22203D01*
X194956Y22114D01*
X195315Y21989D01*
X195652Y21828D01*
X195966Y21632D01*
X196258Y21399D01*
X196528Y21132D01*
X196770Y20833D01*
X196980Y20509D01*
X197158Y20159D01*
X197303Y19784D01*
X197416Y19383D01*
X197497Y18956D01*
X197545Y18504D01*
X197562Y18027D01*
X197562Y14401D01*
X202370Y14401D01*
X202370Y12728D01*
G37*
%LPC*%
G36*
X196239Y14401D02*
X196239Y17790D01*
X196229Y18130D01*
X196200Y18447D01*
X196152Y18743D01*
X196084Y19016D01*
X195997Y19268D01*
X195890Y19498D01*
X195765Y19706D01*
X195619Y19892D01*
X195455Y20056D01*
X195271Y20199D01*
X195067Y20319D01*
X194845Y20418D01*
X194603Y20494D01*
X194341Y20549D01*
X194061Y20582D01*
X193760Y20593D01*
X193471Y20582D01*
X193200Y20548D01*
X192948Y20492D01*
X192714Y20413D01*
X192499Y20312D01*
X192303Y20189D01*
X192126Y20043D01*
X191967Y19875D01*
X191827Y19684D01*
X191706Y19471D01*
X191603Y19235D01*
X191519Y18977D01*
X191453Y18696D01*
X191407Y18393D01*
X191379Y18068D01*
X191369Y17720D01*
X191369Y14401D01*
X196239Y14401D01*
G37*
%LPD*%
G36*
X191396Y37565D02*
X190029Y37565D01*
X190029Y47708D01*
X191396Y47708D01*
X191396Y43469D01*
X202370Y43469D01*
X202370Y41805D01*
X191396Y41805D01*
X191396Y37565D01*
G37*
G36*
X202370Y49498D02*
X201030Y49498D01*
X201030Y52642D01*
X191536Y52642D01*
X193524Y49857D01*
X192035Y49857D01*
X190029Y52773D01*
X190029Y54227D01*
X201030Y54227D01*
X201030Y57231D01*
X202370Y57231D01*
X202370Y49498D01*
G37*
G36*
X28932Y339075D02*
X28465Y339087D01*
X28014Y339123D01*
X27580Y339183D01*
X27161Y339268D01*
X26760Y339376D01*
X26374Y339508D01*
X26005Y339665D01*
X25652Y339846D01*
X25317Y340049D01*
X25003Y340274D01*
X24709Y340520D01*
X24435Y340788D01*
X24182Y341078D01*
X23950Y341388D01*
X23737Y341721D01*
X23545Y342075D01*
X23375Y342447D01*
X23227Y342834D01*
X23102Y343237D01*
X23000Y343654D01*
X22921Y344087D01*
X22864Y344536D01*
X22830Y344999D01*
X22818Y345477D01*
X22825Y345842D01*
X22844Y346197D01*
X22875Y346542D01*
X22920Y346877D01*
X22977Y347201D01*
X23046Y347516D01*
X23128Y347820D01*
X23223Y348115D01*
X23331Y348399D01*
X23451Y348673D01*
X23584Y348937D01*
X23730Y349191D01*
X24059Y349669D01*
X24439Y350106D01*
X24864Y350497D01*
X25091Y350673D01*
X25328Y350836D01*
X25575Y350986D01*
X25832Y351123D01*
X26100Y351247D01*
X26376Y351358D01*
X26663Y351455D01*
X26960Y351540D01*
X27267Y351612D01*
X27584Y351670D01*
X27910Y351716D01*
X28247Y351749D01*
X28593Y351768D01*
X28949Y351775D01*
X29412Y351763D01*
X29860Y351728D01*
X30291Y351669D01*
X30708Y351588D01*
X31108Y351482D01*
X31493Y351353D01*
X31862Y351201D01*
X32216Y351026D01*
X32552Y350828D01*
X32867Y350609D01*
X33162Y350369D01*
X33437Y350107D01*
X33691Y349825D01*
X33925Y349521D01*
X34138Y349196D01*
X34331Y348849D01*
X34503Y348484D01*
X34651Y348103D01*
X34777Y347706D01*
X34880Y347293D01*
X34960Y346863D01*
X35017Y346417D01*
X35051Y345955D01*
X35063Y345477D01*
X35051Y345001D01*
X35017Y344540D01*
X34959Y344093D01*
X34878Y343662D01*
X34774Y343246D01*
X34646Y342845D01*
X34496Y342459D01*
X34323Y342088D01*
X34128Y341735D01*
X33912Y341403D01*
X33677Y341092D01*
X33422Y340802D01*
X33146Y340534D01*
X32850Y340286D01*
X32535Y340060D01*
X32199Y339854D01*
X31845Y339672D01*
X31476Y339513D01*
X31091Y339379D01*
X30690Y339270D01*
X30274Y339184D01*
X29842Y339124D01*
X29395Y339087D01*
X28932Y339075D01*
G37*
%LPC*%
G36*
X28932Y340432D02*
X29451Y340453D01*
X29938Y340515D01*
X30395Y340618D01*
X30820Y340762D01*
X31215Y340947D01*
X31578Y341174D01*
X31911Y341442D01*
X32212Y341751D01*
X32480Y342097D01*
X32712Y342478D01*
X32908Y342893D01*
X33069Y343341D01*
X33194Y343824D01*
X33283Y344341D01*
X33337Y344892D01*
X33355Y345477D01*
X33337Y346038D01*
X33283Y346567D01*
X33193Y347066D01*
X33067Y347533D01*
X32905Y347970D01*
X32707Y348376D01*
X32473Y348751D01*
X32203Y349095D01*
X31900Y349403D01*
X31568Y349669D01*
X31206Y349895D01*
X30814Y350080D01*
X30392Y350224D01*
X29941Y350326D01*
X29460Y350388D01*
X28949Y350408D01*
X28434Y350388D01*
X27950Y350327D01*
X27495Y350226D01*
X27071Y350084D01*
X26676Y349902D01*
X26312Y349679D01*
X25978Y349416D01*
X25674Y349112D01*
X25403Y348772D01*
X25168Y348399D01*
X24969Y347993D01*
X24807Y347555D01*
X24680Y347085D01*
X24590Y346581D01*
X24536Y346046D01*
X24517Y345477D01*
X24536Y344912D01*
X24591Y344377D01*
X24682Y343871D01*
X24810Y343396D01*
X24974Y342951D01*
X25175Y342535D01*
X25413Y342150D01*
X25687Y341794D01*
X25993Y341475D01*
X26328Y341199D01*
X26691Y340964D01*
X27083Y340773D01*
X27502Y340624D01*
X27951Y340518D01*
X28427Y340454D01*
X28932Y340432D01*
G37*
%LPD*%
G36*
X67957Y339250D02*
X66284Y339250D01*
X66284Y351591D01*
X72091Y351591D01*
X72597Y351576D01*
X73074Y351532D01*
X73521Y351460D01*
X73938Y351358D01*
X74325Y351226D01*
X74683Y351066D01*
X75011Y350877D01*
X75310Y350658D01*
X75575Y350413D01*
X75806Y350146D01*
X76001Y349856D01*
X76160Y349542D01*
X76284Y349206D01*
X76373Y348847D01*
X76426Y348466D01*
X76444Y348061D01*
X76431Y347724D01*
X76394Y347401D01*
X76331Y347091D01*
X76243Y346795D01*
X76131Y346513D01*
X75993Y346245D01*
X75830Y345990D01*
X75642Y345749D01*
X75433Y345525D01*
X75204Y345324D01*
X74956Y345143D01*
X74845Y345077D01*
X74689Y344985D01*
X74403Y344848D01*
X74098Y344732D01*
X73774Y344639D01*
X73431Y344566D01*
X74922Y342303D01*
X76934Y339250D01*
X75007Y339250D01*
X71802Y344374D01*
X67957Y344374D01*
X67957Y339250D01*
G37*
%LPC*%
G36*
X71995Y345696D02*
X72316Y345706D01*
X72618Y345735D01*
X72902Y345783D01*
X73167Y345851D01*
X73413Y345937D01*
X73641Y346044D01*
X73850Y346169D01*
X74040Y346314D01*
X74209Y346476D01*
X74356Y346653D01*
X74480Y346846D01*
X74582Y347055D01*
X74661Y347279D01*
X74717Y347518D01*
X74751Y347773D01*
X74762Y348044D01*
X74751Y348305D01*
X74716Y348550D01*
X74659Y348780D01*
X74579Y348993D01*
X74477Y349190D01*
X74351Y349371D01*
X74202Y349537D01*
X74031Y349686D01*
X73838Y349818D01*
X73625Y349933D01*
X73392Y350030D01*
X73139Y350110D01*
X72865Y350171D01*
X72572Y350215D01*
X72258Y350242D01*
X71924Y350251D01*
X67957Y350251D01*
X67957Y345696D01*
X71995Y345696D01*
G37*
%LPD*%
G36*
X13144Y339250D02*
X11471Y339250D01*
X11471Y351591D01*
X16665Y351591D01*
X17170Y351576D01*
X17645Y351530D01*
X18090Y351454D01*
X18507Y351348D01*
X18894Y351211D01*
X19252Y351044D01*
X19580Y350846D01*
X19880Y350619D01*
X20147Y350363D01*
X20378Y350083D01*
X20573Y349777D01*
X20734Y349447D01*
X20858Y349092D01*
X20947Y348712D01*
X21000Y348307D01*
X21018Y347877D01*
X21000Y347450D01*
X20947Y347046D01*
X20858Y346664D01*
X20733Y346305D01*
X20572Y345968D01*
X20375Y345654D01*
X20143Y345362D01*
X19875Y345092D01*
X19577Y344850D01*
X19253Y344640D01*
X18903Y344462D01*
X18528Y344317D01*
X18127Y344204D01*
X17700Y344123D01*
X17248Y344075D01*
X16770Y344058D01*
X13144Y344058D01*
X13144Y339250D01*
G37*
%LPC*%
G36*
X16534Y345381D02*
X16873Y345391D01*
X17191Y345420D01*
X17486Y345468D01*
X17760Y345536D01*
X18012Y345623D01*
X18242Y345730D01*
X18450Y345855D01*
X18636Y346001D01*
X18800Y346165D01*
X18942Y346349D01*
X19063Y346553D01*
X19161Y346775D01*
X19238Y347017D01*
X19293Y347279D01*
X19326Y347559D01*
X19337Y347860D01*
X19325Y348149D01*
X19292Y348420D01*
X19236Y348672D01*
X19157Y348906D01*
X19056Y349121D01*
X18933Y349317D01*
X18787Y349494D01*
X18618Y349653D01*
X18428Y349793D01*
X18214Y349914D01*
X17979Y350017D01*
X17721Y350101D01*
X17440Y350167D01*
X17137Y350213D01*
X16812Y350241D01*
X16464Y350251D01*
X13144Y350251D01*
X13144Y345381D01*
X16534Y345381D01*
G37*
%LPD*%
G36*
X41617Y339250D02*
X39620Y339250D01*
X35985Y351591D01*
X37728Y351591D01*
X39944Y343752D01*
X40323Y342259D01*
X40671Y340721D01*
X41157Y342823D01*
X41412Y343798D01*
X41903Y345585D01*
X43587Y351591D01*
X45190Y351591D01*
X47336Y343910D01*
X47774Y342171D01*
X48107Y340721D01*
X48186Y341028D01*
X48571Y342670D01*
X49261Y345218D01*
X51032Y351591D01*
X52775Y351591D01*
X49140Y339250D01*
X47143Y339250D01*
X45006Y347089D01*
X44748Y348116D01*
X44393Y349725D01*
X44008Y348026D01*
X43331Y345490D01*
X41617Y339250D01*
G37*
G36*
X64037Y339250D02*
X54315Y339250D01*
X54315Y351591D01*
X63678Y351591D01*
X63678Y350224D01*
X55988Y350224D01*
X55988Y346266D01*
X63153Y346266D01*
X63153Y344917D01*
X55988Y344917D01*
X55988Y340616D01*
X64037Y340616D01*
X64037Y339250D01*
G37*
G36*
X295077Y24075D02*
X294712Y24081D01*
X294357Y24100D01*
X294012Y24132D01*
X293677Y24176D01*
X293353Y24233D01*
X293038Y24302D01*
X292734Y24385D01*
X292439Y24480D01*
X292155Y24587D01*
X291881Y24708D01*
X291617Y24840D01*
X291363Y24986D01*
X290885Y25315D01*
X290448Y25695D01*
X290057Y26120D01*
X289881Y26347D01*
X289718Y26584D01*
X289568Y26832D01*
X289431Y27089D01*
X289307Y27356D01*
X289196Y27633D01*
X289099Y27920D01*
X289014Y28216D01*
X288942Y28523D01*
X288884Y28840D01*
X288838Y29166D01*
X288805Y29503D01*
X288786Y29849D01*
X288779Y30206D01*
X288791Y30669D01*
X288826Y31116D01*
X288885Y31548D01*
X288967Y31964D01*
X289072Y32364D01*
X289201Y32749D01*
X289353Y33119D01*
X289528Y33472D01*
X289726Y33808D01*
X289945Y34124D01*
X290185Y34419D01*
X290447Y34693D01*
X290729Y34947D01*
X291033Y35181D01*
X291358Y35395D01*
X291705Y35588D01*
X292070Y35759D01*
X292451Y35908D01*
X292848Y36033D01*
X293261Y36136D01*
X293691Y36216D01*
X294137Y36273D01*
X294599Y36308D01*
X295077Y36319D01*
X295553Y36307D01*
X296014Y36273D01*
X296461Y36215D01*
X296892Y36134D01*
X297308Y36030D01*
X297709Y35903D01*
X298095Y35752D01*
X298466Y35579D01*
X298819Y35384D01*
X299151Y35169D01*
X299462Y34933D01*
X299752Y34678D01*
X300020Y34402D01*
X300268Y34107D01*
X300494Y33791D01*
X300700Y33455D01*
X300882Y33101D01*
X301041Y32732D01*
X301175Y32347D01*
X301284Y31946D01*
X301370Y31530D01*
X301430Y31098D01*
X301467Y30651D01*
X301479Y30188D01*
X301467Y29721D01*
X301431Y29270D01*
X301371Y28836D01*
X301287Y28418D01*
X301178Y28016D01*
X301046Y27630D01*
X300889Y27261D01*
X300708Y26908D01*
X300505Y26573D01*
X300280Y26259D01*
X300034Y25965D01*
X299766Y25692D01*
X299476Y25439D01*
X299166Y25206D01*
X298833Y24993D01*
X298479Y24802D01*
X298107Y24631D01*
X297720Y24483D01*
X297317Y24359D01*
X296900Y24256D01*
X296467Y24177D01*
X296019Y24120D01*
X295555Y24086D01*
X295077Y24075D01*
G37*
%LPC*%
G36*
X295077Y25774D02*
X295642Y25792D01*
X296177Y25847D01*
X296683Y25938D01*
X297158Y26066D01*
X297603Y26230D01*
X298019Y26431D01*
X298404Y26669D01*
X298760Y26943D01*
X299079Y27249D01*
X299356Y27584D01*
X299590Y27947D01*
X299781Y28339D01*
X299930Y28759D01*
X300037Y29207D01*
X300100Y29683D01*
X300122Y30188D01*
X300101Y30707D01*
X300039Y31194D01*
X299936Y31651D01*
X299792Y32077D01*
X299607Y32471D01*
X299380Y32834D01*
X299112Y33167D01*
X298803Y33468D01*
X298457Y33736D01*
X298076Y33968D01*
X297662Y34165D01*
X297213Y34325D01*
X296730Y34450D01*
X296213Y34540D01*
X295662Y34593D01*
X295077Y34611D01*
X294516Y34593D01*
X293987Y34539D01*
X293488Y34449D01*
X293021Y34323D01*
X292584Y34161D01*
X292178Y33963D01*
X291803Y33729D01*
X291459Y33459D01*
X291152Y33157D01*
X290885Y32824D01*
X290659Y32462D01*
X290474Y32070D01*
X290330Y31648D01*
X290228Y31197D01*
X290166Y30716D01*
X290146Y30206D01*
X290166Y29691D01*
X290227Y29206D01*
X290328Y28751D01*
X290470Y28327D01*
X290652Y27932D01*
X290875Y27568D01*
X291138Y27234D01*
X291442Y26930D01*
X291782Y26659D01*
X292155Y26424D01*
X292561Y26225D01*
X292999Y26063D01*
X293469Y25936D01*
X293973Y25846D01*
X294508Y25792D01*
X295077Y25774D01*
G37*
%LPD*%
G36*
X301304Y12728D02*
X288963Y12728D01*
X288963Y17922D01*
X288978Y18426D01*
X289024Y18901D01*
X289100Y19347D01*
X289206Y19763D01*
X289343Y20150D01*
X289510Y20508D01*
X289708Y20837D01*
X289935Y21136D01*
X290191Y21403D01*
X290471Y21634D01*
X290777Y21830D01*
X291107Y21990D01*
X291462Y22114D01*
X291842Y22203D01*
X292247Y22257D01*
X292677Y22274D01*
X293104Y22257D01*
X293508Y22203D01*
X293890Y22114D01*
X294249Y21989D01*
X294586Y21828D01*
X294900Y21632D01*
X295192Y21399D01*
X295462Y21132D01*
X295704Y20833D01*
X295914Y20509D01*
X296092Y20159D01*
X296237Y19784D01*
X296350Y19383D01*
X296431Y18956D01*
X296479Y18504D01*
X296496Y18027D01*
X296496Y14401D01*
X301304Y14401D01*
X301304Y12728D01*
G37*
%LPC*%
G36*
X295173Y14401D02*
X295173Y17790D01*
X295163Y18130D01*
X295134Y18447D01*
X295086Y18743D01*
X295018Y19016D01*
X294931Y19268D01*
X294824Y19498D01*
X294699Y19706D01*
X294553Y19892D01*
X294389Y20056D01*
X294205Y20199D01*
X294001Y20319D01*
X293779Y20418D01*
X293537Y20494D01*
X293275Y20549D01*
X292995Y20582D01*
X292694Y20593D01*
X292405Y20582D01*
X292134Y20548D01*
X291882Y20492D01*
X291648Y20413D01*
X291433Y20312D01*
X291237Y20189D01*
X291060Y20043D01*
X290901Y19875D01*
X290761Y19684D01*
X290640Y19471D01*
X290537Y19235D01*
X290453Y18977D01*
X290387Y18696D01*
X290341Y18393D01*
X290313Y18068D01*
X290303Y17720D01*
X290303Y14401D01*
X295173Y14401D01*
G37*
%LPD*%
G36*
X301304Y49033D02*
X300192Y49033D01*
X299694Y49269D01*
X299227Y49529D01*
X298790Y49814D01*
X298383Y50124D01*
X298000Y50450D01*
X297636Y50784D01*
X297291Y51126D01*
X296964Y51477D01*
X296352Y52183D01*
X295786Y52883D01*
X295243Y53545D01*
X294700Y54140D01*
X294425Y54406D01*
X294144Y54647D01*
X293856Y54860D01*
X293561Y55046D01*
X293254Y55197D01*
X292926Y55306D01*
X292579Y55370D01*
X292213Y55392D01*
X291966Y55383D01*
X291733Y55355D01*
X291515Y55308D01*
X291311Y55243D01*
X291121Y55159D01*
X290945Y55057D01*
X290783Y54936D01*
X290636Y54797D01*
X290505Y54640D01*
X290391Y54470D01*
X290295Y54285D01*
X290216Y54085D01*
X290154Y53871D01*
X290111Y53642D01*
X290084Y53399D01*
X290076Y53141D01*
X290084Y52895D01*
X290110Y52660D01*
X290153Y52436D01*
X290212Y52223D01*
X290289Y52021D01*
X290383Y51830D01*
X290495Y51650D01*
X290623Y51481D01*
X290767Y51327D01*
X290924Y51189D01*
X291096Y51068D01*
X291281Y50964D01*
X291480Y50876D01*
X291693Y50806D01*
X291920Y50752D01*
X292160Y50715D01*
X292011Y49103D01*
X291651Y49161D01*
X291309Y49248D01*
X290986Y49362D01*
X290682Y49505D01*
X290397Y49677D01*
X290131Y49876D01*
X289884Y50104D01*
X289655Y50360D01*
X289450Y50640D01*
X289272Y50940D01*
X289121Y51258D01*
X288998Y51596D01*
X288902Y51954D01*
X288834Y52330D01*
X288793Y52726D01*
X288779Y53141D01*
X288793Y53594D01*
X288834Y54020D01*
X288903Y54419D01*
X288999Y54791D01*
X289123Y55136D01*
X289274Y55454D01*
X289453Y55745D01*
X289660Y56010D01*
X289891Y56245D01*
X290146Y56448D01*
X290424Y56621D01*
X290725Y56762D01*
X291049Y56871D01*
X291396Y56950D01*
X291767Y56997D01*
X292160Y57012D01*
X292519Y56992D01*
X292876Y56930D01*
X293232Y56828D01*
X293588Y56684D01*
X293942Y56500D01*
X294297Y56276D01*
X294652Y56011D01*
X295007Y55707D01*
X295410Y55309D01*
X295911Y54764D01*
X296509Y54070D01*
X297205Y53229D01*
X297607Y52751D01*
X297988Y52324D01*
X298349Y51949D01*
X298690Y51626D01*
X299017Y51349D01*
X299339Y51114D01*
X299654Y50920D01*
X299964Y50768D01*
X299964Y57205D01*
X301304Y57205D01*
X301304Y49033D01*
G37*
G36*
X290330Y37565D02*
X288963Y37565D01*
X288963Y47708D01*
X290330Y47708D01*
X290330Y43469D01*
X301304Y43469D01*
X301304Y41805D01*
X290330Y41805D01*
X290330Y37565D01*
G37*
G36*
X17943Y76975D02*
X17394Y76987D01*
X16875Y77024D01*
X16385Y77085D01*
X15925Y77171D01*
X15495Y77281D01*
X15094Y77416D01*
X14722Y77575D01*
X14381Y77759D01*
X14069Y77967D01*
X13787Y78200D01*
X13534Y78457D01*
X13311Y78739D01*
X13117Y79045D01*
X12953Y79375D01*
X12819Y79731D01*
X12715Y80110D01*
X14335Y80434D01*
X14415Y80166D01*
X14514Y79915D01*
X14634Y79683D01*
X14773Y79470D01*
X14932Y79275D01*
X15110Y79099D01*
X15308Y78941D01*
X15526Y78801D01*
X15764Y78679D01*
X16023Y78573D01*
X16302Y78483D01*
X16601Y78410D01*
X16921Y78353D01*
X17262Y78312D01*
X17623Y78288D01*
X18005Y78280D01*
X18398Y78289D01*
X18769Y78315D01*
X19116Y78358D01*
X19440Y78419D01*
X19741Y78497D01*
X20019Y78593D01*
X20274Y78706D01*
X20505Y78836D01*
X20712Y78983D01*
X20890Y79147D01*
X21042Y79326D01*
X21165Y79522D01*
X21262Y79735D01*
X21330Y79963D01*
X21372Y80208D01*
X21386Y80469D01*
X21368Y80757D01*
X21317Y81017D01*
X21230Y81248D01*
X21110Y81450D01*
X20958Y81631D01*
X20778Y81794D01*
X20570Y81941D01*
X20334Y82072D01*
X20073Y82190D01*
X19787Y82298D01*
X19477Y82396D01*
X19143Y82484D01*
X17611Y82843D01*
X16923Y83005D01*
X16324Y83167D01*
X15813Y83329D01*
X15390Y83491D01*
X15031Y83658D01*
X14713Y83834D01*
X14434Y84019D01*
X14195Y84214D01*
X13989Y84422D01*
X13808Y84646D01*
X13654Y84888D01*
X13525Y85147D01*
X13423Y85424D01*
X13351Y85720D01*
X13307Y86037D01*
X13293Y86373D01*
X13312Y86758D01*
X13368Y87120D01*
X13463Y87459D01*
X13596Y87776D01*
X13766Y88070D01*
X13975Y88342D01*
X14221Y88590D01*
X14506Y88816D01*
X14825Y89018D01*
X15178Y89192D01*
X15563Y89339D01*
X15980Y89460D01*
X16431Y89554D01*
X16914Y89621D01*
X17430Y89661D01*
X17978Y89675D01*
X18488Y89665D01*
X18968Y89634D01*
X19416Y89584D01*
X19833Y89514D01*
X20219Y89423D01*
X20575Y89313D01*
X20899Y89182D01*
X21193Y89031D01*
X21460Y88856D01*
X21707Y88652D01*
X21933Y88421D01*
X22139Y88161D01*
X22323Y87872D01*
X22487Y87555D01*
X22630Y87210D01*
X22752Y86837D01*
X21105Y86548D01*
X21030Y86785D01*
X20939Y87005D01*
X20833Y87208D01*
X20711Y87394D01*
X20574Y87564D01*
X20422Y87716D01*
X20255Y87852D01*
X20072Y87971D01*
X19872Y88075D01*
X19654Y88165D01*
X19418Y88241D01*
X19163Y88303D01*
X18890Y88351D01*
X18599Y88386D01*
X18289Y88407D01*
X17961Y88413D01*
X17602Y88406D01*
X17265Y88383D01*
X16949Y88345D01*
X16656Y88291D01*
X16384Y88222D01*
X16135Y88138D01*
X15907Y88038D01*
X15701Y87923D01*
X15519Y87793D01*
X15360Y87648D01*
X15226Y87487D01*
X15117Y87312D01*
X15031Y87122D01*
X14970Y86916D01*
X14934Y86696D01*
X14922Y86460D01*
X14941Y86188D01*
X14997Y85940D01*
X15092Y85717D01*
X15224Y85519D01*
X15392Y85340D01*
X15593Y85175D01*
X15827Y85024D01*
X16095Y84888D01*
X16451Y84752D01*
X16947Y84600D01*
X17585Y84434D01*
X18364Y84253D01*
X19498Y83986D01*
X20051Y83837D01*
X20580Y83662D01*
X21080Y83457D01*
X21548Y83220D01*
X21766Y83086D01*
X21969Y82937D01*
X22158Y82775D01*
X22331Y82598D01*
X22489Y82406D01*
X22628Y82197D01*
X22749Y81972D01*
X22853Y81731D01*
X22935Y81470D01*
X22994Y81188D01*
X23029Y80883D01*
X23041Y80557D01*
X23020Y80142D01*
X22957Y79751D01*
X22853Y79385D01*
X22707Y79042D01*
X22519Y78723D01*
X22290Y78429D01*
X22018Y78158D01*
X21705Y77912D01*
X21354Y77692D01*
X20969Y77502D01*
X20550Y77341D01*
X20097Y77209D01*
X19610Y77107D01*
X19088Y77033D01*
X18533Y76990D01*
X17943Y76975D01*
G37*
G36*
X29912Y76975D02*
X29363Y76987D01*
X28844Y77024D01*
X28354Y77085D01*
X27894Y77171D01*
X27463Y77281D01*
X27062Y77416D01*
X26691Y77575D01*
X26350Y77759D01*
X26038Y77967D01*
X25755Y78200D01*
X25503Y78457D01*
X25279Y78739D01*
X25086Y79045D01*
X24922Y79375D01*
X24788Y79731D01*
X24683Y80110D01*
X26304Y80434D01*
X26384Y80166D01*
X26483Y79915D01*
X26603Y79683D01*
X26742Y79470D01*
X26900Y79275D01*
X27079Y79099D01*
X27277Y78941D01*
X27495Y78801D01*
X27733Y78679D01*
X27991Y78573D01*
X28270Y78483D01*
X28570Y78410D01*
X28890Y78353D01*
X29231Y78312D01*
X29592Y78288D01*
X29973Y78280D01*
X30367Y78289D01*
X30737Y78315D01*
X31085Y78358D01*
X31409Y78419D01*
X31710Y78497D01*
X31988Y78593D01*
X32242Y78706D01*
X32474Y78836D01*
X32680Y78983D01*
X32859Y79147D01*
X33010Y79326D01*
X33134Y79522D01*
X33230Y79735D01*
X33299Y79963D01*
X33341Y80208D01*
X33354Y80469D01*
X33337Y80757D01*
X33285Y81017D01*
X33199Y81248D01*
X33078Y81450D01*
X32926Y81631D01*
X32747Y81794D01*
X32539Y81941D01*
X32303Y82072D01*
X32042Y82190D01*
X31756Y82298D01*
X31446Y82396D01*
X31112Y82484D01*
X29579Y82843D01*
X28892Y83005D01*
X28293Y83167D01*
X27782Y83329D01*
X27359Y83491D01*
X27000Y83658D01*
X26681Y83834D01*
X26402Y84019D01*
X26163Y84214D01*
X25957Y84422D01*
X25777Y84646D01*
X25622Y84888D01*
X25493Y85147D01*
X25392Y85424D01*
X25319Y85720D01*
X25276Y86037D01*
X25261Y86373D01*
X25280Y86758D01*
X25337Y87120D01*
X25432Y87459D01*
X25565Y87776D01*
X25735Y88070D01*
X25944Y88342D01*
X26190Y88590D01*
X26474Y88816D01*
X26794Y89018D01*
X27146Y89192D01*
X27531Y89339D01*
X27949Y89460D01*
X28400Y89554D01*
X28883Y89621D01*
X29399Y89661D01*
X29947Y89675D01*
X30457Y89665D01*
X30936Y89634D01*
X31385Y89584D01*
X31802Y89514D01*
X32188Y89423D01*
X32544Y89313D01*
X32868Y89182D01*
X33162Y89031D01*
X33429Y88856D01*
X33676Y88652D01*
X33902Y88421D01*
X34107Y88161D01*
X34292Y87872D01*
X34456Y87555D01*
X34599Y87210D01*
X34721Y86837D01*
X33074Y86548D01*
X32998Y86785D01*
X32908Y87005D01*
X32801Y87208D01*
X32680Y87394D01*
X32543Y87564D01*
X32391Y87716D01*
X32223Y87852D01*
X32040Y87971D01*
X31841Y88075D01*
X31623Y88165D01*
X31386Y88241D01*
X31132Y88303D01*
X30859Y88351D01*
X30567Y88386D01*
X30258Y88407D01*
X29930Y88413D01*
X29571Y88406D01*
X29233Y88383D01*
X28918Y88345D01*
X28625Y88291D01*
X28353Y88222D01*
X28104Y88138D01*
X27876Y88038D01*
X27670Y87923D01*
X27487Y87793D01*
X27329Y87648D01*
X27195Y87487D01*
X27085Y87312D01*
X27000Y87122D01*
X26939Y86916D01*
X26903Y86696D01*
X26890Y86460D01*
X26909Y86188D01*
X26966Y85940D01*
X27060Y85717D01*
X27193Y85519D01*
X27360Y85340D01*
X27562Y85175D01*
X27796Y85024D01*
X28064Y84888D01*
X28419Y84752D01*
X28916Y84600D01*
X29554Y84434D01*
X30333Y84253D01*
X31467Y83986D01*
X32020Y83837D01*
X32548Y83662D01*
X33049Y83457D01*
X33516Y83220D01*
X33734Y83086D01*
X33938Y82937D01*
X34126Y82775D01*
X34300Y82598D01*
X34458Y82406D01*
X34597Y82197D01*
X34718Y81972D01*
X34821Y81731D01*
X34904Y81470D01*
X34963Y81188D01*
X34998Y80883D01*
X35010Y80557D01*
X34989Y80142D01*
X34926Y79751D01*
X34822Y79385D01*
X34676Y79042D01*
X34488Y78723D01*
X34258Y78429D01*
X33987Y78158D01*
X33674Y77912D01*
X33323Y77692D01*
X32938Y77502D01*
X32519Y77341D01*
X32066Y77209D01*
X31578Y77107D01*
X31057Y77033D01*
X30502Y76990D01*
X29912Y76975D01*
G37*
G36*
X396052Y24075D02*
X395687Y24081D01*
X395332Y24100D01*
X394987Y24132D01*
X394652Y24176D01*
X394328Y24233D01*
X394013Y24302D01*
X393709Y24385D01*
X393414Y24480D01*
X393130Y24587D01*
X392856Y24708D01*
X392592Y24840D01*
X392338Y24986D01*
X391860Y25315D01*
X391423Y25695D01*
X391032Y26120D01*
X390856Y26347D01*
X390693Y26584D01*
X390543Y26832D01*
X390406Y27089D01*
X390282Y27356D01*
X390171Y27633D01*
X390074Y27920D01*
X389989Y28216D01*
X389917Y28523D01*
X389859Y28840D01*
X389813Y29166D01*
X389780Y29503D01*
X389761Y29849D01*
X389754Y30206D01*
X389766Y30669D01*
X389801Y31116D01*
X389860Y31548D01*
X389942Y31964D01*
X390047Y32364D01*
X390176Y32749D01*
X390328Y33119D01*
X390503Y33472D01*
X390701Y33808D01*
X390920Y34124D01*
X391160Y34419D01*
X391422Y34693D01*
X391704Y34947D01*
X392008Y35181D01*
X392333Y35395D01*
X392680Y35588D01*
X393045Y35759D01*
X393426Y35908D01*
X393823Y36033D01*
X394236Y36136D01*
X394666Y36216D01*
X395112Y36273D01*
X395574Y36308D01*
X396052Y36319D01*
X396528Y36307D01*
X396989Y36273D01*
X397436Y36215D01*
X397867Y36134D01*
X398283Y36030D01*
X398684Y35903D01*
X399070Y35752D01*
X399441Y35579D01*
X399794Y35384D01*
X400126Y35169D01*
X400437Y34933D01*
X400727Y34678D01*
X400995Y34402D01*
X401243Y34107D01*
X401469Y33791D01*
X401675Y33455D01*
X401857Y33101D01*
X402016Y32732D01*
X402150Y32347D01*
X402259Y31946D01*
X402345Y31530D01*
X402405Y31098D01*
X402442Y30651D01*
X402454Y30188D01*
X402442Y29721D01*
X402406Y29270D01*
X402346Y28836D01*
X402262Y28418D01*
X402153Y28016D01*
X402021Y27630D01*
X401864Y27261D01*
X401683Y26908D01*
X401480Y26573D01*
X401255Y26259D01*
X401009Y25965D01*
X400741Y25692D01*
X400451Y25439D01*
X400141Y25206D01*
X399808Y24993D01*
X399454Y24802D01*
X399082Y24631D01*
X398695Y24483D01*
X398292Y24359D01*
X397875Y24256D01*
X397442Y24177D01*
X396994Y24120D01*
X396530Y24086D01*
X396052Y24075D01*
G37*
%LPC*%
G36*
X396052Y25774D02*
X396617Y25792D01*
X397152Y25847D01*
X397658Y25938D01*
X398133Y26066D01*
X398578Y26230D01*
X398994Y26431D01*
X399379Y26669D01*
X399735Y26943D01*
X400054Y27249D01*
X400331Y27584D01*
X400565Y27947D01*
X400756Y28339D01*
X400905Y28759D01*
X401012Y29207D01*
X401075Y29683D01*
X401097Y30188D01*
X401076Y30707D01*
X401014Y31194D01*
X400911Y31651D01*
X400767Y32077D01*
X400582Y32471D01*
X400355Y32834D01*
X400087Y33167D01*
X399778Y33468D01*
X399432Y33736D01*
X399051Y33968D01*
X398637Y34165D01*
X398188Y34325D01*
X397705Y34450D01*
X397188Y34540D01*
X396637Y34593D01*
X396052Y34611D01*
X395491Y34593D01*
X394962Y34539D01*
X394463Y34449D01*
X393996Y34323D01*
X393559Y34161D01*
X393153Y33963D01*
X392778Y33729D01*
X392434Y33459D01*
X392127Y33157D01*
X391860Y32824D01*
X391634Y32462D01*
X391449Y32070D01*
X391305Y31648D01*
X391203Y31197D01*
X391141Y30716D01*
X391121Y30206D01*
X391141Y29691D01*
X391202Y29206D01*
X391303Y28751D01*
X391445Y28327D01*
X391627Y27932D01*
X391850Y27568D01*
X392113Y27234D01*
X392417Y26930D01*
X392757Y26659D01*
X393130Y26424D01*
X393536Y26225D01*
X393974Y26063D01*
X394444Y25936D01*
X394948Y25846D01*
X395483Y25792D01*
X396052Y25774D01*
G37*
%LPD*%
G36*
X402279Y12728D02*
X389938Y12728D01*
X389938Y17922D01*
X389953Y18426D01*
X389999Y18901D01*
X390075Y19347D01*
X390181Y19763D01*
X390318Y20150D01*
X390485Y20508D01*
X390683Y20837D01*
X390910Y21136D01*
X391166Y21403D01*
X391446Y21634D01*
X391752Y21830D01*
X392082Y21990D01*
X392437Y22114D01*
X392817Y22203D01*
X393222Y22257D01*
X393652Y22274D01*
X394079Y22257D01*
X394483Y22203D01*
X394865Y22114D01*
X395224Y21989D01*
X395561Y21828D01*
X395875Y21632D01*
X396167Y21399D01*
X396437Y21132D01*
X396679Y20833D01*
X396889Y20509D01*
X397067Y20159D01*
X397212Y19784D01*
X397325Y19383D01*
X397406Y18956D01*
X397454Y18504D01*
X397471Y18027D01*
X397471Y14401D01*
X402279Y14401D01*
X402279Y12728D01*
G37*
%LPC*%
G36*
X396148Y14401D02*
X396148Y17790D01*
X396138Y18130D01*
X396109Y18447D01*
X396061Y18743D01*
X395993Y19016D01*
X395906Y19268D01*
X395799Y19498D01*
X395674Y19706D01*
X395528Y19892D01*
X395364Y20056D01*
X395180Y20199D01*
X394976Y20319D01*
X394754Y20418D01*
X394512Y20494D01*
X394250Y20549D01*
X393970Y20582D01*
X393669Y20593D01*
X393380Y20582D01*
X393109Y20548D01*
X392857Y20492D01*
X392623Y20413D01*
X392408Y20312D01*
X392212Y20189D01*
X392035Y20043D01*
X391876Y19875D01*
X391736Y19684D01*
X391615Y19471D01*
X391512Y19235D01*
X391428Y18977D01*
X391362Y18696D01*
X391316Y18393D01*
X391288Y18068D01*
X391278Y17720D01*
X391278Y14401D01*
X396148Y14401D01*
G37*
%LPD*%
G36*
X399108Y48814D02*
X398960Y50444D01*
X399225Y50491D01*
X399473Y50554D01*
X399704Y50634D01*
X399918Y50730D01*
X400114Y50842D01*
X400294Y50969D01*
X400456Y51113D01*
X400602Y51273D01*
X400730Y51449D01*
X400841Y51642D01*
X400935Y51850D01*
X401012Y52074D01*
X401072Y52315D01*
X401115Y52571D01*
X401141Y52844D01*
X401149Y53132D01*
X401140Y53422D01*
X401113Y53696D01*
X401067Y53954D01*
X401002Y54195D01*
X400920Y54421D01*
X400819Y54631D01*
X400700Y54825D01*
X400562Y55002D01*
X400407Y55161D01*
X400233Y55299D01*
X400042Y55416D01*
X399833Y55511D01*
X399606Y55586D01*
X399362Y55639D01*
X399100Y55671D01*
X398819Y55681D01*
X398575Y55669D01*
X398343Y55633D01*
X398126Y55572D01*
X397923Y55487D01*
X397733Y55378D01*
X397557Y55245D01*
X397395Y55088D01*
X397247Y54906D01*
X397115Y54701D01*
X397000Y54475D01*
X396903Y54228D01*
X396824Y53959D01*
X396762Y53668D01*
X396718Y53357D01*
X396691Y53023D01*
X396682Y52668D01*
X396682Y51775D01*
X395316Y51775D01*
X395316Y52633D01*
X395307Y52948D01*
X395281Y53245D01*
X395237Y53523D01*
X395175Y53784D01*
X395095Y54026D01*
X394998Y54250D01*
X394883Y54456D01*
X394751Y54643D01*
X394603Y54811D01*
X394442Y54956D01*
X394266Y55078D01*
X394078Y55179D01*
X393876Y55257D01*
X393660Y55312D01*
X393431Y55346D01*
X393188Y55357D01*
X392947Y55348D01*
X392719Y55321D01*
X392504Y55275D01*
X392302Y55211D01*
X392113Y55130D01*
X391937Y55029D01*
X391774Y54911D01*
X391624Y54775D01*
X391490Y54620D01*
X391373Y54448D01*
X391275Y54258D01*
X391194Y54051D01*
X391131Y53826D01*
X391086Y53583D01*
X391060Y53323D01*
X391051Y53045D01*
X391059Y52790D01*
X391084Y52549D01*
X391126Y52319D01*
X391184Y52102D01*
X391259Y51898D01*
X391351Y51706D01*
X391460Y51526D01*
X391585Y51359D01*
X391725Y51206D01*
X391879Y51071D01*
X392047Y50952D01*
X392229Y50850D01*
X392424Y50764D01*
X392633Y50696D01*
X392855Y50645D01*
X393091Y50610D01*
X392969Y49025D01*
X392600Y49083D01*
X392253Y49169D01*
X391926Y49283D01*
X391620Y49426D01*
X391335Y49598D01*
X391070Y49797D01*
X390827Y50025D01*
X390604Y50281D01*
X390405Y50562D01*
X390232Y50861D01*
X390086Y51180D01*
X389967Y51518D01*
X389874Y51875D01*
X389807Y52251D01*
X389768Y52647D01*
X389754Y53062D01*
X389768Y53514D01*
X389808Y53939D01*
X389876Y54339D01*
X389970Y54712D01*
X390091Y55060D01*
X390240Y55382D01*
X390415Y55678D01*
X390617Y55948D01*
X390843Y56189D01*
X391091Y56398D01*
X391360Y56575D01*
X391649Y56720D01*
X391961Y56833D01*
X392293Y56913D01*
X392646Y56961D01*
X393021Y56977D01*
X393310Y56967D01*
X393585Y56936D01*
X393846Y56884D01*
X394093Y56812D01*
X394326Y56719D01*
X394546Y56605D01*
X394752Y56471D01*
X394944Y56316D01*
X395121Y56141D01*
X395284Y55948D01*
X395432Y55736D01*
X395565Y55505D01*
X395682Y55255D01*
X395785Y54987D01*
X395873Y54700D01*
X395947Y54394D01*
X395982Y54394D01*
X396029Y54730D01*
X396095Y55047D01*
X396182Y55345D01*
X396288Y55624D01*
X396414Y55884D01*
X396560Y56125D01*
X396725Y56346D01*
X396910Y56548D01*
X397111Y56729D01*
X397325Y56885D01*
X397551Y57018D01*
X397790Y57126D01*
X398042Y57211D01*
X398306Y57271D01*
X398583Y57307D01*
X398872Y57319D01*
X399287Y57302D01*
X399678Y57251D01*
X400045Y57166D01*
X400387Y57047D01*
X400706Y56895D01*
X401000Y56708D01*
X401271Y56487D01*
X401517Y56233D01*
X401737Y55947D01*
X401927Y55632D01*
X402088Y55288D01*
X402220Y54915D01*
X402322Y54513D01*
X402396Y54082D01*
X402440Y53621D01*
X402454Y53132D01*
X402441Y52676D01*
X402401Y52243D01*
X402335Y51833D01*
X402243Y51447D01*
X402124Y51085D01*
X401979Y50747D01*
X401807Y50432D01*
X401609Y50141D01*
X401385Y49876D01*
X401136Y49640D01*
X400861Y49431D01*
X400561Y49251D01*
X400236Y49100D01*
X399885Y48976D01*
X399510Y48881D01*
X399108Y48814D01*
G37*
G36*
X391305Y37565D02*
X389938Y37565D01*
X389938Y47708D01*
X391305Y47708D01*
X391305Y43469D01*
X402279Y43469D01*
X402279Y41805D01*
X391305Y41805D01*
X391305Y37565D01*
G37*
G36*
X352023Y457687D02*
X351658Y457693D01*
X351303Y457712D01*
X350958Y457744D01*
X350623Y457788D01*
X350299Y457845D01*
X349984Y457915D01*
X349680Y457997D01*
X349385Y458092D01*
X349101Y458200D01*
X348827Y458320D01*
X348563Y458453D01*
X348309Y458599D01*
X347831Y458928D01*
X347394Y459307D01*
X347003Y459732D01*
X346827Y459960D01*
X346664Y460197D01*
X346514Y460444D01*
X346377Y460701D01*
X346253Y460968D01*
X346142Y461245D01*
X346045Y461532D01*
X345960Y461829D01*
X345888Y462136D01*
X345830Y462452D01*
X345784Y462779D01*
X345751Y463115D01*
X345732Y463462D01*
X345725Y463818D01*
X345737Y464281D01*
X345772Y464728D01*
X345831Y465160D01*
X345913Y465576D01*
X346018Y465977D01*
X346147Y466362D01*
X346299Y466731D01*
X346474Y467085D01*
X346672Y467421D01*
X346891Y467736D01*
X347131Y468031D01*
X347393Y468306D01*
X347675Y468560D01*
X347979Y468794D01*
X348304Y469007D01*
X348651Y469200D01*
X349016Y469372D01*
X349397Y469520D01*
X349794Y469646D01*
X350207Y469749D01*
X350637Y469829D01*
X351083Y469886D01*
X351545Y469920D01*
X352023Y469932D01*
X352499Y469920D01*
X352960Y469885D01*
X353407Y469827D01*
X353838Y469747D01*
X354254Y469642D01*
X354655Y469515D01*
X355041Y469365D01*
X355412Y469191D01*
X355765Y468996D01*
X356097Y468781D01*
X356408Y468546D01*
X356698Y468290D01*
X356966Y468015D01*
X357214Y467719D01*
X357440Y467403D01*
X357646Y467067D01*
X357828Y466714D01*
X357987Y466344D01*
X358121Y465959D01*
X358230Y465559D01*
X358316Y465143D01*
X358376Y464711D01*
X358413Y464264D01*
X358425Y463801D01*
X358413Y463334D01*
X358377Y462883D01*
X358317Y462448D01*
X358233Y462030D01*
X358124Y461628D01*
X357992Y461243D01*
X357835Y460873D01*
X357654Y460520D01*
X357451Y460186D01*
X357226Y459872D01*
X356980Y459578D01*
X356712Y459304D01*
X356422Y459051D01*
X356112Y458818D01*
X355779Y458606D01*
X355425Y458414D01*
X355053Y458244D01*
X354666Y458096D01*
X354263Y457971D01*
X353846Y457869D01*
X353413Y457789D01*
X352965Y457733D01*
X352501Y457698D01*
X352023Y457687D01*
G37*
%LPC*%
G36*
X352023Y459386D02*
X352588Y459405D01*
X353123Y459459D01*
X353629Y459551D01*
X354104Y459679D01*
X354549Y459843D01*
X354965Y460044D01*
X355350Y460281D01*
X355706Y460556D01*
X356025Y460862D01*
X356302Y461197D01*
X356536Y461560D01*
X356727Y461951D01*
X356876Y462371D01*
X356983Y462819D01*
X357046Y463296D01*
X357068Y463801D01*
X357047Y464319D01*
X356985Y464807D01*
X356882Y465264D01*
X356738Y465689D01*
X356553Y466084D01*
X356326Y466447D01*
X356058Y466779D01*
X355749Y467081D01*
X355403Y467349D01*
X355022Y467581D01*
X354608Y467777D01*
X354159Y467938D01*
X353676Y468063D01*
X353159Y468152D01*
X352608Y468206D01*
X352023Y468224D01*
X351462Y468206D01*
X350933Y468152D01*
X350434Y468062D01*
X349967Y467936D01*
X349530Y467774D01*
X349124Y467576D01*
X348749Y467342D01*
X348405Y467072D01*
X348098Y466769D01*
X347831Y466437D01*
X347605Y466074D01*
X347420Y465683D01*
X347276Y465261D01*
X347174Y464810D01*
X347112Y464329D01*
X347092Y463818D01*
X347112Y463303D01*
X347173Y462818D01*
X347274Y462364D01*
X347416Y461939D01*
X347598Y461545D01*
X347821Y461181D01*
X348084Y460846D01*
X348388Y460542D01*
X348728Y460271D01*
X349101Y460037D01*
X349507Y459838D01*
X349945Y459675D01*
X350415Y459549D01*
X350919Y459458D01*
X351454Y459404D01*
X352023Y459386D01*
G37*
%LPD*%
G36*
X358250Y443371D02*
X345909Y443371D01*
X345909Y445570D01*
X354466Y448854D01*
X355002Y449026D01*
X355574Y449191D01*
X356428Y449406D01*
X355987Y449514D01*
X355364Y449699D01*
X354783Y449887D01*
X354466Y450002D01*
X345909Y453225D01*
X345909Y455371D01*
X358250Y455371D01*
X358250Y453864D01*
X350017Y453864D01*
X348677Y453884D01*
X347389Y453943D01*
X348786Y453536D01*
X349357Y453349D01*
X349842Y453172D01*
X358250Y449984D01*
X358250Y448810D01*
X349842Y445579D01*
X348353Y445088D01*
X347389Y444799D01*
X348362Y444825D01*
X350017Y444860D01*
X358250Y444860D01*
X358250Y443371D01*
G37*
G36*
X355079Y482427D02*
X354931Y484056D01*
X355196Y484103D01*
X355444Y484167D01*
X355675Y484247D01*
X355889Y484342D01*
X356085Y484454D01*
X356265Y484582D01*
X356427Y484726D01*
X356573Y484886D01*
X356701Y485062D01*
X356812Y485254D01*
X356906Y485462D01*
X356983Y485687D01*
X357043Y485927D01*
X357086Y486184D01*
X357112Y486456D01*
X357120Y486745D01*
X357111Y487035D01*
X357084Y487308D01*
X357038Y487566D01*
X356973Y487808D01*
X356891Y488034D01*
X356790Y488243D01*
X356671Y488437D01*
X356533Y488615D01*
X356378Y488774D01*
X356204Y488912D01*
X356013Y489028D01*
X355804Y489124D01*
X355577Y489198D01*
X355333Y489251D01*
X355071Y489283D01*
X354790Y489294D01*
X354546Y489282D01*
X354314Y489245D01*
X354097Y489185D01*
X353894Y489100D01*
X353704Y488991D01*
X353528Y488858D01*
X353366Y488700D01*
X353218Y488518D01*
X353086Y488314D01*
X352971Y488088D01*
X352874Y487840D01*
X352795Y487571D01*
X352733Y487281D01*
X352689Y486969D01*
X352662Y486636D01*
X352653Y486281D01*
X352653Y485387D01*
X351287Y485387D01*
X351287Y486246D01*
X351278Y486561D01*
X351252Y486857D01*
X351208Y487136D01*
X351146Y487396D01*
X351066Y487638D01*
X350969Y487862D01*
X350854Y488068D01*
X350722Y488256D01*
X350574Y488423D01*
X350413Y488568D01*
X350237Y488691D01*
X350049Y488791D01*
X349847Y488869D01*
X349631Y488925D01*
X349402Y488958D01*
X349159Y488970D01*
X348918Y488960D01*
X348690Y488933D01*
X348475Y488888D01*
X348273Y488824D01*
X348084Y488742D01*
X347908Y488642D01*
X347745Y488524D01*
X347595Y488387D01*
X347461Y488233D01*
X347344Y488061D01*
X347246Y487871D01*
X347165Y487663D01*
X347102Y487438D01*
X347057Y487196D01*
X347031Y486935D01*
X347022Y486657D01*
X347030Y486403D01*
X347055Y486161D01*
X347097Y485932D01*
X347155Y485715D01*
X347230Y485510D01*
X347322Y485318D01*
X347431Y485138D01*
X347556Y484971D01*
X347696Y484819D01*
X347850Y484683D01*
X348018Y484564D01*
X348200Y484462D01*
X348395Y484377D01*
X348604Y484309D01*
X348826Y484257D01*
X349062Y484222D01*
X348940Y482637D01*
X348571Y482695D01*
X348224Y482781D01*
X347897Y482896D01*
X347591Y483039D01*
X347306Y483210D01*
X347041Y483410D01*
X346798Y483638D01*
X346575Y483894D01*
X346376Y484174D01*
X346203Y484473D01*
X346057Y484792D01*
X345938Y485130D01*
X345845Y485487D01*
X345778Y485864D01*
X345739Y486260D01*
X345725Y486675D01*
X345739Y487126D01*
X345779Y487551D01*
X345847Y487951D01*
X345941Y488325D01*
X346062Y488673D01*
X346211Y488994D01*
X346386Y489291D01*
X346588Y489561D01*
X346814Y489802D01*
X347062Y490011D01*
X347331Y490188D01*
X347620Y490333D01*
X347932Y490445D01*
X348264Y490526D01*
X348617Y490574D01*
X348992Y490590D01*
X349281Y490580D01*
X349556Y490549D01*
X349817Y490497D01*
X350064Y490425D01*
X350297Y490332D01*
X350517Y490218D01*
X350723Y490084D01*
X350915Y489929D01*
X351092Y489754D01*
X351255Y489560D01*
X351403Y489348D01*
X351536Y489117D01*
X351653Y488868D01*
X351756Y488599D01*
X351844Y488312D01*
X351918Y488006D01*
X351953Y488006D01*
X352000Y488342D01*
X352066Y488660D01*
X352153Y488958D01*
X352259Y489237D01*
X352385Y489496D01*
X352531Y489737D01*
X352696Y489958D01*
X352881Y490161D01*
X353082Y490341D01*
X353296Y490498D01*
X353522Y490630D01*
X353761Y490739D01*
X354013Y490823D01*
X354277Y490883D01*
X354554Y490919D01*
X354843Y490931D01*
X355258Y490914D01*
X355649Y490864D01*
X356016Y490779D01*
X356358Y490660D01*
X356677Y490507D01*
X356971Y490321D01*
X357242Y490100D01*
X357488Y489845D01*
X357708Y489559D01*
X357898Y489244D01*
X358059Y488900D01*
X358191Y488527D01*
X358293Y488125D01*
X358367Y487694D01*
X358411Y487234D01*
X358425Y486745D01*
X358412Y486288D01*
X358372Y485855D01*
X358306Y485446D01*
X358214Y485060D01*
X358095Y484698D01*
X357950Y484360D01*
X357778Y484045D01*
X357580Y483754D01*
X357356Y483489D01*
X357107Y483252D01*
X356832Y483044D01*
X356532Y482864D01*
X356207Y482712D01*
X355856Y482589D01*
X355481Y482494D01*
X355079Y482427D01*
G37*
G36*
X347276Y471178D02*
X345909Y471178D01*
X345909Y481320D01*
X347276Y481320D01*
X347276Y477081D01*
X358250Y477081D01*
X358250Y475417D01*
X347276Y475417D01*
X347276Y471178D01*
G37*
G36*
X432023Y457687D02*
X431658Y457693D01*
X431303Y457712D01*
X430958Y457744D01*
X430623Y457788D01*
X430299Y457845D01*
X429984Y457915D01*
X429680Y457997D01*
X429385Y458092D01*
X429101Y458200D01*
X428827Y458320D01*
X428563Y458453D01*
X428309Y458599D01*
X427831Y458928D01*
X427394Y459307D01*
X427003Y459732D01*
X426827Y459960D01*
X426664Y460197D01*
X426514Y460444D01*
X426377Y460701D01*
X426253Y460968D01*
X426142Y461245D01*
X426045Y461532D01*
X425960Y461829D01*
X425888Y462136D01*
X425830Y462452D01*
X425784Y462779D01*
X425751Y463115D01*
X425732Y463462D01*
X425725Y463818D01*
X425737Y464281D01*
X425772Y464728D01*
X425831Y465160D01*
X425913Y465576D01*
X426018Y465977D01*
X426147Y466362D01*
X426299Y466731D01*
X426474Y467085D01*
X426672Y467421D01*
X426891Y467736D01*
X427131Y468031D01*
X427393Y468306D01*
X427675Y468560D01*
X427979Y468794D01*
X428304Y469007D01*
X428651Y469200D01*
X429016Y469372D01*
X429397Y469520D01*
X429794Y469646D01*
X430207Y469749D01*
X430637Y469829D01*
X431083Y469886D01*
X431545Y469920D01*
X432023Y469932D01*
X432499Y469920D01*
X432960Y469885D01*
X433407Y469827D01*
X433838Y469747D01*
X434254Y469642D01*
X434655Y469515D01*
X435041Y469365D01*
X435412Y469191D01*
X435765Y468996D01*
X436097Y468781D01*
X436408Y468546D01*
X436698Y468290D01*
X436966Y468015D01*
X437214Y467719D01*
X437440Y467403D01*
X437646Y467067D01*
X437828Y466714D01*
X437987Y466344D01*
X438121Y465959D01*
X438230Y465559D01*
X438316Y465143D01*
X438376Y464711D01*
X438413Y464264D01*
X438425Y463801D01*
X438413Y463334D01*
X438377Y462883D01*
X438317Y462448D01*
X438233Y462030D01*
X438124Y461628D01*
X437992Y461243D01*
X437835Y460873D01*
X437654Y460520D01*
X437451Y460186D01*
X437226Y459872D01*
X436980Y459578D01*
X436712Y459304D01*
X436422Y459051D01*
X436112Y458818D01*
X435779Y458606D01*
X435425Y458414D01*
X435053Y458244D01*
X434666Y458096D01*
X434263Y457971D01*
X433846Y457869D01*
X433413Y457789D01*
X432965Y457733D01*
X432501Y457698D01*
X432023Y457687D01*
G37*
%LPC*%
G36*
X432023Y459386D02*
X432588Y459405D01*
X433123Y459459D01*
X433629Y459551D01*
X434104Y459679D01*
X434549Y459843D01*
X434965Y460044D01*
X435350Y460281D01*
X435706Y460556D01*
X436025Y460862D01*
X436302Y461197D01*
X436536Y461560D01*
X436727Y461951D01*
X436876Y462371D01*
X436983Y462819D01*
X437046Y463296D01*
X437068Y463801D01*
X437047Y464319D01*
X436985Y464807D01*
X436882Y465264D01*
X436738Y465689D01*
X436553Y466084D01*
X436326Y466447D01*
X436058Y466779D01*
X435749Y467081D01*
X435403Y467349D01*
X435022Y467581D01*
X434608Y467777D01*
X434159Y467938D01*
X433676Y468063D01*
X433159Y468152D01*
X432608Y468206D01*
X432023Y468224D01*
X431462Y468206D01*
X430933Y468152D01*
X430434Y468062D01*
X429967Y467936D01*
X429530Y467774D01*
X429124Y467576D01*
X428749Y467342D01*
X428405Y467072D01*
X428098Y466769D01*
X427831Y466437D01*
X427605Y466074D01*
X427420Y465683D01*
X427276Y465261D01*
X427174Y464810D01*
X427112Y464329D01*
X427092Y463818D01*
X427112Y463303D01*
X427173Y462818D01*
X427274Y462364D01*
X427416Y461939D01*
X427598Y461545D01*
X427821Y461181D01*
X428084Y460846D01*
X428388Y460542D01*
X428728Y460271D01*
X429101Y460037D01*
X429507Y459838D01*
X429945Y459675D01*
X430415Y459549D01*
X430919Y459458D01*
X431454Y459404D01*
X432023Y459386D01*
G37*
%LPD*%
G36*
X438250Y443371D02*
X425909Y443371D01*
X425909Y445570D01*
X434466Y448854D01*
X435002Y449026D01*
X435574Y449191D01*
X436428Y449406D01*
X435987Y449514D01*
X435364Y449699D01*
X434783Y449887D01*
X434466Y450002D01*
X425909Y453225D01*
X425909Y455371D01*
X438250Y455371D01*
X438250Y453864D01*
X430017Y453864D01*
X428677Y453884D01*
X427389Y453943D01*
X428786Y453536D01*
X429357Y453349D01*
X429842Y453172D01*
X438250Y449984D01*
X438250Y448810D01*
X429842Y445579D01*
X428353Y445088D01*
X427389Y444799D01*
X428362Y444825D01*
X430017Y444860D01*
X438250Y444860D01*
X438250Y443371D01*
G37*
G36*
X435456Y482155D02*
X434230Y482155D01*
X425909Y487805D01*
X425909Y489460D01*
X434212Y489460D01*
X434212Y491194D01*
X435456Y491194D01*
X435456Y489460D01*
X438250Y489460D01*
X438250Y487971D01*
X435456Y487971D01*
X435456Y482155D01*
G37*
%LPC*%
G36*
X434212Y483609D02*
X434212Y487971D01*
X427687Y487971D01*
X428151Y487726D01*
X428729Y487384D01*
X433389Y484222D01*
X434037Y483749D01*
X434212Y483609D01*
G37*
%LPD*%
G36*
X427276Y471178D02*
X425909Y471178D01*
X425909Y481320D01*
X427276Y481320D01*
X427276Y477081D01*
X438250Y477081D01*
X438250Y475417D01*
X427276Y475417D01*
X427276Y471178D01*
G37*
G36*
X497026Y24075D02*
X496661Y24081D01*
X496306Y24100D01*
X495961Y24132D01*
X495626Y24176D01*
X495302Y24233D01*
X494987Y24302D01*
X494683Y24385D01*
X494388Y24480D01*
X494104Y24587D01*
X493830Y24708D01*
X493566Y24840D01*
X493312Y24986D01*
X492834Y25315D01*
X492397Y25695D01*
X492006Y26120D01*
X491830Y26347D01*
X491667Y26584D01*
X491517Y26832D01*
X491380Y27089D01*
X491256Y27356D01*
X491145Y27633D01*
X491048Y27920D01*
X490963Y28216D01*
X490891Y28523D01*
X490833Y28840D01*
X490787Y29166D01*
X490754Y29503D01*
X490735Y29849D01*
X490728Y30206D01*
X490740Y30669D01*
X490775Y31116D01*
X490834Y31548D01*
X490916Y31964D01*
X491021Y32364D01*
X491150Y32749D01*
X491302Y33119D01*
X491477Y33472D01*
X491675Y33808D01*
X491894Y34124D01*
X492134Y34419D01*
X492396Y34693D01*
X492678Y34947D01*
X492982Y35181D01*
X493307Y35395D01*
X493654Y35588D01*
X494019Y35759D01*
X494400Y35908D01*
X494797Y36033D01*
X495210Y36136D01*
X495640Y36216D01*
X496086Y36273D01*
X496548Y36308D01*
X497026Y36319D01*
X497502Y36307D01*
X497963Y36273D01*
X498410Y36215D01*
X498841Y36134D01*
X499257Y36030D01*
X499658Y35903D01*
X500044Y35752D01*
X500415Y35579D01*
X500768Y35384D01*
X501100Y35169D01*
X501411Y34933D01*
X501701Y34678D01*
X501969Y34402D01*
X502217Y34107D01*
X502443Y33791D01*
X502649Y33455D01*
X502831Y33101D01*
X502990Y32732D01*
X503124Y32347D01*
X503233Y31946D01*
X503319Y31530D01*
X503379Y31098D01*
X503416Y30651D01*
X503428Y30188D01*
X503416Y29721D01*
X503380Y29270D01*
X503320Y28836D01*
X503236Y28418D01*
X503127Y28016D01*
X502995Y27630D01*
X502838Y27261D01*
X502657Y26908D01*
X502454Y26573D01*
X502229Y26259D01*
X501983Y25965D01*
X501715Y25692D01*
X501425Y25439D01*
X501115Y25206D01*
X500782Y24993D01*
X500428Y24802D01*
X500056Y24631D01*
X499669Y24483D01*
X499266Y24359D01*
X498849Y24256D01*
X498416Y24177D01*
X497968Y24120D01*
X497504Y24086D01*
X497026Y24075D01*
G37*
%LPC*%
G36*
X497026Y25774D02*
X497591Y25792D01*
X498126Y25847D01*
X498632Y25938D01*
X499107Y26066D01*
X499552Y26230D01*
X499968Y26431D01*
X500353Y26669D01*
X500709Y26943D01*
X501028Y27249D01*
X501305Y27584D01*
X501539Y27947D01*
X501730Y28339D01*
X501879Y28759D01*
X501986Y29207D01*
X502049Y29683D01*
X502071Y30188D01*
X502050Y30707D01*
X501988Y31194D01*
X501885Y31651D01*
X501741Y32077D01*
X501556Y32471D01*
X501329Y32834D01*
X501061Y33167D01*
X500752Y33468D01*
X500406Y33736D01*
X500025Y33968D01*
X499611Y34165D01*
X499162Y34325D01*
X498679Y34450D01*
X498162Y34540D01*
X497611Y34593D01*
X497026Y34611D01*
X496465Y34593D01*
X495936Y34539D01*
X495437Y34449D01*
X494970Y34323D01*
X494533Y34161D01*
X494127Y33963D01*
X493752Y33729D01*
X493408Y33459D01*
X493101Y33157D01*
X492834Y32824D01*
X492608Y32462D01*
X492423Y32070D01*
X492279Y31648D01*
X492177Y31197D01*
X492115Y30716D01*
X492095Y30206D01*
X492115Y29691D01*
X492176Y29206D01*
X492277Y28751D01*
X492419Y28327D01*
X492601Y27932D01*
X492824Y27568D01*
X493087Y27234D01*
X493391Y26930D01*
X493731Y26659D01*
X494104Y26424D01*
X494510Y26225D01*
X494948Y26063D01*
X495418Y25936D01*
X495922Y25846D01*
X496457Y25792D01*
X497026Y25774D01*
G37*
%LPD*%
G36*
X503253Y12728D02*
X490912Y12728D01*
X490912Y17922D01*
X490927Y18426D01*
X490973Y18901D01*
X491049Y19347D01*
X491155Y19763D01*
X491292Y20150D01*
X491459Y20508D01*
X491657Y20837D01*
X491884Y21136D01*
X492140Y21403D01*
X492420Y21634D01*
X492726Y21830D01*
X493056Y21990D01*
X493411Y22114D01*
X493791Y22203D01*
X494196Y22257D01*
X494626Y22274D01*
X495053Y22257D01*
X495457Y22203D01*
X495839Y22114D01*
X496198Y21989D01*
X496535Y21828D01*
X496849Y21632D01*
X497141Y21399D01*
X497411Y21132D01*
X497653Y20833D01*
X497863Y20509D01*
X498041Y20159D01*
X498186Y19784D01*
X498299Y19383D01*
X498380Y18956D01*
X498428Y18504D01*
X498445Y18027D01*
X498445Y14401D01*
X503253Y14401D01*
X503253Y12728D01*
G37*
%LPC*%
G36*
X497122Y14401D02*
X497122Y17790D01*
X497112Y18130D01*
X497083Y18447D01*
X497035Y18743D01*
X496967Y19016D01*
X496880Y19268D01*
X496773Y19498D01*
X496648Y19706D01*
X496502Y19892D01*
X496338Y20056D01*
X496154Y20199D01*
X495950Y20319D01*
X495728Y20418D01*
X495486Y20494D01*
X495224Y20549D01*
X494944Y20582D01*
X494643Y20593D01*
X494354Y20582D01*
X494083Y20548D01*
X493831Y20492D01*
X493597Y20413D01*
X493382Y20312D01*
X493186Y20189D01*
X493009Y20043D01*
X492850Y19875D01*
X492710Y19684D01*
X492589Y19471D01*
X492486Y19235D01*
X492402Y18977D01*
X492336Y18696D01*
X492290Y18393D01*
X492262Y18068D01*
X492252Y17720D01*
X492252Y14401D01*
X497122Y14401D01*
G37*
%LPD*%
G36*
X500459Y48543D02*
X499233Y48543D01*
X490912Y54192D01*
X490912Y55848D01*
X499215Y55848D01*
X499215Y57582D01*
X500459Y57582D01*
X500459Y55848D01*
X503253Y55848D01*
X503253Y54359D01*
X500459Y54359D01*
X500459Y48543D01*
G37*
%LPC*%
G36*
X499215Y49997D02*
X499215Y54359D01*
X492690Y54359D01*
X493154Y54113D01*
X493732Y53772D01*
X498392Y50610D01*
X499040Y50137D01*
X499215Y49997D01*
G37*
%LPD*%
G36*
X492279Y37565D02*
X490912Y37565D01*
X490912Y47708D01*
X492279Y47708D01*
X492279Y43469D01*
X503253Y43469D01*
X503253Y41805D01*
X492279Y41805D01*
X492279Y37565D01*
G37*
G36*
X598000Y24075D02*
X597635Y24081D01*
X597280Y24100D01*
X596935Y24132D01*
X596600Y24176D01*
X596276Y24233D01*
X595961Y24302D01*
X595657Y24385D01*
X595362Y24480D01*
X595078Y24587D01*
X594804Y24708D01*
X594540Y24840D01*
X594286Y24986D01*
X593808Y25315D01*
X593371Y25695D01*
X592980Y26120D01*
X592804Y26347D01*
X592641Y26584D01*
X592491Y26832D01*
X592354Y27089D01*
X592230Y27356D01*
X592119Y27633D01*
X592022Y27920D01*
X591937Y28216D01*
X591865Y28523D01*
X591807Y28840D01*
X591761Y29166D01*
X591728Y29503D01*
X591709Y29849D01*
X591702Y30206D01*
X591714Y30669D01*
X591749Y31116D01*
X591808Y31548D01*
X591890Y31964D01*
X591995Y32364D01*
X592124Y32749D01*
X592276Y33119D01*
X592451Y33472D01*
X592649Y33808D01*
X592868Y34124D01*
X593108Y34419D01*
X593370Y34693D01*
X593652Y34947D01*
X593956Y35181D01*
X594281Y35395D01*
X594628Y35588D01*
X594993Y35759D01*
X595374Y35908D01*
X595771Y36033D01*
X596184Y36136D01*
X596614Y36216D01*
X597060Y36273D01*
X597522Y36308D01*
X598000Y36319D01*
X598476Y36307D01*
X598937Y36273D01*
X599384Y36215D01*
X599815Y36134D01*
X600231Y36030D01*
X600632Y35903D01*
X601018Y35752D01*
X601389Y35579D01*
X601742Y35384D01*
X602074Y35169D01*
X602385Y34933D01*
X602675Y34678D01*
X602943Y34402D01*
X603191Y34107D01*
X603417Y33791D01*
X603623Y33455D01*
X603805Y33101D01*
X603964Y32732D01*
X604098Y32347D01*
X604207Y31946D01*
X604293Y31530D01*
X604353Y31098D01*
X604390Y30651D01*
X604402Y30188D01*
X604390Y29721D01*
X604354Y29270D01*
X604294Y28836D01*
X604210Y28418D01*
X604101Y28016D01*
X603969Y27630D01*
X603812Y27261D01*
X603631Y26908D01*
X603428Y26573D01*
X603203Y26259D01*
X602957Y25965D01*
X602689Y25692D01*
X602399Y25439D01*
X602089Y25206D01*
X601756Y24993D01*
X601402Y24802D01*
X601030Y24631D01*
X600643Y24483D01*
X600240Y24359D01*
X599823Y24256D01*
X599390Y24177D01*
X598942Y24120D01*
X598478Y24086D01*
X598000Y24075D01*
G37*
%LPC*%
G36*
X598000Y25774D02*
X598565Y25792D01*
X599100Y25847D01*
X599606Y25938D01*
X600081Y26066D01*
X600526Y26230D01*
X600942Y26431D01*
X601327Y26669D01*
X601683Y26943D01*
X602002Y27249D01*
X602279Y27584D01*
X602513Y27947D01*
X602704Y28339D01*
X602853Y28759D01*
X602960Y29207D01*
X603023Y29683D01*
X603045Y30188D01*
X603024Y30707D01*
X602962Y31194D01*
X602859Y31651D01*
X602715Y32077D01*
X602530Y32471D01*
X602303Y32834D01*
X602035Y33167D01*
X601726Y33468D01*
X601380Y33736D01*
X600999Y33968D01*
X600585Y34165D01*
X600136Y34325D01*
X599653Y34450D01*
X599136Y34540D01*
X598585Y34593D01*
X598000Y34611D01*
X597439Y34593D01*
X596910Y34539D01*
X596411Y34449D01*
X595944Y34323D01*
X595507Y34161D01*
X595101Y33963D01*
X594726Y33729D01*
X594382Y33459D01*
X594075Y33157D01*
X593808Y32824D01*
X593582Y32462D01*
X593397Y32070D01*
X593253Y31648D01*
X593151Y31197D01*
X593089Y30716D01*
X593069Y30206D01*
X593089Y29691D01*
X593150Y29206D01*
X593251Y28751D01*
X593393Y28327D01*
X593575Y27932D01*
X593798Y27568D01*
X594061Y27234D01*
X594365Y26930D01*
X594705Y26659D01*
X595078Y26424D01*
X595484Y26225D01*
X595922Y26063D01*
X596392Y25936D01*
X596896Y25846D01*
X597431Y25792D01*
X598000Y25774D01*
G37*
%LPD*%
G36*
X604227Y12728D02*
X591886Y12728D01*
X591886Y17922D01*
X591901Y18426D01*
X591947Y18901D01*
X592023Y19347D01*
X592129Y19763D01*
X592266Y20150D01*
X592433Y20508D01*
X592631Y20837D01*
X592858Y21136D01*
X593114Y21403D01*
X593394Y21634D01*
X593700Y21830D01*
X594030Y21990D01*
X594385Y22114D01*
X594765Y22203D01*
X595170Y22257D01*
X595600Y22274D01*
X596027Y22257D01*
X596431Y22203D01*
X596813Y22114D01*
X597172Y21989D01*
X597509Y21828D01*
X597823Y21632D01*
X598115Y21399D01*
X598385Y21132D01*
X598627Y20833D01*
X598837Y20509D01*
X599015Y20159D01*
X599160Y19784D01*
X599273Y19383D01*
X599354Y18956D01*
X599402Y18504D01*
X599419Y18027D01*
X599419Y14401D01*
X604227Y14401D01*
X604227Y12728D01*
G37*
%LPC*%
G36*
X598096Y14401D02*
X598096Y17790D01*
X598086Y18130D01*
X598057Y18447D01*
X598009Y18743D01*
X597941Y19016D01*
X597854Y19268D01*
X597747Y19498D01*
X597622Y19706D01*
X597476Y19892D01*
X597312Y20056D01*
X597128Y20199D01*
X596924Y20319D01*
X596702Y20418D01*
X596460Y20494D01*
X596198Y20549D01*
X595918Y20582D01*
X595617Y20593D01*
X595328Y20582D01*
X595057Y20548D01*
X594805Y20492D01*
X594571Y20413D01*
X594356Y20312D01*
X594160Y20189D01*
X593983Y20043D01*
X593824Y19875D01*
X593684Y19684D01*
X593563Y19471D01*
X593460Y19235D01*
X593376Y18977D01*
X593310Y18696D01*
X593264Y18393D01*
X593236Y18068D01*
X593226Y17720D01*
X593226Y14401D01*
X598096Y14401D01*
G37*
%LPD*%
G36*
X601468Y48849D02*
X601284Y50444D01*
X601506Y50512D01*
X601713Y50593D01*
X601906Y50686D01*
X602085Y50791D01*
X602249Y50909D01*
X602400Y51038D01*
X602536Y51180D01*
X602657Y51335D01*
X602764Y51501D01*
X602857Y51680D01*
X602936Y51871D01*
X603000Y52074D01*
X603050Y52290D01*
X603086Y52518D01*
X603108Y52758D01*
X603115Y53010D01*
X603103Y53319D01*
X603067Y53610D01*
X603007Y53885D01*
X602923Y54142D01*
X602815Y54382D01*
X602684Y54604D01*
X602528Y54810D01*
X602348Y54998D01*
X602148Y55166D01*
X601929Y55312D01*
X601693Y55436D01*
X601439Y55537D01*
X601166Y55615D01*
X600876Y55671D01*
X600568Y55705D01*
X600242Y55716D01*
X599958Y55705D01*
X599687Y55671D01*
X599431Y55615D01*
X599189Y55536D01*
X598960Y55434D01*
X598746Y55310D01*
X598545Y55163D01*
X598359Y54994D01*
X598190Y54805D01*
X598045Y54601D01*
X597921Y54381D01*
X597820Y54145D01*
X597742Y53894D01*
X597685Y53626D01*
X597652Y53343D01*
X597641Y53045D01*
X597653Y52731D01*
X597691Y52427D01*
X597754Y52135D01*
X597842Y51854D01*
X597960Y51578D01*
X598114Y51302D01*
X598302Y51026D01*
X598525Y50750D01*
X598525Y49209D01*
X591886Y49620D01*
X591886Y56636D01*
X593226Y56636D01*
X593226Y51057D01*
X597141Y50820D01*
X596957Y51084D01*
X596797Y51364D01*
X596661Y51659D01*
X596550Y51970D01*
X596464Y52296D01*
X596402Y52638D01*
X596365Y52996D01*
X596353Y53369D01*
X596370Y53813D01*
X596420Y54233D01*
X596503Y54631D01*
X596620Y55006D01*
X596770Y55357D01*
X596954Y55685D01*
X597171Y55990D01*
X597422Y56272D01*
X597699Y56526D01*
X597996Y56746D01*
X598314Y56931D01*
X598652Y57084D01*
X599010Y57202D01*
X599389Y57286D01*
X599788Y57337D01*
X600207Y57354D01*
X600682Y57336D01*
X601131Y57281D01*
X601555Y57191D01*
X601952Y57064D01*
X602323Y56901D01*
X602669Y56701D01*
X602988Y56465D01*
X603281Y56193D01*
X603544Y55889D01*
X603772Y55557D01*
X603964Y55197D01*
X604122Y54809D01*
X604245Y54392D01*
X604332Y53948D01*
X604385Y53475D01*
X604402Y52975D01*
X604390Y52554D01*
X604355Y52154D01*
X604296Y51774D01*
X604214Y51416D01*
X604108Y51078D01*
X603979Y50761D01*
X603826Y50465D01*
X603649Y50190D01*
X603450Y49937D01*
X603230Y49708D01*
X602989Y49504D01*
X602727Y49325D01*
X602444Y49169D01*
X602140Y49038D01*
X601814Y48932D01*
X601468Y48849D01*
G37*
G36*
X593253Y37565D02*
X591886Y37565D01*
X591886Y47708D01*
X593253Y47708D01*
X593253Y43469D01*
X604227Y43469D01*
X604227Y41805D01*
X593253Y41805D01*
X593253Y37565D01*
G37*
G36*
X512023Y457687D02*
X511658Y457693D01*
X511303Y457712D01*
X510958Y457744D01*
X510623Y457788D01*
X510299Y457845D01*
X509984Y457915D01*
X509680Y457997D01*
X509385Y458092D01*
X509101Y458200D01*
X508827Y458320D01*
X508563Y458453D01*
X508309Y458599D01*
X507831Y458928D01*
X507394Y459307D01*
X507003Y459732D01*
X506827Y459960D01*
X506664Y460197D01*
X506514Y460444D01*
X506377Y460701D01*
X506253Y460968D01*
X506142Y461245D01*
X506045Y461532D01*
X505960Y461829D01*
X505888Y462136D01*
X505830Y462452D01*
X505784Y462779D01*
X505751Y463115D01*
X505732Y463462D01*
X505725Y463818D01*
X505737Y464281D01*
X505772Y464728D01*
X505831Y465160D01*
X505913Y465576D01*
X506018Y465977D01*
X506147Y466362D01*
X506299Y466731D01*
X506474Y467085D01*
X506672Y467421D01*
X506891Y467736D01*
X507131Y468031D01*
X507393Y468306D01*
X507675Y468560D01*
X507979Y468794D01*
X508304Y469007D01*
X508651Y469200D01*
X509016Y469372D01*
X509397Y469520D01*
X509794Y469646D01*
X510207Y469749D01*
X510637Y469829D01*
X511083Y469886D01*
X511545Y469920D01*
X512023Y469932D01*
X512499Y469920D01*
X512960Y469885D01*
X513407Y469827D01*
X513838Y469747D01*
X514254Y469642D01*
X514655Y469515D01*
X515041Y469365D01*
X515412Y469191D01*
X515765Y468996D01*
X516097Y468781D01*
X516408Y468546D01*
X516698Y468290D01*
X516966Y468015D01*
X517214Y467719D01*
X517440Y467403D01*
X517646Y467067D01*
X517828Y466714D01*
X517987Y466344D01*
X518121Y465959D01*
X518230Y465559D01*
X518316Y465143D01*
X518376Y464711D01*
X518413Y464264D01*
X518425Y463801D01*
X518413Y463334D01*
X518377Y462883D01*
X518317Y462448D01*
X518233Y462030D01*
X518124Y461628D01*
X517992Y461243D01*
X517835Y460873D01*
X517654Y460520D01*
X517451Y460186D01*
X517226Y459872D01*
X516980Y459578D01*
X516712Y459304D01*
X516422Y459051D01*
X516112Y458818D01*
X515779Y458606D01*
X515425Y458414D01*
X515053Y458244D01*
X514666Y458096D01*
X514263Y457971D01*
X513846Y457869D01*
X513413Y457789D01*
X512965Y457733D01*
X512501Y457698D01*
X512023Y457687D01*
G37*
%LPC*%
G36*
X512023Y459386D02*
X512588Y459405D01*
X513123Y459459D01*
X513629Y459551D01*
X514104Y459679D01*
X514549Y459843D01*
X514965Y460044D01*
X515350Y460281D01*
X515706Y460556D01*
X516025Y460862D01*
X516302Y461197D01*
X516536Y461560D01*
X516727Y461951D01*
X516876Y462371D01*
X516983Y462819D01*
X517046Y463296D01*
X517068Y463801D01*
X517047Y464319D01*
X516985Y464807D01*
X516882Y465264D01*
X516738Y465689D01*
X516553Y466084D01*
X516326Y466447D01*
X516058Y466779D01*
X515749Y467081D01*
X515403Y467349D01*
X515022Y467581D01*
X514608Y467777D01*
X514159Y467938D01*
X513676Y468063D01*
X513159Y468152D01*
X512608Y468206D01*
X512023Y468224D01*
X511462Y468206D01*
X510933Y468152D01*
X510434Y468062D01*
X509967Y467936D01*
X509530Y467774D01*
X509124Y467576D01*
X508749Y467342D01*
X508405Y467072D01*
X508098Y466769D01*
X507831Y466437D01*
X507605Y466074D01*
X507420Y465683D01*
X507276Y465261D01*
X507174Y464810D01*
X507112Y464329D01*
X507092Y463818D01*
X507112Y463303D01*
X507173Y462818D01*
X507274Y462364D01*
X507416Y461939D01*
X507598Y461545D01*
X507821Y461181D01*
X508084Y460846D01*
X508388Y460542D01*
X508728Y460271D01*
X509101Y460037D01*
X509507Y459838D01*
X509945Y459675D01*
X510415Y459549D01*
X510919Y459458D01*
X511454Y459404D01*
X512023Y459386D01*
G37*
%LPD*%
G36*
X518250Y443371D02*
X505909Y443371D01*
X505909Y445570D01*
X514466Y448854D01*
X515002Y449026D01*
X515574Y449191D01*
X516428Y449406D01*
X515987Y449514D01*
X515364Y449699D01*
X514783Y449887D01*
X514466Y450002D01*
X505909Y453225D01*
X505909Y455371D01*
X518250Y455371D01*
X518250Y453864D01*
X510017Y453864D01*
X508677Y453884D01*
X507389Y453943D01*
X508786Y453536D01*
X509357Y453349D01*
X509842Y453172D01*
X518250Y449984D01*
X518250Y448810D01*
X509842Y445579D01*
X508353Y445088D01*
X507389Y444799D01*
X508362Y444825D01*
X510017Y444860D01*
X518250Y444860D01*
X518250Y443371D01*
G37*
G36*
X515491Y482462D02*
X515307Y484056D01*
X515529Y484125D01*
X515736Y484205D01*
X515929Y484298D01*
X516108Y484404D01*
X516272Y484521D01*
X516423Y484651D01*
X516559Y484793D01*
X516680Y484947D01*
X516787Y485114D01*
X516880Y485292D01*
X516959Y485483D01*
X517023Y485687D01*
X517073Y485902D01*
X517109Y486130D01*
X517131Y486370D01*
X517138Y486622D01*
X517126Y486931D01*
X517090Y487223D01*
X517030Y487497D01*
X516946Y487754D01*
X516838Y487994D01*
X516707Y488217D01*
X516551Y488422D01*
X516371Y488610D01*
X516171Y488779D01*
X515952Y488925D01*
X515716Y489048D01*
X515462Y489149D01*
X515189Y489228D01*
X514899Y489284D01*
X514591Y489317D01*
X514265Y489329D01*
X513981Y489317D01*
X513710Y489283D01*
X513454Y489227D01*
X513212Y489148D01*
X512983Y489046D01*
X512769Y488922D01*
X512568Y488775D01*
X512382Y488606D01*
X512213Y488418D01*
X512068Y488213D01*
X511944Y487993D01*
X511843Y487758D01*
X511765Y487506D01*
X511708Y487239D01*
X511675Y486956D01*
X511664Y486657D01*
X511676Y486343D01*
X511714Y486040D01*
X511777Y485747D01*
X511865Y485466D01*
X511983Y485190D01*
X512137Y484914D01*
X512325Y484638D01*
X512548Y484363D01*
X512548Y482821D01*
X505909Y483233D01*
X505909Y490248D01*
X507249Y490248D01*
X507249Y484669D01*
X511164Y484433D01*
X510980Y484697D01*
X510820Y484976D01*
X510684Y485271D01*
X510573Y485582D01*
X510487Y485909D01*
X510425Y486251D01*
X510388Y486608D01*
X510376Y486981D01*
X510393Y487425D01*
X510443Y487846D01*
X510526Y488244D01*
X510643Y488618D01*
X510793Y488969D01*
X510977Y489298D01*
X511194Y489603D01*
X511445Y489885D01*
X511722Y490138D01*
X512019Y490358D01*
X512337Y490544D01*
X512675Y490696D01*
X513033Y490814D01*
X513412Y490899D01*
X513811Y490950D01*
X514230Y490966D01*
X514705Y490948D01*
X515154Y490894D01*
X515578Y490803D01*
X515975Y490676D01*
X516346Y490513D01*
X516692Y490314D01*
X517011Y490078D01*
X517304Y489806D01*
X517567Y489502D01*
X517795Y489170D01*
X517987Y488809D01*
X518145Y488421D01*
X518268Y488005D01*
X518355Y487560D01*
X518408Y487088D01*
X518425Y486587D01*
X518413Y486166D01*
X518378Y485766D01*
X518319Y485387D01*
X518237Y485028D01*
X518131Y484690D01*
X518002Y484374D01*
X517849Y484077D01*
X517672Y483802D01*
X517473Y483549D01*
X517253Y483321D01*
X517012Y483117D01*
X516750Y482937D01*
X516467Y482782D01*
X516163Y482651D01*
X515837Y482544D01*
X515491Y482462D01*
G37*
G36*
X507276Y471178D02*
X505909Y471178D01*
X505909Y481320D01*
X507276Y481320D01*
X507276Y477081D01*
X518250Y477081D01*
X518250Y475417D01*
X507276Y475417D01*
X507276Y471178D01*
G37*
G36*
X592023Y457687D02*
X591658Y457693D01*
X591303Y457712D01*
X590958Y457744D01*
X590623Y457788D01*
X590299Y457845D01*
X589984Y457915D01*
X589680Y457997D01*
X589385Y458092D01*
X589101Y458200D01*
X588827Y458320D01*
X588563Y458453D01*
X588309Y458599D01*
X587831Y458928D01*
X587394Y459307D01*
X587003Y459732D01*
X586827Y459960D01*
X586664Y460197D01*
X586514Y460444D01*
X586377Y460701D01*
X586253Y460968D01*
X586142Y461245D01*
X586045Y461532D01*
X585960Y461829D01*
X585888Y462136D01*
X585830Y462452D01*
X585784Y462779D01*
X585751Y463115D01*
X585732Y463462D01*
X585725Y463818D01*
X585737Y464281D01*
X585772Y464728D01*
X585831Y465160D01*
X585913Y465576D01*
X586018Y465977D01*
X586147Y466362D01*
X586299Y466731D01*
X586474Y467085D01*
X586672Y467421D01*
X586891Y467736D01*
X587131Y468031D01*
X587393Y468306D01*
X587675Y468560D01*
X587979Y468794D01*
X588304Y469007D01*
X588651Y469200D01*
X589016Y469372D01*
X589397Y469520D01*
X589794Y469646D01*
X590207Y469749D01*
X590637Y469829D01*
X591083Y469886D01*
X591545Y469920D01*
X592023Y469932D01*
X592499Y469920D01*
X592960Y469885D01*
X593407Y469827D01*
X593838Y469747D01*
X594254Y469642D01*
X594655Y469515D01*
X595041Y469365D01*
X595412Y469191D01*
X595765Y468996D01*
X596097Y468781D01*
X596408Y468546D01*
X596698Y468290D01*
X596966Y468015D01*
X597214Y467719D01*
X597440Y467403D01*
X597646Y467067D01*
X597828Y466714D01*
X597987Y466344D01*
X598121Y465959D01*
X598230Y465559D01*
X598316Y465143D01*
X598376Y464711D01*
X598413Y464264D01*
X598425Y463801D01*
X598413Y463334D01*
X598377Y462883D01*
X598317Y462448D01*
X598233Y462030D01*
X598124Y461628D01*
X597992Y461243D01*
X597835Y460873D01*
X597654Y460520D01*
X597451Y460186D01*
X597226Y459872D01*
X596980Y459578D01*
X596712Y459304D01*
X596422Y459051D01*
X596112Y458818D01*
X595779Y458606D01*
X595425Y458414D01*
X595053Y458244D01*
X594666Y458096D01*
X594263Y457971D01*
X593846Y457869D01*
X593413Y457789D01*
X592965Y457733D01*
X592501Y457698D01*
X592023Y457687D01*
G37*
%LPC*%
G36*
X592023Y459386D02*
X592588Y459405D01*
X593123Y459459D01*
X593629Y459551D01*
X594104Y459679D01*
X594549Y459843D01*
X594965Y460044D01*
X595350Y460281D01*
X595706Y460556D01*
X596025Y460862D01*
X596302Y461197D01*
X596536Y461560D01*
X596727Y461951D01*
X596876Y462371D01*
X596983Y462819D01*
X597046Y463296D01*
X597068Y463801D01*
X597047Y464319D01*
X596985Y464807D01*
X596882Y465264D01*
X596738Y465689D01*
X596553Y466084D01*
X596326Y466447D01*
X596058Y466779D01*
X595749Y467081D01*
X595403Y467349D01*
X595022Y467581D01*
X594608Y467777D01*
X594159Y467938D01*
X593676Y468063D01*
X593159Y468152D01*
X592608Y468206D01*
X592023Y468224D01*
X591462Y468206D01*
X590933Y468152D01*
X590434Y468062D01*
X589967Y467936D01*
X589530Y467774D01*
X589124Y467576D01*
X588749Y467342D01*
X588405Y467072D01*
X588098Y466769D01*
X587831Y466437D01*
X587605Y466074D01*
X587420Y465683D01*
X587276Y465261D01*
X587174Y464810D01*
X587112Y464329D01*
X587092Y463818D01*
X587112Y463303D01*
X587173Y462818D01*
X587274Y462364D01*
X587416Y461939D01*
X587598Y461545D01*
X587821Y461181D01*
X588084Y460846D01*
X588388Y460542D01*
X588728Y460271D01*
X589101Y460037D01*
X589507Y459838D01*
X589945Y459675D01*
X590415Y459549D01*
X590919Y459458D01*
X591454Y459404D01*
X592023Y459386D01*
G37*
%LPD*%
G36*
X592364Y482655D02*
X591586Y482673D01*
X590855Y482726D01*
X590169Y482816D01*
X589531Y482941D01*
X588939Y483103D01*
X588393Y483300D01*
X587894Y483533D01*
X587442Y483802D01*
X587040Y484104D01*
X586691Y484436D01*
X586396Y484799D01*
X586154Y485192D01*
X585967Y485616D01*
X585893Y485839D01*
X585833Y486070D01*
X585786Y486308D01*
X585752Y486554D01*
X585732Y486808D01*
X585725Y487069D01*
X585735Y487410D01*
X585765Y487735D01*
X585814Y488044D01*
X585882Y488337D01*
X585971Y488613D01*
X586079Y488874D01*
X586206Y489118D01*
X586354Y489346D01*
X586521Y489558D01*
X586707Y489754D01*
X586913Y489934D01*
X587139Y490097D01*
X587385Y490245D01*
X587650Y490376D01*
X587935Y490491D01*
X588239Y490590D01*
X588511Y489083D01*
X588157Y488950D01*
X587851Y488782D01*
X587593Y488580D01*
X587381Y488343D01*
X587216Y488072D01*
X587098Y487766D01*
X587028Y487426D01*
X587004Y487051D01*
X587024Y486724D01*
X587083Y486415D01*
X587181Y486125D01*
X587318Y485855D01*
X587495Y485603D01*
X587711Y485371D01*
X587966Y485157D01*
X588261Y484963D01*
X588593Y484789D01*
X588960Y484639D01*
X589362Y484512D01*
X589799Y484407D01*
X590272Y484326D01*
X590779Y484269D01*
X591322Y484234D01*
X591900Y484222D01*
X591525Y484459D01*
X591198Y484739D01*
X590919Y485063D01*
X590687Y485431D01*
X590505Y485835D01*
X590375Y486268D01*
X590330Y486494D01*
X590297Y486728D01*
X590277Y486970D01*
X590271Y487218D01*
X590288Y487634D01*
X590338Y488028D01*
X590421Y488400D01*
X590538Y488749D01*
X590688Y489077D01*
X590872Y489383D01*
X591089Y489667D01*
X591340Y489929D01*
X591618Y490164D01*
X591920Y490367D01*
X592244Y490540D01*
X592592Y490681D01*
X592963Y490790D01*
X593356Y490869D01*
X593773Y490916D01*
X594212Y490931D01*
X594688Y490915D01*
X595137Y490865D01*
X595561Y490782D01*
X595960Y490667D01*
X596332Y490517D01*
X596679Y490335D01*
X597000Y490120D01*
X597295Y489872D01*
X597560Y489594D01*
X597790Y489291D01*
X597984Y488964D01*
X598143Y488610D01*
X598266Y488232D01*
X598355Y487829D01*
X598408Y487400D01*
X598425Y486946D01*
X598419Y486690D01*
X598401Y486441D01*
X598328Y485965D01*
X598207Y485521D01*
X598038Y485107D01*
X597820Y484724D01*
X597553Y484371D01*
X597238Y484049D01*
X596875Y483758D01*
X596465Y483500D01*
X596012Y483275D01*
X595514Y483086D01*
X594972Y482931D01*
X594386Y482810D01*
X593756Y482724D01*
X593082Y482672D01*
X592364Y482655D01*
G37*
%LPC*%
G36*
X593906Y484380D02*
X594255Y484391D01*
X594587Y484424D01*
X594904Y484479D01*
X595204Y484556D01*
X595488Y484655D01*
X595757Y484777D01*
X596009Y484920D01*
X596244Y485085D01*
X596458Y485268D01*
X596643Y485463D01*
X596799Y485670D01*
X596927Y485890D01*
X597027Y486122D01*
X597098Y486367D01*
X597141Y486624D01*
X597155Y486894D01*
X597143Y487171D01*
X597107Y487432D01*
X597047Y487679D01*
X596964Y487910D01*
X596856Y488125D01*
X596724Y488326D01*
X596568Y488511D01*
X596389Y488681D01*
X596188Y488832D01*
X595970Y488964D01*
X595733Y489075D01*
X595479Y489167D01*
X595207Y489238D01*
X594917Y489288D01*
X594608Y489319D01*
X594282Y489329D01*
X593957Y489318D01*
X593651Y489288D01*
X593364Y489236D01*
X593096Y489164D01*
X592847Y489072D01*
X592617Y488959D01*
X592407Y488826D01*
X592215Y488672D01*
X592045Y488499D01*
X591897Y488311D01*
X591772Y488106D01*
X591670Y487886D01*
X591591Y487649D01*
X591534Y487396D01*
X591500Y487127D01*
X591488Y486841D01*
X591498Y486572D01*
X591529Y486316D01*
X591579Y486073D01*
X591649Y485844D01*
X591740Y485628D01*
X591851Y485425D01*
X591981Y485235D01*
X592132Y485059D01*
X592301Y484900D01*
X592484Y484762D01*
X592683Y484645D01*
X592897Y484550D01*
X593127Y484476D01*
X593371Y484422D01*
X593631Y484391D01*
X593906Y484380D01*
G37*
%LPD*%
G36*
X598250Y443371D02*
X585909Y443371D01*
X585909Y445570D01*
X594466Y448854D01*
X595002Y449026D01*
X595574Y449191D01*
X596428Y449406D01*
X595987Y449514D01*
X595364Y449699D01*
X594783Y449887D01*
X594466Y450002D01*
X585909Y453225D01*
X585909Y455371D01*
X598250Y455371D01*
X598250Y453864D01*
X590017Y453864D01*
X588677Y453884D01*
X587389Y453943D01*
X588786Y453536D01*
X589357Y453349D01*
X589842Y453172D01*
X598250Y449984D01*
X598250Y448810D01*
X589842Y445579D01*
X588353Y445088D01*
X587389Y444799D01*
X588362Y444825D01*
X590017Y444860D01*
X598250Y444860D01*
X598250Y443371D01*
G37*
G36*
X587276Y471178D02*
X585909Y471178D01*
X585909Y481320D01*
X587276Y481320D01*
X587276Y477081D01*
X598250Y477081D01*
X598250Y475417D01*
X587276Y475417D01*
X587276Y471178D01*
G37*
G36*
X698974Y24075D02*
X698609Y24081D01*
X698254Y24100D01*
X697909Y24132D01*
X697574Y24176D01*
X697250Y24233D01*
X696935Y24302D01*
X696631Y24385D01*
X696336Y24480D01*
X696052Y24587D01*
X695778Y24708D01*
X695514Y24840D01*
X695260Y24986D01*
X694782Y25315D01*
X694345Y25695D01*
X693954Y26120D01*
X693778Y26347D01*
X693615Y26584D01*
X693465Y26832D01*
X693328Y27089D01*
X693204Y27356D01*
X693093Y27633D01*
X692996Y27920D01*
X692911Y28216D01*
X692839Y28523D01*
X692781Y28840D01*
X692735Y29166D01*
X692702Y29503D01*
X692683Y29849D01*
X692676Y30206D01*
X692688Y30669D01*
X692723Y31116D01*
X692782Y31548D01*
X692864Y31964D01*
X692969Y32364D01*
X693098Y32749D01*
X693250Y33119D01*
X693425Y33472D01*
X693623Y33808D01*
X693842Y34124D01*
X694082Y34419D01*
X694344Y34693D01*
X694626Y34947D01*
X694930Y35181D01*
X695255Y35395D01*
X695602Y35588D01*
X695967Y35759D01*
X696348Y35908D01*
X696745Y36033D01*
X697158Y36136D01*
X697588Y36216D01*
X698034Y36273D01*
X698496Y36308D01*
X698974Y36319D01*
X699450Y36307D01*
X699911Y36273D01*
X700358Y36215D01*
X700789Y36134D01*
X701205Y36030D01*
X701606Y35903D01*
X701992Y35752D01*
X702363Y35579D01*
X702716Y35384D01*
X703048Y35169D01*
X703359Y34933D01*
X703649Y34678D01*
X703917Y34402D01*
X704165Y34107D01*
X704391Y33791D01*
X704597Y33455D01*
X704779Y33101D01*
X704938Y32732D01*
X705072Y32347D01*
X705181Y31946D01*
X705267Y31530D01*
X705327Y31098D01*
X705364Y30651D01*
X705376Y30188D01*
X705364Y29721D01*
X705328Y29270D01*
X705268Y28836D01*
X705184Y28418D01*
X705075Y28016D01*
X704943Y27630D01*
X704786Y27261D01*
X704605Y26908D01*
X704402Y26573D01*
X704177Y26259D01*
X703931Y25965D01*
X703663Y25692D01*
X703373Y25439D01*
X703063Y25206D01*
X702730Y24993D01*
X702376Y24802D01*
X702004Y24631D01*
X701617Y24483D01*
X701214Y24359D01*
X700797Y24256D01*
X700364Y24177D01*
X699916Y24120D01*
X699452Y24086D01*
X698974Y24075D01*
G37*
%LPC*%
G36*
X698974Y25774D02*
X699539Y25792D01*
X700074Y25847D01*
X700580Y25938D01*
X701055Y26066D01*
X701500Y26230D01*
X701916Y26431D01*
X702301Y26669D01*
X702657Y26943D01*
X702976Y27249D01*
X703253Y27584D01*
X703487Y27947D01*
X703678Y28339D01*
X703827Y28759D01*
X703934Y29207D01*
X703997Y29683D01*
X704019Y30188D01*
X703998Y30707D01*
X703936Y31194D01*
X703833Y31651D01*
X703689Y32077D01*
X703504Y32471D01*
X703277Y32834D01*
X703009Y33167D01*
X702700Y33468D01*
X702354Y33736D01*
X701973Y33968D01*
X701559Y34165D01*
X701110Y34325D01*
X700627Y34450D01*
X700110Y34540D01*
X699559Y34593D01*
X698974Y34611D01*
X698413Y34593D01*
X697884Y34539D01*
X697385Y34449D01*
X696918Y34323D01*
X696481Y34161D01*
X696075Y33963D01*
X695700Y33729D01*
X695356Y33459D01*
X695049Y33157D01*
X694782Y32824D01*
X694556Y32462D01*
X694371Y32070D01*
X694227Y31648D01*
X694125Y31197D01*
X694063Y30716D01*
X694043Y30206D01*
X694063Y29691D01*
X694124Y29206D01*
X694225Y28751D01*
X694367Y28327D01*
X694549Y27932D01*
X694772Y27568D01*
X695035Y27234D01*
X695339Y26930D01*
X695679Y26659D01*
X696052Y26424D01*
X696458Y26225D01*
X696896Y26063D01*
X697366Y25936D01*
X697870Y25846D01*
X698405Y25792D01*
X698974Y25774D01*
G37*
%LPD*%
G36*
X705201Y12728D02*
X692860Y12728D01*
X692860Y17922D01*
X692875Y18426D01*
X692921Y18901D01*
X692997Y19347D01*
X693103Y19763D01*
X693240Y20150D01*
X693407Y20508D01*
X693605Y20837D01*
X693832Y21136D01*
X694088Y21403D01*
X694368Y21634D01*
X694674Y21830D01*
X695004Y21990D01*
X695359Y22114D01*
X695739Y22203D01*
X696144Y22257D01*
X696574Y22274D01*
X697001Y22257D01*
X697405Y22203D01*
X697787Y22114D01*
X698146Y21989D01*
X698483Y21828D01*
X698797Y21632D01*
X699089Y21399D01*
X699359Y21132D01*
X699601Y20833D01*
X699811Y20509D01*
X699989Y20159D01*
X700134Y19784D01*
X700247Y19383D01*
X700328Y18956D01*
X700376Y18504D01*
X700393Y18027D01*
X700393Y14401D01*
X705201Y14401D01*
X705201Y12728D01*
G37*
%LPC*%
G36*
X699070Y14401D02*
X699070Y17790D01*
X699060Y18130D01*
X699031Y18447D01*
X698983Y18743D01*
X698915Y19016D01*
X698828Y19268D01*
X698721Y19498D01*
X698596Y19706D01*
X698450Y19892D01*
X698286Y20056D01*
X698102Y20199D01*
X697898Y20319D01*
X697676Y20418D01*
X697434Y20494D01*
X697172Y20549D01*
X696892Y20582D01*
X696591Y20593D01*
X696302Y20582D01*
X696031Y20548D01*
X695779Y20492D01*
X695545Y20413D01*
X695330Y20312D01*
X695134Y20189D01*
X694957Y20043D01*
X694798Y19875D01*
X694658Y19684D01*
X694537Y19471D01*
X694434Y19235D01*
X694350Y18977D01*
X694284Y18696D01*
X694238Y18393D01*
X694210Y18068D01*
X694200Y17720D01*
X694200Y14401D01*
X699070Y14401D01*
G37*
%LPD*%
G36*
X699315Y49042D02*
X698537Y49060D01*
X697806Y49114D01*
X697120Y49203D01*
X696482Y49329D01*
X695890Y49490D01*
X695344Y49688D01*
X694845Y49921D01*
X694393Y50190D01*
X693991Y50492D01*
X693642Y50824D01*
X693347Y51187D01*
X693105Y51580D01*
X692918Y52003D01*
X692844Y52227D01*
X692784Y52457D01*
X692737Y52696D01*
X692703Y52942D01*
X692683Y53195D01*
X692676Y53456D01*
X692686Y53798D01*
X692716Y54123D01*
X692765Y54432D01*
X692833Y54724D01*
X692922Y55001D01*
X693030Y55261D01*
X693157Y55506D01*
X693305Y55734D01*
X693472Y55946D01*
X693658Y56141D01*
X693864Y56321D01*
X694090Y56485D01*
X694336Y56632D01*
X694601Y56763D01*
X694886Y56878D01*
X695190Y56977D01*
X695462Y55471D01*
X695108Y55338D01*
X694802Y55170D01*
X694544Y54968D01*
X694332Y54731D01*
X694167Y54460D01*
X694049Y54154D01*
X693979Y53814D01*
X693955Y53439D01*
X693975Y53111D01*
X694034Y52803D01*
X694132Y52513D01*
X694269Y52242D01*
X694446Y51991D01*
X694662Y51758D01*
X694917Y51545D01*
X695212Y51350D01*
X695544Y51177D01*
X695911Y51026D01*
X696313Y50899D01*
X696750Y50795D01*
X697223Y50714D01*
X697730Y50656D01*
X698273Y50621D01*
X698851Y50610D01*
X698476Y50846D01*
X698149Y51127D01*
X697870Y51451D01*
X697638Y51819D01*
X697456Y52223D01*
X697326Y52655D01*
X697281Y52882D01*
X697248Y53116D01*
X697228Y53357D01*
X697222Y53605D01*
X697239Y54021D01*
X697289Y54415D01*
X697372Y54787D01*
X697489Y55137D01*
X697639Y55465D01*
X697823Y55771D01*
X698040Y56054D01*
X698291Y56316D01*
X698569Y56551D01*
X698871Y56755D01*
X699195Y56927D01*
X699543Y57068D01*
X699914Y57178D01*
X700307Y57256D01*
X700724Y57303D01*
X701163Y57319D01*
X701639Y57302D01*
X702088Y57253D01*
X702512Y57170D01*
X702911Y57054D01*
X703283Y56905D01*
X703630Y56723D01*
X703951Y56508D01*
X704246Y56259D01*
X704511Y55982D01*
X704741Y55679D01*
X704935Y55351D01*
X705094Y54998D01*
X705217Y54620D01*
X705306Y54216D01*
X705359Y53788D01*
X705376Y53334D01*
X705370Y53077D01*
X705352Y52828D01*
X705279Y52353D01*
X705158Y51908D01*
X704989Y51495D01*
X704771Y51111D01*
X704504Y50759D01*
X704189Y50437D01*
X703826Y50146D01*
X703416Y49887D01*
X702963Y49663D01*
X702465Y49473D01*
X701923Y49318D01*
X701337Y49197D01*
X700707Y49111D01*
X700033Y49059D01*
X699315Y49042D01*
G37*
%LPC*%
G36*
X700857Y50768D02*
X701206Y50779D01*
X701538Y50812D01*
X701855Y50867D01*
X702155Y50944D01*
X702439Y51043D01*
X702708Y51164D01*
X702960Y51307D01*
X703195Y51473D01*
X703409Y51655D01*
X703594Y51850D01*
X703750Y52057D01*
X703878Y52277D01*
X703978Y52510D01*
X704049Y52754D01*
X704092Y53012D01*
X704106Y53281D01*
X704094Y53558D01*
X704058Y53820D01*
X703998Y54066D01*
X703915Y54297D01*
X703807Y54513D01*
X703675Y54713D01*
X703519Y54898D01*
X703340Y55068D01*
X703139Y55220D01*
X702921Y55352D01*
X702684Y55463D01*
X702430Y55554D01*
X702158Y55625D01*
X701868Y55676D01*
X701559Y55706D01*
X701233Y55716D01*
X700908Y55706D01*
X700602Y55675D01*
X700315Y55624D01*
X700047Y55552D01*
X699798Y55460D01*
X699568Y55347D01*
X699358Y55213D01*
X699166Y55059D01*
X698996Y54887D01*
X698848Y54699D01*
X698723Y54494D01*
X698621Y54273D01*
X698542Y54036D01*
X698485Y53783D01*
X698451Y53514D01*
X698439Y53229D01*
X698449Y52959D01*
X698480Y52703D01*
X698530Y52461D01*
X698600Y52231D01*
X698691Y52015D01*
X698802Y51812D01*
X698932Y51623D01*
X699083Y51446D01*
X699252Y51287D01*
X699435Y51149D01*
X699634Y51033D01*
X699848Y50937D01*
X700078Y50863D01*
X700322Y50810D01*
X700582Y50778D01*
X700857Y50768D01*
G37*
%LPD*%
G36*
X694227Y37565D02*
X692860Y37565D01*
X692860Y47708D01*
X694227Y47708D01*
X694227Y43469D01*
X705201Y43469D01*
X705201Y41805D01*
X694227Y41805D01*
X694227Y37565D01*
G37*
G36*
X799949Y24075D02*
X799584Y24081D01*
X799229Y24100D01*
X798884Y24132D01*
X798549Y24176D01*
X798225Y24233D01*
X797910Y24302D01*
X797606Y24385D01*
X797311Y24480D01*
X797027Y24587D01*
X796753Y24708D01*
X796489Y24840D01*
X796235Y24986D01*
X795757Y25315D01*
X795320Y25695D01*
X794929Y26120D01*
X794753Y26347D01*
X794590Y26584D01*
X794440Y26832D01*
X794303Y27089D01*
X794179Y27356D01*
X794068Y27633D01*
X793971Y27920D01*
X793886Y28216D01*
X793814Y28523D01*
X793756Y28840D01*
X793710Y29166D01*
X793677Y29503D01*
X793658Y29849D01*
X793651Y30206D01*
X793663Y30669D01*
X793698Y31116D01*
X793757Y31548D01*
X793839Y31964D01*
X793944Y32364D01*
X794073Y32749D01*
X794225Y33119D01*
X794400Y33472D01*
X794598Y33808D01*
X794817Y34124D01*
X795057Y34419D01*
X795319Y34693D01*
X795601Y34947D01*
X795905Y35181D01*
X796230Y35395D01*
X796577Y35588D01*
X796942Y35759D01*
X797323Y35908D01*
X797720Y36033D01*
X798133Y36136D01*
X798563Y36216D01*
X799009Y36273D01*
X799471Y36308D01*
X799949Y36319D01*
X800425Y36307D01*
X800886Y36273D01*
X801333Y36215D01*
X801764Y36134D01*
X802180Y36030D01*
X802581Y35903D01*
X802967Y35752D01*
X803338Y35579D01*
X803691Y35384D01*
X804023Y35169D01*
X804334Y34933D01*
X804624Y34678D01*
X804892Y34402D01*
X805140Y34107D01*
X805366Y33791D01*
X805572Y33455D01*
X805754Y33101D01*
X805913Y32732D01*
X806047Y32347D01*
X806156Y31946D01*
X806242Y31530D01*
X806302Y31098D01*
X806339Y30651D01*
X806351Y30188D01*
X806339Y29721D01*
X806303Y29270D01*
X806243Y28836D01*
X806159Y28418D01*
X806050Y28016D01*
X805918Y27630D01*
X805761Y27261D01*
X805580Y26908D01*
X805377Y26573D01*
X805152Y26259D01*
X804906Y25965D01*
X804638Y25692D01*
X804348Y25439D01*
X804038Y25206D01*
X803705Y24993D01*
X803351Y24802D01*
X802979Y24631D01*
X802592Y24483D01*
X802189Y24359D01*
X801772Y24256D01*
X801339Y24177D01*
X800891Y24120D01*
X800427Y24086D01*
X799949Y24075D01*
G37*
%LPC*%
G36*
X799949Y25774D02*
X800514Y25792D01*
X801049Y25847D01*
X801555Y25938D01*
X802030Y26066D01*
X802475Y26230D01*
X802891Y26431D01*
X803276Y26669D01*
X803632Y26943D01*
X803951Y27249D01*
X804228Y27584D01*
X804462Y27947D01*
X804653Y28339D01*
X804802Y28759D01*
X804909Y29207D01*
X804972Y29683D01*
X804994Y30188D01*
X804973Y30707D01*
X804911Y31194D01*
X804808Y31651D01*
X804664Y32077D01*
X804479Y32471D01*
X804252Y32834D01*
X803984Y33167D01*
X803675Y33468D01*
X803329Y33736D01*
X802948Y33968D01*
X802534Y34165D01*
X802085Y34325D01*
X801602Y34450D01*
X801085Y34540D01*
X800534Y34593D01*
X799949Y34611D01*
X799388Y34593D01*
X798859Y34539D01*
X798360Y34449D01*
X797893Y34323D01*
X797456Y34161D01*
X797050Y33963D01*
X796675Y33729D01*
X796331Y33459D01*
X796024Y33157D01*
X795757Y32824D01*
X795531Y32462D01*
X795346Y32070D01*
X795202Y31648D01*
X795100Y31197D01*
X795038Y30716D01*
X795018Y30206D01*
X795038Y29691D01*
X795099Y29206D01*
X795200Y28751D01*
X795342Y28327D01*
X795524Y27932D01*
X795747Y27568D01*
X796010Y27234D01*
X796314Y26930D01*
X796654Y26659D01*
X797027Y26424D01*
X797433Y26225D01*
X797871Y26063D01*
X798341Y25936D01*
X798845Y25846D01*
X799380Y25792D01*
X799949Y25774D01*
G37*
%LPD*%
G36*
X806176Y12728D02*
X793835Y12728D01*
X793835Y17922D01*
X793850Y18426D01*
X793896Y18901D01*
X793972Y19347D01*
X794078Y19763D01*
X794215Y20150D01*
X794382Y20508D01*
X794580Y20837D01*
X794807Y21136D01*
X795063Y21403D01*
X795343Y21634D01*
X795649Y21830D01*
X795979Y21990D01*
X796334Y22114D01*
X796714Y22203D01*
X797119Y22257D01*
X797549Y22274D01*
X797976Y22257D01*
X798380Y22203D01*
X798762Y22114D01*
X799121Y21989D01*
X799458Y21828D01*
X799772Y21632D01*
X800064Y21399D01*
X800334Y21132D01*
X800576Y20833D01*
X800786Y20509D01*
X800964Y20159D01*
X801109Y19784D01*
X801222Y19383D01*
X801303Y18956D01*
X801351Y18504D01*
X801368Y18027D01*
X801368Y14401D01*
X806176Y14401D01*
X806176Y12728D01*
G37*
%LPC*%
G36*
X800045Y14401D02*
X800045Y17790D01*
X800035Y18130D01*
X800006Y18447D01*
X799958Y18743D01*
X799890Y19016D01*
X799803Y19268D01*
X799696Y19498D01*
X799571Y19706D01*
X799425Y19892D01*
X799261Y20056D01*
X799077Y20199D01*
X798873Y20319D01*
X798651Y20418D01*
X798409Y20494D01*
X798147Y20549D01*
X797867Y20582D01*
X797566Y20593D01*
X797277Y20582D01*
X797006Y20548D01*
X796754Y20492D01*
X796520Y20413D01*
X796305Y20312D01*
X796109Y20189D01*
X795932Y20043D01*
X795773Y19875D01*
X795633Y19684D01*
X795512Y19471D01*
X795409Y19235D01*
X795325Y18977D01*
X795259Y18696D01*
X795213Y18393D01*
X795185Y18068D01*
X795175Y17720D01*
X795175Y14401D01*
X800045Y14401D01*
G37*
%LPD*%
G36*
X795202Y37565D02*
X793835Y37565D01*
X793835Y47708D01*
X795202Y47708D01*
X795202Y43469D01*
X806176Y43469D01*
X806176Y41805D01*
X795202Y41805D01*
X795202Y37565D01*
G37*
G36*
X795175Y49051D02*
X793835Y49051D01*
X793835Y57205D01*
X795114Y57205D01*
X796481Y56329D01*
X797691Y55591D01*
X798745Y54993D01*
X799642Y54534D01*
X800458Y54168D01*
X801269Y53852D01*
X802074Y53584D01*
X802874Y53364D01*
X803678Y53194D01*
X804497Y53072D01*
X805329Y52999D01*
X805751Y52981D01*
X806176Y52975D01*
X806176Y51328D01*
X805581Y51344D01*
X804978Y51391D01*
X804367Y51469D01*
X803749Y51579D01*
X803123Y51720D01*
X802488Y51892D01*
X801847Y52096D01*
X801197Y52331D01*
X800531Y52603D01*
X799840Y52916D01*
X799125Y53272D01*
X798384Y53670D01*
X797619Y54110D01*
X796829Y54591D01*
X796015Y55115D01*
X795175Y55681D01*
X795175Y49051D01*
G37*
G36*
X672023Y457687D02*
X671658Y457693D01*
X671303Y457712D01*
X670958Y457744D01*
X670623Y457788D01*
X670299Y457845D01*
X669984Y457915D01*
X669680Y457997D01*
X669385Y458092D01*
X669101Y458200D01*
X668827Y458320D01*
X668563Y458453D01*
X668309Y458599D01*
X667831Y458928D01*
X667394Y459307D01*
X667003Y459732D01*
X666827Y459960D01*
X666664Y460197D01*
X666514Y460444D01*
X666377Y460701D01*
X666253Y460968D01*
X666142Y461245D01*
X666045Y461532D01*
X665960Y461829D01*
X665888Y462136D01*
X665830Y462452D01*
X665784Y462779D01*
X665751Y463115D01*
X665732Y463462D01*
X665725Y463818D01*
X665737Y464281D01*
X665772Y464728D01*
X665831Y465160D01*
X665913Y465576D01*
X666018Y465977D01*
X666147Y466362D01*
X666299Y466731D01*
X666474Y467085D01*
X666672Y467421D01*
X666891Y467736D01*
X667131Y468031D01*
X667393Y468306D01*
X667675Y468560D01*
X667979Y468794D01*
X668304Y469007D01*
X668651Y469200D01*
X669016Y469372D01*
X669397Y469520D01*
X669794Y469646D01*
X670207Y469749D01*
X670637Y469829D01*
X671083Y469886D01*
X671545Y469920D01*
X672023Y469932D01*
X672499Y469920D01*
X672960Y469885D01*
X673407Y469827D01*
X673838Y469747D01*
X674254Y469642D01*
X674655Y469515D01*
X675041Y469365D01*
X675412Y469191D01*
X675765Y468996D01*
X676097Y468781D01*
X676408Y468546D01*
X676698Y468290D01*
X676966Y468015D01*
X677214Y467719D01*
X677440Y467403D01*
X677646Y467067D01*
X677828Y466714D01*
X677987Y466344D01*
X678121Y465959D01*
X678230Y465559D01*
X678316Y465143D01*
X678376Y464711D01*
X678413Y464264D01*
X678425Y463801D01*
X678413Y463334D01*
X678377Y462883D01*
X678317Y462448D01*
X678233Y462030D01*
X678124Y461628D01*
X677992Y461243D01*
X677835Y460873D01*
X677654Y460520D01*
X677451Y460186D01*
X677226Y459872D01*
X676980Y459578D01*
X676712Y459304D01*
X676422Y459051D01*
X676112Y458818D01*
X675779Y458606D01*
X675425Y458414D01*
X675053Y458244D01*
X674666Y458096D01*
X674263Y457971D01*
X673846Y457869D01*
X673413Y457789D01*
X672965Y457733D01*
X672501Y457698D01*
X672023Y457687D01*
G37*
%LPC*%
G36*
X672023Y459386D02*
X672588Y459405D01*
X673123Y459459D01*
X673629Y459551D01*
X674104Y459679D01*
X674549Y459843D01*
X674965Y460044D01*
X675350Y460281D01*
X675706Y460556D01*
X676025Y460862D01*
X676302Y461197D01*
X676536Y461560D01*
X676727Y461951D01*
X676876Y462371D01*
X676983Y462819D01*
X677046Y463296D01*
X677068Y463801D01*
X677047Y464319D01*
X676985Y464807D01*
X676882Y465264D01*
X676738Y465689D01*
X676553Y466084D01*
X676326Y466447D01*
X676058Y466779D01*
X675749Y467081D01*
X675403Y467349D01*
X675022Y467581D01*
X674608Y467777D01*
X674159Y467938D01*
X673676Y468063D01*
X673159Y468152D01*
X672608Y468206D01*
X672023Y468224D01*
X671462Y468206D01*
X670933Y468152D01*
X670434Y468062D01*
X669967Y467936D01*
X669530Y467774D01*
X669124Y467576D01*
X668749Y467342D01*
X668405Y467072D01*
X668098Y466769D01*
X667831Y466437D01*
X667605Y466074D01*
X667420Y465683D01*
X667276Y465261D01*
X667174Y464810D01*
X667112Y464329D01*
X667092Y463818D01*
X667112Y463303D01*
X667173Y462818D01*
X667274Y462364D01*
X667416Y461939D01*
X667598Y461545D01*
X667821Y461181D01*
X668084Y460846D01*
X668388Y460542D01*
X668728Y460271D01*
X669101Y460037D01*
X669507Y459838D01*
X669945Y459675D01*
X670415Y459549D01*
X670919Y459458D01*
X671454Y459404D01*
X672023Y459386D01*
G37*
%LPD*%
G36*
X678250Y443371D02*
X665909Y443371D01*
X665909Y445570D01*
X674466Y448854D01*
X675002Y449026D01*
X675574Y449191D01*
X676428Y449406D01*
X675987Y449514D01*
X675364Y449699D01*
X674783Y449887D01*
X674466Y450002D01*
X665909Y453225D01*
X665909Y455371D01*
X678250Y455371D01*
X678250Y453864D01*
X670017Y453864D01*
X668677Y453884D01*
X667389Y453943D01*
X668786Y453536D01*
X669357Y453349D01*
X669842Y453172D01*
X678250Y449984D01*
X678250Y448810D01*
X669842Y445579D01*
X668353Y445088D01*
X667389Y444799D01*
X668362Y444825D01*
X670017Y444860D01*
X678250Y444860D01*
X678250Y443371D01*
G37*
G36*
X667276Y471178D02*
X665909Y471178D01*
X665909Y481320D01*
X667276Y481320D01*
X667276Y477081D01*
X678250Y477081D01*
X678250Y475417D01*
X667276Y475417D01*
X667276Y471178D01*
G37*
G36*
X667249Y482663D02*
X665909Y482663D01*
X665909Y490818D01*
X667188Y490818D01*
X668555Y489941D01*
X669765Y489204D01*
X670819Y488606D01*
X671716Y488146D01*
X672532Y487781D01*
X673343Y487464D01*
X674148Y487196D01*
X674948Y486977D01*
X675752Y486806D01*
X676571Y486685D01*
X677403Y486612D01*
X677825Y486593D01*
X678250Y486587D01*
X678250Y484941D01*
X677655Y484956D01*
X677052Y485003D01*
X676441Y485082D01*
X675823Y485191D01*
X675197Y485332D01*
X674562Y485505D01*
X673921Y485708D01*
X673271Y485943D01*
X672605Y486215D01*
X671914Y486529D01*
X671199Y486885D01*
X670458Y487282D01*
X669693Y487722D01*
X668903Y488204D01*
X668089Y488728D01*
X667249Y489294D01*
X667249Y482663D01*
G37*
G36*
X752023Y457687D02*
X751658Y457693D01*
X751303Y457712D01*
X750958Y457744D01*
X750623Y457788D01*
X750299Y457845D01*
X749984Y457915D01*
X749680Y457997D01*
X749385Y458092D01*
X749101Y458200D01*
X748827Y458320D01*
X748563Y458453D01*
X748309Y458599D01*
X747831Y458928D01*
X747394Y459307D01*
X747003Y459732D01*
X746827Y459960D01*
X746664Y460197D01*
X746514Y460444D01*
X746377Y460701D01*
X746253Y460968D01*
X746142Y461245D01*
X746045Y461532D01*
X745960Y461829D01*
X745888Y462136D01*
X745830Y462452D01*
X745784Y462779D01*
X745751Y463115D01*
X745732Y463462D01*
X745725Y463818D01*
X745737Y464281D01*
X745772Y464728D01*
X745831Y465160D01*
X745913Y465576D01*
X746018Y465977D01*
X746147Y466362D01*
X746299Y466731D01*
X746474Y467085D01*
X746672Y467421D01*
X746891Y467736D01*
X747131Y468031D01*
X747393Y468306D01*
X747675Y468560D01*
X747979Y468794D01*
X748304Y469007D01*
X748651Y469200D01*
X749016Y469372D01*
X749397Y469520D01*
X749794Y469646D01*
X750207Y469749D01*
X750637Y469829D01*
X751083Y469886D01*
X751545Y469920D01*
X752023Y469932D01*
X752499Y469920D01*
X752960Y469885D01*
X753407Y469827D01*
X753838Y469747D01*
X754254Y469642D01*
X754655Y469515D01*
X755041Y469365D01*
X755412Y469191D01*
X755765Y468996D01*
X756097Y468781D01*
X756408Y468546D01*
X756698Y468290D01*
X756966Y468015D01*
X757214Y467719D01*
X757440Y467403D01*
X757646Y467067D01*
X757828Y466714D01*
X757987Y466344D01*
X758121Y465959D01*
X758230Y465559D01*
X758316Y465143D01*
X758376Y464711D01*
X758413Y464264D01*
X758425Y463801D01*
X758413Y463334D01*
X758377Y462883D01*
X758317Y462448D01*
X758233Y462030D01*
X758124Y461628D01*
X757992Y461243D01*
X757835Y460873D01*
X757654Y460520D01*
X757451Y460186D01*
X757226Y459872D01*
X756980Y459578D01*
X756712Y459304D01*
X756422Y459051D01*
X756112Y458818D01*
X755779Y458606D01*
X755425Y458414D01*
X755053Y458244D01*
X754666Y458096D01*
X754263Y457971D01*
X753846Y457869D01*
X753413Y457789D01*
X752965Y457733D01*
X752501Y457698D01*
X752023Y457687D01*
G37*
%LPC*%
G36*
X752023Y459386D02*
X752588Y459405D01*
X753123Y459459D01*
X753629Y459551D01*
X754104Y459679D01*
X754549Y459843D01*
X754965Y460044D01*
X755350Y460281D01*
X755706Y460556D01*
X756025Y460862D01*
X756302Y461197D01*
X756536Y461560D01*
X756727Y461951D01*
X756876Y462371D01*
X756983Y462819D01*
X757046Y463296D01*
X757068Y463801D01*
X757047Y464319D01*
X756985Y464807D01*
X756882Y465264D01*
X756738Y465689D01*
X756553Y466084D01*
X756326Y466447D01*
X756058Y466779D01*
X755749Y467081D01*
X755403Y467349D01*
X755022Y467581D01*
X754608Y467777D01*
X754159Y467938D01*
X753676Y468063D01*
X753159Y468152D01*
X752608Y468206D01*
X752023Y468224D01*
X751462Y468206D01*
X750933Y468152D01*
X750434Y468062D01*
X749967Y467936D01*
X749530Y467774D01*
X749124Y467576D01*
X748749Y467342D01*
X748405Y467072D01*
X748098Y466769D01*
X747831Y466437D01*
X747605Y466074D01*
X747420Y465683D01*
X747276Y465261D01*
X747174Y464810D01*
X747112Y464329D01*
X747092Y463818D01*
X747112Y463303D01*
X747173Y462818D01*
X747274Y462364D01*
X747416Y461939D01*
X747598Y461545D01*
X747821Y461181D01*
X748084Y460846D01*
X748388Y460542D01*
X748728Y460271D01*
X749101Y460037D01*
X749507Y459838D01*
X749945Y459675D01*
X750415Y459549D01*
X750919Y459458D01*
X751454Y459404D01*
X752023Y459386D01*
G37*
%LPD*%
G36*
X754825Y482523D02*
X754529Y482534D01*
X754245Y482567D01*
X753973Y482621D01*
X753713Y482696D01*
X753465Y482794D01*
X753229Y482912D01*
X753005Y483053D01*
X752793Y483215D01*
X752598Y483394D01*
X752422Y483585D01*
X752267Y483788D01*
X752132Y484003D01*
X752018Y484231D01*
X751923Y484470D01*
X751849Y484721D01*
X751795Y484984D01*
X751760Y484984D01*
X751692Y484739D01*
X751607Y484507D01*
X751505Y484289D01*
X751386Y484083D01*
X751249Y483891D01*
X751095Y483713D01*
X750924Y483547D01*
X750735Y483395D01*
X750534Y483258D01*
X750324Y483140D01*
X750106Y483040D01*
X749879Y482958D01*
X749644Y482894D01*
X749400Y482849D01*
X749148Y482821D01*
X748887Y482812D01*
X748543Y482829D01*
X748215Y482878D01*
X747905Y482961D01*
X747611Y483076D01*
X747333Y483225D01*
X747072Y483406D01*
X746828Y483620D01*
X746601Y483868D01*
X746396Y484143D01*
X746218Y484441D01*
X746067Y484761D01*
X745944Y485104D01*
X745848Y485469D01*
X745780Y485857D01*
X745739Y486268D01*
X745725Y486701D01*
X745739Y487145D01*
X745779Y487564D01*
X745846Y487960D01*
X745940Y488331D01*
X746061Y488679D01*
X746208Y489003D01*
X746382Y489302D01*
X746584Y489578D01*
X746808Y489826D01*
X747051Y490040D01*
X747312Y490221D01*
X747593Y490370D01*
X747893Y490485D01*
X748211Y490568D01*
X748548Y490617D01*
X748905Y490634D01*
X749165Y490625D01*
X749418Y490597D01*
X749661Y490551D01*
X749897Y490487D01*
X750123Y490404D01*
X750342Y490304D01*
X750551Y490184D01*
X750753Y490047D01*
X750941Y489893D01*
X751110Y489727D01*
X751125Y489709D01*
X751261Y489546D01*
X751394Y489353D01*
X751509Y489146D01*
X751605Y488925D01*
X751683Y488691D01*
X751742Y488444D01*
X751777Y488444D01*
X751835Y488731D01*
X751912Y489002D01*
X752009Y489257D01*
X752125Y489495D01*
X752260Y489717D01*
X752414Y489922D01*
X752587Y490111D01*
X752743Y490250D01*
X752780Y490283D01*
X752989Y490437D01*
X753211Y490571D01*
X753445Y490684D01*
X753692Y490776D01*
X753952Y490848D01*
X754225Y490899D01*
X754510Y490930D01*
X754808Y490940D01*
X755223Y490923D01*
X755615Y490872D01*
X755983Y490787D01*
X756328Y490669D01*
X756649Y490516D01*
X756946Y490329D01*
X757220Y490109D01*
X757471Y489854D01*
X757694Y489568D01*
X757888Y489252D01*
X758052Y488907D01*
X758187Y488532D01*
X758291Y488127D01*
X758366Y487693D01*
X758410Y487229D01*
X758425Y486736D01*
X758411Y486255D01*
X758367Y485800D01*
X758293Y485373D01*
X758191Y484972D01*
X758059Y484599D01*
X757898Y484252D01*
X757708Y483933D01*
X757488Y483640D01*
X757241Y483378D01*
X756970Y483151D01*
X756674Y482959D01*
X756354Y482802D01*
X756009Y482680D01*
X755639Y482593D01*
X755244Y482541D01*
X754825Y482523D01*
G37*
%LPC*%
G36*
X754694Y484152D02*
X755003Y484163D01*
X755291Y484193D01*
X755560Y484244D01*
X755809Y484315D01*
X756038Y484406D01*
X756247Y484518D01*
X756436Y484650D01*
X756606Y484803D01*
X756755Y484975D01*
X756884Y485168D01*
X756994Y485382D01*
X757084Y485616D01*
X757153Y485870D01*
X757203Y486144D01*
X757233Y486439D01*
X757243Y486754D01*
X757233Y487065D01*
X757204Y487356D01*
X757156Y487627D01*
X757088Y487877D01*
X757002Y488106D01*
X756895Y488315D01*
X756770Y488504D01*
X756625Y488672D01*
X756460Y488820D01*
X756271Y488948D01*
X756059Y489056D01*
X755825Y489145D01*
X755568Y489214D01*
X755288Y489263D01*
X754985Y489293D01*
X754659Y489302D01*
X754381Y489292D01*
X754121Y489260D01*
X753878Y489206D01*
X753653Y489132D01*
X753445Y489036D01*
X753256Y488918D01*
X753084Y488779D01*
X752929Y488619D01*
X752793Y488440D01*
X752674Y488243D01*
X752574Y488029D01*
X752492Y487798D01*
X752429Y487550D01*
X752383Y487284D01*
X752356Y487001D01*
X752347Y486701D01*
X752357Y486409D01*
X752386Y486134D01*
X752435Y485875D01*
X752503Y485633D01*
X752591Y485406D01*
X752699Y485197D01*
X752826Y485004D01*
X752973Y484827D01*
X753137Y484669D01*
X753315Y484532D01*
X753509Y484416D01*
X753716Y484321D01*
X753939Y484247D01*
X754176Y484195D01*
X754428Y484163D01*
X754694Y484152D01*
G37*
G36*
X748992Y484424D02*
X749249Y484433D01*
X749491Y484461D01*
X749716Y484508D01*
X749926Y484574D01*
X750120Y484658D01*
X750299Y484761D01*
X750461Y484883D01*
X750608Y485024D01*
X750739Y485182D01*
X750852Y485355D01*
X750947Y485543D01*
X751025Y485747D01*
X751086Y485967D01*
X751130Y486202D01*
X751156Y486453D01*
X751164Y486719D01*
X751156Y486988D01*
X751132Y487242D01*
X751092Y487478D01*
X751036Y487698D01*
X750964Y487902D01*
X750876Y488089D01*
X750772Y488259D01*
X750652Y488413D01*
X750514Y488550D01*
X750356Y488668D01*
X750178Y488768D01*
X749981Y488850D01*
X749763Y488914D01*
X749526Y488959D01*
X749269Y488987D01*
X748992Y488996D01*
X748739Y488987D01*
X748502Y488960D01*
X748281Y488915D01*
X748076Y488852D01*
X747888Y488772D01*
X747717Y488673D01*
X747561Y488557D01*
X747422Y488422D01*
X747300Y488270D01*
X747193Y488099D01*
X747103Y487911D01*
X747030Y487705D01*
X746973Y487481D01*
X746932Y487239D01*
X746907Y486979D01*
X746899Y486701D01*
X746907Y486431D01*
X746932Y486178D01*
X746973Y485941D01*
X747030Y485721D01*
X747104Y485518D01*
X747195Y485331D01*
X747301Y485160D01*
X747424Y485006D01*
X747564Y484870D01*
X747720Y484751D01*
X747891Y484651D01*
X748079Y484569D01*
X748283Y484506D01*
X748503Y484460D01*
X748740Y484433D01*
X748992Y484424D01*
G37*
%LPD*%
G36*
X758250Y443371D02*
X745909Y443371D01*
X745909Y445570D01*
X754466Y448854D01*
X755002Y449026D01*
X755574Y449191D01*
X756428Y449406D01*
X755987Y449514D01*
X755364Y449699D01*
X754783Y449887D01*
X754466Y450002D01*
X745909Y453225D01*
X745909Y455371D01*
X758250Y455371D01*
X758250Y453864D01*
X750017Y453864D01*
X748677Y453884D01*
X747389Y453943D01*
X748786Y453536D01*
X749357Y453349D01*
X749842Y453172D01*
X758250Y449984D01*
X758250Y448810D01*
X749842Y445579D01*
X748353Y445088D01*
X747389Y444799D01*
X748362Y444825D01*
X750017Y444860D01*
X758250Y444860D01*
X758250Y443371D01*
G37*
G36*
X747276Y471178D02*
X745909Y471178D01*
X745909Y481320D01*
X747276Y481320D01*
X747276Y477081D01*
X758250Y477081D01*
X758250Y475417D01*
X747276Y475417D01*
X747276Y471178D01*
G37*
G36*
X900923Y24075D02*
X900558Y24081D01*
X900203Y24100D01*
X899858Y24132D01*
X899523Y24176D01*
X899199Y24233D01*
X898884Y24302D01*
X898580Y24385D01*
X898285Y24480D01*
X898001Y24587D01*
X897727Y24708D01*
X897463Y24840D01*
X897209Y24986D01*
X896731Y25315D01*
X896294Y25695D01*
X895903Y26120D01*
X895727Y26347D01*
X895564Y26584D01*
X895414Y26832D01*
X895277Y27089D01*
X895153Y27356D01*
X895042Y27633D01*
X894945Y27920D01*
X894860Y28216D01*
X894788Y28523D01*
X894730Y28840D01*
X894684Y29166D01*
X894651Y29503D01*
X894632Y29849D01*
X894625Y30206D01*
X894637Y30669D01*
X894672Y31116D01*
X894731Y31548D01*
X894813Y31964D01*
X894918Y32364D01*
X895047Y32749D01*
X895199Y33119D01*
X895374Y33472D01*
X895572Y33808D01*
X895791Y34124D01*
X896031Y34419D01*
X896293Y34693D01*
X896575Y34947D01*
X896879Y35181D01*
X897204Y35395D01*
X897551Y35588D01*
X897916Y35759D01*
X898297Y35908D01*
X898694Y36033D01*
X899107Y36136D01*
X899537Y36216D01*
X899983Y36273D01*
X900445Y36308D01*
X900923Y36319D01*
X901399Y36307D01*
X901860Y36273D01*
X902307Y36215D01*
X902738Y36134D01*
X903154Y36030D01*
X903555Y35903D01*
X903941Y35752D01*
X904312Y35579D01*
X904665Y35384D01*
X904997Y35169D01*
X905308Y34933D01*
X905598Y34678D01*
X905866Y34402D01*
X906114Y34107D01*
X906340Y33791D01*
X906546Y33455D01*
X906728Y33101D01*
X906887Y32732D01*
X907021Y32347D01*
X907130Y31946D01*
X907216Y31530D01*
X907276Y31098D01*
X907313Y30651D01*
X907325Y30188D01*
X907313Y29721D01*
X907277Y29270D01*
X907217Y28836D01*
X907133Y28418D01*
X907024Y28016D01*
X906892Y27630D01*
X906735Y27261D01*
X906554Y26908D01*
X906351Y26573D01*
X906126Y26259D01*
X905880Y25965D01*
X905612Y25692D01*
X905322Y25439D01*
X905012Y25206D01*
X904679Y24993D01*
X904325Y24802D01*
X903953Y24631D01*
X903566Y24483D01*
X903163Y24359D01*
X902746Y24256D01*
X902313Y24177D01*
X901865Y24120D01*
X901401Y24086D01*
X900923Y24075D01*
G37*
%LPC*%
G36*
X900923Y25774D02*
X901488Y25792D01*
X902023Y25847D01*
X902529Y25938D01*
X903004Y26066D01*
X903449Y26230D01*
X903865Y26431D01*
X904250Y26669D01*
X904606Y26943D01*
X904925Y27249D01*
X905202Y27584D01*
X905436Y27947D01*
X905627Y28339D01*
X905776Y28759D01*
X905883Y29207D01*
X905946Y29683D01*
X905968Y30188D01*
X905947Y30707D01*
X905885Y31194D01*
X905782Y31651D01*
X905638Y32077D01*
X905453Y32471D01*
X905226Y32834D01*
X904958Y33167D01*
X904649Y33468D01*
X904303Y33736D01*
X903922Y33968D01*
X903508Y34165D01*
X903059Y34325D01*
X902576Y34450D01*
X902059Y34540D01*
X901508Y34593D01*
X900923Y34611D01*
X900362Y34593D01*
X899833Y34539D01*
X899334Y34449D01*
X898867Y34323D01*
X898430Y34161D01*
X898024Y33963D01*
X897649Y33729D01*
X897305Y33459D01*
X896998Y33157D01*
X896731Y32824D01*
X896505Y32462D01*
X896320Y32070D01*
X896176Y31648D01*
X896074Y31197D01*
X896012Y30716D01*
X895992Y30206D01*
X896012Y29691D01*
X896073Y29206D01*
X896174Y28751D01*
X896316Y28327D01*
X896498Y27932D01*
X896721Y27568D01*
X896984Y27234D01*
X897288Y26930D01*
X897628Y26659D01*
X898001Y26424D01*
X898407Y26225D01*
X898845Y26063D01*
X899315Y25936D01*
X899819Y25846D01*
X900354Y25792D01*
X900923Y25774D01*
G37*
%LPD*%
G36*
X903725Y48911D02*
X903429Y48922D01*
X903145Y48954D01*
X902873Y49008D01*
X902613Y49084D01*
X902365Y49181D01*
X902129Y49300D01*
X901905Y49441D01*
X901693Y49603D01*
X901498Y49782D01*
X901322Y49973D01*
X901167Y50176D01*
X901032Y50391D01*
X900918Y50618D01*
X900823Y50857D01*
X900749Y51109D01*
X900695Y51372D01*
X900660Y51372D01*
X900592Y51127D01*
X900507Y50895D01*
X900405Y50676D01*
X900286Y50471D01*
X900149Y50279D01*
X899995Y50100D01*
X899824Y49934D01*
X899635Y49782D01*
X899434Y49646D01*
X899224Y49527D01*
X899006Y49427D01*
X898779Y49345D01*
X898544Y49282D01*
X898300Y49236D01*
X898048Y49209D01*
X897787Y49200D01*
X897443Y49216D01*
X897115Y49266D01*
X896805Y49348D01*
X896511Y49464D01*
X896233Y49612D01*
X895972Y49793D01*
X895728Y50008D01*
X895501Y50255D01*
X895296Y50530D01*
X895118Y50828D01*
X894967Y51148D01*
X894844Y51491D01*
X894748Y51857D01*
X894680Y52245D01*
X894639Y52655D01*
X894625Y53089D01*
X894639Y53532D01*
X894679Y53952D01*
X894746Y54347D01*
X894840Y54719D01*
X894961Y55066D01*
X895108Y55390D01*
X895282Y55690D01*
X895484Y55966D01*
X895708Y56213D01*
X895951Y56428D01*
X896212Y56609D01*
X896493Y56757D01*
X896793Y56873D01*
X897111Y56955D01*
X897448Y57005D01*
X897805Y57021D01*
X898065Y57012D01*
X898318Y56984D01*
X898561Y56939D01*
X898797Y56874D01*
X899023Y56792D01*
X899242Y56691D01*
X899451Y56572D01*
X899653Y56434D01*
X899841Y56281D01*
X900010Y56114D01*
X900025Y56096D01*
X900161Y55934D01*
X900294Y55740D01*
X900409Y55533D01*
X900505Y55313D01*
X900583Y55079D01*
X900642Y54832D01*
X900677Y54832D01*
X900735Y55119D01*
X900812Y55390D01*
X900909Y55644D01*
X901025Y55883D01*
X901160Y56104D01*
X901314Y56310D01*
X901487Y56498D01*
X901643Y56637D01*
X901680Y56671D01*
X901889Y56825D01*
X902111Y56958D01*
X902345Y57071D01*
X902592Y57163D01*
X902852Y57235D01*
X903125Y57287D01*
X903410Y57317D01*
X903708Y57328D01*
X904123Y57311D01*
X904515Y57260D01*
X904883Y57175D01*
X905228Y57056D01*
X905549Y56903D01*
X905846Y56717D01*
X906120Y56496D01*
X906371Y56242D01*
X906594Y55955D01*
X906788Y55640D01*
X906952Y55294D01*
X907087Y54919D01*
X907191Y54515D01*
X907266Y54080D01*
X907310Y53617D01*
X907325Y53124D01*
X907311Y52642D01*
X907267Y52188D01*
X907193Y51760D01*
X907091Y51360D01*
X906959Y50986D01*
X906798Y50640D01*
X906608Y50320D01*
X906388Y50027D01*
X906141Y49766D01*
X905870Y49539D01*
X905574Y49347D01*
X905254Y49190D01*
X904909Y49068D01*
X904539Y48981D01*
X904144Y48928D01*
X903725Y48911D01*
G37*
%LPC*%
G36*
X903594Y50540D02*
X903903Y50550D01*
X904191Y50580D01*
X904460Y50631D01*
X904709Y50702D01*
X904938Y50794D01*
X905147Y50906D01*
X905336Y51038D01*
X905506Y51190D01*
X905655Y51363D01*
X905784Y51556D01*
X905894Y51769D01*
X905984Y52003D01*
X906053Y52257D01*
X906103Y52531D01*
X906133Y52826D01*
X906143Y53141D01*
X906133Y53453D01*
X906104Y53744D01*
X906056Y54014D01*
X905988Y54264D01*
X905902Y54494D01*
X905795Y54703D01*
X905670Y54891D01*
X905525Y55059D01*
X905360Y55207D01*
X905171Y55335D01*
X904959Y55444D01*
X904725Y55532D01*
X904468Y55601D01*
X904188Y55650D01*
X903885Y55680D01*
X903559Y55690D01*
X903281Y55679D01*
X903021Y55647D01*
X902778Y55594D01*
X902553Y55519D01*
X902345Y55423D01*
X902156Y55306D01*
X901984Y55167D01*
X901829Y55007D01*
X901693Y54827D01*
X901574Y54631D01*
X901474Y54417D01*
X901392Y54186D01*
X901329Y53937D01*
X901283Y53672D01*
X901256Y53389D01*
X901247Y53089D01*
X901257Y52797D01*
X901286Y52521D01*
X901335Y52263D01*
X901403Y52020D01*
X901491Y51794D01*
X901599Y51584D01*
X901726Y51391D01*
X901873Y51214D01*
X902037Y51056D01*
X902215Y50919D01*
X902409Y50803D01*
X902616Y50708D01*
X902839Y50635D01*
X903076Y50582D01*
X903328Y50550D01*
X903594Y50540D01*
G37*
G36*
X897892Y50811D02*
X898149Y50821D01*
X898391Y50849D01*
X898616Y50896D01*
X898826Y50961D01*
X899020Y51046D01*
X899199Y51149D01*
X899361Y51271D01*
X899508Y51411D01*
X899639Y51569D01*
X899752Y51742D01*
X899847Y51931D01*
X899925Y52135D01*
X899986Y52355D01*
X900030Y52590D01*
X900056Y52840D01*
X900064Y53106D01*
X900056Y53376D01*
X900032Y53629D01*
X899992Y53866D01*
X899936Y54086D01*
X899864Y54290D01*
X899776Y54477D01*
X899672Y54647D01*
X899552Y54801D01*
X899414Y54937D01*
X899256Y55056D01*
X899078Y55156D01*
X898881Y55238D01*
X898663Y55301D01*
X898426Y55347D01*
X898169Y55374D01*
X897892Y55383D01*
X897639Y55374D01*
X897402Y55347D01*
X897181Y55303D01*
X896976Y55240D01*
X896788Y55159D01*
X896617Y55061D01*
X896461Y54944D01*
X896322Y54810D01*
X896200Y54657D01*
X896093Y54487D01*
X896003Y54299D01*
X895930Y54093D01*
X895873Y53868D01*
X895832Y53626D01*
X895807Y53366D01*
X895799Y53089D01*
X895807Y52819D01*
X895832Y52566D01*
X895873Y52329D01*
X895930Y52109D01*
X896004Y51905D01*
X896095Y51718D01*
X896201Y51548D01*
X896324Y51394D01*
X896464Y51257D01*
X896620Y51139D01*
X896791Y51039D01*
X896979Y50957D01*
X897183Y50893D01*
X897403Y50848D01*
X897640Y50820D01*
X897892Y50811D01*
G37*
%LPD*%
G36*
X907150Y12728D02*
X894809Y12728D01*
X894809Y17922D01*
X894824Y18426D01*
X894870Y18901D01*
X894946Y19347D01*
X895052Y19763D01*
X895189Y20150D01*
X895356Y20508D01*
X895554Y20837D01*
X895781Y21136D01*
X896037Y21403D01*
X896317Y21634D01*
X896623Y21830D01*
X896953Y21990D01*
X897308Y22114D01*
X897688Y22203D01*
X898093Y22257D01*
X898523Y22274D01*
X898950Y22257D01*
X899354Y22203D01*
X899736Y22114D01*
X900095Y21989D01*
X900432Y21828D01*
X900746Y21632D01*
X901038Y21399D01*
X901308Y21132D01*
X901550Y20833D01*
X901760Y20509D01*
X901938Y20159D01*
X902083Y19784D01*
X902196Y19383D01*
X902277Y18956D01*
X902325Y18504D01*
X902342Y18027D01*
X902342Y14401D01*
X907150Y14401D01*
X907150Y12728D01*
G37*
%LPC*%
G36*
X901019Y14401D02*
X901019Y17790D01*
X901009Y18130D01*
X900980Y18447D01*
X900932Y18743D01*
X900864Y19016D01*
X900777Y19268D01*
X900670Y19498D01*
X900545Y19706D01*
X900399Y19892D01*
X900235Y20056D01*
X900051Y20199D01*
X899847Y20319D01*
X899625Y20418D01*
X899383Y20494D01*
X899121Y20549D01*
X898841Y20582D01*
X898540Y20593D01*
X898251Y20582D01*
X897980Y20548D01*
X897728Y20492D01*
X897494Y20413D01*
X897279Y20312D01*
X897083Y20189D01*
X896906Y20043D01*
X896747Y19875D01*
X896607Y19684D01*
X896486Y19471D01*
X896383Y19235D01*
X896299Y18977D01*
X896233Y18696D01*
X896187Y18393D01*
X896159Y18068D01*
X896149Y17720D01*
X896149Y14401D01*
X901019Y14401D01*
G37*
%LPD*%
G36*
X896176Y37565D02*
X894809Y37565D01*
X894809Y47708D01*
X896176Y47708D01*
X896176Y43469D01*
X907150Y43469D01*
X907150Y41805D01*
X896176Y41805D01*
X896176Y37565D01*
G37*
D10*
X29050Y229700D02*
X29050Y255100D01*
X3650Y255100D01*
X3650Y229700D01*
X29050Y229700D01*
D11*
X-2700Y242400D02*
X-59850Y242400D01*
D10*
X29050Y255100D02*
X29050Y280500D01*
X3650Y280500D01*
X3650Y255100D01*
D11*
X-2700Y267800D02*
X-59850Y267800D01*
D10*
X29050Y280500D02*
X29050Y305900D01*
X3650Y305900D01*
X3650Y280500D01*
D11*
X-2700Y293200D02*
X-59850Y293200D01*
D10*
X29050Y305900D02*
X29050Y331300D01*
X3650Y331300D01*
X3650Y305900D01*
D11*
X-2700Y318600D02*
X-59850Y318600D01*
D12*
X1110Y242400D03*
X1110Y267800D03*
X1110Y293200D03*
X1110Y318600D03*
D13*
X34130Y242400D03*
X34130Y267800D03*
X34130Y293200D03*
X34130Y318600D03*
D10*
X204600Y470950D02*
X230000Y470950D01*
X230000Y496350D01*
X204600Y496350D01*
X204600Y470950D01*
D11*
X217300Y502700D02*
X217300Y559850D01*
D10*
X230000Y470950D02*
X255400Y470950D01*
X255400Y496350D01*
X230000Y496350D01*
D11*
X242700Y502700D02*
X242700Y559850D01*
D14*
X217300Y498890D03*
X242700Y498890D03*
D15*
X217300Y465870D03*
X242700Y465870D03*
D10*
X284600Y470950D02*
X310000Y470950D01*
X310000Y496350D01*
X284600Y496350D01*
X284600Y470950D01*
D11*
X297300Y502700D02*
X297300Y559850D01*
D10*
X310000Y470950D02*
X335400Y470950D01*
X335400Y496350D01*
X310000Y496350D01*
D11*
X322700Y502700D02*
X322700Y559850D01*
D14*
X297300Y498890D03*
X322700Y498890D03*
D15*
X297300Y465870D03*
X322700Y465870D03*
D10*
X181280Y29050D02*
X155880Y29050D01*
X155880Y3650D01*
X181280Y3650D01*
X181280Y29050D01*
D11*
X168580Y-2700D02*
X168580Y-59850D01*
D10*
X155880Y29050D02*
X130480Y29050D01*
X130480Y3650D01*
X155880Y3650D01*
D11*
X143180Y-2700D02*
X143180Y-59850D01*
D10*
X130480Y29050D02*
X105080Y29050D01*
X105080Y3650D01*
X130480Y3650D01*
D11*
X117780Y-2700D02*
X117780Y-59850D01*
D14*
X168580Y1110D03*
X143180Y1110D03*
X117780Y1110D03*
D15*
X168580Y34130D03*
X143180Y34130D03*
X117780Y34130D03*
D10*
X29050Y358300D02*
X29050Y383700D01*
X3650Y383700D01*
X3650Y358300D01*
X29050Y358300D01*
D11*
X-2700Y371000D02*
X-59850Y371000D01*
D10*
X29050Y383700D02*
X29050Y409100D01*
X3650Y409100D01*
X3650Y383700D01*
D11*
X-2700Y396400D02*
X-59850Y396400D01*
D12*
X1110Y371000D03*
X1110Y396400D03*
D13*
X34130Y371000D03*
X34130Y396400D03*
D16*
X90593Y326661D03*
D17*
X92493Y332570D02*
X92493Y398570D01*
X290007Y398570D02*
X290007Y332570D01*
D16*
X87470Y192687D03*
D17*
X86500Y203463D02*
X89970Y203463D01*
X86500Y203463D02*
X86500Y240463D01*
X101514Y240463D01*
X150030Y203463D02*
X153500Y203463D01*
X153500Y240463D01*
X138486Y240463D01*
D18*
X92009Y168750D02*
X92009Y151250D01*
X107991Y151250D02*
X107991Y168750D01*
X147991Y168750D02*
X147991Y151250D01*
X132009Y151250D02*
X132009Y168750D01*
D17*
X126199Y170099D02*
X126199Y155000D01*
X126199Y170099D02*
X113801Y170099D01*
X113801Y155000D01*
D18*
X108500Y121991D02*
X91500Y121991D01*
X91500Y138009D02*
X108500Y138009D01*
X131500Y121991D02*
X148500Y121991D01*
X148500Y138009D02*
X131500Y138009D01*
D10*
X256854Y29050D02*
X282254Y29050D01*
X256854Y29050D02*
X256854Y3650D01*
X282254Y3650D01*
X282254Y29050D01*
D11*
X269554Y-2700D02*
X269554Y-59850D01*
D10*
X256854Y29050D02*
X231454Y29050D01*
X231454Y3650D01*
X256854Y3650D01*
D11*
X244154Y-2700D02*
X244154Y-59850D01*
D10*
X231454Y29050D02*
X206054Y29050D01*
X206054Y3650D01*
X231454Y3650D01*
D11*
X218754Y-2700D02*
X218754Y-59850D01*
D14*
X269554Y1110D03*
X244154Y1110D03*
X218754Y1110D03*
D15*
X269554Y34130D03*
X244154Y34130D03*
X218754Y34130D03*
D10*
X29050Y99200D02*
X29050Y124600D01*
X3650Y124600D01*
X3650Y99200D01*
X29050Y99200D01*
D11*
X-2700Y111900D02*
X-59850Y111900D01*
D10*
X29050Y124600D02*
X29050Y150000D01*
X3650Y150000D01*
X3650Y124600D01*
D11*
X-2700Y137300D02*
X-59850Y137300D01*
D10*
X29050Y150000D02*
X29050Y175400D01*
X3650Y175400D01*
X3650Y150000D01*
D11*
X-2700Y162700D02*
X-59850Y162700D01*
D10*
X29050Y175400D02*
X29050Y200800D01*
X3650Y200800D01*
X3650Y175400D01*
D11*
X-2700Y188100D02*
X-59850Y188100D01*
D12*
X1110Y111900D03*
X1110Y137300D03*
X1110Y162700D03*
X1110Y188100D03*
D13*
X34130Y111900D03*
X34130Y137300D03*
X34130Y162700D03*
X34130Y188100D03*
D10*
X357829Y29050D02*
X383229Y29050D01*
X357829Y29050D02*
X357829Y3650D01*
X383229Y3650D01*
X383229Y29050D01*
D11*
X370529Y-2700D02*
X370529Y-59850D01*
D10*
X357829Y29050D02*
X332429Y29050D01*
X332429Y3650D01*
X357829Y3650D01*
D11*
X345129Y-2700D02*
X345129Y-59850D01*
D10*
X332429Y29050D02*
X307029Y29050D01*
X307029Y3650D01*
X332429Y3650D01*
D11*
X319729Y-2700D02*
X319729Y-59850D01*
D14*
X370529Y1110D03*
X345129Y1110D03*
X319729Y1110D03*
D15*
X370529Y34130D03*
X345129Y34130D03*
X319729Y34130D03*
D10*
X364600Y470950D02*
X390000Y470950D01*
X390000Y496350D01*
X364600Y496350D01*
X364600Y470950D01*
D11*
X377300Y502700D02*
X377300Y559850D01*
D10*
X390000Y470950D02*
X415400Y470950D01*
X415400Y496350D01*
X390000Y496350D01*
D11*
X402700Y502700D02*
X402700Y559850D01*
D14*
X377300Y498890D03*
X402700Y498890D03*
D15*
X377300Y465870D03*
X402700Y465870D03*
D10*
X444600Y470950D02*
X470000Y470950D01*
X470000Y496350D01*
X444600Y496350D01*
X444600Y470950D01*
D11*
X457300Y502700D02*
X457300Y559850D01*
D10*
X470000Y470950D02*
X495400Y470950D01*
X495400Y496350D01*
X470000Y496350D01*
D11*
X482700Y502700D02*
X482700Y559850D01*
D14*
X457300Y498890D03*
X482700Y498890D03*
D15*
X457300Y465870D03*
X482700Y465870D03*
D16*
X320874Y326661D03*
D17*
X322774Y332570D02*
X322774Y398570D01*
X520288Y398570D02*
X520288Y332570D01*
D16*
X317470Y192687D03*
D17*
X316500Y203463D02*
X319970Y203463D01*
X316500Y203463D02*
X316500Y240463D01*
X331514Y240463D01*
X380030Y203463D02*
X383500Y203463D01*
X383500Y240463D01*
X368486Y240463D01*
D18*
X322009Y168750D02*
X322009Y151250D01*
X337991Y151250D02*
X337991Y168750D01*
X377991Y168750D02*
X377991Y151250D01*
X362009Y151250D02*
X362009Y168750D01*
D17*
X356199Y170099D02*
X356199Y155000D01*
X356199Y170099D02*
X343801Y170099D01*
X343801Y155000D01*
D18*
X338500Y121991D02*
X321500Y121991D01*
X321500Y138009D02*
X338500Y138009D01*
X361500Y121991D02*
X378500Y121991D01*
X378500Y138009D02*
X361500Y138009D01*
D10*
X458803Y29050D02*
X484203Y29050D01*
X458803Y29050D02*
X458803Y3650D01*
X484203Y3650D01*
X484203Y29050D01*
D11*
X471503Y-2700D02*
X471503Y-59850D01*
D10*
X458803Y29050D02*
X433403Y29050D01*
X433403Y3650D01*
X458803Y3650D01*
D11*
X446103Y-2700D02*
X446103Y-59850D01*
D10*
X433403Y29050D02*
X408003Y29050D01*
X408003Y3650D01*
X433403Y3650D01*
D11*
X420703Y-2700D02*
X420703Y-59850D01*
D14*
X471503Y1110D03*
X446103Y1110D03*
X420703Y1110D03*
D15*
X471503Y34130D03*
X446103Y34130D03*
X420703Y34130D03*
D10*
X559777Y29050D02*
X585177Y29050D01*
X559777Y29050D02*
X559777Y3650D01*
X585177Y3650D01*
X585177Y29050D01*
D11*
X572477Y-2700D02*
X572477Y-59850D01*
D10*
X559777Y29050D02*
X534377Y29050D01*
X534377Y3650D01*
X559777Y3650D01*
D11*
X547077Y-2700D02*
X547077Y-59850D01*
D10*
X534377Y29050D02*
X508977Y29050D01*
X508977Y3650D01*
X534377Y3650D01*
D11*
X521677Y-2700D02*
X521677Y-59850D01*
D14*
X572477Y1110D03*
X547077Y1110D03*
X521677Y1110D03*
D15*
X572477Y34130D03*
X547077Y34130D03*
X521677Y34130D03*
D10*
X524600Y470950D02*
X550000Y470950D01*
X550000Y496350D01*
X524600Y496350D01*
X524600Y470950D01*
D11*
X537300Y502700D02*
X537300Y559850D01*
D10*
X550000Y470950D02*
X575400Y470950D01*
X575400Y496350D01*
X550000Y496350D01*
D11*
X562700Y502700D02*
X562700Y559850D01*
D14*
X537300Y498890D03*
X562700Y498890D03*
D15*
X537300Y465870D03*
X562700Y465870D03*
D10*
X604600Y470950D02*
X630000Y470950D01*
X630000Y496350D01*
X604600Y496350D01*
X604600Y470950D01*
D11*
X617300Y502700D02*
X617300Y559850D01*
D10*
X630000Y470950D02*
X655400Y470950D01*
X655400Y496350D01*
X630000Y496350D01*
D11*
X642700Y502700D02*
X642700Y559850D01*
D14*
X617300Y498890D03*
X642700Y498890D03*
D15*
X617300Y465870D03*
X642700Y465870D03*
D16*
X551155Y326661D03*
D17*
X553055Y332570D02*
X553055Y398570D01*
X750569Y398570D02*
X750569Y332570D01*
D16*
X537470Y192687D03*
D17*
X536500Y203463D02*
X539970Y203463D01*
X536500Y203463D02*
X536500Y240463D01*
X551514Y240463D01*
X600030Y203463D02*
X603500Y203463D01*
X603500Y240463D01*
X588486Y240463D01*
D18*
X542009Y168750D02*
X542009Y151250D01*
X557991Y151250D02*
X557991Y168750D01*
X597991Y168750D02*
X597991Y151250D01*
X582009Y151250D02*
X582009Y168750D01*
D17*
X563801Y165000D02*
X563801Y149901D01*
X576199Y149901D01*
X576199Y165000D01*
D18*
X558500Y121991D02*
X541500Y121991D01*
X541500Y138009D02*
X558500Y138009D01*
X581500Y121991D02*
X598500Y121991D01*
X598500Y138009D02*
X581500Y138009D01*
D10*
X660751Y29050D02*
X686151Y29050D01*
X660751Y29050D02*
X660751Y3650D01*
X686151Y3650D01*
X686151Y29050D01*
D11*
X673451Y-2700D02*
X673451Y-59850D01*
D10*
X660751Y29050D02*
X635351Y29050D01*
X635351Y3650D01*
X660751Y3650D01*
D11*
X648051Y-2700D02*
X648051Y-59850D01*
D10*
X635351Y29050D02*
X609951Y29050D01*
X609951Y3650D01*
X635351Y3650D01*
D11*
X622651Y-2700D02*
X622651Y-59850D01*
D14*
X673451Y1110D03*
X648051Y1110D03*
X622651Y1110D03*
D15*
X673451Y34130D03*
X648051Y34130D03*
X622651Y34130D03*
D10*
X761726Y29050D02*
X787126Y29050D01*
X761726Y29050D02*
X761726Y3650D01*
X787126Y3650D01*
X787126Y29050D01*
D11*
X774426Y-2700D02*
X774426Y-59850D01*
D10*
X761726Y29050D02*
X736326Y29050D01*
X736326Y3650D01*
X761726Y3650D01*
D11*
X749026Y-2700D02*
X749026Y-59850D01*
D10*
X736326Y29050D02*
X710926Y29050D01*
X710926Y3650D01*
X736326Y3650D01*
D11*
X723626Y-2700D02*
X723626Y-59850D01*
D14*
X774426Y1110D03*
X749026Y1110D03*
X723626Y1110D03*
D15*
X774426Y34130D03*
X749026Y34130D03*
X723626Y34130D03*
D10*
X710000Y470950D02*
X684600Y470950D01*
X710000Y470950D02*
X710000Y496350D01*
X684600Y496350D01*
X684600Y470950D01*
D11*
X697300Y502700D02*
X697300Y559850D01*
D10*
X710000Y470950D02*
X735400Y470950D01*
X735400Y496350D01*
X710000Y496350D01*
D11*
X722700Y502700D02*
X722700Y559850D01*
D14*
X697300Y498890D03*
X722700Y498890D03*
D15*
X697300Y465870D03*
X722700Y465870D03*
D10*
X764600Y470950D02*
X790000Y470950D01*
X790000Y496350D01*
X764600Y496350D01*
X764600Y470950D01*
D11*
X777300Y502700D02*
X777300Y559850D01*
D10*
X790000Y470950D02*
X815400Y470950D01*
X815400Y496350D01*
X790000Y496350D01*
D11*
X802700Y502700D02*
X802700Y559850D01*
D14*
X777300Y498890D03*
X802700Y498890D03*
D15*
X777300Y465870D03*
X802700Y465870D03*
D16*
X781436Y326661D03*
D17*
X783336Y332570D02*
X783336Y398570D01*
X980850Y398570D02*
X980850Y332570D01*
D16*
X777470Y192687D03*
D17*
X776500Y203463D02*
X779970Y203463D01*
X776500Y203463D02*
X776500Y240463D01*
X791514Y240463D01*
X840030Y203463D02*
X843500Y203463D01*
X843500Y240463D01*
X828486Y240463D01*
D18*
X782009Y168750D02*
X782009Y151250D01*
X797991Y151250D02*
X797991Y168750D01*
X837991Y168750D02*
X837991Y151250D01*
X822009Y151250D02*
X822009Y168750D01*
D17*
X803801Y165000D02*
X803801Y149901D01*
X816199Y149901D01*
X816199Y165000D01*
D18*
X798500Y138009D02*
X781500Y138009D01*
X781500Y121991D02*
X798500Y121991D01*
X821500Y121991D02*
X838500Y121991D01*
X838500Y138009D02*
X821500Y138009D01*
D10*
X862700Y29050D02*
X888100Y29050D01*
X862700Y29050D02*
X862700Y3650D01*
X888100Y3650D01*
X888100Y29050D01*
D11*
X875400Y-2700D02*
X875400Y-59850D01*
D10*
X862700Y29050D02*
X837300Y29050D01*
X837300Y3650D01*
X862700Y3650D01*
D11*
X850000Y-2700D02*
X850000Y-59850D01*
D10*
X837300Y29050D02*
X811900Y29050D01*
X811900Y3650D01*
X837300Y3650D01*
D11*
X824600Y-2700D02*
X824600Y-59850D01*
D14*
X875400Y1110D03*
X850000Y1110D03*
X824600Y1110D03*
D15*
X875400Y34130D03*
X850000Y34130D03*
X824600Y34130D03*
D17*
X260099Y123801D02*
X245000Y123801D01*
X260099Y123801D02*
X260099Y136199D01*
X245000Y136199D01*
D18*
X218500Y138009D02*
X201500Y138009D01*
X201500Y121991D02*
X218500Y121991D01*
D17*
X475000Y123801D02*
X490099Y123801D01*
X490099Y136199D01*
X475000Y136199D01*
D18*
X448500Y138009D02*
X431500Y138009D01*
X431500Y121991D02*
X448500Y121991D01*
D17*
X705000Y123801D02*
X720099Y123801D01*
X720099Y136199D01*
X705000Y136199D01*
D18*
X678500Y138009D02*
X661500Y138009D01*
X661500Y121991D02*
X678500Y121991D01*
D17*
X935000Y123801D02*
X950099Y123801D01*
X950099Y136199D01*
X935000Y136199D01*
D18*
X908500Y138009D02*
X891500Y138009D01*
X891500Y121991D02*
X908500Y121991D01*
D10*
X265050Y174950D02*
X265050Y245050D01*
X265050Y174950D02*
X194950Y174950D01*
X194950Y241500D01*
X198500Y245050D02*
X265050Y245050D01*
X198500Y245050D02*
X194950Y241500D01*
X198976Y237432D02*
X198978Y237551D01*
X198984Y237671D01*
X198994Y237790D01*
X199008Y237908D01*
X199026Y238026D01*
X199047Y238144D01*
X199073Y238260D01*
X199102Y238376D01*
X199136Y238491D01*
X199173Y238604D01*
X199214Y238716D01*
X199258Y238827D01*
X199306Y238937D01*
X199358Y239044D01*
X199413Y239150D01*
X199472Y239254D01*
X199535Y239356D01*
X199600Y239455D01*
X199669Y239553D01*
X199741Y239648D01*
X199816Y239741D01*
X199895Y239831D01*
X199976Y239919D01*
X200060Y240003D01*
X200147Y240085D01*
X200236Y240164D01*
X200328Y240240D01*
X200423Y240313D01*
X200520Y240383D01*
X200619Y240449D01*
X200721Y240512D01*
X200824Y240572D01*
X200929Y240628D01*
X201036Y240681D01*
X201145Y240730D01*
X201256Y240776D01*
X201368Y240817D01*
X201481Y240855D01*
X201595Y240890D01*
X201711Y240920D01*
X201827Y240947D01*
X201944Y240969D01*
X202062Y240988D01*
X202181Y241003D01*
X202300Y241014D01*
X202419Y241021D01*
X202538Y241024D01*
X202658Y241023D01*
X202777Y241018D01*
X202896Y241009D01*
X203015Y240996D01*
X203133Y240979D01*
X203250Y240959D01*
X203367Y240934D01*
X203483Y240905D01*
X203598Y240873D01*
X203712Y240837D01*
X203825Y240797D01*
X203936Y240753D01*
X204045Y240706D01*
X204153Y240655D01*
X204260Y240601D01*
X204364Y240543D01*
X204466Y240481D01*
X204567Y240417D01*
X204665Y240348D01*
X204761Y240277D01*
X204854Y240203D01*
X204945Y240125D01*
X205033Y240045D01*
X205118Y239961D01*
X205201Y239875D01*
X205281Y239786D01*
X205358Y239695D01*
X205431Y239601D01*
X205502Y239504D01*
X205569Y239406D01*
X205633Y239305D01*
X205694Y239202D01*
X205751Y239097D01*
X205804Y238991D01*
X205854Y238882D01*
X205901Y238772D01*
X205943Y238661D01*
X205982Y238548D01*
X206018Y238434D01*
X206049Y238318D01*
X206076Y238202D01*
X206100Y238085D01*
X206120Y237967D01*
X206136Y237849D01*
X206148Y237730D01*
X206156Y237611D01*
X206160Y237492D01*
X206160Y237372D01*
X206156Y237253D01*
X206148Y237134D01*
X206136Y237015D01*
X206120Y236897D01*
X206100Y236779D01*
X206076Y236662D01*
X206049Y236546D01*
X206018Y236430D01*
X205982Y236316D01*
X205943Y236203D01*
X205901Y236092D01*
X205854Y235982D01*
X205804Y235873D01*
X205751Y235767D01*
X205694Y235662D01*
X205633Y235559D01*
X205569Y235458D01*
X205502Y235360D01*
X205431Y235263D01*
X205358Y235169D01*
X205281Y235078D01*
X205201Y234989D01*
X205118Y234903D01*
X205033Y234819D01*
X204945Y234739D01*
X204854Y234661D01*
X204761Y234587D01*
X204665Y234516D01*
X204567Y234447D01*
X204466Y234383D01*
X204364Y234321D01*
X204260Y234263D01*
X204153Y234209D01*
X204045Y234158D01*
X203936Y234111D01*
X203825Y234067D01*
X203712Y234027D01*
X203598Y233991D01*
X203483Y233959D01*
X203367Y233930D01*
X203250Y233905D01*
X203133Y233885D01*
X203015Y233868D01*
X202896Y233855D01*
X202777Y233846D01*
X202658Y233841D01*
X202538Y233840D01*
X202419Y233843D01*
X202300Y233850D01*
X202181Y233861D01*
X202062Y233876D01*
X201944Y233895D01*
X201827Y233917D01*
X201711Y233944D01*
X201595Y233974D01*
X201481Y234009D01*
X201368Y234047D01*
X201256Y234088D01*
X201145Y234134D01*
X201036Y234183D01*
X200929Y234236D01*
X200824Y234292D01*
X200721Y234352D01*
X200619Y234415D01*
X200520Y234481D01*
X200423Y234551D01*
X200328Y234624D01*
X200236Y234700D01*
X200147Y234779D01*
X200060Y234861D01*
X199976Y234945D01*
X199895Y235033D01*
X199816Y235123D01*
X199741Y235216D01*
X199669Y235311D01*
X199600Y235409D01*
X199535Y235508D01*
X199472Y235610D01*
X199413Y235714D01*
X199358Y235820D01*
X199306Y235927D01*
X199258Y236037D01*
X199214Y236148D01*
X199173Y236260D01*
X199136Y236373D01*
X199102Y236488D01*
X199073Y236604D01*
X199047Y236720D01*
X199026Y236838D01*
X199008Y236956D01*
X198994Y237074D01*
X198984Y237193D01*
X198978Y237313D01*
X198976Y237432D01*
X495050Y245050D02*
X495050Y174950D01*
X424950Y174950D01*
X424950Y241500D01*
X428500Y245050D02*
X495050Y245050D01*
X428500Y245050D02*
X424950Y241500D01*
X428976Y237432D02*
X428978Y237551D01*
X428984Y237671D01*
X428994Y237790D01*
X429008Y237908D01*
X429026Y238026D01*
X429047Y238144D01*
X429073Y238260D01*
X429102Y238376D01*
X429136Y238491D01*
X429173Y238604D01*
X429214Y238716D01*
X429258Y238827D01*
X429306Y238937D01*
X429358Y239044D01*
X429413Y239150D01*
X429472Y239254D01*
X429535Y239356D01*
X429600Y239455D01*
X429669Y239553D01*
X429741Y239648D01*
X429816Y239741D01*
X429895Y239831D01*
X429976Y239919D01*
X430060Y240003D01*
X430147Y240085D01*
X430236Y240164D01*
X430328Y240240D01*
X430423Y240313D01*
X430520Y240383D01*
X430619Y240449D01*
X430721Y240512D01*
X430824Y240572D01*
X430929Y240628D01*
X431036Y240681D01*
X431145Y240730D01*
X431256Y240776D01*
X431368Y240817D01*
X431481Y240855D01*
X431595Y240890D01*
X431711Y240920D01*
X431827Y240947D01*
X431944Y240969D01*
X432062Y240988D01*
X432181Y241003D01*
X432300Y241014D01*
X432419Y241021D01*
X432538Y241024D01*
X432658Y241023D01*
X432777Y241018D01*
X432896Y241009D01*
X433015Y240996D01*
X433133Y240979D01*
X433250Y240959D01*
X433367Y240934D01*
X433483Y240905D01*
X433598Y240873D01*
X433712Y240837D01*
X433825Y240797D01*
X433936Y240753D01*
X434045Y240706D01*
X434153Y240655D01*
X434260Y240601D01*
X434364Y240543D01*
X434466Y240481D01*
X434567Y240417D01*
X434665Y240348D01*
X434761Y240277D01*
X434854Y240203D01*
X434945Y240125D01*
X435033Y240045D01*
X435118Y239961D01*
X435201Y239875D01*
X435281Y239786D01*
X435358Y239695D01*
X435431Y239601D01*
X435502Y239504D01*
X435569Y239406D01*
X435633Y239305D01*
X435694Y239202D01*
X435751Y239097D01*
X435804Y238991D01*
X435854Y238882D01*
X435901Y238772D01*
X435943Y238661D01*
X435982Y238548D01*
X436018Y238434D01*
X436049Y238318D01*
X436076Y238202D01*
X436100Y238085D01*
X436120Y237967D01*
X436136Y237849D01*
X436148Y237730D01*
X436156Y237611D01*
X436160Y237492D01*
X436160Y237372D01*
X436156Y237253D01*
X436148Y237134D01*
X436136Y237015D01*
X436120Y236897D01*
X436100Y236779D01*
X436076Y236662D01*
X436049Y236546D01*
X436018Y236430D01*
X435982Y236316D01*
X435943Y236203D01*
X435901Y236092D01*
X435854Y235982D01*
X435804Y235873D01*
X435751Y235767D01*
X435694Y235662D01*
X435633Y235559D01*
X435569Y235458D01*
X435502Y235360D01*
X435431Y235263D01*
X435358Y235169D01*
X435281Y235078D01*
X435201Y234989D01*
X435118Y234903D01*
X435033Y234819D01*
X434945Y234739D01*
X434854Y234661D01*
X434761Y234587D01*
X434665Y234516D01*
X434567Y234447D01*
X434466Y234383D01*
X434364Y234321D01*
X434260Y234263D01*
X434153Y234209D01*
X434045Y234158D01*
X433936Y234111D01*
X433825Y234067D01*
X433712Y234027D01*
X433598Y233991D01*
X433483Y233959D01*
X433367Y233930D01*
X433250Y233905D01*
X433133Y233885D01*
X433015Y233868D01*
X432896Y233855D01*
X432777Y233846D01*
X432658Y233841D01*
X432538Y233840D01*
X432419Y233843D01*
X432300Y233850D01*
X432181Y233861D01*
X432062Y233876D01*
X431944Y233895D01*
X431827Y233917D01*
X431711Y233944D01*
X431595Y233974D01*
X431481Y234009D01*
X431368Y234047D01*
X431256Y234088D01*
X431145Y234134D01*
X431036Y234183D01*
X430929Y234236D01*
X430824Y234292D01*
X430721Y234352D01*
X430619Y234415D01*
X430520Y234481D01*
X430423Y234551D01*
X430328Y234624D01*
X430236Y234700D01*
X430147Y234779D01*
X430060Y234861D01*
X429976Y234945D01*
X429895Y235033D01*
X429816Y235123D01*
X429741Y235216D01*
X429669Y235311D01*
X429600Y235409D01*
X429535Y235508D01*
X429472Y235610D01*
X429413Y235714D01*
X429358Y235820D01*
X429306Y235927D01*
X429258Y236037D01*
X429214Y236148D01*
X429173Y236260D01*
X429136Y236373D01*
X429102Y236488D01*
X429073Y236604D01*
X429047Y236720D01*
X429026Y236838D01*
X429008Y236956D01*
X428994Y237074D01*
X428984Y237193D01*
X428978Y237313D01*
X428976Y237432D01*
X725050Y245050D02*
X725050Y174950D01*
X654950Y174950D01*
X654950Y241500D01*
X658500Y245050D02*
X725050Y245050D01*
X658500Y245050D02*
X654950Y241500D01*
X658976Y237432D02*
X658978Y237551D01*
X658984Y237671D01*
X658994Y237790D01*
X659008Y237908D01*
X659026Y238026D01*
X659047Y238144D01*
X659073Y238260D01*
X659102Y238376D01*
X659136Y238491D01*
X659173Y238604D01*
X659214Y238716D01*
X659258Y238827D01*
X659306Y238937D01*
X659358Y239044D01*
X659413Y239150D01*
X659472Y239254D01*
X659535Y239356D01*
X659600Y239455D01*
X659669Y239553D01*
X659741Y239648D01*
X659816Y239741D01*
X659895Y239831D01*
X659976Y239919D01*
X660060Y240003D01*
X660147Y240085D01*
X660236Y240164D01*
X660328Y240240D01*
X660423Y240313D01*
X660520Y240383D01*
X660619Y240449D01*
X660721Y240512D01*
X660824Y240572D01*
X660929Y240628D01*
X661036Y240681D01*
X661145Y240730D01*
X661256Y240776D01*
X661368Y240817D01*
X661481Y240855D01*
X661595Y240890D01*
X661711Y240920D01*
X661827Y240947D01*
X661944Y240969D01*
X662062Y240988D01*
X662181Y241003D01*
X662300Y241014D01*
X662419Y241021D01*
X662538Y241024D01*
X662658Y241023D01*
X662777Y241018D01*
X662896Y241009D01*
X663015Y240996D01*
X663133Y240979D01*
X663250Y240959D01*
X663367Y240934D01*
X663483Y240905D01*
X663598Y240873D01*
X663712Y240837D01*
X663825Y240797D01*
X663936Y240753D01*
X664045Y240706D01*
X664153Y240655D01*
X664260Y240601D01*
X664364Y240543D01*
X664466Y240481D01*
X664567Y240417D01*
X664665Y240348D01*
X664761Y240277D01*
X664854Y240203D01*
X664945Y240125D01*
X665033Y240045D01*
X665118Y239961D01*
X665201Y239875D01*
X665281Y239786D01*
X665358Y239695D01*
X665431Y239601D01*
X665502Y239504D01*
X665569Y239406D01*
X665633Y239305D01*
X665694Y239202D01*
X665751Y239097D01*
X665804Y238991D01*
X665854Y238882D01*
X665901Y238772D01*
X665943Y238661D01*
X665982Y238548D01*
X666018Y238434D01*
X666049Y238318D01*
X666076Y238202D01*
X666100Y238085D01*
X666120Y237967D01*
X666136Y237849D01*
X666148Y237730D01*
X666156Y237611D01*
X666160Y237492D01*
X666160Y237372D01*
X666156Y237253D01*
X666148Y237134D01*
X666136Y237015D01*
X666120Y236897D01*
X666100Y236779D01*
X666076Y236662D01*
X666049Y236546D01*
X666018Y236430D01*
X665982Y236316D01*
X665943Y236203D01*
X665901Y236092D01*
X665854Y235982D01*
X665804Y235873D01*
X665751Y235767D01*
X665694Y235662D01*
X665633Y235559D01*
X665569Y235458D01*
X665502Y235360D01*
X665431Y235263D01*
X665358Y235169D01*
X665281Y235078D01*
X665201Y234989D01*
X665118Y234903D01*
X665033Y234819D01*
X664945Y234739D01*
X664854Y234661D01*
X664761Y234587D01*
X664665Y234516D01*
X664567Y234447D01*
X664466Y234383D01*
X664364Y234321D01*
X664260Y234263D01*
X664153Y234209D01*
X664045Y234158D01*
X663936Y234111D01*
X663825Y234067D01*
X663712Y234027D01*
X663598Y233991D01*
X663483Y233959D01*
X663367Y233930D01*
X663250Y233905D01*
X663133Y233885D01*
X663015Y233868D01*
X662896Y233855D01*
X662777Y233846D01*
X662658Y233841D01*
X662538Y233840D01*
X662419Y233843D01*
X662300Y233850D01*
X662181Y233861D01*
X662062Y233876D01*
X661944Y233895D01*
X661827Y233917D01*
X661711Y233944D01*
X661595Y233974D01*
X661481Y234009D01*
X661368Y234047D01*
X661256Y234088D01*
X661145Y234134D01*
X661036Y234183D01*
X660929Y234236D01*
X660824Y234292D01*
X660721Y234352D01*
X660619Y234415D01*
X660520Y234481D01*
X660423Y234551D01*
X660328Y234624D01*
X660236Y234700D01*
X660147Y234779D01*
X660060Y234861D01*
X659976Y234945D01*
X659895Y235033D01*
X659816Y235123D01*
X659741Y235216D01*
X659669Y235311D01*
X659600Y235409D01*
X659535Y235508D01*
X659472Y235610D01*
X659413Y235714D01*
X659358Y235820D01*
X659306Y235927D01*
X659258Y236037D01*
X659214Y236148D01*
X659173Y236260D01*
X659136Y236373D01*
X659102Y236488D01*
X659073Y236604D01*
X659047Y236720D01*
X659026Y236838D01*
X659008Y236956D01*
X658994Y237074D01*
X658984Y237193D01*
X658978Y237313D01*
X658976Y237432D01*
X955050Y245050D02*
X955050Y174950D01*
X884950Y174950D01*
X884950Y241500D01*
X888500Y245050D02*
X955050Y245050D01*
X888500Y245050D02*
X884950Y241500D01*
X888976Y237432D02*
X888978Y237551D01*
X888984Y237671D01*
X888994Y237790D01*
X889008Y237908D01*
X889026Y238026D01*
X889047Y238144D01*
X889073Y238260D01*
X889102Y238376D01*
X889136Y238491D01*
X889173Y238604D01*
X889214Y238716D01*
X889258Y238827D01*
X889306Y238937D01*
X889358Y239044D01*
X889413Y239150D01*
X889472Y239254D01*
X889535Y239356D01*
X889600Y239455D01*
X889669Y239553D01*
X889741Y239648D01*
X889816Y239741D01*
X889895Y239831D01*
X889976Y239919D01*
X890060Y240003D01*
X890147Y240085D01*
X890236Y240164D01*
X890328Y240240D01*
X890423Y240313D01*
X890520Y240383D01*
X890619Y240449D01*
X890721Y240512D01*
X890824Y240572D01*
X890929Y240628D01*
X891036Y240681D01*
X891145Y240730D01*
X891256Y240776D01*
X891368Y240817D01*
X891481Y240855D01*
X891595Y240890D01*
X891711Y240920D01*
X891827Y240947D01*
X891944Y240969D01*
X892062Y240988D01*
X892181Y241003D01*
X892300Y241014D01*
X892419Y241021D01*
X892538Y241024D01*
X892658Y241023D01*
X892777Y241018D01*
X892896Y241009D01*
X893015Y240996D01*
X893133Y240979D01*
X893250Y240959D01*
X893367Y240934D01*
X893483Y240905D01*
X893598Y240873D01*
X893712Y240837D01*
X893825Y240797D01*
X893936Y240753D01*
X894045Y240706D01*
X894153Y240655D01*
X894260Y240601D01*
X894364Y240543D01*
X894466Y240481D01*
X894567Y240417D01*
X894665Y240348D01*
X894761Y240277D01*
X894854Y240203D01*
X894945Y240125D01*
X895033Y240045D01*
X895118Y239961D01*
X895201Y239875D01*
X895281Y239786D01*
X895358Y239695D01*
X895431Y239601D01*
X895502Y239504D01*
X895569Y239406D01*
X895633Y239305D01*
X895694Y239202D01*
X895751Y239097D01*
X895804Y238991D01*
X895854Y238882D01*
X895901Y238772D01*
X895943Y238661D01*
X895982Y238548D01*
X896018Y238434D01*
X896049Y238318D01*
X896076Y238202D01*
X896100Y238085D01*
X896120Y237967D01*
X896136Y237849D01*
X896148Y237730D01*
X896156Y237611D01*
X896160Y237492D01*
X896160Y237372D01*
X896156Y237253D01*
X896148Y237134D01*
X896136Y237015D01*
X896120Y236897D01*
X896100Y236779D01*
X896076Y236662D01*
X896049Y236546D01*
X896018Y236430D01*
X895982Y236316D01*
X895943Y236203D01*
X895901Y236092D01*
X895854Y235982D01*
X895804Y235873D01*
X895751Y235767D01*
X895694Y235662D01*
X895633Y235559D01*
X895569Y235458D01*
X895502Y235360D01*
X895431Y235263D01*
X895358Y235169D01*
X895281Y235078D01*
X895201Y234989D01*
X895118Y234903D01*
X895033Y234819D01*
X894945Y234739D01*
X894854Y234661D01*
X894761Y234587D01*
X894665Y234516D01*
X894567Y234447D01*
X894466Y234383D01*
X894364Y234321D01*
X894260Y234263D01*
X894153Y234209D01*
X894045Y234158D01*
X893936Y234111D01*
X893825Y234067D01*
X893712Y234027D01*
X893598Y233991D01*
X893483Y233959D01*
X893367Y233930D01*
X893250Y233905D01*
X893133Y233885D01*
X893015Y233868D01*
X892896Y233855D01*
X892777Y233846D01*
X892658Y233841D01*
X892538Y233840D01*
X892419Y233843D01*
X892300Y233850D01*
X892181Y233861D01*
X892062Y233876D01*
X891944Y233895D01*
X891827Y233917D01*
X891711Y233944D01*
X891595Y233974D01*
X891481Y234009D01*
X891368Y234047D01*
X891256Y234088D01*
X891145Y234134D01*
X891036Y234183D01*
X890929Y234236D01*
X890824Y234292D01*
X890721Y234352D01*
X890619Y234415D01*
X890520Y234481D01*
X890423Y234551D01*
X890328Y234624D01*
X890236Y234700D01*
X890147Y234779D01*
X890060Y234861D01*
X889976Y234945D01*
X889895Y235033D01*
X889816Y235123D01*
X889741Y235216D01*
X889669Y235311D01*
X889600Y235409D01*
X889535Y235508D01*
X889472Y235610D01*
X889413Y235714D01*
X889358Y235820D01*
X889306Y235927D01*
X889258Y236037D01*
X889214Y236148D01*
X889173Y236260D01*
X889136Y236373D01*
X889102Y236488D01*
X889073Y236604D01*
X889047Y236720D01*
X889026Y236838D01*
X889008Y236956D01*
X888994Y237074D01*
X888984Y237193D01*
X888978Y237313D01*
X888976Y237432D01*
M02*
