G04 EAGLE Gerber RS-274X export*
G75*
%MOMM*%
%FSLAX34Y34*%
%LPD*%
%INSolderpaste Top*%
%IPPOS*%
%AMOC8*
5,1,8,0,0,1.08239X$1,22.5*%
G01*
G04 Define Apertures*
%ADD10R,0.897900X1.860300*%
%ADD11R,3.189100X1.860300*%
%ADD12R,0.970200X0.920900*%
%ADD13R,0.500000X0.700000*%
%ADD14R,0.798700X0.973900*%
%ADD15R,0.700000X0.500000*%
%ADD16R,1.270000X0.558800*%
%ADD17R,0.558800X1.270000*%
D10*
X97000Y191213D03*
X120000Y191213D03*
X143000Y191213D03*
D11*
X120000Y252713D03*
D12*
X100000Y152254D03*
X100000Y167746D03*
X140000Y167746D03*
X140000Y152254D03*
D13*
X120000Y164500D03*
X120000Y155500D03*
D14*
X108152Y130000D03*
X91848Y130000D03*
X148152Y130000D03*
X131848Y130000D03*
D10*
X327000Y191213D03*
X350000Y191213D03*
X373000Y191213D03*
D11*
X350000Y252713D03*
D12*
X330000Y152254D03*
X330000Y167746D03*
X370000Y167746D03*
X370000Y152254D03*
D13*
X350000Y164500D03*
X350000Y155500D03*
D14*
X338152Y130000D03*
X321848Y130000D03*
X378152Y130000D03*
X361848Y130000D03*
D10*
X547000Y191213D03*
X570000Y191213D03*
X593000Y191213D03*
D11*
X570000Y252713D03*
D12*
X550000Y152254D03*
X550000Y167746D03*
X590000Y167746D03*
X590000Y152254D03*
D13*
X570000Y155500D03*
X570000Y164500D03*
D14*
X558152Y130000D03*
X541848Y130000D03*
X598152Y130000D03*
X581848Y130000D03*
D10*
X787000Y191213D03*
X810000Y191213D03*
X833000Y191213D03*
D11*
X810000Y252713D03*
D12*
X790000Y152254D03*
X790000Y167746D03*
X830000Y167746D03*
X830000Y152254D03*
D13*
X810000Y155500D03*
X810000Y164500D03*
D14*
X781848Y130000D03*
X798152Y130000D03*
X838152Y130000D03*
X821848Y130000D03*
D15*
X254500Y130000D03*
X245500Y130000D03*
D14*
X201848Y130000D03*
X218152Y130000D03*
D15*
X484500Y130000D03*
X475500Y130000D03*
D14*
X431848Y130000D03*
X448152Y130000D03*
D15*
X714500Y130000D03*
X705500Y130000D03*
D14*
X661848Y130000D03*
X678152Y130000D03*
D15*
X944500Y130000D03*
X935500Y130000D03*
D14*
X891848Y130000D03*
X908152Y130000D03*
D16*
X187074Y238000D03*
X187074Y230000D03*
X187074Y222000D03*
X187074Y214000D03*
X187074Y206000D03*
X187074Y198000D03*
X187074Y190000D03*
X187074Y182000D03*
D17*
X202000Y167074D03*
X210000Y167074D03*
X218000Y167074D03*
X226000Y167074D03*
X234000Y167074D03*
X242000Y167074D03*
X250000Y167074D03*
X258000Y167074D03*
D16*
X272926Y182000D03*
X272926Y190000D03*
X272926Y198000D03*
X272926Y206000D03*
X272926Y214000D03*
X272926Y222000D03*
X272926Y230000D03*
X272926Y238000D03*
D17*
X258000Y252926D03*
X250000Y252926D03*
X242000Y252926D03*
X234000Y252926D03*
X226000Y252926D03*
X218000Y252926D03*
X210000Y252926D03*
X202000Y252926D03*
D16*
X417074Y238000D03*
X417074Y230000D03*
X417074Y222000D03*
X417074Y214000D03*
X417074Y206000D03*
X417074Y198000D03*
X417074Y190000D03*
X417074Y182000D03*
D17*
X432000Y167074D03*
X440000Y167074D03*
X448000Y167074D03*
X456000Y167074D03*
X464000Y167074D03*
X472000Y167074D03*
X480000Y167074D03*
X488000Y167074D03*
D16*
X502926Y182000D03*
X502926Y190000D03*
X502926Y198000D03*
X502926Y206000D03*
X502926Y214000D03*
X502926Y222000D03*
X502926Y230000D03*
X502926Y238000D03*
D17*
X488000Y252926D03*
X480000Y252926D03*
X472000Y252926D03*
X464000Y252926D03*
X456000Y252926D03*
X448000Y252926D03*
X440000Y252926D03*
X432000Y252926D03*
D16*
X647074Y238000D03*
X647074Y230000D03*
X647074Y222000D03*
X647074Y214000D03*
X647074Y206000D03*
X647074Y198000D03*
X647074Y190000D03*
X647074Y182000D03*
D17*
X662000Y167074D03*
X670000Y167074D03*
X678000Y167074D03*
X686000Y167074D03*
X694000Y167074D03*
X702000Y167074D03*
X710000Y167074D03*
X718000Y167074D03*
D16*
X732926Y182000D03*
X732926Y190000D03*
X732926Y198000D03*
X732926Y206000D03*
X732926Y214000D03*
X732926Y222000D03*
X732926Y230000D03*
X732926Y238000D03*
D17*
X718000Y252926D03*
X710000Y252926D03*
X702000Y252926D03*
X694000Y252926D03*
X686000Y252926D03*
X678000Y252926D03*
X670000Y252926D03*
X662000Y252926D03*
D16*
X877074Y238000D03*
X877074Y230000D03*
X877074Y222000D03*
X877074Y214000D03*
X877074Y206000D03*
X877074Y198000D03*
X877074Y190000D03*
X877074Y182000D03*
D17*
X892000Y167074D03*
X900000Y167074D03*
X908000Y167074D03*
X916000Y167074D03*
X924000Y167074D03*
X932000Y167074D03*
X940000Y167074D03*
X948000Y167074D03*
D16*
X962926Y182000D03*
X962926Y190000D03*
X962926Y198000D03*
X962926Y206000D03*
X962926Y214000D03*
X962926Y222000D03*
X962926Y230000D03*
X962926Y238000D03*
D17*
X948000Y252926D03*
X940000Y252926D03*
X932000Y252926D03*
X924000Y252926D03*
X916000Y252926D03*
X908000Y252926D03*
X900000Y252926D03*
X892000Y252926D03*
M02*
