M48
;GenerationSoftware,Autodesk,EAGLE,9.7.0*%
;CreationDate,2024-06-25T03:48:08Z*%
FMAT,2
ICI,OFF
METRIC,TZ,000.000
T5C0.350
T4C0.700
T3C0.813
T2C0.900
T1C3.000
%
G90
M71
T1
X55000Y75000
X55000Y5000
X5000Y75000
X5000Y5000
T2
X49070Y35660
X49070Y33120
X49070Y30580
X49070Y28040
X49070Y25500
X49070Y22960
X49070Y20420
X12240Y33120
X49070Y12800
X49070Y10260
X49070Y7720
X49070Y5180
X33830Y5180
X33830Y7720
X33830Y10260
X49070Y15340
X12240Y40740
X12240Y38200
X12240Y35660
X27480Y33120
X12240Y30580
X12240Y28040
X12240Y25500
X12240Y22960
X12240Y20420
X12240Y17880
X12240Y15340
X12240Y12800
X12240Y10260
X12240Y7720
X12240Y5180
X27480Y5180
X27480Y7720
X27480Y10260
X27480Y12800
X27480Y15340
X27480Y17880
X27480Y20420
X27480Y22960
X27480Y25500
X27480Y28040
X27480Y30580
X33830Y12800
X27480Y35660
X27480Y38200
X27480Y40740
X33830Y22960
X33830Y25500
X33830Y28040
X33830Y30580
X33830Y33120
X33830Y35660
X33830Y38200
X33830Y40740
X49070Y17880
X33830Y15340
X33830Y17880
X33830Y20420
X49070Y38200
X49070Y40740
T3
X15240Y65140
X15240Y67680
X15240Y54980
X15240Y57520
X15240Y62600
X15240Y60060
X7620Y67680
X7620Y65140
X7620Y62600
X7620Y60060
X7620Y57520
X7620Y54980
X7620Y52440
X7620Y49900
X27480Y49900
X27480Y52440
X27480Y65140
X27480Y67680
X27480Y57520
X27480Y62600
X27480Y60060
X19860Y67680
X19860Y65140
X19860Y62600
X19860Y60060
X19860Y57520
X19860Y54980
X19860Y52440
X19860Y49900
X27480Y54980
X15240Y49900
X15240Y52440
X40450Y49900
X40450Y52440
X40450Y65140
X40450Y67680
X40450Y54980
X40450Y57520
X40450Y62600
X40450Y60060
X32830Y67680
X32830Y65140
X32830Y62600
X32830Y60060
X32830Y57520
X32830Y54980
X32830Y52440
X32830Y49900
X52420Y49900
X52420Y52440
X52420Y65140
X52420Y67680
X52420Y54980
X52420Y57520
X52420Y62600
X52420Y60060
X44800Y67680
X44800Y65140
X44800Y62600
X44800Y60060
X44800Y57520
X44800Y54980
X44800Y52440
X44800Y49900
T4
X6315Y30140
X6315Y25140
X6315Y23140
X6315Y21140
X6315Y16140
X6315Y14140
X6315Y12140
X30870Y73680
X28870Y73680
X4000Y53000
X4000Y65000
X4000Y67000
X11000Y74000
X13000Y74000
X19000Y74000
X21000Y74000
X56000Y53000
X56000Y51000
X6315Y39140
X56000Y67000
X56000Y65000
X47000Y74000
X6315Y32140
X49000Y74000
X38240Y74000
X40240Y74000
X6315Y41140
X6315Y43140
X6315Y34140
X54115Y24860
X54115Y42860
X54115Y40860
X54115Y38860
X54115Y33860
X54115Y31860
X54115Y29860
X54115Y22860
X54115Y20860
X54115Y15860
X54115Y13860
X54115Y11860
X4000Y51000
T5
X14750Y30750
X42750Y54750
X51250Y26000
X42250Y64500
X29750Y63750
X35250Y65750
X36750Y51750
X37000Y49750
X36250Y65000
X12250Y56500
X25000Y18500
X23500Y15750
X8000Y17250
X22750Y51750
X24250Y22500
X17750Y14250
M30